<?xml version="1.0" standalone="no"?>
<!DOCTYPE svg PUBLIC "-//W3C//DTD SVG 20010904//EN"
 "http://www.w3.org/TR/2001/REC-SVG-20010904/DTD/svg10.dtd">
<svg version="1.0" xmlns="http://www.w3.org/2000/svg"
 width="1076.000000pt" height="917.000000pt" viewBox="0 0 1076.000000 917.000000"
 preserveAspectRatio="xMidYMid meet">

<g transform="translate(0.000000,917.000000) scale(0.100000,-0.100000)"
fill="#000000" stroke="none">
<path d="M4700 9124 c0 -21 -3 -24 -20 -19 -28 9 -70 -20 -70 -48 0 -38 16
-52 65 -53 l45 -2 0 74 c0 43 -4 74 -10 74 -5 0 -10 -12 -10 -26z m-7 -56 c13
-20 -6 -48 -34 -48 -22 0 -35 36 -18 56 15 18 38 15 52 -8z"/>
<path d="M5150 9075 c0 -80 17 -104 22 -32 2 34 7 42 23 42 16 0 21 -8 23 -42
4 -56 22 -55 22 1 0 49 -18 71 -50 61 -17 -5 -20 -2 -20 19 0 14 -4 26 -10 26
-6 0 -10 -32 -10 -75z"/>
<path d="M5967 9143 c-4 -3 -7 -15 -7 -25 0 -15 -5 -18 -21 -13 -25 8 -59 -19
-59 -47 0 -42 18 -57 65 -56 l45 1 0 73 c0 68 -6 85 -23 67z m-8 -72 c13 -24
-8 -55 -35 -49 -23 4 -30 33 -14 53 17 20 37 19 49 -4z"/>
<path d="M6200 9075 c0 -43 4 -75 10 -75 6 0 10 32 10 75 0 43 -4 75 -10 75
-6 0 -10 -32 -10 -75z"/>
<path d="M7375 9141 c-6 -11 9 -23 19 -14 9 9 7 23 -3 23 -6 0 -12 -4 -16 -9z"/>
<path d="M3960 9070 c0 -54 3 -70 14 -70 11 0 16 14 18 48 l3 47 34 -47 c49
-68 61 -63 61 22 0 81 -17 95 -22 18 l-3 -53 -38 53 c-54 73 -67 69 -67 -18z"/>
<path d="M7098 9123 c-3 -10 -2 -40 1 -68 5 -38 10 -51 25 -53 10 -2 23 1 29
7 8 8 5 11 -11 11 -18 0 -22 6 -22 35 0 27 4 35 18 35 16 1 16 1 0 14 -10 7
-18 18 -18 25 0 18 -17 13 -22 -6z"/>
<path d="M7298 9122 c-16 -60 24 -144 54 -114 9 9 7 12 -10 12 -18 0 -22 6
-22 35 0 24 5 35 15 35 8 0 15 5 15 10 0 6 -7 10 -15 10 -8 0 -15 7 -15 15 0
21 -17 19 -22 -3z"/>
<path d="M4140 9090 c-25 -25 -26 -52 -2 -73 21 -19 45 -21 73 -7 39 21 12
100 -34 100 -9 0 -26 -9 -37 -20z m60 -15 c18 -22 8 -50 -19 -50 -32 0 -49 28
-32 49 17 20 35 20 51 1z"/>
<path d="M4260 9055 c0 -30 5 -55 10 -55 6 0 10 15 10 34 0 35 21 63 40 51 5
-3 10 -24 10 -46 0 -21 5 -39 10 -39 6 0 10 15 10 34 0 37 21 62 45 52 10 -3
15 -19 15 -46 0 -22 5 -40 10 -40 6 0 10 20 10 44 0 55 -19 74 -56 57 -20 -9
-30 -9 -41 1 -11 9 -19 9 -34 0 -11 -7 -19 -8 -19 -2 0 5 -4 10 -10 10 -5 0
-10 -25 -10 -55z"/>
<path d="M4473 9104 c-22 -9 -14 -44 12 -56 32 -15 32 -32 0 -26 -14 3 -28 2
-31 -3 -6 -11 41 -23 61 -15 24 9 18 45 -10 58 -33 15 -32 32 0 25 16 -3 24 0
22 7 -4 12 -35 18 -54 10z"/>
<path d="M4768 9099 c-21 -12 -24 -69 -6 -87 15 -15 64 -16 73 -2 4 6 -6 10
-24 10 -16 0 -33 5 -36 10 -4 6 10 10 34 10 33 0 41 4 41 18 0 22 -30 52 -51
52 -8 0 -22 -5 -31 -11z m60 -26 c2 -9 -7 -13 -27 -13 -30 0 -39 9 -24 24 11
10 46 3 51 -11z"/>
<path d="M4888 9099 c-27 -15 -21 -39 12 -50 40 -14 39 -33 -1 -25 -22 4 -29
2 -26 -7 2 -6 19 -12 38 -12 28 0 35 4 37 23 3 18 -3 25 -27 33 -33 12 -32 34
0 26 23 -6 35 9 13 17 -21 8 -26 7 -46 -5z"/>
<path d="M5040 9090 c-24 -24 -25 -38 -4 -68 16 -23 49 -28 74 -12 16 10 8 13
-27 10 -31 -2 -48 33 -27 55 9 9 23 14 31 11 21 -8 39 4 22 15 -23 14 -48 10
-69 -11z"/>
<path d="M5293 9103 c-23 -9 -14 -22 13 -20 40 3 42 -21 2 -25 -28 -2 -33 -7
-33 -28 0 -23 4 -25 43 -26 l42 -2 0 42 c0 57 -23 77 -67 59z m45 -65 c-5 -15
-48 -24 -48 -10 0 14 12 22 33 22 10 0 17 -5 15 -12z"/>
<path d="M5397 9104 c-10 -11 -9 -104 2 -104 6 0 11 16 13 36 6 73 58 69 58
-3 0 -48 18 -40 22 10 2 34 7 42 23 42 16 0 21 -8 23 -42 4 -56 22 -55 22 1 0
53 -19 74 -53 59 -15 -7 -29 -7 -40 -2 -11 6 -24 6 -36 0 -13 -8 -20 -8 -23 0
-2 6 -7 7 -11 3z"/>
<path d="M5600 9038 c0 -39 4 -68 10 -68 6 0 10 8 10 19 0 14 6 17 25 13 32
-6 55 13 55 47 0 41 -15 55 -59 56 l-41 1 0 -68z m70 37 c6 -8 10 -22 8 -32
-5 -25 -51 -25 -56 0 -8 42 23 63 48 32z"/>
<path d="M5743 9103 c-22 -8 -14 -43 12 -55 32 -15 32 -32 0 -26 -14 3 -28 2
-31 -3 -6 -11 41 -23 61 -15 24 9 18 45 -10 58 -33 15 -32 28 3 28 21 0 24 2
12 10 -16 10 -28 11 -47 3z"/>
<path d="M6030 9090 c-25 -25 -26 -52 -2 -73 21 -19 49 -22 72 -7 17 11 9 13
-32 10 -42 -2 -33 18 9 22 44 4 52 19 24 47 -26 26 -46 26 -71 1z m60 -15 c11
-13 7 -15 -25 -15 -32 0 -36 2 -25 15 7 8 18 15 25 15 7 0 18 -7 25 -15z"/>
<path d="M6265 9100 c-20 -9 -17 -11 20 -13 33 -3 32 -22 -2 -25 -65 -6 -48
-63 18 -60 38 1 39 2 39 39 0 57 -28 79 -75 59z m53 -62 c-7 -20 -48 -23 -48
-4 0 11 9 16 26 16 16 0 24 -5 22 -12z"/>
<path d="M6430 9038 c0 -39 4 -68 10 -68 6 0 10 8 10 19 0 14 6 17 25 13 32
-6 55 13 55 47 0 41 -15 55 -59 56 l-41 1 0 -68z m70 37 c6 -8 10 -22 8 -32
-5 -25 -51 -25 -56 0 -8 42 23 63 48 32z"/>
<path d="M6570 9090 c-25 -25 -26 -52 -2 -73 21 -19 49 -22 72 -7 17 11 9 13
-32 10 -42 -2 -33 18 9 22 44 4 52 19 24 47 -26 26 -46 26 -71 1z m60 -15 c11
-13 7 -15 -25 -15 -32 0 -36 2 -25 15 7 8 18 15 25 15 7 0 18 -7 25 -15z"/>
<path d="M6687 9104 c-11 -11 -8 -104 3 -104 6 0 10 14 10 30 0 18 8 37 20 47
25 22 26 37 1 23 -13 -7 -20 -7 -23 1 -2 6 -7 7 -11 3z"/>
<path d="M6767 9104 c-10 -11 -9 -104 2 -104 6 0 11 16 13 36 6 73 58 69 58
-3 0 -48 18 -40 22 10 2 34 7 42 23 42 16 0 21 -8 23 -42 4 -56 22 -55 22 1 0
53 -19 74 -53 59 -15 -7 -29 -7 -40 -2 -11 6 -24 6 -36 0 -13 -8 -20 -8 -23 0
-2 6 -7 7 -11 3z"/>
<path d="M6967 9104 c-10 -11 -9 -62 3 -84 8 -14 20 -19 50 -17 l40 1 0 53 c0
63 -18 71 -22 11 -2 -35 -7 -44 -25 -46 -18 -3 -23 3 -28 35 -9 54 -10 55 -18
47z"/>
<path d="M7193 9103 c-23 -9 -14 -22 13 -20 40 3 42 -21 2 -25 -28 -2 -33 -7
-33 -28 0 -23 4 -25 43 -26 l42 -2 0 42 c0 57 -23 77 -67 59z m45 -65 c-5 -15
-48 -24 -48 -10 0 14 12 22 33 22 10 0 17 -5 15 -12z"/>
<path d="M7380 9056 c0 -31 5 -56 10 -56 6 0 10 22 10 49 0 28 -4 53 -10 56
-6 4 -10 -15 -10 -49z"/>
<path d="M7448 9099 c-21 -12 -24 -69 -6 -87 21 -21 66 -14 83 12 34 51 -23
107 -77 75z m57 -44 c0 -25 -4 -30 -25 -30 -19 0 -26 6 -28 24 -4 25 13 43 38
38 9 -1 15 -13 15 -32z"/>
<path d="M7564 9101 c-9 -9 -3 -101 6 -101 6 0 10 13 10 28 0 37 22 67 44 59
11 -4 16 -19 16 -47 0 -22 5 -40 10 -40 15 0 12 87 -2 97 -13 8 -76 11 -84 4z"/>
<path d="M419 8484 c-12 -15 -10 -16 18 -10 47 11 51 -10 9 -53 -48 -49 -46
-61 9 -61 25 0 45 5 45 10 0 6 -14 10 -32 10 l-32 0 32 33 c18 18 32 40 32 48
0 37 -56 53 -81 23z"/>
<path d="M543 8488 c-15 -21 -14 -104 2 -118 19 -15 66 -9 78 11 6 9 7 25 2
35 -4 11 -8 33 -9 49 -1 26 -5 30 -32 33 -17 2 -35 -3 -41 -10z m57 -22 c0 -8
-5 -18 -10 -21 -13 -8 -42 14 -34 26 9 15 44 10 44 -5z m5 -66 c0 -23 -49 -20
-53 3 -3 15 2 18 25 15 17 -2 28 -9 28 -18z"/>
<path d="M670 8485 c-16 -20 -16 -90 0 -110 15 -19 64 -20 79 -2 21 26 24 75
7 102 -19 29 -66 34 -86 10z m70 -30 c14 -37 -4 -77 -33 -73 -17 2 -23 11 -25
36 -4 45 3 62 28 62 13 0 24 -10 30 -25z"/>
<path d="M420 7905 c-12 -15 -10 -16 23 -10 49 9 49 -11 2 -64 -19 -21 -35
-41 -35 -45 0 -3 23 -6 50 -6 28 0 50 5 50 10 0 6 -14 10 -31 10 l-30 0 26 34
c35 46 31 80 -11 84 -19 2 -36 -3 -44 -13z"/>
<path d="M546 7898 c-32 -45 -8 -118 38 -118 28 0 46 18 46 46 0 30 -24 48
-55 40 -24 -6 -25 -5 -15 15 9 15 19 20 36 16 16 -3 24 0 24 9 0 24 -57 17
-74 -8z m62 -71 c4 -20 -25 -34 -40 -19 -15 15 -1 44 19 40 10 -2 19 -11 21
-21z"/>
<path d="M670 7905 c-16 -20 -16 -90 0 -110 15 -19 64 -20 79 -2 21 26 24 75
7 102 -19 29 -66 34 -86 10z m70 -30 c14 -37 -4 -77 -33 -73 -17 2 -23 11 -25
36 -4 45 3 62 28 62 13 0 24 -10 30 -25z"/>
<path d="M430 7335 c-12 -15 -10 -16 23 -10 49 9 49 -11 2 -64 -19 -21 -35
-41 -35 -45 0 -3 23 -6 50 -6 28 0 50 5 50 10 0 6 -14 10 -31 10 l-30 0 26 34
c35 46 31 80 -11 84 -19 2 -36 -3 -44 -13z"/>
<path d="M563 7310 c-29 -50 -29 -60 3 -60 17 0 28 -6 31 -20 3 -11 9 -20 13
-20 10 0 19 50 13 67 -6 15 -23 18 -23 3 0 -5 -7 -10 -15 -10 -19 0 -19 2 6
44 15 27 17 36 7 36 -7 0 -23 -18 -35 -40z"/>
<path d="M670 7335 c-16 -20 -16 -90 0 -110 15 -19 64 -20 79 -2 21 26 24 75
7 102 -19 29 -66 34 -86 10z m70 -30 c14 -37 -4 -77 -33 -73 -17 2 -23 11 -25
36 -4 45 3 62 28 62 13 0 24 -10 30 -25z"/>
<path d="M429 6764 c-12 -15 -10 -16 18 -10 47 11 51 -10 9 -53 -48 -49 -46
-61 9 -61 25 0 45 5 45 10 0 6 -14 10 -32 10 l-32 0 32 33 c18 18 32 40 32 48
0 37 -56 53 -81 23z"/>
<path d="M547 6773 c-15 -15 -5 -22 22 -17 43 9 46 -11 6 -54 -19 -22 -35 -45
-35 -51 0 -6 18 -11 45 -11 25 0 45 5 45 10 0 6 -14 10 -31 10 l-31 0 31 35
c34 39 38 54 19 73 -13 13 -60 16 -71 5z"/>
<path d="M670 6765 c-16 -20 -16 -90 0 -110 15 -19 64 -20 79 -2 21 26 24 75
7 102 -19 29 -66 34 -86 10z m70 -30 c14 -37 -4 -77 -33 -73 -17 2 -23 11 -25
36 -4 45 3 62 28 62 13 0 24 -10 30 -25z"/>
<path d="M409 6184 c-12 -15 -10 -16 18 -10 47 11 51 -10 9 -53 -48 -49 -46
-61 9 -61 25 0 45 5 45 10 0 6 -14 10 -32 10 l-32 0 32 33 c18 18 32 40 32 48
0 37 -56 53 -81 23z"/>
<path d="M530 6181 c-15 -29 -12 -87 6 -105 21 -21 57 -20 77 2 23 25 22 85
-1 105 -25 23 -69 22 -82 -2z m74 -17 c17 -43 -1 -84 -36 -84 -21 0 -33 38
-24 75 7 29 50 35 60 9z"/>
<path d="M670 6185 c-16 -20 -16 -90 0 -110 15 -19 64 -20 79 -2 21 26 24 75
7 102 -19 29 -66 34 -86 10z m70 -30 c14 -37 -4 -77 -33 -73 -17 2 -23 11 -25
36 -4 45 3 62 28 62 13 0 24 -10 30 -25z"/>
<path d="M440 5620 c0 -5 7 -10 15 -10 12 0 15 -13 15 -60 0 -33 4 -60 10 -60
6 0 10 30 10 70 0 68 -1 70 -25 70 -14 0 -25 -4 -25 -10z"/>
<path d="M543 5618 c-15 -21 -14 -104 2 -118 19 -15 66 -9 78 11 6 9 7 25 2
35 -4 11 -8 33 -9 49 -1 26 -5 30 -32 33 -17 2 -35 -3 -41 -10z m57 -22 c0 -8
-5 -18 -10 -21 -13 -8 -42 14 -34 26 9 15 44 10 44 -5z m5 -66 c0 -23 -49 -20
-53 3 -3 15 2 18 25 15 17 -2 28 -9 28 -18z"/>
<path d="M670 5615 c-16 -20 -16 -90 0 -110 15 -19 64 -20 79 -2 21 26 24 75
7 102 -19 29 -66 34 -86 10z m70 -30 c14 -37 -4 -77 -33 -73 -17 2 -23 11 -25
36 -4 45 3 62 28 62 13 0 24 -10 30 -25z"/>
<path d="M127 5613 c-11 -10 -8 -43 3 -43 6 0 10 5 10 10 0 6 27 10 60 10 47
0 60 3 60 15 0 12 -14 15 -63 15 -35 0 -67 -3 -70 -7z"/>
<path d="M120 5505 l0 -45 70 0 c68 0 98 15 43 22 -23 2 -29 8 -31 36 -4 40
-22 32 -22 -9 0 -44 -34 -36 -38 9 -5 48 -22 39 -22 -13z"/>
<path d="M182 5364 c-34 -23 -27 -75 11 -88 39 -14 61 2 65 48 2 21 -1 36 -8
36 -6 0 -8 -10 -5 -23 4 -15 1 -28 -9 -36 -14 -12 -16 -8 -16 33 0 50 -4 54
-38 30z m18 -46 c-1 -31 -2 -32 -15 -15 -7 11 -11 25 -8 33 10 25 23 15 23
-18z"/>
<path d="M120 5240 c0 -5 10 -10 23 -10 19 0 22 -5 22 -37 0 -32 4 -39 28 -47
43 -15 62 2 63 58 l2 46 -69 0 c-39 0 -69 -4 -69 -10z m114 -26 c18 -18 6 -54
-19 -54 -12 0 -45 26 -45 35 0 7 32 35 40 35 5 0 16 -7 24 -16z"/>
<path d="M244 5053 c2 -26 -54 -31 -71 -7 -11 16 -13 16 -13 2 0 -9 -10 -18
-22 -21 l-23 -4 23 -9 c13 -5 44 -7 70 -4 42 4 47 8 50 33 2 15 -1 27 -6 27
-5 0 -9 -8 -8 -17z"/>
<path d="M450 5050 c0 -5 7 -10 15 -10 12 0 15 -13 15 -60 0 -33 4 -60 10 -60
6 0 10 30 10 70 0 68 -1 70 -25 70 -14 0 -25 -4 -25 -10z"/>
<path d="M546 5038 c-32 -45 -8 -118 38 -118 28 0 46 18 46 46 0 30 -24 48
-55 40 -24 -6 -25 -5 -15 15 9 15 19 20 36 16 16 -3 24 0 24 9 0 24 -57 17
-74 -8z m62 -71 c4 -20 -25 -34 -40 -19 -15 15 -1 44 19 40 10 -2 19 -11 21
-21z"/>
<path d="M670 5045 c-16 -20 -16 -90 0 -110 15 -19 64 -20 79 -2 21 26 24 75
7 102 -19 29 -66 34 -86 10z m70 -30 c14 -37 -4 -77 -33 -73 -17 2 -23 11 -25
36 -4 45 3 62 28 62 13 0 24 -10 30 -25z"/>
<path d="M237 4974 c-3 -4 -2 -14 3 -24 14 -26 -10 -54 -39 -45 -19 6 -22 13
-19 36 3 20 0 29 -9 29 -10 0 -13 -11 -11 -37 2 -31 8 -39 31 -47 38 -14 61 2
65 44 3 32 -8 56 -21 44z"/>
<path d="M166 4841 c-3 -4 -5 -25 -4 -45 l1 -36 49 0 c56 0 65 17 11 22 -31 2
-39 7 -41 26 -3 20 1 22 37 22 23 0 41 5 41 10 0 12 -87 13 -94 1z"/>
<path d="M112 4719 c2 -6 8 -10 13 -10 5 0 11 4 13 10 2 6 -4 11 -13 11 -9 0
-15 -5 -13 -11z"/>
<path d="M160 4720 c0 -5 23 -10 50 -10 28 0 50 5 50 10 0 6 -22 10 -50 10
-27 0 -50 -4 -50 -10z"/>
<path d="M244 4673 c2 -26 -54 -31 -71 -7 -11 16 -13 16 -13 2 0 -9 -10 -18
-22 -21 l-23 -4 23 -9 c13 -5 44 -7 70 -4 42 4 47 8 50 33 2 15 -1 27 -6 27
-5 0 -9 -8 -8 -17z"/>
<path d="M160 4556 c0 -20 2 -36 4 -36 2 0 11 -3 20 -6 10 -4 20 5 31 26 19
36 38 31 29 -8 -5 -21 -4 -24 5 -16 20 19 9 69 -15 72 -17 2 -24 -5 -33 -30
-9 -25 -14 -30 -20 -19 -5 8 -7 20 -4 27 2 6 0 15 -6 19 -7 4 -11 -7 -11 -29z"/>
<path d="M112 4479 c2 -6 8 -10 13 -10 5 0 11 4 13 10 2 6 -4 11 -13 11 -9 0
-15 -5 -13 -11z"/>
<path d="M160 4480 c0 -5 23 -10 50 -10 28 0 50 5 50 10 0 6 -22 10 -50 10
-27 0 -50 -4 -50 -10z"/>
<path d="M460 4470 c0 -5 7 -10 15 -10 12 0 15 -13 15 -60 0 -33 4 -60 10 -60
6 0 10 30 10 70 0 68 -1 70 -25 70 -14 0 -25 -4 -25 -10z"/>
<path d="M563 4440 c-29 -50 -29 -60 3 -60 17 0 28 -6 31 -20 3 -11 9 -20 13
-20 10 0 19 50 13 67 -6 15 -23 18 -23 3 0 -5 -7 -10 -15 -10 -19 0 -19 2 6
44 15 27 17 36 7 36 -7 0 -23 -18 -35 -40z"/>
<path d="M670 4465 c-16 -20 -16 -90 0 -110 15 -19 64 -20 79 -2 21 26 24 75
7 102 -19 29 -66 34 -86 10z m70 -30 c14 -37 -4 -77 -33 -73 -17 2 -23 11 -25
36 -4 45 3 62 28 62 13 0 24 -10 30 -25z"/>
<path d="M120 4430 c0 -5 10 -10 23 -10 19 0 22 -5 22 -37 0 -32 4 -39 28 -47
43 -15 62 2 63 58 l2 46 -69 0 c-39 0 -69 -4 -69 -10z m114 -26 c18 -18 6 -54
-19 -54 -12 0 -45 26 -45 35 0 7 32 35 40 35 5 0 16 -7 24 -16z"/>
<path d="M120 4240 c0 -6 30 -10 70 -10 40 0 70 4 70 10 0 6 -30 10 -70 10
-40 0 -70 -4 -70 -10z"/>
<path d="M167 4183 c-11 -10 -8 -61 4 -68 6 -4 9 3 7 21 -2 15 2 29 9 31 7 3
13 -9 15 -29 2 -28 7 -33 28 -33 22 0 25 5 28 43 l3 42 -44 0 c-24 0 -47 -3
-50 -7z m77 -30 c9 -23 -12 -43 -24 -23 -5 8 -10 21 -10 28 0 18 27 15 34 -5z"/>
<path d="M244 4073 c2 -26 -54 -31 -71 -7 -11 16 -13 16 -13 2 0 -9 -10 -18
-22 -21 l-23 -4 23 -9 c13 -5 44 -7 70 -4 42 4 47 8 50 33 2 15 -1 27 -6 27
-5 0 -9 -8 -8 -17z"/>
<path d="M178 3979 c-12 -6 -18 -22 -18 -45 0 -27 5 -37 25 -46 40 -18 75 3
75 45 0 52 -37 73 -82 46z m61 -26 c12 -23 -4 -53 -29 -53 -25 0 -41 29 -29
52 12 23 45 23 58 1z"/>
<path d="M450 3900 c0 -5 7 -10 15 -10 12 0 15 -13 15 -60 0 -33 4 -60 10 -60
6 0 10 30 10 70 0 68 -1 70 -25 70 -14 0 -25 -4 -25 -10z"/>
<path d="M547 3903 c-15 -15 -5 -22 22 -17 43 9 46 -11 6 -54 -19 -22 -35 -45
-35 -51 0 -6 18 -11 45 -11 25 0 45 5 45 10 0 6 -14 10 -31 10 l-31 0 31 35
c34 39 38 54 19 73 -13 13 -60 16 -71 5z"/>
<path d="M670 3895 c-16 -20 -16 -90 0 -110 15 -19 64 -20 79 -2 21 26 24 75
7 102 -19 29 -66 34 -86 10z m70 -30 c14 -37 -4 -77 -33 -73 -17 2 -23 11 -25
36 -4 45 3 62 28 62 13 0 24 -10 30 -25z"/>
<path d="M120 3810 c0 -50 13 -67 23 -30 4 17 14 20 61 20 31 0 56 5 56 10 0
6 -25 10 -56 10 -47 0 -57 3 -61 20 -10 37 -23 20 -23 -30z"/>
<path d="M430 3330 c0 -5 7 -10 15 -10 12 0 15 -13 15 -60 0 -33 4 -60 10 -60
6 0 10 30 10 70 0 68 -1 70 -25 70 -14 0 -25 -4 -25 -10z"/>
<path d="M530 3321 c-15 -29 -12 -87 6 -105 21 -21 57 -20 77 2 23 25 22 85
-1 105 -25 23 -69 22 -82 -2z m74 -17 c17 -43 -1 -84 -36 -84 -21 0 -33 38
-24 75 7 29 50 35 60 9z"/>
<path d="M670 3325 c-16 -20 -16 -90 0 -110 15 -19 64 -20 79 -2 21 26 24 75
7 102 -19 29 -66 34 -86 10z m70 -30 c14 -37 -4 -77 -33 -73 -17 2 -23 11 -25
36 -4 45 3 62 28 62 13 0 24 -10 30 -25z"/>
<path d="M543 2748 c-15 -21 -14 -104 2 -118 19 -15 66 -9 78 11 6 9 7 25 2
35 -4 11 -8 33 -9 49 -1 26 -5 30 -32 33 -17 2 -35 -3 -41 -10z m57 -22 c0 -8
-5 -18 -10 -21 -13 -8 -42 14 -34 26 9 15 44 10 44 -5z m5 -66 c0 -23 -49 -20
-53 3 -3 15 2 18 25 15 17 -2 28 -9 28 -18z"/>
<path d="M670 2745 c-16 -20 -16 -90 0 -110 15 -19 64 -20 79 -2 21 26 24 75
7 102 -19 29 -66 34 -86 10z m70 -30 c14 -37 -4 -77 -33 -73 -17 2 -23 11 -25
36 -4 45 3 62 28 62 13 0 24 -10 30 -25z"/>
<path d="M546 2168 c-32 -45 -8 -118 38 -118 28 0 46 18 46 46 0 30 -24 48
-55 40 -24 -6 -25 -5 -15 15 9 15 19 20 36 16 16 -3 24 0 24 9 0 24 -57 17
-74 -8z m62 -71 c4 -20 -25 -34 -40 -19 -15 15 -1 44 19 40 10 -2 19 -11 21
-21z"/>
<path d="M670 2175 c-16 -20 -16 -90 0 -110 15 -19 64 -20 79 -2 21 26 24 75
7 102 -19 29 -66 34 -86 10z m70 -30 c14 -37 -4 -77 -33 -73 -17 2 -23 11 -25
36 -4 45 3 62 28 62 13 0 24 -10 30 -25z"/>
<path d="M563 1580 c-29 -50 -29 -60 3 -60 17 0 28 -6 31 -20 3 -11 9 -20 13
-20 10 0 19 50 13 67 -6 15 -23 18 -23 3 0 -5 -7 -10 -15 -10 -19 0 -19 2 6
44 15 27 17 36 7 36 -7 0 -23 -18 -35 -40z"/>
<path d="M670 1605 c-16 -20 -16 -90 0 -110 15 -19 64 -20 79 -2 21 26 24 75
7 102 -19 29 -66 34 -86 10z m70 -30 c14 -37 -4 -77 -33 -73 -17 2 -23 11 -25
36 -4 45 3 62 28 62 13 0 24 -10 30 -25z"/>
<path d="M547 1033 c-15 -15 -5 -22 22 -17 43 9 46 -11 6 -54 -19 -22 -35 -45
-35 -51 0 -6 18 -11 45 -11 25 0 45 5 45 10 0 6 -14 10 -31 10 l-31 0 31 35
c34 39 38 54 19 73 -13 13 -60 16 -71 5z"/>
<path d="M670 1025 c-16 -20 -16 -90 0 -110 15 -19 64 -20 79 -2 21 26 24 75
7 102 -19 29 -66 34 -86 10z m70 -30 c14 -37 -4 -77 -33 -73 -17 2 -23 11 -25
36 -4 45 3 62 28 62 13 0 24 -10 30 -25z"/>
<path d="M670 585 c-16 -20 -16 -90 0 -110 15 -19 64 -20 79 -2 21 26 24 75 7
102 -19 29 -66 34 -86 10z m70 -30 c14 -37 -4 -77 -33 -73 -17 2 -23 11 -25
36 -4 45 3 62 28 62 13 0 24 -10 30 -25z"/>
<path d="M2470 304 c0 -21 -4 -24 -20 -19 -33 10 -60 -12 -60 -49 0 -42 16
-56 63 -54 l37 1 0 74 c0 42 -4 73 -10 73 -5 0 -10 -12 -10 -26z m-12 -43 c8
-4 12 -19 10 -32 -2 -18 -9 -24 -28 -24 -19 0 -26 6 -28 24 -3 20 11 41 28 41
3 0 11 -4 18 -9z"/>
<path d="M3605 321 c-6 -11 9 -23 19 -14 9 9 7 23 -3 23 -6 0 -12 -4 -16 -9z"/>
<path d="M4170 304 c0 -21 -3 -24 -20 -19 -28 9 -70 -20 -70 -48 0 -38 16 -52
65 -53 l45 -2 0 74 c0 43 -4 74 -10 74 -5 0 -10 -12 -10 -26z m-7 -56 c13 -20
-6 -48 -34 -48 -22 0 -35 36 -18 56 15 18 38 15 52 -8z"/>
<path d="M8050 305 c0 -22 -3 -25 -24 -19 -30 7 -56 -18 -56 -55 0 -37 18 -51
63 -49 l37 1 0 74 c0 42 -4 73 -10 73 -5 0 -10 -11 -10 -25z m-5 -70 c0 -25
-4 -30 -25 -30 -28 0 -39 27 -19 51 20 24 44 13 44 -21z"/>
<path d="M9970 305 c0 -22 -3 -25 -24 -19 -17 4 -31 -1 -45 -15 -42 -42 -13
-92 52 -89 l37 1 0 74 c0 42 -4 73 -10 73 -5 0 -10 -11 -10 -25z m-10 -50 c16
-19 3 -55 -19 -55 -29 0 -44 25 -31 49 13 25 33 27 50 6z"/>
<path d="M10280 304 c0 -21 -4 -24 -20 -19 -33 10 -60 -12 -60 -49 0 -42 16
-56 63 -54 l37 1 0 74 c0 42 -4 73 -10 73 -5 0 -10 -12 -10 -26z m-12 -43 c8
-4 12 -19 10 -32 -2 -18 -9 -24 -28 -24 -19 0 -26 6 -28 24 -3 20 11 41 28 41
3 0 11 -4 18 -9z"/>
<path d="M10335 321 c-6 -11 9 -23 19 -14 9 9 7 23 -3 23 -6 0 -12 -4 -16 -9z"/>
<path d="M912 250 c-22 -50 -27 -70 -17 -70 7 0 15 7 19 15 3 9 19 15 41 15
22 0 38 -6 41 -15 4 -8 12 -15 19 -15 10 0 5 20 -17 70 -17 39 -36 70 -43 70
-7 0 -26 -31 -43 -70z m68 -12 c0 -5 -11 -8 -25 -8 -29 0 -29 0 -13 35 l12 26
13 -23 c7 -13 12 -26 13 -30z"/>
<path d="M1178 302 c-16 -60 24 -144 54 -114 9 9 7 12 -10 12 -18 0 -22 6 -22
35 0 24 5 35 15 35 8 0 15 5 15 10 0 6 -7 10 -15 10 -8 0 -15 7 -15 15 0 21
-17 19 -22 -3z"/>
<path d="M3450 250 l0 -70 40 0 c48 0 90 35 90 74 0 35 -43 66 -91 66 l-39 0
0 -70z m96 25 c15 -23 15 -27 0 -50 -10 -16 -26 -25 -41 -25 -23 0 -25 3 -25
50 0 47 2 50 25 50 15 0 31 -9 41 -25z"/>
<path d="M5640 250 c0 -40 4 -70 10 -70 6 0 10 30 10 70 0 40 -4 70 -10 70 -6
0 -10 -30 -10 -70z"/>
<path d="M5710 250 c0 -40 4 -70 10 -70 6 0 10 11 10 25 0 15 6 25 15 25 8 0
22 -11 31 -25 9 -14 23 -25 31 -25 12 0 12 3 0 21 -13 17 -13 25 -2 46 24 45
2 73 -57 73 l-38 0 0 -70z m78 23 c3 -20 -1 -23 -27 -23 -27 0 -31 4 -31 26 0
22 4 25 28 22 19 -2 28 -9 30 -25z"/>
<path d="M5861 294 c-12 -15 -21 -34 -21 -44 0 -10 9 -29 21 -44 22 -28 56
-34 90 -15 29 15 13 29 -20 16 -22 -8 -33 -8 -44 1 -23 19 -26 48 -10 72 13
19 22 21 56 16 35 -6 39 -5 27 9 -21 25 -75 19 -99 -11z"/>
<path d="M7020 250 l0 -70 40 0 c22 0 40 5 40 10 0 6 -13 10 -30 10 l-30 0 0
60 c0 33 -4 60 -10 60 -6 0 -10 -30 -10 -70z"/>
<path d="M7410 249 l0 -70 46 3 c52 3 73 23 59 54 -4 11 -7 27 -6 37 4 29 -19
47 -60 47 l-39 0 0 -71z m75 31 c0 -9 -11 -16 -27 -18 -23 -3 -28 1 -28 18 0
17 5 21 28 18 16 -2 27 -9 27 -18z m10 -60 c0 -10 -12 -16 -32 -18 -28 -3 -33
0 -33 18 0 18 5 21 33 18 20 -2 32 -8 32 -18z"/>
<path d="M8840 250 l0 -70 40 0 c22 0 40 5 40 10 0 6 -13 10 -30 10 l-30 0 0
60 c0 33 -4 60 -10 60 -6 0 -10 -30 -10 -70z"/>
<path d="M1047 284 c-10 -11 -9 -62 3 -84 8 -14 20 -19 50 -17 l40 1 0 53 c0
63 -18 71 -22 11 -2 -35 -7 -44 -25 -46 -18 -3 -23 3 -28 35 -9 54 -10 55 -18
47z"/>
<path d="M1260 235 c0 -30 5 -55 10 -55 6 0 10 16 10 35 0 22 6 38 15 41 8 4
15 13 15 21 0 13 -3 13 -15 3 -10 -9 -15 -9 -15 -1 0 6 -4 11 -10 11 -5 0 -10
-25 -10 -55z"/>
<path d="M1352 274 c-58 -40 8 -123 68 -84 16 11 9 13 -32 10 -14 -1 -29 3
-33 9 -4 7 8 11 34 11 37 0 41 2 41 25 0 14 -8 29 -19 35 -26 13 -33 13 -59
-6z m56 -21 c2 -9 -7 -13 -28 -13 -28 0 -31 2 -20 15 15 18 41 16 48 -2z"/>
<path d="M1472 278 c-19 -19 -14 -37 13 -50 32 -15 32 -32 0 -26 -35 7 -42
-10 -9 -18 55 -14 81 27 35 53 -37 22 -40 37 -6 30 16 -3 24 0 22 7 -5 16 -40
19 -55 4z"/>
<path d="M1632 274 c-43 -30 -17 -98 36 -92 34 4 39 24 6 23 -34 0 -53 27 -34
50 9 10 22 14 37 10 26 -6 32 9 7 19 -22 9 -27 8 -52 -10z"/>
<path d="M1745 280 c-20 -9 -17 -11 20 -13 33 -3 32 -22 -2 -25 -65 -6 -48
-63 18 -60 38 1 39 2 39 39 0 57 -28 79 -75 59z m53 -62 c-7 -20 -48 -23 -48
-4 0 11 9 16 26 16 16 0 24 -5 22 -12z"/>
<path d="M1850 235 c0 -30 5 -55 10 -55 6 0 10 15 10 34 0 35 21 63 40 51 5
-3 10 -24 10 -46 0 -28 4 -39 15 -39 16 0 20 36 9 77 -7 27 -40 39 -59 23 -11
-9 -15 -9 -15 -1 0 6 -4 11 -10 11 -5 0 -10 -25 -10 -55z"/>
<path d="M1993 283 c-25 -10 -12 -22 17 -16 23 4 30 2 30 -11 0 -11 -9 -16
-30 -16 -18 0 -33 -6 -36 -15 -10 -24 15 -44 52 -43 34 1 34 2 34 49 0 54 -22
71 -67 52z m47 -68 c0 -16 -35 -21 -44 -6 -8 12 4 21 26 21 10 0 18 -7 18 -15z"/>
<path d="M2102 238 l3 -53 43 -1 42 -2 0 54 c0 64 -17 73 -22 12 -2 -36 -7
-44 -25 -46 -21 -3 -23 1 -23 37 0 22 -5 43 -11 46 -7 5 -9 -11 -7 -47z"/>
<path d="M2220 283 c0 -5 7 -17 15 -27 13 -17 13 -23 -1 -44 -19 -29 -11 -41
14 -19 17 15 19 15 35 0 22 -22 35 -8 14 15 -10 10 -17 22 -17 27 0 5 7 17 17
27 9 10 13 21 9 26 -4 4 -16 -3 -25 -14 -17 -21 -18 -21 -29 -3 -12 19 -32 26
-32 12z"/>
<path d="M2542 274 c-26 -18 -29 -56 -6 -79 18 -17 65 -17 71 1 2 6 -8 9 -26
6 -16 -2 -32 1 -35 7 -5 7 7 11 33 11 37 0 41 2 41 25 0 14 -8 29 -19 35 -26
13 -33 13 -59 -6z m56 -21 c2 -9 -7 -13 -27 -13 -31 0 -42 14 -18 23 19 8 40
3 45 -10z"/>
<path d="M3610 236 c0 -31 5 -56 10 -56 6 0 10 22 10 49 0 28 -4 53 -10 56 -6
4 -10 -15 -10 -49z"/>
<path d="M3672 278 c-19 -19 -14 -37 13 -50 32 -15 32 -32 0 -26 -35 7 -42
-10 -9 -18 55 -14 81 27 35 53 -37 22 -40 37 -6 30 16 -3 24 0 22 7 -5 16 -40
19 -55 4z"/>
<path d="M3782 274 c-29 -20 -30 -69 -1 -84 25 -14 61 -9 67 7 2 9 -5 11 -27
7 -24 -5 -32 -2 -37 11 -10 26 10 50 40 48 29 -2 35 11 10 21 -22 9 -27 8 -52
-10z"/>
<path d="M3890 270 c-25 -25 -26 -52 -2 -73 21 -19 45 -21 73 -7 39 21 12 100
-34 100 -9 0 -26 -9 -37 -20z m60 -15 c18 -22 8 -50 -19 -50 -32 0 -49 28 -32
49 17 20 35 20 51 1z"/>
<path d="M4010 235 c0 -30 5 -55 10 -55 6 0 10 16 10 35 0 22 6 38 15 41 8 4
15 13 15 21 0 13 -3 13 -15 3 -10 -9 -15 -9 -15 -1 0 6 -4 11 -10 11 -5 0 -10
-25 -10 -55z"/>
<path d="M7142 274 c-26 -18 -29 -56 -6 -79 18 -17 65 -17 71 1 2 6 -8 9 -26
6 -16 -2 -32 1 -35 7 -5 7 7 11 33 11 37 0 41 2 41 25 0 14 -8 29 -19 35 -26
13 -33 13 -59 -6z m56 -21 c2 -9 -7 -13 -27 -13 -31 0 -42 14 -18 23 19 8 40
3 45 -10z"/>
<path d="M7263 283 c-22 -8 -14 -43 12 -55 32 -15 32 -32 0 -26 -14 3 -28 2
-31 -3 -6 -11 41 -23 61 -15 24 9 18 45 -10 58 -33 15 -32 28 3 28 21 0 24 2
12 10 -16 10 -28 11 -47 3z"/>
<path d="M7563 283 c-23 -9 -14 -22 13 -20 40 3 42 -21 2 -25 -28 -2 -33 -7
-33 -28 0 -23 4 -25 43 -26 l42 -2 0 42 c0 57 -23 77 -67 59z m45 -65 c-5 -15
-48 -24 -48 -10 0 14 12 22 33 22 10 0 17 -5 15 -12z"/>
<path d="M7653 278 c32 -80 41 -98 52 -98 14 0 49 84 42 103 -3 6 -13 -8 -24
-32 l-19 -45 -17 42 c-9 23 -22 42 -28 42 -6 0 -9 -6 -6 -12z"/>
<path d="M7793 283 c-23 -9 -14 -22 13 -20 40 3 42 -21 2 -25 -28 -2 -33 -7
-33 -28 0 -23 4 -25 43 -26 l42 -2 0 42 c0 57 -23 77 -67 59z m45 -65 c-5 -15
-48 -24 -48 -10 0 14 12 22 33 22 10 0 17 -5 15 -12z"/>
<path d="M7900 237 c0 -31 5 -57 10 -57 6 0 10 15 10 34 0 18 7 39 15 46 8 7
15 17 15 22 0 7 -5 6 -13 -1 -10 -8 -17 -7 -25 1 -9 9 -12 -1 -12 -45z"/>
<path d="M8123 283 c-25 -10 -12 -22 17 -16 23 4 30 2 30 -11 0 -11 -9 -16
-30 -16 -18 0 -33 -6 -36 -15 -10 -24 15 -44 52 -43 34 1 34 2 34 49 0 54 -22
71 -67 52z m47 -68 c0 -16 -35 -21 -44 -6 -8 12 4 21 26 21 10 0 18 -7 18 -15z"/>
<path d="M8235 273 c-36 -36 4 -105 47 -82 17 9 19 8 16 -8 -2 -13 -12 -18
-36 -18 -38 0 -37 -19 2 -23 44 -5 56 13 56 82 l0 62 -35 1 c-20 1 -42 -6 -50
-14z m60 -33 c0 -18 -6 -26 -23 -28 -24 -4 -38 18 -28 44 3 9 15 14 28 12 17
-2 23 -10 23 -28z"/>
<path d="M8372 274 c-58 -40 8 -123 68 -84 16 11 9 13 -32 10 -14 -1 -29 3
-33 9 -4 7 8 11 34 11 37 0 41 2 41 25 0 14 -8 29 -19 35 -26 13 -33 13 -59
-6z m56 -21 c2 -9 -7 -13 -28 -13 -28 0 -31 2 -20 15 15 18 41 16 48 -2z"/>
<path d="M8493 284 c-22 -9 -14 -44 12 -56 32 -15 32 -32 0 -26 -14 3 -28 2
-31 -3 -6 -11 41 -23 61 -15 24 9 18 45 -10 58 -33 15 -32 32 0 25 16 -3 24 0
22 7 -4 12 -35 18 -54 10z"/>
<path d="M8962 274 c-58 -40 8 -123 68 -84 16 11 9 13 -32 10 -14 -1 -29 3
-33 9 -4 7 8 11 34 11 37 0 41 2 41 25 0 14 -8 29 -19 35 -26 13 -33 13 -59
-6z m56 -21 c2 -9 -7 -13 -28 -13 -28 0 -31 2 -20 15 15 18 41 16 48 -2z"/>
<path d="M9083 284 c-22 -9 -14 -44 12 -56 32 -15 32 -32 0 -26 -14 3 -28 2
-31 -3 -6 -11 41 -23 61 -15 24 9 18 45 -10 58 -33 15 -32 32 0 25 16 -3 24 0
22 7 -4 12 -35 18 -54 10z"/>
<path d="M9230 213 c0 -42 4 -73 10 -73 6 0 10 11 10 24 0 19 4 22 25 18 34
-6 55 14 55 54 0 39 -12 48 -62 49 l-38 1 0 -73z m75 22 c0 -25 -4 -30 -25
-30 -19 0 -26 6 -28 24 -4 25 13 43 38 38 9 -1 15 -13 15 -32z"/>
<path d="M9375 280 c-20 -9 -17 -11 20 -13 33 -3 32 -22 -2 -25 -65 -6 -48
-63 18 -60 38 1 39 2 39 39 0 57 -28 79 -75 59z m53 -62 c-7 -20 -48 -23 -48
-4 0 11 9 16 26 16 16 0 24 -5 22 -12z"/>
<path d="M9484 269 c-14 -15 -16 -25 -8 -47 8 -23 15 -27 47 -27 27 0 36 -4
32 -13 -3 -8 -5 -16 -5 -18 0 -2 -16 -4 -36 -4 -21 0 -33 -4 -29 -10 3 -5 19
-10 35 -10 41 0 62 35 58 95 -3 47 -4 47 -39 51 -27 2 -42 -3 -55 -17z m64
-32 c3 -23 0 -27 -21 -27 -29 0 -43 26 -26 47 18 21 44 11 47 -20z"/>
<path d="M9620 270 c-25 -25 -26 -52 -2 -73 21 -19 49 -22 72 -7 17 11 9 13
-32 10 -42 -2 -33 18 9 22 44 4 52 19 24 47 -26 26 -46 26 -71 1z m60 -15 c11
-13 7 -15 -25 -15 -32 0 -36 2 -25 15 7 8 18 15 25 15 7 0 18 -7 25 -15z"/>
<path d="M9741 276 c-16 -18 -8 -46 12 -46 8 0 21 -7 28 -16 13 -15 11 -17
-19 -12 -21 3 -31 1 -29 -6 5 -16 46 -19 63 -6 23 20 16 40 -16 51 -32 12 -31
34 2 26 12 -4 18 -1 15 6 -6 18 -42 20 -56 3z"/>
<path d="M10037 272 c-21 -23 -22 -65 -3 -81 17 -15 68 -11 73 5 2 6 -8 9 -26
6 -16 -2 -32 1 -35 7 -5 7 7 11 33 11 34 0 41 3 41 19 0 24 -26 51 -49 51 -10
0 -25 -8 -34 -18z m61 -19 c2 -9 -7 -13 -27 -13 -30 0 -39 9 -24 24 11 10 46
3 51 -11z"/>
<path d="M10340 236 c0 -31 5 -56 10 -56 6 0 10 22 10 49 0 28 -4 53 -10 56
-6 4 -10 -15 -10 -49z"/>
<path d="M10403 284 c-22 -9 -14 -44 12 -56 32 -15 32 -32 0 -26 -14 3 -28 2
-31 -3 -6 -11 41 -23 61 -15 24 9 18 45 -10 58 -33 15 -32 32 0 25 16 -3 24 0
22 7 -4 12 -35 18 -54 10z"/>
<path d="M10507 276 c-22 -17 -20 -74 4 -89 17 -11 69 -2 69 12 0 5 -15 8 -32
7 -28 -1 -34 3 -36 23 -4 28 14 42 45 34 26 -6 32 12 7 21 -23 9 -37 7 -57 -8z"/>
<path d="M2706 203 c-11 -11 -6 -23 9 -23 8 0 15 4 15 9 0 13 -16 22 -24 14z"/>
<path d="M2760 195 c0 -9 5 -15 11 -13 6 2 11 8 11 13 0 5 -5 11 -11 13 -6 2
-11 -4 -11 -13z"/>
<path d="M10607 204 c-8 -8 1 -24 14 -24 5 0 9 7 9 15 0 15 -12 20 -23 9z"/>
<path d="M10665 199 c-10 -15 3 -25 16 -12 7 7 7 13 1 17 -6 3 -14 1 -17 -5z"/>
</g>
</svg>
