<?xml version="1.0" standalone="no"?>
<!DOCTYPE svg PUBLIC "-//W3C//DTD SVG 20010904//EN"
 "http://www.w3.org/TR/2001/REC-SVG-20010904/DTD/svg10.dtd">
<svg version="1.0" xmlns="http://www.w3.org/2000/svg"
 width="1076.000000pt" height="917.000000pt" viewBox="0 0 1076.000000 917.000000"
 preserveAspectRatio="xMidYMid meet">

<g transform="translate(0.000000,917.000000) scale(0.100000,-0.100000)"
fill="#000000" stroke="none">
<path d="M5390 9140 c0 -5 5 -10 10 -10 6 0 10 5 10 10 0 6 -4 10 -10 10 -5 0
-10 -4 -10 -10z"/>
<path d="M5755 9139 c-10 -15 3 -25 16 -12 7 7 7 13 1 17 -6 3 -14 1 -17 -5z"/>
<path d="M7070 9140 c0 -5 5 -10 10 -10 6 0 10 5 10 10 0 6 -4 10 -10 10 -5 0
-10 -4 -10 -10z"/>
<path d="M7127 9143 c-11 -10 -8 -143 3 -143 6 0 10 32 10 75 0 75 -1 81 -13
68z"/>
<path d="M7735 9141 c-6 -11 9 -23 19 -14 9 9 7 23 -3 23 -6 0 -12 -4 -16 -9z"/>
<path d="M7790 9075 c0 -71 11 -99 23 -55 3 11 10 20 16 20 6 0 15 -9 21 -20
6 -11 18 -20 26 -20 13 0 12 5 -5 26 -25 32 -26 42 -4 66 9 10 12 18 6 18 -5
0 -18 -9 -28 -20 -27 -29 -35 -25 -35 20 0 22 -4 40 -10 40 -6 0 -10 -32 -10
-75z"/>
<path d="M7905 9141 c-6 -11 9 -23 19 -14 9 9 7 23 -3 23 -6 0 -12 -4 -16 -9z"/>
<path d="M8040 9124 c0 -21 -4 -24 -20 -19 -33 10 -60 -12 -60 -49 0 -42 16
-56 63 -54 l37 1 0 74 c0 42 -4 73 -10 73 -5 0 -10 -12 -10 -26z m-12 -43 c8
-4 12 -19 10 -32 -2 -18 -9 -24 -28 -24 -19 0 -26 6 -28 24 -3 20 11 41 28 41
3 0 11 -4 18 -9z"/>
<path d="M8095 9141 c-6 -11 9 -23 19 -14 9 9 7 23 -3 23 -6 0 -12 -4 -16 -9z"/>
<path d="M3241 9114 c-12 -15 -21 -34 -21 -44 0 -10 9 -29 21 -44 22 -28 56
-34 90 -15 29 15 13 29 -20 16 -22 -8 -33 -8 -44 1 -23 19 -26 48 -10 72 13
19 22 21 56 16 35 -6 39 -5 27 9 -21 25 -75 19 -99 -11z"/>
<path d="M4168 9123 c-3 -10 -2 -40 1 -68 5 -38 10 -51 25 -53 10 -2 23 1 29
7 8 8 5 11 -11 11 -18 0 -22 6 -22 35 0 27 4 35 18 35 16 1 16 1 0 14 -10 7
-18 18 -18 25 0 18 -17 13 -22 -6z"/>
<path d="M6129 9123 c-4 -40 4 -99 13 -110 12 -15 48 -18 48 -4 0 5 -9 11 -20
14 -25 6 -29 67 -5 67 8 0 15 5 15 10 0 6 -7 10 -15 10 -8 0 -15 7 -15 15 0
21 -20 19 -21 -2z"/>
<path d="M7609 9073 c27 -67 54 -91 63 -56 3 10 15 42 27 71 16 40 18 52 7 52
-7 0 -21 -20 -30 -45 -10 -25 -21 -45 -25 -45 -5 0 -16 20 -25 45 -10 25 -24
45 -31 45 -10 0 -7 -18 14 -67z"/>
<path d="M8327 9134 c-4 -4 -7 -13 -7 -21 0 -11 4 -11 20 -1 26 16 36 3 21
-26 -21 -39 -8 -50 18 -15 18 24 21 36 14 48 -11 17 -54 27 -66 15z"/>
<path d="M3392 9094 c-41 -28 -19 -94 32 -94 28 0 56 29 56 58 0 20 -33 52
-55 52 -6 0 -21 -7 -33 -16z m59 -20 c17 -21 0 -49 -32 -49 -27 0 -37 28 -19
50 16 19 34 19 51 -1z"/>
<path d="M3510 9053 c0 -63 18 -71 22 -10 2 34 7 42 23 42 16 0 21 -8 23 -42
4 -51 22 -58 22 -9 0 35 21 63 40 51 5 -3 10 -24 10 -46 0 -28 4 -39 15 -39
21 0 20 73 -1 94 -18 18 -32 20 -54 7 -8 -6 -19 -7 -25 -3 -5 4 -25 7 -42 7
l-33 0 0 -52z"/>
<path d="M3710 9053 c0 -29 5 -53 10 -53 6 0 10 18 10 39 0 26 5 41 16 45 25
10 34 -2 34 -45 0 -21 5 -39 10 -39 6 0 10 15 10 34 0 41 23 65 45 46 8 -7 15
-28 15 -46 0 -19 5 -34 10 -34 6 0 10 18 10 39 0 56 -38 89 -67 60 -7 -7 -17
-8 -25 -3 -7 5 -28 9 -45 9 l-33 0 0 -52z"/>
<path d="M3920 9090 c-24 -24 -25 -38 -4 -68 12 -17 24 -22 47 -20 18 2 31 8
29 13 -2 6 -14 9 -27 7 -12 -2 -26 2 -30 7 -4 7 7 11 30 11 45 0 58 25 26 52
-30 23 -46 23 -71 -2z m60 -15 c11 -13 8 -15 -19 -15 -30 0 -39 9 -24 23 11
11 30 8 43 -8z"/>
<path d="M4034 9101 c-9 -9 -3 -101 6 -101 6 0 10 13 10 28 0 37 22 67 44 59
11 -4 16 -19 16 -47 0 -22 5 -40 10 -40 15 0 12 87 -2 97 -13 8 -76 11 -84 4z"/>
<path d="M4315 9100 c-20 -9 -17 -11 20 -13 33 -3 32 -22 -2 -25 -65 -6 -48
-63 18 -60 38 1 39 2 39 39 0 57 -28 79 -75 59z m53 -62 c-7 -20 -48 -23 -48
-4 0 11 9 16 26 16 16 0 24 -5 22 -12z"/>
<path d="M4410 9104 c0 -25 36 -104 47 -104 12 0 53 78 53 101 0 23 -20 6 -30
-26 -14 -41 -27 -45 -36 -10 -6 24 -34 56 -34 39z"/>
<path d="M4547 9092 c-21 -23 -22 -65 -3 -81 17 -15 68 -11 73 5 2 6 -8 9 -26
6 -16 -2 -32 1 -35 7 -5 7 7 11 33 11 34 0 41 3 41 19 0 24 -26 51 -49 51 -10
0 -25 -8 -34 -18z m61 -19 c2 -9 -7 -13 -27 -13 -30 0 -39 9 -24 24 11 10 46
3 51 -11z"/>
<path d="M4655 9100 c-4 -6 5 -10 19 -10 33 0 33 -10 1 -40 -38 -36 -32 -50
20 -50 25 0 45 5 45 10 0 6 -14 10 -31 10 l-31 0 31 36 c17 19 29 39 26 45 -8
12 -72 12 -80 -1z"/>
<path d="M4850 9101 c0 -23 41 -101 53 -101 14 0 54 97 44 107 -4 3 -14 -11
-23 -31 -10 -20 -21 -36 -25 -36 -4 0 -13 16 -19 35 -10 32 -30 49 -30 26z"/>
<path d="M4992 9094 c-41 -28 -19 -94 32 -94 28 0 56 29 56 58 0 20 -33 52
-55 52 -6 0 -21 -7 -33 -16z m59 -20 c17 -21 0 -49 -32 -49 -27 0 -37 28 -19
50 16 19 34 19 51 -1z"/>
<path d="M5107 9104 c-10 -11 -9 -62 3 -84 8 -14 20 -19 50 -17 l40 1 0 53 c0
63 -18 71 -22 11 -2 -35 -7 -44 -25 -46 -18 -3 -23 3 -28 35 -9 54 -10 55 -18
47z"/>
<path d="M5241 9096 c-16 -18 -8 -46 12 -46 8 0 21 -7 28 -16 13 -15 11 -17
-19 -12 -21 3 -31 1 -29 -6 5 -16 46 -19 63 -6 23 20 16 40 -16 51 -32 12 -31
34 2 26 12 -4 18 -1 15 6 -6 18 -42 20 -56 3z"/>
<path d="M5390 9046 c0 -53 -3 -65 -17 -69 -11 -3 -7 -5 10 -6 27 -1 27 -1 27
69 0 40 -4 70 -10 70 -6 0 -10 -28 -10 -64z"/>
<path d="M5447 9104 c-10 -11 -9 -62 3 -84 8 -14 20 -19 50 -17 l40 1 0 53 c0
63 -18 71 -22 11 -2 -35 -7 -44 -25 -46 -18 -3 -23 3 -28 35 -9 54 -10 55 -18
47z"/>
<path d="M5587 9098 c-44 -24 1 -111 45 -87 17 9 19 8 16 -8 -2 -13 -12 -18
-36 -18 -17 0 -32 -3 -32 -8 0 -4 19 -7 43 -5 l42 3 3 66 3 65 -34 1 c-18 0
-41 -3 -50 -9z m58 -38 c0 -18 -6 -26 -23 -28 -24 -4 -38 18 -28 44 3 9 15 14
28 12 17 -2 23 -10 23 -28z"/>
<path d="M5717 9092 c-21 -23 -22 -65 -3 -81 17 -15 68 -11 73 5 2 6 -8 9 -26
6 -16 -2 -32 1 -35 7 -5 7 7 11 33 11 34 0 41 3 41 19 0 24 -26 51 -49 51 -10
0 -25 -8 -34 -18z m61 -19 c2 -9 -7 -13 -27 -13 -30 0 -39 9 -24 24 11 10 46
3 51 -11z"/>
<path d="M5876 9088 c17 -54 35 -88 48 -88 15 0 50 83 43 103 -3 6 -14 -8 -25
-32 l-21 -45 -16 42 c-17 43 -42 60 -29 20z"/>
<path d="M6012 9094 c-27 -18 -29 -55 -4 -77 37 -34 92 -11 92 38 0 23 -32 55
-55 55 -6 0 -21 -7 -33 -16z m61 -25 c15 -24 1 -49 -27 -49 -29 0 -44 33 -25
56 15 18 38 15 52 -7z"/>
<path d="M6210 9055 c0 -30 5 -55 10 -55 6 0 10 14 10 30 0 18 8 37 20 47 11
10 20 21 20 26 0 4 -9 3 -20 -3 -14 -7 -20 -7 -20 0 0 5 -4 10 -10 10 -5 0
-10 -25 -10 -55z"/>
<path d="M6300 9090 c-24 -24 -25 -38 -4 -68 12 -17 24 -22 47 -20 18 2 31 8
29 13 -2 6 -14 9 -27 7 -12 -2 -26 2 -30 7 -4 7 7 11 30 11 45 0 58 25 26 52
-30 23 -46 23 -71 -2z m60 -15 c11 -13 8 -15 -19 -15 -30 0 -39 9 -24 23 11
11 30 8 43 -8z"/>
<path d="M6483 9103 c-25 -10 -12 -22 17 -16 23 4 30 2 30 -11 0 -11 -9 -16
-30 -16 -18 0 -33 -6 -36 -15 -10 -24 15 -44 52 -43 34 1 34 2 34 49 0 54 -22
71 -67 52z m47 -68 c0 -16 -35 -21 -44 -6 -8 12 4 21 26 21 10 0 18 -7 18 -15z"/>
<path d="M6602 9094 c-26 -18 -29 -56 -6 -79 18 -17 65 -17 71 1 2 7 -8 9 -26
6 -23 -3 -30 0 -36 17 -9 30 12 54 42 46 26 -6 32 9 7 19 -22 9 -27 8 -52 -10z"/>
<path d="M6710 9090 c-24 -24 -25 -38 -4 -68 16 -23 49 -28 74 -12 16 10 8 13
-27 10 -31 -2 -48 33 -27 55 9 9 23 14 31 11 21 -8 39 4 22 15 -23 14 -48 10
-69 -11z"/>
<path d="M6822 9058 l3 -53 43 -1 42 -2 0 54 c0 64 -17 73 -22 12 -2 -36 -7
-44 -25 -46 -21 -3 -23 1 -23 37 0 22 -5 43 -11 46 -7 5 -9 -11 -7 -47z"/>
<path d="M6962 9094 c-26 -18 -29 -56 -6 -79 18 -17 65 -17 71 1 2 6 -8 9 -26
6 -16 -2 -32 1 -35 7 -5 7 7 11 33 11 37 0 41 2 41 25 0 14 -8 29 -19 35 -26
13 -33 13 -59 -6z m56 -21 c2 -9 -7 -13 -27 -13 -31 0 -42 14 -18 23 19 8 40
3 45 -10z"/>
<path d="M7070 9055 c0 -30 5 -55 10 -55 6 0 10 25 10 55 0 30 -4 55 -10 55
-5 0 -10 -25 -10 -55z"/>
<path d="M7241 9096 c-16 -18 -8 -46 12 -46 8 0 21 -7 28 -16 13 -15 11 -17
-19 -12 -21 3 -31 1 -29 -6 5 -16 46 -19 63 -6 23 20 16 40 -16 51 -32 12 -31
34 2 26 12 -4 18 -1 15 6 -6 18 -42 20 -56 3z"/>
<path d="M7338 9104 c-13 -12 -9 -81 5 -92 6 -6 29 -10 50 -9 l37 1 0 53 c0
63 -18 71 -22 11 -2 -36 -7 -44 -25 -46 -23 -3 -28 7 -35 66 -2 13 -6 20 -10
16z"/>
<path d="M7464 9101 c-8 -8 -4 -101 5 -101 5 0 11 18 15 39 3 21 13 41 21 45
24 9 18 21 -11 21 -14 0 -28 -2 -30 -4z"/>
<path d="M7740 9056 c0 -31 5 -56 10 -56 6 0 10 22 10 49 0 28 -4 53 -10 56
-6 4 -10 -15 -10 -49z"/>
<path d="M7910 9056 c0 -31 5 -56 10 -56 6 0 10 22 10 49 0 28 -4 53 -10 56
-6 4 -10 -15 -10 -49z"/>
<path d="M8100 9056 c0 -31 5 -56 10 -56 6 0 10 22 10 49 0 28 -4 53 -10 56
-6 4 -10 -15 -10 -49z"/>
<path d="M8165 9100 c-20 -9 -17 -11 20 -13 33 -3 32 -22 -2 -25 -65 -6 -48
-63 18 -60 38 1 39 2 39 39 0 57 -28 79 -75 59z m53 -62 c-7 -20 -48 -23 -48
-4 0 11 9 16 26 16 16 0 24 -5 22 -12z"/>
<path d="M4760 9060 c0 -5 16 -10 35 -10 19 0 35 5 35 10 0 6 -16 10 -35 10
-19 0 -35 -4 -35 -10z"/>
<path d="M8347 9023 c-12 -11 -8 -23 8 -23 8 0 15 7 15 15 0 16 -12 20 -23 8z"/>
<path d="M445 8757 c-14 -24 -25 -47 -25 -50 0 -4 14 -7 30 -7 23 0 30 -4 30
-20 0 -11 5 -20 10 -20 6 0 10 9 10 19 0 11 4 21 9 23 5 2 3 12 -6 23 -11 14
-17 16 -20 8 -3 -7 -11 -13 -20 -13 -12 0 -11 6 6 34 23 37 25 46 11 46 -5 0
-21 -20 -35 -43z"/>
<path d="M542 8763 c3 -34 6 -37 33 -38 23 0 30 -5 30 -20 0 -16 -6 -20 -33
-18 -40 1 -39 -20 2 -25 33 -4 56 13 56 42 0 29 -18 46 -48 46 -32 0 -23 24
11 28 42 5 32 22 -14 22 l-40 0 3 -37z"/>
<path d="M670 8785 c-16 -20 -16 -90 0 -110 15 -19 64 -20 79 -2 21 26 24 75
7 102 -19 29 -66 34 -86 10z m70 -30 c14 -37 -4 -77 -33 -73 -17 2 -23 11 -25
36 -4 45 3 62 28 62 13 0 24 -10 30 -25z"/>
<path d="M425 7830 c-32 -51 -32 -60 5 -60 23 0 30 -4 30 -20 0 -11 5 -20 10
-20 6 0 10 9 10 19 0 11 4 21 9 23 5 2 3 12 -6 23 -11 14 -17 16 -20 8 -3 -7
-11 -13 -20 -13 -12 0 -11 6 6 36 24 40 25 44 11 44 -5 0 -21 -18 -35 -40z"/>
<path d="M530 7851 c-15 -29 -12 -87 6 -105 21 -21 57 -20 77 2 23 25 22 85
-1 105 -25 23 -69 22 -82 -2z m74 -17 c17 -43 -1 -84 -36 -84 -21 0 -33 38
-24 75 7 29 50 35 60 9z"/>
<path d="M670 7855 c-16 -20 -16 -90 0 -110 15 -19 64 -20 79 -2 21 26 24 75
7 102 -19 29 -66 34 -86 10z m70 -30 c14 -37 -4 -77 -33 -73 -17 2 -23 11 -25
36 -4 45 3 62 28 62 13 0 24 -10 30 -25z"/>
<path d="M430 6940 c0 -5 10 -10 21 -10 20 0 20 -1 6 -24 -15 -23 -15 -24 9
-30 33 -9 29 -41 -6 -42 -14 0 -27 -4 -30 -10 -8 -14 49 -17 66 -3 19 16 18
56 -3 68 -17 9 -17 10 0 28 25 28 22 33 -23 33 -22 0 -40 -4 -40 -10z"/>
<path d="M542 6913 c3 -34 6 -37 33 -38 23 0 30 -5 30 -20 0 -16 -6 -20 -33
-18 -40 1 -39 -20 2 -25 33 -4 56 13 56 42 0 29 -18 46 -48 46 -32 0 -23 24
11 28 42 5 32 22 -14 22 l-40 0 3 -37z"/>
<path d="M670 6935 c-16 -20 -16 -90 0 -110 15 -19 64 -20 79 -2 21 26 24 75
7 102 -19 29 -66 34 -86 10z m70 -30 c14 -37 -4 -77 -33 -73 -17 2 -23 11 -25
36 -4 45 3 62 28 62 13 0 24 -10 30 -25z"/>
<path d="M410 6010 c0 -5 10 -10 21 -10 20 0 20 -1 6 -24 -15 -23 -15 -24 9
-30 33 -9 29 -41 -6 -42 -14 0 -27 -4 -30 -10 -8 -14 49 -17 66 -3 19 16 18
56 -3 68 -17 9 -17 10 0 28 25 28 22 33 -23 33 -22 0 -40 -4 -40 -10z"/>
<path d="M530 6001 c-15 -29 -12 -87 6 -105 21 -21 57 -20 77 2 23 25 22 85
-1 105 -25 23 -69 22 -82 -2z m74 -17 c17 -43 -1 -84 -36 -84 -21 0 -33 38
-24 75 7 29 50 35 60 9z"/>
<path d="M670 6005 c-16 -20 -16 -90 0 -110 15 -19 64 -20 79 -2 21 26 24 75
7 102 -19 29 -66 34 -86 10z m70 -30 c14 -37 -4 -77 -33 -73 -17 2 -23 11 -25
36 -4 45 3 62 28 62 13 0 24 -10 30 -25z"/>
<path d="M127 5613 c-11 -10 -8 -43 3 -43 6 0 10 5 10 10 0 6 27 10 60 10 47
0 60 3 60 15 0 12 -14 15 -63 15 -35 0 -67 -3 -70 -7z"/>
<path d="M120 5505 l0 -45 70 0 c68 0 98 15 43 22 -23 2 -29 8 -31 36 -4 40
-22 32 -22 -9 0 -44 -34 -36 -38 9 -5 48 -22 39 -22 -13z"/>
<path d="M182 5364 c-34 -23 -27 -75 11 -88 39 -14 61 2 65 48 2 21 -1 36 -8
36 -6 0 -8 -10 -5 -23 4 -15 1 -28 -9 -36 -14 -12 -16 -8 -16 33 0 50 -4 54
-38 30z m18 -46 c-1 -31 -2 -32 -15 -15 -7 11 -11 25 -8 33 10 25 23 15 23
-18z"/>
<path d="M120 5240 c0 -5 10 -10 23 -10 19 0 22 -5 22 -37 0 -32 4 -39 28 -47
43 -15 62 2 63 58 l2 46 -69 0 c-39 0 -69 -4 -69 -10z m114 -26 c18 -18 6 -54
-19 -54 -12 0 -45 26 -45 35 0 7 32 35 40 35 5 0 16 -7 24 -16z"/>
<path d="M430 5085 c-11 -13 -8 -15 20 -13 45 4 46 -11 5 -59 -19 -23 -35 -44
-35 -47 0 -3 20 -6 45 -6 25 0 45 5 45 10 0 6 -11 10 -25 10 -14 0 -25 4 -25
8 0 5 11 19 25 32 27 26 32 49 13 68 -17 17 -53 15 -68 -3z"/>
<path d="M542 5063 c3 -34 6 -37 33 -38 23 0 30 -5 30 -20 0 -16 -6 -20 -33
-18 -40 1 -39 -20 2 -25 33 -4 56 13 56 42 0 29 -18 46 -48 46 -32 0 -23 24
11 28 42 5 32 22 -14 22 l-40 0 3 -37z"/>
<path d="M670 5085 c-16 -20 -16 -90 0 -110 15 -19 64 -20 79 -2 21 26 24 75
7 102 -19 29 -66 34 -86 10z m70 -30 c14 -37 -4 -77 -33 -73 -17 2 -23 11 -25
36 -4 45 3 62 28 62 13 0 24 -10 30 -25z"/>
<path d="M244 5053 c2 -26 -54 -31 -71 -7 -11 16 -13 16 -13 2 0 -9 -10 -18
-22 -21 l-23 -4 23 -9 c13 -5 44 -7 70 -4 42 4 47 8 50 33 2 15 -1 27 -6 27
-5 0 -9 -8 -8 -17z"/>
<path d="M237 4974 c-3 -4 -2 -14 3 -24 14 -26 -10 -54 -39 -45 -19 6 -22 13
-19 36 3 20 0 29 -9 29 -10 0 -13 -11 -11 -37 2 -31 8 -39 31 -47 38 -14 61 2
65 44 3 32 -8 56 -21 44z"/>
<path d="M166 4841 c-3 -4 -5 -25 -4 -45 l1 -36 49 0 c56 0 65 17 11 22 -31 2
-39 7 -41 26 -3 20 1 22 37 22 23 0 41 5 41 10 0 12 -87 13 -94 1z"/>
<path d="M112 4719 c2 -6 8 -10 13 -10 5 0 11 4 13 10 2 6 -4 11 -13 11 -9 0
-15 -5 -13 -11z"/>
<path d="M160 4720 c0 -5 23 -10 50 -10 28 0 50 5 50 10 0 6 -22 10 -50 10
-27 0 -50 -4 -50 -10z"/>
<path d="M244 4673 c2 -26 -54 -31 -71 -7 -11 16 -13 16 -13 2 0 -9 -10 -18
-22 -21 l-23 -4 23 -9 c13 -5 44 -7 70 -4 42 4 47 8 50 33 2 15 -1 27 -6 27
-5 0 -9 -8 -8 -17z"/>
<path d="M160 4556 c0 -20 2 -36 4 -36 2 0 11 -3 20 -6 10 -4 20 5 31 26 19
36 38 31 29 -8 -5 -21 -4 -24 5 -16 20 19 9 69 -15 72 -17 2 -24 -5 -33 -30
-9 -25 -14 -30 -20 -19 -5 8 -7 20 -4 27 2 6 0 15 -6 19 -7 4 -11 -7 -11 -29z"/>
<path d="M112 4479 c2 -6 8 -10 13 -10 5 0 11 4 13 10 2 6 -4 11 -13 11 -9 0
-15 -5 -13 -11z"/>
<path d="M160 4480 c0 -5 23 -10 50 -10 28 0 50 5 50 10 0 6 -22 10 -50 10
-27 0 -50 -4 -50 -10z"/>
<path d="M120 4430 c0 -5 10 -10 23 -10 19 0 22 -5 22 -37 0 -32 4 -39 28 -47
43 -15 62 2 63 58 l2 46 -69 0 c-39 0 -69 -4 -69 -10z m114 -26 c18 -18 6 -54
-19 -54 -12 0 -45 26 -45 35 0 7 32 35 40 35 5 0 16 -7 24 -16z"/>
<path d="M120 4240 c0 -6 30 -10 70 -10 40 0 70 4 70 10 0 6 -30 10 -70 10
-40 0 -70 -4 -70 -10z"/>
<path d="M167 4183 c-11 -10 -8 -61 4 -68 6 -4 9 3 7 21 -2 15 2 29 9 31 7 3
13 -9 15 -29 2 -28 7 -33 28 -33 22 0 25 5 28 43 l3 42 -44 0 c-24 0 -47 -3
-50 -7z m77 -30 c9 -23 -12 -43 -24 -23 -5 8 -10 21 -10 28 0 18 27 15 34 -5z"/>
<path d="M409 4154 c-12 -15 -10 -16 18 -10 47 11 51 -10 9 -53 -48 -49 -46
-61 9 -61 25 0 45 5 45 10 0 6 -14 10 -32 10 l-32 0 32 33 c18 18 32 40 32 48
0 37 -56 53 -81 23z"/>
<path d="M530 4151 c-15 -29 -12 -87 6 -105 21 -21 57 -20 77 2 23 25 22 85
-1 105 -25 23 -69 22 -82 -2z m74 -17 c17 -43 -1 -84 -36 -84 -21 0 -33 38
-24 75 7 29 50 35 60 9z"/>
<path d="M670 4155 c-16 -20 -16 -90 0 -110 15 -19 64 -20 79 -2 21 26 24 75
7 102 -19 29 -66 34 -86 10z m70 -30 c14 -37 -4 -77 -33 -73 -17 2 -23 11 -25
36 -4 45 3 62 28 62 13 0 24 -10 30 -25z"/>
<path d="M244 4073 c2 -26 -54 -31 -71 -7 -11 16 -13 16 -13 2 0 -9 -10 -18
-22 -21 l-23 -4 23 -9 c13 -5 44 -7 70 -4 42 4 47 8 50 33 2 15 -1 27 -6 27
-5 0 -9 -8 -8 -17z"/>
<path d="M178 3979 c-12 -6 -18 -22 -18 -45 0 -27 5 -37 25 -46 40 -18 75 3
75 45 0 52 -37 73 -82 46z m61 -26 c12 -23 -4 -53 -29 -53 -25 0 -41 29 -29
52 12 23 45 23 58 1z"/>
<path d="M120 3810 c0 -50 13 -67 23 -30 4 17 14 20 61 20 31 0 56 5 56 10 0
6 -25 10 -56 10 -47 0 -57 3 -61 20 -10 37 -23 20 -23 -30z"/>
<path d="M460 3240 c0 -5 7 -10 15 -10 12 0 15 -13 15 -60 0 -33 4 -60 10 -60
6 0 10 30 10 70 0 68 -1 70 -25 70 -14 0 -25 -4 -25 -10z"/>
<path d="M542 3213 c3 -34 6 -37 33 -38 23 0 30 -5 30 -20 0 -16 -6 -20 -33
-18 -40 1 -39 -20 2 -25 33 -4 56 13 56 42 0 29 -18 46 -48 46 -32 0 -23 24
11 28 42 5 32 22 -14 22 l-40 0 3 -37z"/>
<path d="M670 3235 c-16 -20 -16 -90 0 -110 15 -19 64 -20 79 -2 21 26 24 75
7 102 -19 29 -66 34 -86 10z m70 -30 c14 -37 -4 -77 -33 -73 -17 2 -23 11 -25
36 -4 45 3 62 28 62 13 0 24 -10 30 -25z"/>
<path d="M430 2310 c0 -5 7 -10 15 -10 12 0 15 -13 15 -60 0 -33 4 -60 10 -60
6 0 10 30 10 70 0 68 -1 70 -25 70 -14 0 -25 -4 -25 -10z"/>
<path d="M530 2301 c-15 -29 -12 -87 6 -105 21 -21 57 -20 77 2 23 25 22 85
-1 105 -25 23 -69 22 -82 -2z m74 -17 c17 -43 -1 -84 -36 -84 -21 0 -33 38
-24 75 7 29 50 35 60 9z"/>
<path d="M670 2305 c-16 -20 -16 -90 0 -110 15 -19 64 -20 79 -2 21 26 24 75
7 102 -19 29 -66 34 -86 10z m70 -30 c14 -37 -4 -77 -33 -73 -17 2 -23 11 -25
36 -4 45 3 62 28 62 13 0 24 -10 30 -25z"/>
<path d="M542 1363 c3 -34 6 -37 33 -38 23 0 30 -5 30 -20 0 -16 -6 -20 -33
-18 -40 1 -39 -20 2 -25 33 -4 56 13 56 42 0 29 -18 46 -48 46 -32 0 -23 24
11 28 42 5 32 22 -14 22 l-40 0 3 -37z"/>
<path d="M670 1385 c-16 -20 -16 -90 0 -110 15 -19 64 -20 79 -2 21 26 24 75
7 102 -19 29 -66 34 -86 10z m70 -30 c14 -37 -4 -77 -33 -73 -17 2 -23 11 -25
36 -4 45 3 62 28 62 13 0 24 -10 30 -25z"/>
<path d="M670 585 c-16 -20 -16 -90 0 -110 15 -19 64 -20 79 -2 21 26 24 75 7
102 -19 29 -66 34 -86 10z m70 -30 c14 -37 -4 -77 -33 -73 -17 2 -23 11 -25
36 -4 45 3 62 28 62 13 0 24 -10 30 -25z"/>
<path d="M4590 255 c0 -43 4 -75 10 -75 6 0 10 32 10 75 0 43 -4 75 -10 75 -6
0 -10 -32 -10 -75z"/>
<path d="M4647 323 c-11 -10 -8 -143 3 -143 6 0 10 32 10 75 0 75 -1 81 -13
68z"/>
<path d="M6515 321 c-6 -11 9 -23 19 -14 9 9 7 23 -3 23 -6 0 -12 -4 -16 -9z"/>
<path d="M6975 320 c-3 -5 1 -13 10 -16 22 -9 29 1 11 15 -10 8 -16 9 -21 1z"/>
<path d="M7200 304 c0 -21 -4 -24 -20 -19 -33 10 -60 -12 -60 -49 0 -42 16
-56 63 -54 l37 1 0 74 c0 42 -4 73 -10 73 -5 0 -10 -12 -10 -26z m-12 -43 c8
-4 12 -19 10 -32 -2 -18 -9 -24 -28 -24 -19 0 -26 6 -28 24 -3 20 11 41 28 41
3 0 11 -4 18 -9z"/>
<path d="M7306 314 c-4 -10 -1 -14 6 -12 15 5 23 28 10 28 -5 0 -13 -7 -16
-16z"/>
<path d="M7482 321 c2 -7 7 -12 11 -12 12 1 9 15 -3 20 -7 2 -11 -2 -8 -8z"/>
<path d="M1910 250 l0 -70 39 0 c23 0 46 7 55 16 20 19 20 28 1 44 -11 9 -12
16 -3 30 18 28 -6 50 -53 50 l-39 0 0 -70z m70 30 c0 -15 -7 -20 -25 -20 -18
0 -25 5 -25 20 0 15 7 20 25 20 18 0 25 -5 25 -20z m8 -57 c-2 -11 -14 -19
-31 -21 -22 -3 -27 1 -27 17 0 17 6 21 31 21 24 0 30 -4 27 -17z"/>
<path d="M4110 250 l0 -70 50 0 c58 0 68 17 13 22 -27 2 -39 8 -41 21 -3 14 4
17 32 17 20 0 36 5 36 10 0 6 -16 10 -36 10 -28 0 -35 3 -32 18 2 12 14 18 41
20 55 5 45 22 -13 22 l-50 0 0 -70z"/>
<path d="M4953 295 c-6 -14 -7 -25 -3 -25 5 0 10 -19 12 -42 2 -36 7 -44 26
-46 12 -2 22 1 22 7 0 6 -7 11 -15 11 -23 0 -21 70 3 70 16 1 16 1 0 14 -10 7
-18 18 -18 25 0 19 -15 12 -27 -14z"/>
<path d="M6290 250 l0 -70 40 0 c22 0 40 5 40 10 0 6 -13 10 -30 10 l-30 0 0
60 c0 33 -4 60 -10 60 -6 0 -10 -30 -10 -70z"/>
<path d="M9190 250 c0 -40 4 -70 10 -70 6 0 10 24 10 53 l1 52 25 -47 c13 -27
26 -48 29 -48 3 0 16 21 29 48 l25 47 1 -52 c0 -29 5 -53 10 -53 6 0 10 30 10
70 0 84 -18 94 -51 28 l-22 -43 -20 43 c-13 26 -28 42 -39 42 -16 0 -18 -9
-18 -70z"/>
<path d="M2058 279 c-21 -12 -24 -69 -6 -87 21 -21 66 -14 83 12 34 51 -23
107 -77 75z m57 -44 c0 -25 -4 -30 -25 -30 -19 0 -26 6 -28 24 -4 25 13 43 38
38 9 -1 15 -13 15 -32z"/>
<path d="M2177 284 c-10 -11 -9 -104 2 -104 6 0 11 16 13 36 6 73 58 69 58 -3
0 -18 5 -33 10 -33 6 0 10 20 10 44 0 54 -19 74 -55 58 -16 -7 -25 -8 -27 -1
-2 6 -7 7 -11 3z"/>
<path d="M4245 263 c16 -24 16 -28 1 -55 -18 -29 -8 -39 14 -13 12 14 15 14
30 0 28 -25 44 -18 21 11 -19 24 -19 27 -4 50 19 29 7 47 -13 20 -13 -18 -15
-18 -32 -3 -28 25 -37 20 -17 -10z"/>
<path d="M4360 270 c-24 -24 -25 -38 -4 -68 16 -23 49 -28 74 -12 16 10 8 13
-27 10 -31 -2 -48 33 -27 55 9 9 23 14 31 11 21 -8 39 4 22 15 -23 14 -48 10
-69 -11z"/>
<path d="M4482 274 c-26 -18 -29 -56 -6 -79 18 -17 65 -17 71 1 2 6 -8 9 -26
6 -16 -2 -32 1 -35 7 -5 7 7 11 33 11 37 0 41 2 41 25 0 14 -8 29 -19 35 -26
13 -33 13 -59 -6z m56 -21 c2 -9 -7 -13 -27 -13 -31 0 -42 14 -18 23 19 8 40
3 45 -10z"/>
<path d="M4710 270 c-25 -25 -26 -52 -2 -73 21 -19 49 -22 72 -7 17 11 9 13
-32 10 -42 -2 -33 18 9 22 44 4 52 19 24 47 -26 26 -46 26 -71 1z m60 -15 c11
-13 7 -15 -25 -15 -32 0 -36 2 -25 15 7 8 18 15 25 15 7 0 18 -7 25 -15z"/>
<path d="M4827 284 c-10 -11 -9 -104 2 -104 6 0 11 16 13 36 6 73 58 69 58 -3
0 -18 5 -33 10 -33 6 0 10 20 10 44 0 54 -19 74 -55 58 -16 -7 -25 -8 -27 -1
-2 6 -7 7 -11 3z"/>
<path d="M6413 283 c-23 -9 -14 -22 13 -20 40 3 42 -21 2 -25 -28 -2 -33 -7
-33 -28 0 -23 4 -25 43 -26 l42 -2 0 42 c0 57 -23 77 -67 59z m45 -65 c-5 -15
-48 -24 -48 -10 0 14 12 22 33 22 10 0 17 -5 15 -12z"/>
<path d="M6520 236 c0 -31 5 -56 10 -56 6 0 10 22 10 49 0 28 -4 53 -10 56 -6
4 -10 -15 -10 -49z"/>
<path d="M6583 284 c-22 -9 -14 -44 12 -56 32 -15 32 -32 0 -26 -14 3 -28 2
-31 -3 -6 -11 41 -23 61 -15 24 9 18 45 -10 58 -33 15 -32 32 0 25 16 -3 24 0
22 7 -4 12 -35 18 -54 10z"/>
<path d="M6683 284 c-22 -9 -14 -44 12 -56 32 -15 32 -32 0 -26 -14 3 -28 2
-31 -3 -6 -11 41 -23 61 -15 24 9 18 45 -10 58 -33 15 -32 32 0 25 16 -3 24 0
22 7 -4 12 -35 18 -54 10z"/>
<path d="M6788 279 c-21 -12 -24 -69 -6 -87 15 -15 64 -16 73 -2 4 6 -6 10
-24 10 -16 0 -33 5 -36 10 -4 6 10 10 34 10 33 0 41 4 41 18 0 22 -30 52 -51
52 -8 0 -22 -5 -31 -11z m60 -26 c2 -9 -7 -13 -27 -13 -30 0 -39 9 -24 24 11
10 46 3 51 -11z"/>
<path d="M6965 280 c-22 -9 -13 -13 23 -10 14 1 22 -4 22 -14 0 -11 -9 -16
-30 -16 -18 0 -33 -6 -36 -15 -10 -25 15 -45 52 -42 33 2 34 3 34 48 0 56 -17
69 -65 49z m45 -65 c0 -16 -35 -21 -44 -6 -8 12 4 21 26 21 10 0 18 -7 18 -15z"/>
<path d="M7272 274 c-58 -40 8 -123 68 -84 16 11 9 13 -32 10 -14 -1 -29 3
-33 9 -4 7 8 11 34 11 37 0 41 2 41 25 0 14 -8 29 -19 35 -26 13 -33 13 -59
-6z m56 -21 c2 -9 -7 -13 -28 -13 -28 0 -31 2 -20 15 15 18 41 16 48 -2z"/>
<path d="M7393 284 c-22 -9 -14 -44 12 -56 32 -15 32 -32 0 -26 -14 3 -28 2
-31 -3 -6 -11 41 -23 61 -15 24 9 18 45 -10 58 -33 15 -32 32 0 25 16 -3 24 0
22 7 -4 12 -35 18 -54 10z"/>
<path d="M7487 283 c-11 -10 -8 -103 3 -103 6 0 10 25 10 55 0 56 -1 60 -13
48z"/>
<path d="M7540 237 c0 -31 5 -57 10 -57 6 0 10 15 10 34 0 18 7 39 15 46 8 7
15 17 15 22 0 7 -5 6 -13 -1 -10 -8 -17 -7 -25 1 -9 9 -12 -1 -12 -45z"/>
<path d="M7632 274 c-26 -18 -29 -56 -6 -79 18 -17 65 -17 71 1 2 6 -8 9 -26
6 -16 -2 -32 1 -35 7 -5 7 7 11 33 11 37 0 41 2 41 25 0 14 -8 29 -19 35 -26
13 -33 13 -59 -6z m56 -21 c2 -9 -7 -13 -27 -13 -31 0 -42 14 -18 23 19 8 40
3 45 -10z"/>
<path d="M7740 235 c0 -30 5 -55 10 -55 6 0 10 16 10 35 0 22 6 38 15 41 8 4
15 13 15 21 0 13 -3 13 -15 3 -10 -9 -15 -9 -15 -1 0 6 -4 11 -10 11 -5 0 -10
-25 -10 -55z"/>
<path d="M9390 270 c-24 -24 -25 -38 -4 -68 17 -24 62 -30 82 -10 17 17 15 64
-4 82 -21 22 -50 20 -74 -4z m58 -9 c20 -12 11 -55 -12 -59 -27 -6 -48 25 -35
49 10 20 26 24 47 10z"/>
<path d="M9500 285 c0 -2 9 -27 20 -55 11 -28 20 -55 20 -60 0 -6 -9 -10 -20
-10 -11 0 -20 -4 -20 -10 0 -5 11 -10 24 -10 20 0 28 11 51 64 31 73 29 115
-3 48 l-19 -43 -17 40 c-9 23 -20 41 -26 41 -5 0 -10 -2 -10 -5z"/>
<path d="M9642 274 c-58 -40 8 -123 68 -84 16 11 9 13 -32 10 -14 -1 -29 3
-33 9 -4 7 8 11 34 11 37 0 41 2 41 25 0 14 -8 29 -19 35 -26 13 -33 13 -59
-6z m56 -21 c2 -9 -7 -13 -28 -13 -28 0 -31 2 -20 15 15 18 41 16 48 -2z"/>
<path d="M9750 235 c0 -30 5 -55 10 -55 6 0 10 15 10 34 0 35 21 63 40 51 5
-3 10 -24 10 -46 0 -28 4 -39 15 -39 16 0 20 36 9 77 -7 27 -40 39 -59 23 -11
-9 -15 -9 -15 -1 0 6 -4 11 -10 11 -5 0 -10 -25 -10 -55z"/>
</g>
</svg>
