<?xml version="1.0" encoding="UTF-8" standalone="no"?>
<svg width="211.931mm" height="211.931mm"
 xmlns="http://www.w3.org/2000/svg" xmlns:xlink="http://www.w3.org/1999/xlink"  version="1.2" baseProfile="tiny">
<title>V1_accessibilite_barplot</title>
<desc>Rendered by Tableau</desc>
<defs>
</defs>
<g fill="none" stroke="black" stroke-width="1" fill-rule="evenodd" stroke-linecap="square" stroke-linejoin="bevel" >

<g >
<g fill="#ffffff" fill-opacity="1" stroke="none" transform="matrix(1,0,0,1,0,0)"
font-family="Benton Sans Book" font-size="16" font-weight="400" font-style="normal" 
>
<rect x="0" y="0" width="801" height="801"/>
</g>
</g>

<g >
<g fill="#f9f9f0" fill-opacity="1" stroke="none" transform="matrix(1,0,0,1,12,12)"
font-family="Benton Sans Book" font-size="16" font-weight="400" font-style="normal" 
>
<rect x="0" y="0" width="670" height="396"/>
</g>
</g>

<clipPath id ="clip1" >
<rect x="-1" y="-1" height="398" width="322" transform="matrix(1,0,0,1,12,12)" />
</clipPath>
<g  clip-path="url(#clip1)" 
>
<g fill="none" stroke="#000000" stroke-opacity="1" stroke-width="1" stroke-linecap="square" stroke-linejoin="bevel" transform="matrix(1,0,0,1,12,12)"
font-family="Benton Sans Book" font-size="16" font-weight="400" font-style="normal" 
>
</g>
</g>

<g  clip-path="url(#clip1)" 
>
<g fill="none" stroke="#666666" stroke-opacity="1" stroke-width="1" stroke-linecap="square" stroke-linejoin="bevel" transform="matrix(1,0,0,1,12,12)"
font-family="Montserrat" font-size="12" font-weight="700" font-style="normal" 
>
<text fill="#666666" fill-opacity="1" stroke="none" xml:space="preserve" x="6" y="26" font-family="Montserrat" font-size="12" font-weight="700" font-style="normal" 
 >Entre 8 et 13 ans</text>
</g>
</g>

<g  clip-path="url(#clip1)" 
>
<g fill="none" stroke="#666666" stroke-opacity="1" stroke-width="1" stroke-linecap="square" stroke-linejoin="bevel" transform="matrix(1,0,0,1,12,12)"
font-family="Montserrat" font-size="12" font-weight="700" font-style="normal" 
>
<text fill="#666666" fill-opacity="1" stroke="none" xml:space="preserve" x="142" y="26" font-family="Montserrat" font-size="12" font-weight="700" font-style="normal" 
 >Accessibles</text>
</g>
</g>

<g  clip-path="url(#clip1)" 
>
<g fill="none" stroke="#666666" stroke-opacity="1" stroke-width="1" stroke-linecap="square" stroke-linejoin="bevel" transform="matrix(1,0,0,1,12,12)"
font-family="Montserrat" font-size="12" font-weight="700" font-style="normal" 
>
<text fill="#666666" fill-opacity="1" stroke="none" xml:space="preserve" x="142" y="70" font-family="Montserrat" font-size="12" font-weight="700" font-style="normal" 
 >Moyennement accessibles</text>
</g>
</g>

<g  clip-path="url(#clip1)" 
>
<g fill="none" stroke="#666666" stroke-opacity="1" stroke-width="1" stroke-linecap="square" stroke-linejoin="bevel" transform="matrix(1,0,0,1,12,12)"
font-family="Montserrat" font-size="12" font-weight="700" font-style="normal" 
>
<text fill="#666666" fill-opacity="1" stroke="none" xml:space="preserve" x="142" y="114" font-family="Montserrat" font-size="12" font-weight="700" font-style="normal" 
 >Peu accessibles</text>
</g>
</g>

<g  clip-path="url(#clip1)" 
>
<g fill="none" stroke="#666666" stroke-opacity="1" stroke-width="1" stroke-linecap="square" stroke-linejoin="bevel" transform="matrix(1,0,0,1,12,12)"
font-family="Montserrat" font-size="12" font-weight="700" font-style="normal" 
>
<text fill="#666666" fill-opacity="1" stroke="none" xml:space="preserve" x="6" y="158" font-family="Montserrat" font-size="12" font-weight="700" font-style="normal" 
 >Entre 14 et 18 ans</text>
</g>
</g>

<g  clip-path="url(#clip1)" 
>
<g fill="none" stroke="#666666" stroke-opacity="1" stroke-width="1" stroke-linecap="square" stroke-linejoin="bevel" transform="matrix(1,0,0,1,12,12)"
font-family="Montserrat" font-size="12" font-weight="700" font-style="normal" 
>
<text fill="#666666" fill-opacity="1" stroke="none" xml:space="preserve" x="142" y="158" font-family="Montserrat" font-size="12" font-weight="700" font-style="normal" 
 >Accessibles</text>
</g>
</g>

<g  clip-path="url(#clip1)" 
>
<g fill="none" stroke="#666666" stroke-opacity="1" stroke-width="1" stroke-linecap="square" stroke-linejoin="bevel" transform="matrix(1,0,0,1,12,12)"
font-family="Montserrat" font-size="12" font-weight="700" font-style="normal" 
>
<text fill="#666666" fill-opacity="1" stroke="none" xml:space="preserve" x="142" y="202" font-family="Montserrat" font-size="12" font-weight="700" font-style="normal" 
 >Moyennement accessibles</text>
</g>
</g>

<g  clip-path="url(#clip1)" 
>
<g fill="none" stroke="#666666" stroke-opacity="1" stroke-width="1" stroke-linecap="square" stroke-linejoin="bevel" transform="matrix(1,0,0,1,12,12)"
font-family="Montserrat" font-size="12" font-weight="700" font-style="normal" 
>
<text fill="#666666" fill-opacity="1" stroke="none" xml:space="preserve" x="142" y="246" font-family="Montserrat" font-size="12" font-weight="700" font-style="normal" 
 >Peu accessibles</text>
</g>
</g>

<g  clip-path="url(#clip1)" 
>
<g fill="none" stroke="#666666" stroke-opacity="1" stroke-width="1" stroke-linecap="square" stroke-linejoin="bevel" transform="matrix(1,0,0,1,12,12)"
font-family="Montserrat" font-size="12" font-weight="700" font-style="normal" 
>
<text fill="#666666" fill-opacity="1" stroke="none" xml:space="preserve" x="6" y="290" font-family="Montserrat" font-size="12" font-weight="700" font-style="normal" 
 >Plus de 18 ans</text>
</g>
</g>

<g  clip-path="url(#clip1)" 
>
<g fill="none" stroke="#666666" stroke-opacity="1" stroke-width="1" stroke-linecap="square" stroke-linejoin="bevel" transform="matrix(1,0,0,1,12,12)"
font-family="Montserrat" font-size="12" font-weight="700" font-style="normal" 
>
<text fill="#666666" fill-opacity="1" stroke="none" xml:space="preserve" x="142" y="290" font-family="Montserrat" font-size="12" font-weight="700" font-style="normal" 
 >Accessibles</text>
</g>
</g>

<g  clip-path="url(#clip1)" 
>
<g fill="none" stroke="#666666" stroke-opacity="1" stroke-width="1" stroke-linecap="square" stroke-linejoin="bevel" transform="matrix(1,0,0,1,12,12)"
font-family="Montserrat" font-size="12" font-weight="700" font-style="normal" 
>
<text fill="#666666" fill-opacity="1" stroke="none" xml:space="preserve" x="142" y="334" font-family="Montserrat" font-size="12" font-weight="700" font-style="normal" 
 >Moyennement accessibles</text>
</g>
</g>

<g  clip-path="url(#clip1)" 
>
<g fill="none" stroke="#666666" stroke-opacity="1" stroke-width="1" stroke-linecap="square" stroke-linejoin="bevel" transform="matrix(1,0,0,1,12,12)"
font-family="Montserrat" font-size="12" font-weight="700" font-style="normal" 
>
<text fill="#666666" fill-opacity="1" stroke="none" xml:space="preserve" x="142" y="378" font-family="Montserrat" font-size="12" font-weight="700" font-style="normal" 
 >Peu accessibles</text>
</g>
</g>

<g  clip-path="url(#clip1)" 
>
<g fill="none" stroke="#cbcbcb" stroke-opacity="1" stroke-width="1" stroke-linecap="square" stroke-linejoin="bevel" transform="matrix(1,0,0,1,12,12)"
font-family="Montserrat" font-size="12" font-weight="700" font-style="normal" 
>
<polyline fill="none" vector-effect="none" points="320,0 0,0 " />
<polyline fill="none" vector-effect="none" points="320,132 0,132 " />
<polyline fill="none" vector-effect="none" points="320,264 0,264 " />
<polyline fill="none" vector-effect="none" points="320,396 0,396 " />
</g>
</g>

<g >
<g fill="none" stroke="#cbcbcb" stroke-opacity="1" stroke-width="1" stroke-linecap="square" stroke-linejoin="bevel" transform="matrix(1,0,0,1,12,12)"
font-family="Montserrat" font-size="12" font-weight="700" font-style="normal" 
>
</g>
</g>

<g  clip-path="url(#clip1)" 
>
<g fill="none" stroke="#cbcbcb" stroke-opacity="1" stroke-width="1" stroke-linecap="square" stroke-linejoin="bevel" transform="matrix(1,0,0,1,332,12)"
font-family="Montserrat" font-size="12" font-weight="700" font-style="normal" 
>
</g>
</g>

<clipPath id ="clip2" >
<rect x="0" y="0" height="397" width="351" transform="matrix(1,0,0,1,332,12)" />
</clipPath>
<g  clip-path="url(#clip2)" 
>
<g fill="none" stroke="#cbcbcb" stroke-opacity="1" stroke-width="1" stroke-linecap="square" stroke-linejoin="bevel" transform="matrix(1,0,0,1,332,12)"
font-family="Montserrat" font-size="12" font-weight="700" font-style="normal" 
>
</g>
</g>

<clipPath id ="clip3" >
<rect x="0" y="0" height="397" width="351" transform="matrix(1,0,0,1,332,12)" />
</clipPath>
<g  clip-path="url(#clip3)" 
>
<g fill="none" stroke="#cbcbcb" stroke-opacity="1" stroke-width="1" stroke-linecap="square" stroke-linejoin="bevel" transform="matrix(1,0,0,1,332,12)"
font-family="Montserrat" font-size="12" font-weight="700" font-style="normal" 
>
</g>
</g>

<g  clip-path="url(#clip3)" 
>
<g fill="#f9f9f0" fill-opacity="1" stroke="none" transform="matrix(1,0,0,1,332,12)"
font-family="Montserrat" font-size="12" font-weight="700" font-style="normal" 
>
<rect x="0" y="0" width="351" height="397"/>
</g>
</g>

<g  clip-path="url(#clip3)" 
>
<g fill="#f9f9f0" fill-opacity="1" stroke="none" transform="matrix(1,0,0,1,332,12)"
font-family="Montserrat" font-size="12" font-weight="700" font-style="normal" 
>
<rect x="0" y="0" width="351" height="397"/>
</g>
</g>

<clipPath id ="clip4" >
<rect x="0" y="0" height="396" width="351" transform="matrix(1,0,0,1,332,12)" />
</clipPath>
<g  clip-path="url(#clip4)" 
>
<g fill="none" stroke="#cbcbcb" stroke-opacity="1" stroke-width="1" stroke-linecap="square" stroke-linejoin="bevel" transform="matrix(1,0,0,1,332,12)"
font-family="Montserrat" font-size="12" font-weight="700" font-style="normal" 
>
</g>
</g>

<g  clip-path="url(#clip4)" 
>
<g fill="#f9f9f0" fill-opacity="1" stroke="none" transform="matrix(1,0,0,1,332,12)"
font-family="Montserrat" font-size="12" font-weight="700" font-style="normal" 
>
<rect x="0" y="0" width="351" height="397"/>
</g>
</g>

<clipPath id ="clip5" >
<rect x="0" y="0" height="397" width="351" transform="matrix(1,0,0,1,332,12)" />
</clipPath>
<g  clip-path="url(#clip5)" 
>
<g fill="none" stroke="#cbcbcb" stroke-opacity="1" stroke-width="1" stroke-linecap="square" stroke-linejoin="bevel" transform="matrix(1,0,0,1,332,12)"
font-family="Montserrat" font-size="12" font-weight="700" font-style="normal" 
>
</g>
</g>

<clipPath id ="clip6" >
<rect x="0" y="0" height="397" width="351" transform="matrix(1,0,0,1,332,12)" />
</clipPath>
<g  clip-path="url(#clip6)" 
>
<g fill="none" stroke="#cbcbcb" stroke-opacity="1" stroke-width="1" stroke-linecap="square" stroke-linejoin="bevel" transform="matrix(1,0,0,1,332,12)"
font-family="Montserrat" font-size="12" font-weight="700" font-style="normal" 
>
</g>
</g>

<clipPath id ="clip7" >
<rect x="0" y="0" height="397" width="351" transform="matrix(1,0,0,1,332,12)" />
</clipPath>
<g  clip-path="url(#clip7)" 
>
<g fill="none" stroke="#cbcbcb" stroke-opacity="1" stroke-width="1" stroke-linecap="square" stroke-linejoin="bevel" transform="matrix(1,0,0,1,332,12)"
font-family="Montserrat" font-size="12" font-weight="700" font-style="normal" 
>
</g>
</g>

<clipPath id ="clip8" >
<rect x="0" y="0" height="397" width="351" transform="matrix(1,0,0,1,332,12)" />
</clipPath>
<g  clip-path="url(#clip8)" 
>
<g fill="none" stroke="#cbcbcb" stroke-opacity="1" stroke-width="1" stroke-linecap="square" stroke-linejoin="bevel" transform="matrix(1,0,0,1,332,12)"
font-family="Montserrat" font-size="12" font-weight="700" font-style="normal" 
>
</g>
</g>

<g  clip-path="url(#clip8)" 
>
<g fill="#f9f9f0" fill-opacity="1" stroke="none" transform="matrix(1,0,0,1,332,12)"
font-family="Montserrat" font-size="12" font-weight="700" font-style="normal" 
>
<rect x="0" y="0" width="351" height="397"/>
</g>
</g>

<clipPath id ="clip9" >
<rect x="0" y="0" height="397" width="351" transform="matrix(1,0,0,1,332,12)" />
</clipPath>
<g  clip-path="url(#clip9)" 
>
<g fill="none" stroke="#cbcbcb" stroke-opacity="1" stroke-width="1" stroke-linecap="square" stroke-linejoin="bevel" transform="matrix(1,0,0,1,332,12)"
font-family="Montserrat" font-size="12" font-weight="700" font-style="normal" 
>
</g>
</g>

<clipPath id ="clip10" >
<rect x="0" y="0" height="396" width="350" transform="matrix(1,0,0,1,332,12)" />
</clipPath>
<g  clip-path="url(#clip10)" 
>
<g fill="none" stroke="#cbcbcb" stroke-opacity="1" stroke-width="1" stroke-linecap="square" stroke-linejoin="bevel" transform="matrix(1,0,0,1,332,12)"
font-family="Montserrat" font-size="12" font-weight="700" font-style="normal" 
>
</g>
</g>

<g  clip-path="url(#clip10)" 
>
<g fill="none" stroke="#f2f2f2" stroke-opacity="1" stroke-width="1" stroke-linecap="square" stroke-linejoin="bevel" transform="matrix(1,0,0,1,332,12)"
font-family="Montserrat" font-size="12" font-weight="700" font-style="normal" 
>
<polyline fill="none" vector-effect="none" points="0,395 0,0 " />
<polyline fill="none" vector-effect="none" points="44,395 44,0 " />
<polyline fill="none" vector-effect="none" points="89,395 89,0 " />
<polyline fill="none" vector-effect="none" points="133,395 133,0 " />
<polyline fill="none" vector-effect="none" points="178,395 178,0 " />
<polyline fill="none" vector-effect="none" points="222,395 222,0 " />
<polyline fill="none" vector-effect="none" points="267,395 267,0 " />
<polyline fill="none" vector-effect="none" points="311,395 311,0 " />
</g>
</g>

<clipPath id ="clip11" >
<rect x="0" y="0" height="397" width="351" transform="matrix(1,0,0,1,332,12)" />
</clipPath>
<g  clip-path="url(#clip11)" 
>
<g fill="none" stroke="#f2f2f2" stroke-opacity="1" stroke-width="1" stroke-linecap="square" stroke-linejoin="bevel" transform="matrix(1,0,0,1,332,12)"
font-family="Montserrat" font-size="12" font-weight="700" font-style="normal" 
>
</g>
</g>

<clipPath id ="clip12" >
<rect x="0" y="0" height="396" width="350" transform="matrix(1,0,0,1,332,12)" />
</clipPath>
<g  clip-path="url(#clip12)" 
>
<g fill="none" stroke="#f2f2f2" stroke-opacity="1" stroke-width="1" stroke-linecap="square" stroke-linejoin="bevel" transform="matrix(1,0,0,1,332,12)"
font-family="Montserrat" font-size="12" font-weight="700" font-style="normal" 
>
</g>
</g>

<clipPath id ="clip13" >
<rect x="0" y="0" height="397" width="351" transform="matrix(1,0,0,1,332,12)" />
</clipPath>
<g  clip-path="url(#clip13)" 
>
<g fill="none" stroke="#f2f2f2" stroke-opacity="1" stroke-width="1" stroke-linecap="square" stroke-linejoin="bevel" transform="matrix(1,0,0,1,332,12)"
font-family="Montserrat" font-size="12" font-weight="700" font-style="normal" 
>
</g>
</g>

<clipPath id ="clip14" >
<rect x="0" y="0" height="396" width="350" transform="matrix(1,0,0,1,332,12)" />
</clipPath>
<g  clip-path="url(#clip14)" 
>
<g fill="none" stroke="#f2f2f2" stroke-opacity="1" stroke-width="1" stroke-linecap="square" stroke-linejoin="bevel" transform="matrix(1,0,0,1,332,12)"
font-family="Montserrat" font-size="12" font-weight="700" font-style="normal" 
>
</g>
</g>

<clipPath id ="clip15" >
<rect x="0" y="0" height="397" width="351" transform="matrix(1,0,0,1,332,12)" />
</clipPath>
<g  clip-path="url(#clip15)" 
>
<g fill="none" stroke="#f2f2f2" stroke-opacity="1" stroke-width="1" stroke-linecap="square" stroke-linejoin="bevel" transform="matrix(1,0,0,1,332,12)"
font-family="Montserrat" font-size="12" font-weight="700" font-style="normal" 
>
</g>
</g>

<clipPath id ="clip16" >
<rect x="0" y="0" height="396" width="350" transform="matrix(1,0,0,1,332,12)" />
</clipPath>
<g  clip-path="url(#clip16)" 
>
<g fill="none" stroke="#f2f2f2" stroke-opacity="1" stroke-width="1" stroke-linecap="square" stroke-linejoin="bevel" transform="matrix(1,0,0,1,332,12)"
font-family="Montserrat" font-size="12" font-weight="700" font-style="normal" 
>
</g>
</g>

<clipPath id ="clip17" >
<rect x="0" y="0" height="132" width="350" transform="matrix(1,0,0,1,332,12)" />
</clipPath>
<g  clip-path="url(#clip17)" 
>
<g fill="none" stroke="#f2f2f2" stroke-opacity="1" stroke-width="1" stroke-linecap="square" stroke-linejoin="bevel" transform="matrix(1,0,0,1,332,12)"
font-family="Montserrat" font-size="12" font-weight="700" font-style="normal" 
>
</g>
</g>

<clipPath id ="clip18" >
<rect x="0" y="132" height="132" width="350" transform="matrix(1,0,0,1,332,12)" />
</clipPath>
<g  clip-path="url(#clip18)" 
>
<g fill="none" stroke="#f2f2f2" stroke-opacity="1" stroke-width="1" stroke-linecap="square" stroke-linejoin="bevel" transform="matrix(1,0,0,1,332,12)"
font-family="Montserrat" font-size="12" font-weight="700" font-style="normal" 
>
</g>
</g>

<clipPath id ="clip19" >
<rect x="0" y="264" height="132" width="350" transform="matrix(1,0,0,1,332,12)" />
</clipPath>
<g  clip-path="url(#clip19)" 
>
<g fill="none" stroke="#f2f2f2" stroke-opacity="1" stroke-width="1" stroke-linecap="square" stroke-linejoin="bevel" transform="matrix(1,0,0,1,332,12)"
font-family="Montserrat" font-size="12" font-weight="700" font-style="normal" 
>
</g>
</g>

<clipPath id ="clip20" >
<rect x="0" y="0" height="396" width="350" transform="matrix(1,0,0,1,332,12)" />
</clipPath>
<g  clip-path="url(#clip20)" 
>
<g fill="none" stroke="#f2f2f2" stroke-opacity="1" stroke-width="1" stroke-linecap="square" stroke-linejoin="bevel" transform="matrix(1,0,0,1,332,12)"
font-family="Montserrat" font-size="12" font-weight="700" font-style="normal" 
>
</g>
</g>

<clipPath id ="clip21" >
<rect x="0" y="0" height="397" width="351" transform="matrix(1,0,0,1,332,12)" />
</clipPath>
<g  clip-path="url(#clip21)" 
>
<g fill="none" stroke="#f2f2f2" stroke-opacity="1" stroke-width="1" stroke-linecap="square" stroke-linejoin="bevel" transform="matrix(1,0,0,1,332,12)"
font-family="Montserrat" font-size="12" font-weight="700" font-style="normal" 
>
</g>
</g>

<clipPath id ="clip22" >
<rect x="0" y="0" height="397" width="351" transform="matrix(1,0,0,1,332,12)" />
</clipPath>
<g  clip-path="url(#clip22)" 
>
<g fill="none" stroke="#f2f2f2" stroke-opacity="1" stroke-width="1" stroke-linecap="square" stroke-linejoin="bevel" transform="matrix(1,0,0,1,332,12)"
font-family="Montserrat" font-size="12" font-weight="700" font-style="normal" 
>
</g>
</g>

<clipPath id ="clip23" >
<rect x="0" y="0" height="396" width="350" transform="matrix(1,0,0,1,332,12)" />
</clipPath>
<g  clip-path="url(#clip23)" 
>
<g fill="none" stroke="#f2f2f2" stroke-opacity="1" stroke-width="1" stroke-linecap="square" stroke-linejoin="bevel" transform="matrix(1,0,0,1,332,12)"
font-family="Montserrat" font-size="12" font-weight="700" font-style="normal" 
>
</g>
</g>

<clipPath id ="clip24" >
<rect x="0" y="0" height="397" width="351" transform="matrix(1,0,0,1,332,12)" />
</clipPath>
<g  clip-path="url(#clip24)" 
>
<g fill="none" stroke="#f2f2f2" stroke-opacity="1" stroke-width="1" stroke-linecap="square" stroke-linejoin="bevel" transform="matrix(1,0,0,1,332,12)"
font-family="Montserrat" font-size="12" font-weight="700" font-style="normal" 
>
</g>
</g>

<clipPath id ="clip25" >
<rect x="0" y="0" height="396" width="350" transform="matrix(1,0,0,1,332,12)" />
</clipPath>
<g  clip-path="url(#clip25)" 
>
<g fill="none" stroke="#f2f2f2" stroke-opacity="1" stroke-width="1" stroke-linecap="square" stroke-linejoin="bevel" transform="matrix(1,0,0,1,332,12)"
font-family="Montserrat" font-size="12" font-weight="700" font-style="normal" 
>
</g>
</g>

<clipPath id ="clip26" >
<rect x="0" y="0" height="397" width="351" transform="matrix(1,0,0,1,332,12)" />
</clipPath>
<g  clip-path="url(#clip26)" 
>
<g fill="none" stroke="#f2f2f2" stroke-opacity="1" stroke-width="1" stroke-linecap="square" stroke-linejoin="bevel" transform="matrix(1,0,0,1,332,12)"
font-family="Montserrat" font-size="12" font-weight="700" font-style="normal" 
>
</g>
</g>

<clipPath id ="clip27" >
<rect x="0" y="0" height="396" width="350" transform="matrix(1,0,0,1,332,12)" />
</clipPath>
<g  clip-path="url(#clip27)" 
>
<g fill="none" stroke="#f2f2f2" stroke-opacity="1" stroke-width="1" stroke-linecap="square" stroke-linejoin="bevel" transform="matrix(1,0,0,1,332,12)"
font-family="Montserrat" font-size="12" font-weight="700" font-style="normal" 
>
</g>
</g>

<clipPath id ="clip28" >
<rect x="0" y="0" height="132" width="350" transform="matrix(1,0,0,1,332,12)" />
</clipPath>
<g  clip-path="url(#clip28)" 
>
<g fill="none" stroke="#f2f2f2" stroke-opacity="1" stroke-width="1" stroke-linecap="square" stroke-linejoin="bevel" transform="matrix(1,0,0,1,332,12)"
font-family="Montserrat" font-size="12" font-weight="700" font-style="normal" 
>
</g>
</g>

<g  clip-path="url(#clip28)" 
>
<g fill="#fbdfc5" fill-opacity="1" stroke="none" transform="matrix(1,0,0,1,332,12)"
font-family="Montserrat" font-size="12" font-weight="700" font-style="normal" 
>
<rect x="0" y="94" width="17" height="33"/>
</g>
</g>

<g  clip-path="url(#clip28)" 
>
<g fill="#e5c0c0" fill-opacity="1" stroke="none" transform="matrix(1,0,0,1,332,12)"
font-family="Montserrat" font-size="12" font-weight="700" font-style="normal" 
>
<rect x="0" y="50" width="20" height="33"/>
</g>
</g>

<g  clip-path="url(#clip28)" 
>
<g fill="#c3d8ef" fill-opacity="1" stroke="none" transform="matrix(1,0,0,1,332,12)"
font-family="Montserrat" font-size="12" font-weight="700" font-style="normal" 
>
<rect x="0" y="6" width="223" height="33"/>
</g>
</g>

<clipPath id ="clip29" >
<rect x="0" y="132" height="132" width="350" transform="matrix(1,0,0,1,332,12)" />
</clipPath>
<g  clip-path="url(#clip29)" 
>
<g fill="#c3d8ef" fill-opacity="1" stroke="none" transform="matrix(1,0,0,1,332,12)"
font-family="Montserrat" font-size="12" font-weight="700" font-style="normal" 
>
</g>
</g>

<g  clip-path="url(#clip29)" 
>
<g fill="#fbdfc5" fill-opacity="1" stroke="none" transform="matrix(1,0,0,1,332,12)"
font-family="Montserrat" font-size="12" font-weight="700" font-style="normal" 
>
<rect x="0" y="226" width="7" height="33"/>
</g>
</g>

<g  clip-path="url(#clip29)" 
>
<g fill="#e5c0c0" fill-opacity="1" stroke="none" transform="matrix(1,0,0,1,332,12)"
font-family="Montserrat" font-size="12" font-weight="700" font-style="normal" 
>
<rect x="0" y="182" width="16" height="33"/>
</g>
</g>

<g  clip-path="url(#clip29)" 
>
<g fill="#c3d8ef" fill-opacity="1" stroke="none" transform="matrix(1,0,0,1,332,12)"
font-family="Montserrat" font-size="12" font-weight="700" font-style="normal" 
>
<rect x="0" y="138" width="291" height="33"/>
</g>
</g>

<clipPath id ="clip30" >
<rect x="0" y="264" height="132" width="350" transform="matrix(1,0,0,1,332,12)" />
</clipPath>
<g  clip-path="url(#clip30)" 
>
<g fill="#c3d8ef" fill-opacity="1" stroke="none" transform="matrix(1,0,0,1,332,12)"
font-family="Montserrat" font-size="12" font-weight="700" font-style="normal" 
>
</g>
</g>

<g  clip-path="url(#clip30)" 
>
<g fill="#fbdfc5" fill-opacity="1" stroke="none" transform="matrix(1,0,0,1,332,12)"
font-family="Montserrat" font-size="12" font-weight="700" font-style="normal" 
>
<rect x="0" y="358" width="11" height="33"/>
</g>
</g>

<g  clip-path="url(#clip30)" 
>
<g fill="#e5c0c0" fill-opacity="1" stroke="none" transform="matrix(1,0,0,1,332,12)"
font-family="Montserrat" font-size="12" font-weight="700" font-style="normal" 
>
<rect x="0" y="314" width="27" height="33"/>
</g>
</g>

<g  clip-path="url(#clip30)" 
>
<g fill="#c3d8ef" fill-opacity="1" stroke="none" transform="matrix(1,0,0,1,332,12)"
font-family="Montserrat" font-size="12" font-weight="700" font-style="normal" 
>
<rect x="0" y="270" width="275" height="33"/>
</g>
</g>

<clipPath id ="clip31" >
<rect x="0" y="0" height="396" width="350" transform="matrix(1,0,0,1,332,12)" />
</clipPath>
<g  clip-path="url(#clip31)" 
>
<g fill="#c3d8ef" fill-opacity="1" stroke="none" transform="matrix(1,0,0,1,332,12)"
font-family="Montserrat" font-size="12" font-weight="700" font-style="normal" 
>
</g>
</g>

<clipPath id ="clip32" >
<rect x="0" y="0" height="397" width="351" transform="matrix(1,0,0,1,332,12)" />
</clipPath>
<g  clip-path="url(#clip32)" 
>
<g fill="#c3d8ef" fill-opacity="1" stroke="none" transform="matrix(1,0,0,1,332,12)"
font-family="Montserrat" font-size="12" font-weight="700" font-style="normal" 
>
</g>
</g>

<clipPath id ="clip33" >
<rect x="0" y="0" height="396" width="350" transform="matrix(1,0,0,1,332,12)" />
</clipPath>
<g  clip-path="url(#clip33)" 
>
<g fill="#c3d8ef" fill-opacity="1" stroke="none" transform="matrix(1,0,0,1,332,12)"
font-family="Montserrat" font-size="12" font-weight="700" font-style="normal" 
>
</g>
</g>

<clipPath id ="clip34" >
<rect x="0" y="0" height="132" width="350" transform="matrix(1,0,0,1,332,12)" />
</clipPath>
<g  clip-path="url(#clip34)" 
>
<g fill="none" stroke="none" transform="matrix(1,0,0,1,332,12)"
font-family="Montserrat" font-size="12" font-weight="700" font-style="normal" 
>
</g>
</g>

<g  clip-path="url(#clip34)" 
>
<g fill="none" stroke="#000000" stroke-opacity="1" stroke-width="1" stroke-linecap="square" stroke-linejoin="bevel" transform="matrix(1,0,0,1,332,12)"
font-family="Montserrat" font-size="12" font-weight="700" font-style="normal" 
>
<text fill="#000000" fill-opacity="1" stroke="none" xml:space="preserve" x="227" y="26" font-family="Montserrat" font-size="12" font-weight="700" font-style="normal" 
 >25,1%</text>
</g>
</g>

<g  clip-path="url(#clip34)" 
>
<g fill="none" stroke="#000000" stroke-opacity="1" stroke-width="1" stroke-linecap="square" stroke-linejoin="bevel" transform="matrix(1,0,0,1,332,12)"
font-family="Montserrat" font-size="12" font-weight="700" font-style="normal" 
>
<text fill="#000000" fill-opacity="1" stroke="none" xml:space="preserve" x="21" y="114" font-family="Montserrat" font-size="12" font-weight="700" font-style="normal" 
 >2,0%</text>
</g>
</g>

<g  clip-path="url(#clip34)" 
>
<g fill="none" stroke="#000000" stroke-opacity="1" stroke-width="1" stroke-linecap="square" stroke-linejoin="bevel" transform="matrix(1,0,0,1,332,12)"
font-family="Montserrat" font-size="12" font-weight="700" font-style="normal" 
>
<text fill="#000000" fill-opacity="1" stroke="none" xml:space="preserve" x="24" y="70" font-family="Montserrat" font-size="12" font-weight="700" font-style="normal" 
 >2,2%</text>
</g>
</g>

<clipPath id ="clip35" >
<rect x="0" y="132" height="132" width="350" transform="matrix(1,0,0,1,332,12)" />
</clipPath>
<g  clip-path="url(#clip35)" 
>
<g fill="none" stroke="#000000" stroke-opacity="1" stroke-width="1" stroke-linecap="square" stroke-linejoin="bevel" transform="matrix(1,0,0,1,332,12)"
font-family="Montserrat" font-size="12" font-weight="700" font-style="normal" 
>
</g>
</g>

<g  clip-path="url(#clip35)" 
>
<g fill="none" stroke="#000000" stroke-opacity="1" stroke-width="1" stroke-linecap="square" stroke-linejoin="bevel" transform="matrix(1,0,0,1,332,12)"
font-family="Montserrat" font-size="12" font-weight="700" font-style="normal" 
>
<text fill="#000000" fill-opacity="1" stroke="none" xml:space="preserve" x="295" y="158" font-family="Montserrat" font-size="12" font-weight="700" font-style="normal" 
 >32,8%</text>
</g>
</g>

<g  clip-path="url(#clip35)" 
>
<g fill="none" stroke="#000000" stroke-opacity="1" stroke-width="1" stroke-linecap="square" stroke-linejoin="bevel" transform="matrix(1,0,0,1,332,12)"
font-family="Montserrat" font-size="12" font-weight="700" font-style="normal" 
>
<text fill="#000000" fill-opacity="1" stroke="none" xml:space="preserve" x="11" y="246" font-family="Montserrat" font-size="12" font-weight="700" font-style="normal" 
 >0,8%</text>
</g>
</g>

<g  clip-path="url(#clip35)" 
>
<g fill="none" stroke="#000000" stroke-opacity="1" stroke-width="1" stroke-linecap="square" stroke-linejoin="bevel" transform="matrix(1,0,0,1,332,12)"
font-family="Montserrat" font-size="12" font-weight="700" font-style="normal" 
>
<text fill="#000000" fill-opacity="1" stroke="none" xml:space="preserve" x="20" y="202" font-family="Montserrat" font-size="12" font-weight="700" font-style="normal" 
 >1,8%</text>
</g>
</g>

<clipPath id ="clip36" >
<rect x="0" y="264" height="132" width="350" transform="matrix(1,0,0,1,332,12)" />
</clipPath>
<g  clip-path="url(#clip36)" 
>
<g fill="none" stroke="#000000" stroke-opacity="1" stroke-width="1" stroke-linecap="square" stroke-linejoin="bevel" transform="matrix(1,0,0,1,332,12)"
font-family="Montserrat" font-size="12" font-weight="700" font-style="normal" 
>
</g>
</g>

<g  clip-path="url(#clip36)" 
>
<g fill="none" stroke="#000000" stroke-opacity="1" stroke-width="1" stroke-linecap="square" stroke-linejoin="bevel" transform="matrix(1,0,0,1,332,12)"
font-family="Montserrat" font-size="12" font-weight="700" font-style="normal" 
>
<text fill="#000000" fill-opacity="1" stroke="none" xml:space="preserve" x="279" y="290" font-family="Montserrat" font-size="12" font-weight="700" font-style="normal" 
 >31,0%</text>
</g>
</g>

<g  clip-path="url(#clip36)" 
>
<g fill="none" stroke="#000000" stroke-opacity="1" stroke-width="1" stroke-linecap="square" stroke-linejoin="bevel" transform="matrix(1,0,0,1,332,12)"
font-family="Montserrat" font-size="12" font-weight="700" font-style="normal" 
>
<text fill="#000000" fill-opacity="1" stroke="none" xml:space="preserve" x="31" y="334" font-family="Montserrat" font-size="12" font-weight="700" font-style="normal" 
 >3,1%</text>
</g>
</g>

<g  clip-path="url(#clip36)" 
>
<g fill="none" stroke="#000000" stroke-opacity="1" stroke-width="1" stroke-linecap="square" stroke-linejoin="bevel" transform="matrix(1,0,0,1,332,12)"
font-family="Montserrat" font-size="12" font-weight="700" font-style="normal" 
>
<text fill="#000000" fill-opacity="1" stroke="none" xml:space="preserve" x="15" y="378" font-family="Montserrat" font-size="12" font-weight="700" font-style="normal" 
 >1,3%</text>
</g>
</g>

<clipPath id ="clip37" >
<rect x="0" y="0" height="396" width="350" transform="matrix(1,0,0,1,332,12)" />
</clipPath>
<g  clip-path="url(#clip37)" 
>
<g fill="none" stroke="#000000" stroke-opacity="1" stroke-width="1" stroke-linecap="square" stroke-linejoin="bevel" transform="matrix(1,0,0,1,332,12)"
font-family="Montserrat" font-size="12" font-weight="700" font-style="normal" 
>
</g>
</g>

<clipPath id ="clip38" >
<rect x="0" y="0" height="397" width="351" transform="matrix(1,0,0,1,332,12)" />
</clipPath>
<g  clip-path="url(#clip38)" 
>
<g fill="none" stroke="#000000" stroke-opacity="1" stroke-width="1" stroke-linecap="square" stroke-linejoin="bevel" transform="matrix(1,0,0,1,332,12)"
font-family="Montserrat" font-size="12" font-weight="700" font-style="normal" 
>
</g>
</g>

<clipPath id ="clip39" >
<rect x="0" y="0" height="397" width="351" transform="matrix(1,0,0,1,332,12)" />
</clipPath>
<g  clip-path="url(#clip39)" 
>
<g fill="none" stroke="#000000" stroke-opacity="1" stroke-width="1" stroke-linecap="square" stroke-linejoin="bevel" transform="matrix(1,0,0,1,332,12)"
font-family="Montserrat" font-size="12" font-weight="700" font-style="normal" 
>
</g>
</g>

<clipPath id ="clip40" >
<rect x="0" y="0" height="396" width="350" transform="matrix(1,0,0,1,332,12)" />
</clipPath>
<g  clip-path="url(#clip40)" 
>
<g fill="none" stroke="#000000" stroke-opacity="1" stroke-width="1" stroke-linecap="square" stroke-linejoin="bevel" transform="matrix(1,0,0,1,332,12)"
font-family="Montserrat" font-size="12" font-weight="700" font-style="normal" 
>
</g>
</g>

<clipPath id ="clip41" >
<rect x="0" y="0" height="397" width="351" transform="matrix(1,0,0,1,332,12)" />
</clipPath>
<g  clip-path="url(#clip41)" 
>
<g fill="none" stroke="#000000" stroke-opacity="1" stroke-width="1" stroke-linecap="square" stroke-linejoin="bevel" transform="matrix(1,0,0,1,332,12)"
font-family="Montserrat" font-size="12" font-weight="700" font-style="normal" 
>
</g>
</g>

<clipPath id ="clip42" >
<rect x="0" y="0" height="396" width="350" transform="matrix(1,0,0,1,332,12)" />
</clipPath>
<g  clip-path="url(#clip42)" 
>
<g fill="none" stroke="#000000" stroke-opacity="1" stroke-width="1" stroke-linecap="square" stroke-linejoin="bevel" transform="matrix(1,0,0,1,332,12)"
font-family="Montserrat" font-size="12" font-weight="700" font-style="normal" 
>
</g>
</g>

<clipPath id ="clip43" >
<rect x="0" y="0" height="397" width="351" transform="matrix(1,0,0,1,332,12)" />
</clipPath>
<g  clip-path="url(#clip43)" 
>
<g fill="none" stroke="#000000" stroke-opacity="1" stroke-width="1" stroke-linecap="square" stroke-linejoin="bevel" transform="matrix(1,0,0,1,332,12)"
font-family="Montserrat" font-size="12" font-weight="700" font-style="normal" 
>
</g>
</g>

<clipPath id ="clip44" >
<rect x="0" y="0" height="396" width="350" transform="matrix(1,0,0,1,332,12)" />
</clipPath>
<g  clip-path="url(#clip44)" 
>
<g fill="none" stroke="#000000" stroke-opacity="1" stroke-width="1" stroke-linecap="square" stroke-linejoin="bevel" transform="matrix(1,0,0,1,332,12)"
font-family="Montserrat" font-size="12" font-weight="700" font-style="normal" 
>
</g>
</g>

<clipPath id ="clip45" >
<rect x="0" y="0" height="397" width="351" transform="matrix(1,0,0,1,332,12)" />
</clipPath>
<g  clip-path="url(#clip45)" 
>
<g fill="none" stroke="#000000" stroke-opacity="1" stroke-width="1" stroke-linecap="square" stroke-linejoin="bevel" transform="matrix(1,0,0,1,332,12)"
font-family="Montserrat" font-size="12" font-weight="700" font-style="normal" 
>
</g>
</g>

<clipPath id ="clip46" >
<rect x="0" y="0" height="396" width="350" transform="matrix(1,0,0,1,332,12)" />
</clipPath>
<g  clip-path="url(#clip46)" 
>
<g fill="none" stroke="#000000" stroke-opacity="1" stroke-width="1" stroke-linecap="square" stroke-linejoin="bevel" transform="matrix(1,0,0,1,332,12)"
font-family="Montserrat" font-size="12" font-weight="700" font-style="normal" 
>
</g>
</g>

<clipPath id ="clip47" >
<rect x="0" y="0" height="397" width="351" transform="matrix(1,0,0,1,332,12)" />
</clipPath>
<g  clip-path="url(#clip47)" 
>
<g fill="none" stroke="#000000" stroke-opacity="1" stroke-width="1" stroke-linecap="square" stroke-linejoin="bevel" transform="matrix(1,0,0,1,332,12)"
font-family="Montserrat" font-size="12" font-weight="700" font-style="normal" 
>
</g>
</g>

<clipPath id ="clip48" >
<rect x="0" y="0" height="397" width="351" transform="matrix(1,0,0,1,332,12)" />
</clipPath>
<g  clip-path="url(#clip48)" 
>
<g fill="none" stroke="#000000" stroke-opacity="1" stroke-width="1" stroke-linecap="square" stroke-linejoin="bevel" transform="matrix(1,0,0,1,332,12)"
font-family="Montserrat" font-size="12" font-weight="700" font-style="normal" 
>
</g>
</g>

<clipPath id ="clip49" >
<rect x="0" y="0" height="396" width="350" transform="matrix(1,0,0,1,332,12)" />
</clipPath>
<g  clip-path="url(#clip49)" 
>
<g fill="none" stroke="#000000" stroke-opacity="1" stroke-width="1" stroke-linecap="square" stroke-linejoin="bevel" transform="matrix(1,0,0,1,332,12)"
font-family="Montserrat" font-size="12" font-weight="700" font-style="normal" 
>
</g>
</g>

<clipPath id ="clip50" >
<rect x="0" y="0" height="397" width="351" transform="matrix(1,0,0,1,332,12)" />
</clipPath>
<g  clip-path="url(#clip50)" 
>
<g fill="none" stroke="#000000" stroke-opacity="1" stroke-width="1" stroke-linecap="square" stroke-linejoin="bevel" transform="matrix(1,0,0,1,332,12)"
font-family="Montserrat" font-size="12" font-weight="700" font-style="normal" 
>
</g>
</g>

<clipPath id ="clip51" >
<rect x="0" y="0" height="396" width="350" transform="matrix(1,0,0,1,332,12)" />
</clipPath>
<g  clip-path="url(#clip51)" 
>
<g fill="none" stroke="#000000" stroke-opacity="1" stroke-width="1" stroke-linecap="square" stroke-linejoin="bevel" transform="matrix(1,0,0,1,332,12)"
font-family="Montserrat" font-size="12" font-weight="700" font-style="normal" 
>
</g>
</g>

<clipPath id ="clip52" >
<rect x="0" y="0" height="397" width="351" transform="matrix(1,0,0,1,332,12)" />
</clipPath>
<g  clip-path="url(#clip52)" 
>
<g fill="none" stroke="#000000" stroke-opacity="1" stroke-width="1" stroke-linecap="square" stroke-linejoin="bevel" transform="matrix(1,0,0,1,332,12)"
font-family="Montserrat" font-size="12" font-weight="700" font-style="normal" 
>
</g>
</g>

<clipPath id ="clip53" >
<rect x="0" y="0" height="396" width="350" transform="matrix(1,0,0,1,332,12)" />
</clipPath>
<g  clip-path="url(#clip53)" 
>
<g fill="none" stroke="#000000" stroke-opacity="1" stroke-width="1" stroke-linecap="square" stroke-linejoin="bevel" transform="matrix(1,0,0,1,332,12)"
font-family="Montserrat" font-size="12" font-weight="700" font-style="normal" 
>
</g>
</g>

<clipPath id ="clip54" >
<rect x="0" y="0" height="397" width="351" transform="matrix(1,0,0,1,332,12)" />
</clipPath>
<g  clip-path="url(#clip54)" 
>
<g fill="none" stroke="#000000" stroke-opacity="1" stroke-width="1" stroke-linecap="square" stroke-linejoin="bevel" transform="matrix(1,0,0,1,332,12)"
font-family="Montserrat" font-size="12" font-weight="700" font-style="normal" 
>
</g>
</g>

<clipPath id ="clip55" >
<rect x="0" y="0" height="396" width="350" transform="matrix(1,0,0,1,332,12)" />
</clipPath>
<g  clip-path="url(#clip55)" 
>
<g fill="none" stroke="#000000" stroke-opacity="1" stroke-width="1" stroke-linecap="square" stroke-linejoin="bevel" transform="matrix(1,0,0,1,332,12)"
font-family="Montserrat" font-size="12" font-weight="700" font-style="normal" 
>
</g>
</g>

<clipPath id ="clip56" >
<rect x="0" y="0" height="397" width="351" transform="matrix(1,0,0,1,332,12)" />
</clipPath>
<g  clip-path="url(#clip56)" 
>
<g fill="none" stroke="#000000" stroke-opacity="1" stroke-width="1" stroke-linecap="square" stroke-linejoin="bevel" transform="matrix(1,0,0,1,332,12)"
font-family="Montserrat" font-size="12" font-weight="700" font-style="normal" 
>
</g>
</g>

<clipPath id ="clip57" >
<rect x="0" y="0" height="397" width="351" transform="matrix(1,0,0,1,332,12)" />
</clipPath>
<g  clip-path="url(#clip57)" 
>
<g fill="none" stroke="#000000" stroke-opacity="1" stroke-width="1" stroke-linecap="square" stroke-linejoin="bevel" transform="matrix(1,0,0,1,332,12)"
font-family="Montserrat" font-size="12" font-weight="700" font-style="normal" 
>
</g>
</g>

<clipPath id ="clip58" >
<rect x="0" y="0" height="396" width="350" transform="matrix(1,0,0,1,332,12)" />
</clipPath>
<g  clip-path="url(#clip58)" 
>
<g fill="none" stroke="#000000" stroke-opacity="1" stroke-width="1" stroke-linecap="square" stroke-linejoin="bevel" transform="matrix(1,0,0,1,332,12)"
font-family="Montserrat" font-size="12" font-weight="700" font-style="normal" 
>
</g>
</g>

<clipPath id ="clip59" >
<rect x="0" y="0" height="397" width="351" transform="matrix(1,0,0,1,332,12)" />
</clipPath>
<g  clip-path="url(#clip59)" 
>
<g fill="none" stroke="#000000" stroke-opacity="1" stroke-width="1" stroke-linecap="square" stroke-linejoin="bevel" transform="matrix(1,0,0,1,332,12)"
font-family="Montserrat" font-size="12" font-weight="700" font-style="normal" 
>
</g>
</g>

<clipPath id ="clip60" >
<rect x="0" y="0" height="396" width="350" transform="matrix(1,0,0,1,332,12)" />
</clipPath>
<g  clip-path="url(#clip60)" 
>
<g fill="none" stroke="#000000" stroke-opacity="1" stroke-width="1" stroke-linecap="square" stroke-linejoin="bevel" transform="matrix(1,0,0,1,332,12)"
font-family="Montserrat" font-size="12" font-weight="700" font-style="normal" 
>
</g>
</g>

<clipPath id ="clip61" >
<rect x="0" y="0" height="397" width="351" transform="matrix(1,0,0,1,332,12)" />
</clipPath>
<g  clip-path="url(#clip61)" 
>
<g fill="none" stroke="#000000" stroke-opacity="1" stroke-width="1" stroke-linecap="square" stroke-linejoin="bevel" transform="matrix(1,0,0,1,332,12)"
font-family="Montserrat" font-size="12" font-weight="700" font-style="normal" 
>
</g>
</g>

<clipPath id ="clip62" >
<rect x="0" y="0" height="396" width="350" transform="matrix(1,0,0,1,332,12)" />
</clipPath>
<g  clip-path="url(#clip62)" 
>
<g fill="none" stroke="#000000" stroke-opacity="1" stroke-width="1" stroke-linecap="square" stroke-linejoin="bevel" transform="matrix(1,0,0,1,332,12)"
font-family="Montserrat" font-size="12" font-weight="700" font-style="normal" 
>
</g>
</g>

<clipPath id ="clip63" >
<rect x="0" y="0" height="397" width="351" transform="matrix(1,0,0,1,332,12)" />
</clipPath>
<g  clip-path="url(#clip63)" 
>
<g fill="none" stroke="#000000" stroke-opacity="1" stroke-width="1" stroke-linecap="square" stroke-linejoin="bevel" transform="matrix(1,0,0,1,332,12)"
font-family="Montserrat" font-size="12" font-weight="700" font-style="normal" 
>
</g>
</g>

<clipPath id ="clip64" >
<rect x="0" y="0" height="396" width="350" transform="matrix(1,0,0,1,332,12)" />
</clipPath>
<g  clip-path="url(#clip64)" 
>
<g fill="none" stroke="#000000" stroke-opacity="1" stroke-width="1" stroke-linecap="square" stroke-linejoin="bevel" transform="matrix(1,0,0,1,332,12)"
font-family="Montserrat" font-size="12" font-weight="700" font-style="normal" 
>
</g>
</g>

<clipPath id ="clip65" >
<rect x="0" y="0" height="397" width="351" transform="matrix(1,0,0,1,332,12)" />
</clipPath>
<g  clip-path="url(#clip65)" 
>
<g fill="none" stroke="#000000" stroke-opacity="1" stroke-width="1" stroke-linecap="square" stroke-linejoin="bevel" transform="matrix(1,0,0,1,332,12)"
font-family="Montserrat" font-size="12" font-weight="700" font-style="normal" 
>
</g>
</g>

<clipPath id ="clip66" >
<rect x="0" y="0" height="397" width="351" transform="matrix(1,0,0,1,332,12)" />
</clipPath>
<g  clip-path="url(#clip66)" 
>
<g fill="none" stroke="#000000" stroke-opacity="1" stroke-width="1" stroke-linecap="square" stroke-linejoin="bevel" transform="matrix(1,0,0,1,332,12)"
font-family="Montserrat" font-size="12" font-weight="700" font-style="normal" 
>
</g>
</g>

<clipPath id ="clip67" >
<rect x="0" y="0" height="396" width="350" transform="matrix(1,0,0,1,332,12)" />
</clipPath>
<g  clip-path="url(#clip67)" 
>
<g fill="none" stroke="#000000" stroke-opacity="1" stroke-width="1" stroke-linecap="square" stroke-linejoin="bevel" transform="matrix(1,0,0,1,332,12)"
font-family="Montserrat" font-size="12" font-weight="700" font-style="normal" 
>
</g>
</g>

<clipPath id ="clip68" >
<rect x="0" y="0" height="397" width="351" transform="matrix(1,0,0,1,332,12)" />
</clipPath>
<g  clip-path="url(#clip68)" 
>
<g fill="none" stroke="#000000" stroke-opacity="1" stroke-width="1" stroke-linecap="square" stroke-linejoin="bevel" transform="matrix(1,0,0,1,332,12)"
font-family="Montserrat" font-size="12" font-weight="700" font-style="normal" 
>
</g>
</g>

<clipPath id ="clip69" >
<rect x="0" y="0" height="396" width="350" transform="matrix(1,0,0,1,332,12)" />
</clipPath>
<g  clip-path="url(#clip69)" 
>
<g fill="none" stroke="#000000" stroke-opacity="1" stroke-width="1" stroke-linecap="square" stroke-linejoin="bevel" transform="matrix(1,0,0,1,332,12)"
font-family="Montserrat" font-size="12" font-weight="700" font-style="normal" 
>
</g>
</g>

<clipPath id ="clip70" >
<rect x="0" y="0" height="397" width="351" transform="matrix(1,0,0,1,332,12)" />
</clipPath>
<g  clip-path="url(#clip70)" 
>
<g fill="none" stroke="#000000" stroke-opacity="1" stroke-width="1" stroke-linecap="square" stroke-linejoin="bevel" transform="matrix(1,0,0,1,332,12)"
font-family="Montserrat" font-size="12" font-weight="700" font-style="normal" 
>
</g>
</g>

<clipPath id ="clip71" >
<rect x="0" y="0" height="396" width="350" transform="matrix(1,0,0,1,332,12)" />
</clipPath>
<g  clip-path="url(#clip71)" 
>
<g fill="none" stroke="#000000" stroke-opacity="1" stroke-width="1" stroke-linecap="square" stroke-linejoin="bevel" transform="matrix(1,0,0,1,332,12)"
font-family="Montserrat" font-size="12" font-weight="700" font-style="normal" 
>
</g>
</g>

<clipPath id ="clip72" >
<rect x="0" y="0" height="397" width="351" transform="matrix(1,0,0,1,332,12)" />
</clipPath>
<g  clip-path="url(#clip72)" 
>
<g fill="none" stroke="#000000" stroke-opacity="1" stroke-width="1" stroke-linecap="square" stroke-linejoin="bevel" transform="matrix(1,0,0,1,332,12)"
font-family="Montserrat" font-size="12" font-weight="700" font-style="normal" 
>
</g>
</g>

<clipPath id ="clip73" >
<rect x="0" y="0" height="396" width="350" transform="matrix(1,0,0,1,332,12)" />
</clipPath>
<g  clip-path="url(#clip73)" 
>
<g fill="none" stroke="#000000" stroke-opacity="1" stroke-width="1" stroke-linecap="square" stroke-linejoin="bevel" transform="matrix(1,0,0,1,332,12)"
font-family="Montserrat" font-size="12" font-weight="700" font-style="normal" 
>
</g>
</g>

<clipPath id ="clip74" >
<rect x="0" y="0" height="397" width="351" transform="matrix(1,0,0,1,332,12)" />
</clipPath>
<g  clip-path="url(#clip74)" 
>
<g fill="none" stroke="#000000" stroke-opacity="1" stroke-width="1" stroke-linecap="square" stroke-linejoin="bevel" transform="matrix(1,0,0,1,332,12)"
font-family="Montserrat" font-size="12" font-weight="700" font-style="normal" 
>
</g>
</g>

<g >
<g fill="none" stroke="#000000" stroke-opacity="1" stroke-width="1" stroke-linecap="square" stroke-linejoin="bevel" transform="matrix(1,0,0,1,332,12)"
font-family="Montserrat" font-size="12" font-weight="700" font-style="normal" 
>
</g>
</g>
</g>
</svg>
