<svg xmlns="http://www.w3.org/2000/svg" xmlns:xlink="http://www.w3.org/1999/xlink" width="483" zoomAndPan="magnify" viewBox="0 0 362.25 362.249992" height="483" preserveAspectRatio="xMidYMid meet" version="1.0"><defs><g/><clipPath id="41413ae05f"><path d="M 0 0 L 361.5 0 L 361.5 361.5 L 0 361.5 Z M 0 0 " clip-rule="nonzero"/></clipPath></defs><g clip-path="url(#41413ae05f)"><path fill="#ffffff" d="M 0 0 L 361.5 0 L 361.5 361.5 L 0 361.5 Z M 0 0 " fill-opacity="1" fill-rule="nonzero"/></g><path fill="#ffffff" d="M 4.199219 2.976562 L 357.351562 2.976562 C 357.519531 2.976562 357.683594 3.007812 357.835938 3.074219 C 357.992188 3.136719 358.128906 3.230469 358.246094 3.347656 C 358.367188 3.464844 358.457031 3.601562 358.523438 3.757812 C 358.585938 3.914062 358.617188 4.074219 358.617188 4.242188 L 358.617188 134.460938 C 358.617188 134.628906 358.585938 134.789062 358.523438 134.945312 C 358.457031 135.101562 358.367188 135.238281 358.246094 135.355469 C 358.128906 135.472656 357.992188 135.566406 357.835938 135.628906 C 357.683594 135.695312 357.519531 135.726562 357.351562 135.726562 L 4.199219 135.726562 C 4.03125 135.726562 3.867188 135.695312 3.714844 135.628906 C 3.558594 135.566406 3.421875 135.472656 3.304688 135.355469 C 3.183594 135.238281 3.09375 135.101562 3.027344 134.945312 C 2.964844 134.789062 2.933594 134.628906 2.933594 134.460938 L 2.933594 4.242188 C 2.933594 4.074219 2.964844 3.914062 3.027344 3.757812 C 3.09375 3.601562 3.183594 3.464844 3.304688 3.347656 C 3.421875 3.230469 3.558594 3.136719 3.714844 3.074219 C 3.867188 3.007812 4.03125 2.976562 4.199219 2.976562 Z M 4.199219 2.976562 " fill-opacity="1" fill-rule="nonzero"/><path fill="#e5c0c0" d="M 4.199219 2.976562 L 357.351562 2.976562 C 357.519531 2.976562 357.683594 3.007812 357.835938 3.074219 C 357.992188 3.136719 358.128906 3.230469 358.246094 3.347656 C 358.367188 3.464844 358.457031 3.601562 358.523438 3.757812 C 358.585938 3.914062 358.617188 4.074219 358.617188 4.242188 L 358.617188 134.460938 C 358.617188 134.628906 358.585938 134.789062 358.523438 134.945312 C 358.457031 135.101562 358.367188 135.238281 358.246094 135.355469 C 358.128906 135.472656 357.992188 135.566406 357.835938 135.628906 C 357.683594 135.695312 357.519531 135.726562 357.351562 135.726562 L 4.199219 135.726562 C 4.03125 135.726562 3.867188 135.695312 3.714844 135.628906 C 3.558594 135.566406 3.421875 135.472656 3.304688 135.355469 C 3.183594 135.238281 3.09375 135.101562 3.027344 134.945312 C 2.964844 134.789062 2.933594 134.628906 2.933594 134.460938 L 2.933594 4.242188 C 2.933594 4.074219 2.964844 3.914062 3.027344 3.757812 C 3.09375 3.601562 3.183594 3.464844 3.304688 3.347656 C 3.421875 3.230469 3.558594 3.136719 3.714844 3.074219 C 3.867188 3.007812 4.03125 2.976562 4.199219 2.976562 Z M 4.199219 2.976562 " fill-opacity="1" fill-rule="nonzero"/><g fill="#000000" fill-opacity="1"><g transform="translate(113.105408, 74.095048)"><g><path d="M 5.609375 0.15625 C 4.640625 0.15625 3.765625 -0.0507812 2.984375 -0.46875 C 2.210938 -0.882812 1.609375 -1.457031 1.171875 -2.1875 C 0.734375 -2.914062 0.515625 -3.738281 0.515625 -4.65625 C 0.515625 -5.5625 0.734375 -6.378906 1.171875 -7.109375 C 1.609375 -7.835938 2.210938 -8.410156 2.984375 -8.828125 C 3.765625 -9.242188 4.640625 -9.453125 5.609375 -9.453125 C 6.566406 -9.453125 7.429688 -9.242188 8.203125 -8.828125 C 8.972656 -8.410156 9.578125 -7.835938 10.015625 -7.109375 C 10.460938 -6.378906 10.6875 -5.5625 10.6875 -4.65625 C 10.6875 -3.738281 10.460938 -2.914062 10.015625 -2.1875 C 9.578125 -1.457031 8.972656 -0.882812 8.203125 -0.46875 C 7.429688 -0.0507812 6.566406 0.15625 5.609375 0.15625 Z M 5.609375 -1.671875 C 6.148438 -1.671875 6.640625 -1.796875 7.078125 -2.046875 C 7.523438 -2.304688 7.875 -2.660156 8.125 -3.109375 C 8.382812 -3.554688 8.515625 -4.070312 8.515625 -4.65625 C 8.515625 -5.226562 8.382812 -5.738281 8.125 -6.1875 C 7.875 -6.632812 7.523438 -6.984375 7.078125 -7.234375 C 6.640625 -7.492188 6.148438 -7.625 5.609375 -7.625 C 5.054688 -7.625 4.554688 -7.492188 4.109375 -7.234375 C 3.671875 -6.984375 3.328125 -6.632812 3.078125 -6.1875 C 2.828125 -5.738281 2.703125 -5.226562 2.703125 -4.65625 C 2.703125 -4.070312 2.828125 -3.554688 3.078125 -3.109375 C 3.328125 -2.660156 3.671875 -2.304688 4.109375 -2.046875 C 4.554688 -1.796875 5.054688 -1.671875 5.609375 -1.671875 Z M 5.609375 -1.671875 "/></g></g></g><g fill="#000000" fill-opacity="1"><g transform="translate(124.315467, 74.095048)"><g><path d="M 8.15625 -7.140625 L 8.15625 0 L 6.1875 0 L 6.1875 -0.84375 C 5.914062 -0.539062 5.585938 -0.304688 5.203125 -0.140625 C 4.828125 0.0234375 4.414062 0.109375 3.96875 0.109375 C 3.03125 0.109375 2.285156 -0.160156 1.734375 -0.703125 C 1.191406 -1.242188 0.921875 -2.046875 0.921875 -3.109375 L 0.921875 -7.140625 L 2.984375 -7.140625 L 2.984375 -3.40625 C 2.984375 -2.257812 3.46875 -1.6875 4.4375 -1.6875 C 4.9375 -1.6875 5.332031 -1.847656 5.625 -2.171875 C 5.925781 -2.492188 6.078125 -2.972656 6.078125 -3.609375 L 6.078125 -7.140625 Z M 8.15625 -7.140625 "/></g></g></g><g fill="#000000" fill-opacity="1"><g transform="translate(133.440243, 74.095048)"><g><path d="M 5.5625 -0.34375 C 5.363281 -0.195312 5.113281 -0.0820312 4.8125 0 C 4.519531 0.0703125 4.207031 0.109375 3.875 0.109375 C 3.03125 0.109375 2.375 -0.109375 1.90625 -0.546875 C 1.4375 -0.984375 1.203125 -1.617188 1.203125 -2.453125 L 1.203125 -5.390625 L 0.109375 -5.390625 L 0.109375 -6.984375 L 1.203125 -6.984375 L 1.203125 -8.71875 L 3.28125 -8.71875 L 3.28125 -6.984375 L 5.0625 -6.984375 L 5.0625 -5.390625 L 3.28125 -5.390625 L 3.28125 -2.484375 C 3.28125 -2.179688 3.359375 -1.945312 3.515625 -1.78125 C 3.671875 -1.625 3.890625 -1.546875 4.171875 -1.546875 C 4.492188 -1.546875 4.769531 -1.632812 5 -1.8125 Z M 5.5625 -0.34375 "/></g></g></g><g fill="#000000" fill-opacity="1"><g transform="translate(139.217938, 74.095048)"><g><path d="M 0.953125 -7.140625 L 3.03125 -7.140625 L 3.03125 0 L 0.953125 0 Z M 2 -8.140625 C 1.613281 -8.140625 1.300781 -8.25 1.0625 -8.46875 C 0.832031 -8.695312 0.71875 -8.972656 0.71875 -9.296875 C 0.71875 -9.617188 0.832031 -9.890625 1.0625 -10.109375 C 1.300781 -10.335938 1.613281 -10.453125 2 -10.453125 C 2.382812 -10.453125 2.691406 -10.34375 2.921875 -10.125 C 3.160156 -9.914062 3.28125 -9.65625 3.28125 -9.34375 C 3.28125 -8.988281 3.160156 -8.695312 2.921875 -8.46875 C 2.691406 -8.25 2.382812 -8.140625 2 -8.140625 Z M 2 -8.140625 "/></g></g></g><g fill="#000000" fill-opacity="1"><g transform="translate(143.215838, 74.095048)"><g><path d="M 0.953125 -9.859375 L 3.03125 -9.859375 L 3.03125 0 L 0.953125 0 Z M 0.953125 -9.859375 "/></g></g></g><g fill="#000000" fill-opacity="1"><g transform="translate(147.213738, 74.095048)"><g/></g></g><g fill="#000000" fill-opacity="1"><g transform="translate(150.972561, 74.095048)"><g><path d="M 3.84375 -7.25 C 4.945312 -7.25 5.796875 -6.984375 6.390625 -6.453125 C 6.984375 -5.929688 7.28125 -5.140625 7.28125 -4.078125 L 7.28125 0 L 5.34375 0 L 5.34375 -0.890625 C 4.945312 -0.222656 4.21875 0.109375 3.15625 0.109375 C 2.613281 0.109375 2.140625 0.015625 1.734375 -0.171875 C 1.328125 -0.359375 1.015625 -0.613281 0.796875 -0.9375 C 0.585938 -1.269531 0.484375 -1.644531 0.484375 -2.0625 C 0.484375 -2.726562 0.734375 -3.25 1.234375 -3.625 C 1.742188 -4.007812 2.519531 -4.203125 3.5625 -4.203125 L 5.203125 -4.203125 C 5.203125 -4.648438 5.066406 -4.992188 4.796875 -5.234375 C 4.523438 -5.484375 4.113281 -5.609375 3.5625 -5.609375 C 3.175781 -5.609375 2.800781 -5.546875 2.4375 -5.421875 C 2.070312 -5.304688 1.757812 -5.144531 1.5 -4.9375 L 0.75 -6.390625 C 1.144531 -6.660156 1.613281 -6.867188 2.15625 -7.015625 C 2.695312 -7.171875 3.257812 -7.25 3.84375 -7.25 Z M 3.671875 -1.28125 C 4.023438 -1.28125 4.335938 -1.363281 4.609375 -1.53125 C 4.890625 -1.695312 5.085938 -1.941406 5.203125 -2.265625 L 5.203125 -2.984375 L 3.78125 -2.984375 C 2.9375 -2.984375 2.515625 -2.707031 2.515625 -2.15625 C 2.515625 -1.882812 2.617188 -1.671875 2.828125 -1.515625 C 3.035156 -1.359375 3.316406 -1.28125 3.671875 -1.28125 Z M 3.671875 -1.28125 "/></g></g></g><g fill="#000000" fill-opacity="1"><g transform="translate(159.247285, 74.095048)"><g><path d="M 8.234375 -9.859375 L 8.234375 0 L 6.25 0 L 6.25 -0.828125 C 5.738281 -0.203125 5 0.109375 4.03125 0.109375 C 3.351562 0.109375 2.738281 -0.0390625 2.1875 -0.34375 C 1.644531 -0.644531 1.21875 -1.070312 0.90625 -1.625 C 0.601562 -2.1875 0.453125 -2.835938 0.453125 -3.578125 C 0.453125 -4.304688 0.601562 -4.945312 0.90625 -5.5 C 1.21875 -6.0625 1.644531 -6.492188 2.1875 -6.796875 C 2.738281 -7.097656 3.351562 -7.25 4.03125 -7.25 C 4.9375 -7.25 5.644531 -6.960938 6.15625 -6.390625 L 6.15625 -9.859375 Z M 4.390625 -1.59375 C 4.910156 -1.59375 5.34375 -1.769531 5.6875 -2.125 C 6.03125 -2.488281 6.203125 -2.972656 6.203125 -3.578125 C 6.203125 -4.171875 6.03125 -4.644531 5.6875 -5 C 5.34375 -5.363281 4.910156 -5.546875 4.390625 -5.546875 C 3.859375 -5.546875 3.414062 -5.363281 3.0625 -5 C 2.71875 -4.644531 2.546875 -4.171875 2.546875 -3.578125 C 2.546875 -2.972656 2.71875 -2.488281 3.0625 -2.125 C 3.414062 -1.769531 3.859375 -1.59375 4.390625 -1.59375 Z M 4.390625 -1.59375 "/></g></g></g><g fill="#000000" fill-opacity="1"><g transform="translate(168.438473, 74.095048)"><g><path d="M 3.84375 -7.25 C 4.945312 -7.25 5.796875 -6.984375 6.390625 -6.453125 C 6.984375 -5.929688 7.28125 -5.140625 7.28125 -4.078125 L 7.28125 0 L 5.34375 0 L 5.34375 -0.890625 C 4.945312 -0.222656 4.21875 0.109375 3.15625 0.109375 C 2.613281 0.109375 2.140625 0.015625 1.734375 -0.171875 C 1.328125 -0.359375 1.015625 -0.613281 0.796875 -0.9375 C 0.585938 -1.269531 0.484375 -1.644531 0.484375 -2.0625 C 0.484375 -2.726562 0.734375 -3.25 1.234375 -3.625 C 1.742188 -4.007812 2.519531 -4.203125 3.5625 -4.203125 L 5.203125 -4.203125 C 5.203125 -4.648438 5.066406 -4.992188 4.796875 -5.234375 C 4.523438 -5.484375 4.113281 -5.609375 3.5625 -5.609375 C 3.175781 -5.609375 2.800781 -5.546875 2.4375 -5.421875 C 2.070312 -5.304688 1.757812 -5.144531 1.5 -4.9375 L 0.75 -6.390625 C 1.144531 -6.660156 1.613281 -6.867188 2.15625 -7.015625 C 2.695312 -7.171875 3.257812 -7.25 3.84375 -7.25 Z M 3.671875 -1.28125 C 4.023438 -1.28125 4.335938 -1.363281 4.609375 -1.53125 C 4.890625 -1.695312 5.085938 -1.941406 5.203125 -2.265625 L 5.203125 -2.984375 L 3.78125 -2.984375 C 2.9375 -2.984375 2.515625 -2.707031 2.515625 -2.15625 C 2.515625 -1.882812 2.617188 -1.671875 2.828125 -1.515625 C 3.035156 -1.359375 3.316406 -1.28125 3.671875 -1.28125 Z M 3.671875 -1.28125 "/></g></g></g><g fill="#000000" fill-opacity="1"><g transform="translate(176.633504, 74.095048)"><g><path d="M 5.1875 -7.25 C 5.84375 -7.25 6.441406 -7.09375 6.984375 -6.78125 C 7.535156 -6.476562 7.960938 -6.050781 8.265625 -5.5 C 8.578125 -4.945312 8.734375 -4.304688 8.734375 -3.578125 C 8.734375 -2.835938 8.578125 -2.191406 8.265625 -1.640625 C 7.960938 -1.085938 7.535156 -0.65625 6.984375 -0.34375 C 6.441406 -0.0390625 5.84375 0.109375 5.1875 0.109375 C 4.269531 0.109375 3.550781 -0.175781 3.03125 -0.75 L 3.03125 2.578125 L 0.953125 2.578125 L 0.953125 -7.140625 L 2.9375 -7.140625 L 2.9375 -6.328125 C 3.445312 -6.941406 4.195312 -7.25 5.1875 -7.25 Z M 4.828125 -1.59375 C 5.359375 -1.59375 5.789062 -1.769531 6.125 -2.125 C 6.46875 -2.488281 6.640625 -2.972656 6.640625 -3.578125 C 6.640625 -4.171875 6.46875 -4.644531 6.125 -5 C 5.789062 -5.363281 5.359375 -5.546875 4.828125 -5.546875 C 4.296875 -5.546875 3.859375 -5.363281 3.515625 -5 C 3.171875 -4.644531 3 -4.171875 3 -3.578125 C 3 -2.972656 3.171875 -2.488281 3.515625 -2.125 C 3.859375 -1.769531 4.296875 -1.59375 4.828125 -1.59375 Z M 4.828125 -1.59375 "/></g></g></g><g fill="#000000" fill-opacity="1"><g transform="translate(185.798128, 74.095048)"><g><path d="M 5.5625 -0.34375 C 5.363281 -0.195312 5.113281 -0.0820312 4.8125 0 C 4.519531 0.0703125 4.207031 0.109375 3.875 0.109375 C 3.03125 0.109375 2.375 -0.109375 1.90625 -0.546875 C 1.4375 -0.984375 1.203125 -1.617188 1.203125 -2.453125 L 1.203125 -5.390625 L 0.109375 -5.390625 L 0.109375 -6.984375 L 1.203125 -6.984375 L 1.203125 -8.71875 L 3.28125 -8.71875 L 3.28125 -6.984375 L 5.0625 -6.984375 L 5.0625 -5.390625 L 3.28125 -5.390625 L 3.28125 -2.484375 C 3.28125 -2.179688 3.359375 -1.945312 3.515625 -1.78125 C 3.671875 -1.625 3.890625 -1.546875 4.171875 -1.546875 C 4.492188 -1.546875 4.769531 -1.632812 5 -1.8125 Z M 5.5625 -0.34375 "/></g></g></g><g fill="#000000" fill-opacity="1"><g transform="translate(191.350027, 74.095048)"><g><path d="M 7.953125 -3.546875 C 7.953125 -3.515625 7.941406 -3.328125 7.921875 -2.984375 L 2.515625 -2.984375 C 2.609375 -2.546875 2.835938 -2.195312 3.203125 -1.9375 C 3.566406 -1.675781 4.019531 -1.546875 4.5625 -1.546875 C 4.925781 -1.546875 5.253906 -1.601562 5.546875 -1.71875 C 5.835938 -1.832031 6.101562 -2.007812 6.34375 -2.25 L 7.453125 -1.046875 C 6.773438 -0.273438 5.789062 0.109375 4.5 0.109375 C 3.695312 0.109375 2.984375 -0.046875 2.359375 -0.359375 C 1.742188 -0.679688 1.265625 -1.117188 0.921875 -1.671875 C 0.585938 -2.234375 0.421875 -2.867188 0.421875 -3.578125 C 0.421875 -4.273438 0.585938 -4.90625 0.921875 -5.46875 C 1.253906 -6.03125 1.707031 -6.46875 2.28125 -6.78125 C 2.863281 -7.09375 3.515625 -7.25 4.234375 -7.25 C 4.929688 -7.25 5.5625 -7.097656 6.125 -6.796875 C 6.695312 -6.492188 7.144531 -6.0625 7.46875 -5.5 C 7.789062 -4.9375 7.953125 -4.285156 7.953125 -3.546875 Z M 4.25 -5.6875 C 3.78125 -5.6875 3.382812 -5.550781 3.0625 -5.28125 C 2.75 -5.019531 2.554688 -4.660156 2.484375 -4.203125 L 6 -4.203125 C 5.925781 -4.648438 5.726562 -5.007812 5.40625 -5.28125 C 5.09375 -5.550781 4.707031 -5.6875 4.25 -5.6875 Z M 4.78125 -9.96875 L 7.015625 -9.96875 L 4.609375 -8.0625 L 3 -8.0625 Z M 4.78125 -9.96875 "/></g></g></g><g fill="#000000" fill-opacity="1"><g transform="translate(199.731002, 74.095048)"><g/></g></g><g fill="#000000" fill-opacity="1"><g transform="translate(203.489826, 74.095048)"><g><path d="M 3.84375 -7.25 C 4.945312 -7.25 5.796875 -6.984375 6.390625 -6.453125 C 6.984375 -5.929688 7.28125 -5.140625 7.28125 -4.078125 L 7.28125 0 L 5.34375 0 L 5.34375 -0.890625 C 4.945312 -0.222656 4.21875 0.109375 3.15625 0.109375 C 2.613281 0.109375 2.140625 0.015625 1.734375 -0.171875 C 1.328125 -0.359375 1.015625 -0.613281 0.796875 -0.9375 C 0.585938 -1.269531 0.484375 -1.644531 0.484375 -2.0625 C 0.484375 -2.726562 0.734375 -3.25 1.234375 -3.625 C 1.742188 -4.007812 2.519531 -4.203125 3.5625 -4.203125 L 5.203125 -4.203125 C 5.203125 -4.648438 5.066406 -4.992188 4.796875 -5.234375 C 4.523438 -5.484375 4.113281 -5.609375 3.5625 -5.609375 C 3.175781 -5.609375 2.800781 -5.546875 2.4375 -5.421875 C 2.070312 -5.304688 1.757812 -5.144531 1.5 -4.9375 L 0.75 -6.390625 C 1.144531 -6.660156 1.613281 -6.867188 2.15625 -7.015625 C 2.695312 -7.171875 3.257812 -7.25 3.84375 -7.25 Z M 3.671875 -1.28125 C 4.023438 -1.28125 4.335938 -1.363281 4.609375 -1.53125 C 4.890625 -1.695312 5.085938 -1.941406 5.203125 -2.265625 L 5.203125 -2.984375 L 3.78125 -2.984375 C 2.9375 -2.984375 2.515625 -2.707031 2.515625 -2.15625 C 2.515625 -1.882812 2.617188 -1.671875 2.828125 -1.515625 C 3.035156 -1.359375 3.316406 -1.28125 3.671875 -1.28125 Z M 1.234375 -9.96875 L 3.46875 -9.96875 L 5.25 -8.0625 L 3.640625 -8.0625 Z M 1.234375 -9.96875 "/></g></g></g><g fill="#000000" fill-opacity="1"><g transform="translate(211.684857, 74.095048)"><g/></g></g><g fill="#000000" fill-opacity="1"><g transform="translate(215.443681, 74.095048)"><g><path d="M 0.953125 -9.859375 L 3.03125 -9.859375 L 3.03125 0 L 0.953125 0 Z M 0.953125 -9.859375 "/></g></g></g><g fill="#000000" fill-opacity="1"><g transform="translate(219.441576, 74.095048)"><g><path d="M 0.65625 -9.296875 L 2.421875 -9.296875 L 2.265625 -5.53125 L 0.78125 -5.53125 Z M 0.65625 -9.296875 "/></g></g></g><g fill="#000000" fill-opacity="1"><g transform="translate(222.496457, 74.095048)"><g><path d="M 3.84375 -7.25 C 4.945312 -7.25 5.796875 -6.984375 6.390625 -6.453125 C 6.984375 -5.929688 7.28125 -5.140625 7.28125 -4.078125 L 7.28125 0 L 5.34375 0 L 5.34375 -0.890625 C 4.945312 -0.222656 4.21875 0.109375 3.15625 0.109375 C 2.613281 0.109375 2.140625 0.015625 1.734375 -0.171875 C 1.328125 -0.359375 1.015625 -0.613281 0.796875 -0.9375 C 0.585938 -1.269531 0.484375 -1.644531 0.484375 -2.0625 C 0.484375 -2.726562 0.734375 -3.25 1.234375 -3.625 C 1.742188 -4.007812 2.519531 -4.203125 3.5625 -4.203125 L 5.203125 -4.203125 C 5.203125 -4.648438 5.066406 -4.992188 4.796875 -5.234375 C 4.523438 -5.484375 4.113281 -5.609375 3.5625 -5.609375 C 3.175781 -5.609375 2.800781 -5.546875 2.4375 -5.421875 C 2.070312 -5.304688 1.757812 -5.144531 1.5 -4.9375 L 0.75 -6.390625 C 1.144531 -6.660156 1.613281 -6.867188 2.15625 -7.015625 C 2.695312 -7.171875 3.257812 -7.25 3.84375 -7.25 Z M 3.671875 -1.28125 C 4.023438 -1.28125 4.335938 -1.363281 4.609375 -1.53125 C 4.890625 -1.695312 5.085938 -1.941406 5.203125 -2.265625 L 5.203125 -2.984375 L 3.78125 -2.984375 C 2.9375 -2.984375 2.515625 -2.707031 2.515625 -2.15625 C 2.515625 -1.882812 2.617188 -1.671875 2.828125 -1.515625 C 3.035156 -1.359375 3.316406 -1.28125 3.671875 -1.28125 Z M 5.203125 -8.0625 L 4.046875 -9.078125 L 2.890625 -8.0625 L 1.375 -8.0625 L 3.125 -9.96875 L 4.96875 -9.96875 L 6.71875 -8.0625 Z M 5.203125 -8.0625 "/></g></g></g><g fill="#000000" fill-opacity="1"><g transform="translate(230.771176, 74.095048)"><g><path d="M 8.328125 -7.140625 L 8.328125 -1.203125 C 8.328125 0.109375 7.984375 1.082031 7.296875 1.71875 C 6.617188 2.363281 5.625 2.6875 4.3125 2.6875 C 3.625 2.6875 2.96875 2.597656 2.34375 2.421875 C 1.726562 2.253906 1.21875 2.015625 0.8125 1.703125 L 1.640625 0.21875 C 1.929688 0.457031 2.304688 0.648438 2.765625 0.796875 C 3.234375 0.941406 3.695312 1.015625 4.15625 1.015625 C 4.875 1.015625 5.398438 0.851562 5.734375 0.53125 C 6.078125 0.207031 6.25 -0.28125 6.25 -0.9375 L 6.25 -1.234375 C 5.71875 -0.640625 4.96875 -0.34375 4 -0.34375 C 3.34375 -0.34375 2.738281 -0.484375 2.1875 -0.765625 C 1.644531 -1.054688 1.210938 -1.460938 0.890625 -1.984375 C 0.578125 -2.515625 0.421875 -3.117188 0.421875 -3.796875 C 0.421875 -4.484375 0.578125 -5.085938 0.890625 -5.609375 C 1.210938 -6.128906 1.644531 -6.53125 2.1875 -6.8125 C 2.738281 -7.101562 3.34375 -7.25 4 -7.25 C 5.03125 -7.25 5.816406 -6.910156 6.359375 -6.234375 L 6.359375 -7.140625 Z M 4.40625 -2.046875 C 4.957031 -2.046875 5.40625 -2.207031 5.75 -2.53125 C 6.101562 -2.851562 6.28125 -3.273438 6.28125 -3.796875 C 6.28125 -4.316406 6.101562 -4.738281 5.75 -5.0625 C 5.40625 -5.382812 4.957031 -5.546875 4.40625 -5.546875 C 3.863281 -5.546875 3.414062 -5.382812 3.0625 -5.0625 C 2.707031 -4.738281 2.53125 -4.316406 2.53125 -3.796875 C 2.53125 -3.273438 2.707031 -2.851562 3.0625 -2.53125 C 3.414062 -2.207031 3.863281 -2.046875 4.40625 -2.046875 Z M 4.40625 -2.046875 "/></g></g></g><g fill="#000000" fill-opacity="1"><g transform="translate(240.068614, 74.095048)"><g><path d="M 7.953125 -3.546875 C 7.953125 -3.515625 7.941406 -3.328125 7.921875 -2.984375 L 2.515625 -2.984375 C 2.609375 -2.546875 2.835938 -2.195312 3.203125 -1.9375 C 3.566406 -1.675781 4.019531 -1.546875 4.5625 -1.546875 C 4.925781 -1.546875 5.253906 -1.601562 5.546875 -1.71875 C 5.835938 -1.832031 6.101562 -2.007812 6.34375 -2.25 L 7.453125 -1.046875 C 6.773438 -0.273438 5.789062 0.109375 4.5 0.109375 C 3.695312 0.109375 2.984375 -0.046875 2.359375 -0.359375 C 1.742188 -0.679688 1.265625 -1.117188 0.921875 -1.671875 C 0.585938 -2.234375 0.421875 -2.867188 0.421875 -3.578125 C 0.421875 -4.273438 0.585938 -4.90625 0.921875 -5.46875 C 1.253906 -6.03125 1.707031 -6.46875 2.28125 -6.78125 C 2.863281 -7.09375 3.515625 -7.25 4.234375 -7.25 C 4.929688 -7.25 5.5625 -7.097656 6.125 -6.796875 C 6.695312 -6.492188 7.144531 -6.0625 7.46875 -5.5 C 7.789062 -4.9375 7.953125 -4.285156 7.953125 -3.546875 Z M 4.25 -5.6875 C 3.78125 -5.6875 3.382812 -5.550781 3.0625 -5.28125 C 2.75 -5.019531 2.554688 -4.660156 2.484375 -4.203125 L 6 -4.203125 C 5.925781 -4.648438 5.726562 -5.007812 5.40625 -5.28125 C 5.09375 -5.550781 4.707031 -5.6875 4.25 -5.6875 Z M 4.25 -5.6875 "/></g></g></g><path fill="#ffffff" d="M 4.199219 136.992188 L 214.445312 136.992188 C 214.613281 136.992188 214.777344 137.023438 214.929688 137.085938 C 215.085938 137.152344 215.222656 137.242188 215.339844 137.363281 C 215.460938 137.480469 215.550781 137.617188 215.617188 137.773438 C 215.679688 137.925781 215.710938 138.089844 215.710938 138.257812 L 215.710938 357.398438 C 215.710938 357.566406 215.679688 357.726562 215.617188 357.882812 C 215.550781 358.035156 215.460938 358.171875 215.339844 358.292969 C 215.222656 358.410156 215.085938 358.5 214.929688 358.566406 C 214.777344 358.628906 214.613281 358.664062 214.445312 358.664062 L 4.199219 358.664062 C 4.03125 358.664062 3.867188 358.628906 3.714844 358.566406 C 3.558594 358.5 3.421875 358.410156 3.304688 358.292969 C 3.183594 358.171875 3.09375 358.035156 3.027344 357.882812 C 2.964844 357.726562 2.933594 357.566406 2.933594 357.398438 L 2.933594 138.257812 C 2.933594 138.089844 2.964844 137.925781 3.027344 137.773438 C 3.09375 137.617188 3.183594 137.480469 3.304688 137.363281 C 3.421875 137.242188 3.558594 137.152344 3.714844 137.085938 C 3.867188 137.023438 4.03125 136.992188 4.199219 136.992188 Z M 4.199219 136.992188 " fill-opacity="1" fill-rule="nonzero"/><path fill="#c3d8ef" d="M 4.199219 136.992188 L 214.445312 136.992188 C 214.613281 136.992188 214.777344 137.023438 214.929688 137.085938 C 215.085938 137.152344 215.222656 137.242188 215.339844 137.363281 C 215.460938 137.480469 215.550781 137.617188 215.617188 137.773438 C 215.679688 137.925781 215.710938 138.089844 215.710938 138.257812 L 215.710938 357.398438 C 215.710938 357.566406 215.679688 357.726562 215.617188 357.882812 C 215.550781 358.035156 215.460938 358.171875 215.339844 358.292969 C 215.222656 358.410156 215.085938 358.5 214.929688 358.566406 C 214.777344 358.628906 214.613281 358.664062 214.445312 358.664062 L 4.199219 358.664062 C 4.03125 358.664062 3.867188 358.628906 3.714844 358.566406 C 3.558594 358.5 3.421875 358.410156 3.304688 358.292969 C 3.183594 358.171875 3.09375 358.035156 3.027344 357.882812 C 2.964844 357.726562 2.933594 357.566406 2.933594 357.398438 L 2.933594 138.257812 C 2.933594 138.089844 2.964844 137.925781 3.027344 137.773438 C 3.09375 137.617188 3.183594 137.480469 3.304688 137.363281 C 3.421875 137.242188 3.558594 137.152344 3.714844 137.085938 C 3.867188 137.023438 4.03125 136.992188 4.199219 136.992188 Z M 4.199219 136.992188 " fill-opacity="1" fill-rule="nonzero"/><g fill="#000000" fill-opacity="1"><g transform="translate(34.778786, 252.254115)"><g><path d="M 4.0625 0.15625 C 3.34375 0.15625 2.644531 0.0625 1.96875 -0.125 C 1.300781 -0.320312 0.765625 -0.578125 0.359375 -0.890625 L 1.078125 -2.484375 C 1.460938 -2.191406 1.921875 -1.957031 2.453125 -1.78125 C 2.992188 -1.613281 3.535156 -1.53125 4.078125 -1.53125 C 4.671875 -1.53125 5.109375 -1.617188 5.390625 -1.796875 C 5.679688 -1.972656 5.828125 -2.207031 5.828125 -2.5 C 5.828125 -2.71875 5.742188 -2.898438 5.578125 -3.046875 C 5.410156 -3.191406 5.191406 -3.304688 4.921875 -3.390625 C 4.660156 -3.472656 4.304688 -3.566406 3.859375 -3.671875 C 3.160156 -3.835938 2.59375 -4.003906 2.15625 -4.171875 C 1.71875 -4.335938 1.335938 -4.597656 1.015625 -4.953125 C 0.703125 -5.316406 0.546875 -5.804688 0.546875 -6.421875 C 0.546875 -6.941406 0.6875 -7.414062 0.96875 -7.84375 C 1.257812 -8.269531 1.691406 -8.609375 2.265625 -8.859375 C 2.835938 -9.117188 3.539062 -9.25 4.375 -9.25 C 4.957031 -9.25 5.523438 -9.175781 6.078125 -9.03125 C 6.628906 -8.894531 7.113281 -8.695312 7.53125 -8.4375 L 6.875 -6.84375 C 6.039062 -7.320312 5.203125 -7.5625 4.359375 -7.5625 C 3.773438 -7.5625 3.34375 -7.460938 3.0625 -7.265625 C 2.78125 -7.078125 2.640625 -6.828125 2.640625 -6.515625 C 2.640625 -6.203125 2.800781 -5.96875 3.125 -5.8125 C 3.445312 -5.664062 3.941406 -5.519531 4.609375 -5.375 C 5.296875 -5.207031 5.859375 -5.039062 6.296875 -4.875 C 6.742188 -4.71875 7.125 -4.460938 7.4375 -4.109375 C 7.757812 -3.753906 7.921875 -3.269531 7.921875 -2.65625 C 7.921875 -2.132812 7.773438 -1.660156 7.484375 -1.234375 C 7.191406 -0.804688 6.753906 -0.46875 6.171875 -0.21875 C 5.597656 0.03125 4.894531 0.15625 4.0625 0.15625 Z M 4.0625 0.15625 "/></g></g></g><g fill="#000000" fill-opacity="1"><g transform="translate(43.057297, 252.254115)"><g><path d="M 0.9375 -6.984375 L 2.953125 -6.984375 L 2.953125 0 L 0.9375 0 Z M 1.953125 -7.953125 C 1.578125 -7.953125 1.269531 -8.0625 1.03125 -8.28125 C 0.800781 -8.5 0.6875 -8.769531 0.6875 -9.09375 C 0.6875 -9.40625 0.800781 -9.671875 1.03125 -9.890625 C 1.269531 -10.109375 1.578125 -10.21875 1.953125 -10.21875 C 2.316406 -10.21875 2.613281 -10.113281 2.84375 -9.90625 C 3.082031 -9.695312 3.203125 -9.4375 3.203125 -9.125 C 3.203125 -8.789062 3.082031 -8.507812 2.84375 -8.28125 C 2.613281 -8.0625 2.316406 -7.953125 1.953125 -7.953125 Z M 1.953125 -7.953125 "/></g></g></g><g fill="#000000" fill-opacity="1"><g transform="translate(46.962988, 252.254115)"><g><path d="M 9.875 -7.09375 C 10.75 -7.09375 11.441406 -6.832031 11.953125 -6.3125 C 12.472656 -5.800781 12.734375 -5.03125 12.734375 -4 L 12.734375 0 L 10.71875 0 L 10.71875 -3.6875 C 10.71875 -4.238281 10.601562 -4.648438 10.375 -4.921875 C 10.144531 -5.203125 9.816406 -5.34375 9.390625 -5.34375 C 8.910156 -5.34375 8.53125 -5.1875 8.25 -4.875 C 7.976562 -4.570312 7.84375 -4.113281 7.84375 -3.5 L 7.84375 0 L 5.8125 0 L 5.8125 -3.6875 C 5.8125 -4.789062 5.375 -5.34375 4.5 -5.34375 C 4.03125 -5.34375 3.65625 -5.1875 3.375 -4.875 C 3.09375 -4.570312 2.953125 -4.113281 2.953125 -3.5 L 2.953125 0 L 0.9375 0 L 0.9375 -6.984375 L 2.875 -6.984375 L 2.875 -6.1875 C 3.132812 -6.476562 3.453125 -6.703125 3.828125 -6.859375 C 4.203125 -7.015625 4.613281 -7.09375 5.0625 -7.09375 C 5.550781 -7.09375 5.992188 -6.992188 6.390625 -6.796875 C 6.796875 -6.597656 7.117188 -6.316406 7.359375 -5.953125 C 7.648438 -6.304688 8.015625 -6.582031 8.453125 -6.78125 C 8.890625 -6.988281 9.363281 -7.09375 9.875 -7.09375 Z M 9.875 -7.09375 "/></g></g></g><g fill="#000000" fill-opacity="1"><g transform="translate(60.574522, 252.254115)"><g><path d="M 5.0625 -7.09375 C 5.707031 -7.09375 6.296875 -6.941406 6.828125 -6.640625 C 7.367188 -6.335938 7.789062 -5.914062 8.09375 -5.375 C 8.394531 -4.84375 8.546875 -4.21875 8.546875 -3.5 C 8.546875 -2.78125 8.394531 -2.148438 8.09375 -1.609375 C 7.789062 -1.066406 7.367188 -0.644531 6.828125 -0.34375 C 6.296875 -0.0390625 5.707031 0.109375 5.0625 0.109375 C 4.164062 0.109375 3.460938 -0.171875 2.953125 -0.734375 L 2.953125 2.515625 L 0.9375 2.515625 L 0.9375 -6.984375 L 2.875 -6.984375 L 2.875 -6.1875 C 3.375 -6.789062 4.101562 -7.09375 5.0625 -7.09375 Z M 4.71875 -1.5625 C 5.238281 -1.5625 5.660156 -1.734375 5.984375 -2.078125 C 6.316406 -2.429688 6.484375 -2.90625 6.484375 -3.5 C 6.484375 -4.082031 6.316406 -4.546875 5.984375 -4.890625 C 5.660156 -5.242188 5.238281 -5.421875 4.71875 -5.421875 C 4.195312 -5.421875 3.769531 -5.242188 3.4375 -4.890625 C 3.101562 -4.546875 2.9375 -4.082031 2.9375 -3.5 C 2.9375 -2.90625 3.101562 -2.429688 3.4375 -2.078125 C 3.769531 -1.734375 4.195312 -1.5625 4.71875 -1.5625 Z M 4.71875 -1.5625 "/></g></g></g><g fill="#000000" fill-opacity="1"><g transform="translate(69.527773, 252.254115)"><g><path d="M 0.9375 -9.640625 L 2.953125 -9.640625 L 2.953125 0 L 0.9375 0 Z M 0.9375 -9.640625 "/></g></g></g><g fill="#000000" fill-opacity="1"><g transform="translate(73.433463, 252.254115)"><g><path d="M 0.9375 -6.984375 L 2.953125 -6.984375 L 2.953125 0 L 0.9375 0 Z M 1.953125 -7.953125 C 1.578125 -7.953125 1.269531 -8.0625 1.03125 -8.28125 C 0.800781 -8.5 0.6875 -8.769531 0.6875 -9.09375 C 0.6875 -9.40625 0.800781 -9.671875 1.03125 -9.890625 C 1.269531 -10.109375 1.578125 -10.21875 1.953125 -10.21875 C 2.316406 -10.21875 2.613281 -10.113281 2.84375 -9.90625 C 3.082031 -9.695312 3.203125 -9.4375 3.203125 -9.125 C 3.203125 -8.789062 3.082031 -8.507812 2.84375 -8.28125 C 2.613281 -8.0625 2.316406 -7.953125 1.953125 -7.953125 Z M 1.953125 -7.953125 "/></g></g></g><g fill="#000000" fill-opacity="1"><g transform="translate(77.339154, 252.254115)"><g><path d="M 4.3125 0.109375 C 3.5625 0.109375 2.890625 -0.0390625 2.296875 -0.34375 C 1.710938 -0.65625 1.253906 -1.082031 0.921875 -1.625 C 0.585938 -2.175781 0.421875 -2.800781 0.421875 -3.5 C 0.421875 -4.1875 0.585938 -4.800781 0.921875 -5.34375 C 1.253906 -5.894531 1.710938 -6.320312 2.296875 -6.625 C 2.890625 -6.9375 3.5625 -7.09375 4.3125 -7.09375 C 5.050781 -7.09375 5.691406 -6.9375 6.234375 -6.625 C 6.785156 -6.320312 7.1875 -5.882812 7.4375 -5.3125 L 5.875 -4.46875 C 5.507812 -5.101562 4.984375 -5.421875 4.296875 -5.421875 C 3.765625 -5.421875 3.328125 -5.25 2.984375 -4.90625 C 2.640625 -4.5625 2.46875 -4.09375 2.46875 -3.5 C 2.46875 -2.894531 2.640625 -2.421875 2.984375 -2.078125 C 3.328125 -1.734375 3.765625 -1.5625 4.296875 -1.5625 C 4.992188 -1.5625 5.519531 -1.878906 5.875 -2.515625 L 7.4375 -1.65625 C 7.1875 -1.101562 6.785156 -0.671875 6.234375 -0.359375 C 5.691406 -0.046875 5.050781 0.109375 4.3125 0.109375 Z M 4.3125 0.109375 "/></g></g></g><g fill="#000000" fill-opacity="1"><g transform="translate(85.007804, 252.254115)"><g><path d="M 0.9375 -6.984375 L 2.953125 -6.984375 L 2.953125 0 L 0.9375 0 Z M 1.953125 -7.953125 C 1.578125 -7.953125 1.269531 -8.0625 1.03125 -8.28125 C 0.800781 -8.5 0.6875 -8.769531 0.6875 -9.09375 C 0.6875 -9.40625 0.800781 -9.671875 1.03125 -9.890625 C 1.269531 -10.109375 1.578125 -10.21875 1.953125 -10.21875 C 2.316406 -10.21875 2.613281 -10.113281 2.84375 -9.90625 C 3.082031 -9.695312 3.203125 -9.4375 3.203125 -9.125 C 3.203125 -8.789062 3.082031 -8.507812 2.84375 -8.28125 C 2.613281 -8.0625 2.316406 -7.953125 1.953125 -7.953125 Z M 1.953125 -7.953125 "/></g></g></g><g fill="#000000" fill-opacity="1"><g transform="translate(88.913494, 252.254115)"><g><path d="M 5.4375 -0.34375 C 5.238281 -0.1875 4.992188 -0.0703125 4.703125 0 C 4.410156 0.0703125 4.109375 0.109375 3.796875 0.109375 C 2.960938 0.109375 2.316406 -0.101562 1.859375 -0.53125 C 1.410156 -0.957031 1.1875 -1.582031 1.1875 -2.40625 L 1.1875 -5.265625 L 0.109375 -5.265625 L 0.109375 -6.828125 L 1.1875 -6.828125 L 1.1875 -8.53125 L 3.203125 -8.53125 L 3.203125 -6.828125 L 4.953125 -6.828125 L 4.953125 -5.265625 L 3.203125 -5.265625 L 3.203125 -2.421875 C 3.203125 -2.128906 3.273438 -1.898438 3.421875 -1.734375 C 3.578125 -1.578125 3.796875 -1.5 4.078125 -1.5 C 4.398438 -1.5 4.671875 -1.585938 4.890625 -1.765625 Z M 5.4375 -0.34375 "/></g></g></g><g fill="#000000" fill-opacity="1"><g transform="translate(94.337303, 252.254115)"><g><path d="M 7.78125 -3.46875 C 7.78125 -3.4375 7.765625 -3.253906 7.734375 -2.921875 L 2.453125 -2.921875 C 2.546875 -2.484375 2.769531 -2.140625 3.125 -1.890625 C 3.476562 -1.640625 3.921875 -1.515625 4.453125 -1.515625 C 4.816406 -1.515625 5.140625 -1.566406 5.421875 -1.671875 C 5.703125 -1.785156 5.960938 -1.957031 6.203125 -2.1875 L 7.28125 -1.03125 C 6.625 -0.269531 5.664062 0.109375 4.40625 0.109375 C 3.613281 0.109375 2.914062 -0.0390625 2.3125 -0.34375 C 1.707031 -0.65625 1.238281 -1.082031 0.90625 -1.625 C 0.582031 -2.175781 0.421875 -2.800781 0.421875 -3.5 C 0.421875 -4.175781 0.582031 -4.789062 0.90625 -5.34375 C 1.226562 -5.894531 1.671875 -6.320312 2.234375 -6.625 C 2.804688 -6.9375 3.441406 -7.09375 4.140625 -7.09375 C 4.828125 -7.09375 5.445312 -6.941406 6 -6.640625 C 6.550781 -6.347656 6.984375 -5.925781 7.296875 -5.375 C 7.617188 -4.832031 7.78125 -4.195312 7.78125 -3.46875 Z M 4.15625 -5.5625 C 3.695312 -5.5625 3.3125 -5.429688 3 -5.171875 C 2.6875 -4.910156 2.492188 -4.554688 2.421875 -4.109375 L 5.875 -4.109375 C 5.800781 -4.546875 5.609375 -4.894531 5.296875 -5.15625 C 4.984375 -5.425781 4.601562 -5.5625 4.15625 -5.5625 Z M 4.671875 -9.75 L 6.859375 -9.75 L 4.5 -7.875 L 2.921875 -7.875 Z M 4.671875 -9.75 "/></g></g></g><g fill="#000000" fill-opacity="1"><g transform="translate(102.524985, 252.254115)"><g/></g></g><g fill="#000000" fill-opacity="1"><g transform="translate(106.197115, 252.254115)"><g><path d="M 8.046875 -9.640625 L 8.046875 0 L 6.109375 0 L 6.109375 -0.8125 C 5.609375 -0.195312 4.882812 0.109375 3.9375 0.109375 C 3.28125 0.109375 2.679688 -0.0351562 2.140625 -0.328125 C 1.609375 -0.628906 1.191406 -1.050781 0.890625 -1.59375 C 0.585938 -2.144531 0.4375 -2.78125 0.4375 -3.5 C 0.4375 -4.21875 0.585938 -4.847656 0.890625 -5.390625 C 1.191406 -5.929688 1.609375 -6.347656 2.140625 -6.640625 C 2.679688 -6.941406 3.28125 -7.09375 3.9375 -7.09375 C 4.820312 -7.09375 5.519531 -6.8125 6.03125 -6.25 L 6.03125 -9.640625 Z M 4.28125 -1.5625 C 4.789062 -1.5625 5.210938 -1.734375 5.546875 -2.078125 C 5.890625 -2.429688 6.0625 -2.90625 6.0625 -3.5 C 6.0625 -4.082031 5.890625 -4.546875 5.546875 -4.890625 C 5.210938 -5.242188 4.789062 -5.421875 4.28125 -5.421875 C 3.757812 -5.421875 3.332031 -5.242188 3 -4.890625 C 2.664062 -4.546875 2.5 -4.082031 2.5 -3.5 C 2.5 -2.90625 2.664062 -2.429688 3 -2.078125 C 3.332031 -1.734375 3.757812 -1.5625 4.28125 -1.5625 Z M 4.28125 -1.5625 "/></g></g></g><g fill="#000000" fill-opacity="1"><g transform="translate(115.176317, 252.254115)"><g><path d="M 7.78125 -3.46875 C 7.78125 -3.4375 7.765625 -3.253906 7.734375 -2.921875 L 2.453125 -2.921875 C 2.546875 -2.484375 2.769531 -2.140625 3.125 -1.890625 C 3.476562 -1.640625 3.921875 -1.515625 4.453125 -1.515625 C 4.816406 -1.515625 5.140625 -1.566406 5.421875 -1.671875 C 5.703125 -1.785156 5.960938 -1.957031 6.203125 -2.1875 L 7.28125 -1.03125 C 6.625 -0.269531 5.664062 0.109375 4.40625 0.109375 C 3.613281 0.109375 2.914062 -0.0390625 2.3125 -0.34375 C 1.707031 -0.65625 1.238281 -1.082031 0.90625 -1.625 C 0.582031 -2.175781 0.421875 -2.800781 0.421875 -3.5 C 0.421875 -4.175781 0.582031 -4.789062 0.90625 -5.34375 C 1.226562 -5.894531 1.671875 -6.320312 2.234375 -6.625 C 2.804688 -6.9375 3.441406 -7.09375 4.140625 -7.09375 C 4.828125 -7.09375 5.445312 -6.941406 6 -6.640625 C 6.550781 -6.347656 6.984375 -5.925781 7.296875 -5.375 C 7.617188 -4.832031 7.78125 -4.195312 7.78125 -3.46875 Z M 4.15625 -5.5625 C 3.695312 -5.5625 3.3125 -5.429688 3 -5.171875 C 2.6875 -4.910156 2.492188 -4.554688 2.421875 -4.109375 L 5.875 -4.109375 C 5.800781 -4.546875 5.609375 -4.894531 5.296875 -5.15625 C 4.984375 -5.425781 4.601562 -5.5625 4.15625 -5.5625 Z M 4.15625 -5.5625 "/></g></g></g><g fill="#000000" fill-opacity="1"><g transform="translate(123.364004, 252.254115)"><g><path d="M 3.28125 0.109375 C 2.707031 0.109375 2.140625 0.0351562 1.578125 -0.109375 C 1.023438 -0.253906 0.585938 -0.4375 0.265625 -0.65625 L 0.9375 -2.109375 C 1.25 -1.910156 1.625 -1.742188 2.0625 -1.609375 C 2.507812 -1.484375 2.941406 -1.421875 3.359375 -1.421875 C 4.210938 -1.421875 4.640625 -1.632812 4.640625 -2.0625 C 4.640625 -2.257812 4.523438 -2.398438 4.296875 -2.484375 C 4.066406 -2.578125 3.707031 -2.65625 3.21875 -2.71875 C 2.644531 -2.800781 2.171875 -2.898438 1.796875 -3.015625 C 1.429688 -3.128906 1.109375 -3.328125 0.828125 -3.609375 C 0.554688 -3.890625 0.421875 -4.296875 0.421875 -4.828125 C 0.421875 -5.273438 0.546875 -5.664062 0.796875 -6 C 1.054688 -6.34375 1.429688 -6.609375 1.921875 -6.796875 C 2.410156 -6.992188 2.988281 -7.09375 3.65625 -7.09375 C 4.15625 -7.09375 4.648438 -7.035156 5.140625 -6.921875 C 5.628906 -6.816406 6.03125 -6.671875 6.34375 -6.484375 L 5.671875 -5.03125 C 5.054688 -5.382812 4.382812 -5.5625 3.65625 -5.5625 C 3.226562 -5.5625 2.90625 -5.5 2.6875 -5.375 C 2.46875 -5.25 2.359375 -5.09375 2.359375 -4.90625 C 2.359375 -4.6875 2.472656 -4.535156 2.703125 -4.453125 C 2.941406 -4.367188 3.316406 -4.285156 3.828125 -4.203125 C 4.398438 -4.109375 4.867188 -4.003906 5.234375 -3.890625 C 5.597656 -3.785156 5.910156 -3.585938 6.171875 -3.296875 C 6.441406 -3.015625 6.578125 -2.617188 6.578125 -2.109375 C 6.578125 -1.679688 6.445312 -1.296875 6.1875 -0.953125 C 5.925781 -0.617188 5.546875 -0.359375 5.046875 -0.171875 C 4.554688 0.015625 3.96875 0.109375 3.28125 0.109375 Z M 3.28125 0.109375 "/></g></g></g><g fill="#000000" fill-opacity="1"><g transform="translate(130.254115, 252.254115)"><g/></g></g><g fill="#000000" fill-opacity="1"><g transform="translate(133.926245, 252.254115)"><g><path d="M 3.75 -7.09375 C 4.832031 -7.09375 5.660156 -6.832031 6.234375 -6.3125 C 6.816406 -5.800781 7.109375 -5.023438 7.109375 -3.984375 L 7.109375 0 L 5.21875 0 L 5.21875 -0.875 C 4.832031 -0.21875 4.125 0.109375 3.09375 0.109375 C 2.550781 0.109375 2.082031 0.0195312 1.6875 -0.15625 C 1.300781 -0.34375 1.003906 -0.597656 0.796875 -0.921875 C 0.585938 -1.242188 0.484375 -1.609375 0.484375 -2.015625 C 0.484375 -2.660156 0.726562 -3.171875 1.21875 -3.546875 C 1.707031 -3.921875 2.460938 -4.109375 3.484375 -4.109375 L 5.09375 -4.109375 C 5.09375 -4.546875 4.957031 -4.882812 4.6875 -5.125 C 4.414062 -5.363281 4.015625 -5.484375 3.484375 -5.484375 C 3.109375 -5.484375 2.738281 -5.421875 2.375 -5.296875 C 2.019531 -5.179688 1.71875 -5.023438 1.46875 -4.828125 L 0.734375 -6.25 C 1.117188 -6.507812 1.578125 -6.710938 2.109375 -6.859375 C 2.640625 -7.015625 3.1875 -7.09375 3.75 -7.09375 Z M 3.59375 -1.265625 C 3.9375 -1.265625 4.242188 -1.34375 4.515625 -1.5 C 4.785156 -1.65625 4.976562 -1.890625 5.09375 -2.203125 L 5.09375 -2.921875 L 3.703125 -2.921875 C 2.867188 -2.921875 2.453125 -2.648438 2.453125 -2.109375 C 2.453125 -1.847656 2.550781 -1.640625 2.75 -1.484375 C 2.957031 -1.335938 3.238281 -1.265625 3.59375 -1.265625 Z M 3.59375 -1.265625 "/></g></g></g><g fill="#000000" fill-opacity="1"><g transform="translate(141.932265, 252.254115)"><g><path d="M 2.875 -6.0625 C 3.113281 -6.394531 3.4375 -6.648438 3.84375 -6.828125 C 4.257812 -7.003906 4.734375 -7.09375 5.265625 -7.09375 L 5.265625 -5.21875 C 5.046875 -5.238281 4.894531 -5.25 4.8125 -5.25 C 4.238281 -5.25 3.785156 -5.082031 3.453125 -4.75 C 3.117188 -4.425781 2.953125 -3.941406 2.953125 -3.296875 L 2.953125 0 L 0.9375 0 L 0.9375 -6.984375 L 2.875 -6.984375 Z M 2.875 -6.0625 "/></g></g></g><g fill="#000000" fill-opacity="1"><g transform="translate(147.719476, 252.254115)"><g><path d="M 5.4375 -0.34375 C 5.238281 -0.1875 4.992188 -0.0703125 4.703125 0 C 4.410156 0.0703125 4.109375 0.109375 3.796875 0.109375 C 2.960938 0.109375 2.316406 -0.101562 1.859375 -0.53125 C 1.410156 -0.957031 1.1875 -1.582031 1.1875 -2.40625 L 1.1875 -5.265625 L 0.109375 -5.265625 L 0.109375 -6.828125 L 1.1875 -6.828125 L 1.1875 -8.53125 L 3.203125 -8.53125 L 3.203125 -6.828125 L 4.953125 -6.828125 L 4.953125 -5.265625 L 3.203125 -5.265625 L 3.203125 -2.421875 C 3.203125 -2.128906 3.273438 -1.898438 3.421875 -1.734375 C 3.578125 -1.578125 3.796875 -1.5 4.078125 -1.5 C 4.398438 -1.5 4.671875 -1.585938 4.890625 -1.765625 Z M 5.4375 -0.34375 "/></g></g></g><g fill="#000000" fill-opacity="1"><g transform="translate(153.363913, 252.254115)"><g><path d="M 0.9375 -6.984375 L 2.953125 -6.984375 L 2.953125 0 L 0.9375 0 Z M 1.953125 -7.953125 C 1.578125 -7.953125 1.269531 -8.0625 1.03125 -8.28125 C 0.800781 -8.5 0.6875 -8.769531 0.6875 -9.09375 C 0.6875 -9.40625 0.800781 -9.671875 1.03125 -9.890625 C 1.269531 -10.109375 1.578125 -10.21875 1.953125 -10.21875 C 2.316406 -10.21875 2.613281 -10.113281 2.84375 -9.90625 C 3.082031 -9.695312 3.203125 -9.4375 3.203125 -9.125 C 3.203125 -8.789062 3.082031 -8.507812 2.84375 -8.28125 C 2.613281 -8.0625 2.316406 -7.953125 1.953125 -7.953125 Z M 1.953125 -7.953125 "/></g></g></g><g fill="#000000" fill-opacity="1"><g transform="translate(157.269603, 252.254115)"><g><path d="M 4.3125 0.109375 C 3.5625 0.109375 2.890625 -0.0390625 2.296875 -0.34375 C 1.710938 -0.65625 1.253906 -1.082031 0.921875 -1.625 C 0.585938 -2.175781 0.421875 -2.800781 0.421875 -3.5 C 0.421875 -4.1875 0.585938 -4.800781 0.921875 -5.34375 C 1.253906 -5.894531 1.710938 -6.320312 2.296875 -6.625 C 2.890625 -6.9375 3.5625 -7.09375 4.3125 -7.09375 C 5.050781 -7.09375 5.691406 -6.9375 6.234375 -6.625 C 6.785156 -6.320312 7.1875 -5.882812 7.4375 -5.3125 L 5.875 -4.46875 C 5.507812 -5.101562 4.984375 -5.421875 4.296875 -5.421875 C 3.765625 -5.421875 3.328125 -5.25 2.984375 -4.90625 C 2.640625 -4.5625 2.46875 -4.09375 2.46875 -3.5 C 2.46875 -2.894531 2.640625 -2.421875 2.984375 -2.078125 C 3.328125 -1.734375 3.765625 -1.5625 4.296875 -1.5625 C 4.992188 -1.5625 5.519531 -1.878906 5.875 -2.515625 L 7.4375 -1.65625 C 7.1875 -1.101562 6.785156 -0.671875 6.234375 -0.359375 C 5.691406 -0.046875 5.050781 0.109375 4.3125 0.109375 Z M 4.3125 0.109375 "/></g></g></g><g fill="#000000" fill-opacity="1"><g transform="translate(164.886336, 252.254115)"><g><path d="M 0.9375 -9.640625 L 2.953125 -9.640625 L 2.953125 0 L 0.9375 0 Z M 0.9375 -9.640625 "/></g></g></g><g fill="#000000" fill-opacity="1"><g transform="translate(168.792027, 252.254115)"><g><path d="M 7.78125 -3.46875 C 7.78125 -3.4375 7.765625 -3.253906 7.734375 -2.921875 L 2.453125 -2.921875 C 2.546875 -2.484375 2.769531 -2.140625 3.125 -1.890625 C 3.476562 -1.640625 3.921875 -1.515625 4.453125 -1.515625 C 4.816406 -1.515625 5.140625 -1.566406 5.421875 -1.671875 C 5.703125 -1.785156 5.960938 -1.957031 6.203125 -2.1875 L 7.28125 -1.03125 C 6.625 -0.269531 5.664062 0.109375 4.40625 0.109375 C 3.613281 0.109375 2.914062 -0.0390625 2.3125 -0.34375 C 1.707031 -0.65625 1.238281 -1.082031 0.90625 -1.625 C 0.582031 -2.175781 0.421875 -2.800781 0.421875 -3.5 C 0.421875 -4.175781 0.582031 -4.789062 0.90625 -5.34375 C 1.226562 -5.894531 1.671875 -6.320312 2.234375 -6.625 C 2.804688 -6.9375 3.441406 -7.09375 4.140625 -7.09375 C 4.828125 -7.09375 5.445312 -6.941406 6 -6.640625 C 6.550781 -6.347656 6.984375 -5.925781 7.296875 -5.375 C 7.617188 -4.832031 7.78125 -4.195312 7.78125 -3.46875 Z M 4.15625 -5.5625 C 3.695312 -5.5625 3.3125 -5.429688 3 -5.171875 C 2.6875 -4.910156 2.492188 -4.554688 2.421875 -4.109375 L 5.875 -4.109375 C 5.800781 -4.546875 5.609375 -4.894531 5.296875 -5.15625 C 4.984375 -5.425781 4.601562 -5.5625 4.15625 -5.5625 Z M 4.15625 -5.5625 "/></g></g></g><g fill="#000000" fill-opacity="1"><g transform="translate(176.979705, 252.254115)"><g><path d="M 3.28125 0.109375 C 2.707031 0.109375 2.140625 0.0351562 1.578125 -0.109375 C 1.023438 -0.253906 0.585938 -0.4375 0.265625 -0.65625 L 0.9375 -2.109375 C 1.25 -1.910156 1.625 -1.742188 2.0625 -1.609375 C 2.507812 -1.484375 2.941406 -1.421875 3.359375 -1.421875 C 4.210938 -1.421875 4.640625 -1.632812 4.640625 -2.0625 C 4.640625 -2.257812 4.523438 -2.398438 4.296875 -2.484375 C 4.066406 -2.578125 3.707031 -2.65625 3.21875 -2.71875 C 2.644531 -2.800781 2.171875 -2.898438 1.796875 -3.015625 C 1.429688 -3.128906 1.109375 -3.328125 0.828125 -3.609375 C 0.554688 -3.890625 0.421875 -4.296875 0.421875 -4.828125 C 0.421875 -5.273438 0.546875 -5.664062 0.796875 -6 C 1.054688 -6.34375 1.429688 -6.609375 1.921875 -6.796875 C 2.410156 -6.992188 2.988281 -7.09375 3.65625 -7.09375 C 4.15625 -7.09375 4.648438 -7.035156 5.140625 -6.921875 C 5.628906 -6.816406 6.03125 -6.671875 6.34375 -6.484375 L 5.671875 -5.03125 C 5.054688 -5.382812 4.382812 -5.5625 3.65625 -5.5625 C 3.226562 -5.5625 2.90625 -5.5 2.6875 -5.375 C 2.46875 -5.25 2.359375 -5.09375 2.359375 -4.90625 C 2.359375 -4.6875 2.472656 -4.535156 2.703125 -4.453125 C 2.941406 -4.367188 3.316406 -4.285156 3.828125 -4.203125 C 4.398438 -4.109375 4.867188 -4.003906 5.234375 -3.890625 C 5.597656 -3.785156 5.910156 -3.585938 6.171875 -3.296875 C 6.441406 -3.015625 6.578125 -2.617188 6.578125 -2.109375 C 6.578125 -1.679688 6.445312 -1.296875 6.1875 -0.953125 C 5.925781 -0.617188 5.546875 -0.359375 5.046875 -0.171875 C 4.554688 0.015625 3.96875 0.109375 3.28125 0.109375 Z M 3.28125 0.109375 "/></g></g></g><path fill="#ffffff" d="M 218.242188 136.992188 L 357.355469 136.992188 C 357.519531 136.992188 357.683594 137.023438 357.835938 137.085938 C 357.992188 137.152344 358.128906 137.242188 358.246094 137.363281 C 358.367188 137.480469 358.457031 137.617188 358.523438 137.773438 C 358.585938 137.925781 358.617188 138.089844 358.617188 138.257812 L 358.617188 245.613281 C 358.617188 245.78125 358.585938 245.941406 358.523438 246.097656 C 358.457031 246.253906 358.367188 246.390625 358.246094 246.507812 C 358.128906 246.625 357.992188 246.71875 357.835938 246.78125 C 357.683594 246.847656 357.519531 246.878906 357.355469 246.878906 L 218.242188 246.878906 C 218.074219 246.878906 217.914062 246.847656 217.757812 246.78125 C 217.601562 246.71875 217.464844 246.625 217.347656 246.507812 C 217.230469 246.390625 217.136719 246.253906 217.074219 246.097656 C 217.007812 245.941406 216.976562 245.78125 216.976562 245.613281 L 216.976562 138.257812 C 216.976562 138.089844 217.007812 137.925781 217.074219 137.773438 C 217.136719 137.617188 217.230469 137.480469 217.347656 137.363281 C 217.464844 137.242188 217.601562 137.152344 217.757812 137.085938 C 217.914062 137.023438 218.074219 136.992188 218.242188 136.992188 Z M 218.242188 136.992188 " fill-opacity="1" fill-rule="nonzero"/><path fill="#fbdfc5" d="M 218.242188 136.992188 L 357.355469 136.992188 C 357.519531 136.992188 357.683594 137.023438 357.835938 137.085938 C 357.992188 137.152344 358.128906 137.242188 358.246094 137.363281 C 358.367188 137.480469 358.457031 137.617188 358.523438 137.773438 C 358.585938 137.925781 358.617188 138.089844 358.617188 138.257812 L 358.617188 245.613281 C 358.617188 245.78125 358.585938 245.941406 358.523438 246.097656 C 358.457031 246.253906 358.367188 246.390625 358.246094 246.507812 C 358.128906 246.625 357.992188 246.71875 357.835938 246.78125 C 357.683594 246.847656 357.519531 246.878906 357.355469 246.878906 L 218.242188 246.878906 C 218.074219 246.878906 217.914062 246.847656 217.757812 246.78125 C 217.601562 246.71875 217.464844 246.625 217.347656 246.507812 C 217.230469 246.390625 217.136719 246.253906 217.074219 246.097656 C 217.007812 245.941406 216.976562 245.78125 216.976562 245.613281 L 216.976562 138.257812 C 216.976562 138.089844 217.007812 137.925781 217.074219 137.773438 C 217.136719 137.617188 217.230469 137.480469 217.347656 137.363281 C 217.464844 137.242188 217.601562 137.152344 217.757812 137.085938 C 217.914062 137.023438 218.074219 136.992188 218.242188 136.992188 Z M 218.242188 136.992188 " fill-opacity="1" fill-rule="nonzero"/><g fill="#000000" fill-opacity="1"><g transform="translate(238.133188, 194.306422)"><g><path d="M 3.171875 0.09375 C 2.628906 0.09375 2.140625 -0.0195312 1.703125 -0.25 C 1.265625 -0.488281 0.921875 -0.816406 0.671875 -1.234375 C 0.421875 -1.660156 0.296875 -2.132812 0.296875 -2.65625 C 0.296875 -3.1875 0.421875 -3.660156 0.671875 -4.078125 C 0.921875 -4.492188 1.265625 -4.816406 1.703125 -5.046875 C 2.140625 -5.285156 2.632812 -5.40625 3.1875 -5.40625 C 3.644531 -5.40625 4.054688 -5.320312 4.421875 -5.15625 C 4.796875 -5 5.113281 -4.769531 5.375 -4.46875 L 4.578125 -3.734375 C 4.222656 -4.148438 3.78125 -4.359375 3.25 -4.359375 C 2.914062 -4.359375 2.617188 -4.285156 2.359375 -4.140625 C 2.097656 -3.992188 1.894531 -3.789062 1.75 -3.53125 C 1.613281 -3.28125 1.546875 -2.988281 1.546875 -2.65625 C 1.546875 -2.332031 1.613281 -2.039062 1.75 -1.78125 C 1.894531 -1.519531 2.097656 -1.316406 2.359375 -1.171875 C 2.617188 -1.023438 2.914062 -0.953125 3.25 -0.953125 C 3.78125 -0.953125 4.222656 -1.164062 4.578125 -1.59375 L 5.375 -0.859375 C 5.113281 -0.546875 4.796875 -0.304688 4.421875 -0.140625 C 4.046875 0.015625 3.628906 0.09375 3.171875 0.09375 Z M 3.171875 0.09375 "/></g></g></g><g fill="#000000" fill-opacity="1"><g transform="translate(243.555713, 194.306422)"><g><path d="M 2.484375 0.0625 C 2.054688 0.0625 1.671875 -0.0234375 1.328125 -0.203125 C 0.984375 -0.390625 0.71875 -0.640625 0.53125 -0.953125 C 0.34375 -1.273438 0.25 -1.640625 0.25 -2.046875 C 0.25 -2.453125 0.34375 -2.8125 0.53125 -3.125 C 0.71875 -3.445312 0.984375 -3.695312 1.328125 -3.875 C 1.671875 -4.050781 2.054688 -4.140625 2.484375 -4.140625 C 2.921875 -4.140625 3.304688 -4.050781 3.640625 -3.875 C 3.984375 -3.695312 4.25 -3.445312 4.4375 -3.125 C 4.632812 -2.8125 4.734375 -2.453125 4.734375 -2.046875 C 4.734375 -1.640625 4.632812 -1.273438 4.4375 -0.953125 C 4.25 -0.640625 3.984375 -0.390625 3.640625 -0.203125 C 3.304688 -0.0234375 2.921875 0.0625 2.484375 0.0625 Z M 2.484375 -0.90625 C 2.796875 -0.90625 3.046875 -1.007812 3.234375 -1.21875 C 3.429688 -1.425781 3.53125 -1.703125 3.53125 -2.046875 C 3.53125 -2.390625 3.429688 -2.660156 3.234375 -2.859375 C 3.046875 -3.066406 2.796875 -3.171875 2.484375 -3.171875 C 2.179688 -3.171875 1.929688 -3.066406 1.734375 -2.859375 C 1.535156 -2.660156 1.4375 -2.390625 1.4375 -2.046875 C 1.4375 -1.703125 1.535156 -1.425781 1.734375 -1.21875 C 1.929688 -1.007812 2.179688 -0.90625 2.484375 -0.90625 Z M 2.484375 -0.90625 "/></g></g></g><g fill="#000000" fill-opacity="1"><g transform="translate(248.530235, 194.306422)"><g><path d="M 5.78125 -4.140625 C 6.289062 -4.140625 6.695312 -3.988281 7 -3.6875 C 7.300781 -3.394531 7.453125 -2.945312 7.453125 -2.34375 L 7.453125 0 L 6.265625 0 L 6.265625 -2.15625 C 6.265625 -2.476562 6.195312 -2.71875 6.0625 -2.875 C 5.925781 -3.039062 5.734375 -3.125 5.484375 -3.125 C 5.210938 -3.125 4.992188 -3.03125 4.828125 -2.84375 C 4.671875 -2.664062 4.59375 -2.398438 4.59375 -2.046875 L 4.59375 0 L 3.40625 0 L 3.40625 -2.15625 C 3.40625 -2.800781 3.144531 -3.125 2.625 -3.125 C 2.351562 -3.125 2.132812 -3.03125 1.96875 -2.84375 C 1.8125 -2.664062 1.734375 -2.398438 1.734375 -2.046875 L 1.734375 0 L 0.546875 0 L 0.546875 -4.078125 L 1.671875 -4.078125 L 1.671875 -3.609375 C 1.828125 -3.785156 2.015625 -3.914062 2.234375 -4 C 2.453125 -4.09375 2.695312 -4.140625 2.96875 -4.140625 C 3.25 -4.140625 3.503906 -4.082031 3.734375 -3.96875 C 3.972656 -3.851562 4.164062 -3.691406 4.3125 -3.484375 C 4.476562 -3.691406 4.6875 -3.851562 4.9375 -3.96875 C 5.195312 -4.082031 5.476562 -4.140625 5.78125 -4.140625 Z M 5.78125 -4.140625 "/></g></g></g><g fill="#000000" fill-opacity="1"><g transform="translate(256.497068, 194.306422)"><g><path d="M 5.78125 -4.140625 C 6.289062 -4.140625 6.695312 -3.988281 7 -3.6875 C 7.300781 -3.394531 7.453125 -2.945312 7.453125 -2.34375 L 7.453125 0 L 6.265625 0 L 6.265625 -2.15625 C 6.265625 -2.476562 6.195312 -2.71875 6.0625 -2.875 C 5.925781 -3.039062 5.734375 -3.125 5.484375 -3.125 C 5.210938 -3.125 4.992188 -3.03125 4.828125 -2.84375 C 4.671875 -2.664062 4.59375 -2.398438 4.59375 -2.046875 L 4.59375 0 L 3.40625 0 L 3.40625 -2.15625 C 3.40625 -2.800781 3.144531 -3.125 2.625 -3.125 C 2.351562 -3.125 2.132812 -3.03125 1.96875 -2.84375 C 1.8125 -2.664062 1.734375 -2.398438 1.734375 -2.046875 L 1.734375 0 L 0.546875 0 L 0.546875 -4.078125 L 1.671875 -4.078125 L 1.671875 -3.609375 C 1.828125 -3.785156 2.015625 -3.914062 2.234375 -4 C 2.453125 -4.09375 2.695312 -4.140625 2.96875 -4.140625 C 3.25 -4.140625 3.503906 -4.082031 3.734375 -3.96875 C 3.972656 -3.851562 4.164062 -3.691406 4.3125 -3.484375 C 4.476562 -3.691406 4.6875 -3.851562 4.9375 -3.96875 C 5.195312 -4.082031 5.476562 -4.140625 5.78125 -4.140625 Z M 5.78125 -4.140625 "/></g></g></g><g fill="#000000" fill-opacity="1"><g transform="translate(264.4639, 194.306422)"><g><path d="M 4.65625 -4.078125 L 4.65625 0 L 3.53125 0 L 3.53125 -0.484375 C 3.375 -0.304688 3.1875 -0.171875 2.96875 -0.078125 C 2.757812 0.015625 2.523438 0.0625 2.265625 0.0625 C 1.734375 0.0625 1.3125 -0.0859375 1 -0.390625 C 0.6875 -0.703125 0.53125 -1.164062 0.53125 -1.78125 L 0.53125 -4.078125 L 1.703125 -4.078125 L 1.703125 -1.953125 C 1.703125 -1.296875 1.976562 -0.96875 2.53125 -0.96875 C 2.820312 -0.96875 3.050781 -1.054688 3.21875 -1.234375 C 3.394531 -1.421875 3.484375 -1.695312 3.484375 -2.0625 L 3.484375 -4.078125 Z M 4.65625 -4.078125 "/></g></g></g><g fill="#000000" fill-opacity="1"><g transform="translate(269.681455, 194.306422)"><g><path d="M 3.03125 -4.140625 C 3.539062 -4.140625 3.945312 -3.988281 4.25 -3.6875 C 4.5625 -3.382812 4.71875 -2.9375 4.71875 -2.34375 L 4.71875 0 L 3.53125 0 L 3.53125 -2.15625 C 3.53125 -2.476562 3.457031 -2.71875 3.3125 -2.875 C 3.175781 -3.039062 2.972656 -3.125 2.703125 -3.125 C 2.410156 -3.125 2.175781 -3.03125 2 -2.84375 C 1.820312 -2.65625 1.734375 -2.378906 1.734375 -2.015625 L 1.734375 0 L 0.546875 0 L 0.546875 -4.078125 L 1.671875 -4.078125 L 1.671875 -3.609375 C 1.828125 -3.773438 2.019531 -3.90625 2.25 -4 C 2.488281 -4.09375 2.75 -4.140625 3.03125 -4.140625 Z M 3.03125 -4.140625 "/></g></g></g><g fill="#000000" fill-opacity="1"><g transform="translate(274.929386, 194.306422)"><g><path d="M 2.1875 -4.140625 C 2.820312 -4.140625 3.304688 -3.988281 3.640625 -3.6875 C 3.984375 -3.394531 4.15625 -2.941406 4.15625 -2.328125 L 4.15625 0 L 3.046875 0 L 3.046875 -0.515625 C 2.828125 -0.128906 2.414062 0.0625 1.8125 0.0625 C 1.5 0.0625 1.222656 0.0078125 0.984375 -0.09375 C 0.753906 -0.207031 0.578125 -0.351562 0.453125 -0.53125 C 0.335938 -0.71875 0.28125 -0.929688 0.28125 -1.171875 C 0.28125 -1.554688 0.421875 -1.859375 0.703125 -2.078125 C 0.992188 -2.296875 1.4375 -2.40625 2.03125 -2.40625 L 2.984375 -2.40625 C 2.984375 -2.65625 2.898438 -2.847656 2.734375 -2.984375 C 2.578125 -3.128906 2.34375 -3.203125 2.03125 -3.203125 C 1.8125 -3.203125 1.597656 -3.164062 1.390625 -3.09375 C 1.179688 -3.03125 1.003906 -2.941406 0.859375 -2.828125 L 0.4375 -3.65625 C 0.65625 -3.8125 0.921875 -3.929688 1.234375 -4.015625 C 1.546875 -4.097656 1.863281 -4.140625 2.1875 -4.140625 Z M 2.109375 -0.734375 C 2.304688 -0.734375 2.484375 -0.78125 2.640625 -0.875 C 2.796875 -0.96875 2.910156 -1.109375 2.984375 -1.296875 L 2.984375 -1.703125 L 2.171875 -1.703125 C 1.679688 -1.703125 1.4375 -1.546875 1.4375 -1.234375 C 1.4375 -1.078125 1.492188 -0.953125 1.609375 -0.859375 C 1.734375 -0.773438 1.898438 -0.734375 2.109375 -0.734375 Z M 2.109375 -0.734375 "/></g></g></g><g fill="#000000" fill-opacity="1"><g transform="translate(279.615315, 194.306422)"><g><path d="M 4.65625 -4.078125 L 4.65625 0 L 3.53125 0 L 3.53125 -0.484375 C 3.375 -0.304688 3.1875 -0.171875 2.96875 -0.078125 C 2.757812 0.015625 2.523438 0.0625 2.265625 0.0625 C 1.734375 0.0625 1.3125 -0.0859375 1 -0.390625 C 0.6875 -0.703125 0.53125 -1.164062 0.53125 -1.78125 L 0.53125 -4.078125 L 1.703125 -4.078125 L 1.703125 -1.953125 C 1.703125 -1.296875 1.976562 -0.96875 2.53125 -0.96875 C 2.820312 -0.96875 3.050781 -1.054688 3.21875 -1.234375 C 3.394531 -1.421875 3.484375 -1.695312 3.484375 -2.0625 L 3.484375 -4.078125 Z M 4.65625 -4.078125 "/></g></g></g><g fill="#000000" fill-opacity="1"><g transform="translate(284.83287, 194.306422)"><g><path d="M 3.1875 -0.203125 C 3.0625 -0.109375 2.914062 -0.0390625 2.75 0 C 2.582031 0.0390625 2.40625 0.0625 2.21875 0.0625 C 1.726562 0.0625 1.347656 -0.0625 1.078125 -0.3125 C 0.816406 -0.5625 0.6875 -0.925781 0.6875 -1.40625 L 0.6875 -3.078125 L 0.0625 -3.078125 L 0.0625 -4 L 0.6875 -4 L 0.6875 -4.984375 L 1.875 -4.984375 L 1.875 -4 L 2.890625 -4 L 2.890625 -3.078125 L 1.875 -3.078125 L 1.875 -1.421875 C 1.875 -1.242188 1.914062 -1.109375 2 -1.015625 C 2.09375 -0.921875 2.222656 -0.875 2.390625 -0.875 C 2.578125 -0.875 2.734375 -0.925781 2.859375 -1.03125 Z M 3.1875 -0.203125 "/></g></g></g><g fill="#000000" fill-opacity="1"><g transform="translate(288.007373, 194.306422)"><g><path d="M 4.546875 -2.03125 C 4.546875 -2.007812 4.539062 -1.898438 4.53125 -1.703125 L 1.4375 -1.703125 C 1.488281 -1.453125 1.617188 -1.253906 1.828125 -1.109375 C 2.035156 -0.960938 2.296875 -0.890625 2.609375 -0.890625 C 2.816406 -0.890625 3.003906 -0.921875 3.171875 -0.984375 C 3.335938 -1.046875 3.488281 -1.144531 3.625 -1.28125 L 4.265625 -0.59375 C 3.878906 -0.15625 3.316406 0.0625 2.578125 0.0625 C 2.117188 0.0625 1.707031 -0.0234375 1.34375 -0.203125 C 0.988281 -0.390625 0.71875 -0.640625 0.53125 -0.953125 C 0.34375 -1.273438 0.25 -1.640625 0.25 -2.046875 C 0.25 -2.441406 0.34375 -2.800781 0.53125 -3.125 C 0.71875 -3.445312 0.976562 -3.695312 1.3125 -3.875 C 1.644531 -4.050781 2.015625 -4.140625 2.421875 -4.140625 C 2.816406 -4.140625 3.175781 -4.050781 3.5 -3.875 C 3.832031 -3.707031 4.085938 -3.460938 4.265625 -3.140625 C 4.453125 -2.828125 4.546875 -2.457031 4.546875 -2.03125 Z M 2.4375 -3.25 C 2.164062 -3.25 1.9375 -3.171875 1.75 -3.015625 C 1.570312 -2.867188 1.460938 -2.664062 1.421875 -2.40625 L 3.4375 -2.40625 C 3.394531 -2.65625 3.28125 -2.859375 3.09375 -3.015625 C 2.914062 -3.171875 2.695312 -3.25 2.4375 -3.25 Z M 2.734375 -5.703125 L 4 -5.703125 L 2.625 -4.609375 L 1.703125 -4.609375 Z M 2.734375 -5.703125 "/></g></g></g><g fill="#000000" fill-opacity="1"><g transform="translate(292.799625, 194.306422)"><g/></g></g><g fill="#000000" fill-opacity="1"><g transform="translate(294.948923, 194.306422)"><g><path d="M 2.96875 -4.140625 C 3.34375 -4.140625 3.6875 -4.050781 4 -3.875 C 4.3125 -3.707031 4.554688 -3.460938 4.734375 -3.140625 C 4.910156 -2.828125 5 -2.460938 5 -2.046875 C 5 -1.617188 4.910156 -1.25 4.734375 -0.9375 C 4.554688 -0.625 4.3125 -0.378906 4 -0.203125 C 3.6875 -0.0234375 3.34375 0.0625 2.96875 0.0625 C 2.4375 0.0625 2.023438 -0.101562 1.734375 -0.4375 L 1.734375 1.46875 L 0.546875 1.46875 L 0.546875 -4.078125 L 1.671875 -4.078125 L 1.671875 -3.609375 C 1.972656 -3.960938 2.40625 -4.140625 2.96875 -4.140625 Z M 2.75 -0.90625 C 3.0625 -0.90625 3.3125 -1.007812 3.5 -1.21875 C 3.695312 -1.425781 3.796875 -1.703125 3.796875 -2.046875 C 3.796875 -2.390625 3.695312 -2.660156 3.5 -2.859375 C 3.3125 -3.066406 3.0625 -3.171875 2.75 -3.171875 C 2.445312 -3.171875 2.195312 -3.066406 2 -2.859375 C 1.8125 -2.660156 1.71875 -2.390625 1.71875 -2.046875 C 1.71875 -1.703125 1.8125 -1.425781 2 -1.21875 C 2.195312 -1.007812 2.445312 -0.90625 2.75 -0.90625 Z M 2.75 -0.90625 "/></g></g></g><g fill="#000000" fill-opacity="1"><g transform="translate(300.189264, 194.306422)"><g><path d="M 0.546875 -5.640625 L 1.734375 -5.640625 L 1.734375 0 L 0.546875 0 Z M 0.546875 -5.640625 "/></g></g></g><g fill="#000000" fill-opacity="1"><g transform="translate(302.475266, 194.306422)"><g><path d="M 4.65625 -4.078125 L 4.65625 0 L 3.53125 0 L 3.53125 -0.484375 C 3.375 -0.304688 3.1875 -0.171875 2.96875 -0.078125 C 2.757812 0.015625 2.523438 0.0625 2.265625 0.0625 C 1.734375 0.0625 1.3125 -0.0859375 1 -0.390625 C 0.6875 -0.703125 0.53125 -1.164062 0.53125 -1.78125 L 0.53125 -4.078125 L 1.703125 -4.078125 L 1.703125 -1.953125 C 1.703125 -1.296875 1.976562 -0.96875 2.53125 -0.96875 C 2.820312 -0.96875 3.050781 -1.054688 3.21875 -1.234375 C 3.394531 -1.421875 3.484375 -1.695312 3.484375 -2.0625 L 3.484375 -4.078125 Z M 4.65625 -4.078125 "/></g></g></g><g fill="#000000" fill-opacity="1"><g transform="translate(307.692821, 194.306422)"><g><path d="M 1.921875 0.0625 C 1.578125 0.0625 1.242188 0.0195312 0.921875 -0.0625 C 0.597656 -0.144531 0.34375 -0.25 0.15625 -0.375 L 0.546875 -1.234375 C 0.722656 -1.117188 0.941406 -1.019531 1.203125 -0.9375 C 1.460938 -0.863281 1.71875 -0.828125 1.96875 -0.828125 C 2.46875 -0.828125 2.71875 -0.953125 2.71875 -1.203125 C 2.71875 -1.316406 2.648438 -1.398438 2.515625 -1.453125 C 2.378906 -1.503906 2.171875 -1.550781 1.890625 -1.59375 C 1.546875 -1.632812 1.265625 -1.6875 1.046875 -1.75 C 0.835938 -1.820312 0.648438 -1.941406 0.484375 -2.109375 C 0.328125 -2.273438 0.25 -2.515625 0.25 -2.828125 C 0.25 -3.085938 0.320312 -3.316406 0.46875 -3.515625 C 0.625 -3.710938 0.84375 -3.863281 1.125 -3.96875 C 1.414062 -4.082031 1.753906 -4.140625 2.140625 -4.140625 C 2.429688 -4.140625 2.71875 -4.109375 3 -4.046875 C 3.289062 -3.984375 3.53125 -3.898438 3.71875 -3.796875 L 3.3125 -2.953125 C 2.957031 -3.148438 2.566406 -3.25 2.140625 -3.25 C 1.890625 -3.25 1.695312 -3.210938 1.5625 -3.140625 C 1.4375 -3.066406 1.375 -2.976562 1.375 -2.875 C 1.375 -2.75 1.441406 -2.660156 1.578125 -2.609375 C 1.722656 -2.554688 1.941406 -2.503906 2.234375 -2.453125 C 2.566406 -2.398438 2.835938 -2.34375 3.046875 -2.28125 C 3.265625 -2.21875 3.453125 -2.101562 3.609375 -1.9375 C 3.765625 -1.769531 3.84375 -1.535156 3.84375 -1.234375 C 3.84375 -0.984375 3.765625 -0.757812 3.609375 -0.5625 C 3.460938 -0.363281 3.242188 -0.207031 2.953125 -0.09375 C 2.660156 0.0078125 2.316406 0.0625 1.921875 0.0625 Z M 1.921875 0.0625 "/></g></g></g><g fill="#000000" fill-opacity="1"><g transform="translate(311.725604, 194.306422)"><g/></g></g><g fill="#000000" fill-opacity="1"><g transform="translate(313.874902, 194.306422)"><g><path d="M 2.96875 -4.140625 C 3.34375 -4.140625 3.6875 -4.050781 4 -3.875 C 4.3125 -3.707031 4.554688 -3.460938 4.734375 -3.140625 C 4.910156 -2.828125 5 -2.460938 5 -2.046875 C 5 -1.617188 4.910156 -1.25 4.734375 -0.9375 C 4.554688 -0.625 4.3125 -0.378906 4 -0.203125 C 3.6875 -0.0234375 3.34375 0.0625 2.96875 0.0625 C 2.4375 0.0625 2.023438 -0.101562 1.734375 -0.4375 L 1.734375 1.46875 L 0.546875 1.46875 L 0.546875 -4.078125 L 1.671875 -4.078125 L 1.671875 -3.609375 C 1.972656 -3.960938 2.40625 -4.140625 2.96875 -4.140625 Z M 2.75 -0.90625 C 3.0625 -0.90625 3.3125 -1.007812 3.5 -1.21875 C 3.695312 -1.425781 3.796875 -1.703125 3.796875 -2.046875 C 3.796875 -2.390625 3.695312 -2.660156 3.5 -2.859375 C 3.3125 -3.066406 3.0625 -3.171875 2.75 -3.171875 C 2.445312 -3.171875 2.195312 -3.066406 2 -2.859375 C 1.8125 -2.660156 1.71875 -2.390625 1.71875 -2.046875 C 1.71875 -1.703125 1.8125 -1.425781 2 -1.21875 C 2.195312 -1.007812 2.445312 -0.90625 2.75 -0.90625 Z M 2.75 -0.90625 "/></g></g></g><g fill="#000000" fill-opacity="1"><g transform="translate(319.115243, 194.306422)"><g><path d="M 4.546875 -2.03125 C 4.546875 -2.007812 4.539062 -1.898438 4.53125 -1.703125 L 1.4375 -1.703125 C 1.488281 -1.453125 1.617188 -1.253906 1.828125 -1.109375 C 2.035156 -0.960938 2.296875 -0.890625 2.609375 -0.890625 C 2.816406 -0.890625 3.003906 -0.921875 3.171875 -0.984375 C 3.335938 -1.046875 3.488281 -1.144531 3.625 -1.28125 L 4.265625 -0.59375 C 3.878906 -0.15625 3.316406 0.0625 2.578125 0.0625 C 2.117188 0.0625 1.707031 -0.0234375 1.34375 -0.203125 C 0.988281 -0.390625 0.71875 -0.640625 0.53125 -0.953125 C 0.34375 -1.273438 0.25 -1.640625 0.25 -2.046875 C 0.25 -2.441406 0.34375 -2.800781 0.53125 -3.125 C 0.71875 -3.445312 0.976562 -3.695312 1.3125 -3.875 C 1.644531 -4.050781 2.015625 -4.140625 2.421875 -4.140625 C 2.816406 -4.140625 3.175781 -4.050781 3.5 -3.875 C 3.832031 -3.707031 4.085938 -3.460938 4.265625 -3.140625 C 4.453125 -2.828125 4.546875 -2.457031 4.546875 -2.03125 Z M 2.4375 -3.25 C 2.164062 -3.25 1.9375 -3.171875 1.75 -3.015625 C 1.570312 -2.867188 1.460938 -2.664062 1.421875 -2.40625 L 3.4375 -2.40625 C 3.394531 -2.65625 3.28125 -2.859375 3.09375 -3.015625 C 2.914062 -3.171875 2.695312 -3.25 2.4375 -3.25 Z M 2.4375 -3.25 "/></g></g></g><g fill="#000000" fill-opacity="1"><g transform="translate(323.907499, 194.306422)"><g><path d="M 3.1875 -0.203125 C 3.0625 -0.109375 2.914062 -0.0390625 2.75 0 C 2.582031 0.0390625 2.40625 0.0625 2.21875 0.0625 C 1.726562 0.0625 1.347656 -0.0625 1.078125 -0.3125 C 0.816406 -0.5625 0.6875 -0.925781 0.6875 -1.40625 L 0.6875 -3.078125 L 0.0625 -3.078125 L 0.0625 -4 L 0.6875 -4 L 0.6875 -4.984375 L 1.875 -4.984375 L 1.875 -4 L 2.890625 -4 L 2.890625 -3.078125 L 1.875 -3.078125 L 1.875 -1.421875 C 1.875 -1.242188 1.914062 -1.109375 2 -1.015625 C 2.09375 -0.921875 2.222656 -0.875 2.390625 -0.875 C 2.578125 -0.875 2.734375 -0.925781 2.859375 -1.03125 Z M 3.1875 -0.203125 "/></g></g></g><g fill="#000000" fill-opacity="1"><g transform="translate(327.211189, 194.306422)"><g><path d="M 0.546875 -4.078125 L 1.734375 -4.078125 L 1.734375 0 L 0.546875 0 Z M 1.140625 -4.65625 C 0.921875 -4.65625 0.742188 -4.71875 0.609375 -4.84375 C 0.472656 -4.96875 0.40625 -5.125 0.40625 -5.3125 C 0.40625 -5.5 0.472656 -5.65625 0.609375 -5.78125 C 0.742188 -5.90625 0.921875 -5.96875 1.140625 -5.96875 C 1.359375 -5.96875 1.535156 -5.90625 1.671875 -5.78125 C 1.804688 -5.664062 1.875 -5.519531 1.875 -5.34375 C 1.875 -5.144531 1.804688 -4.976562 1.671875 -4.84375 C 1.535156 -4.71875 1.359375 -4.65625 1.140625 -4.65625 Z M 1.140625 -4.65625 "/></g></g></g><g fill="#000000" fill-opacity="1"><g transform="translate(329.497196, 194.306422)"><g><path d="M 3.1875 -0.203125 C 3.0625 -0.109375 2.914062 -0.0390625 2.75 0 C 2.582031 0.0390625 2.40625 0.0625 2.21875 0.0625 C 1.726562 0.0625 1.347656 -0.0625 1.078125 -0.3125 C 0.816406 -0.5625 0.6875 -0.925781 0.6875 -1.40625 L 0.6875 -3.078125 L 0.0625 -3.078125 L 0.0625 -4 L 0.6875 -4 L 0.6875 -4.984375 L 1.875 -4.984375 L 1.875 -4 L 2.890625 -4 L 2.890625 -3.078125 L 1.875 -3.078125 L 1.875 -1.421875 C 1.875 -1.242188 1.914062 -1.109375 2 -1.015625 C 2.09375 -0.921875 2.222656 -0.875 2.390625 -0.875 C 2.578125 -0.875 2.734375 -0.925781 2.859375 -1.03125 Z M 3.1875 -0.203125 "/></g></g></g><g fill="#000000" fill-opacity="1"><g transform="translate(332.6717, 194.306422)"><g><path d="M 4.546875 -2.03125 C 4.546875 -2.007812 4.539062 -1.898438 4.53125 -1.703125 L 1.4375 -1.703125 C 1.488281 -1.453125 1.617188 -1.253906 1.828125 -1.109375 C 2.035156 -0.960938 2.296875 -0.890625 2.609375 -0.890625 C 2.816406 -0.890625 3.003906 -0.921875 3.171875 -0.984375 C 3.335938 -1.046875 3.488281 -1.144531 3.625 -1.28125 L 4.265625 -0.59375 C 3.878906 -0.15625 3.316406 0.0625 2.578125 0.0625 C 2.117188 0.0625 1.707031 -0.0234375 1.34375 -0.203125 C 0.988281 -0.390625 0.71875 -0.640625 0.53125 -0.953125 C 0.34375 -1.273438 0.25 -1.640625 0.25 -2.046875 C 0.25 -2.441406 0.34375 -2.800781 0.53125 -3.125 C 0.71875 -3.445312 0.976562 -3.695312 1.3125 -3.875 C 1.644531 -4.050781 2.015625 -4.140625 2.421875 -4.140625 C 2.816406 -4.140625 3.175781 -4.050781 3.5 -3.875 C 3.832031 -3.707031 4.085938 -3.460938 4.265625 -3.140625 C 4.453125 -2.828125 4.546875 -2.457031 4.546875 -2.03125 Z M 2.4375 -3.25 C 2.164062 -3.25 1.9375 -3.171875 1.75 -3.015625 C 1.570312 -2.867188 1.460938 -2.664062 1.421875 -2.40625 L 3.4375 -2.40625 C 3.394531 -2.65625 3.28125 -2.859375 3.09375 -3.015625 C 2.914062 -3.171875 2.695312 -3.25 2.4375 -3.25 Z M 2.4375 -3.25 "/></g></g></g><path fill="#ffffff" d="M 218.242188 248.144531 L 357.355469 248.144531 C 357.519531 248.144531 357.683594 248.175781 357.835938 248.238281 C 357.992188 248.304688 358.128906 248.394531 358.246094 248.511719 C 358.367188 248.632812 358.457031 248.769531 358.523438 248.925781 C 358.585938 249.078125 358.617188 249.238281 358.617188 249.40625 L 358.617188 357.398438 C 358.617188 357.566406 358.585938 357.726562 358.523438 357.882812 C 358.457031 358.035156 358.367188 358.171875 358.246094 358.292969 C 358.128906 358.410156 357.992188 358.5 357.835938 358.566406 C 357.683594 358.628906 357.519531 358.664062 357.355469 358.664062 L 218.242188 358.664062 C 218.074219 358.664062 217.914062 358.628906 217.757812 358.566406 C 217.601562 358.5 217.464844 358.410156 217.347656 358.292969 C 217.230469 358.171875 217.136719 358.035156 217.074219 357.882812 C 217.007812 357.726562 216.976562 357.566406 216.976562 357.398438 L 216.976562 249.40625 C 216.976562 249.238281 217.007812 249.078125 217.074219 248.925781 C 217.136719 248.769531 217.230469 248.632812 217.347656 248.511719 C 217.464844 248.394531 217.601562 248.304688 217.757812 248.238281 C 217.914062 248.175781 218.074219 248.144531 218.242188 248.144531 Z M 218.242188 248.144531 " fill-opacity="1" fill-rule="nonzero"/><path fill="#d5d1ec" d="M 218.242188 248.144531 L 357.355469 248.144531 C 357.519531 248.144531 357.683594 248.175781 357.835938 248.238281 C 357.992188 248.304688 358.128906 248.394531 358.246094 248.511719 C 358.367188 248.632812 358.457031 248.769531 358.523438 248.925781 C 358.585938 249.078125 358.617188 249.238281 358.617188 249.40625 L 358.617188 357.398438 C 358.617188 357.566406 358.585938 357.726562 358.523438 357.882812 C 358.457031 358.035156 358.367188 358.171875 358.246094 358.292969 C 358.128906 358.410156 357.992188 358.5 357.835938 358.566406 C 357.683594 358.628906 357.519531 358.664062 357.355469 358.664062 L 218.242188 358.664062 C 218.074219 358.664062 217.914062 358.628906 217.757812 358.566406 C 217.601562 358.5 217.464844 358.410156 217.347656 358.292969 C 217.230469 358.171875 217.136719 358.035156 217.074219 357.882812 C 217.007812 357.726562 216.976562 357.566406 216.976562 357.398438 L 216.976562 249.40625 C 216.976562 249.238281 217.007812 249.078125 217.074219 248.925781 C 217.136719 248.769531 217.230469 248.632812 217.347656 248.511719 C 217.464844 248.394531 217.601562 248.304688 217.757812 248.238281 C 217.914062 248.175781 218.074219 248.144531 218.242188 248.144531 Z M 218.242188 248.144531 " fill-opacity="1" fill-rule="nonzero"/><g fill="#000000" fill-opacity="1"><g transform="translate(238.34072, 306.565019)"><g><path d="M 5.125 -1.40625 L 2.0625 -1.40625 L 1.484375 0 L -0.078125 0 L 2.859375 -6.59375 L 4.359375 -6.59375 L 7.3125 0 L 5.703125 0 Z M 4.640625 -2.578125 L 3.59375 -5.09375 L 2.546875 -2.578125 Z M 4.640625 -2.578125 "/></g></g></g><g fill="#000000" fill-opacity="1"><g transform="translate(245.55493, 306.565019)"><g><path d="M 7.171875 -5.140625 C 7.804688 -5.140625 8.3125 -4.953125 8.6875 -4.578125 C 9.0625 -4.203125 9.25 -3.644531 9.25 -2.90625 L 9.25 0 L 7.765625 0 L 7.765625 -2.671875 C 7.765625 -3.078125 7.679688 -3.378906 7.515625 -3.578125 C 7.359375 -3.773438 7.125 -3.875 6.8125 -3.875 C 6.46875 -3.875 6.191406 -3.757812 5.984375 -3.53125 C 5.785156 -3.3125 5.6875 -2.984375 5.6875 -2.546875 L 5.6875 0 L 4.21875 0 L 4.21875 -2.671875 C 4.21875 -3.472656 3.898438 -3.875 3.265625 -3.875 C 2.921875 -3.875 2.644531 -3.757812 2.4375 -3.53125 C 2.238281 -3.3125 2.140625 -2.984375 2.140625 -2.546875 L 2.140625 0 L 0.671875 0 L 0.671875 -5.0625 L 2.078125 -5.0625 L 2.078125 -4.484375 C 2.265625 -4.703125 2.492188 -4.863281 2.765625 -4.96875 C 3.046875 -5.082031 3.347656 -5.140625 3.671875 -5.140625 C 4.035156 -5.140625 4.359375 -5.066406 4.640625 -4.921875 C 4.929688 -4.785156 5.164062 -4.582031 5.34375 -4.3125 C 5.550781 -4.570312 5.8125 -4.773438 6.125 -4.921875 C 6.445312 -5.066406 6.796875 -5.140625 7.171875 -5.140625 Z M 7.171875 -5.140625 "/></g></g></g><g fill="#000000" fill-opacity="1"><g transform="translate(255.434441, 306.565019)"><g><path d="M 3.671875 -5.140625 C 4.140625 -5.140625 4.566406 -5.03125 4.953125 -4.8125 C 5.347656 -4.601562 5.65625 -4.300781 5.875 -3.90625 C 6.09375 -3.507812 6.203125 -3.050781 6.203125 -2.53125 C 6.203125 -2.007812 6.09375 -1.550781 5.875 -1.15625 C 5.65625 -0.769531 5.347656 -0.46875 4.953125 -0.25 C 4.566406 -0.03125 4.140625 0.078125 3.671875 0.078125 C 2.972656 0.078125 2.441406 -0.140625 2.078125 -0.578125 L 2.078125 0 L 0.671875 0 L 0.671875 -6.984375 L 2.140625 -6.984375 L 2.140625 -4.53125 C 2.515625 -4.9375 3.023438 -5.140625 3.671875 -5.140625 Z M 3.421875 -1.125 C 3.796875 -1.125 4.101562 -1.25 4.34375 -1.5 C 4.582031 -1.757812 4.703125 -2.101562 4.703125 -2.53125 C 4.703125 -2.957031 4.582031 -3.296875 4.34375 -3.546875 C 4.101562 -3.804688 3.796875 -3.9375 3.421875 -3.9375 C 3.046875 -3.9375 2.734375 -3.804688 2.484375 -3.546875 C 2.242188 -3.296875 2.125 -2.957031 2.125 -2.53125 C 2.125 -2.101562 2.242188 -1.757812 2.484375 -1.5 C 2.734375 -1.25 3.046875 -1.125 3.421875 -1.125 Z M 3.421875 -1.125 "/></g></g></g><g fill="#000000" fill-opacity="1"><g transform="translate(261.932881, 306.565019)"><g><path d="M 0.671875 -5.0625 L 2.140625 -5.0625 L 2.140625 0 L 0.671875 0 Z M 1.40625 -5.78125 C 1.132812 -5.78125 0.914062 -5.859375 0.75 -6.015625 C 0.582031 -6.171875 0.5 -6.363281 0.5 -6.59375 C 0.5 -6.820312 0.582031 -7.015625 0.75 -7.171875 C 0.914062 -7.335938 1.132812 -7.421875 1.40625 -7.421875 C 1.675781 -7.421875 1.894531 -7.34375 2.0625 -7.1875 C 2.238281 -7.039062 2.328125 -6.851562 2.328125 -6.625 C 2.328125 -6.375 2.238281 -6.171875 2.0625 -6.015625 C 1.894531 -5.859375 1.675781 -5.78125 1.40625 -5.78125 Z M 1.40625 -5.78125 "/></g></g></g><g fill="#000000" fill-opacity="1"><g transform="translate(264.767708, 306.565019)"><g><path d="M 2.71875 -5.140625 C 3.507812 -5.140625 4.113281 -4.953125 4.53125 -4.578125 C 4.945312 -4.203125 5.15625 -3.640625 5.15625 -2.890625 L 5.15625 0 L 3.78125 0 L 3.78125 -0.625 C 3.507812 -0.15625 3 0.078125 2.25 0.078125 C 1.851562 0.078125 1.507812 0.0078125 1.21875 -0.125 C 0.9375 -0.257812 0.71875 -0.441406 0.5625 -0.671875 C 0.414062 -0.898438 0.34375 -1.160156 0.34375 -1.453125 C 0.34375 -1.929688 0.519531 -2.304688 0.875 -2.578125 C 1.226562 -2.847656 1.78125 -2.984375 2.53125 -2.984375 L 3.6875 -2.984375 C 3.6875 -3.296875 3.585938 -3.535156 3.390625 -3.703125 C 3.203125 -3.878906 2.914062 -3.96875 2.53125 -3.96875 C 2.257812 -3.96875 1.992188 -3.925781 1.734375 -3.84375 C 1.472656 -3.757812 1.25 -3.644531 1.0625 -3.5 L 0.53125 -4.53125 C 0.8125 -4.726562 1.144531 -4.878906 1.53125 -4.984375 C 1.914062 -5.085938 2.3125 -5.140625 2.71875 -5.140625 Z M 2.609375 -0.90625 C 2.859375 -0.90625 3.082031 -0.960938 3.28125 -1.078125 C 3.476562 -1.203125 3.613281 -1.378906 3.6875 -1.609375 L 3.6875 -2.125 L 2.6875 -2.125 C 2.082031 -2.125 1.78125 -1.925781 1.78125 -1.53125 C 1.78125 -1.34375 1.851562 -1.191406 2 -1.078125 C 2.144531 -0.960938 2.347656 -0.90625 2.609375 -0.90625 Z M 2.609375 -0.90625 "/></g></g></g><g fill="#000000" fill-opacity="1"><g transform="translate(270.578632, 306.565019)"><g><path d="M 3.765625 -5.140625 C 4.390625 -5.140625 4.894531 -4.953125 5.28125 -4.578125 C 5.664062 -4.203125 5.859375 -3.644531 5.859375 -2.90625 L 5.859375 0 L 4.390625 0 L 4.390625 -2.671875 C 4.390625 -3.078125 4.300781 -3.378906 4.125 -3.578125 C 3.945312 -3.773438 3.691406 -3.875 3.359375 -3.875 C 2.992188 -3.875 2.695312 -3.757812 2.46875 -3.53125 C 2.25 -3.300781 2.140625 -2.957031 2.140625 -2.5 L 2.140625 0 L 0.671875 0 L 0.671875 -5.0625 L 2.078125 -5.0625 L 2.078125 -4.46875 C 2.273438 -4.6875 2.515625 -4.851562 2.796875 -4.96875 C 3.085938 -5.082031 3.410156 -5.140625 3.765625 -5.140625 Z M 3.765625 -5.140625 "/></g></g></g><g fill="#000000" fill-opacity="1"><g transform="translate(277.143012, 306.565019)"><g><path d="M 3.125 0.078125 C 2.582031 0.078125 2.097656 -0.03125 1.671875 -0.25 C 1.242188 -0.476562 0.90625 -0.789062 0.65625 -1.1875 C 0.414062 -1.582031 0.296875 -2.03125 0.296875 -2.53125 C 0.296875 -3.03125 0.414062 -3.476562 0.65625 -3.875 C 0.90625 -4.269531 1.242188 -4.578125 1.671875 -4.796875 C 2.097656 -5.023438 2.582031 -5.140625 3.125 -5.140625 C 3.65625 -5.140625 4.117188 -5.023438 4.515625 -4.796875 C 4.921875 -4.578125 5.21875 -4.265625 5.40625 -3.859375 L 4.265625 -3.234375 C 3.992188 -3.703125 3.613281 -3.9375 3.125 -3.9375 C 2.738281 -3.9375 2.421875 -3.8125 2.171875 -3.5625 C 1.921875 -3.3125 1.796875 -2.96875 1.796875 -2.53125 C 1.796875 -2.101562 1.921875 -1.757812 2.171875 -1.5 C 2.421875 -1.25 2.738281 -1.125 3.125 -1.125 C 3.625 -1.125 4.003906 -1.359375 4.265625 -1.828125 L 5.40625 -1.203125 C 5.21875 -0.804688 4.921875 -0.492188 4.515625 -0.265625 C 4.117188 -0.0351562 3.65625 0.078125 3.125 0.078125 Z M 3.125 0.078125 "/></g></g></g><g fill="#000000" fill-opacity="1"><g transform="translate(282.64312, 306.565019)"><g><path d="M 5.640625 -2.515625 C 5.640625 -2.492188 5.628906 -2.363281 5.609375 -2.125 L 1.78125 -2.125 C 1.851562 -1.8125 2.015625 -1.5625 2.265625 -1.375 C 2.523438 -1.195312 2.847656 -1.109375 3.234375 -1.109375 C 3.492188 -1.109375 3.722656 -1.144531 3.921875 -1.21875 C 4.128906 -1.300781 4.320312 -1.425781 4.5 -1.59375 L 5.28125 -0.75 C 4.800781 -0.195312 4.101562 0.078125 3.1875 0.078125 C 2.625 0.078125 2.117188 -0.03125 1.671875 -0.25 C 1.234375 -0.476562 0.894531 -0.789062 0.65625 -1.1875 C 0.414062 -1.582031 0.296875 -2.03125 0.296875 -2.53125 C 0.296875 -3.03125 0.414062 -3.476562 0.65625 -3.875 C 0.894531 -4.269531 1.21875 -4.578125 1.625 -4.796875 C 2.039062 -5.023438 2.5 -5.140625 3 -5.140625 C 3.5 -5.140625 3.945312 -5.03125 4.34375 -4.8125 C 4.75 -4.601562 5.066406 -4.300781 5.296875 -3.90625 C 5.523438 -3.507812 5.640625 -3.046875 5.640625 -2.515625 Z M 3.015625 -4.03125 C 2.679688 -4.03125 2.398438 -3.9375 2.171875 -3.75 C 1.953125 -3.5625 1.816406 -3.304688 1.765625 -2.984375 L 4.265625 -2.984375 C 4.210938 -3.296875 4.070312 -3.546875 3.84375 -3.734375 C 3.613281 -3.929688 3.335938 -4.03125 3.015625 -4.03125 Z M 3.015625 -4.03125 "/></g></g></g><g fill="#000000" fill-opacity="1"><g transform="translate(288.585893, 306.565019)"><g/></g></g><g fill="#000000" fill-opacity="1"><g transform="translate(291.251193, 306.565019)"><g><path d="M 2.296875 -4.953125 L 3.59375 -4.953125 L 3.59375 -3.828125 L 2.328125 -3.828125 L 2.328125 0 L 0.859375 0 L 0.859375 -3.828125 L 0.078125 -3.828125 L 0.078125 -4.953125 L 0.859375 -4.953125 L 0.859375 -5.1875 C 0.859375 -5.757812 1.03125 -6.210938 1.375 -6.546875 C 1.71875 -6.890625 2.195312 -7.0625 2.8125 -7.0625 C 3.03125 -7.0625 3.238281 -7.035156 3.4375 -6.984375 C 3.632812 -6.941406 3.800781 -6.878906 3.9375 -6.796875 L 3.546875 -5.734375 C 3.378906 -5.847656 3.179688 -5.90625 2.953125 -5.90625 C 2.515625 -5.90625 2.296875 -5.660156 2.296875 -5.171875 Z M 2.296875 -4.953125 "/></g></g></g><g fill="#000000" fill-opacity="1"><g transform="translate(294.801762, 306.565019)"><g><path d="M 2.71875 -5.140625 C 3.507812 -5.140625 4.113281 -4.953125 4.53125 -4.578125 C 4.945312 -4.203125 5.15625 -3.640625 5.15625 -2.890625 L 5.15625 0 L 3.78125 0 L 3.78125 -0.625 C 3.507812 -0.15625 3 0.078125 2.25 0.078125 C 1.851562 0.078125 1.507812 0.0078125 1.21875 -0.125 C 0.9375 -0.257812 0.71875 -0.441406 0.5625 -0.671875 C 0.414062 -0.898438 0.34375 -1.160156 0.34375 -1.453125 C 0.34375 -1.929688 0.519531 -2.304688 0.875 -2.578125 C 1.226562 -2.847656 1.78125 -2.984375 2.53125 -2.984375 L 3.6875 -2.984375 C 3.6875 -3.296875 3.585938 -3.535156 3.390625 -3.703125 C 3.203125 -3.878906 2.914062 -3.96875 2.53125 -3.96875 C 2.257812 -3.96875 1.992188 -3.925781 1.734375 -3.84375 C 1.472656 -3.757812 1.25 -3.644531 1.0625 -3.5 L 0.53125 -4.53125 C 0.8125 -4.726562 1.144531 -4.878906 1.53125 -4.984375 C 1.914062 -5.085938 2.3125 -5.140625 2.71875 -5.140625 Z M 2.609375 -0.90625 C 2.859375 -0.90625 3.082031 -0.960938 3.28125 -1.078125 C 3.476562 -1.203125 3.613281 -1.378906 3.6875 -1.609375 L 3.6875 -2.125 L 2.6875 -2.125 C 2.082031 -2.125 1.78125 -1.925781 1.78125 -1.53125 C 1.78125 -1.34375 1.851562 -1.191406 2 -1.078125 C 2.144531 -0.960938 2.347656 -0.90625 2.609375 -0.90625 Z M 2.609375 -0.90625 "/></g></g></g><g fill="#000000" fill-opacity="1"><g transform="translate(300.518478, 306.565019)"><g><path d="M 5.703125 -5.0625 L 3.578125 0 L 2.046875 0 L -0.078125 -5.0625 L 1.4375 -5.0625 L 2.84375 -1.625 L 4.296875 -5.0625 Z M 5.703125 -5.0625 "/></g></g></g><g fill="#000000" fill-opacity="1"><g transform="translate(306.009147, 306.565019)"><g><path d="M 3.09375 0.078125 C 2.5625 0.078125 2.082031 -0.03125 1.65625 -0.25 C 1.226562 -0.476562 0.894531 -0.789062 0.65625 -1.1875 C 0.414062 -1.582031 0.296875 -2.03125 0.296875 -2.53125 C 0.296875 -3.03125 0.414062 -3.476562 0.65625 -3.875 C 0.894531 -4.269531 1.226562 -4.578125 1.65625 -4.796875 C 2.082031 -5.023438 2.5625 -5.140625 3.09375 -5.140625 C 3.625 -5.140625 4.097656 -5.023438 4.515625 -4.796875 C 4.941406 -4.578125 5.273438 -4.269531 5.515625 -3.875 C 5.753906 -3.476562 5.875 -3.03125 5.875 -2.53125 C 5.875 -2.03125 5.753906 -1.582031 5.515625 -1.1875 C 5.273438 -0.789062 4.941406 -0.476562 4.515625 -0.25 C 4.097656 -0.03125 3.625 0.078125 3.09375 0.078125 Z M 3.09375 -1.125 C 3.46875 -1.125 3.773438 -1.25 4.015625 -1.5 C 4.253906 -1.757812 4.375 -2.101562 4.375 -2.53125 C 4.375 -2.957031 4.253906 -3.296875 4.015625 -3.546875 C 3.773438 -3.804688 3.46875 -3.9375 3.09375 -3.9375 C 2.71875 -3.9375 2.40625 -3.804688 2.15625 -3.546875 C 1.914062 -3.296875 1.796875 -2.957031 1.796875 -2.53125 C 1.796875 -2.101562 1.914062 -1.757812 2.15625 -1.5 C 2.40625 -1.25 2.71875 -1.125 3.09375 -1.125 Z M 3.09375 -1.125 "/></g></g></g><g fill="#000000" fill-opacity="1"><g transform="translate(312.177953, 306.565019)"><g><path d="M 2.078125 -4.40625 C 2.253906 -4.644531 2.488281 -4.828125 2.78125 -4.953125 C 3.082031 -5.078125 3.429688 -5.140625 3.828125 -5.140625 L 3.828125 -3.78125 C 3.660156 -3.800781 3.550781 -3.8125 3.5 -3.8125 C 3.070312 -3.8125 2.738281 -3.691406 2.5 -3.453125 C 2.257812 -3.210938 2.140625 -2.859375 2.140625 -2.390625 L 2.140625 0 L 0.671875 0 L 0.671875 -5.0625 L 2.078125 -5.0625 Z M 2.078125 -4.40625 "/></g></g></g><g fill="#000000" fill-opacity="1"><g transform="translate(316.171177, 306.565019)"><g><path d="M 2.71875 -5.140625 C 3.507812 -5.140625 4.113281 -4.953125 4.53125 -4.578125 C 4.945312 -4.203125 5.15625 -3.640625 5.15625 -2.890625 L 5.15625 0 L 3.78125 0 L 3.78125 -0.625 C 3.507812 -0.15625 3 0.078125 2.25 0.078125 C 1.851562 0.078125 1.507812 0.0078125 1.21875 -0.125 C 0.9375 -0.257812 0.71875 -0.441406 0.5625 -0.671875 C 0.414062 -0.898438 0.34375 -1.160156 0.34375 -1.453125 C 0.34375 -1.929688 0.519531 -2.304688 0.875 -2.578125 C 1.226562 -2.847656 1.78125 -2.984375 2.53125 -2.984375 L 3.6875 -2.984375 C 3.6875 -3.296875 3.585938 -3.535156 3.390625 -3.703125 C 3.203125 -3.878906 2.914062 -3.96875 2.53125 -3.96875 C 2.257812 -3.96875 1.992188 -3.925781 1.734375 -3.84375 C 1.472656 -3.757812 1.25 -3.644531 1.0625 -3.5 L 0.53125 -4.53125 C 0.8125 -4.726562 1.144531 -4.878906 1.53125 -4.984375 C 1.914062 -5.085938 2.3125 -5.140625 2.71875 -5.140625 Z M 2.609375 -0.90625 C 2.859375 -0.90625 3.082031 -0.960938 3.28125 -1.078125 C 3.476562 -1.203125 3.613281 -1.378906 3.6875 -1.609375 L 3.6875 -2.125 L 2.6875 -2.125 C 2.082031 -2.125 1.78125 -1.925781 1.78125 -1.53125 C 1.78125 -1.34375 1.851562 -1.191406 2 -1.078125 C 2.144531 -0.960938 2.347656 -0.90625 2.609375 -0.90625 Z M 2.609375 -0.90625 "/></g></g></g><g fill="#000000" fill-opacity="1"><g transform="translate(321.982096, 306.565019)"><g><path d="M 3.671875 -5.140625 C 4.140625 -5.140625 4.566406 -5.03125 4.953125 -4.8125 C 5.347656 -4.601562 5.65625 -4.300781 5.875 -3.90625 C 6.09375 -3.507812 6.203125 -3.050781 6.203125 -2.53125 C 6.203125 -2.007812 6.09375 -1.550781 5.875 -1.15625 C 5.65625 -0.769531 5.347656 -0.46875 4.953125 -0.25 C 4.566406 -0.03125 4.140625 0.078125 3.671875 0.078125 C 2.972656 0.078125 2.441406 -0.140625 2.078125 -0.578125 L 2.078125 0 L 0.671875 0 L 0.671875 -6.984375 L 2.140625 -6.984375 L 2.140625 -4.53125 C 2.515625 -4.9375 3.023438 -5.140625 3.671875 -5.140625 Z M 3.421875 -1.125 C 3.796875 -1.125 4.101562 -1.25 4.34375 -1.5 C 4.582031 -1.757812 4.703125 -2.101562 4.703125 -2.53125 C 4.703125 -2.957031 4.582031 -3.296875 4.34375 -3.546875 C 4.101562 -3.804688 3.796875 -3.9375 3.421875 -3.9375 C 3.046875 -3.9375 2.734375 -3.804688 2.484375 -3.546875 C 2.242188 -3.296875 2.125 -2.957031 2.125 -2.53125 C 2.125 -2.101562 2.242188 -1.757812 2.484375 -1.5 C 2.734375 -1.25 3.046875 -1.125 3.421875 -1.125 Z M 3.421875 -1.125 "/></g></g></g><g fill="#000000" fill-opacity="1"><g transform="translate(328.480536, 306.565019)"><g><path d="M 0.671875 -6.984375 L 2.140625 -6.984375 L 2.140625 0 L 0.671875 0 Z M 0.671875 -6.984375 "/></g></g></g><g fill="#000000" fill-opacity="1"><g transform="translate(331.315358, 306.565019)"><g><path d="M 5.640625 -2.515625 C 5.640625 -2.492188 5.628906 -2.363281 5.609375 -2.125 L 1.78125 -2.125 C 1.851562 -1.8125 2.015625 -1.5625 2.265625 -1.375 C 2.523438 -1.195312 2.847656 -1.109375 3.234375 -1.109375 C 3.492188 -1.109375 3.722656 -1.144531 3.921875 -1.21875 C 4.128906 -1.300781 4.320312 -1.425781 4.5 -1.59375 L 5.28125 -0.75 C 4.800781 -0.195312 4.101562 0.078125 3.1875 0.078125 C 2.625 0.078125 2.117188 -0.03125 1.671875 -0.25 C 1.234375 -0.476562 0.894531 -0.789062 0.65625 -1.1875 C 0.414062 -1.582031 0.296875 -2.03125 0.296875 -2.53125 C 0.296875 -3.03125 0.414062 -3.476562 0.65625 -3.875 C 0.894531 -4.269531 1.21875 -4.578125 1.625 -4.796875 C 2.039062 -5.023438 2.5 -5.140625 3 -5.140625 C 3.5 -5.140625 3.945312 -5.03125 4.34375 -4.8125 C 4.75 -4.601562 5.066406 -4.300781 5.296875 -3.90625 C 5.523438 -3.507812 5.640625 -3.046875 5.640625 -2.515625 Z M 3.015625 -4.03125 C 2.679688 -4.03125 2.398438 -3.9375 2.171875 -3.75 C 1.953125 -3.5625 1.816406 -3.304688 1.765625 -2.984375 L 4.265625 -2.984375 C 4.210938 -3.296875 4.070312 -3.546875 3.84375 -3.734375 C 3.613281 -3.929688 3.335938 -4.03125 3.015625 -4.03125 Z M 3.015625 -4.03125 "/></g></g></g></svg>