<svg xmlns="http://www.w3.org/2000/svg" xmlns:xlink="http://www.w3.org/1999/xlink" width="483" zoomAndPan="magnify" viewBox="0 0 362.25 362.249992" height="483" preserveAspectRatio="xMidYMid meet" version="1.0"><defs><g/><clipPath id="3ca40ad933"><path d="M 0 0 L 361.5 0 L 361.5 361.5 L 0 361.5 Z M 0 0 " clip-rule="nonzero"/></clipPath></defs><g clip-path="url(#3ca40ad933)"><path fill="#ffffff" d="M 0 0 L 361.5 0 L 361.5 361.5 L 0 361.5 Z M 0 0 " fill-opacity="1" fill-rule="nonzero"/></g><path fill="#ffffff" d="M 4.425781 2.976562 L 357.582031 2.976562 C 357.75 2.976562 357.910156 3.007812 358.066406 3.074219 C 358.21875 3.136719 358.359375 3.230469 358.476562 3.347656 C 358.59375 3.464844 358.6875 3.601562 358.75 3.757812 C 358.816406 3.914062 358.847656 4.074219 358.847656 4.242188 L 358.847656 153.515625 C 358.847656 153.683594 358.8125 153.84375 358.75 154 C 358.6875 154.15625 358.59375 154.292969 358.476562 154.410156 C 358.359375 154.527344 358.21875 154.621094 358.066406 154.683594 C 357.910156 154.75 357.75 154.78125 357.582031 154.78125 L 4.425781 154.78125 C 4.257812 154.78125 4.097656 154.75 3.941406 154.683594 C 3.785156 154.621094 3.648438 154.527344 3.53125 154.410156 C 3.414062 154.292969 3.320312 154.15625 3.257812 154 C 3.191406 153.84375 3.160156 153.683594 3.160156 153.515625 L 3.160156 4.242188 C 3.160156 4.074219 3.191406 3.914062 3.257812 3.757812 C 3.320312 3.601562 3.414062 3.464844 3.53125 3.347656 C 3.648438 3.230469 3.785156 3.136719 3.941406 3.074219 C 4.097656 3.007812 4.257812 2.976562 4.425781 2.976562 Z M 4.425781 2.976562 " fill-opacity="1" fill-rule="nonzero"/><path fill="#c3d8ef" d="M 4.425781 2.976562 L 357.582031 2.976562 C 357.75 2.976562 357.910156 3.007812 358.066406 3.074219 C 358.21875 3.136719 358.359375 3.230469 358.476562 3.347656 C 358.59375 3.464844 358.6875 3.601562 358.75 3.757812 C 358.816406 3.914062 358.847656 4.074219 358.847656 4.242188 L 358.847656 153.515625 C 358.847656 153.683594 358.8125 153.84375 358.75 154 C 358.6875 154.15625 358.59375 154.292969 358.476562 154.410156 C 358.359375 154.527344 358.21875 154.621094 358.066406 154.683594 C 357.910156 154.75 357.75 154.78125 357.582031 154.78125 L 4.425781 154.78125 C 4.257812 154.78125 4.097656 154.75 3.941406 154.683594 C 3.785156 154.621094 3.648438 154.527344 3.53125 154.410156 C 3.414062 154.292969 3.320312 154.15625 3.257812 154 C 3.191406 153.84375 3.160156 153.683594 3.160156 153.515625 L 3.160156 4.242188 C 3.160156 4.074219 3.191406 3.914062 3.257812 3.757812 C 3.320312 3.601562 3.414062 3.464844 3.53125 3.347656 C 3.648438 3.230469 3.785156 3.136719 3.941406 3.074219 C 4.097656 3.007812 4.257812 2.976562 4.425781 2.976562 Z M 4.425781 2.976562 " fill-opacity="1" fill-rule="nonzero"/><g fill="#000000" fill-opacity="1"><g transform="translate(104.696273, 83.62234)"><g><path d="M 4.15625 0.15625 C 3.425781 0.15625 2.71875 0.0546875 2.03125 -0.140625 C 1.34375 -0.335938 0.789062 -0.597656 0.375 -0.921875 L 1.109375 -2.53125 C 1.503906 -2.238281 1.972656 -2.003906 2.515625 -1.828125 C 3.066406 -1.648438 3.617188 -1.5625 4.171875 -1.5625 C 4.785156 -1.5625 5.238281 -1.648438 5.53125 -1.828125 C 5.820312 -2.015625 5.96875 -2.257812 5.96875 -2.5625 C 5.96875 -2.78125 5.878906 -2.960938 5.703125 -3.109375 C 5.535156 -3.253906 5.316406 -3.367188 5.046875 -3.453125 C 4.773438 -3.546875 4.40625 -3.648438 3.9375 -3.765625 C 3.226562 -3.929688 2.648438 -4.097656 2.203125 -4.265625 C 1.753906 -4.429688 1.367188 -4.695312 1.046875 -5.0625 C 0.722656 -5.4375 0.5625 -5.9375 0.5625 -6.5625 C 0.5625 -7.101562 0.707031 -7.59375 1 -8.03125 C 1.289062 -8.46875 1.726562 -8.8125 2.3125 -9.0625 C 2.90625 -9.320312 3.625 -9.453125 4.46875 -9.453125 C 5.0625 -9.453125 5.640625 -9.378906 6.203125 -9.234375 C 6.773438 -9.097656 7.273438 -8.898438 7.703125 -8.640625 L 7.046875 -7 C 6.179688 -7.488281 5.320312 -7.734375 4.46875 -7.734375 C 3.863281 -7.734375 3.414062 -7.632812 3.125 -7.4375 C 2.84375 -7.238281 2.703125 -6.984375 2.703125 -6.671875 C 2.703125 -6.347656 2.863281 -6.109375 3.1875 -5.953125 C 3.519531 -5.796875 4.03125 -5.644531 4.71875 -5.5 C 5.425781 -5.332031 6.003906 -5.160156 6.453125 -4.984375 C 6.898438 -4.816406 7.285156 -4.550781 7.609375 -4.1875 C 7.941406 -3.832031 8.109375 -3.34375 8.109375 -2.71875 C 8.109375 -2.1875 7.957031 -1.703125 7.65625 -1.265625 C 7.363281 -0.828125 6.921875 -0.476562 6.328125 -0.21875 C 5.734375 0.03125 5.007812 0.15625 4.15625 0.15625 Z M 4.15625 0.15625 "/></g></g></g><g fill="#000000" fill-opacity="1"><g transform="translate(113.170229, 83.62234)"><g><path d="M 0.953125 -7.140625 L 3.03125 -7.140625 L 3.03125 0 L 0.953125 0 Z M 2 -8.140625 C 1.613281 -8.140625 1.300781 -8.25 1.0625 -8.46875 C 0.832031 -8.695312 0.71875 -8.972656 0.71875 -9.296875 C 0.71875 -9.617188 0.832031 -9.890625 1.0625 -10.109375 C 1.300781 -10.335938 1.613281 -10.453125 2 -10.453125 C 2.382812 -10.453125 2.691406 -10.34375 2.921875 -10.125 C 3.160156 -9.914062 3.28125 -9.65625 3.28125 -9.34375 C 3.28125 -8.988281 3.160156 -8.695312 2.921875 -8.46875 C 2.691406 -8.25 2.382812 -8.140625 2 -8.140625 Z M 2 -8.140625 "/></g></g></g><g fill="#000000" fill-opacity="1"><g transform="translate(117.168128, 83.62234)"><g><path d="M 10.109375 -7.25 C 11.003906 -7.25 11.710938 -6.984375 12.234375 -6.453125 C 12.765625 -5.929688 13.03125 -5.144531 13.03125 -4.09375 L 13.03125 0 L 10.953125 0 L 10.953125 -3.765625 C 10.953125 -4.335938 10.832031 -4.757812 10.59375 -5.03125 C 10.363281 -5.3125 10.035156 -5.453125 9.609375 -5.453125 C 9.117188 -5.453125 8.726562 -5.296875 8.4375 -4.984375 C 8.15625 -4.671875 8.015625 -4.207031 8.015625 -3.59375 L 8.015625 0 L 5.953125 0 L 5.953125 -3.765625 C 5.953125 -4.890625 5.5 -5.453125 4.59375 -5.453125 C 4.113281 -5.453125 3.734375 -5.296875 3.453125 -4.984375 C 3.171875 -4.671875 3.03125 -4.207031 3.03125 -3.59375 L 3.03125 0 L 0.953125 0 L 0.953125 -7.140625 L 2.9375 -7.140625 L 2.9375 -6.328125 C 3.195312 -6.628906 3.519531 -6.859375 3.90625 -7.015625 C 4.289062 -7.171875 4.71875 -7.25 5.1875 -7.25 C 5.6875 -7.25 6.140625 -7.148438 6.546875 -6.953125 C 6.953125 -6.753906 7.28125 -6.460938 7.53125 -6.078125 C 7.820312 -6.453125 8.191406 -6.738281 8.640625 -6.9375 C 9.085938 -7.144531 9.578125 -7.25 10.109375 -7.25 Z M 10.109375 -7.25 "/></g></g></g><g fill="#000000" fill-opacity="1"><g transform="translate(131.101012, 83.62234)"><g><path d="M 5.1875 -7.25 C 5.84375 -7.25 6.441406 -7.09375 6.984375 -6.78125 C 7.535156 -6.476562 7.960938 -6.050781 8.265625 -5.5 C 8.578125 -4.945312 8.734375 -4.304688 8.734375 -3.578125 C 8.734375 -2.835938 8.578125 -2.191406 8.265625 -1.640625 C 7.960938 -1.085938 7.535156 -0.65625 6.984375 -0.34375 C 6.441406 -0.0390625 5.84375 0.109375 5.1875 0.109375 C 4.269531 0.109375 3.550781 -0.175781 3.03125 -0.75 L 3.03125 2.578125 L 0.953125 2.578125 L 0.953125 -7.140625 L 2.9375 -7.140625 L 2.9375 -6.328125 C 3.445312 -6.941406 4.195312 -7.25 5.1875 -7.25 Z M 4.828125 -1.59375 C 5.359375 -1.59375 5.789062 -1.769531 6.125 -2.125 C 6.46875 -2.488281 6.640625 -2.972656 6.640625 -3.578125 C 6.640625 -4.171875 6.46875 -4.644531 6.125 -5 C 5.789062 -5.363281 5.359375 -5.546875 4.828125 -5.546875 C 4.296875 -5.546875 3.859375 -5.363281 3.515625 -5 C 3.171875 -4.644531 3 -4.171875 3 -3.578125 C 3 -2.972656 3.171875 -2.488281 3.515625 -2.125 C 3.859375 -1.769531 4.296875 -1.59375 4.828125 -1.59375 Z M 4.828125 -1.59375 "/></g></g></g><g fill="#000000" fill-opacity="1"><g transform="translate(140.265636, 83.62234)"><g><path d="M 0.953125 -9.859375 L 3.03125 -9.859375 L 3.03125 0 L 0.953125 0 Z M 0.953125 -9.859375 "/></g></g></g><g fill="#000000" fill-opacity="1"><g transform="translate(144.263535, 83.62234)"><g><path d="M 0.953125 -7.140625 L 3.03125 -7.140625 L 3.03125 0 L 0.953125 0 Z M 2 -8.140625 C 1.613281 -8.140625 1.300781 -8.25 1.0625 -8.46875 C 0.832031 -8.695312 0.71875 -8.972656 0.71875 -9.296875 C 0.71875 -9.617188 0.832031 -9.890625 1.0625 -10.109375 C 1.300781 -10.335938 1.613281 -10.453125 2 -10.453125 C 2.382812 -10.453125 2.691406 -10.34375 2.921875 -10.125 C 3.160156 -9.914062 3.28125 -9.65625 3.28125 -9.34375 C 3.28125 -8.988281 3.160156 -8.695312 2.921875 -8.46875 C 2.691406 -8.25 2.382812 -8.140625 2 -8.140625 Z M 2 -8.140625 "/></g></g></g><g fill="#000000" fill-opacity="1"><g transform="translate(148.261435, 83.62234)"><g><path d="M 4.40625 0.109375 C 3.644531 0.109375 2.960938 -0.046875 2.359375 -0.359375 C 1.753906 -0.679688 1.28125 -1.117188 0.9375 -1.671875 C 0.59375 -2.234375 0.421875 -2.867188 0.421875 -3.578125 C 0.421875 -4.285156 0.59375 -4.914062 0.9375 -5.46875 C 1.28125 -6.03125 1.753906 -6.46875 2.359375 -6.78125 C 2.960938 -7.09375 3.644531 -7.25 4.40625 -7.25 C 5.15625 -7.25 5.8125 -7.09375 6.375 -6.78125 C 6.9375 -6.46875 7.347656 -6.019531 7.609375 -5.4375 L 6 -4.5625 C 5.632812 -5.21875 5.097656 -5.546875 4.390625 -5.546875 C 3.859375 -5.546875 3.414062 -5.367188 3.0625 -5.015625 C 2.707031 -4.660156 2.53125 -4.179688 2.53125 -3.578125 C 2.53125 -2.960938 2.707031 -2.476562 3.0625 -2.125 C 3.414062 -1.769531 3.859375 -1.59375 4.390625 -1.59375 C 5.097656 -1.59375 5.632812 -1.921875 6 -2.578125 L 7.609375 -1.703125 C 7.347656 -1.128906 6.9375 -0.679688 6.375 -0.359375 C 5.8125 -0.046875 5.15625 0.109375 4.40625 0.109375 Z M 4.40625 0.109375 "/></g></g></g><g fill="#000000" fill-opacity="1"><g transform="translate(156.111135, 83.62234)"><g><path d="M 0.953125 -7.140625 L 3.03125 -7.140625 L 3.03125 0 L 0.953125 0 Z M 2 -8.140625 C 1.613281 -8.140625 1.300781 -8.25 1.0625 -8.46875 C 0.832031 -8.695312 0.71875 -8.972656 0.71875 -9.296875 C 0.71875 -9.617188 0.832031 -9.890625 1.0625 -10.109375 C 1.300781 -10.335938 1.613281 -10.453125 2 -10.453125 C 2.382812 -10.453125 2.691406 -10.34375 2.921875 -10.125 C 3.160156 -9.914062 3.28125 -9.65625 3.28125 -9.34375 C 3.28125 -8.988281 3.160156 -8.695312 2.921875 -8.46875 C 2.691406 -8.25 2.382812 -8.140625 2 -8.140625 Z M 2 -8.140625 "/></g></g></g><g fill="#000000" fill-opacity="1"><g transform="translate(160.109035, 83.62234)"><g><path d="M 5.5625 -0.34375 C 5.363281 -0.195312 5.113281 -0.0820312 4.8125 0 C 4.519531 0.0703125 4.207031 0.109375 3.875 0.109375 C 3.03125 0.109375 2.375 -0.109375 1.90625 -0.546875 C 1.4375 -0.984375 1.203125 -1.617188 1.203125 -2.453125 L 1.203125 -5.390625 L 0.109375 -5.390625 L 0.109375 -6.984375 L 1.203125 -6.984375 L 1.203125 -8.71875 L 3.28125 -8.71875 L 3.28125 -6.984375 L 5.0625 -6.984375 L 5.0625 -5.390625 L 3.28125 -5.390625 L 3.28125 -2.484375 C 3.28125 -2.179688 3.359375 -1.945312 3.515625 -1.78125 C 3.671875 -1.625 3.890625 -1.546875 4.171875 -1.546875 C 4.492188 -1.546875 4.769531 -1.632812 5 -1.8125 Z M 5.5625 -0.34375 "/></g></g></g><g fill="#000000" fill-opacity="1"><g transform="translate(165.660934, 83.62234)"><g><path d="M 7.953125 -3.546875 C 7.953125 -3.515625 7.941406 -3.328125 7.921875 -2.984375 L 2.515625 -2.984375 C 2.609375 -2.546875 2.835938 -2.195312 3.203125 -1.9375 C 3.566406 -1.675781 4.019531 -1.546875 4.5625 -1.546875 C 4.925781 -1.546875 5.253906 -1.601562 5.546875 -1.71875 C 5.835938 -1.832031 6.101562 -2.007812 6.34375 -2.25 L 7.453125 -1.046875 C 6.773438 -0.273438 5.789062 0.109375 4.5 0.109375 C 3.695312 0.109375 2.984375 -0.046875 2.359375 -0.359375 C 1.742188 -0.679688 1.265625 -1.117188 0.921875 -1.671875 C 0.585938 -2.234375 0.421875 -2.867188 0.421875 -3.578125 C 0.421875 -4.273438 0.585938 -4.90625 0.921875 -5.46875 C 1.253906 -6.03125 1.707031 -6.46875 2.28125 -6.78125 C 2.863281 -7.09375 3.515625 -7.25 4.234375 -7.25 C 4.929688 -7.25 5.5625 -7.097656 6.125 -6.796875 C 6.695312 -6.492188 7.144531 -6.0625 7.46875 -5.5 C 7.789062 -4.9375 7.953125 -4.285156 7.953125 -3.546875 Z M 4.25 -5.6875 C 3.78125 -5.6875 3.382812 -5.550781 3.0625 -5.28125 C 2.75 -5.019531 2.554688 -4.660156 2.484375 -4.203125 L 6 -4.203125 C 5.925781 -4.648438 5.726562 -5.007812 5.40625 -5.28125 C 5.09375 -5.550781 4.707031 -5.6875 4.25 -5.6875 Z M 4.78125 -9.96875 L 7.015625 -9.96875 L 4.609375 -8.0625 L 3 -8.0625 Z M 4.78125 -9.96875 "/></g></g></g><g fill="#000000" fill-opacity="1"><g transform="translate(174.041913, 83.62234)"><g/></g></g><g fill="#000000" fill-opacity="1"><g transform="translate(177.800737, 83.62234)"><g><path d="M 8.234375 -9.859375 L 8.234375 0 L 6.25 0 L 6.25 -0.828125 C 5.738281 -0.203125 5 0.109375 4.03125 0.109375 C 3.351562 0.109375 2.738281 -0.0390625 2.1875 -0.34375 C 1.644531 -0.644531 1.21875 -1.070312 0.90625 -1.625 C 0.601562 -2.1875 0.453125 -2.835938 0.453125 -3.578125 C 0.453125 -4.304688 0.601562 -4.945312 0.90625 -5.5 C 1.21875 -6.0625 1.644531 -6.492188 2.1875 -6.796875 C 2.738281 -7.097656 3.351562 -7.25 4.03125 -7.25 C 4.9375 -7.25 5.644531 -6.960938 6.15625 -6.390625 L 6.15625 -9.859375 Z M 4.390625 -1.59375 C 4.910156 -1.59375 5.34375 -1.769531 5.6875 -2.125 C 6.03125 -2.488281 6.203125 -2.972656 6.203125 -3.578125 C 6.203125 -4.171875 6.03125 -4.644531 5.6875 -5 C 5.34375 -5.363281 4.910156 -5.546875 4.390625 -5.546875 C 3.859375 -5.546875 3.414062 -5.363281 3.0625 -5 C 2.71875 -4.644531 2.546875 -4.171875 2.546875 -3.578125 C 2.546875 -2.972656 2.71875 -2.488281 3.0625 -2.125 C 3.414062 -1.769531 3.859375 -1.59375 4.390625 -1.59375 Z M 4.390625 -1.59375 "/></g></g></g><g fill="#000000" fill-opacity="1"><g transform="translate(186.991925, 83.62234)"><g><path d="M 7.953125 -3.546875 C 7.953125 -3.515625 7.941406 -3.328125 7.921875 -2.984375 L 2.515625 -2.984375 C 2.609375 -2.546875 2.835938 -2.195312 3.203125 -1.9375 C 3.566406 -1.675781 4.019531 -1.546875 4.5625 -1.546875 C 4.925781 -1.546875 5.253906 -1.601562 5.546875 -1.71875 C 5.835938 -1.832031 6.101562 -2.007812 6.34375 -2.25 L 7.453125 -1.046875 C 6.773438 -0.273438 5.789062 0.109375 4.5 0.109375 C 3.695312 0.109375 2.984375 -0.046875 2.359375 -0.359375 C 1.742188 -0.679688 1.265625 -1.117188 0.921875 -1.671875 C 0.585938 -2.234375 0.421875 -2.867188 0.421875 -3.578125 C 0.421875 -4.273438 0.585938 -4.90625 0.921875 -5.46875 C 1.253906 -6.03125 1.707031 -6.46875 2.28125 -6.78125 C 2.863281 -7.09375 3.515625 -7.25 4.234375 -7.25 C 4.929688 -7.25 5.5625 -7.097656 6.125 -6.796875 C 6.695312 -6.492188 7.144531 -6.0625 7.46875 -5.5 C 7.789062 -4.9375 7.953125 -4.285156 7.953125 -3.546875 Z M 4.25 -5.6875 C 3.78125 -5.6875 3.382812 -5.550781 3.0625 -5.28125 C 2.75 -5.019531 2.554688 -4.660156 2.484375 -4.203125 L 6 -4.203125 C 5.925781 -4.648438 5.726562 -5.007812 5.40625 -5.28125 C 5.09375 -5.550781 4.707031 -5.6875 4.25 -5.6875 Z M 4.25 -5.6875 "/></g></g></g><g fill="#000000" fill-opacity="1"><g transform="translate(195.372909, 83.62234)"><g><path d="M 3.359375 0.109375 C 2.765625 0.109375 2.179688 0.0351562 1.609375 -0.109375 C 1.046875 -0.253906 0.597656 -0.441406 0.265625 -0.671875 L 0.953125 -2.15625 C 1.273438 -1.945312 1.660156 -1.78125 2.109375 -1.65625 C 2.566406 -1.53125 3.007812 -1.46875 3.4375 -1.46875 C 4.3125 -1.46875 4.75 -1.679688 4.75 -2.109375 C 4.75 -2.316406 4.628906 -2.460938 4.390625 -2.546875 C 4.148438 -2.640625 3.785156 -2.71875 3.296875 -2.78125 C 2.710938 -2.863281 2.226562 -2.960938 1.84375 -3.078125 C 1.46875 -3.191406 1.140625 -3.394531 0.859375 -3.6875 C 0.578125 -3.976562 0.4375 -4.394531 0.4375 -4.9375 C 0.4375 -5.394531 0.566406 -5.796875 0.828125 -6.140625 C 1.085938 -6.492188 1.46875 -6.765625 1.96875 -6.953125 C 2.46875 -7.148438 3.0625 -7.25 3.75 -7.25 C 4.25 -7.25 4.75 -7.191406 5.25 -7.078125 C 5.75 -6.972656 6.164062 -6.820312 6.5 -6.625 L 5.796875 -5.15625 C 5.171875 -5.507812 4.488281 -5.6875 3.75 -5.6875 C 3.300781 -5.6875 2.96875 -5.625 2.75 -5.5 C 2.53125 -5.375 2.421875 -5.210938 2.421875 -5.015625 C 2.421875 -4.796875 2.539062 -4.640625 2.78125 -4.546875 C 3.019531 -4.460938 3.398438 -4.378906 3.921875 -4.296875 C 4.503906 -4.203125 4.976562 -4.097656 5.34375 -3.984375 C 5.71875 -3.878906 6.039062 -3.679688 6.3125 -3.390625 C 6.59375 -3.097656 6.734375 -2.691406 6.734375 -2.171875 C 6.734375 -1.722656 6.597656 -1.328125 6.328125 -0.984375 C 6.066406 -0.640625 5.679688 -0.367188 5.171875 -0.171875 C 4.660156 0.015625 4.054688 0.109375 3.359375 0.109375 Z M 3.359375 0.109375 "/></g></g></g><g fill="#000000" fill-opacity="1"><g transform="translate(202.425685, 83.62234)"><g/></g></g><g fill="#000000" fill-opacity="1"><g transform="translate(206.184508, 83.62234)"><g><path d="M 3.84375 -7.25 C 4.945312 -7.25 5.796875 -6.984375 6.390625 -6.453125 C 6.984375 -5.929688 7.28125 -5.140625 7.28125 -4.078125 L 7.28125 0 L 5.34375 0 L 5.34375 -0.890625 C 4.945312 -0.222656 4.21875 0.109375 3.15625 0.109375 C 2.613281 0.109375 2.140625 0.015625 1.734375 -0.171875 C 1.328125 -0.359375 1.015625 -0.613281 0.796875 -0.9375 C 0.585938 -1.269531 0.484375 -1.644531 0.484375 -2.0625 C 0.484375 -2.726562 0.734375 -3.25 1.234375 -3.625 C 1.742188 -4.007812 2.519531 -4.203125 3.5625 -4.203125 L 5.203125 -4.203125 C 5.203125 -4.648438 5.066406 -4.992188 4.796875 -5.234375 C 4.523438 -5.484375 4.113281 -5.609375 3.5625 -5.609375 C 3.175781 -5.609375 2.800781 -5.546875 2.4375 -5.421875 C 2.070312 -5.304688 1.757812 -5.144531 1.5 -4.9375 L 0.75 -6.390625 C 1.144531 -6.660156 1.613281 -6.867188 2.15625 -7.015625 C 2.695312 -7.171875 3.257812 -7.25 3.84375 -7.25 Z M 3.671875 -1.28125 C 4.023438 -1.28125 4.335938 -1.363281 4.609375 -1.53125 C 4.890625 -1.695312 5.085938 -1.941406 5.203125 -2.265625 L 5.203125 -2.984375 L 3.78125 -2.984375 C 2.9375 -2.984375 2.515625 -2.707031 2.515625 -2.15625 C 2.515625 -1.882812 2.617188 -1.671875 2.828125 -1.515625 C 3.035156 -1.359375 3.316406 -1.28125 3.671875 -1.28125 Z M 3.671875 -1.28125 "/></g></g></g><g fill="#000000" fill-opacity="1"><g transform="translate(214.37954, 83.62234)"><g><path d="M 2.9375 -6.203125 C 3.1875 -6.546875 3.519531 -6.804688 3.9375 -6.984375 C 4.351562 -7.160156 4.835938 -7.25 5.390625 -7.25 L 5.390625 -5.34375 C 5.160156 -5.351562 5.003906 -5.359375 4.921875 -5.359375 C 4.328125 -5.359375 3.863281 -5.191406 3.53125 -4.859375 C 3.195312 -4.535156 3.03125 -4.039062 3.03125 -3.375 L 3.03125 0 L 0.953125 0 L 0.953125 -7.140625 L 2.9375 -7.140625 Z M 2.9375 -6.203125 "/></g></g></g><g fill="#000000" fill-opacity="1"><g transform="translate(220.30334, 83.62234)"><g><path d="M 5.5625 -0.34375 C 5.363281 -0.195312 5.113281 -0.0820312 4.8125 0 C 4.519531 0.0703125 4.207031 0.109375 3.875 0.109375 C 3.03125 0.109375 2.375 -0.109375 1.90625 -0.546875 C 1.4375 -0.984375 1.203125 -1.617188 1.203125 -2.453125 L 1.203125 -5.390625 L 0.109375 -5.390625 L 0.109375 -6.984375 L 1.203125 -6.984375 L 1.203125 -8.71875 L 3.28125 -8.71875 L 3.28125 -6.984375 L 5.0625 -6.984375 L 5.0625 -5.390625 L 3.28125 -5.390625 L 3.28125 -2.484375 C 3.28125 -2.179688 3.359375 -1.945312 3.515625 -1.78125 C 3.671875 -1.625 3.890625 -1.546875 4.171875 -1.546875 C 4.492188 -1.546875 4.769531 -1.632812 5 -1.8125 Z M 5.5625 -0.34375 "/></g></g></g><g fill="#000000" fill-opacity="1"><g transform="translate(226.081035, 83.62234)"><g><path d="M 0.953125 -7.140625 L 3.03125 -7.140625 L 3.03125 0 L 0.953125 0 Z M 2 -8.140625 C 1.613281 -8.140625 1.300781 -8.25 1.0625 -8.46875 C 0.832031 -8.695312 0.71875 -8.972656 0.71875 -9.296875 C 0.71875 -9.617188 0.832031 -9.890625 1.0625 -10.109375 C 1.300781 -10.335938 1.613281 -10.453125 2 -10.453125 C 2.382812 -10.453125 2.691406 -10.34375 2.921875 -10.125 C 3.160156 -9.914062 3.28125 -9.65625 3.28125 -9.34375 C 3.28125 -8.988281 3.160156 -8.695312 2.921875 -8.46875 C 2.691406 -8.25 2.382812 -8.140625 2 -8.140625 Z M 2 -8.140625 "/></g></g></g><g fill="#000000" fill-opacity="1"><g transform="translate(230.07894, 83.62234)"><g><path d="M 4.40625 0.109375 C 3.644531 0.109375 2.960938 -0.046875 2.359375 -0.359375 C 1.753906 -0.679688 1.28125 -1.117188 0.9375 -1.671875 C 0.59375 -2.234375 0.421875 -2.867188 0.421875 -3.578125 C 0.421875 -4.285156 0.59375 -4.914062 0.9375 -5.46875 C 1.28125 -6.03125 1.753906 -6.46875 2.359375 -6.78125 C 2.960938 -7.09375 3.644531 -7.25 4.40625 -7.25 C 5.15625 -7.25 5.8125 -7.09375 6.375 -6.78125 C 6.9375 -6.46875 7.347656 -6.019531 7.609375 -5.4375 L 6 -4.5625 C 5.632812 -5.21875 5.097656 -5.546875 4.390625 -5.546875 C 3.859375 -5.546875 3.414062 -5.367188 3.0625 -5.015625 C 2.707031 -4.660156 2.53125 -4.179688 2.53125 -3.578125 C 2.53125 -2.960938 2.707031 -2.476562 3.0625 -2.125 C 3.414062 -1.769531 3.859375 -1.59375 4.390625 -1.59375 C 5.097656 -1.59375 5.632812 -1.921875 6 -2.578125 L 7.609375 -1.703125 C 7.347656 -1.128906 6.9375 -0.679688 6.375 -0.359375 C 5.8125 -0.046875 5.15625 0.109375 4.40625 0.109375 Z M 4.40625 0.109375 "/></g></g></g><g fill="#000000" fill-opacity="1"><g transform="translate(237.875517, 83.62234)"><g><path d="M 0.953125 -9.859375 L 3.03125 -9.859375 L 3.03125 0 L 0.953125 0 Z M 0.953125 -9.859375 "/></g></g></g><g fill="#000000" fill-opacity="1"><g transform="translate(241.873421, 83.62234)"><g><path d="M 7.953125 -3.546875 C 7.953125 -3.515625 7.941406 -3.328125 7.921875 -2.984375 L 2.515625 -2.984375 C 2.609375 -2.546875 2.835938 -2.195312 3.203125 -1.9375 C 3.566406 -1.675781 4.019531 -1.546875 4.5625 -1.546875 C 4.925781 -1.546875 5.253906 -1.601562 5.546875 -1.71875 C 5.835938 -1.832031 6.101562 -2.007812 6.34375 -2.25 L 7.453125 -1.046875 C 6.773438 -0.273438 5.789062 0.109375 4.5 0.109375 C 3.695312 0.109375 2.984375 -0.046875 2.359375 -0.359375 C 1.742188 -0.679688 1.265625 -1.117188 0.921875 -1.671875 C 0.585938 -2.234375 0.421875 -2.867188 0.421875 -3.578125 C 0.421875 -4.273438 0.585938 -4.90625 0.921875 -5.46875 C 1.253906 -6.03125 1.707031 -6.46875 2.28125 -6.78125 C 2.863281 -7.09375 3.515625 -7.25 4.234375 -7.25 C 4.929688 -7.25 5.5625 -7.097656 6.125 -6.796875 C 6.695312 -6.492188 7.144531 -6.0625 7.46875 -5.5 C 7.789062 -4.9375 7.953125 -4.285156 7.953125 -3.546875 Z M 4.25 -5.6875 C 3.78125 -5.6875 3.382812 -5.550781 3.0625 -5.28125 C 2.75 -5.019531 2.554688 -4.660156 2.484375 -4.203125 L 6 -4.203125 C 5.925781 -4.648438 5.726562 -5.007812 5.40625 -5.28125 C 5.09375 -5.550781 4.707031 -5.6875 4.25 -5.6875 Z M 4.25 -5.6875 "/></g></g></g><g fill="#000000" fill-opacity="1"><g transform="translate(250.254395, 83.62234)"><g><path d="M 3.359375 0.109375 C 2.765625 0.109375 2.179688 0.0351562 1.609375 -0.109375 C 1.046875 -0.253906 0.597656 -0.441406 0.265625 -0.671875 L 0.953125 -2.15625 C 1.273438 -1.945312 1.660156 -1.78125 2.109375 -1.65625 C 2.566406 -1.53125 3.007812 -1.46875 3.4375 -1.46875 C 4.3125 -1.46875 4.75 -1.679688 4.75 -2.109375 C 4.75 -2.316406 4.628906 -2.460938 4.390625 -2.546875 C 4.148438 -2.640625 3.785156 -2.71875 3.296875 -2.78125 C 2.710938 -2.863281 2.226562 -2.960938 1.84375 -3.078125 C 1.46875 -3.191406 1.140625 -3.394531 0.859375 -3.6875 C 0.578125 -3.976562 0.4375 -4.394531 0.4375 -4.9375 C 0.4375 -5.394531 0.566406 -5.796875 0.828125 -6.140625 C 1.085938 -6.492188 1.46875 -6.765625 1.96875 -6.953125 C 2.46875 -7.148438 3.0625 -7.25 3.75 -7.25 C 4.25 -7.25 4.75 -7.191406 5.25 -7.078125 C 5.75 -6.972656 6.164062 -6.820312 6.5 -6.625 L 5.796875 -5.15625 C 5.171875 -5.507812 4.488281 -5.6875 3.75 -5.6875 C 3.300781 -5.6875 2.96875 -5.625 2.75 -5.5 C 2.53125 -5.375 2.421875 -5.210938 2.421875 -5.015625 C 2.421875 -4.796875 2.539062 -4.640625 2.78125 -4.546875 C 3.019531 -4.460938 3.398438 -4.378906 3.921875 -4.296875 C 4.503906 -4.203125 4.976562 -4.097656 5.34375 -3.984375 C 5.71875 -3.878906 6.039062 -3.679688 6.3125 -3.390625 C 6.59375 -3.097656 6.734375 -2.691406 6.734375 -2.171875 C 6.734375 -1.722656 6.597656 -1.328125 6.328125 -0.984375 C 6.066406 -0.640625 5.679688 -0.367188 5.171875 -0.171875 C 4.660156 0.015625 4.054688 0.109375 3.359375 0.109375 Z M 3.359375 0.109375 "/></g></g></g><path fill="#ffffff" d="M 4.425781 156.046875 L 179.105469 156.046875 C 179.273438 156.046875 179.433594 156.078125 179.589844 156.140625 C 179.746094 156.207031 179.882812 156.296875 180 156.417969 C 180.121094 156.535156 180.210938 156.671875 180.273438 156.828125 C 180.339844 156.980469 180.371094 157.144531 180.371094 157.3125 L 180.371094 357.398438 C 180.371094 357.566406 180.339844 357.726562 180.273438 357.882812 C 180.210938 358.035156 180.121094 358.171875 180 358.292969 C 179.882812 358.410156 179.746094 358.5 179.589844 358.566406 C 179.433594 358.628906 179.273438 358.664062 179.105469 358.664062 L 4.425781 358.664062 C 4.257812 358.664062 4.097656 358.628906 3.941406 358.566406 C 3.785156 358.5 3.648438 358.410156 3.53125 358.292969 C 3.414062 358.171875 3.320312 358.035156 3.257812 357.882812 C 3.191406 357.726562 3.160156 357.566406 3.160156 357.398438 L 3.160156 157.3125 C 3.160156 157.144531 3.191406 156.980469 3.257812 156.828125 C 3.320312 156.671875 3.414062 156.535156 3.53125 156.417969 C 3.648438 156.296875 3.785156 156.207031 3.941406 156.140625 C 4.097656 156.078125 4.257812 156.046875 4.425781 156.046875 Z M 4.425781 156.046875 " fill-opacity="1" fill-rule="nonzero"/><path fill="#e5c0c0" d="M 4.425781 156.046875 L 179.105469 156.046875 C 179.273438 156.046875 179.433594 156.078125 179.589844 156.140625 C 179.746094 156.207031 179.882812 156.296875 180 156.417969 C 180.121094 156.535156 180.210938 156.671875 180.273438 156.828125 C 180.339844 156.980469 180.371094 157.144531 180.371094 157.3125 L 180.371094 357.398438 C 180.371094 357.566406 180.339844 357.726562 180.273438 357.882812 C 180.210938 358.035156 180.121094 358.171875 180 358.292969 C 179.882812 358.410156 179.746094 358.5 179.589844 358.566406 C 179.433594 358.628906 179.273438 358.664062 179.105469 358.664062 L 4.425781 358.664062 C 4.257812 358.664062 4.097656 358.628906 3.941406 358.566406 C 3.785156 358.5 3.648438 358.410156 3.53125 358.292969 C 3.414062 358.171875 3.320312 358.035156 3.257812 357.882812 C 3.191406 357.726562 3.160156 357.566406 3.160156 357.398438 L 3.160156 157.3125 C 3.160156 157.144531 3.191406 156.980469 3.257812 156.828125 C 3.320312 156.671875 3.414062 156.535156 3.53125 156.417969 C 3.648438 156.296875 3.785156 156.207031 3.941406 156.140625 C 4.097656 156.078125 4.257812 156.046875 4.425781 156.046875 Z M 4.425781 156.046875 " fill-opacity="1" fill-rule="nonzero"/><g fill="#000000" fill-opacity="1"><g transform="translate(29.605392, 261.623302)"><g><path d="M 5.15625 0.140625 C 4.257812 0.140625 3.457031 -0.046875 2.75 -0.421875 C 2.039062 -0.804688 1.484375 -1.332031 1.078125 -2 C 0.671875 -2.675781 0.46875 -3.429688 0.46875 -4.265625 C 0.46875 -5.109375 0.671875 -5.863281 1.078125 -6.53125 C 1.484375 -7.207031 2.039062 -7.734375 2.75 -8.109375 C 3.457031 -8.492188 4.257812 -8.6875 5.15625 -8.6875 C 6.039062 -8.6875 6.835938 -8.492188 7.546875 -8.109375 C 8.253906 -7.734375 8.8125 -7.207031 9.21875 -6.53125 C 9.625 -5.863281 9.828125 -5.109375 9.828125 -4.265625 C 9.828125 -3.429688 9.625 -2.675781 9.21875 -2 C 8.8125 -1.332031 8.253906 -0.804688 7.546875 -0.421875 C 6.835938 -0.046875 6.039062 0.140625 5.15625 0.140625 Z M 5.15625 -1.53125 C 5.65625 -1.53125 6.109375 -1.644531 6.515625 -1.875 C 6.921875 -2.113281 7.238281 -2.441406 7.46875 -2.859375 C 7.707031 -3.273438 7.828125 -3.742188 7.828125 -4.265625 C 7.828125 -4.796875 7.707031 -5.269531 7.46875 -5.6875 C 7.238281 -6.101562 6.921875 -6.425781 6.515625 -6.65625 C 6.109375 -6.882812 5.65625 -7 5.15625 -7 C 4.644531 -7 4.1875 -6.882812 3.78125 -6.65625 C 3.375 -6.425781 3.054688 -6.101562 2.828125 -5.6875 C 2.597656 -5.269531 2.484375 -4.796875 2.484375 -4.265625 C 2.484375 -3.742188 2.597656 -3.273438 2.828125 -2.859375 C 3.054688 -2.441406 3.375 -2.113281 3.78125 -1.875 C 4.1875 -1.644531 4.644531 -1.53125 5.15625 -1.53125 Z M 5.15625 -1.53125 "/></g></g></g><g fill="#000000" fill-opacity="1"><g transform="translate(39.902094, 261.623302)"><g><path d="M 7.5 -6.5625 L 7.5 0 L 5.6875 0 L 5.6875 -0.78125 C 5.4375 -0.5 5.132812 -0.28125 4.78125 -0.125 C 4.4375 0.0195312 4.0625 0.09375 3.65625 0.09375 C 2.789062 0.09375 2.101562 -0.148438 1.59375 -0.640625 C 1.09375 -1.140625 0.84375 -1.878906 0.84375 -2.859375 L 0.84375 -6.5625 L 2.75 -6.5625 L 2.75 -3.140625 C 2.75 -2.078125 3.191406 -1.546875 4.078125 -1.546875 C 4.535156 -1.546875 4.898438 -1.691406 5.171875 -1.984375 C 5.453125 -2.285156 5.59375 -2.726562 5.59375 -3.3125 L 5.59375 -6.5625 Z M 7.5 -6.5625 "/></g></g></g><g fill="#000000" fill-opacity="1"><g transform="translate(48.283416, 261.623302)"><g><path d="M 5.109375 -0.3125 C 4.921875 -0.175781 4.691406 -0.0703125 4.421875 0 C 4.148438 0.0625 3.863281 0.09375 3.5625 0.09375 C 2.78125 0.09375 2.175781 -0.101562 1.75 -0.5 C 1.320312 -0.894531 1.109375 -1.476562 1.109375 -2.25 L 1.109375 -4.953125 L 0.09375 -4.953125 L 0.09375 -6.421875 L 1.109375 -6.421875 L 1.109375 -8.015625 L 3.015625 -8.015625 L 3.015625 -6.421875 L 4.65625 -6.421875 L 4.65625 -4.953125 L 3.015625 -4.953125 L 3.015625 -2.28125 C 3.015625 -2 3.082031 -1.785156 3.21875 -1.640625 C 3.363281 -1.492188 3.566406 -1.421875 3.828125 -1.421875 C 4.128906 -1.421875 4.382812 -1.5 4.59375 -1.65625 Z M 5.109375 -0.3125 "/></g></g></g><g fill="#000000" fill-opacity="1"><g transform="translate(53.590367, 261.623302)"><g><path d="M 0.875 -6.5625 L 2.78125 -6.5625 L 2.78125 0 L 0.875 0 Z M 1.828125 -7.484375 C 1.472656 -7.484375 1.1875 -7.582031 0.96875 -7.78125 C 0.75 -7.988281 0.640625 -8.242188 0.640625 -8.546875 C 0.640625 -8.847656 0.75 -9.097656 0.96875 -9.296875 C 1.1875 -9.503906 1.472656 -9.609375 1.828125 -9.609375 C 2.171875 -9.609375 2.453125 -9.507812 2.671875 -9.3125 C 2.890625 -9.113281 3 -8.867188 3 -8.578125 C 3 -8.265625 2.890625 -8.003906 2.671875 -7.796875 C 2.453125 -7.585938 2.171875 -7.484375 1.828125 -7.484375 Z M 1.828125 -7.484375 "/></g></g></g><g fill="#000000" fill-opacity="1"><g transform="translate(57.262531, 261.623302)"><g><path d="M 0.875 -9.0625 L 2.78125 -9.0625 L 2.78125 0 L 0.875 0 Z M 0.875 -9.0625 "/></g></g></g><g fill="#000000" fill-opacity="1"><g transform="translate(60.934695, 261.623302)"><g/></g></g><g fill="#000000" fill-opacity="1"><g transform="translate(64.387264, 261.623302)"><g><path d="M 3.53125 -6.65625 C 4.539062 -6.65625 5.316406 -6.410156 5.859375 -5.921875 C 6.410156 -5.441406 6.6875 -4.71875 6.6875 -3.75 L 6.6875 0 L 4.90625 0 L 4.90625 -0.8125 C 4.550781 -0.207031 3.882812 0.09375 2.90625 0.09375 C 2.394531 0.09375 1.953125 0.0078125 1.578125 -0.15625 C 1.210938 -0.332031 0.929688 -0.566406 0.734375 -0.859375 C 0.546875 -1.160156 0.453125 -1.503906 0.453125 -1.890625 C 0.453125 -2.503906 0.679688 -2.984375 1.140625 -3.328125 C 1.597656 -3.679688 2.304688 -3.859375 3.265625 -3.859375 L 4.78125 -3.859375 C 4.78125 -4.273438 4.65625 -4.59375 4.40625 -4.8125 C 4.15625 -5.039062 3.773438 -5.15625 3.265625 -5.15625 C 2.921875 -5.15625 2.578125 -5.097656 2.234375 -4.984375 C 1.898438 -4.867188 1.613281 -4.722656 1.375 -4.546875 L 0.703125 -5.875 C 1.054688 -6.125 1.484375 -6.316406 1.984375 -6.453125 C 2.484375 -6.585938 3 -6.65625 3.53125 -6.65625 Z M 3.375 -1.1875 C 3.707031 -1.1875 4 -1.257812 4.25 -1.40625 C 4.5 -1.5625 4.675781 -1.785156 4.78125 -2.078125 L 4.78125 -2.75 L 3.484375 -2.75 C 2.703125 -2.75 2.3125 -2.492188 2.3125 -1.984375 C 2.3125 -1.734375 2.40625 -1.535156 2.59375 -1.390625 C 2.78125 -1.253906 3.039062 -1.1875 3.375 -1.1875 Z M 3.375 -1.1875 "/></g></g></g><g fill="#000000" fill-opacity="1"><g transform="translate(71.987793, 261.623302)"><g><path d="M 7.5625 -9.0625 L 7.5625 0 L 5.75 0 L 5.75 -0.75 C 5.28125 -0.1875 4.597656 0.09375 3.703125 0.09375 C 3.078125 0.09375 2.515625 -0.0390625 2.015625 -0.3125 C 1.515625 -0.59375 1.125 -0.988281 0.84375 -1.5 C 0.5625 -2.007812 0.421875 -2.601562 0.421875 -3.28125 C 0.421875 -3.957031 0.5625 -4.550781 0.84375 -5.0625 C 1.125 -5.570312 1.515625 -5.960938 2.015625 -6.234375 C 2.515625 -6.515625 3.078125 -6.65625 3.703125 -6.65625 C 4.535156 -6.65625 5.1875 -6.394531 5.65625 -5.875 L 5.65625 -9.0625 Z M 4.03125 -1.46875 C 4.507812 -1.46875 4.90625 -1.628906 5.21875 -1.953125 C 5.539062 -2.285156 5.703125 -2.726562 5.703125 -3.28125 C 5.703125 -3.832031 5.539062 -4.269531 5.21875 -4.59375 C 4.90625 -4.925781 4.507812 -5.09375 4.03125 -5.09375 C 3.539062 -5.09375 3.132812 -4.925781 2.8125 -4.59375 C 2.5 -4.269531 2.34375 -3.832031 2.34375 -3.28125 C 2.34375 -2.726562 2.5 -2.285156 2.8125 -1.953125 C 3.132812 -1.628906 3.539062 -1.46875 4.03125 -1.46875 Z M 4.03125 -1.46875 "/></g></g></g><g fill="#000000" fill-opacity="1"><g transform="translate(80.430113, 261.623302)"><g><path d="M 3.53125 -6.65625 C 4.539062 -6.65625 5.316406 -6.410156 5.859375 -5.921875 C 6.410156 -5.441406 6.6875 -4.71875 6.6875 -3.75 L 6.6875 0 L 4.90625 0 L 4.90625 -0.8125 C 4.550781 -0.207031 3.882812 0.09375 2.90625 0.09375 C 2.394531 0.09375 1.953125 0.0078125 1.578125 -0.15625 C 1.210938 -0.332031 0.929688 -0.566406 0.734375 -0.859375 C 0.546875 -1.160156 0.453125 -1.503906 0.453125 -1.890625 C 0.453125 -2.503906 0.679688 -2.984375 1.140625 -3.328125 C 1.597656 -3.679688 2.304688 -3.859375 3.265625 -3.859375 L 4.78125 -3.859375 C 4.78125 -4.273438 4.65625 -4.59375 4.40625 -4.8125 C 4.15625 -5.039062 3.773438 -5.15625 3.265625 -5.15625 C 2.921875 -5.15625 2.578125 -5.097656 2.234375 -4.984375 C 1.898438 -4.867188 1.613281 -4.722656 1.375 -4.546875 L 0.703125 -5.875 C 1.054688 -6.125 1.484375 -6.316406 1.984375 -6.453125 C 2.484375 -6.585938 3 -6.65625 3.53125 -6.65625 Z M 3.375 -1.1875 C 3.707031 -1.1875 4 -1.257812 4.25 -1.40625 C 4.5 -1.5625 4.675781 -1.785156 4.78125 -2.078125 L 4.78125 -2.75 L 3.484375 -2.75 C 2.703125 -2.75 2.3125 -2.492188 2.3125 -1.984375 C 2.3125 -1.734375 2.40625 -1.535156 2.59375 -1.390625 C 2.78125 -1.253906 3.039062 -1.1875 3.375 -1.1875 Z M 3.375 -1.1875 "/></g></g></g><g fill="#000000" fill-opacity="1"><g transform="translate(87.957441, 261.623302)"><g><path d="M 4.765625 -6.65625 C 5.367188 -6.65625 5.921875 -6.515625 6.421875 -6.234375 C 6.921875 -5.960938 7.3125 -5.570312 7.59375 -5.0625 C 7.882812 -4.550781 8.03125 -3.957031 8.03125 -3.28125 C 8.03125 -2.601562 7.882812 -2.007812 7.59375 -1.5 C 7.3125 -1 6.921875 -0.609375 6.421875 -0.328125 C 5.921875 -0.046875 5.367188 0.09375 4.765625 0.09375 C 3.921875 0.09375 3.257812 -0.171875 2.78125 -0.703125 L 2.78125 2.375 L 0.875 2.375 L 0.875 -6.5625 L 2.703125 -6.5625 L 2.703125 -5.8125 C 3.171875 -6.375 3.859375 -6.65625 4.765625 -6.65625 Z M 4.4375 -1.46875 C 4.914062 -1.46875 5.3125 -1.628906 5.625 -1.953125 C 5.945312 -2.285156 6.109375 -2.726562 6.109375 -3.28125 C 6.109375 -3.832031 5.945312 -4.269531 5.625 -4.59375 C 5.3125 -4.925781 4.914062 -5.09375 4.4375 -5.09375 C 3.945312 -5.09375 3.546875 -4.925781 3.234375 -4.59375 C 2.921875 -4.269531 2.765625 -3.832031 2.765625 -3.28125 C 2.765625 -2.726562 2.921875 -2.285156 3.234375 -1.953125 C 3.546875 -1.628906 3.945312 -1.46875 4.4375 -1.46875 Z M 4.4375 -1.46875 "/></g></g></g><g fill="#000000" fill-opacity="1"><g transform="translate(96.375364, 261.623302)"><g><path d="M 5.109375 -0.3125 C 4.921875 -0.175781 4.691406 -0.0703125 4.421875 0 C 4.148438 0.0625 3.863281 0.09375 3.5625 0.09375 C 2.78125 0.09375 2.175781 -0.101562 1.75 -0.5 C 1.320312 -0.894531 1.109375 -1.476562 1.109375 -2.25 L 1.109375 -4.953125 L 0.09375 -4.953125 L 0.09375 -6.421875 L 1.109375 -6.421875 L 1.109375 -8.015625 L 3.015625 -8.015625 L 3.015625 -6.421875 L 4.65625 -6.421875 L 4.65625 -4.953125 L 3.015625 -4.953125 L 3.015625 -2.28125 C 3.015625 -2 3.082031 -1.785156 3.21875 -1.640625 C 3.363281 -1.492188 3.566406 -1.421875 3.828125 -1.421875 C 4.128906 -1.421875 4.382812 -1.5 4.59375 -1.65625 Z M 5.109375 -0.3125 "/></g></g></g><g fill="#000000" fill-opacity="1"><g transform="translate(101.474909, 261.623302)"><g><path d="M 7.3125 -3.265625 C 7.3125 -3.234375 7.296875 -3.0625 7.265625 -2.75 L 2.3125 -2.75 C 2.394531 -2.34375 2.601562 -2.019531 2.9375 -1.78125 C 3.269531 -1.539062 3.6875 -1.421875 4.1875 -1.421875 C 4.53125 -1.421875 4.832031 -1.472656 5.09375 -1.578125 C 5.351562 -1.679688 5.597656 -1.84375 5.828125 -2.0625 L 6.84375 -0.96875 C 6.226562 -0.257812 5.328125 0.09375 4.140625 0.09375 C 3.398438 0.09375 2.742188 -0.046875 2.171875 -0.328125 C 1.597656 -0.617188 1.15625 -1.019531 0.84375 -1.53125 C 0.539062 -2.050781 0.390625 -2.632812 0.390625 -3.28125 C 0.390625 -3.925781 0.539062 -4.503906 0.84375 -5.015625 C 1.15625 -5.535156 1.578125 -5.9375 2.109375 -6.21875 C 2.640625 -6.507812 3.234375 -6.65625 3.890625 -6.65625 C 4.535156 -6.65625 5.117188 -6.515625 5.640625 -6.234375 C 6.160156 -5.960938 6.566406 -5.566406 6.859375 -5.046875 C 7.160156 -4.535156 7.3125 -3.941406 7.3125 -3.265625 Z M 3.90625 -5.21875 C 3.476562 -5.21875 3.113281 -5.09375 2.8125 -4.84375 C 2.519531 -4.601562 2.34375 -4.273438 2.28125 -3.859375 L 5.515625 -3.859375 C 5.453125 -4.273438 5.273438 -4.601562 4.984375 -4.84375 C 4.691406 -5.09375 4.332031 -5.21875 3.90625 -5.21875 Z M 4.390625 -9.171875 L 6.4375 -9.171875 L 4.234375 -7.40625 L 2.75 -7.40625 Z M 4.390625 -9.171875 "/></g></g></g><g fill="#000000" fill-opacity="1"><g transform="translate(109.173037, 261.623302)"><g/></g></g><g fill="#000000" fill-opacity="1"><g transform="translate(112.625601, 261.623302)"><g><path d="M 3.53125 -6.65625 C 4.539062 -6.65625 5.316406 -6.410156 5.859375 -5.921875 C 6.410156 -5.441406 6.6875 -4.71875 6.6875 -3.75 L 6.6875 0 L 4.90625 0 L 4.90625 -0.8125 C 4.550781 -0.207031 3.882812 0.09375 2.90625 0.09375 C 2.394531 0.09375 1.953125 0.0078125 1.578125 -0.15625 C 1.210938 -0.332031 0.929688 -0.566406 0.734375 -0.859375 C 0.546875 -1.160156 0.453125 -1.503906 0.453125 -1.890625 C 0.453125 -2.503906 0.679688 -2.984375 1.140625 -3.328125 C 1.597656 -3.679688 2.304688 -3.859375 3.265625 -3.859375 L 4.78125 -3.859375 C 4.78125 -4.273438 4.65625 -4.59375 4.40625 -4.8125 C 4.15625 -5.039062 3.773438 -5.15625 3.265625 -5.15625 C 2.921875 -5.15625 2.578125 -5.097656 2.234375 -4.984375 C 1.898438 -4.867188 1.613281 -4.722656 1.375 -4.546875 L 0.703125 -5.875 C 1.054688 -6.125 1.484375 -6.316406 1.984375 -6.453125 C 2.484375 -6.585938 3 -6.65625 3.53125 -6.65625 Z M 3.375 -1.1875 C 3.707031 -1.1875 4 -1.257812 4.25 -1.40625 C 4.5 -1.5625 4.675781 -1.785156 4.78125 -2.078125 L 4.78125 -2.75 L 3.484375 -2.75 C 2.703125 -2.75 2.3125 -2.492188 2.3125 -1.984375 C 2.3125 -1.734375 2.40625 -1.535156 2.59375 -1.390625 C 2.78125 -1.253906 3.039062 -1.1875 3.375 -1.1875 Z M 1.140625 -9.171875 L 3.1875 -9.171875 L 4.84375 -7.40625 L 3.34375 -7.40625 Z M 1.140625 -9.171875 "/></g></g></g><g fill="#000000" fill-opacity="1"><g transform="translate(120.152928, 261.623302)"><g/></g></g><g fill="#000000" fill-opacity="1"><g transform="translate(123.605492, 261.623302)"><g><path d="M 0.875 -9.0625 L 2.78125 -9.0625 L 2.78125 0 L 0.875 0 Z M 0.875 -9.0625 "/></g></g></g><g fill="#000000" fill-opacity="1"><g transform="translate(127.277661, 261.623302)"><g><path d="M 0.59375 -8.546875 L 2.21875 -8.546875 L 2.09375 -5.078125 L 0.71875 -5.078125 Z M 0.59375 -8.546875 "/></g></g></g><g fill="#000000" fill-opacity="1"><g transform="translate(130.083637, 261.623302)"><g><path d="M 3.53125 -6.65625 C 4.539062 -6.65625 5.316406 -6.410156 5.859375 -5.921875 C 6.410156 -5.441406 6.6875 -4.71875 6.6875 -3.75 L 6.6875 0 L 4.90625 0 L 4.90625 -0.8125 C 4.550781 -0.207031 3.882812 0.09375 2.90625 0.09375 C 2.394531 0.09375 1.953125 0.0078125 1.578125 -0.15625 C 1.210938 -0.332031 0.929688 -0.566406 0.734375 -0.859375 C 0.546875 -1.160156 0.453125 -1.503906 0.453125 -1.890625 C 0.453125 -2.503906 0.679688 -2.984375 1.140625 -3.328125 C 1.597656 -3.679688 2.304688 -3.859375 3.265625 -3.859375 L 4.78125 -3.859375 C 4.78125 -4.273438 4.65625 -4.59375 4.40625 -4.8125 C 4.15625 -5.039062 3.773438 -5.15625 3.265625 -5.15625 C 2.921875 -5.15625 2.578125 -5.097656 2.234375 -4.984375 C 1.898438 -4.867188 1.613281 -4.722656 1.375 -4.546875 L 0.703125 -5.875 C 1.054688 -6.125 1.484375 -6.316406 1.984375 -6.453125 C 2.484375 -6.585938 3 -6.65625 3.53125 -6.65625 Z M 3.375 -1.1875 C 3.707031 -1.1875 4 -1.257812 4.25 -1.40625 C 4.5 -1.5625 4.675781 -1.785156 4.78125 -2.078125 L 4.78125 -2.75 L 3.484375 -2.75 C 2.703125 -2.75 2.3125 -2.492188 2.3125 -1.984375 C 2.3125 -1.734375 2.40625 -1.535156 2.59375 -1.390625 C 2.78125 -1.253906 3.039062 -1.1875 3.375 -1.1875 Z M 4.796875 -7.40625 L 3.734375 -8.328125 L 2.671875 -7.40625 L 1.28125 -7.40625 L 2.890625 -9.171875 L 4.578125 -9.171875 L 6.1875 -7.40625 Z M 4.796875 -7.40625 "/></g></g></g><g fill="#000000" fill-opacity="1"><g transform="translate(137.684166, 261.623302)"><g><path d="M 7.65625 -6.5625 L 7.65625 -1.09375 C 7.65625 0.101562 7.335938 0.992188 6.703125 1.578125 C 6.078125 2.171875 5.164062 2.46875 3.96875 2.46875 C 3.332031 2.46875 2.726562 2.390625 2.15625 2.234375 C 1.59375 2.078125 1.125 1.851562 0.75 1.5625 L 1.5 0.1875 C 1.78125 0.414062 2.128906 0.597656 2.546875 0.734375 C 2.972656 0.867188 3.394531 0.9375 3.8125 0.9375 C 4.476562 0.9375 4.96875 0.785156 5.28125 0.484375 C 5.59375 0.191406 5.75 -0.253906 5.75 -0.859375 L 5.75 -1.140625 C 5.25 -0.585938 4.554688 -0.3125 3.671875 -0.3125 C 3.066406 -0.3125 2.515625 -0.441406 2.015625 -0.703125 C 1.515625 -0.972656 1.117188 -1.347656 0.828125 -1.828125 C 0.535156 -2.304688 0.390625 -2.859375 0.390625 -3.484375 C 0.390625 -4.117188 0.535156 -4.675781 0.828125 -5.15625 C 1.117188 -5.632812 1.515625 -6.003906 2.015625 -6.265625 C 2.515625 -6.523438 3.066406 -6.65625 3.671875 -6.65625 C 4.617188 -6.65625 5.34375 -6.34375 5.84375 -5.71875 L 5.84375 -6.5625 Z M 4.046875 -1.875 C 4.554688 -1.875 4.96875 -2.019531 5.28125 -2.3125 C 5.601562 -2.613281 5.765625 -3.003906 5.765625 -3.484375 C 5.765625 -3.960938 5.601562 -4.347656 5.28125 -4.640625 C 4.96875 -4.941406 4.554688 -5.09375 4.046875 -5.09375 C 3.546875 -5.09375 3.128906 -4.941406 2.796875 -4.640625 C 2.472656 -4.347656 2.3125 -3.960938 2.3125 -3.484375 C 2.3125 -3.003906 2.472656 -2.613281 2.796875 -2.3125 C 3.128906 -2.019531 3.546875 -1.875 4.046875 -1.875 Z M 4.046875 -1.875 "/></g></g></g><g fill="#000000" fill-opacity="1"><g transform="translate(146.22408, 261.623302)"><g><path d="M 7.3125 -3.265625 C 7.3125 -3.234375 7.296875 -3.0625 7.265625 -2.75 L 2.3125 -2.75 C 2.394531 -2.34375 2.601562 -2.019531 2.9375 -1.78125 C 3.269531 -1.539062 3.6875 -1.421875 4.1875 -1.421875 C 4.53125 -1.421875 4.832031 -1.472656 5.09375 -1.578125 C 5.351562 -1.679688 5.597656 -1.84375 5.828125 -2.0625 L 6.84375 -0.96875 C 6.226562 -0.257812 5.328125 0.09375 4.140625 0.09375 C 3.398438 0.09375 2.742188 -0.046875 2.171875 -0.328125 C 1.597656 -0.617188 1.15625 -1.019531 0.84375 -1.53125 C 0.539062 -2.050781 0.390625 -2.632812 0.390625 -3.28125 C 0.390625 -3.925781 0.539062 -4.503906 0.84375 -5.015625 C 1.15625 -5.535156 1.578125 -5.9375 2.109375 -6.21875 C 2.640625 -6.507812 3.234375 -6.65625 3.890625 -6.65625 C 4.535156 -6.65625 5.117188 -6.515625 5.640625 -6.234375 C 6.160156 -5.960938 6.566406 -5.566406 6.859375 -5.046875 C 7.160156 -4.535156 7.3125 -3.941406 7.3125 -3.265625 Z M 3.90625 -5.21875 C 3.476562 -5.21875 3.113281 -5.09375 2.8125 -4.84375 C 2.519531 -4.601562 2.34375 -4.273438 2.28125 -3.859375 L 5.515625 -3.859375 C 5.453125 -4.273438 5.273438 -4.601562 4.984375 -4.84375 C 4.691406 -5.09375 4.332031 -5.21875 3.90625 -5.21875 Z M 3.90625 -5.21875 "/></g></g></g><path fill="#ffffff" d="M 182.902344 156.046875 L 357.582031 156.046875 C 357.75 156.046875 357.910156 156.078125 358.066406 156.140625 C 358.21875 156.207031 358.359375 156.296875 358.476562 156.417969 C 358.59375 156.535156 358.6875 156.671875 358.75 156.828125 C 358.816406 156.980469 358.847656 157.144531 358.847656 157.3125 L 358.847656 255.140625 C 358.847656 255.308594 358.816406 255.46875 358.75 255.625 C 358.6875 255.78125 358.59375 255.917969 358.476562 256.035156 C 358.359375 256.152344 358.21875 256.246094 358.066406 256.308594 C 357.910156 256.375 357.75 256.40625 357.582031 256.40625 L 182.902344 256.40625 C 182.734375 256.40625 182.570312 256.375 182.417969 256.308594 C 182.261719 256.246094 182.125 256.152344 182.007812 256.035156 C 181.886719 255.917969 181.796875 255.78125 181.734375 255.625 C 181.667969 255.46875 181.636719 255.308594 181.636719 255.140625 L 181.636719 157.3125 C 181.636719 157.144531 181.667969 156.980469 181.734375 156.828125 C 181.796875 156.671875 181.886719 156.535156 182.007812 156.417969 C 182.125 156.296875 182.261719 156.207031 182.417969 156.140625 C 182.570312 156.078125 182.734375 156.046875 182.902344 156.046875 Z M 182.902344 156.046875 " fill-opacity="1" fill-rule="nonzero"/><path fill="#fbdfc5" d="M 182.902344 156.046875 L 357.582031 156.046875 C 357.75 156.046875 357.910156 156.078125 358.066406 156.140625 C 358.21875 156.207031 358.359375 156.296875 358.476562 156.417969 C 358.59375 156.535156 358.6875 156.671875 358.75 156.828125 C 358.816406 156.980469 358.847656 157.144531 358.847656 157.3125 L 358.847656 255.140625 C 358.847656 255.308594 358.816406 255.46875 358.75 255.625 C 358.6875 255.78125 358.59375 255.917969 358.476562 256.035156 C 358.359375 256.152344 358.21875 256.246094 358.066406 256.308594 C 357.910156 256.375 357.75 256.40625 357.582031 256.40625 L 182.902344 256.40625 C 182.734375 256.40625 182.570312 256.375 182.417969 256.308594 C 182.261719 256.246094 182.125 256.152344 182.007812 256.035156 C 181.886719 255.917969 181.796875 255.78125 181.734375 255.625 C 181.667969 255.46875 181.636719 255.308594 181.636719 255.140625 L 181.636719 157.3125 C 181.636719 157.144531 181.667969 156.980469 181.734375 156.828125 C 181.796875 156.671875 181.886719 156.535156 182.007812 156.417969 C 182.125 156.296875 182.261719 156.207031 182.417969 156.140625 C 182.570312 156.078125 182.734375 156.046875 182.902344 156.046875 Z M 182.902344 156.046875 " fill-opacity="1" fill-rule="nonzero"/><g fill="#000000" fill-opacity="1"><g transform="translate(208.105374, 209.546084)"><g><path d="M 3.96875 0.109375 C 3.289062 0.109375 2.675781 -0.0351562 2.125 -0.328125 C 1.582031 -0.617188 1.15625 -1.023438 0.84375 -1.546875 C 0.53125 -2.078125 0.375 -2.671875 0.375 -3.328125 C 0.375 -3.984375 0.53125 -4.570312 0.84375 -5.09375 C 1.15625 -5.613281 1.582031 -6.019531 2.125 -6.3125 C 2.675781 -6.613281 3.296875 -6.765625 3.984375 -6.765625 C 4.554688 -6.765625 5.070312 -6.660156 5.53125 -6.453125 C 6 -6.253906 6.394531 -5.96875 6.71875 -5.59375 L 5.734375 -4.671875 C 5.273438 -5.191406 4.71875 -5.453125 4.0625 -5.453125 C 3.644531 -5.453125 3.273438 -5.359375 2.953125 -5.171875 C 2.628906 -4.992188 2.375 -4.742188 2.1875 -4.421875 C 2.007812 -4.097656 1.921875 -3.734375 1.921875 -3.328125 C 1.921875 -2.910156 2.007812 -2.539062 2.1875 -2.21875 C 2.375 -1.894531 2.628906 -1.644531 2.953125 -1.46875 C 3.273438 -1.289062 3.644531 -1.203125 4.0625 -1.203125 C 4.71875 -1.203125 5.273438 -1.460938 5.734375 -1.984375 L 6.71875 -1.078125 C 6.394531 -0.691406 6 -0.394531 5.53125 -0.1875 C 5.0625 0.0078125 4.539062 0.109375 3.96875 0.109375 Z M 3.96875 0.109375 "/></g></g></g><g fill="#000000" fill-opacity="1"><g transform="translate(214.889741, 209.546084)"><g><path d="M 3.109375 0.078125 C 2.578125 0.078125 2.097656 -0.03125 1.671875 -0.25 C 1.242188 -0.476562 0.90625 -0.789062 0.65625 -1.1875 C 0.414062 -1.59375 0.296875 -2.050781 0.296875 -2.5625 C 0.296875 -3.0625 0.414062 -3.507812 0.65625 -3.90625 C 0.90625 -4.3125 1.242188 -4.625 1.671875 -4.84375 C 2.097656 -5.070312 2.578125 -5.1875 3.109375 -5.1875 C 3.648438 -5.1875 4.132812 -5.070312 4.5625 -4.84375 C 4.988281 -4.625 5.320312 -4.3125 5.5625 -3.90625 C 5.800781 -3.507812 5.921875 -3.0625 5.921875 -2.5625 C 5.921875 -2.050781 5.800781 -1.59375 5.5625 -1.1875 C 5.320312 -0.789062 4.988281 -0.476562 4.5625 -0.25 C 4.132812 -0.03125 3.648438 0.078125 3.109375 0.078125 Z M 3.109375 -1.140625 C 3.492188 -1.140625 3.804688 -1.265625 4.046875 -1.515625 C 4.296875 -1.773438 4.421875 -2.125 4.421875 -2.5625 C 4.421875 -2.988281 4.296875 -3.328125 4.046875 -3.578125 C 3.804688 -3.835938 3.492188 -3.96875 3.109375 -3.96875 C 2.734375 -3.96875 2.421875 -3.835938 2.171875 -3.578125 C 1.929688 -3.328125 1.8125 -2.988281 1.8125 -2.5625 C 1.8125 -2.125 1.929688 -1.773438 2.171875 -1.515625 C 2.421875 -1.265625 2.734375 -1.140625 3.109375 -1.140625 Z M 3.109375 -1.140625 "/></g></g></g><g fill="#000000" fill-opacity="1"><g transform="translate(221.113561, 209.546084)"><g><path d="M 7.234375 -5.1875 C 7.867188 -5.1875 8.375 -5 8.75 -4.625 C 9.125 -4.25 9.3125 -3.679688 9.3125 -2.921875 L 9.3125 0 L 7.84375 0 L 7.84375 -2.703125 C 7.84375 -3.109375 7.753906 -3.410156 7.578125 -3.609375 C 7.410156 -3.804688 7.175781 -3.90625 6.875 -3.90625 C 6.519531 -3.90625 6.238281 -3.789062 6.03125 -3.5625 C 5.832031 -3.34375 5.734375 -3.007812 5.734375 -2.5625 L 5.734375 0 L 4.25 0 L 4.25 -2.703125 C 4.25 -3.503906 3.925781 -3.90625 3.28125 -3.90625 C 2.945312 -3.90625 2.675781 -3.789062 2.46875 -3.5625 C 2.269531 -3.34375 2.171875 -3.007812 2.171875 -2.5625 L 2.171875 0 L 0.6875 0 L 0.6875 -5.109375 L 2.09375 -5.109375 L 2.09375 -4.515625 C 2.289062 -4.734375 2.523438 -4.898438 2.796875 -5.015625 C 3.078125 -5.128906 3.378906 -5.1875 3.703125 -5.1875 C 4.066406 -5.1875 4.394531 -5.113281 4.6875 -4.96875 C 4.976562 -4.832031 5.210938 -4.625 5.390625 -4.34375 C 5.597656 -4.613281 5.859375 -4.820312 6.171875 -4.96875 C 6.492188 -5.113281 6.847656 -5.1875 7.234375 -5.1875 Z M 7.234375 -5.1875 "/></g></g></g><g fill="#000000" fill-opacity="1"><g transform="translate(231.081179, 209.546084)"><g><path d="M 7.234375 -5.1875 C 7.867188 -5.1875 8.375 -5 8.75 -4.625 C 9.125 -4.25 9.3125 -3.679688 9.3125 -2.921875 L 9.3125 0 L 7.84375 0 L 7.84375 -2.703125 C 7.84375 -3.109375 7.753906 -3.410156 7.578125 -3.609375 C 7.410156 -3.804688 7.175781 -3.90625 6.875 -3.90625 C 6.519531 -3.90625 6.238281 -3.789062 6.03125 -3.5625 C 5.832031 -3.34375 5.734375 -3.007812 5.734375 -2.5625 L 5.734375 0 L 4.25 0 L 4.25 -2.703125 C 4.25 -3.503906 3.925781 -3.90625 3.28125 -3.90625 C 2.945312 -3.90625 2.675781 -3.789062 2.46875 -3.5625 C 2.269531 -3.34375 2.171875 -3.007812 2.171875 -2.5625 L 2.171875 0 L 0.6875 0 L 0.6875 -5.109375 L 2.09375 -5.109375 L 2.09375 -4.515625 C 2.289062 -4.734375 2.523438 -4.898438 2.796875 -5.015625 C 3.078125 -5.128906 3.378906 -5.1875 3.703125 -5.1875 C 4.066406 -5.1875 4.394531 -5.113281 4.6875 -4.96875 C 4.976562 -4.832031 5.210938 -4.625 5.390625 -4.34375 C 5.597656 -4.613281 5.859375 -4.820312 6.171875 -4.96875 C 6.492188 -5.113281 6.847656 -5.1875 7.234375 -5.1875 Z M 7.234375 -5.1875 "/></g></g></g><g fill="#000000" fill-opacity="1"><g transform="translate(241.048797, 209.546084)"><g><path d="M 5.828125 -5.109375 L 5.828125 0 L 4.421875 0 L 4.421875 -0.609375 C 4.222656 -0.390625 3.988281 -0.21875 3.71875 -0.09375 C 3.445312 0.0195312 3.15625 0.078125 2.84375 0.078125 C 2.164062 0.078125 1.628906 -0.113281 1.234375 -0.5 C 0.847656 -0.882812 0.65625 -1.457031 0.65625 -2.21875 L 0.65625 -5.109375 L 2.140625 -5.109375 L 2.140625 -2.4375 C 2.140625 -1.613281 2.484375 -1.203125 3.171875 -1.203125 C 3.523438 -1.203125 3.804688 -1.316406 4.015625 -1.546875 C 4.234375 -1.785156 4.34375 -2.128906 4.34375 -2.578125 L 4.34375 -5.109375 Z M 5.828125 -5.109375 "/></g></g></g><g fill="#000000" fill-opacity="1"><g transform="translate(247.576682, 209.546084)"><g><path d="M 3.796875 -5.1875 C 4.421875 -5.1875 4.925781 -4.992188 5.3125 -4.609375 C 5.707031 -4.234375 5.90625 -3.671875 5.90625 -2.921875 L 5.90625 0 L 4.421875 0 L 4.421875 -2.703125 C 4.421875 -3.109375 4.332031 -3.410156 4.15625 -3.609375 C 3.976562 -3.804688 3.722656 -3.90625 3.390625 -3.90625 C 3.015625 -3.90625 2.71875 -3.789062 2.5 -3.5625 C 2.28125 -3.332031 2.171875 -2.988281 2.171875 -2.53125 L 2.171875 0 L 0.6875 0 L 0.6875 -5.109375 L 2.09375 -5.109375 L 2.09375 -4.515625 C 2.289062 -4.722656 2.535156 -4.882812 2.828125 -5 C 3.117188 -5.125 3.441406 -5.1875 3.796875 -5.1875 Z M 3.796875 -5.1875 "/></g></g></g><g fill="#000000" fill-opacity="1"><g transform="translate(254.142577, 209.546084)"><g><path d="M 2.75 -5.1875 C 3.539062 -5.1875 4.144531 -5 4.5625 -4.625 C 4.988281 -4.25 5.203125 -3.679688 5.203125 -2.921875 L 5.203125 0 L 3.8125 0 L 3.8125 -0.640625 C 3.539062 -0.160156 3.023438 0.078125 2.265625 0.078125 C 1.867188 0.078125 1.523438 0.0078125 1.234375 -0.125 C 0.953125 -0.257812 0.734375 -0.441406 0.578125 -0.671875 C 0.421875 -0.910156 0.34375 -1.175781 0.34375 -1.46875 C 0.34375 -1.945312 0.519531 -2.320312 0.875 -2.59375 C 1.238281 -2.863281 1.796875 -3 2.546875 -3 L 3.71875 -3 C 3.71875 -3.320312 3.617188 -3.570312 3.421875 -3.75 C 3.234375 -3.925781 2.941406 -4.015625 2.546875 -4.015625 C 2.273438 -4.015625 2.003906 -3.96875 1.734375 -3.875 C 1.472656 -3.789062 1.253906 -3.675781 1.078125 -3.53125 L 0.546875 -4.5625 C 0.816406 -4.757812 1.144531 -4.910156 1.53125 -5.015625 C 1.925781 -5.128906 2.332031 -5.1875 2.75 -5.1875 Z M 2.625 -0.921875 C 2.882812 -0.921875 3.109375 -0.976562 3.296875 -1.09375 C 3.492188 -1.207031 3.632812 -1.378906 3.71875 -1.609375 L 3.71875 -2.140625 L 2.703125 -2.140625 C 2.097656 -2.140625 1.796875 -1.9375 1.796875 -1.53125 C 1.796875 -1.34375 1.867188 -1.191406 2.015625 -1.078125 C 2.160156 -0.972656 2.363281 -0.921875 2.625 -0.921875 Z M 2.625 -0.921875 "/></g></g></g><g fill="#000000" fill-opacity="1"><g transform="translate(260.005321, 209.546084)"><g><path d="M 5.828125 -5.109375 L 5.828125 0 L 4.421875 0 L 4.421875 -0.609375 C 4.222656 -0.390625 3.988281 -0.21875 3.71875 -0.09375 C 3.445312 0.0195312 3.15625 0.078125 2.84375 0.078125 C 2.164062 0.078125 1.628906 -0.113281 1.234375 -0.5 C 0.847656 -0.882812 0.65625 -1.457031 0.65625 -2.21875 L 0.65625 -5.109375 L 2.140625 -5.109375 L 2.140625 -2.4375 C 2.140625 -1.613281 2.484375 -1.203125 3.171875 -1.203125 C 3.523438 -1.203125 3.804688 -1.316406 4.015625 -1.546875 C 4.234375 -1.785156 4.34375 -2.128906 4.34375 -2.578125 L 4.34375 -5.109375 Z M 5.828125 -5.109375 "/></g></g></g><g fill="#000000" fill-opacity="1"><g transform="translate(266.533206, 209.546084)"><g><path d="M 3.984375 -0.25 C 3.835938 -0.132812 3.65625 -0.0507812 3.4375 0 C 3.226562 0.0507812 3.007812 0.078125 2.78125 0.078125 C 2.164062 0.078125 1.691406 -0.078125 1.359375 -0.390625 C 1.023438 -0.703125 0.859375 -1.15625 0.859375 -1.75 L 0.859375 -3.859375 L 0.078125 -3.859375 L 0.078125 -5 L 0.859375 -5 L 0.859375 -6.234375 L 2.34375 -6.234375 L 2.34375 -5 L 3.625 -5 L 3.625 -3.859375 L 2.34375 -3.859375 L 2.34375 -1.78125 C 2.34375 -1.5625 2.394531 -1.394531 2.5 -1.28125 C 2.613281 -1.164062 2.773438 -1.109375 2.984375 -1.109375 C 3.210938 -1.109375 3.410156 -1.171875 3.578125 -1.296875 Z M 3.984375 -0.25 "/></g></g></g><g fill="#000000" fill-opacity="1"><g transform="translate(270.504981, 209.546084)"><g><path d="M 5.6875 -2.53125 C 5.6875 -2.519531 5.675781 -2.390625 5.65625 -2.140625 L 1.796875 -2.140625 C 1.867188 -1.816406 2.03125 -1.5625 2.28125 -1.375 C 2.539062 -1.195312 2.867188 -1.109375 3.265625 -1.109375 C 3.523438 -1.109375 3.757812 -1.144531 3.96875 -1.21875 C 4.175781 -1.300781 4.367188 -1.429688 4.546875 -1.609375 L 5.328125 -0.75 C 4.847656 -0.195312 4.144531 0.078125 3.21875 0.078125 C 2.644531 0.078125 2.132812 -0.03125 1.6875 -0.25 C 1.25 -0.476562 0.90625 -0.789062 0.65625 -1.1875 C 0.414062 -1.59375 0.296875 -2.050781 0.296875 -2.5625 C 0.296875 -3.0625 0.414062 -3.507812 0.65625 -3.90625 C 0.894531 -4.3125 1.222656 -4.625 1.640625 -4.84375 C 2.054688 -5.070312 2.519531 -5.1875 3.03125 -5.1875 C 3.53125 -5.1875 3.984375 -5.078125 4.390625 -4.859375 C 4.796875 -4.648438 5.113281 -4.34375 5.34375 -3.9375 C 5.570312 -3.53125 5.6875 -3.0625 5.6875 -2.53125 Z M 3.046875 -4.0625 C 2.703125 -4.0625 2.414062 -3.96875 2.1875 -3.78125 C 1.96875 -3.59375 1.832031 -3.332031 1.78125 -3 L 4.296875 -3 C 4.242188 -3.320312 4.101562 -3.578125 3.875 -3.765625 C 3.644531 -3.960938 3.367188 -4.0625 3.046875 -4.0625 Z M 3.421875 -7.140625 L 5.015625 -7.140625 L 3.296875 -5.765625 L 2.140625 -5.765625 Z M 3.421875 -7.140625 "/></g></g></g><g fill="#000000" fill-opacity="1"><g transform="translate(276.500757, 209.546084)"><g/></g></g><g fill="#000000" fill-opacity="1"><g transform="translate(279.189827, 209.546084)"><g><path d="M 3.703125 -5.1875 C 4.179688 -5.1875 4.613281 -5.078125 5 -4.859375 C 5.394531 -4.640625 5.703125 -4.332031 5.921875 -3.9375 C 6.140625 -3.539062 6.25 -3.082031 6.25 -2.5625 C 6.25 -2.03125 6.140625 -1.566406 5.921875 -1.171875 C 5.703125 -0.773438 5.394531 -0.46875 5 -0.25 C 4.613281 -0.03125 4.179688 0.078125 3.703125 0.078125 C 3.046875 0.078125 2.535156 -0.128906 2.171875 -0.546875 L 2.171875 1.84375 L 0.6875 1.84375 L 0.6875 -5.109375 L 2.09375 -5.109375 L 2.09375 -4.515625 C 2.46875 -4.960938 3.003906 -5.1875 3.703125 -5.1875 Z M 3.453125 -1.140625 C 3.828125 -1.140625 4.132812 -1.265625 4.375 -1.515625 C 4.625 -1.773438 4.75 -2.125 4.75 -2.5625 C 4.75 -2.988281 4.625 -3.328125 4.375 -3.578125 C 4.132812 -3.835938 3.828125 -3.96875 3.453125 -3.96875 C 3.066406 -3.96875 2.75 -3.835938 2.5 -3.578125 C 2.257812 -3.328125 2.140625 -2.988281 2.140625 -2.5625 C 2.140625 -2.125 2.257812 -1.773438 2.5 -1.515625 C 2.75 -1.265625 3.066406 -1.140625 3.453125 -1.140625 Z M 3.453125 -1.140625 "/></g></g></g><g fill="#000000" fill-opacity="1"><g transform="translate(285.746221, 209.546084)"><g><path d="M 0.6875 -7.046875 L 2.171875 -7.046875 L 2.171875 0 L 0.6875 0 Z M 0.6875 -7.046875 "/></g></g></g><g fill="#000000" fill-opacity="1"><g transform="translate(288.606328, 209.546084)"><g><path d="M 5.828125 -5.109375 L 5.828125 0 L 4.421875 0 L 4.421875 -0.609375 C 4.222656 -0.390625 3.988281 -0.21875 3.71875 -0.09375 C 3.445312 0.0195312 3.15625 0.078125 2.84375 0.078125 C 2.164062 0.078125 1.628906 -0.113281 1.234375 -0.5 C 0.847656 -0.882812 0.65625 -1.457031 0.65625 -2.21875 L 0.65625 -5.109375 L 2.140625 -5.109375 L 2.140625 -2.4375 C 2.140625 -1.613281 2.484375 -1.203125 3.171875 -1.203125 C 3.523438 -1.203125 3.804688 -1.316406 4.015625 -1.546875 C 4.234375 -1.785156 4.34375 -2.128906 4.34375 -2.578125 L 4.34375 -5.109375 Z M 5.828125 -5.109375 "/></g></g></g><g fill="#000000" fill-opacity="1"><g transform="translate(295.134218, 209.546084)"><g><path d="M 2.40625 0.078125 C 1.976562 0.078125 1.5625 0.0234375 1.15625 -0.078125 C 0.75 -0.179688 0.425781 -0.3125 0.1875 -0.46875 L 0.6875 -1.53125 C 0.914062 -1.394531 1.191406 -1.28125 1.515625 -1.1875 C 1.835938 -1.09375 2.148438 -1.046875 2.453125 -1.046875 C 3.085938 -1.046875 3.40625 -1.203125 3.40625 -1.515625 C 3.40625 -1.660156 3.316406 -1.765625 3.140625 -1.828125 C 2.972656 -1.890625 2.710938 -1.941406 2.359375 -1.984375 C 1.941406 -2.046875 1.59375 -2.117188 1.3125 -2.203125 C 1.039062 -2.285156 0.804688 -2.429688 0.609375 -2.640625 C 0.410156 -2.847656 0.3125 -3.144531 0.3125 -3.53125 C 0.3125 -3.851562 0.40625 -4.140625 0.59375 -4.390625 C 0.78125 -4.640625 1.050781 -4.832031 1.40625 -4.96875 C 1.769531 -5.113281 2.191406 -5.1875 2.671875 -5.1875 C 3.035156 -5.1875 3.394531 -5.144531 3.75 -5.0625 C 4.113281 -4.988281 4.410156 -4.878906 4.640625 -4.734375 L 4.15625 -3.6875 C 3.707031 -3.9375 3.210938 -4.0625 2.671875 -4.0625 C 2.359375 -4.0625 2.125 -4.015625 1.96875 -3.921875 C 1.8125 -3.835938 1.734375 -3.726562 1.734375 -3.59375 C 1.734375 -3.4375 1.816406 -3.320312 1.984375 -3.25 C 2.148438 -3.1875 2.421875 -3.128906 2.796875 -3.078125 C 3.210938 -3.003906 3.554688 -2.925781 3.828125 -2.84375 C 4.097656 -2.769531 4.328125 -2.628906 4.515625 -2.421875 C 4.710938 -2.210938 4.8125 -1.921875 4.8125 -1.546875 C 4.8125 -1.234375 4.71875 -0.953125 4.53125 -0.703125 C 4.34375 -0.453125 4.066406 -0.257812 3.703125 -0.125 C 3.335938 0.0078125 2.90625 0.078125 2.40625 0.078125 Z M 2.40625 0.078125 "/></g></g></g><g fill="#000000" fill-opacity="1"><g transform="translate(300.17979, 209.546084)"><g/></g></g><g fill="#000000" fill-opacity="1"><g transform="translate(302.868856, 209.546084)"><g><path d="M 3.703125 -5.1875 C 4.179688 -5.1875 4.613281 -5.078125 5 -4.859375 C 5.394531 -4.640625 5.703125 -4.332031 5.921875 -3.9375 C 6.140625 -3.539062 6.25 -3.082031 6.25 -2.5625 C 6.25 -2.03125 6.140625 -1.566406 5.921875 -1.171875 C 5.703125 -0.773438 5.394531 -0.46875 5 -0.25 C 4.613281 -0.03125 4.179688 0.078125 3.703125 0.078125 C 3.046875 0.078125 2.535156 -0.128906 2.171875 -0.546875 L 2.171875 1.84375 L 0.6875 1.84375 L 0.6875 -5.109375 L 2.09375 -5.109375 L 2.09375 -4.515625 C 2.46875 -4.960938 3.003906 -5.1875 3.703125 -5.1875 Z M 3.453125 -1.140625 C 3.828125 -1.140625 4.132812 -1.265625 4.375 -1.515625 C 4.625 -1.773438 4.75 -2.125 4.75 -2.5625 C 4.75 -2.988281 4.625 -3.328125 4.375 -3.578125 C 4.132812 -3.835938 3.828125 -3.96875 3.453125 -3.96875 C 3.066406 -3.96875 2.75 -3.835938 2.5 -3.578125 C 2.257812 -3.328125 2.140625 -2.988281 2.140625 -2.5625 C 2.140625 -2.125 2.257812 -1.773438 2.5 -1.515625 C 2.75 -1.265625 3.066406 -1.140625 3.453125 -1.140625 Z M 3.453125 -1.140625 "/></g></g></g><g fill="#000000" fill-opacity="1"><g transform="translate(309.42525, 209.546084)"><g><path d="M 5.6875 -2.53125 C 5.6875 -2.519531 5.675781 -2.390625 5.65625 -2.140625 L 1.796875 -2.140625 C 1.867188 -1.816406 2.03125 -1.5625 2.28125 -1.375 C 2.539062 -1.195312 2.867188 -1.109375 3.265625 -1.109375 C 3.523438 -1.109375 3.757812 -1.144531 3.96875 -1.21875 C 4.175781 -1.300781 4.367188 -1.429688 4.546875 -1.609375 L 5.328125 -0.75 C 4.847656 -0.195312 4.144531 0.078125 3.21875 0.078125 C 2.644531 0.078125 2.132812 -0.03125 1.6875 -0.25 C 1.25 -0.476562 0.90625 -0.789062 0.65625 -1.1875 C 0.414062 -1.59375 0.296875 -2.050781 0.296875 -2.5625 C 0.296875 -3.0625 0.414062 -3.507812 0.65625 -3.90625 C 0.894531 -4.3125 1.222656 -4.625 1.640625 -4.84375 C 2.054688 -5.070312 2.519531 -5.1875 3.03125 -5.1875 C 3.53125 -5.1875 3.984375 -5.078125 4.390625 -4.859375 C 4.796875 -4.648438 5.113281 -4.34375 5.34375 -3.9375 C 5.570312 -3.53125 5.6875 -3.0625 5.6875 -2.53125 Z M 3.046875 -4.0625 C 2.703125 -4.0625 2.414062 -3.96875 2.1875 -3.78125 C 1.96875 -3.59375 1.832031 -3.332031 1.78125 -3 L 4.296875 -3 C 4.242188 -3.320312 4.101562 -3.578125 3.875 -3.765625 C 3.644531 -3.960938 3.367188 -4.0625 3.046875 -4.0625 Z M 3.046875 -4.0625 "/></g></g></g><g fill="#000000" fill-opacity="1"><g transform="translate(315.421025, 209.546084)"><g><path d="M 3.984375 -0.25 C 3.835938 -0.132812 3.65625 -0.0507812 3.4375 0 C 3.226562 0.0507812 3.007812 0.078125 2.78125 0.078125 C 2.164062 0.078125 1.691406 -0.078125 1.359375 -0.390625 C 1.023438 -0.703125 0.859375 -1.15625 0.859375 -1.75 L 0.859375 -3.859375 L 0.078125 -3.859375 L 0.078125 -5 L 0.859375 -5 L 0.859375 -6.234375 L 2.34375 -6.234375 L 2.34375 -5 L 3.625 -5 L 3.625 -3.859375 L 2.34375 -3.859375 L 2.34375 -1.78125 C 2.34375 -1.5625 2.394531 -1.394531 2.5 -1.28125 C 2.613281 -1.164062 2.773438 -1.109375 2.984375 -1.109375 C 3.210938 -1.109375 3.410156 -1.171875 3.578125 -1.296875 Z M 3.984375 -0.25 "/></g></g></g><g fill="#000000" fill-opacity="1"><g transform="translate(319.554409, 209.546084)"><g><path d="M 0.6875 -5.109375 L 2.171875 -5.109375 L 2.171875 0 L 0.6875 0 Z M 1.4375 -5.828125 C 1.15625 -5.828125 0.929688 -5.90625 0.765625 -6.0625 C 0.597656 -6.21875 0.515625 -6.414062 0.515625 -6.65625 C 0.515625 -6.882812 0.597656 -7.078125 0.765625 -7.234375 C 0.929688 -7.390625 1.15625 -7.46875 1.4375 -7.46875 C 1.707031 -7.46875 1.925781 -7.390625 2.09375 -7.234375 C 2.269531 -7.085938 2.359375 -6.898438 2.359375 -6.671875 C 2.359375 -6.429688 2.269531 -6.226562 2.09375 -6.0625 C 1.925781 -5.90625 1.707031 -5.828125 1.4375 -5.828125 Z M 1.4375 -5.828125 "/></g></g></g><g fill="#000000" fill-opacity="1"><g transform="translate(322.414516, 209.546084)"><g><path d="M 3.984375 -0.25 C 3.835938 -0.132812 3.65625 -0.0507812 3.4375 0 C 3.226562 0.0507812 3.007812 0.078125 2.78125 0.078125 C 2.164062 0.078125 1.691406 -0.078125 1.359375 -0.390625 C 1.023438 -0.703125 0.859375 -1.15625 0.859375 -1.75 L 0.859375 -3.859375 L 0.078125 -3.859375 L 0.078125 -5 L 0.859375 -5 L 0.859375 -6.234375 L 2.34375 -6.234375 L 2.34375 -5 L 3.625 -5 L 3.625 -3.859375 L 2.34375 -3.859375 L 2.34375 -1.78125 C 2.34375 -1.5625 2.394531 -1.394531 2.5 -1.28125 C 2.613281 -1.164062 2.773438 -1.109375 2.984375 -1.109375 C 3.210938 -1.109375 3.410156 -1.171875 3.578125 -1.296875 Z M 3.984375 -0.25 "/></g></g></g><g fill="#000000" fill-opacity="1"><g transform="translate(326.386286, 209.546084)"><g><path d="M 5.6875 -2.53125 C 5.6875 -2.519531 5.675781 -2.390625 5.65625 -2.140625 L 1.796875 -2.140625 C 1.867188 -1.816406 2.03125 -1.5625 2.28125 -1.375 C 2.539062 -1.195312 2.867188 -1.109375 3.265625 -1.109375 C 3.523438 -1.109375 3.757812 -1.144531 3.96875 -1.21875 C 4.175781 -1.300781 4.367188 -1.429688 4.546875 -1.609375 L 5.328125 -0.75 C 4.847656 -0.195312 4.144531 0.078125 3.21875 0.078125 C 2.644531 0.078125 2.132812 -0.03125 1.6875 -0.25 C 1.25 -0.476562 0.90625 -0.789062 0.65625 -1.1875 C 0.414062 -1.59375 0.296875 -2.050781 0.296875 -2.5625 C 0.296875 -3.0625 0.414062 -3.507812 0.65625 -3.90625 C 0.894531 -4.3125 1.222656 -4.625 1.640625 -4.84375 C 2.054688 -5.070312 2.519531 -5.1875 3.03125 -5.1875 C 3.53125 -5.1875 3.984375 -5.078125 4.390625 -4.859375 C 4.796875 -4.648438 5.113281 -4.34375 5.34375 -3.9375 C 5.570312 -3.53125 5.6875 -3.0625 5.6875 -2.53125 Z M 3.046875 -4.0625 C 2.703125 -4.0625 2.414062 -3.96875 2.1875 -3.78125 C 1.96875 -3.59375 1.832031 -3.332031 1.78125 -3 L 4.296875 -3 C 4.242188 -3.320312 4.101562 -3.578125 3.875 -3.765625 C 3.644531 -3.960938 3.367188 -4.0625 3.046875 -4.0625 Z M 3.046875 -4.0625 "/></g></g></g><path fill="#ffffff" d="M 182.902344 257.671875 L 357.582031 257.671875 C 357.75 257.671875 357.910156 257.703125 358.066406 257.765625 C 358.21875 257.832031 358.359375 257.921875 358.476562 258.039062 C 358.59375 258.160156 358.6875 258.296875 358.75 258.449219 C 358.816406 258.605469 358.847656 258.765625 358.847656 258.933594 L 358.847656 357.398438 C 358.847656 357.566406 358.816406 357.726562 358.75 357.882812 C 358.6875 358.035156 358.59375 358.171875 358.476562 358.292969 C 358.359375 358.410156 358.21875 358.5 358.066406 358.566406 C 357.910156 358.628906 357.75 358.664062 357.582031 358.664062 L 182.902344 358.664062 C 182.734375 358.664062 182.570312 358.628906 182.417969 358.566406 C 182.261719 358.5 182.125 358.410156 182.007812 358.292969 C 181.886719 358.171875 181.796875 358.035156 181.734375 357.882812 C 181.667969 357.726562 181.636719 357.566406 181.636719 357.398438 L 181.636719 258.933594 C 181.636719 258.765625 181.667969 258.605469 181.734375 258.449219 C 181.796875 258.296875 181.886719 258.160156 182.007812 258.039062 C 182.125 257.921875 182.261719 257.832031 182.417969 257.765625 C 182.570312 257.703125 182.734375 257.671875 182.902344 257.671875 Z M 182.902344 257.671875 " fill-opacity="1" fill-rule="nonzero"/><path fill="#d5d1ec" d="M 182.902344 257.671875 L 357.582031 257.671875 C 357.75 257.671875 357.910156 257.703125 358.066406 257.765625 C 358.21875 257.832031 358.359375 257.921875 358.476562 258.039062 C 358.59375 258.160156 358.6875 258.296875 358.75 258.449219 C 358.816406 258.605469 358.847656 258.765625 358.847656 258.933594 L 358.847656 357.398438 C 358.847656 357.566406 358.816406 357.726562 358.75 357.882812 C 358.6875 358.035156 358.59375 358.171875 358.476562 358.292969 C 358.359375 358.410156 358.21875 358.5 358.066406 358.566406 C 357.910156 358.628906 357.75 358.664062 357.582031 358.664062 L 182.902344 358.664062 C 182.734375 358.664062 182.570312 358.628906 182.417969 358.566406 C 182.261719 358.5 182.125 358.410156 182.007812 358.292969 C 181.886719 358.171875 181.796875 358.035156 181.734375 357.882812 C 181.667969 357.726562 181.636719 357.566406 181.636719 357.398438 L 181.636719 258.933594 C 181.636719 258.765625 181.667969 258.605469 181.734375 258.449219 C 181.796875 258.296875 181.886719 258.160156 182.007812 258.039062 C 182.125 257.921875 182.261719 257.832031 182.417969 257.765625 C 182.570312 257.703125 182.734375 257.671875 182.902344 257.671875 Z M 182.902344 257.671875 " fill-opacity="1" fill-rule="nonzero"/><g fill="#000000" fill-opacity="1"><g transform="translate(208.352436, 312.119298)"><g><path d="M 6.40625 -1.765625 L 2.578125 -1.765625 L 1.84375 0 L -0.109375 0 L 3.5625 -8.25 L 5.453125 -8.25 L 9.140625 0 L 7.140625 0 Z M 5.8125 -3.21875 L 4.5 -6.375 L 3.1875 -3.21875 Z M 5.8125 -3.21875 "/></g></g></g><g fill="#000000" fill-opacity="1"><g transform="translate(217.379612, 312.119298)"><g><path d="M 8.96875 -6.4375 C 9.757812 -6.4375 10.390625 -6.203125 10.859375 -5.734375 C 11.328125 -5.265625 11.5625 -4.5625 11.5625 -3.625 L 11.5625 0 L 9.71875 0 L 9.71875 -3.34375 C 9.71875 -3.84375 9.613281 -4.21875 9.40625 -4.46875 C 9.195312 -4.71875 8.898438 -4.84375 8.515625 -4.84375 C 8.085938 -4.84375 7.742188 -4.703125 7.484375 -4.421875 C 7.234375 -4.140625 7.109375 -3.726562 7.109375 -3.1875 L 7.109375 0 L 5.28125 0 L 5.28125 -3.34375 C 5.28125 -4.34375 4.878906 -4.84375 4.078125 -4.84375 C 3.648438 -4.84375 3.3125 -4.703125 3.0625 -4.421875 C 2.8125 -4.140625 2.6875 -3.726562 2.6875 -3.1875 L 2.6875 0 L 0.84375 0 L 0.84375 -6.34375 L 2.609375 -6.34375 L 2.609375 -5.609375 C 2.835938 -5.878906 3.125 -6.082031 3.46875 -6.21875 C 3.8125 -6.363281 4.1875 -6.4375 4.59375 -6.4375 C 5.039062 -6.4375 5.441406 -6.347656 5.796875 -6.171875 C 6.160156 -5.992188 6.457031 -5.734375 6.6875 -5.390625 C 6.9375 -5.722656 7.257812 -5.976562 7.65625 -6.15625 C 8.0625 -6.34375 8.5 -6.4375 8.96875 -6.4375 Z M 8.96875 -6.4375 "/></g></g></g><g fill="#000000" fill-opacity="1"><g transform="translate(229.741892, 312.119298)"><g><path d="M 4.59375 -6.4375 C 5.1875 -6.4375 5.722656 -6.300781 6.203125 -6.03125 C 6.679688 -5.757812 7.054688 -5.375 7.328125 -4.875 C 7.609375 -4.382812 7.75 -3.816406 7.75 -3.171875 C 7.75 -2.515625 7.609375 -1.941406 7.328125 -1.453125 C 7.054688 -0.960938 6.679688 -0.582031 6.203125 -0.3125 C 5.722656 -0.0390625 5.1875 0.09375 4.59375 0.09375 C 3.71875 0.09375 3.054688 -0.179688 2.609375 -0.734375 L 2.609375 0 L 0.84375 0 L 0.84375 -8.734375 L 2.6875 -8.734375 L 2.6875 -5.671875 C 3.144531 -6.179688 3.78125 -6.4375 4.59375 -6.4375 Z M 4.28125 -1.40625 C 4.75 -1.40625 5.132812 -1.566406 5.4375 -1.890625 C 5.738281 -2.210938 5.890625 -2.640625 5.890625 -3.171875 C 5.890625 -3.703125 5.738281 -4.125 5.4375 -4.4375 C 5.132812 -4.757812 4.75 -4.921875 4.28125 -4.921875 C 3.800781 -4.921875 3.410156 -4.757812 3.109375 -4.4375 C 2.804688 -4.125 2.65625 -3.703125 2.65625 -3.171875 C 2.65625 -2.640625 2.804688 -2.210938 3.109375 -1.890625 C 3.410156 -1.566406 3.800781 -1.40625 4.28125 -1.40625 Z M 4.28125 -1.40625 "/></g></g></g><g fill="#000000" fill-opacity="1"><g transform="translate(237.873421, 312.119298)"><g><path d="M 0.84375 -6.34375 L 2.6875 -6.34375 L 2.6875 0 L 0.84375 0 Z M 1.765625 -7.21875 C 1.421875 -7.21875 1.144531 -7.316406 0.9375 -7.515625 C 0.726562 -7.710938 0.625 -7.957031 0.625 -8.25 C 0.625 -8.539062 0.726562 -8.78125 0.9375 -8.96875 C 1.144531 -9.164062 1.421875 -9.265625 1.765625 -9.265625 C 2.097656 -9.265625 2.367188 -9.171875 2.578125 -8.984375 C 2.796875 -8.796875 2.90625 -8.5625 2.90625 -8.28125 C 2.90625 -7.976562 2.796875 -7.722656 2.578125 -7.515625 C 2.367188 -7.316406 2.097656 -7.21875 1.765625 -7.21875 Z M 1.765625 -7.21875 "/></g></g></g><g fill="#000000" fill-opacity="1"><g transform="translate(241.420654, 312.119298)"><g><path d="M 3.40625 -6.4375 C 4.382812 -6.4375 5.132812 -6.203125 5.65625 -5.734375 C 6.1875 -5.265625 6.453125 -4.554688 6.453125 -3.609375 L 6.453125 0 L 4.734375 0 L 4.734375 -0.796875 C 4.390625 -0.203125 3.742188 0.09375 2.796875 0.09375 C 2.316406 0.09375 1.894531 0.0078125 1.53125 -0.15625 C 1.175781 -0.320312 0.90625 -0.546875 0.71875 -0.828125 C 0.53125 -1.117188 0.4375 -1.453125 0.4375 -1.828125 C 0.4375 -2.410156 0.65625 -2.867188 1.09375 -3.203125 C 1.539062 -3.546875 2.226562 -3.71875 3.15625 -3.71875 L 4.625 -3.71875 C 4.625 -4.125 4.5 -4.429688 4.25 -4.640625 C 4.007812 -4.859375 3.644531 -4.96875 3.15625 -4.96875 C 2.820312 -4.96875 2.488281 -4.914062 2.15625 -4.8125 C 1.832031 -4.707031 1.554688 -4.5625 1.328125 -4.375 L 0.671875 -5.671875 C 1.015625 -5.910156 1.425781 -6.097656 1.90625 -6.234375 C 2.394531 -6.367188 2.894531 -6.4375 3.40625 -6.4375 Z M 3.265625 -1.140625 C 3.578125 -1.140625 3.851562 -1.210938 4.09375 -1.359375 C 4.34375 -1.503906 4.519531 -1.71875 4.625 -2 L 4.625 -2.65625 L 3.359375 -2.65625 C 2.609375 -2.65625 2.234375 -2.40625 2.234375 -1.90625 C 2.234375 -1.675781 2.320312 -1.488281 2.5 -1.34375 C 2.6875 -1.207031 2.941406 -1.140625 3.265625 -1.140625 Z M 3.265625 -1.140625 "/></g></g></g><g fill="#000000" fill-opacity="1"><g transform="translate(248.691892, 312.119298)"><g><path d="M 4.703125 -6.4375 C 5.484375 -6.4375 6.113281 -6.195312 6.59375 -5.71875 C 7.082031 -5.25 7.328125 -4.550781 7.328125 -3.625 L 7.328125 0 L 5.484375 0 L 5.484375 -3.34375 C 5.484375 -3.84375 5.375 -4.21875 5.15625 -4.46875 C 4.9375 -4.71875 4.617188 -4.84375 4.203125 -4.84375 C 3.742188 -4.84375 3.375 -4.695312 3.09375 -4.40625 C 2.820312 -4.125 2.6875 -3.703125 2.6875 -3.140625 L 2.6875 0 L 0.84375 0 L 0.84375 -6.34375 L 2.609375 -6.34375 L 2.609375 -5.59375 C 2.847656 -5.863281 3.144531 -6.070312 3.5 -6.21875 C 3.863281 -6.363281 4.265625 -6.4375 4.703125 -6.4375 Z M 4.703125 -6.4375 "/></g></g></g><g fill="#000000" fill-opacity="1"><g transform="translate(256.905921, 312.119298)"><g><path d="M 3.90625 0.09375 C 3.226562 0.09375 2.617188 -0.046875 2.078125 -0.328125 C 1.546875 -0.609375 1.128906 -0.992188 0.828125 -1.484375 C 0.523438 -1.984375 0.375 -2.546875 0.375 -3.171875 C 0.375 -3.796875 0.523438 -4.351562 0.828125 -4.84375 C 1.128906 -5.34375 1.546875 -5.734375 2.078125 -6.015625 C 2.617188 -6.296875 3.226562 -6.4375 3.90625 -6.4375 C 4.570312 -6.4375 5.15625 -6.296875 5.65625 -6.015625 C 6.15625 -5.734375 6.519531 -5.332031 6.75 -4.8125 L 5.328125 -4.046875 C 4.992188 -4.628906 4.519531 -4.921875 3.90625 -4.921875 C 3.425781 -4.921875 3.023438 -4.765625 2.703125 -4.453125 C 2.390625 -4.140625 2.234375 -3.710938 2.234375 -3.171875 C 2.234375 -2.628906 2.390625 -2.195312 2.703125 -1.875 C 3.023438 -1.5625 3.425781 -1.40625 3.90625 -1.40625 C 4.53125 -1.40625 5.003906 -1.695312 5.328125 -2.28125 L 6.75 -1.515625 C 6.519531 -1.003906 6.15625 -0.609375 5.65625 -0.328125 C 5.15625 -0.046875 4.570312 0.09375 3.90625 0.09375 Z M 3.90625 0.09375 "/></g></g></g><g fill="#000000" fill-opacity="1"><g transform="translate(263.788248, 312.119298)"><g><path d="M 7.0625 -3.140625 C 7.0625 -3.117188 7.046875 -2.957031 7.015625 -2.65625 L 2.234375 -2.65625 C 2.316406 -2.257812 2.519531 -1.945312 2.84375 -1.71875 C 3.164062 -1.488281 3.566406 -1.375 4.046875 -1.375 C 4.367188 -1.375 4.65625 -1.421875 4.90625 -1.515625 C 5.164062 -1.617188 5.40625 -1.773438 5.625 -1.984375 L 6.609375 -0.9375 C 6.015625 -0.25 5.144531 0.09375 4 0.09375 C 3.28125 0.09375 2.644531 -0.046875 2.09375 -0.328125 C 1.539062 -0.609375 1.113281 -0.992188 0.8125 -1.484375 C 0.519531 -1.984375 0.375 -2.546875 0.375 -3.171875 C 0.375 -3.785156 0.519531 -4.34375 0.8125 -4.84375 C 1.113281 -5.34375 1.519531 -5.734375 2.03125 -6.015625 C 2.539062 -6.296875 3.117188 -6.4375 3.765625 -6.4375 C 4.378906 -6.4375 4.9375 -6.300781 5.4375 -6.03125 C 5.945312 -5.757812 6.34375 -5.375 6.625 -4.875 C 6.914062 -4.382812 7.0625 -3.804688 7.0625 -3.140625 Z M 3.765625 -5.046875 C 3.347656 -5.046875 3 -4.925781 2.71875 -4.6875 C 2.4375 -4.445312 2.265625 -4.125 2.203125 -3.71875 L 5.328125 -3.71875 C 5.265625 -4.125 5.085938 -4.445312 4.796875 -4.6875 C 4.515625 -4.925781 4.171875 -5.046875 3.765625 -5.046875 Z M 3.765625 -5.046875 "/></g></g></g><g fill="#000000" fill-opacity="1"><g transform="translate(271.224472, 312.119298)"><g/></g></g><g fill="#000000" fill-opacity="1"><g transform="translate(274.559575, 312.119298)"><g><path d="M 2.859375 -6.203125 L 4.484375 -6.203125 L 4.484375 -4.78125 L 2.90625 -4.78125 L 2.90625 0 L 1.078125 0 L 1.078125 -4.78125 L 0.09375 -4.78125 L 0.09375 -6.203125 L 1.078125 -6.203125 L 1.078125 -6.484375 C 1.078125 -7.203125 1.289062 -7.769531 1.71875 -8.1875 C 2.144531 -8.613281 2.742188 -8.828125 3.515625 -8.828125 C 3.796875 -8.828125 4.054688 -8.796875 4.296875 -8.734375 C 4.546875 -8.679688 4.753906 -8.601562 4.921875 -8.5 L 4.4375 -7.15625 C 4.226562 -7.3125 3.984375 -7.390625 3.703125 -7.390625 C 3.140625 -7.390625 2.859375 -7.082031 2.859375 -6.46875 Z M 2.859375 -6.203125 "/></g></g></g><g fill="#000000" fill-opacity="1"><g transform="translate(279.002442, 312.119298)"><g><path d="M 3.40625 -6.4375 C 4.382812 -6.4375 5.132812 -6.203125 5.65625 -5.734375 C 6.1875 -5.265625 6.453125 -4.554688 6.453125 -3.609375 L 6.453125 0 L 4.734375 0 L 4.734375 -0.796875 C 4.390625 -0.203125 3.742188 0.09375 2.796875 0.09375 C 2.316406 0.09375 1.894531 0.0078125 1.53125 -0.15625 C 1.175781 -0.320312 0.90625 -0.546875 0.71875 -0.828125 C 0.53125 -1.117188 0.4375 -1.453125 0.4375 -1.828125 C 0.4375 -2.410156 0.65625 -2.867188 1.09375 -3.203125 C 1.539062 -3.546875 2.226562 -3.71875 3.15625 -3.71875 L 4.625 -3.71875 C 4.625 -4.125 4.5 -4.429688 4.25 -4.640625 C 4.007812 -4.859375 3.644531 -4.96875 3.15625 -4.96875 C 2.820312 -4.96875 2.488281 -4.914062 2.15625 -4.8125 C 1.832031 -4.707031 1.554688 -4.5625 1.328125 -4.375 L 0.671875 -5.671875 C 1.015625 -5.910156 1.425781 -6.097656 1.90625 -6.234375 C 2.394531 -6.367188 2.894531 -6.4375 3.40625 -6.4375 Z M 3.265625 -1.140625 C 3.578125 -1.140625 3.851562 -1.210938 4.09375 -1.359375 C 4.34375 -1.503906 4.519531 -1.71875 4.625 -2 L 4.625 -2.65625 L 3.359375 -2.65625 C 2.609375 -2.65625 2.234375 -2.40625 2.234375 -1.90625 C 2.234375 -1.675781 2.320312 -1.488281 2.5 -1.34375 C 2.6875 -1.207031 2.941406 -1.140625 3.265625 -1.140625 Z M 3.265625 -1.140625 "/></g></g></g><g fill="#000000" fill-opacity="1"><g transform="translate(286.155818, 312.119298)"><g><path d="M 7.140625 -6.34375 L 4.46875 0 L 2.5625 0 L -0.09375 -6.34375 L 1.796875 -6.34375 L 3.5625 -2.03125 L 5.375 -6.34375 Z M 7.140625 -6.34375 "/></g></g></g><g fill="#000000" fill-opacity="1"><g transform="translate(293.026347, 312.119298)"><g><path d="M 3.859375 0.09375 C 3.191406 0.09375 2.59375 -0.046875 2.0625 -0.328125 C 1.53125 -0.609375 1.113281 -0.992188 0.8125 -1.484375 C 0.519531 -1.984375 0.375 -2.546875 0.375 -3.171875 C 0.375 -3.796875 0.519531 -4.351562 0.8125 -4.84375 C 1.113281 -5.34375 1.53125 -5.734375 2.0625 -6.015625 C 2.59375 -6.296875 3.191406 -6.4375 3.859375 -6.4375 C 4.523438 -6.4375 5.117188 -6.296875 5.640625 -6.015625 C 6.171875 -5.734375 6.585938 -5.34375 6.890625 -4.84375 C 7.191406 -4.351562 7.34375 -3.796875 7.34375 -3.171875 C 7.34375 -2.546875 7.191406 -1.984375 6.890625 -1.484375 C 6.585938 -0.992188 6.171875 -0.609375 5.640625 -0.328125 C 5.117188 -0.046875 4.523438 0.09375 3.859375 0.09375 Z M 3.859375 -1.40625 C 4.335938 -1.40625 4.726562 -1.566406 5.03125 -1.890625 C 5.332031 -2.210938 5.484375 -2.640625 5.484375 -3.171875 C 5.484375 -3.703125 5.332031 -4.125 5.03125 -4.4375 C 4.726562 -4.757812 4.335938 -4.921875 3.859375 -4.921875 C 3.390625 -4.921875 3 -4.757812 2.6875 -4.4375 C 2.382812 -4.125 2.234375 -3.703125 2.234375 -3.171875 C 2.234375 -2.640625 2.382812 -2.210938 2.6875 -1.890625 C 3 -1.566406 3.390625 -1.40625 3.859375 -1.40625 Z M 3.859375 -1.40625 "/></g></g></g><g fill="#000000" fill-opacity="1"><g transform="translate(300.745409, 312.119298)"><g><path d="M 2.609375 -5.5 C 2.828125 -5.8125 3.117188 -6.046875 3.484375 -6.203125 C 3.859375 -6.359375 4.289062 -6.4375 4.78125 -6.4375 L 4.78125 -4.734375 C 4.582031 -4.753906 4.445312 -4.765625 4.375 -4.765625 C 3.84375 -4.765625 3.425781 -4.613281 3.125 -4.3125 C 2.832031 -4.019531 2.6875 -3.582031 2.6875 -3 L 2.6875 0 L 0.84375 0 L 0.84375 -6.34375 L 2.609375 -6.34375 Z M 2.609375 -5.5 "/></g></g></g><g fill="#000000" fill-opacity="1"><g transform="translate(305.742167, 312.119298)"><g><path d="M 3.40625 -6.4375 C 4.382812 -6.4375 5.132812 -6.203125 5.65625 -5.734375 C 6.1875 -5.265625 6.453125 -4.554688 6.453125 -3.609375 L 6.453125 0 L 4.734375 0 L 4.734375 -0.796875 C 4.390625 -0.203125 3.742188 0.09375 2.796875 0.09375 C 2.316406 0.09375 1.894531 0.0078125 1.53125 -0.15625 C 1.175781 -0.320312 0.90625 -0.546875 0.71875 -0.828125 C 0.53125 -1.117188 0.4375 -1.453125 0.4375 -1.828125 C 0.4375 -2.410156 0.65625 -2.867188 1.09375 -3.203125 C 1.539062 -3.546875 2.226562 -3.71875 3.15625 -3.71875 L 4.625 -3.71875 C 4.625 -4.125 4.5 -4.429688 4.25 -4.640625 C 4.007812 -4.859375 3.644531 -4.96875 3.15625 -4.96875 C 2.820312 -4.96875 2.488281 -4.914062 2.15625 -4.8125 C 1.832031 -4.707031 1.554688 -4.5625 1.328125 -4.375 L 0.671875 -5.671875 C 1.015625 -5.910156 1.425781 -6.097656 1.90625 -6.234375 C 2.394531 -6.367188 2.894531 -6.4375 3.40625 -6.4375 Z M 3.265625 -1.140625 C 3.578125 -1.140625 3.851562 -1.210938 4.09375 -1.359375 C 4.34375 -1.503906 4.519531 -1.71875 4.625 -2 L 4.625 -2.65625 L 3.359375 -2.65625 C 2.609375 -2.65625 2.234375 -2.40625 2.234375 -1.90625 C 2.234375 -1.675781 2.320312 -1.488281 2.5 -1.34375 C 2.6875 -1.207031 2.941406 -1.140625 3.265625 -1.140625 Z M 3.265625 -1.140625 "/></g></g></g><g fill="#000000" fill-opacity="1"><g transform="translate(313.013409, 312.119298)"><g><path d="M 4.59375 -6.4375 C 5.1875 -6.4375 5.722656 -6.300781 6.203125 -6.03125 C 6.679688 -5.757812 7.054688 -5.375 7.328125 -4.875 C 7.609375 -4.382812 7.75 -3.816406 7.75 -3.171875 C 7.75 -2.515625 7.609375 -1.941406 7.328125 -1.453125 C 7.054688 -0.960938 6.679688 -0.582031 6.203125 -0.3125 C 5.722656 -0.0390625 5.1875 0.09375 4.59375 0.09375 C 3.71875 0.09375 3.054688 -0.179688 2.609375 -0.734375 L 2.609375 0 L 0.84375 0 L 0.84375 -8.734375 L 2.6875 -8.734375 L 2.6875 -5.671875 C 3.144531 -6.179688 3.78125 -6.4375 4.59375 -6.4375 Z M 4.28125 -1.40625 C 4.75 -1.40625 5.132812 -1.566406 5.4375 -1.890625 C 5.738281 -2.210938 5.890625 -2.640625 5.890625 -3.171875 C 5.890625 -3.703125 5.738281 -4.125 5.4375 -4.4375 C 5.132812 -4.757812 4.75 -4.921875 4.28125 -4.921875 C 3.800781 -4.921875 3.410156 -4.757812 3.109375 -4.4375 C 2.804688 -4.125 2.65625 -3.703125 2.65625 -3.171875 C 2.65625 -2.640625 2.804688 -2.210938 3.109375 -1.890625 C 3.410156 -1.566406 3.800781 -1.40625 4.28125 -1.40625 Z M 4.28125 -1.40625 "/></g></g></g><g fill="#000000" fill-opacity="1"><g transform="translate(321.144938, 312.119298)"><g><path d="M 0.84375 -8.734375 L 2.6875 -8.734375 L 2.6875 0 L 0.84375 0 Z M 0.84375 -8.734375 "/></g></g></g><g fill="#000000" fill-opacity="1"><g transform="translate(324.692176, 312.119298)"><g><path d="M 7.0625 -3.140625 C 7.0625 -3.117188 7.046875 -2.957031 7.015625 -2.65625 L 2.234375 -2.65625 C 2.316406 -2.257812 2.519531 -1.945312 2.84375 -1.71875 C 3.164062 -1.488281 3.566406 -1.375 4.046875 -1.375 C 4.367188 -1.375 4.65625 -1.421875 4.90625 -1.515625 C 5.164062 -1.617188 5.40625 -1.773438 5.625 -1.984375 L 6.609375 -0.9375 C 6.015625 -0.25 5.144531 0.09375 4 0.09375 C 3.28125 0.09375 2.644531 -0.046875 2.09375 -0.328125 C 1.539062 -0.609375 1.113281 -0.992188 0.8125 -1.484375 C 0.519531 -1.984375 0.375 -2.546875 0.375 -3.171875 C 0.375 -3.785156 0.519531 -4.34375 0.8125 -4.84375 C 1.113281 -5.34375 1.519531 -5.734375 2.03125 -6.015625 C 2.539062 -6.296875 3.117188 -6.4375 3.765625 -6.4375 C 4.378906 -6.4375 4.9375 -6.300781 5.4375 -6.03125 C 5.945312 -5.757812 6.34375 -5.375 6.625 -4.875 C 6.914062 -4.382812 7.0625 -3.804688 7.0625 -3.140625 Z M 3.765625 -5.046875 C 3.347656 -5.046875 3 -4.925781 2.71875 -4.6875 C 2.4375 -4.445312 2.265625 -4.125 2.203125 -3.71875 L 5.328125 -3.71875 C 5.265625 -4.125 5.085938 -4.445312 4.796875 -4.6875 C 4.515625 -4.925781 4.171875 -5.046875 3.765625 -5.046875 Z M 3.765625 -5.046875 "/></g></g></g></svg>