<svg xmlns="http://www.w3.org/2000/svg" xmlns:xlink="http://www.w3.org/1999/xlink" width="914" zoomAndPan="magnify" viewBox="0 0 685.5 567.000005" height="756" preserveAspectRatio="xMidYMid meet" version="1.0"><defs><g/><clipPath id="5814d2ed42"><path d="M 0.355469 0 L 684.648438 0 L 684.648438 566 L 0.355469 566 Z M 0.355469 0 " clip-rule="nonzero"/></clipPath></defs><g clip-path="url(#5814d2ed42)"><path fill="#ffffff" d="M 0.355469 0 L 684.648438 0 L 684.648438 566 L 0.355469 566 Z M 0.355469 0 " fill-opacity="1" fill-rule="nonzero"/></g><path fill="#fbdfc5" d="M 349.746094 0.109375 C 355.371094 0.109375 360.992188 0.292969 366.605469 0.664062 C 372.21875 1.03125 377.816406 1.582031 383.394531 2.316406 C 388.972656 3.050781 394.519531 3.964844 400.039062 5.0625 C 405.554688 6.160156 411.03125 7.4375 416.464844 8.894531 C 421.898438 10.351562 427.28125 11.984375 432.609375 13.789062 C 437.9375 15.597656 443.199219 17.582031 448.394531 19.734375 C 453.59375 21.886719 458.714844 24.207031 463.761719 26.695312 C 468.808594 29.183594 473.765625 31.835938 478.640625 34.648438 C 483.511719 37.460938 488.285156 40.429688 492.964844 43.554688 C 497.640625 46.679688 502.210938 49.957031 506.675781 53.382812 C 511.140625 56.804688 515.488281 60.375 519.714844 64.082031 C 523.945312 67.792969 528.050781 71.636719 532.027344 75.613281 C 536.007812 79.59375 539.851562 83.695312 543.558594 87.925781 C 547.269531 92.15625 550.835938 96.503906 554.261719 100.964844 C 557.6875 105.429688 560.960938 110 564.085938 114.679688 C 567.214844 119.355469 570.183594 124.132812 572.996094 129.003906 C 575.808594 133.875 578.460938 138.835938 580.949219 143.878906 C 583.4375 148.925781 585.757812 154.046875 587.910156 159.246094 C 590.0625 164.445312 592.042969 169.707031 593.851562 175.035156 C 595.660156 180.363281 597.292969 185.742188 598.75 191.175781 C 600.203125 196.609375 601.480469 202.085938 602.578125 207.605469 C 603.675781 213.125 604.59375 218.671875 605.328125 224.25 C 606.0625 229.828125 606.613281 235.421875 606.980469 241.035156 C 607.347656 246.652344 607.53125 252.269531 607.53125 257.898438 C 607.53125 263.523438 607.347656 269.144531 606.980469 274.757812 C 606.613281 280.371094 606.0625 285.96875 605.328125 291.542969 C 604.59375 297.121094 603.675781 302.671875 602.578125 308.1875 C 601.480469 313.707031 600.203125 319.183594 598.75 324.617188 C 597.292969 330.050781 595.660156 335.433594 593.851562 340.757812 C 592.042969 346.085938 590.0625 351.351562 587.910156 356.546875 C 585.757812 361.746094 583.4375 366.867188 580.949219 371.914062 C 578.460938 376.957031 575.808594 381.917969 572.996094 386.789062 L 461.371094 322.34375 C 462.777344 319.90625 464.101562 317.429688 465.347656 314.90625 C 466.589844 312.382812 467.75 309.820312 468.828125 307.222656 C 469.902344 304.625 470.894531 301.992188 471.796875 299.328125 C 472.703125 296.664062 473.519531 293.972656 474.246094 291.257812 C 474.976562 288.539062 475.613281 285.800781 476.164062 283.042969 C 476.710938 280.285156 477.167969 277.511719 477.535156 274.722656 C 477.902344 271.933594 478.179688 269.132812 478.363281 266.328125 C 478.546875 263.519531 478.640625 260.710938 478.640625 257.898438 C 478.640625 255.082031 478.546875 252.273438 478.363281 249.46875 C 478.179688 246.660156 477.902344 243.863281 477.535156 241.074219 C 477.167969 238.285156 476.710938 235.511719 476.164062 232.75 C 475.613281 229.992188 474.976562 227.253906 474.246094 224.535156 C 473.519531 221.820312 472.703125 219.128906 471.796875 216.464844 C 470.894531 213.800781 469.902344 211.171875 468.828125 208.570312 C 467.75 205.972656 466.589844 203.410156 465.347656 200.890625 C 464.101562 198.367188 462.777344 195.886719 461.371094 193.449219 C 459.964844 191.015625 458.480469 188.625 456.917969 186.289062 C 455.355469 183.949219 453.714844 181.664062 452.003906 179.429688 C 450.292969 177.199219 448.507812 175.027344 446.652344 172.910156 C 444.796875 170.796875 442.875 168.746094 440.886719 166.753906 C 438.898438 164.765625 436.847656 162.84375 434.730469 160.988281 C 432.617188 159.136719 430.441406 157.351562 428.210938 155.640625 C 425.980469 153.925781 423.695312 152.289062 421.355469 150.726562 C 419.015625 149.164062 416.628906 147.679688 414.191406 146.273438 C 411.757812 144.867188 409.277344 143.539062 406.753906 142.296875 C 404.230469 141.050781 401.671875 139.890625 399.070312 138.816406 C 396.472656 137.738281 393.839844 136.75 391.175781 135.84375 C 388.511719 134.941406 385.824219 134.125 383.105469 133.394531 C 380.386719 132.667969 377.652344 132.027344 374.890625 131.480469 C 372.132812 130.929688 369.359375 130.472656 366.570312 130.105469 C 363.78125 129.738281 360.984375 129.464844 358.175781 129.28125 C 355.367188 129.09375 352.558594 129.003906 349.746094 129.003906 Z M 349.746094 0.109375 " fill-opacity="1" fill-rule="nonzero"/><path fill="#d5d1ec" d="M 572.996094 386.789062 C 570.183594 391.664062 567.214844 396.4375 564.085938 401.117188 C 560.960938 405.792969 557.6875 410.363281 554.261719 414.828125 C 550.835938 419.289062 547.269531 423.636719 543.558594 427.867188 C 539.851562 432.097656 536.007812 436.203125 532.027344 440.179688 C 528.050781 444.15625 523.945312 448 519.714844 451.710938 C 515.488281 455.421875 511.140625 458.988281 506.675781 462.414062 C 502.210938 465.835938 497.640625 469.113281 492.964844 472.238281 C 488.285156 475.363281 483.511719 478.332031 478.640625 481.148438 C 473.765625 483.960938 468.808594 486.609375 463.761719 489.097656 C 458.714844 491.585938 453.59375 493.90625 448.394531 496.0625 C 443.199219 498.214844 437.9375 500.195312 432.609375 502.003906 C 427.28125 503.8125 421.898438 505.445312 416.464844 506.898438 C 411.03125 508.355469 405.554688 509.632812 400.039062 510.730469 C 394.519531 511.828125 388.972656 512.742188 383.394531 513.476562 C 377.816406 514.210938 372.21875 514.761719 366.605469 515.132812 C 360.992188 515.5 355.371094 515.683594 349.746094 515.683594 C 344.121094 515.683594 338.5 515.5 332.886719 515.132812 C 327.273438 514.761719 321.675781 514.210938 316.097656 513.476562 C 310.519531 512.742188 304.972656 511.828125 299.453125 510.730469 C 293.9375 509.632812 288.460938 508.355469 283.027344 506.898438 C 277.589844 505.445312 272.210938 503.8125 266.882812 502.003906 C 261.554688 500.195312 256.292969 498.214844 251.09375 496.0625 C 245.898438 493.90625 240.777344 491.585938 235.730469 489.097656 C 230.683594 486.609375 225.726562 483.960938 220.851562 481.148438 C 215.980469 478.332031 211.203125 475.363281 206.527344 472.238281 C 201.847656 469.113281 197.277344 465.835938 192.816406 462.414062 C 188.351562 458.988281 184.003906 455.421875 179.773438 451.710938 C 175.546875 448 171.441406 444.15625 167.464844 440.179688 C 163.484375 436.203125 159.640625 432.097656 155.929688 427.867188 C 152.222656 423.636719 148.65625 419.289062 145.230469 414.828125 C 141.804688 410.363281 138.53125 405.792969 135.402344 401.117188 C 132.277344 396.4375 129.308594 391.664062 126.496094 386.789062 L 238.121094 322.34375 C 239.527344 324.78125 241.011719 327.167969 242.574219 329.507812 C 244.136719 331.84375 245.773438 334.128906 247.488281 336.363281 C 249.199219 338.59375 250.984375 340.765625 252.839844 342.882812 C 254.691406 344.996094 256.617188 347.050781 258.605469 349.039062 C 260.59375 351.027344 262.644531 352.949219 264.761719 354.804688 C 266.875 356.660156 269.046875 358.441406 271.28125 360.15625 C 273.511719 361.867188 275.796875 363.503906 278.136719 365.066406 C 280.476562 366.628906 282.863281 368.113281 285.300781 369.523438 C 287.734375 370.929688 290.214844 372.253906 292.738281 373.496094 C 295.261719 374.742188 297.820312 375.902344 300.421875 376.980469 C 303.019531 378.054688 305.652344 379.046875 308.3125 379.949219 C 310.976562 380.855469 313.667969 381.671875 316.386719 382.398438 C 319.101562 383.125 321.839844 383.765625 324.601562 384.3125 C 327.359375 384.863281 330.132812 385.320312 332.921875 385.6875 C 335.710938 386.054688 338.507812 386.332031 341.316406 386.515625 C 344.121094 386.699219 346.933594 386.789062 349.746094 386.789062 C 352.558594 386.789062 355.367188 386.699219 358.175781 386.515625 C 360.984375 386.332031 363.78125 386.054688 366.570312 385.6875 C 369.359375 385.320312 372.132812 384.863281 374.890625 384.3125 C 377.652344 383.765625 380.386719 383.125 383.105469 382.398438 C 385.824219 381.671875 388.511719 380.855469 391.175781 379.949219 C 393.839844 379.046875 396.472656 378.054688 399.070312 376.980469 C 401.671875 375.902344 404.230469 374.742188 406.753906 373.496094 C 409.277344 372.253906 411.757812 370.929688 414.191406 369.523438 C 416.628906 368.113281 419.015625 366.628906 421.355469 365.066406 C 423.695312 363.503906 425.980469 361.867188 428.210938 360.15625 C 430.441406 358.441406 432.617188 356.660156 434.730469 354.804688 C 436.847656 352.949219 438.898438 351.027344 440.886719 349.039062 C 442.875 347.050781 444.796875 344.996094 446.652344 342.882812 C 448.507812 340.765625 450.292969 338.59375 452.003906 336.363281 C 453.714844 334.128906 455.355469 331.84375 456.917969 329.507812 C 458.480469 327.167969 459.964844 324.78125 461.371094 322.34375 Z M 572.996094 386.789062 " fill-opacity="1" fill-rule="nonzero"/><path fill="#e5c0c0" d="M 126.496094 386.789062 C 123.683594 381.917969 121.03125 376.960938 118.542969 371.914062 C 116.054688 366.867188 113.734375 361.746094 111.582031 356.550781 C 109.429688 351.351562 107.449219 346.089844 105.640625 340.761719 C 103.832031 335.433594 102.199219 330.054688 100.742188 324.621094 C 99.289062 319.1875 98.011719 313.710938 96.914062 308.191406 C 95.816406 302.675781 94.898438 297.128906 94.164062 291.550781 C 93.429688 285.972656 92.878906 280.375 92.511719 274.761719 C 92.144531 269.148438 91.960938 263.527344 91.960938 257.902344 C 91.957031 252.277344 92.144531 246.65625 92.511719 241.042969 C 92.878906 235.429688 93.429688 229.835938 94.164062 224.257812 C 94.898438 218.679688 95.8125 213.132812 96.910156 207.613281 C 98.007812 202.097656 99.285156 196.621094 100.742188 191.1875 C 102.195312 185.753906 103.828125 180.371094 105.636719 175.042969 C 107.445312 169.714844 109.425781 164.453125 111.578125 159.257812 C 113.730469 154.058594 116.050781 148.9375 118.539062 143.890625 C 121.027344 138.847656 123.675781 133.886719 126.488281 129.015625 C 129.300781 124.140625 132.269531 119.367188 135.394531 114.691406 C 138.523438 110.011719 141.796875 105.441406 145.222656 100.976562 C 148.644531 96.515625 152.210938 92.167969 155.921875 87.9375 C 159.628906 83.707031 163.472656 79.605469 167.453125 75.625 C 171.429688 71.648438 175.53125 67.804688 179.761719 64.09375 C 183.992188 60.382812 188.339844 56.816406 192.800781 53.390625 C 197.265625 49.964844 201.835938 46.691406 206.511719 43.566406 C 211.1875 40.441406 215.964844 37.46875 220.835938 34.65625 C 225.707031 31.84375 230.667969 29.191406 235.710938 26.703125 C 240.757812 24.214844 245.878906 21.894531 251.074219 19.742188 C 256.273438 17.585938 261.535156 15.605469 266.863281 13.796875 C 272.1875 11.988281 277.570312 10.355469 283.003906 8.898438 C 288.4375 7.445312 293.914062 6.167969 299.429688 5.066406 C 304.949219 3.96875 310.496094 3.054688 316.074219 2.320312 C 321.652344 1.585938 327.246094 1.03125 332.859375 0.664062 C 338.472656 0.296875 344.09375 0.109375 349.71875 0.109375 L 349.734375 129.003906 C 346.921875 129.003906 344.109375 129.097656 341.304688 129.28125 C 338.496094 129.464844 335.699219 129.742188 332.910156 130.109375 C 330.121094 130.476562 327.347656 130.933594 324.589844 131.484375 C 321.828125 132.03125 319.089844 132.671875 316.375 133.398438 C 313.65625 134.125 310.96875 134.941406 308.304688 135.847656 C 305.640625 136.75 303.007812 137.742188 300.410156 138.820312 C 297.8125 139.894531 295.25 141.054688 292.730469 142.300781 C 290.207031 143.542969 287.726562 144.871094 285.289062 146.277344 C 282.855469 147.683594 280.46875 149.167969 278.128906 150.730469 C 275.789062 152.292969 273.503906 153.933594 271.273438 155.644531 C 269.042969 157.355469 266.867188 159.140625 264.753906 160.996094 C 262.640625 162.851562 260.585938 164.773438 258.597656 166.761719 C 256.609375 168.75 254.6875 170.800781 252.832031 172.917969 C 250.980469 175.03125 249.195312 177.207031 247.484375 179.4375 C 245.769531 181.667969 244.132812 183.953125 242.570312 186.292969 C 241.007812 188.632812 239.523438 191.019531 238.117188 193.457031 C 236.710938 195.890625 235.386719 198.371094 234.140625 200.894531 C 232.898438 203.417969 231.738281 205.976562 230.660156 208.578125 C 229.585938 211.175781 228.59375 213.808594 227.691406 216.46875 C 226.785156 219.132812 225.972656 221.824219 225.242188 224.542969 C 224.515625 227.257812 223.875 229.996094 223.328125 232.753906 C 222.78125 235.515625 222.320312 238.289062 221.953125 241.078125 C 221.585938 243.867188 221.3125 246.664062 221.128906 249.46875 C 220.945312 252.277344 220.851562 255.085938 220.851562 257.898438 C 220.851562 260.714844 220.945312 263.523438 221.128906 266.328125 C 221.3125 269.136719 221.589844 271.933594 221.957031 274.722656 C 222.324219 277.511719 222.78125 280.285156 223.328125 283.042969 C 223.878906 285.804688 224.515625 288.542969 225.246094 291.257812 C 225.972656 293.976562 226.789062 296.664062 227.691406 299.328125 C 228.597656 301.992188 229.585938 304.625 230.664062 307.222656 C 231.742188 309.820312 232.902344 312.382812 234.144531 314.90625 C 235.390625 317.429688 236.714844 319.90625 238.121094 322.34375 Z M 126.496094 386.789062 " fill-opacity="1" fill-rule="nonzero"/><g fill="#000000" fill-opacity="1"><g transform="translate(575.398469, 88.346515)"><g><path d="M 22.265625 -13.65625 L 17.796875 0 L 14.40625 0 L 11.390625 -9.25 L 8.296875 0 L 4.921875 0 L 0.421875 -13.65625 L 3.703125 -13.65625 L 6.796875 -4.0625 L 10.015625 -13.65625 L 12.9375 -13.65625 L 16.0625 -3.984375 L 19.25 -13.65625 Z M 22.265625 -13.65625 "/></g></g></g><g fill="#000000" fill-opacity="1"><g transform="translate(597.994585, 88.346515)"><g><path d="M 1.40625 -10.5 L 4.453125 -10.5 L 4.453125 0 L 1.40625 0 Z M 2.921875 -11.96875 C 2.367188 -11.96875 1.914062 -12.128906 1.5625 -12.453125 C 1.207031 -12.773438 1.03125 -13.175781 1.03125 -13.65625 C 1.03125 -14.144531 1.207031 -14.550781 1.5625 -14.875 C 1.914062 -15.195312 2.367188 -15.359375 2.921875 -15.359375 C 3.484375 -15.359375 3.9375 -15.203125 4.28125 -14.890625 C 4.632812 -14.578125 4.8125 -14.1875 4.8125 -13.71875 C 4.8125 -13.207031 4.632812 -12.785156 4.28125 -12.453125 C 3.9375 -12.128906 3.484375 -11.96875 2.921875 -11.96875 Z M 2.921875 -11.96875 "/></g></g></g><g fill="#000000" fill-opacity="1"><g transform="translate(603.868015, 88.346515)"><g><path d="M 5.90625 -4.125 L 4.453125 -2.671875 L 4.453125 0 L 1.40625 0 L 1.40625 -14.484375 L 4.453125 -14.484375 L 4.453125 -6.28125 L 8.90625 -10.5 L 12.53125 -10.5 L 8.15625 -6.046875 L 12.921875 0 L 9.234375 0 Z M 5.90625 -4.125 "/></g></g></g><g fill="#000000" fill-opacity="1"><g transform="translate(616.668582, 88.346515)"><g><path d="M 1.40625 -10.5 L 4.453125 -10.5 L 4.453125 0 L 1.40625 0 Z M 2.921875 -11.96875 C 2.367188 -11.96875 1.914062 -12.128906 1.5625 -12.453125 C 1.207031 -12.773438 1.03125 -13.175781 1.03125 -13.65625 C 1.03125 -14.144531 1.207031 -14.550781 1.5625 -14.875 C 1.914062 -15.195312 2.367188 -15.359375 2.921875 -15.359375 C 3.484375 -15.359375 3.9375 -15.203125 4.28125 -14.890625 C 4.632812 -14.578125 4.8125 -14.1875 4.8125 -13.71875 C 4.8125 -13.207031 4.632812 -12.785156 4.28125 -12.453125 C 3.9375 -12.128906 3.484375 -11.96875 2.921875 -11.96875 Z M 2.921875 -11.96875 "/></g></g></g><g fill="#000000" fill-opacity="1"><g transform="translate(622.542013, 88.346515)"><g><path d="M 7.609375 -10.65625 C 8.585938 -10.65625 9.472656 -10.429688 10.265625 -9.984375 C 11.066406 -9.535156 11.695312 -8.90625 12.15625 -8.09375 C 12.613281 -7.28125 12.84375 -6.332031 12.84375 -5.25 C 12.84375 -4.164062 12.613281 -3.21875 12.15625 -2.40625 C 11.695312 -1.59375 11.066406 -0.960938 10.265625 -0.515625 C 9.472656 -0.0664062 8.585938 0.15625 7.609375 0.15625 C 6.265625 0.15625 5.210938 -0.265625 4.453125 -1.109375 L 4.453125 3.78125 L 1.40625 3.78125 L 1.40625 -10.5 L 4.3125 -10.5 L 4.3125 -9.296875 C 5.0625 -10.203125 6.160156 -10.65625 7.609375 -10.65625 Z M 7.078125 -2.34375 C 7.859375 -2.34375 8.5 -2.601562 9 -3.125 C 9.5 -3.65625 9.75 -4.363281 9.75 -5.25 C 9.75 -6.132812 9.5 -6.835938 9 -7.359375 C 8.5 -7.890625 7.859375 -8.15625 7.078125 -8.15625 C 6.296875 -8.15625 5.65625 -7.890625 5.15625 -7.359375 C 4.65625 -6.835938 4.40625 -6.132812 4.40625 -5.25 C 4.40625 -4.363281 4.65625 -3.65625 5.15625 -3.125 C 5.65625 -2.601562 6.296875 -2.34375 7.078125 -2.34375 Z M 7.078125 -2.34375 "/></g></g></g><g fill="#000000" fill-opacity="1"><g transform="translate(636.006032, 88.346515)"><g><path d="M 11.6875 -5.203125 C 11.6875 -5.171875 11.664062 -4.898438 11.625 -4.390625 L 3.6875 -4.390625 C 3.832031 -3.742188 4.171875 -3.226562 4.703125 -2.84375 C 5.234375 -2.46875 5.894531 -2.28125 6.6875 -2.28125 C 7.238281 -2.28125 7.722656 -2.359375 8.140625 -2.515625 C 8.566406 -2.679688 8.960938 -2.941406 9.328125 -3.296875 L 10.953125 -1.546875 C 9.960938 -0.410156 8.515625 0.15625 6.609375 0.15625 C 5.429688 0.15625 4.382812 -0.0703125 3.46875 -0.53125 C 2.5625 -1 1.859375 -1.640625 1.359375 -2.453125 C 0.867188 -3.273438 0.625 -4.207031 0.625 -5.25 C 0.625 -6.28125 0.867188 -7.207031 1.359375 -8.03125 C 1.847656 -8.851562 2.515625 -9.492188 3.359375 -9.953125 C 4.210938 -10.421875 5.164062 -10.65625 6.21875 -10.65625 C 7.25 -10.65625 8.179688 -10.429688 9.015625 -9.984375 C 9.847656 -9.546875 10.5 -8.910156 10.96875 -8.078125 C 11.445312 -7.253906 11.6875 -6.296875 11.6875 -5.203125 Z M 6.25 -8.359375 C 5.550781 -8.359375 4.96875 -8.160156 4.5 -7.765625 C 4.039062 -7.378906 3.757812 -6.847656 3.65625 -6.171875 L 8.828125 -6.171875 C 8.722656 -6.828125 8.4375 -7.351562 7.96875 -7.75 C 7.5 -8.15625 6.925781 -8.359375 6.25 -8.359375 Z M 7.015625 -14.65625 L 10.296875 -14.65625 L 6.765625 -11.84375 L 4.390625 -11.84375 Z M 7.015625 -14.65625 "/></g></g></g><g fill="#000000" fill-opacity="1"><g transform="translate(648.318776, 88.346515)"><g><path d="M 12.09375 -14.484375 L 12.09375 0 L 9.1875 0 L 9.1875 -1.203125 C 8.4375 -0.296875 7.34375 0.15625 5.90625 0.15625 C 4.925781 0.15625 4.035156 -0.0625 3.234375 -0.5 C 2.429688 -0.945312 1.800781 -1.578125 1.34375 -2.390625 C 0.882812 -3.210938 0.65625 -4.164062 0.65625 -5.25 C 0.65625 -6.332031 0.882812 -7.28125 1.34375 -8.09375 C 1.800781 -8.914062 2.429688 -9.546875 3.234375 -9.984375 C 4.035156 -10.429688 4.925781 -10.65625 5.90625 -10.65625 C 7.25 -10.65625 8.300781 -10.234375 9.0625 -9.390625 L 9.0625 -14.484375 Z M 6.4375 -2.34375 C 7.207031 -2.34375 7.84375 -2.601562 8.34375 -3.125 C 8.851562 -3.65625 9.109375 -4.363281 9.109375 -5.25 C 9.109375 -6.132812 8.851562 -6.835938 8.34375 -7.359375 C 7.84375 -7.890625 7.207031 -8.15625 6.4375 -8.15625 C 5.65625 -8.15625 5.007812 -7.890625 4.5 -7.359375 C 4 -6.835938 3.75 -6.132812 3.75 -5.25 C 3.75 -4.363281 4 -3.65625 4.5 -3.125 C 5.007812 -2.601562 5.65625 -2.34375 6.4375 -2.34375 Z M 6.4375 -2.34375 "/></g></g></g><g fill="#000000" fill-opacity="1"><g transform="translate(661.82182, 88.346515)"><g><path d="M 1.40625 -10.5 L 4.453125 -10.5 L 4.453125 0 L 1.40625 0 Z M 2.921875 -11.96875 C 2.367188 -11.96875 1.914062 -12.128906 1.5625 -12.453125 C 1.207031 -12.773438 1.03125 -13.175781 1.03125 -13.65625 C 1.03125 -14.144531 1.207031 -14.550781 1.5625 -14.875 C 1.914062 -15.195312 2.367188 -15.359375 2.921875 -15.359375 C 3.484375 -15.359375 3.9375 -15.203125 4.28125 -14.890625 C 4.632812 -14.578125 4.8125 -14.1875 4.8125 -13.71875 C 4.8125 -13.207031 4.632812 -12.785156 4.28125 -12.453125 C 3.9375 -12.128906 3.484375 -11.96875 2.921875 -11.96875 Z M 2.921875 -11.96875 "/></g></g></g><g fill="#000000" fill-opacity="1"><g transform="translate(667.69525, 88.346515)"><g><path d="M 5.640625 -10.65625 C 7.265625 -10.65625 8.507812 -10.265625 9.375 -9.484375 C 10.25 -8.710938 10.6875 -7.546875 10.6875 -5.984375 L 10.6875 0 L 7.84375 0 L 7.84375 -1.3125 C 7.269531 -0.332031 6.203125 0.15625 4.640625 0.15625 C 3.835938 0.15625 3.140625 0.0195312 2.546875 -0.25 C 1.953125 -0.519531 1.5 -0.894531 1.1875 -1.375 C 0.875 -1.863281 0.71875 -2.414062 0.71875 -3.03125 C 0.71875 -4 1.082031 -4.765625 1.8125 -5.328125 C 2.550781 -5.890625 3.691406 -6.171875 5.234375 -6.171875 L 7.65625 -6.171875 C 7.65625 -6.828125 7.453125 -7.332031 7.046875 -7.6875 C 6.640625 -8.050781 6.035156 -8.234375 5.234375 -8.234375 C 4.671875 -8.234375 4.117188 -8.144531 3.578125 -7.96875 C 3.035156 -7.789062 2.578125 -7.554688 2.203125 -7.265625 L 1.109375 -9.390625 C 1.679688 -9.785156 2.367188 -10.09375 3.171875 -10.3125 C 3.972656 -10.539062 4.796875 -10.65625 5.640625 -10.65625 Z M 5.40625 -1.890625 C 5.925781 -1.890625 6.382812 -2.007812 6.78125 -2.25 C 7.1875 -2.488281 7.476562 -2.84375 7.65625 -3.3125 L 7.65625 -4.390625 L 5.5625 -4.390625 C 4.3125 -4.390625 3.6875 -3.976562 3.6875 -3.15625 C 3.6875 -2.769531 3.835938 -2.460938 4.140625 -2.234375 C 4.453125 -2.003906 4.875 -1.890625 5.40625 -1.890625 Z M 5.40625 -1.890625 "/></g></g></g><g fill="#000000" fill-opacity="1"><g transform="translate(599.16814, 114.612496)"><g><path d="M 7.140625 -8.09375 C 8.335938 -7.90625 9.253906 -7.460938 9.890625 -6.765625 C 10.523438 -6.066406 10.84375 -5.203125 10.84375 -4.171875 C 10.84375 -3.378906 10.632812 -2.644531 10.21875 -1.96875 C 9.8125 -1.300781 9.179688 -0.765625 8.328125 -0.359375 C 7.472656 0.0351562 6.425781 0.234375 5.1875 0.234375 C 4.226562 0.234375 3.28125 0.109375 2.34375 -0.140625 C 1.414062 -0.398438 0.628906 -0.765625 -0.015625 -1.234375 L 1.203125 -3.65625 C 1.722656 -3.257812 2.328125 -2.953125 3.015625 -2.734375 C 3.703125 -2.523438 4.398438 -2.421875 5.109375 -2.421875 C 5.898438 -2.421875 6.523438 -2.570312 6.984375 -2.875 C 7.441406 -3.1875 7.671875 -3.617188 7.671875 -4.171875 C 7.671875 -5.296875 6.816406 -5.859375 5.109375 -5.859375 L 3.671875 -5.859375 L 3.671875 -7.9375 L 6.484375 -11.125 L 0.65625 -11.125 L 0.65625 -13.65625 L 10.21875 -13.65625 L 10.21875 -11.609375 Z M 7.140625 -8.09375 "/></g></g></g><g fill="#000000" fill-opacity="1"><g transform="translate(610.622301, 114.612496)"><g><path d="M 7.140625 -8.09375 C 8.335938 -7.90625 9.253906 -7.460938 9.890625 -6.765625 C 10.523438 -6.066406 10.84375 -5.203125 10.84375 -4.171875 C 10.84375 -3.378906 10.632812 -2.644531 10.21875 -1.96875 C 9.8125 -1.300781 9.179688 -0.765625 8.328125 -0.359375 C 7.472656 0.0351562 6.425781 0.234375 5.1875 0.234375 C 4.226562 0.234375 3.28125 0.109375 2.34375 -0.140625 C 1.414062 -0.398438 0.628906 -0.765625 -0.015625 -1.234375 L 1.203125 -3.65625 C 1.722656 -3.257812 2.328125 -2.953125 3.015625 -2.734375 C 3.703125 -2.523438 4.398438 -2.421875 5.109375 -2.421875 C 5.898438 -2.421875 6.523438 -2.570312 6.984375 -2.875 C 7.441406 -3.1875 7.671875 -3.617188 7.671875 -4.171875 C 7.671875 -5.296875 6.816406 -5.859375 5.109375 -5.859375 L 3.671875 -5.859375 L 3.671875 -7.9375 L 6.484375 -11.125 L 0.65625 -11.125 L 0.65625 -13.65625 L 10.21875 -13.65625 L 10.21875 -11.609375 Z M 7.140625 -8.09375 "/></g></g></g><g fill="#000000" fill-opacity="1"><g transform="translate(622.174041, 114.612496)"><g><path d="M 2.5625 0.15625 C 2.019531 0.15625 1.566406 -0.0234375 1.203125 -0.390625 C 0.835938 -0.753906 0.65625 -1.207031 0.65625 -1.75 C 0.65625 -2.3125 0.835938 -2.765625 1.203125 -3.109375 C 1.566406 -3.453125 2.019531 -3.625 2.5625 -3.625 C 3.09375 -3.625 3.539062 -3.453125 3.90625 -3.109375 C 4.269531 -2.765625 4.453125 -2.3125 4.453125 -1.75 C 4.453125 -1.207031 4.269531 -0.753906 3.90625 -0.390625 C 3.539062 -0.0234375 3.09375 0.15625 2.5625 0.15625 Z M 2.5625 0.15625 "/></g></g></g><g fill="#000000" fill-opacity="1"><g transform="translate(627.48162, 114.612496)"><g><path d="M 7.140625 -8.09375 C 8.335938 -7.90625 9.253906 -7.460938 9.890625 -6.765625 C 10.523438 -6.066406 10.84375 -5.203125 10.84375 -4.171875 C 10.84375 -3.378906 10.632812 -2.644531 10.21875 -1.96875 C 9.8125 -1.300781 9.179688 -0.765625 8.328125 -0.359375 C 7.472656 0.0351562 6.425781 0.234375 5.1875 0.234375 C 4.226562 0.234375 3.28125 0.109375 2.34375 -0.140625 C 1.414062 -0.398438 0.628906 -0.765625 -0.015625 -1.234375 L 1.203125 -3.65625 C 1.722656 -3.257812 2.328125 -2.953125 3.015625 -2.734375 C 3.703125 -2.523438 4.398438 -2.421875 5.109375 -2.421875 C 5.898438 -2.421875 6.523438 -2.570312 6.984375 -2.875 C 7.441406 -3.1875 7.671875 -3.617188 7.671875 -4.171875 C 7.671875 -5.296875 6.816406 -5.859375 5.109375 -5.859375 L 3.671875 -5.859375 L 3.671875 -7.9375 L 6.484375 -11.125 L 0.65625 -11.125 L 0.65625 -13.65625 L 10.21875 -13.65625 L 10.21875 -11.609375 Z M 7.140625 -8.09375 "/></g></g></g><g fill="#000000" fill-opacity="1"><g transform="translate(638.838209, 114.612496)"><g><path d="M 3.921875 -6.28125 C 2.921875 -6.28125 2.101562 -6.617188 1.46875 -7.296875 C 0.84375 -7.984375 0.53125 -8.898438 0.53125 -10.046875 C 0.53125 -11.191406 0.84375 -12.101562 1.46875 -12.78125 C 2.101562 -13.46875 2.921875 -13.8125 3.921875 -13.8125 C 4.921875 -13.8125 5.734375 -13.46875 6.359375 -12.78125 C 6.984375 -12.101562 7.296875 -11.191406 7.296875 -10.046875 C 7.296875 -8.898438 6.984375 -7.984375 6.359375 -7.296875 C 5.734375 -6.617188 4.921875 -6.28125 3.921875 -6.28125 Z M 12.0625 -13.65625 L 14.390625 -13.65625 L 5.046875 0 L 2.734375 0 Z M 3.921875 -7.890625 C 4.367188 -7.890625 4.71875 -8.070312 4.96875 -8.4375 C 5.21875 -8.800781 5.34375 -9.335938 5.34375 -10.046875 C 5.34375 -10.765625 5.21875 -11.304688 4.96875 -11.671875 C 4.71875 -12.035156 4.367188 -12.21875 3.921875 -12.21875 C 3.492188 -12.21875 3.148438 -12.03125 2.890625 -11.65625 C 2.628906 -11.289062 2.5 -10.753906 2.5 -10.046875 C 2.5 -9.347656 2.628906 -8.8125 2.890625 -8.4375 C 3.148438 -8.070312 3.492188 -7.890625 3.921875 -7.890625 Z M 13.1875 0.15625 C 12.539062 0.15625 11.957031 0.00390625 11.4375 -0.296875 C 10.925781 -0.609375 10.523438 -1.050781 10.234375 -1.625 C 9.953125 -2.195312 9.8125 -2.859375 9.8125 -3.609375 C 9.8125 -4.367188 9.953125 -5.03125 10.234375 -5.59375 C 10.523438 -6.164062 10.925781 -6.601562 11.4375 -6.90625 C 11.957031 -7.21875 12.539062 -7.375 13.1875 -7.375 C 14.1875 -7.375 15.003906 -7.03125 15.640625 -6.34375 C 16.273438 -5.664062 16.59375 -4.753906 16.59375 -3.609375 C 16.59375 -2.460938 16.273438 -1.546875 15.640625 -0.859375 C 15.003906 -0.179688 14.1875 0.15625 13.1875 0.15625 Z M 13.1875 -1.4375 C 13.632812 -1.4375 13.984375 -1.625 14.234375 -2 C 14.484375 -2.375 14.609375 -2.910156 14.609375 -3.609375 C 14.609375 -4.316406 14.484375 -4.851562 14.234375 -5.21875 C 13.984375 -5.59375 13.632812 -5.78125 13.1875 -5.78125 C 12.757812 -5.78125 12.414062 -5.597656 12.15625 -5.234375 C 11.894531 -4.867188 11.765625 -4.328125 11.765625 -3.609375 C 11.765625 -2.890625 11.894531 -2.347656 12.15625 -1.984375 C 12.414062 -1.617188 12.757812 -1.4375 13.1875 -1.4375 Z M 13.1875 -1.4375 "/></g></g></g><g fill="#000000" fill-opacity="1"><g transform="translate(310.292036, 533.983102)"><g><path d="M 7.53125 -13.65625 C 8.738281 -13.65625 9.785156 -13.453125 10.671875 -13.046875 C 11.566406 -12.648438 12.253906 -12.078125 12.734375 -11.328125 C 13.222656 -10.585938 13.46875 -9.710938 13.46875 -8.703125 C 13.46875 -7.703125 13.222656 -6.828125 12.734375 -6.078125 C 12.253906 -5.328125 11.566406 -4.753906 10.671875 -4.359375 C 9.785156 -3.960938 8.738281 -3.765625 7.53125 -3.765625 L 4.78125 -3.765625 L 4.78125 0 L 1.625 0 L 1.625 -13.65625 Z M 7.359375 -6.34375 C 8.304688 -6.34375 9.023438 -6.546875 9.515625 -6.953125 C 10.015625 -7.367188 10.265625 -7.953125 10.265625 -8.703125 C 10.265625 -9.472656 10.015625 -10.0625 9.515625 -10.46875 C 9.023438 -10.875 8.304688 -11.078125 7.359375 -11.078125 L 4.78125 -11.078125 L 4.78125 -6.34375 Z M 7.359375 -6.34375 "/></g></g></g><g fill="#000000" fill-opacity="1"><g transform="translate(324.282874, 533.983102)"><g><path d="M 5.640625 -10.65625 C 7.265625 -10.65625 8.507812 -10.265625 9.375 -9.484375 C 10.25 -8.710938 10.6875 -7.546875 10.6875 -5.984375 L 10.6875 0 L 7.84375 0 L 7.84375 -1.3125 C 7.269531 -0.332031 6.203125 0.15625 4.640625 0.15625 C 3.835938 0.15625 3.140625 0.0195312 2.546875 -0.25 C 1.953125 -0.519531 1.5 -0.894531 1.1875 -1.375 C 0.875 -1.863281 0.71875 -2.414062 0.71875 -3.03125 C 0.71875 -4 1.082031 -4.765625 1.8125 -5.328125 C 2.550781 -5.890625 3.691406 -6.171875 5.234375 -6.171875 L 7.65625 -6.171875 C 7.65625 -6.828125 7.453125 -7.332031 7.046875 -7.6875 C 6.640625 -8.050781 6.035156 -8.234375 5.234375 -8.234375 C 4.671875 -8.234375 4.117188 -8.144531 3.578125 -7.96875 C 3.035156 -7.789062 2.578125 -7.554688 2.203125 -7.265625 L 1.109375 -9.390625 C 1.679688 -9.785156 2.367188 -10.09375 3.171875 -10.3125 C 3.972656 -10.539062 4.796875 -10.65625 5.640625 -10.65625 Z M 5.40625 -1.890625 C 5.925781 -1.890625 6.382812 -2.007812 6.78125 -2.25 C 7.1875 -2.488281 7.476562 -2.84375 7.65625 -3.3125 L 7.65625 -4.390625 L 5.5625 -4.390625 C 4.3125 -4.390625 3.6875 -3.976562 3.6875 -3.15625 C 3.6875 -2.769531 3.835938 -2.460938 4.140625 -2.234375 C 4.453125 -2.003906 4.875 -1.890625 5.40625 -1.890625 Z M 5.40625 -1.890625 "/></g></g></g><g fill="#000000" fill-opacity="1"><g transform="translate(336.322438, 533.983102)"><g><path d="M 4.3125 -9.109375 C 4.675781 -9.617188 5.164062 -10.003906 5.78125 -10.265625 C 6.40625 -10.523438 7.117188 -10.65625 7.921875 -10.65625 L 7.921875 -7.84375 C 7.585938 -7.875 7.359375 -7.890625 7.234375 -7.890625 C 6.367188 -7.890625 5.6875 -7.644531 5.1875 -7.15625 C 4.695312 -6.664062 4.453125 -5.929688 4.453125 -4.953125 L 4.453125 0 L 1.40625 0 L 1.40625 -10.5 L 4.3125 -10.5 Z M 4.3125 -9.109375 "/></g></g></g><g fill="#000000" fill-opacity="1"><g transform="translate(344.556927, 533.983102)"><g><path d="M 11.6875 -5.203125 C 11.6875 -5.171875 11.664062 -4.898438 11.625 -4.390625 L 3.6875 -4.390625 C 3.832031 -3.742188 4.171875 -3.226562 4.703125 -2.84375 C 5.234375 -2.46875 5.894531 -2.28125 6.6875 -2.28125 C 7.238281 -2.28125 7.722656 -2.359375 8.140625 -2.515625 C 8.566406 -2.679688 8.960938 -2.941406 9.328125 -3.296875 L 10.953125 -1.546875 C 9.960938 -0.410156 8.515625 0.15625 6.609375 0.15625 C 5.429688 0.15625 4.382812 -0.0703125 3.46875 -0.53125 C 2.5625 -1 1.859375 -1.640625 1.359375 -2.453125 C 0.867188 -3.273438 0.625 -4.207031 0.625 -5.25 C 0.625 -6.28125 0.867188 -7.207031 1.359375 -8.03125 C 1.847656 -8.851562 2.515625 -9.492188 3.359375 -9.953125 C 4.210938 -10.421875 5.164062 -10.65625 6.21875 -10.65625 C 7.25 -10.65625 8.179688 -10.429688 9.015625 -9.984375 C 9.847656 -9.546875 10.5 -8.910156 10.96875 -8.078125 C 11.445312 -7.253906 11.6875 -6.296875 11.6875 -5.203125 Z M 6.25 -8.359375 C 5.550781 -8.359375 4.96875 -8.160156 4.5 -7.765625 C 4.039062 -7.378906 3.757812 -6.847656 3.65625 -6.171875 L 8.828125 -6.171875 C 8.722656 -6.828125 8.4375 -7.351562 7.96875 -7.75 C 7.5 -8.15625 6.925781 -8.359375 6.25 -8.359375 Z M 6.25 -8.359375 "/></g></g></g><g fill="#000000" fill-opacity="1"><g transform="translate(356.86967, 533.983102)"><g><path d="M 7.78125 -10.65625 C 9.082031 -10.65625 10.132812 -10.265625 10.9375 -9.484375 C 11.738281 -8.703125 12.140625 -7.546875 12.140625 -6.015625 L 12.140625 0 L 9.09375 0 L 9.09375 -5.546875 C 9.09375 -6.378906 8.910156 -7 8.546875 -7.40625 C 8.179688 -7.8125 7.65625 -8.015625 6.96875 -8.015625 C 6.195312 -8.015625 5.582031 -7.773438 5.125 -7.296875 C 4.675781 -6.828125 4.453125 -6.125 4.453125 -5.1875 L 4.453125 0 L 1.40625 0 L 1.40625 -10.5 L 4.3125 -10.5 L 4.3125 -9.265625 C 4.71875 -9.710938 5.21875 -10.054688 5.8125 -10.296875 C 6.414062 -10.535156 7.070312 -10.65625 7.78125 -10.65625 Z M 7.78125 -10.65625 "/></g></g></g><g fill="#000000" fill-opacity="1"><g transform="translate(370.353202, 533.983102)"><g><path d="M 8.171875 -0.5 C 7.878906 -0.28125 7.515625 -0.113281 7.078125 0 C 6.640625 0.101562 6.179688 0.15625 5.703125 0.15625 C 4.453125 0.15625 3.484375 -0.160156 2.796875 -0.796875 C 2.117188 -1.429688 1.78125 -2.367188 1.78125 -3.609375 L 1.78125 -7.921875 L 0.15625 -7.921875 L 0.15625 -10.265625 L 1.78125 -10.265625 L 1.78125 -12.828125 L 4.828125 -12.828125 L 4.828125 -10.265625 L 7.4375 -10.265625 L 7.4375 -7.921875 L 4.828125 -7.921875 L 4.828125 -3.65625 C 4.828125 -3.207031 4.9375 -2.863281 5.15625 -2.625 C 5.382812 -2.382812 5.707031 -2.265625 6.125 -2.265625 C 6.601562 -2.265625 7.015625 -2.394531 7.359375 -2.65625 Z M 8.171875 -0.5 "/></g></g></g><g fill="#000000" fill-opacity="1"><g transform="translate(378.841388, 533.983102)"><g><path d="M 4.9375 0.15625 C 4.0625 0.15625 3.207031 0.0507812 2.375 -0.15625 C 1.539062 -0.375 0.878906 -0.644531 0.390625 -0.96875 L 1.40625 -3.15625 C 1.875 -2.863281 2.4375 -2.617188 3.09375 -2.421875 C 3.757812 -2.234375 4.410156 -2.140625 5.046875 -2.140625 C 6.335938 -2.140625 6.984375 -2.460938 6.984375 -3.109375 C 6.984375 -3.398438 6.804688 -3.609375 6.453125 -3.734375 C 6.109375 -3.867188 5.570312 -3.984375 4.84375 -4.078125 C 3.976562 -4.210938 3.265625 -4.363281 2.703125 -4.53125 C 2.148438 -4.695312 1.664062 -4.992188 1.25 -5.421875 C 0.84375 -5.847656 0.640625 -6.460938 0.640625 -7.265625 C 0.640625 -7.921875 0.832031 -8.503906 1.21875 -9.015625 C 1.601562 -9.535156 2.160156 -9.9375 2.890625 -10.21875 C 3.628906 -10.507812 4.5 -10.65625 5.5 -10.65625 C 6.238281 -10.65625 6.976562 -10.570312 7.71875 -10.40625 C 8.457031 -10.25 9.066406 -10.023438 9.546875 -9.734375 L 8.53125 -7.578125 C 7.601562 -8.097656 6.59375 -8.359375 5.5 -8.359375 C 4.851562 -8.359375 4.363281 -8.265625 4.03125 -8.078125 C 3.707031 -7.898438 3.546875 -7.664062 3.546875 -7.375 C 3.546875 -7.050781 3.722656 -6.820312 4.078125 -6.6875 C 4.429688 -6.5625 4.988281 -6.441406 5.75 -6.328125 C 6.613281 -6.179688 7.316406 -6.023438 7.859375 -5.859375 C 8.410156 -5.703125 8.882812 -5.40625 9.28125 -4.96875 C 9.6875 -4.539062 9.890625 -3.945312 9.890625 -3.1875 C 9.890625 -2.53125 9.691406 -1.945312 9.296875 -1.4375 C 8.910156 -0.9375 8.34375 -0.546875 7.59375 -0.265625 C 6.851562 0.015625 5.96875 0.15625 4.9375 0.15625 Z M 4.9375 0.15625 "/></g></g></g><g fill="#000000" fill-opacity="1"><g transform="translate(321.351398, 557.70305)"><g><path d="M 7.140625 -8.09375 C 8.335938 -7.90625 9.253906 -7.460938 9.890625 -6.765625 C 10.523438 -6.066406 10.84375 -5.203125 10.84375 -4.171875 C 10.84375 -3.378906 10.632812 -2.644531 10.21875 -1.96875 C 9.8125 -1.300781 9.179688 -0.765625 8.328125 -0.359375 C 7.472656 0.0351562 6.425781 0.234375 5.1875 0.234375 C 4.226562 0.234375 3.28125 0.109375 2.34375 -0.140625 C 1.414062 -0.398438 0.628906 -0.765625 -0.015625 -1.234375 L 1.203125 -3.65625 C 1.722656 -3.257812 2.328125 -2.953125 3.015625 -2.734375 C 3.703125 -2.523438 4.398438 -2.421875 5.109375 -2.421875 C 5.898438 -2.421875 6.523438 -2.570312 6.984375 -2.875 C 7.441406 -3.1875 7.671875 -3.617188 7.671875 -4.171875 C 7.671875 -5.296875 6.816406 -5.859375 5.109375 -5.859375 L 3.671875 -5.859375 L 3.671875 -7.9375 L 6.484375 -11.125 L 0.65625 -11.125 L 0.65625 -13.65625 L 10.21875 -13.65625 L 10.21875 -11.609375 Z M 7.140625 -8.09375 "/></g></g></g><g fill="#000000" fill-opacity="1"><g transform="translate(332.805559, 557.70305)"><g><path d="M 7.140625 -8.09375 C 8.335938 -7.90625 9.253906 -7.460938 9.890625 -6.765625 C 10.523438 -6.066406 10.84375 -5.203125 10.84375 -4.171875 C 10.84375 -3.378906 10.632812 -2.644531 10.21875 -1.96875 C 9.8125 -1.300781 9.179688 -0.765625 8.328125 -0.359375 C 7.472656 0.0351562 6.425781 0.234375 5.1875 0.234375 C 4.226562 0.234375 3.28125 0.109375 2.34375 -0.140625 C 1.414062 -0.398438 0.628906 -0.765625 -0.015625 -1.234375 L 1.203125 -3.65625 C 1.722656 -3.257812 2.328125 -2.953125 3.015625 -2.734375 C 3.703125 -2.523438 4.398438 -2.421875 5.109375 -2.421875 C 5.898438 -2.421875 6.523438 -2.570312 6.984375 -2.875 C 7.441406 -3.1875 7.671875 -3.617188 7.671875 -4.171875 C 7.671875 -5.296875 6.816406 -5.859375 5.109375 -5.859375 L 3.671875 -5.859375 L 3.671875 -7.9375 L 6.484375 -11.125 L 0.65625 -11.125 L 0.65625 -13.65625 L 10.21875 -13.65625 L 10.21875 -11.609375 Z M 7.140625 -8.09375 "/></g></g></g><g fill="#000000" fill-opacity="1"><g transform="translate(344.357299, 557.70305)"><g><path d="M 2.5625 0.15625 C 2.019531 0.15625 1.566406 -0.0234375 1.203125 -0.390625 C 0.835938 -0.753906 0.65625 -1.207031 0.65625 -1.75 C 0.65625 -2.3125 0.835938 -2.765625 1.203125 -3.109375 C 1.566406 -3.453125 2.019531 -3.625 2.5625 -3.625 C 3.09375 -3.625 3.539062 -3.453125 3.90625 -3.109375 C 4.269531 -2.765625 4.453125 -2.3125 4.453125 -1.75 C 4.453125 -1.207031 4.269531 -0.753906 3.90625 -0.390625 C 3.539062 -0.0234375 3.09375 0.15625 2.5625 0.15625 Z M 2.5625 0.15625 "/></g></g></g><g fill="#000000" fill-opacity="1"><g transform="translate(349.664877, 557.70305)"><g><path d="M 7.140625 -8.09375 C 8.335938 -7.90625 9.253906 -7.460938 9.890625 -6.765625 C 10.523438 -6.066406 10.84375 -5.203125 10.84375 -4.171875 C 10.84375 -3.378906 10.632812 -2.644531 10.21875 -1.96875 C 9.8125 -1.300781 9.179688 -0.765625 8.328125 -0.359375 C 7.472656 0.0351562 6.425781 0.234375 5.1875 0.234375 C 4.226562 0.234375 3.28125 0.109375 2.34375 -0.140625 C 1.414062 -0.398438 0.628906 -0.765625 -0.015625 -1.234375 L 1.203125 -3.65625 C 1.722656 -3.257812 2.328125 -2.953125 3.015625 -2.734375 C 3.703125 -2.523438 4.398438 -2.421875 5.109375 -2.421875 C 5.898438 -2.421875 6.523438 -2.570312 6.984375 -2.875 C 7.441406 -3.1875 7.671875 -3.617188 7.671875 -4.171875 C 7.671875 -5.296875 6.816406 -5.859375 5.109375 -5.859375 L 3.671875 -5.859375 L 3.671875 -7.9375 L 6.484375 -11.125 L 0.65625 -11.125 L 0.65625 -13.65625 L 10.21875 -13.65625 L 10.21875 -11.609375 Z M 7.140625 -8.09375 "/></g></g></g><g fill="#000000" fill-opacity="1"><g transform="translate(361.021467, 557.70305)"><g><path d="M 3.921875 -6.28125 C 2.921875 -6.28125 2.101562 -6.617188 1.46875 -7.296875 C 0.84375 -7.984375 0.53125 -8.898438 0.53125 -10.046875 C 0.53125 -11.191406 0.84375 -12.101562 1.46875 -12.78125 C 2.101562 -13.46875 2.921875 -13.8125 3.921875 -13.8125 C 4.921875 -13.8125 5.734375 -13.46875 6.359375 -12.78125 C 6.984375 -12.101562 7.296875 -11.191406 7.296875 -10.046875 C 7.296875 -8.898438 6.984375 -7.984375 6.359375 -7.296875 C 5.734375 -6.617188 4.921875 -6.28125 3.921875 -6.28125 Z M 12.0625 -13.65625 L 14.390625 -13.65625 L 5.046875 0 L 2.734375 0 Z M 3.921875 -7.890625 C 4.367188 -7.890625 4.71875 -8.070312 4.96875 -8.4375 C 5.21875 -8.800781 5.34375 -9.335938 5.34375 -10.046875 C 5.34375 -10.765625 5.21875 -11.304688 4.96875 -11.671875 C 4.71875 -12.035156 4.367188 -12.21875 3.921875 -12.21875 C 3.492188 -12.21875 3.148438 -12.03125 2.890625 -11.65625 C 2.628906 -11.289062 2.5 -10.753906 2.5 -10.046875 C 2.5 -9.347656 2.628906 -8.8125 2.890625 -8.4375 C 3.148438 -8.070312 3.492188 -7.890625 3.921875 -7.890625 Z M 13.1875 0.15625 C 12.539062 0.15625 11.957031 0.00390625 11.4375 -0.296875 C 10.925781 -0.609375 10.523438 -1.050781 10.234375 -1.625 C 9.953125 -2.195312 9.8125 -2.859375 9.8125 -3.609375 C 9.8125 -4.367188 9.953125 -5.03125 10.234375 -5.59375 C 10.523438 -6.164062 10.925781 -6.601562 11.4375 -6.90625 C 11.957031 -7.21875 12.539062 -7.375 13.1875 -7.375 C 14.1875 -7.375 15.003906 -7.03125 15.640625 -6.34375 C 16.273438 -5.664062 16.59375 -4.753906 16.59375 -3.609375 C 16.59375 -2.460938 16.273438 -1.546875 15.640625 -0.859375 C 15.003906 -0.179688 14.1875 0.15625 13.1875 0.15625 Z M 13.1875 -1.4375 C 13.632812 -1.4375 13.984375 -1.625 14.234375 -2 C 14.484375 -2.375 14.609375 -2.910156 14.609375 -3.609375 C 14.609375 -4.316406 14.484375 -4.851562 14.234375 -5.21875 C 13.984375 -5.59375 13.632812 -5.78125 13.1875 -5.78125 C 12.757812 -5.78125 12.414062 -5.597656 12.15625 -5.234375 C 11.894531 -4.867188 11.765625 -4.328125 11.765625 -3.609375 C 11.765625 -2.890625 11.894531 -2.347656 12.15625 -1.984375 C 12.414062 -1.617188 12.757812 -1.4375 13.1875 -1.4375 Z M 13.1875 -1.4375 "/></g></g></g><g fill="#000000" fill-opacity="1"><g transform="translate(6.239146, 86.695567)"><g><path d="M 10.609375 -2.921875 L 4.28125 -2.921875 L 3.0625 0 L -0.171875 0 L 5.90625 -13.65625 L 9.03125 -13.65625 L 15.140625 0 L 11.828125 0 Z M 9.625 -5.328125 L 7.453125 -10.5625 L 5.28125 -5.328125 Z M 9.625 -5.328125 "/></g></g></g><g fill="#000000" fill-opacity="1"><g transform="translate(20.991006, 86.695567)"><g><path d="M 11.984375 -10.5 L 11.984375 0 L 9.09375 0 L 9.09375 -1.25 C 8.6875 -0.789062 8.203125 -0.441406 7.640625 -0.203125 C 7.085938 0.0351562 6.484375 0.15625 5.828125 0.15625 C 4.453125 0.15625 3.359375 -0.238281 2.546875 -1.03125 C 1.742188 -1.820312 1.34375 -3 1.34375 -4.5625 L 1.34375 -10.5 L 4.390625 -10.5 L 4.390625 -5.015625 C 4.390625 -3.328125 5.097656 -2.484375 6.515625 -2.484375 C 7.242188 -2.484375 7.828125 -2.71875 8.265625 -3.1875 C 8.710938 -3.664062 8.9375 -4.375 8.9375 -5.3125 L 8.9375 -10.5 Z M 11.984375 -10.5 "/></g></g></g><g fill="#000000" fill-opacity="1"><g transform="translate(34.396479, 86.695567)"><g><path d="M 8.171875 -0.5 C 7.878906 -0.28125 7.515625 -0.113281 7.078125 0 C 6.640625 0.101562 6.179688 0.15625 5.703125 0.15625 C 4.453125 0.15625 3.484375 -0.160156 2.796875 -0.796875 C 2.117188 -1.429688 1.78125 -2.367188 1.78125 -3.609375 L 1.78125 -7.921875 L 0.15625 -7.921875 L 0.15625 -10.265625 L 1.78125 -10.265625 L 1.78125 -12.828125 L 4.828125 -12.828125 L 4.828125 -10.265625 L 7.4375 -10.265625 L 7.4375 -7.921875 L 4.828125 -7.921875 L 4.828125 -3.65625 C 4.828125 -3.207031 4.9375 -2.863281 5.15625 -2.625 C 5.382812 -2.382812 5.707031 -2.265625 6.125 -2.265625 C 6.601562 -2.265625 7.015625 -2.394531 7.359375 -2.65625 Z M 8.171875 -0.5 "/></g></g></g><g fill="#000000" fill-opacity="1"><g transform="translate(42.884665, 86.695567)"><g><path d="M 4.3125 -9.109375 C 4.675781 -9.617188 5.164062 -10.003906 5.78125 -10.265625 C 6.40625 -10.523438 7.117188 -10.65625 7.921875 -10.65625 L 7.921875 -7.84375 C 7.585938 -7.875 7.359375 -7.890625 7.234375 -7.890625 C 6.367188 -7.890625 5.6875 -7.644531 5.1875 -7.15625 C 4.695312 -6.664062 4.453125 -5.929688 4.453125 -4.953125 L 4.453125 0 L 1.40625 0 L 1.40625 -10.5 L 4.3125 -10.5 Z M 4.3125 -9.109375 "/></g></g></g><g fill="#000000" fill-opacity="1"><g transform="translate(51.119155, 86.695567)"><g><path d="M 11.6875 -5.203125 C 11.6875 -5.171875 11.664062 -4.898438 11.625 -4.390625 L 3.6875 -4.390625 C 3.832031 -3.742188 4.171875 -3.226562 4.703125 -2.84375 C 5.234375 -2.46875 5.894531 -2.28125 6.6875 -2.28125 C 7.238281 -2.28125 7.722656 -2.359375 8.140625 -2.515625 C 8.566406 -2.679688 8.960938 -2.941406 9.328125 -3.296875 L 10.953125 -1.546875 C 9.960938 -0.410156 8.515625 0.15625 6.609375 0.15625 C 5.429688 0.15625 4.382812 -0.0703125 3.46875 -0.53125 C 2.5625 -1 1.859375 -1.640625 1.359375 -2.453125 C 0.867188 -3.273438 0.625 -4.207031 0.625 -5.25 C 0.625 -6.28125 0.867188 -7.207031 1.359375 -8.03125 C 1.847656 -8.851562 2.515625 -9.492188 3.359375 -9.953125 C 4.210938 -10.421875 5.164062 -10.65625 6.21875 -10.65625 C 7.25 -10.65625 8.179688 -10.429688 9.015625 -9.984375 C 9.847656 -9.546875 10.5 -8.910156 10.96875 -8.078125 C 11.445312 -7.253906 11.6875 -6.296875 11.6875 -5.203125 Z M 6.25 -8.359375 C 5.550781 -8.359375 4.96875 -8.160156 4.5 -7.765625 C 4.039062 -7.378906 3.757812 -6.847656 3.65625 -6.171875 L 8.828125 -6.171875 C 8.722656 -6.828125 8.4375 -7.351562 7.96875 -7.75 C 7.5 -8.15625 6.925781 -8.359375 6.25 -8.359375 Z M 6.25 -8.359375 "/></g></g></g><g fill="#000000" fill-opacity="1"><g transform="translate(63.431898, 86.695567)"><g><path d="M 4.9375 0.15625 C 4.0625 0.15625 3.207031 0.0507812 2.375 -0.15625 C 1.539062 -0.375 0.878906 -0.644531 0.390625 -0.96875 L 1.40625 -3.15625 C 1.875 -2.863281 2.4375 -2.617188 3.09375 -2.421875 C 3.757812 -2.234375 4.410156 -2.140625 5.046875 -2.140625 C 6.335938 -2.140625 6.984375 -2.460938 6.984375 -3.109375 C 6.984375 -3.398438 6.804688 -3.609375 6.453125 -3.734375 C 6.109375 -3.867188 5.570312 -3.984375 4.84375 -4.078125 C 3.976562 -4.210938 3.265625 -4.363281 2.703125 -4.53125 C 2.148438 -4.695312 1.664062 -4.992188 1.25 -5.421875 C 0.84375 -5.847656 0.640625 -6.460938 0.640625 -7.265625 C 0.640625 -7.921875 0.832031 -8.503906 1.21875 -9.015625 C 1.601562 -9.535156 2.160156 -9.9375 2.890625 -10.21875 C 3.628906 -10.507812 4.5 -10.65625 5.5 -10.65625 C 6.238281 -10.65625 6.976562 -10.570312 7.71875 -10.40625 C 8.457031 -10.25 9.066406 -10.023438 9.546875 -9.734375 L 8.53125 -7.578125 C 7.601562 -8.097656 6.59375 -8.359375 5.5 -8.359375 C 4.851562 -8.359375 4.363281 -8.265625 4.03125 -8.078125 C 3.707031 -7.898438 3.546875 -7.664062 3.546875 -7.375 C 3.546875 -7.050781 3.722656 -6.820312 4.078125 -6.6875 C 4.429688 -6.5625 4.988281 -6.441406 5.75 -6.328125 C 6.613281 -6.179688 7.316406 -6.023438 7.859375 -5.859375 C 8.410156 -5.703125 8.882812 -5.40625 9.28125 -4.96875 C 9.6875 -4.539062 9.890625 -3.945312 9.890625 -3.1875 C 9.890625 -2.53125 9.691406 -1.945312 9.296875 -1.4375 C 8.910156 -0.9375 8.34375 -0.546875 7.59375 -0.265625 C 6.851562 0.015625 5.96875 0.15625 4.9375 0.15625 Z M 4.9375 0.15625 "/></g></g></g><g fill="#000000" fill-opacity="1"><g transform="translate(73.793339, 86.695567)"><g/></g></g><g fill="#000000" fill-opacity="1"><g transform="translate(79.315541, 86.695567)"><g><path d="M 4.9375 0.15625 C 4.0625 0.15625 3.207031 0.0507812 2.375 -0.15625 C 1.539062 -0.375 0.878906 -0.644531 0.390625 -0.96875 L 1.40625 -3.15625 C 1.875 -2.863281 2.4375 -2.617188 3.09375 -2.421875 C 3.757812 -2.234375 4.410156 -2.140625 5.046875 -2.140625 C 6.335938 -2.140625 6.984375 -2.460938 6.984375 -3.109375 C 6.984375 -3.398438 6.804688 -3.609375 6.453125 -3.734375 C 6.109375 -3.867188 5.570312 -3.984375 4.84375 -4.078125 C 3.976562 -4.210938 3.265625 -4.363281 2.703125 -4.53125 C 2.148438 -4.695312 1.664062 -4.992188 1.25 -5.421875 C 0.84375 -5.847656 0.640625 -6.460938 0.640625 -7.265625 C 0.640625 -7.921875 0.832031 -8.503906 1.21875 -9.015625 C 1.601562 -9.535156 2.160156 -9.9375 2.890625 -10.21875 C 3.628906 -10.507812 4.5 -10.65625 5.5 -10.65625 C 6.238281 -10.65625 6.976562 -10.570312 7.71875 -10.40625 C 8.457031 -10.25 9.066406 -10.023438 9.546875 -9.734375 L 8.53125 -7.578125 C 7.601562 -8.097656 6.59375 -8.359375 5.5 -8.359375 C 4.851562 -8.359375 4.363281 -8.265625 4.03125 -8.078125 C 3.707031 -7.898438 3.546875 -7.664062 3.546875 -7.375 C 3.546875 -7.050781 3.722656 -6.820312 4.078125 -6.6875 C 4.429688 -6.5625 4.988281 -6.441406 5.75 -6.328125 C 6.613281 -6.179688 7.316406 -6.023438 7.859375 -5.859375 C 8.410156 -5.703125 8.882812 -5.40625 9.28125 -4.96875 C 9.6875 -4.539062 9.890625 -3.945312 9.890625 -3.1875 C 9.890625 -2.53125 9.691406 -1.945312 9.296875 -1.4375 C 8.910156 -0.9375 8.34375 -0.546875 7.59375 -0.265625 C 6.851562 0.015625 5.96875 0.15625 4.9375 0.15625 Z M 4.9375 0.15625 "/></g></g></g><g fill="#000000" fill-opacity="1"><g transform="translate(89.676982, 86.695567)"><g><path d="M 1.40625 -10.5 L 4.453125 -10.5 L 4.453125 0 L 1.40625 0 Z M 2.921875 -11.96875 C 2.367188 -11.96875 1.914062 -12.128906 1.5625 -12.453125 C 1.207031 -12.773438 1.03125 -13.175781 1.03125 -13.65625 C 1.03125 -14.144531 1.207031 -14.550781 1.5625 -14.875 C 1.914062 -15.195312 2.367188 -15.359375 2.921875 -15.359375 C 3.484375 -15.359375 3.9375 -15.203125 4.28125 -14.890625 C 4.632812 -14.578125 4.8125 -14.1875 4.8125 -13.71875 C 4.8125 -13.207031 4.632812 -12.785156 4.28125 -12.453125 C 3.9375 -12.128906 3.484375 -11.96875 2.921875 -11.96875 Z M 2.921875 -11.96875 "/></g></g></g><g fill="#000000" fill-opacity="1"><g transform="translate(95.550413, 86.695567)"><g><path d="M 8.171875 -0.5 C 7.878906 -0.28125 7.515625 -0.113281 7.078125 0 C 6.640625 0.101562 6.179688 0.15625 5.703125 0.15625 C 4.453125 0.15625 3.484375 -0.160156 2.796875 -0.796875 C 2.117188 -1.429688 1.78125 -2.367188 1.78125 -3.609375 L 1.78125 -7.921875 L 0.15625 -7.921875 L 0.15625 -10.265625 L 1.78125 -10.265625 L 1.78125 -12.828125 L 4.828125 -12.828125 L 4.828125 -10.265625 L 7.4375 -10.265625 L 7.4375 -7.921875 L 4.828125 -7.921875 L 4.828125 -3.65625 C 4.828125 -3.207031 4.9375 -2.863281 5.15625 -2.625 C 5.382812 -2.382812 5.707031 -2.265625 6.125 -2.265625 C 6.601562 -2.265625 7.015625 -2.394531 7.359375 -2.65625 Z M 8.171875 -0.5 "/></g></g></g><g fill="#000000" fill-opacity="1"><g transform="translate(103.706834, 86.695567)"><g><path d="M 11.6875 -5.203125 C 11.6875 -5.171875 11.664062 -4.898438 11.625 -4.390625 L 3.6875 -4.390625 C 3.832031 -3.742188 4.171875 -3.226562 4.703125 -2.84375 C 5.234375 -2.46875 5.894531 -2.28125 6.6875 -2.28125 C 7.238281 -2.28125 7.722656 -2.359375 8.140625 -2.515625 C 8.566406 -2.679688 8.960938 -2.941406 9.328125 -3.296875 L 10.953125 -1.546875 C 9.960938 -0.410156 8.515625 0.15625 6.609375 0.15625 C 5.429688 0.15625 4.382812 -0.0703125 3.46875 -0.53125 C 2.5625 -1 1.859375 -1.640625 1.359375 -2.453125 C 0.867188 -3.273438 0.625 -4.207031 0.625 -5.25 C 0.625 -6.28125 0.867188 -7.207031 1.359375 -8.03125 C 1.847656 -8.851562 2.515625 -9.492188 3.359375 -9.953125 C 4.210938 -10.421875 5.164062 -10.65625 6.21875 -10.65625 C 7.25 -10.65625 8.179688 -10.429688 9.015625 -9.984375 C 9.847656 -9.546875 10.5 -8.910156 10.96875 -8.078125 C 11.445312 -7.253906 11.6875 -6.296875 11.6875 -5.203125 Z M 6.25 -8.359375 C 5.550781 -8.359375 4.96875 -8.160156 4.5 -7.765625 C 4.039062 -7.378906 3.757812 -6.847656 3.65625 -6.171875 L 8.828125 -6.171875 C 8.722656 -6.828125 8.4375 -7.351562 7.96875 -7.75 C 7.5 -8.15625 6.925781 -8.359375 6.25 -8.359375 Z M 6.25 -8.359375 "/></g></g></g><g fill="#000000" fill-opacity="1"><g transform="translate(116.019577, 86.695567)"><g><path d="M 4.9375 0.15625 C 4.0625 0.15625 3.207031 0.0507812 2.375 -0.15625 C 1.539062 -0.375 0.878906 -0.644531 0.390625 -0.96875 L 1.40625 -3.15625 C 1.875 -2.863281 2.4375 -2.617188 3.09375 -2.421875 C 3.757812 -2.234375 4.410156 -2.140625 5.046875 -2.140625 C 6.335938 -2.140625 6.984375 -2.460938 6.984375 -3.109375 C 6.984375 -3.398438 6.804688 -3.609375 6.453125 -3.734375 C 6.109375 -3.867188 5.570312 -3.984375 4.84375 -4.078125 C 3.976562 -4.210938 3.265625 -4.363281 2.703125 -4.53125 C 2.148438 -4.695312 1.664062 -4.992188 1.25 -5.421875 C 0.84375 -5.847656 0.640625 -6.460938 0.640625 -7.265625 C 0.640625 -7.921875 0.832031 -8.503906 1.21875 -9.015625 C 1.601562 -9.535156 2.160156 -9.9375 2.890625 -10.21875 C 3.628906 -10.507812 4.5 -10.65625 5.5 -10.65625 C 6.238281 -10.65625 6.976562 -10.570312 7.71875 -10.40625 C 8.457031 -10.25 9.066406 -10.023438 9.546875 -9.734375 L 8.53125 -7.578125 C 7.601562 -8.097656 6.59375 -8.359375 5.5 -8.359375 C 4.851562 -8.359375 4.363281 -8.265625 4.03125 -8.078125 C 3.707031 -7.898438 3.546875 -7.664062 3.546875 -7.375 C 3.546875 -7.050781 3.722656 -6.820312 4.078125 -6.6875 C 4.429688 -6.5625 4.988281 -6.441406 5.75 -6.328125 C 6.613281 -6.179688 7.316406 -6.023438 7.859375 -5.859375 C 8.410156 -5.703125 8.882812 -5.40625 9.28125 -4.96875 C 9.6875 -4.539062 9.890625 -3.945312 9.890625 -3.1875 C 9.890625 -2.53125 9.691406 -1.945312 9.296875 -1.4375 C 8.910156 -0.9375 8.34375 -0.546875 7.59375 -0.265625 C 6.851562 0.015625 5.96875 0.15625 4.9375 0.15625 Z M 4.9375 0.15625 "/></g></g></g><g fill="#000000" fill-opacity="1"><g transform="translate(37.915469, 111.370273)"><g><path d="M 7.140625 -8.09375 C 8.335938 -7.90625 9.253906 -7.460938 9.890625 -6.765625 C 10.523438 -6.066406 10.84375 -5.203125 10.84375 -4.171875 C 10.84375 -3.378906 10.632812 -2.644531 10.21875 -1.96875 C 9.8125 -1.300781 9.179688 -0.765625 8.328125 -0.359375 C 7.472656 0.0351562 6.425781 0.234375 5.1875 0.234375 C 4.226562 0.234375 3.28125 0.109375 2.34375 -0.140625 C 1.414062 -0.398438 0.628906 -0.765625 -0.015625 -1.234375 L 1.203125 -3.65625 C 1.722656 -3.257812 2.328125 -2.953125 3.015625 -2.734375 C 3.703125 -2.523438 4.398438 -2.421875 5.109375 -2.421875 C 5.898438 -2.421875 6.523438 -2.570312 6.984375 -2.875 C 7.441406 -3.1875 7.671875 -3.617188 7.671875 -4.171875 C 7.671875 -5.296875 6.816406 -5.859375 5.109375 -5.859375 L 3.671875 -5.859375 L 3.671875 -7.9375 L 6.484375 -11.125 L 0.65625 -11.125 L 0.65625 -13.65625 L 10.21875 -13.65625 L 10.21875 -11.609375 Z M 7.140625 -8.09375 "/></g></g></g><g fill="#000000" fill-opacity="1"><g transform="translate(49.369629, 111.370273)"><g><path d="M 7.140625 -8.09375 C 8.335938 -7.90625 9.253906 -7.460938 9.890625 -6.765625 C 10.523438 -6.066406 10.84375 -5.203125 10.84375 -4.171875 C 10.84375 -3.378906 10.632812 -2.644531 10.21875 -1.96875 C 9.8125 -1.300781 9.179688 -0.765625 8.328125 -0.359375 C 7.472656 0.0351562 6.425781 0.234375 5.1875 0.234375 C 4.226562 0.234375 3.28125 0.109375 2.34375 -0.140625 C 1.414062 -0.398438 0.628906 -0.765625 -0.015625 -1.234375 L 1.203125 -3.65625 C 1.722656 -3.257812 2.328125 -2.953125 3.015625 -2.734375 C 3.703125 -2.523438 4.398438 -2.421875 5.109375 -2.421875 C 5.898438 -2.421875 6.523438 -2.570312 6.984375 -2.875 C 7.441406 -3.1875 7.671875 -3.617188 7.671875 -4.171875 C 7.671875 -5.296875 6.816406 -5.859375 5.109375 -5.859375 L 3.671875 -5.859375 L 3.671875 -7.9375 L 6.484375 -11.125 L 0.65625 -11.125 L 0.65625 -13.65625 L 10.21875 -13.65625 L 10.21875 -11.609375 Z M 7.140625 -8.09375 "/></g></g></g><g fill="#000000" fill-opacity="1"><g transform="translate(60.92137, 111.370273)"><g><path d="M 2.5625 0.15625 C 2.019531 0.15625 1.566406 -0.0234375 1.203125 -0.390625 C 0.835938 -0.753906 0.65625 -1.207031 0.65625 -1.75 C 0.65625 -2.3125 0.835938 -2.765625 1.203125 -3.109375 C 1.566406 -3.453125 2.019531 -3.625 2.5625 -3.625 C 3.09375 -3.625 3.539062 -3.453125 3.90625 -3.109375 C 4.269531 -2.765625 4.453125 -2.3125 4.453125 -1.75 C 4.453125 -1.207031 4.269531 -0.753906 3.90625 -0.390625 C 3.539062 -0.0234375 3.09375 0.15625 2.5625 0.15625 Z M 2.5625 0.15625 "/></g></g></g><g fill="#000000" fill-opacity="1"><g transform="translate(66.228948, 111.370273)"><g><path d="M 7.140625 -8.09375 C 8.335938 -7.90625 9.253906 -7.460938 9.890625 -6.765625 C 10.523438 -6.066406 10.84375 -5.203125 10.84375 -4.171875 C 10.84375 -3.378906 10.632812 -2.644531 10.21875 -1.96875 C 9.8125 -1.300781 9.179688 -0.765625 8.328125 -0.359375 C 7.472656 0.0351562 6.425781 0.234375 5.1875 0.234375 C 4.226562 0.234375 3.28125 0.109375 2.34375 -0.140625 C 1.414062 -0.398438 0.628906 -0.765625 -0.015625 -1.234375 L 1.203125 -3.65625 C 1.722656 -3.257812 2.328125 -2.953125 3.015625 -2.734375 C 3.703125 -2.523438 4.398438 -2.421875 5.109375 -2.421875 C 5.898438 -2.421875 6.523438 -2.570312 6.984375 -2.875 C 7.441406 -3.1875 7.671875 -3.617188 7.671875 -4.171875 C 7.671875 -5.296875 6.816406 -5.859375 5.109375 -5.859375 L 3.671875 -5.859375 L 3.671875 -7.9375 L 6.484375 -11.125 L 0.65625 -11.125 L 0.65625 -13.65625 L 10.21875 -13.65625 L 10.21875 -11.609375 Z M 7.140625 -8.09375 "/></g></g></g><g fill="#000000" fill-opacity="1"><g transform="translate(77.585538, 111.370273)"><g><path d="M 3.921875 -6.28125 C 2.921875 -6.28125 2.101562 -6.617188 1.46875 -7.296875 C 0.84375 -7.984375 0.53125 -8.898438 0.53125 -10.046875 C 0.53125 -11.191406 0.84375 -12.101562 1.46875 -12.78125 C 2.101562 -13.46875 2.921875 -13.8125 3.921875 -13.8125 C 4.921875 -13.8125 5.734375 -13.46875 6.359375 -12.78125 C 6.984375 -12.101562 7.296875 -11.191406 7.296875 -10.046875 C 7.296875 -8.898438 6.984375 -7.984375 6.359375 -7.296875 C 5.734375 -6.617188 4.921875 -6.28125 3.921875 -6.28125 Z M 12.0625 -13.65625 L 14.390625 -13.65625 L 5.046875 0 L 2.734375 0 Z M 3.921875 -7.890625 C 4.367188 -7.890625 4.71875 -8.070312 4.96875 -8.4375 C 5.21875 -8.800781 5.34375 -9.335938 5.34375 -10.046875 C 5.34375 -10.765625 5.21875 -11.304688 4.96875 -11.671875 C 4.71875 -12.035156 4.367188 -12.21875 3.921875 -12.21875 C 3.492188 -12.21875 3.148438 -12.03125 2.890625 -11.65625 C 2.628906 -11.289062 2.5 -10.753906 2.5 -10.046875 C 2.5 -9.347656 2.628906 -8.8125 2.890625 -8.4375 C 3.148438 -8.070312 3.492188 -7.890625 3.921875 -7.890625 Z M 13.1875 0.15625 C 12.539062 0.15625 11.957031 0.00390625 11.4375 -0.296875 C 10.925781 -0.609375 10.523438 -1.050781 10.234375 -1.625 C 9.953125 -2.195312 9.8125 -2.859375 9.8125 -3.609375 C 9.8125 -4.367188 9.953125 -5.03125 10.234375 -5.59375 C 10.523438 -6.164062 10.925781 -6.601562 11.4375 -6.90625 C 11.957031 -7.21875 12.539062 -7.375 13.1875 -7.375 C 14.1875 -7.375 15.003906 -7.03125 15.640625 -6.34375 C 16.273438 -5.664062 16.59375 -4.753906 16.59375 -3.609375 C 16.59375 -2.460938 16.273438 -1.546875 15.640625 -0.859375 C 15.003906 -0.179688 14.1875 0.15625 13.1875 0.15625 Z M 13.1875 -1.4375 C 13.632812 -1.4375 13.984375 -1.625 14.234375 -2 C 14.484375 -2.375 14.609375 -2.910156 14.609375 -3.609375 C 14.609375 -4.316406 14.484375 -4.851562 14.234375 -5.21875 C 13.984375 -5.59375 13.632812 -5.78125 13.1875 -5.78125 C 12.757812 -5.78125 12.414062 -5.597656 12.15625 -5.234375 C 11.894531 -4.867188 11.765625 -4.328125 11.765625 -3.609375 C 11.765625 -2.890625 11.894531 -2.347656 12.15625 -1.984375 C 12.414062 -1.617188 12.757812 -1.4375 13.1875 -1.4375 Z M 13.1875 -1.4375 "/></g></g></g></svg>