<svg xmlns="http://www.w3.org/2000/svg" xmlns:xlink="http://www.w3.org/1999/xlink" width="716" zoomAndPan="magnify" viewBox="0 0 537 582.75" height="777" preserveAspectRatio="xMidYMid meet" version="1.0"><defs><g/><clipPath id="f1900e20e7"><path d="M 0.113281 0 L 536.882812 0 L 536.882812 582.5 L 0.113281 582.5 Z M 0.113281 0 " clip-rule="nonzero"/></clipPath><clipPath id="b106cce06c"><path d="M 31 52 L 536.882812 52 L 536.882812 558 L 31 558 Z M 31 52 " clip-rule="nonzero"/></clipPath></defs><g clip-path="url(#f1900e20e7)"><path fill="#ffffff" d="M 0.113281 0 L 536.886719 0 L 536.886719 582.5 L 0.113281 582.5 Z M 0.113281 0 " fill-opacity="1" fill-rule="nonzero"/></g><g clip-path="url(#b106cce06c)"><path fill="#fbdfc5" d="M 283.929688 52.375 C 288.371094 52.375 292.804688 52.492188 297.238281 52.726562 C 301.671875 52.957031 306.097656 53.308594 310.511719 53.777344 C 314.925781 54.246094 319.324219 54.828125 323.710938 55.527344 C 328.09375 56.226562 332.457031 57.042969 336.796875 57.972656 C 341.136719 58.902344 345.449219 59.945312 349.738281 61.101562 C 354.023438 62.261719 358.273438 63.53125 362.492188 64.910156 C 366.714844 66.292969 370.890625 67.785156 375.03125 69.386719 C 379.171875 70.992188 383.269531 72.699219 387.316406 74.519531 C 391.367188 76.335938 395.367188 78.261719 399.316406 80.289062 C 403.261719 82.320312 407.15625 84.453125 410.992188 86.6875 C 414.828125 88.921875 418.601562 91.257812 422.316406 93.691406 C 426.027344 96.125 429.671875 98.65625 433.253906 101.28125 C 436.832031 103.90625 440.339844 106.625 443.773438 109.4375 C 447.210938 112.25 450.570312 115.148438 453.851562 118.136719 C 457.136719 121.125 460.335938 124.199219 463.457031 127.355469 C 466.578125 130.515625 469.613281 133.75 472.5625 137.070312 C 475.511719 140.386719 478.375 143.78125 481.144531 147.25 C 483.914062 150.71875 486.59375 154.257812 489.175781 157.867188 C 491.761719 161.476562 494.246094 165.152344 496.636719 168.894531 C 499.027344 172.632812 501.316406 176.4375 503.507812 180.296875 C 505.695312 184.160156 507.78125 188.078125 509.765625 192.050781 C 511.746094 196.019531 513.625 200.042969 515.394531 204.113281 C 517.164062 208.183594 518.828125 212.300781 520.378906 216.457031 C 521.933594 220.617188 523.375 224.8125 524.707031 229.050781 C 526.039062 233.285156 527.261719 237.550781 528.367188 241.851562 C 529.472656 246.148438 530.464844 250.476562 531.34375 254.828125 C 532.222656 259.179688 532.988281 263.550781 533.636719 267.941406 C 534.28125 272.332031 534.816406 276.738281 535.230469 281.160156 C 535.644531 285.578125 535.945312 290.007812 536.125 294.441406 C 536.308594 298.878906 536.371094 303.316406 536.320312 307.753906 C 536.269531 312.195312 536.097656 316.628906 535.8125 321.058594 C 535.527344 325.488281 535.125 329.910156 534.605469 334.316406 C 534.085938 338.726562 533.449219 343.117188 532.699219 347.492188 C 531.945312 351.867188 531.082031 356.222656 530.101562 360.550781 C 529.117188 364.882812 528.023438 369.183594 526.816406 373.453125 C 525.609375 377.726562 524.289062 381.960938 522.859375 386.164062 C 521.425781 390.367188 519.886719 394.527344 518.234375 398.648438 C 516.582031 402.769531 514.824219 406.847656 512.957031 410.875 C 511.09375 414.902344 509.121094 418.878906 507.046875 422.800781 C 504.96875 426.726562 502.792969 430.59375 500.511719 434.402344 C 498.234375 438.210938 495.855469 441.957031 493.375 445.640625 C 490.898438 449.328125 488.324219 452.941406 485.65625 456.492188 C 482.988281 460.039062 480.230469 463.511719 477.378906 466.914062 C 474.527344 470.316406 471.585938 473.644531 468.558594 476.890625 C 465.53125 480.136719 462.421875 483.304688 459.226562 486.386719 C 456.035156 489.46875 452.761719 492.464844 449.410156 495.375 C 446.054688 498.289062 442.628906 501.105469 439.128906 503.835938 C 435.628906 506.566406 432.058594 509.203125 428.417969 511.742188 C 424.777344 514.285156 421.070312 516.726562 417.304688 519.074219 C 413.535156 521.417969 409.707031 523.664062 405.816406 525.808594 C 401.929688 527.953125 397.988281 529.992188 393.996094 531.925781 C 390 533.863281 385.957031 535.691406 381.863281 537.414062 C 377.773438 539.136719 373.636719 540.75 369.460938 542.253906 C 365.285156 543.757812 361.070312 545.152344 356.820312 546.433594 C 352.570312 547.71875 348.289062 548.886719 343.976562 549.941406 C 339.664062 551 335.328125 551.941406 330.96875 552.765625 C 326.605469 553.59375 322.226562 554.304688 317.824219 554.902344 C 313.425781 555.5 309.015625 555.976562 304.589844 556.339844 C 300.164062 556.707031 295.734375 556.953125 291.296875 557.082031 C 286.859375 557.210938 282.421875 557.222656 277.984375 557.117188 C 273.546875 557.015625 269.113281 556.792969 264.6875 556.453125 C 260.261719 556.117188 255.847656 555.660156 251.441406 555.089844 C 247.039062 554.519531 242.65625 553.832031 238.289062 553.027344 C 233.925781 552.226562 229.582031 551.308594 225.265625 550.277344 C 220.945312 549.246094 216.660156 548.097656 212.402344 546.839844 C 208.144531 545.582031 203.921875 544.214844 199.738281 542.734375 C 195.550781 541.253906 191.410156 539.664062 187.308594 537.960938 C 183.207031 536.261719 179.152344 534.457031 175.148438 532.542969 C 171.140625 530.628906 167.1875 528.613281 163.289062 526.492188 C 159.390625 524.367188 155.546875 522.144531 151.765625 519.820312 C 147.984375 517.496094 144.265625 515.074219 140.613281 512.554688 C 136.957031 510.03125 133.371094 507.417969 129.855469 504.707031 C 126.339844 501.996094 122.898438 499.195312 119.527344 496.304688 C 116.160156 493.414062 112.871094 490.433594 109.65625 487.371094 C 106.445312 484.304688 103.316406 481.15625 100.273438 477.925781 C 97.226562 474.695312 94.269531 471.386719 91.398438 468.003906 C 88.527344 464.617188 85.75 461.15625 83.058594 457.625 C 80.371094 454.089844 77.777344 450.488281 75.28125 446.820312 C 72.78125 443.148438 70.382812 439.417969 68.082031 435.621094 C 65.78125 431.824219 63.582031 427.96875 61.484375 424.054688 C 59.386719 420.144531 57.390625 416.179688 55.503906 412.160156 C 53.613281 408.144531 51.832031 404.078125 50.160156 399.96875 C 48.484375 395.855469 46.921875 391.703125 45.464844 387.507812 C 44.011719 383.316406 42.667969 379.085938 41.433594 374.820312 C 40.203125 370.554688 39.085938 366.261719 38.078125 361.9375 C 37.074219 357.613281 36.183594 353.265625 35.40625 348.894531 C 34.632812 344.523438 33.972656 340.132812 33.425781 335.726562 C 32.882812 331.320312 32.457031 326.90625 32.144531 322.476562 C 31.832031 318.046875 31.636719 313.613281 31.5625 309.175781 C 31.484375 304.738281 31.523438 300.300781 31.679688 295.863281 C 31.835938 291.425781 32.109375 286.996094 32.5 282.574219 C 32.890625 278.152344 33.398438 273.742188 34.023438 269.347656 C 34.644531 264.953125 35.382812 260.574219 36.238281 256.21875 C 37.09375 251.863281 38.0625 247.53125 39.144531 243.226562 C 40.226562 238.921875 41.421875 234.648438 42.730469 230.40625 C 44.039062 226.164062 45.457031 221.957031 46.988281 217.789062 L 165.457031 261.285156 C 164.695312 263.371094 163.984375 265.472656 163.332031 267.59375 C 162.675781 269.714844 162.078125 271.851562 161.535156 274.003906 C 160.996094 276.15625 160.511719 278.320312 160.085938 280.5 C 159.65625 282.679688 159.289062 284.867188 158.976562 287.0625 C 158.664062 289.261719 158.410156 291.464844 158.214844 293.675781 C 158.019531 295.890625 157.882812 298.101562 157.804688 300.320312 C 157.726562 302.539062 157.707031 304.757812 157.746094 306.976562 C 157.785156 309.199219 157.882812 311.414062 158.039062 313.628906 C 158.191406 315.84375 158.40625 318.050781 158.679688 320.253906 C 158.949219 322.457031 159.28125 324.652344 159.667969 326.835938 C 160.058594 329.023438 160.503906 331.195312 161.003906 333.359375 C 161.507812 335.519531 162.066406 337.667969 162.683594 339.800781 C 163.296875 341.933594 163.96875 344.046875 164.699219 346.144531 C 165.425781 348.242188 166.207031 350.320312 167.042969 352.375 C 167.882812 354.429688 168.773438 356.460938 169.714844 358.472656 C 170.660156 360.480469 171.65625 362.460938 172.707031 364.417969 C 173.753906 366.375 174.855469 368.300781 176.007812 370.199219 C 177.15625 372.097656 178.355469 373.964844 179.605469 375.800781 C 180.855469 377.636719 182.152344 379.4375 183.496094 381.203125 C 184.839844 382.96875 186.230469 384.699219 187.664062 386.390625 C 189.101562 388.085938 190.578125 389.738281 192.101562 391.355469 C 193.625 392.96875 195.1875 394.542969 196.792969 396.074219 C 198.398438 397.609375 200.046875 399.097656 201.730469 400.542969 C 203.414062 401.988281 205.136719 403.390625 206.894531 404.746094 C 208.652344 406.097656 210.445312 407.40625 212.269531 408.667969 C 214.097656 409.925781 215.957031 411.140625 217.847656 412.300781 C 219.738281 413.464844 221.660156 414.574219 223.609375 415.636719 C 225.558594 416.695312 227.535156 417.707031 229.539062 418.664062 C 231.542969 419.617188 233.570312 420.523438 235.617188 421.371094 C 237.667969 422.222656 239.742188 423.015625 241.832031 423.757812 C 243.925781 424.496094 246.039062 425.183594 248.164062 425.8125 C 250.292969 426.441406 252.4375 427.011719 254.597656 427.527344 C 256.757812 428.042969 258.925781 428.503906 261.109375 428.90625 C 263.292969 429.304688 265.484375 429.648438 267.6875 429.933594 C 269.886719 430.222656 272.09375 430.449219 274.308594 430.617188 C 276.523438 430.785156 278.738281 430.898438 280.957031 430.949219 C 283.175781 431.003906 285.394531 430.996094 287.613281 430.929688 C 289.832031 430.867188 292.046875 430.742188 294.261719 430.5625 C 296.472656 430.378906 298.679688 430.140625 300.878906 429.84375 C 303.078125 429.542969 305.269531 429.1875 307.449219 428.773438 C 309.628906 428.359375 311.796875 427.890625 313.953125 427.363281 C 316.109375 426.832031 318.25 426.25 320.375 425.609375 C 322.5 424.96875 324.609375 424.269531 326.695312 423.519531 C 328.785156 422.765625 330.851562 421.960938 332.898438 421.097656 C 334.941406 420.238281 336.964844 419.324219 338.960938 418.355469 C 340.960938 417.386719 342.929688 416.367188 344.875 415.292969 C 346.816406 414.222656 348.730469 413.101562 350.617188 411.925781 C 352.5 410.753906 354.351562 409.53125 356.171875 408.261719 C 357.992188 406.992188 359.777344 405.675781 361.53125 404.308594 C 363.28125 402.945312 364.992188 401.535156 366.667969 400.078125 C 368.34375 398.625 369.980469 397.125 371.578125 395.582031 C 373.175781 394.042969 374.730469 392.460938 376.246094 390.835938 C 377.757812 389.210938 379.226562 387.550781 380.652344 385.847656 C 382.078125 384.148438 383.460938 382.410156 384.792969 380.636719 C 386.128906 378.863281 387.414062 377.054688 388.652344 375.210938 C 389.890625 373.371094 391.082031 371.496094 392.222656 369.59375 C 393.363281 367.6875 394.449219 365.753906 395.488281 363.792969 C 396.527344 361.828125 397.511719 359.839844 398.445312 357.828125 C 399.378906 355.8125 400.257812 353.777344 401.082031 351.714844 C 401.90625 349.65625 402.679688 347.574219 403.394531 345.472656 C 404.109375 343.371094 404.769531 341.253906 405.375 339.117188 C 405.976562 336.980469 406.523438 334.832031 407.015625 332.667969 C 407.503906 330.5 407.9375 328.324219 408.3125 326.136719 C 408.691406 323.949219 409.007812 321.753906 409.265625 319.550781 C 409.527344 317.34375 409.726562 315.136719 409.871094 312.921875 C 410.015625 310.703125 410.097656 308.488281 410.125 306.269531 C 410.152344 304.046875 410.121094 301.828125 410.027344 299.613281 C 409.9375 297.394531 409.789062 295.179688 409.582031 292.96875 C 409.371094 290.761719 409.105469 288.558594 408.78125 286.363281 C 408.457031 284.164062 408.078125 281.980469 407.636719 279.804688 C 407.199219 277.628906 406.703125 275.464844 406.148438 273.316406 C 405.59375 271.167969 404.984375 269.03125 404.320312 266.914062 C 403.652344 264.796875 402.933594 262.699219 402.15625 260.621094 C 401.378906 258.539062 400.546875 256.484375 399.664062 254.449219 C 398.777344 252.410156 397.839844 250.402344 396.847656 248.414062 C 395.855469 246.429688 394.8125 244.46875 393.71875 242.539062 C 392.625 240.609375 391.480469 238.707031 390.285156 236.835938 C 389.089844 234.964844 387.84375 233.128906 386.554688 231.324219 C 385.261719 229.519531 383.921875 227.75 382.539062 226.015625 C 381.152344 224.28125 379.722656 222.585938 378.246094 220.925781 C 376.773438 219.265625 375.253906 217.648438 373.695312 216.070312 C 372.132812 214.488281 370.53125 212.953125 368.890625 211.460938 C 367.25 209.964844 365.570312 208.515625 363.851562 207.109375 C 362.136719 205.703125 360.382812 204.34375 358.589844 203.03125 C 356.800781 201.71875 354.980469 200.453125 353.121094 199.234375 C 351.265625 198.019531 349.378906 196.851562 347.460938 195.734375 C 345.542969 194.617188 343.597656 193.550781 341.621094 192.535156 C 339.648438 191.519531 337.648438 190.558594 335.625 189.648438 C 333.597656 188.742188 331.550781 187.886719 329.480469 187.085938 C 327.410156 186.285156 325.320312 185.539062 323.210938 184.847656 C 321.101562 184.15625 318.976562 183.519531 316.832031 182.941406 C 314.691406 182.363281 312.535156 181.839844 310.363281 181.375 C 308.191406 180.910156 306.011719 180.503906 303.820312 180.15625 C 301.628906 179.804688 299.429688 179.511719 297.222656 179.277344 C 295.011719 179.046875 292.800781 178.871094 290.585938 178.753906 C 288.367188 178.636719 286.148438 178.578125 283.929688 178.578125 Z M 283.929688 52.375 " fill-opacity="1" fill-rule="nonzero"/></g><path fill="#e5c0c0" d="M 46.988281 217.789062 C 48.660156 213.230469 50.464844 208.722656 52.402344 204.265625 C 54.335938 199.808594 56.398438 195.410156 58.585938 191.074219 C 60.773438 186.738281 63.085938 182.464844 65.519531 178.261719 C 67.957031 174.058594 70.511719 169.929688 73.183594 165.871094 C 75.859375 161.816406 78.644531 157.839844 81.550781 153.945312 C 84.453125 150.050781 87.464844 146.242188 90.589844 142.519531 C 93.710938 138.796875 96.941406 135.171875 100.273438 131.636719 C 103.605469 128.101562 107.039062 124.664062 110.570312 121.328125 C 114.097656 117.992188 117.722656 114.757812 121.441406 111.632812 C 125.160156 108.503906 128.964844 105.484375 132.855469 102.578125 C 136.746094 99.671875 140.71875 96.878906 144.773438 94.199219 C 148.828125 91.519531 152.953125 88.960938 157.15625 86.519531 C 161.355469 84.082031 165.625 81.765625 169.957031 79.570312 C 174.292969 77.375 178.6875 75.308594 183.140625 73.371094 C 187.597656 71.429688 192.101562 69.621094 196.660156 67.941406 C 201.21875 66.261719 205.824219 64.714844 210.472656 63.300781 L 247.199219 184.039062 C 242.546875 185.457031 237.992188 187.132812 233.535156 189.074219 C 229.078125 191.015625 224.746094 193.207031 220.542969 195.652344 C 216.339844 198.09375 212.289062 200.769531 208.394531 203.679688 C 204.496094 206.589844 200.785156 209.714844 197.25 213.054688 C 193.714844 216.394531 190.386719 219.925781 187.261719 223.652344 C 184.132812 227.375 181.234375 231.265625 178.558594 235.328125 C 175.882812 239.386719 173.449219 243.585938 171.257812 247.929688 C 169.066406 252.269531 167.132812 256.722656 165.457031 261.285156 Z M 46.988281 217.789062 " fill-opacity="1" fill-rule="nonzero"/><path fill="#cbe0d5" d="M 210.472656 63.300781 C 228.242188 57.894531 246.394531 54.488281 264.917969 53.089844 L 274.425781 178.9375 C 265.160156 179.636719 256.085938 181.335938 247.199219 184.039062 Z M 210.472656 63.300781 " fill-opacity="1" fill-rule="nonzero"/><path fill="#d5d1ec" d="M 264.917969 53.089844 C 271.238281 52.613281 277.566406 52.375 283.90625 52.375 L 283.917969 178.578125 C 280.75 178.578125 277.585938 178.699219 274.425781 178.9375 Z M 264.917969 53.089844 " fill-opacity="1" fill-rule="nonzero"/><g fill="#000000" fill-opacity="1"><g transform="translate(402.480218, 548.521957)"><g><path d="M 22.75 -13.953125 L 18.1875 0 L 14.71875 0 L 11.640625 -9.453125 L 8.46875 0 L 5.03125 0 L 0.4375 -13.953125 L 3.78125 -13.953125 L 6.9375 -4.140625 L 10.234375 -13.953125 L 13.21875 -13.953125 L 16.40625 -4.0625 L 19.65625 -13.953125 Z M 22.75 -13.953125 "/></g></g></g><g fill="#000000" fill-opacity="1"><g transform="translate(425.574619, 548.521957)"><g><path d="M 1.4375 -10.71875 L 4.546875 -10.71875 L 4.546875 0 L 1.4375 0 Z M 2.984375 -12.21875 C 2.410156 -12.21875 1.941406 -12.382812 1.578125 -12.71875 C 1.222656 -13.050781 1.046875 -13.460938 1.046875 -13.953125 C 1.046875 -14.441406 1.222656 -14.851562 1.578125 -15.1875 C 1.941406 -15.519531 2.410156 -15.6875 2.984375 -15.6875 C 3.554688 -15.6875 4.019531 -15.523438 4.375 -15.203125 C 4.738281 -14.890625 4.921875 -14.492188 4.921875 -14.015625 C 4.921875 -13.492188 4.738281 -13.0625 4.375 -12.71875 C 4.019531 -12.382812 3.554688 -12.21875 2.984375 -12.21875 Z M 2.984375 -12.21875 "/></g></g></g><g fill="#000000" fill-opacity="1"><g transform="translate(431.577567, 548.521957)"><g><path d="M 6.046875 -4.203125 L 4.546875 -2.734375 L 4.546875 0 L 1.4375 0 L 1.4375 -14.796875 L 4.546875 -14.796875 L 4.546875 -6.421875 L 9.09375 -10.71875 L 12.796875 -10.71875 L 8.328125 -6.1875 L 13.203125 0 L 9.4375 0 Z M 6.046875 -4.203125 "/></g></g></g><g fill="#000000" fill-opacity="1"><g transform="translate(444.660401, 548.521957)"><g><path d="M 1.4375 -10.71875 L 4.546875 -10.71875 L 4.546875 0 L 1.4375 0 Z M 2.984375 -12.21875 C 2.410156 -12.21875 1.941406 -12.382812 1.578125 -12.71875 C 1.222656 -13.050781 1.046875 -13.460938 1.046875 -13.953125 C 1.046875 -14.441406 1.222656 -14.851562 1.578125 -15.1875 C 1.941406 -15.519531 2.410156 -15.6875 2.984375 -15.6875 C 3.554688 -15.6875 4.019531 -15.523438 4.375 -15.203125 C 4.738281 -14.890625 4.921875 -14.492188 4.921875 -14.015625 C 4.921875 -13.492188 4.738281 -13.0625 4.375 -12.71875 C 4.019531 -12.382812 3.554688 -12.21875 2.984375 -12.21875 Z M 2.984375 -12.21875 "/></g></g></g><g fill="#000000" fill-opacity="1"><g transform="translate(450.66335, 548.521957)"><g><path d="M 15.171875 -10.890625 C 16.515625 -10.890625 17.582031 -10.492188 18.375 -9.703125 C 19.164062 -8.910156 19.5625 -7.722656 19.5625 -6.140625 L 19.5625 0 L 16.453125 0 L 16.453125 -5.65625 C 16.453125 -6.507812 16.273438 -7.144531 15.921875 -7.5625 C 15.566406 -7.976562 15.066406 -8.1875 14.421875 -8.1875 C 13.679688 -8.1875 13.097656 -7.953125 12.671875 -7.484375 C 12.253906 -7.015625 12.046875 -6.316406 12.046875 -5.390625 L 12.046875 0 L 8.9375 0 L 8.9375 -5.65625 C 8.9375 -7.34375 8.253906 -8.1875 6.890625 -8.1875 C 6.179688 -8.1875 5.613281 -7.953125 5.1875 -7.484375 C 4.757812 -7.015625 4.546875 -6.316406 4.546875 -5.390625 L 4.546875 0 L 1.4375 0 L 1.4375 -10.71875 L 4.40625 -10.71875 L 4.40625 -9.484375 C 4.800781 -9.941406 5.285156 -10.289062 5.859375 -10.53125 C 6.441406 -10.769531 7.082031 -10.890625 7.78125 -10.890625 C 8.53125 -10.890625 9.210938 -10.738281 9.828125 -10.4375 C 10.441406 -10.132812 10.929688 -9.695312 11.296875 -9.125 C 11.742188 -9.6875 12.300781 -10.117188 12.96875 -10.421875 C 13.632812 -10.734375 14.367188 -10.890625 15.171875 -10.890625 Z M 15.171875 -10.890625 "/></g></g></g><g fill="#000000" fill-opacity="1"><g transform="translate(471.703587, 548.521957)"><g><path d="M 11.9375 -5.328125 C 11.9375 -5.285156 11.914062 -5.003906 11.875 -4.484375 L 3.765625 -4.484375 C 3.910156 -3.816406 4.253906 -3.289062 4.796875 -2.90625 C 5.347656 -2.519531 6.03125 -2.328125 6.84375 -2.328125 C 7.394531 -2.328125 7.882812 -2.410156 8.3125 -2.578125 C 8.75 -2.742188 9.15625 -3.007812 9.53125 -3.375 L 11.1875 -1.578125 C 10.175781 -0.421875 8.703125 0.15625 6.765625 0.15625 C 5.546875 0.15625 4.472656 -0.078125 3.546875 -0.546875 C 2.617188 -1.015625 1.898438 -1.664062 1.390625 -2.5 C 0.890625 -3.34375 0.640625 -4.296875 0.640625 -5.359375 C 0.640625 -6.410156 0.890625 -7.359375 1.390625 -8.203125 C 1.890625 -9.046875 2.570312 -9.703125 3.4375 -10.171875 C 4.3125 -10.648438 5.285156 -10.890625 6.359375 -10.890625 C 7.410156 -10.890625 8.359375 -10.660156 9.203125 -10.203125 C 10.054688 -9.753906 10.722656 -9.109375 11.203125 -8.265625 C 11.691406 -7.421875 11.9375 -6.441406 11.9375 -5.328125 Z M 6.375 -8.53125 C 5.675781 -8.53125 5.085938 -8.332031 4.609375 -7.9375 C 4.128906 -7.539062 3.835938 -6.992188 3.734375 -6.296875 L 9.015625 -6.296875 C 8.910156 -6.972656 8.617188 -7.515625 8.140625 -7.921875 C 7.660156 -8.328125 7.070312 -8.53125 6.375 -8.53125 Z M 7.171875 -14.96875 L 10.53125 -14.96875 L 6.921875 -12.109375 L 4.484375 -12.109375 Z M 7.171875 -14.96875 "/></g></g></g><g fill="#000000" fill-opacity="1"><g transform="translate(484.287845, 548.521957)"><g><path d="M 12.359375 -14.796875 L 12.359375 0 L 9.390625 0 L 9.390625 -1.234375 C 8.617188 -0.304688 7.503906 0.15625 6.046875 0.15625 C 5.035156 0.15625 4.117188 -0.0664062 3.296875 -0.515625 C 2.484375 -0.972656 1.84375 -1.617188 1.375 -2.453125 C 0.90625 -3.285156 0.671875 -4.253906 0.671875 -5.359375 C 0.671875 -6.460938 0.90625 -7.429688 1.375 -8.265625 C 1.84375 -9.109375 2.484375 -9.753906 3.296875 -10.203125 C 4.117188 -10.660156 5.035156 -10.890625 6.046875 -10.890625 C 7.410156 -10.890625 8.476562 -10.457031 9.25 -9.59375 L 9.25 -14.796875 Z M 6.578125 -2.390625 C 7.359375 -2.390625 8.007812 -2.65625 8.53125 -3.1875 C 9.050781 -3.726562 9.3125 -4.453125 9.3125 -5.359375 C 9.3125 -6.265625 9.050781 -6.984375 8.53125 -7.515625 C 8.007812 -8.054688 7.359375 -8.328125 6.578125 -8.328125 C 5.785156 -8.328125 5.128906 -8.054688 4.609375 -7.515625 C 4.085938 -6.984375 3.828125 -6.265625 3.828125 -5.359375 C 3.828125 -4.453125 4.085938 -3.726562 4.609375 -3.1875 C 5.128906 -2.65625 5.785156 -2.390625 6.578125 -2.390625 Z M 6.578125 -2.390625 "/></g></g></g><g fill="#000000" fill-opacity="1"><g transform="translate(498.088643, 548.521957)"><g><path d="M 1.4375 -10.71875 L 4.546875 -10.71875 L 4.546875 0 L 1.4375 0 Z M 2.984375 -12.21875 C 2.410156 -12.21875 1.941406 -12.382812 1.578125 -12.71875 C 1.222656 -13.050781 1.046875 -13.460938 1.046875 -13.953125 C 1.046875 -14.441406 1.222656 -14.851562 1.578125 -15.1875 C 1.941406 -15.519531 2.410156 -15.6875 2.984375 -15.6875 C 3.554688 -15.6875 4.019531 -15.523438 4.375 -15.203125 C 4.738281 -14.890625 4.921875 -14.492188 4.921875 -14.015625 C 4.921875 -13.492188 4.738281 -13.0625 4.375 -12.71875 C 4.019531 -12.382812 3.554688 -12.21875 2.984375 -12.21875 Z M 2.984375 -12.21875 "/></g></g></g><g fill="#000000" fill-opacity="1"><g transform="translate(504.091592, 548.521957)"><g><path d="M 5.765625 -10.890625 C 7.421875 -10.890625 8.691406 -10.492188 9.578125 -9.703125 C 10.472656 -8.910156 10.921875 -7.71875 10.921875 -6.125 L 10.921875 0 L 8.015625 0 L 8.015625 -1.328125 C 7.429688 -0.335938 6.34375 0.15625 4.75 0.15625 C 3.925781 0.15625 3.207031 0.0195312 2.59375 -0.25 C 1.988281 -0.53125 1.523438 -0.914062 1.203125 -1.40625 C 0.890625 -1.90625 0.734375 -2.46875 0.734375 -3.09375 C 0.734375 -4.082031 1.109375 -4.863281 1.859375 -5.4375 C 2.609375 -6.007812 3.769531 -6.296875 5.34375 -6.296875 L 7.8125 -6.296875 C 7.8125 -6.972656 7.601562 -7.492188 7.1875 -7.859375 C 6.78125 -8.222656 6.164062 -8.40625 5.34375 -8.40625 C 4.769531 -8.40625 4.207031 -8.316406 3.65625 -8.140625 C 3.101562 -7.960938 2.632812 -7.722656 2.25 -7.421875 L 1.140625 -9.59375 C 1.722656 -10 2.421875 -10.316406 3.234375 -10.546875 C 4.054688 -10.773438 4.898438 -10.890625 5.765625 -10.890625 Z M 5.515625 -1.9375 C 6.046875 -1.9375 6.519531 -2.054688 6.9375 -2.296875 C 7.351562 -2.546875 7.644531 -2.910156 7.8125 -3.390625 L 7.8125 -4.484375 L 5.6875 -4.484375 C 4.40625 -4.484375 3.765625 -4.066406 3.765625 -3.234375 C 3.765625 -2.828125 3.921875 -2.507812 4.234375 -2.28125 C 4.546875 -2.050781 4.972656 -1.9375 5.515625 -1.9375 Z M 5.515625 -1.9375 "/></g></g></g><g fill="#000000" fill-opacity="1"><g transform="translate(428.831096, 573.636119)"><g><path d="M 10.328125 -7.34375 C 11.015625 -6.988281 11.539062 -6.53125 11.90625 -5.96875 C 12.28125 -5.414062 12.46875 -4.773438 12.46875 -4.046875 C 12.46875 -3.179688 12.21875 -2.425781 11.71875 -1.78125 C 11.226562 -1.132812 10.535156 -0.632812 9.640625 -0.28125 C 8.753906 0.0625 7.726562 0.234375 6.5625 0.234375 C 5.394531 0.234375 4.367188 0.0625 3.484375 -0.28125 C 2.597656 -0.632812 1.910156 -1.132812 1.421875 -1.78125 C 0.941406 -2.425781 0.703125 -3.179688 0.703125 -4.046875 C 0.703125 -4.773438 0.882812 -5.414062 1.25 -5.96875 C 1.613281 -6.53125 2.132812 -6.988281 2.8125 -7.34375 C 2.289062 -7.65625 1.890625 -8.050781 1.609375 -8.53125 C 1.335938 -9.019531 1.203125 -9.578125 1.203125 -10.203125 C 1.203125 -11.015625 1.425781 -11.71875 1.875 -12.3125 C 2.320312 -12.914062 2.953125 -13.378906 3.765625 -13.703125 C 4.578125 -14.035156 5.507812 -14.203125 6.5625 -14.203125 C 7.625 -14.203125 8.5625 -14.035156 9.375 -13.703125 C 10.195312 -13.378906 10.832031 -12.914062 11.28125 -12.3125 C 11.738281 -11.71875 11.96875 -11.015625 11.96875 -10.203125 C 11.96875 -9.578125 11.828125 -9.019531 11.546875 -8.53125 C 11.265625 -8.050781 10.859375 -7.65625 10.328125 -7.34375 Z M 6.5625 -11.828125 C 5.90625 -11.828125 5.378906 -11.671875 4.984375 -11.359375 C 4.597656 -11.046875 4.40625 -10.613281 4.40625 -10.0625 C 4.40625 -9.53125 4.597656 -9.113281 4.984375 -8.8125 C 5.367188 -8.507812 5.894531 -8.359375 6.5625 -8.359375 C 7.226562 -8.359375 7.757812 -8.507812 8.15625 -8.8125 C 8.550781 -9.113281 8.75 -9.53125 8.75 -10.0625 C 8.75 -10.613281 8.550781 -11.046875 8.15625 -11.359375 C 7.757812 -11.671875 7.226562 -11.828125 6.5625 -11.828125 Z M 6.5625 -2.140625 C 7.375 -2.140625 8.015625 -2.320312 8.484375 -2.6875 C 8.953125 -3.050781 9.1875 -3.535156 9.1875 -4.140625 C 9.1875 -4.753906 8.953125 -5.238281 8.484375 -5.59375 C 8.015625 -5.957031 7.375 -6.140625 6.5625 -6.140625 C 5.757812 -6.140625 5.125 -5.957031 4.65625 -5.59375 C 4.195312 -5.238281 3.96875 -4.753906 3.96875 -4.140625 C 3.96875 -3.515625 4.195312 -3.023438 4.65625 -2.671875 C 5.125 -2.316406 5.757812 -2.140625 6.5625 -2.140625 Z M 6.5625 -2.140625 "/></g></g></g><g fill="#000000" fill-opacity="1"><g transform="translate(441.993707, 573.636119)"><g><path d="M 6.765625 0.234375 C 5.609375 0.234375 4.578125 -0.046875 3.671875 -0.609375 C 2.765625 -1.179688 2.054688 -2.007812 1.546875 -3.09375 C 1.035156 -4.175781 0.78125 -5.472656 0.78125 -6.984375 C 0.78125 -8.484375 1.035156 -9.773438 1.546875 -10.859375 C 2.054688 -11.941406 2.765625 -12.769531 3.671875 -13.34375 C 4.578125 -13.914062 5.609375 -14.203125 6.765625 -14.203125 C 7.921875 -14.203125 8.945312 -13.914062 9.84375 -13.34375 C 10.75 -12.769531 11.457031 -11.941406 11.96875 -10.859375 C 12.476562 -9.773438 12.734375 -8.484375 12.734375 -6.984375 C 12.734375 -5.472656 12.476562 -4.175781 11.96875 -3.09375 C 11.457031 -2.007812 10.75 -1.179688 9.84375 -0.609375 C 8.945312 -0.046875 7.921875 0.234375 6.765625 0.234375 Z M 6.765625 -2.5 C 7.609375 -2.5 8.269531 -2.863281 8.75 -3.59375 C 9.238281 -4.320312 9.484375 -5.453125 9.484375 -6.984375 C 9.484375 -8.503906 9.238281 -9.628906 8.75 -10.359375 C 8.269531 -11.097656 7.609375 -11.46875 6.765625 -11.46875 C 5.921875 -11.46875 5.253906 -11.097656 4.765625 -10.359375 C 4.285156 -9.628906 4.046875 -8.503906 4.046875 -6.984375 C 4.046875 -5.453125 4.285156 -4.320312 4.765625 -3.59375 C 5.253906 -2.863281 5.921875 -2.5 6.765625 -2.5 Z M 6.765625 -2.5 "/></g></g></g><g fill="#000000" fill-opacity="1"><g transform="translate(455.275978, 573.636119)"><g><path d="M 2.609375 0.15625 C 2.066406 0.15625 1.609375 -0.0234375 1.234375 -0.390625 C 0.859375 -0.765625 0.671875 -1.234375 0.671875 -1.796875 C 0.671875 -2.367188 0.859375 -2.828125 1.234375 -3.171875 C 1.609375 -3.523438 2.066406 -3.703125 2.609375 -3.703125 C 3.148438 -3.703125 3.609375 -3.523438 3.984375 -3.171875 C 4.359375 -2.828125 4.546875 -2.367188 4.546875 -1.796875 C 4.546875 -1.234375 4.359375 -0.765625 3.984375 -0.390625 C 3.609375 -0.0234375 3.148438 0.15625 2.609375 0.15625 Z M 2.609375 0.15625 "/></g></g></g><g fill="#000000" fill-opacity="1"><g transform="translate(460.241873, 573.636119)"><g><path d="M 7.5 -8.75 C 8.382812 -8.75 9.191406 -8.566406 9.921875 -8.203125 C 10.660156 -7.847656 11.238281 -7.34375 11.65625 -6.6875 C 12.082031 -6.03125 12.296875 -5.269531 12.296875 -4.40625 C 12.296875 -3.476562 12.0625 -2.660156 11.59375 -1.953125 C 11.132812 -1.242188 10.503906 -0.703125 9.703125 -0.328125 C 8.898438 0.046875 8.003906 0.234375 7.015625 0.234375 C 5.066406 0.234375 3.539062 -0.359375 2.4375 -1.546875 C 1.332031 -2.742188 0.78125 -4.453125 0.78125 -6.671875 C 0.78125 -8.253906 1.078125 -9.609375 1.671875 -10.734375 C 2.273438 -11.867188 3.109375 -12.726562 4.171875 -13.3125 C 5.242188 -13.90625 6.484375 -14.203125 7.890625 -14.203125 C 8.640625 -14.203125 9.351562 -14.117188 10.03125 -13.953125 C 10.71875 -13.785156 11.300781 -13.546875 11.78125 -13.234375 L 10.59375 -10.859375 C 9.894531 -11.328125 9.019531 -11.5625 7.96875 -11.5625 C 6.789062 -11.5625 5.851562 -11.210938 5.15625 -10.515625 C 4.46875 -9.828125 4.097656 -8.828125 4.046875 -7.515625 C 4.867188 -8.335938 6.019531 -8.75 7.5 -8.75 Z M 6.84375 -2.171875 C 7.53125 -2.171875 8.085938 -2.359375 8.515625 -2.734375 C 8.953125 -3.109375 9.171875 -3.613281 9.171875 -4.25 C 9.171875 -4.882812 8.953125 -5.390625 8.515625 -5.765625 C 8.085938 -6.148438 7.515625 -6.34375 6.796875 -6.34375 C 6.085938 -6.34375 5.507812 -6.144531 5.0625 -5.75 C 4.613281 -5.351562 4.390625 -4.851562 4.390625 -4.25 C 4.390625 -3.632812 4.609375 -3.132812 5.046875 -2.75 C 5.484375 -2.363281 6.082031 -2.171875 6.84375 -2.171875 Z M 6.84375 -2.171875 "/></g></g></g><g fill="#000000" fill-opacity="1"><g transform="translate(472.546927, 573.636119)"><g><path d="M 4 -6.421875 C 2.976562 -6.421875 2.144531 -6.769531 1.5 -7.46875 C 0.851562 -8.164062 0.53125 -9.097656 0.53125 -10.265625 C 0.53125 -11.429688 0.851562 -12.363281 1.5 -13.0625 C 2.144531 -13.757812 2.976562 -14.109375 4 -14.109375 C 5.03125 -14.109375 5.863281 -13.757812 6.5 -13.0625 C 7.132812 -12.363281 7.453125 -11.429688 7.453125 -10.265625 C 7.453125 -9.097656 7.132812 -8.164062 6.5 -7.46875 C 5.863281 -6.769531 5.03125 -6.421875 4 -6.421875 Z M 12.328125 -13.953125 L 14.6875 -13.953125 L 5.15625 0 L 2.796875 0 Z M 4 -8.0625 C 4.457031 -8.0625 4.816406 -8.242188 5.078125 -8.609375 C 5.335938 -8.984375 5.46875 -9.535156 5.46875 -10.265625 C 5.46875 -10.992188 5.335938 -11.546875 5.078125 -11.921875 C 4.816406 -12.296875 4.457031 -12.484375 4 -12.484375 C 3.5625 -12.484375 3.207031 -12.289062 2.9375 -11.90625 C 2.675781 -11.53125 2.546875 -10.984375 2.546875 -10.265625 C 2.546875 -9.546875 2.675781 -9 2.9375 -8.625 C 3.207031 -8.25 3.5625 -8.0625 4 -8.0625 Z M 13.484375 0.15625 C 12.816406 0.15625 12.21875 0 11.6875 -0.3125 C 11.164062 -0.625 10.757812 -1.070312 10.46875 -1.65625 C 10.175781 -2.238281 10.03125 -2.914062 10.03125 -3.6875 C 10.03125 -4.457031 10.175781 -5.132812 10.46875 -5.71875 C 10.757812 -6.300781 11.164062 -6.75 11.6875 -7.0625 C 12.21875 -7.375 12.816406 -7.53125 13.484375 -7.53125 C 14.503906 -7.53125 15.335938 -7.179688 15.984375 -6.484375 C 16.628906 -5.785156 16.953125 -4.851562 16.953125 -3.6875 C 16.953125 -2.519531 16.628906 -1.585938 15.984375 -0.890625 C 15.335938 -0.191406 14.503906 0.15625 13.484375 0.15625 Z M 13.484375 -1.46875 C 13.929688 -1.46875 14.285156 -1.65625 14.546875 -2.03125 C 14.804688 -2.414062 14.9375 -2.96875 14.9375 -3.6875 C 14.9375 -4.40625 14.804688 -4.953125 14.546875 -5.328125 C 14.285156 -5.710938 13.929688 -5.90625 13.484375 -5.90625 C 13.035156 -5.90625 12.675781 -5.71875 12.40625 -5.34375 C 12.144531 -4.96875 12.015625 -4.414062 12.015625 -3.6875 C 12.015625 -2.957031 12.144531 -2.40625 12.40625 -2.03125 C 12.675781 -1.65625 13.035156 -1.46875 13.484375 -1.46875 Z M 13.484375 -1.46875 "/></g></g></g><g fill="#000000" fill-opacity="1"><g transform="translate(5.824511, 67.798576)"><g><path d="M 10.84375 -2.984375 L 4.359375 -2.984375 L 3.125 0 L -0.171875 0 L 6.046875 -13.953125 L 9.234375 -13.953125 L 15.46875 0 L 12.078125 0 Z M 9.828125 -5.4375 L 7.609375 -10.78125 L 5.40625 -5.4375 Z M 9.828125 -5.4375 "/></g></g></g><g fill="#000000" fill-opacity="1"><g transform="translate(20.901683, 67.798576)"><g><path d="M 12.234375 -10.71875 L 12.234375 0 L 9.296875 0 L 9.296875 -1.28125 C 8.878906 -0.8125 8.382812 -0.453125 7.8125 -0.203125 C 7.238281 0.0351562 6.625 0.15625 5.96875 0.15625 C 4.550781 0.15625 3.429688 -0.242188 2.609375 -1.046875 C 1.785156 -1.859375 1.375 -3.066406 1.375 -4.671875 L 1.375 -10.71875 L 4.484375 -10.71875 L 4.484375 -5.125 C 4.484375 -3.394531 5.207031 -2.53125 6.65625 -2.53125 C 7.40625 -2.53125 8.003906 -2.769531 8.453125 -3.25 C 8.898438 -3.738281 9.125 -4.460938 9.125 -5.421875 L 9.125 -10.71875 Z M 12.234375 -10.71875 "/></g></g></g><g fill="#000000" fill-opacity="1"><g transform="translate(34.602762, 67.798576)"><g><path d="M 8.359375 -0.515625 C 8.046875 -0.285156 7.664062 -0.113281 7.21875 0 C 6.78125 0.101562 6.316406 0.15625 5.828125 0.15625 C 4.546875 0.15625 3.554688 -0.164062 2.859375 -0.8125 C 2.160156 -1.46875 1.8125 -2.425781 1.8125 -3.6875 L 1.8125 -8.09375 L 0.15625 -8.09375 L 0.15625 -10.484375 L 1.8125 -10.484375 L 1.8125 -13.09375 L 4.921875 -13.09375 L 4.921875 -10.484375 L 7.59375 -10.484375 L 7.59375 -8.09375 L 4.921875 -8.09375 L 4.921875 -3.734375 C 4.921875 -3.273438 5.035156 -2.921875 5.265625 -2.671875 C 5.503906 -2.429688 5.835938 -2.3125 6.265625 -2.3125 C 6.753906 -2.3125 7.171875 -2.445312 7.515625 -2.71875 Z M 8.359375 -0.515625 "/></g></g></g><g fill="#000000" fill-opacity="1"><g transform="translate(43.27812, 67.798576)"><g><path d="M 4.40625 -9.3125 C 4.78125 -9.832031 5.28125 -10.222656 5.90625 -10.484375 C 6.539062 -10.753906 7.269531 -10.890625 8.09375 -10.890625 L 8.09375 -8.015625 C 7.75 -8.046875 7.515625 -8.0625 7.390625 -8.0625 C 6.503906 -8.0625 5.804688 -7.8125 5.296875 -7.3125 C 4.796875 -6.8125 4.546875 -6.0625 4.546875 -5.0625 L 4.546875 0 L 1.4375 0 L 1.4375 -10.71875 L 4.40625 -10.71875 Z M 4.40625 -9.3125 "/></g></g></g><g fill="#000000" fill-opacity="1"><g transform="translate(51.694215, 67.798576)"><g><path d="M 11.9375 -5.328125 C 11.9375 -5.285156 11.914062 -5.003906 11.875 -4.484375 L 3.765625 -4.484375 C 3.910156 -3.816406 4.253906 -3.289062 4.796875 -2.90625 C 5.347656 -2.519531 6.03125 -2.328125 6.84375 -2.328125 C 7.394531 -2.328125 7.882812 -2.410156 8.3125 -2.578125 C 8.75 -2.742188 9.15625 -3.007812 9.53125 -3.375 L 11.1875 -1.578125 C 10.175781 -0.421875 8.703125 0.15625 6.765625 0.15625 C 5.546875 0.15625 4.472656 -0.078125 3.546875 -0.546875 C 2.617188 -1.015625 1.898438 -1.664062 1.390625 -2.5 C 0.890625 -3.34375 0.640625 -4.296875 0.640625 -5.359375 C 0.640625 -6.410156 0.890625 -7.359375 1.390625 -8.203125 C 1.890625 -9.046875 2.570312 -9.703125 3.4375 -10.171875 C 4.3125 -10.648438 5.285156 -10.890625 6.359375 -10.890625 C 7.410156 -10.890625 8.359375 -10.660156 9.203125 -10.203125 C 10.054688 -9.753906 10.722656 -9.109375 11.203125 -8.265625 C 11.691406 -7.421875 11.9375 -6.441406 11.9375 -5.328125 Z M 6.375 -8.53125 C 5.675781 -8.53125 5.085938 -8.332031 4.609375 -7.9375 C 4.128906 -7.539062 3.835938 -6.992188 3.734375 -6.296875 L 9.015625 -6.296875 C 8.910156 -6.972656 8.617188 -7.515625 8.140625 -7.921875 C 7.660156 -8.328125 7.070312 -8.53125 6.375 -8.53125 Z M 6.375 -8.53125 "/></g></g></g><g fill="#000000" fill-opacity="1"><g transform="translate(64.278473, 67.798576)"><g><path d="M 5.046875 0.15625 C 4.148438 0.15625 3.273438 0.046875 2.421875 -0.171875 C 1.578125 -0.390625 0.90625 -0.664062 0.40625 -1 L 1.4375 -3.234375 C 1.914062 -2.921875 2.492188 -2.664062 3.171875 -2.46875 C 3.847656 -2.28125 4.507812 -2.1875 5.15625 -2.1875 C 6.476562 -2.1875 7.140625 -2.515625 7.140625 -3.171875 C 7.140625 -3.472656 6.957031 -3.691406 6.59375 -3.828125 C 6.238281 -3.960938 5.6875 -4.078125 4.9375 -4.171875 C 4.0625 -4.296875 3.335938 -4.445312 2.765625 -4.625 C 2.191406 -4.800781 1.695312 -5.109375 1.28125 -5.546875 C 0.863281 -5.984375 0.65625 -6.609375 0.65625 -7.421875 C 0.65625 -8.097656 0.847656 -8.695312 1.234375 -9.21875 C 1.628906 -9.75 2.203125 -10.160156 2.953125 -10.453125 C 3.710938 -10.742188 4.601562 -10.890625 5.625 -10.890625 C 6.382812 -10.890625 7.140625 -10.804688 7.890625 -10.640625 C 8.640625 -10.472656 9.257812 -10.242188 9.75 -9.953125 L 8.71875 -7.734375 C 7.769531 -8.265625 6.738281 -8.53125 5.625 -8.53125 C 4.957031 -8.53125 4.457031 -8.4375 4.125 -8.25 C 3.789062 -8.0625 3.625 -7.820312 3.625 -7.53125 C 3.625 -7.195312 3.800781 -6.960938 4.15625 -6.828125 C 4.519531 -6.703125 5.09375 -6.578125 5.875 -6.453125 C 6.757812 -6.304688 7.476562 -6.148438 8.03125 -5.984375 C 8.59375 -5.816406 9.078125 -5.515625 9.484375 -5.078125 C 9.898438 -4.640625 10.109375 -4.03125 10.109375 -3.25 C 10.109375 -2.582031 9.90625 -1.988281 9.5 -1.46875 C 9.101562 -0.957031 8.523438 -0.554688 7.765625 -0.265625 C 7.003906 0.015625 6.097656 0.15625 5.046875 0.15625 Z M 5.046875 0.15625 "/></g></g></g><g fill="#000000" fill-opacity="1"><g transform="translate(74.868393, 67.798576)"><g/></g></g><g fill="#000000" fill-opacity="1"><g transform="translate(80.512359, 67.798576)"><g><path d="M 5.046875 0.15625 C 4.148438 0.15625 3.273438 0.046875 2.421875 -0.171875 C 1.578125 -0.390625 0.90625 -0.664062 0.40625 -1 L 1.4375 -3.234375 C 1.914062 -2.921875 2.492188 -2.664062 3.171875 -2.46875 C 3.847656 -2.28125 4.507812 -2.1875 5.15625 -2.1875 C 6.476562 -2.1875 7.140625 -2.515625 7.140625 -3.171875 C 7.140625 -3.472656 6.957031 -3.691406 6.59375 -3.828125 C 6.238281 -3.960938 5.6875 -4.078125 4.9375 -4.171875 C 4.0625 -4.296875 3.335938 -4.445312 2.765625 -4.625 C 2.191406 -4.800781 1.695312 -5.109375 1.28125 -5.546875 C 0.863281 -5.984375 0.65625 -6.609375 0.65625 -7.421875 C 0.65625 -8.097656 0.847656 -8.695312 1.234375 -9.21875 C 1.628906 -9.75 2.203125 -10.160156 2.953125 -10.453125 C 3.710938 -10.742188 4.601562 -10.890625 5.625 -10.890625 C 6.382812 -10.890625 7.140625 -10.804688 7.890625 -10.640625 C 8.640625 -10.472656 9.257812 -10.242188 9.75 -9.953125 L 8.71875 -7.734375 C 7.769531 -8.265625 6.738281 -8.53125 5.625 -8.53125 C 4.957031 -8.53125 4.457031 -8.4375 4.125 -8.25 C 3.789062 -8.0625 3.625 -7.820312 3.625 -7.53125 C 3.625 -7.195312 3.800781 -6.960938 4.15625 -6.828125 C 4.519531 -6.703125 5.09375 -6.578125 5.875 -6.453125 C 6.757812 -6.304688 7.476562 -6.148438 8.03125 -5.984375 C 8.59375 -5.816406 9.078125 -5.515625 9.484375 -5.078125 C 9.898438 -4.640625 10.109375 -4.03125 10.109375 -3.25 C 10.109375 -2.582031 9.90625 -1.988281 9.5 -1.46875 C 9.101562 -0.957031 8.523438 -0.554688 7.765625 -0.265625 C 7.003906 0.015625 6.097656 0.15625 5.046875 0.15625 Z M 5.046875 0.15625 "/></g></g></g><g fill="#000000" fill-opacity="1"><g transform="translate(91.102279, 67.798576)"><g><path d="M 1.4375 -10.71875 L 4.546875 -10.71875 L 4.546875 0 L 1.4375 0 Z M 2.984375 -12.21875 C 2.410156 -12.21875 1.941406 -12.382812 1.578125 -12.71875 C 1.222656 -13.050781 1.046875 -13.460938 1.046875 -13.953125 C 1.046875 -14.441406 1.222656 -14.851562 1.578125 -15.1875 C 1.941406 -15.519531 2.410156 -15.6875 2.984375 -15.6875 C 3.554688 -15.6875 4.019531 -15.523438 4.375 -15.203125 C 4.738281 -14.890625 4.921875 -14.492188 4.921875 -14.015625 C 4.921875 -13.492188 4.738281 -13.0625 4.375 -12.71875 C 4.019531 -12.382812 3.554688 -12.21875 2.984375 -12.21875 Z M 2.984375 -12.21875 "/></g></g></g><g fill="#000000" fill-opacity="1"><g transform="translate(97.105228, 67.798576)"><g><path d="M 8.359375 -0.515625 C 8.046875 -0.285156 7.664062 -0.113281 7.21875 0 C 6.78125 0.101562 6.316406 0.15625 5.828125 0.15625 C 4.546875 0.15625 3.554688 -0.164062 2.859375 -0.8125 C 2.160156 -1.46875 1.8125 -2.425781 1.8125 -3.6875 L 1.8125 -8.09375 L 0.15625 -8.09375 L 0.15625 -10.484375 L 1.8125 -10.484375 L 1.8125 -13.09375 L 4.921875 -13.09375 L 4.921875 -10.484375 L 7.59375 -10.484375 L 7.59375 -8.09375 L 4.921875 -8.09375 L 4.921875 -3.734375 C 4.921875 -3.273438 5.035156 -2.921875 5.265625 -2.671875 C 5.503906 -2.429688 5.835938 -2.3125 6.265625 -2.3125 C 6.753906 -2.3125 7.171875 -2.445312 7.515625 -2.71875 Z M 8.359375 -0.515625 "/></g></g></g><g fill="#000000" fill-opacity="1"><g transform="translate(105.441545, 67.798576)"><g><path d="M 11.9375 -5.328125 C 11.9375 -5.285156 11.914062 -5.003906 11.875 -4.484375 L 3.765625 -4.484375 C 3.910156 -3.816406 4.253906 -3.289062 4.796875 -2.90625 C 5.347656 -2.519531 6.03125 -2.328125 6.84375 -2.328125 C 7.394531 -2.328125 7.882812 -2.410156 8.3125 -2.578125 C 8.75 -2.742188 9.15625 -3.007812 9.53125 -3.375 L 11.1875 -1.578125 C 10.175781 -0.421875 8.703125 0.15625 6.765625 0.15625 C 5.546875 0.15625 4.472656 -0.078125 3.546875 -0.546875 C 2.617188 -1.015625 1.898438 -1.664062 1.390625 -2.5 C 0.890625 -3.34375 0.640625 -4.296875 0.640625 -5.359375 C 0.640625 -6.410156 0.890625 -7.359375 1.390625 -8.203125 C 1.890625 -9.046875 2.570312 -9.703125 3.4375 -10.171875 C 4.3125 -10.648438 5.285156 -10.890625 6.359375 -10.890625 C 7.410156 -10.890625 8.359375 -10.660156 9.203125 -10.203125 C 10.054688 -9.753906 10.722656 -9.109375 11.203125 -8.265625 C 11.691406 -7.421875 11.9375 -6.441406 11.9375 -5.328125 Z M 6.375 -8.53125 C 5.675781 -8.53125 5.085938 -8.332031 4.609375 -7.9375 C 4.128906 -7.539062 3.835938 -6.992188 3.734375 -6.296875 L 9.015625 -6.296875 C 8.910156 -6.972656 8.617188 -7.515625 8.140625 -7.921875 C 7.660156 -8.328125 7.070312 -8.53125 6.375 -8.53125 Z M 6.375 -8.53125 "/></g></g></g><g fill="#000000" fill-opacity="1"><g transform="translate(118.025804, 67.798576)"><g><path d="M 5.046875 0.15625 C 4.148438 0.15625 3.273438 0.046875 2.421875 -0.171875 C 1.578125 -0.390625 0.90625 -0.664062 0.40625 -1 L 1.4375 -3.234375 C 1.914062 -2.921875 2.492188 -2.664062 3.171875 -2.46875 C 3.847656 -2.28125 4.507812 -2.1875 5.15625 -2.1875 C 6.476562 -2.1875 7.140625 -2.515625 7.140625 -3.171875 C 7.140625 -3.472656 6.957031 -3.691406 6.59375 -3.828125 C 6.238281 -3.960938 5.6875 -4.078125 4.9375 -4.171875 C 4.0625 -4.296875 3.335938 -4.445312 2.765625 -4.625 C 2.191406 -4.800781 1.695312 -5.109375 1.28125 -5.546875 C 0.863281 -5.984375 0.65625 -6.609375 0.65625 -7.421875 C 0.65625 -8.097656 0.847656 -8.695312 1.234375 -9.21875 C 1.628906 -9.75 2.203125 -10.160156 2.953125 -10.453125 C 3.710938 -10.742188 4.601562 -10.890625 5.625 -10.890625 C 6.382812 -10.890625 7.140625 -10.804688 7.890625 -10.640625 C 8.640625 -10.472656 9.257812 -10.242188 9.75 -9.953125 L 8.71875 -7.734375 C 7.769531 -8.265625 6.738281 -8.53125 5.625 -8.53125 C 4.957031 -8.53125 4.457031 -8.4375 4.125 -8.25 C 3.789062 -8.0625 3.625 -7.820312 3.625 -7.53125 C 3.625 -7.195312 3.800781 -6.960938 4.15625 -6.828125 C 4.519531 -6.703125 5.09375 -6.578125 5.875 -6.453125 C 6.757812 -6.304688 7.476562 -6.148438 8.03125 -5.984375 C 8.59375 -5.816406 9.078125 -5.515625 9.484375 -5.078125 C 9.898438 -4.640625 10.109375 -4.03125 10.109375 -3.25 C 10.109375 -2.582031 9.90625 -1.988281 9.5 -1.46875 C 9.101562 -0.957031 8.523438 -0.554688 7.765625 -0.265625 C 7.003906 0.015625 6.097656 0.15625 5.046875 0.15625 Z M 5.046875 0.15625 "/></g></g></g><g fill="#000000" fill-opacity="1"><g transform="translate(38.806933, 92.912732)"><g><path d="M 6.15625 -13.953125 L 6.15625 0 L 2.9375 0 L 2.9375 -11.359375 L 0.140625 -11.359375 L 0.140625 -13.953125 Z M 6.15625 -13.953125 "/></g></g></g><g fill="#000000" fill-opacity="1"><g transform="translate(46.624724, 92.912732)"><g><path d="M 13.5625 -2.9375 L 11.28125 -2.9375 L 11.28125 0 L 8.140625 0 L 8.140625 -2.9375 L 0.625 -2.9375 L 0.625 -5.109375 L 7.203125 -13.953125 L 10.59375 -13.953125 L 4.484375 -5.5625 L 8.234375 -5.5625 L 8.234375 -8.171875 L 11.28125 -8.171875 L 11.28125 -5.5625 L 13.5625 -5.5625 Z M 13.5625 -2.9375 "/></g></g></g><g fill="#000000" fill-opacity="1"><g transform="translate(60.764562, 92.912732)"><g><path d="M 2.609375 0.15625 C 2.066406 0.15625 1.609375 -0.0234375 1.234375 -0.390625 C 0.859375 -0.765625 0.671875 -1.234375 0.671875 -1.796875 C 0.671875 -2.367188 0.859375 -2.828125 1.234375 -3.171875 C 1.609375 -3.523438 2.066406 -3.703125 2.609375 -3.703125 C 3.148438 -3.703125 3.609375 -3.523438 3.984375 -3.171875 C 4.359375 -2.828125 4.546875 -2.367188 4.546875 -1.796875 C 4.546875 -1.234375 4.359375 -0.765625 3.984375 -0.390625 C 3.609375 -0.0234375 3.148438 0.15625 2.609375 0.15625 Z M 2.609375 0.15625 "/></g></g></g><g fill="#000000" fill-opacity="1"><g transform="translate(65.670632, 92.912732)"><g><path d="M 11.703125 -13.953125 L 11.703125 -11.859375 L 6.515625 0 L 3.015625 0 L 8.015625 -11.328125 L 3.390625 -11.328125 L 3.390625 -9.046875 L 0.515625 -9.046875 L 0.515625 -13.953125 Z M 11.703125 -13.953125 "/></g></g></g><g fill="#000000" fill-opacity="1"><g transform="translate(78.155171, 92.912732)"><g><path d="M 4 -6.421875 C 2.976562 -6.421875 2.144531 -6.769531 1.5 -7.46875 C 0.851562 -8.164062 0.53125 -9.097656 0.53125 -10.265625 C 0.53125 -11.429688 0.851562 -12.363281 1.5 -13.0625 C 2.144531 -13.757812 2.976562 -14.109375 4 -14.109375 C 5.03125 -14.109375 5.863281 -13.757812 6.5 -13.0625 C 7.132812 -12.363281 7.453125 -11.429688 7.453125 -10.265625 C 7.453125 -9.097656 7.132812 -8.164062 6.5 -7.46875 C 5.863281 -6.769531 5.03125 -6.421875 4 -6.421875 Z M 12.328125 -13.953125 L 14.6875 -13.953125 L 5.15625 0 L 2.796875 0 Z M 4 -8.0625 C 4.457031 -8.0625 4.816406 -8.242188 5.078125 -8.609375 C 5.335938 -8.984375 5.46875 -9.535156 5.46875 -10.265625 C 5.46875 -10.992188 5.335938 -11.546875 5.078125 -11.921875 C 4.816406 -12.296875 4.457031 -12.484375 4 -12.484375 C 3.5625 -12.484375 3.207031 -12.289062 2.9375 -11.90625 C 2.675781 -11.53125 2.546875 -10.984375 2.546875 -10.265625 C 2.546875 -9.546875 2.675781 -9 2.9375 -8.625 C 3.207031 -8.25 3.5625 -8.0625 4 -8.0625 Z M 13.484375 0.15625 C 12.816406 0.15625 12.21875 0 11.6875 -0.3125 C 11.164062 -0.625 10.757812 -1.070312 10.46875 -1.65625 C 10.175781 -2.238281 10.03125 -2.914062 10.03125 -3.6875 C 10.03125 -4.457031 10.175781 -5.132812 10.46875 -5.71875 C 10.757812 -6.300781 11.164062 -6.75 11.6875 -7.0625 C 12.21875 -7.375 12.816406 -7.53125 13.484375 -7.53125 C 14.503906 -7.53125 15.335938 -7.179688 15.984375 -6.484375 C 16.628906 -5.785156 16.953125 -4.851562 16.953125 -3.6875 C 16.953125 -2.519531 16.628906 -1.585938 15.984375 -0.890625 C 15.335938 -0.191406 14.503906 0.15625 13.484375 0.15625 Z M 13.484375 -1.46875 C 13.929688 -1.46875 14.285156 -1.65625 14.546875 -2.03125 C 14.804688 -2.414062 14.9375 -2.96875 14.9375 -3.6875 C 14.9375 -4.40625 14.804688 -4.953125 14.546875 -5.328125 C 14.285156 -5.710938 13.929688 -5.90625 13.484375 -5.90625 C 13.035156 -5.90625 12.675781 -5.71875 12.40625 -5.34375 C 12.144531 -4.96875 12.015625 -4.414062 12.015625 -3.6875 C 12.015625 -2.957031 12.144531 -2.40625 12.40625 -2.03125 C 12.675781 -1.65625 13.035156 -1.46875 13.484375 -1.46875 Z M 13.484375 -1.46875 "/></g></g></g><g fill="#000000" fill-opacity="1"><g transform="translate(201.031354, 19.177014)"><g><path d="M 1.65625 -13.953125 L 4.890625 -13.953125 L 4.890625 -2.625 L 11.875 -2.625 L 11.875 0 L 1.65625 0 Z M 1.65625 -13.953125 "/></g></g></g><g fill="#000000" fill-opacity="1"><g transform="translate(213.077135, 19.177014)"><g><path d="M 1.4375 -10.71875 L 4.546875 -10.71875 L 4.546875 0 L 1.4375 0 Z M 2.984375 -12.21875 C 2.410156 -12.21875 1.941406 -12.382812 1.578125 -12.71875 C 1.222656 -13.050781 1.046875 -13.460938 1.046875 -13.953125 C 1.046875 -14.441406 1.222656 -14.851562 1.578125 -15.1875 C 1.941406 -15.519531 2.410156 -15.6875 2.984375 -15.6875 C 3.554688 -15.6875 4.019531 -15.523438 4.375 -15.203125 C 4.738281 -14.890625 4.921875 -14.492188 4.921875 -14.015625 C 4.921875 -13.492188 4.738281 -13.0625 4.375 -12.71875 C 4.019531 -12.382812 3.554688 -12.21875 2.984375 -12.21875 Z M 2.984375 -12.21875 "/></g></g></g><g fill="#000000" fill-opacity="1"><g transform="translate(219.080083, 19.177014)"><g><path d="M 12.078125 -10.71875 L 7.5625 0 L 4.34375 0 L -0.15625 -10.71875 L 3.046875 -10.71875 L 6.015625 -3.421875 L 9.09375 -10.71875 Z M 12.078125 -10.71875 "/></g></g></g><g fill="#000000" fill-opacity="1"><g transform="translate(231.006203, 19.177014)"><g><path d="M 4.40625 -9.3125 C 4.78125 -9.832031 5.28125 -10.222656 5.90625 -10.484375 C 6.539062 -10.753906 7.269531 -10.890625 8.09375 -10.890625 L 8.09375 -8.015625 C 7.75 -8.046875 7.515625 -8.0625 7.390625 -8.0625 C 6.503906 -8.0625 5.804688 -7.8125 5.296875 -7.3125 C 4.796875 -6.8125 4.546875 -6.0625 4.546875 -5.0625 L 4.546875 0 L 1.4375 0 L 1.4375 -10.71875 L 4.40625 -10.71875 Z M 4.40625 -9.3125 "/></g></g></g><g fill="#000000" fill-opacity="1"><g transform="translate(239.422298, 19.177014)"><g><path d="M 11.9375 -5.328125 C 11.9375 -5.285156 11.914062 -5.003906 11.875 -4.484375 L 3.765625 -4.484375 C 3.910156 -3.816406 4.253906 -3.289062 4.796875 -2.90625 C 5.347656 -2.519531 6.03125 -2.328125 6.84375 -2.328125 C 7.394531 -2.328125 7.882812 -2.410156 8.3125 -2.578125 C 8.75 -2.742188 9.15625 -3.007812 9.53125 -3.375 L 11.1875 -1.578125 C 10.175781 -0.421875 8.703125 0.15625 6.765625 0.15625 C 5.546875 0.15625 4.472656 -0.078125 3.546875 -0.546875 C 2.617188 -1.015625 1.898438 -1.664062 1.390625 -2.5 C 0.890625 -3.34375 0.640625 -4.296875 0.640625 -5.359375 C 0.640625 -6.410156 0.890625 -7.359375 1.390625 -8.203125 C 1.890625 -9.046875 2.570312 -9.703125 3.4375 -10.171875 C 4.3125 -10.648438 5.285156 -10.890625 6.359375 -10.890625 C 7.410156 -10.890625 8.359375 -10.660156 9.203125 -10.203125 C 10.054688 -9.753906 10.722656 -9.109375 11.203125 -8.265625 C 11.691406 -7.421875 11.9375 -6.441406 11.9375 -5.328125 Z M 6.375 -8.53125 C 5.675781 -8.53125 5.085938 -8.332031 4.609375 -7.9375 C 4.128906 -7.539062 3.835938 -6.992188 3.734375 -6.296875 L 9.015625 -6.296875 C 8.910156 -6.972656 8.617188 -7.515625 8.140625 -7.921875 C 7.660156 -8.328125 7.070312 -8.53125 6.375 -8.53125 Z M 6.375 -8.53125 "/></g></g></g><g fill="#000000" fill-opacity="1"><g transform="translate(252.006556, 19.177014)"><g><path d="M 5.046875 0.15625 C 4.148438 0.15625 3.273438 0.046875 2.421875 -0.171875 C 1.578125 -0.390625 0.90625 -0.664062 0.40625 -1 L 1.4375 -3.234375 C 1.914062 -2.921875 2.492188 -2.664062 3.171875 -2.46875 C 3.847656 -2.28125 4.507812 -2.1875 5.15625 -2.1875 C 6.476562 -2.1875 7.140625 -2.515625 7.140625 -3.171875 C 7.140625 -3.472656 6.957031 -3.691406 6.59375 -3.828125 C 6.238281 -3.960938 5.6875 -4.078125 4.9375 -4.171875 C 4.0625 -4.296875 3.335938 -4.445312 2.765625 -4.625 C 2.191406 -4.800781 1.695312 -5.109375 1.28125 -5.546875 C 0.863281 -5.984375 0.65625 -6.609375 0.65625 -7.421875 C 0.65625 -8.097656 0.847656 -8.695312 1.234375 -9.21875 C 1.628906 -9.75 2.203125 -10.160156 2.953125 -10.453125 C 3.710938 -10.742188 4.601562 -10.890625 5.625 -10.890625 C 6.382812 -10.890625 7.140625 -10.804688 7.890625 -10.640625 C 8.640625 -10.472656 9.257812 -10.242188 9.75 -9.953125 L 8.71875 -7.734375 C 7.769531 -8.265625 6.738281 -8.53125 5.625 -8.53125 C 4.957031 -8.53125 4.457031 -8.4375 4.125 -8.25 C 3.789062 -8.0625 3.625 -7.820312 3.625 -7.53125 C 3.625 -7.195312 3.800781 -6.960938 4.15625 -6.828125 C 4.519531 -6.703125 5.09375 -6.578125 5.875 -6.453125 C 6.757812 -6.304688 7.476562 -6.148438 8.03125 -5.984375 C 8.59375 -5.816406 9.078125 -5.515625 9.484375 -5.078125 C 9.898438 -4.640625 10.109375 -4.03125 10.109375 -3.25 C 10.109375 -2.582031 9.90625 -1.988281 9.5 -1.46875 C 9.101562 -0.957031 8.523438 -0.554688 7.765625 -0.265625 C 7.003906 0.015625 6.097656 0.15625 5.046875 0.15625 Z M 5.046875 0.15625 "/></g></g></g><g fill="#000000" fill-opacity="1"><g transform="translate(208.714593, 44.291177)"><g><path d="M 7.296875 -8.28125 C 8.515625 -8.070312 9.445312 -7.613281 10.09375 -6.90625 C 10.75 -6.195312 11.078125 -5.316406 11.078125 -4.265625 C 11.078125 -3.453125 10.863281 -2.703125 10.4375 -2.015625 C 10.019531 -1.335938 9.375 -0.789062 8.5 -0.375 C 7.632812 0.03125 6.566406 0.234375 5.296875 0.234375 C 4.316406 0.234375 3.351562 0.109375 2.40625 -0.140625 C 1.457031 -0.398438 0.648438 -0.769531 -0.015625 -1.25 L 1.234375 -3.734375 C 1.765625 -3.328125 2.378906 -3.015625 3.078125 -2.796875 C 3.773438 -2.578125 4.488281 -2.46875 5.21875 -2.46875 C 6.03125 -2.46875 6.664062 -2.625 7.125 -2.9375 C 7.59375 -3.25 7.828125 -3.691406 7.828125 -4.265625 C 7.828125 -5.410156 6.957031 -5.984375 5.21875 -5.984375 L 3.75 -5.984375 L 3.75 -8.109375 L 6.625 -11.359375 L 0.671875 -11.359375 L 0.671875 -13.953125 L 10.453125 -13.953125 L 10.453125 -11.859375 Z M 7.296875 -8.28125 "/></g></g></g><g fill="#000000" fill-opacity="1"><g transform="translate(220.521061, 44.291177)"><g><path d="M 2.609375 0.15625 C 2.066406 0.15625 1.609375 -0.0234375 1.234375 -0.390625 C 0.859375 -0.765625 0.671875 -1.234375 0.671875 -1.796875 C 0.671875 -2.367188 0.859375 -2.828125 1.234375 -3.171875 C 1.609375 -3.523438 2.066406 -3.703125 2.609375 -3.703125 C 3.148438 -3.703125 3.609375 -3.523438 3.984375 -3.171875 C 4.359375 -2.828125 4.546875 -2.367188 4.546875 -1.796875 C 4.546875 -1.234375 4.359375 -0.765625 3.984375 -0.390625 C 3.609375 -0.0234375 3.148438 0.15625 2.609375 0.15625 Z M 2.609375 0.15625 "/></g></g></g><g fill="#000000" fill-opacity="1"><g transform="translate(225.74622, 44.291177)"><g><path d="M 5.5625 -8.71875 C 7.53125 -8.71875 8.984375 -8.320312 9.921875 -7.53125 C 10.859375 -6.75 11.328125 -5.703125 11.328125 -4.390625 C 11.328125 -3.535156 11.113281 -2.757812 10.6875 -2.0625 C 10.257812 -1.363281 9.609375 -0.804688 8.734375 -0.390625 C 7.867188 0.0234375 6.796875 0.234375 5.515625 0.234375 C 4.535156 0.234375 3.570312 0.109375 2.625 -0.140625 C 1.675781 -0.398438 0.867188 -0.769531 0.203125 -1.25 L 1.46875 -3.734375 C 2 -3.328125 2.609375 -3.015625 3.296875 -2.796875 C 3.992188 -2.578125 4.707031 -2.46875 5.4375 -2.46875 C 6.25 -2.46875 6.890625 -2.625 7.359375 -2.9375 C 7.828125 -3.257812 8.0625 -3.707031 8.0625 -4.28125 C 8.0625 -4.882812 7.816406 -5.335938 7.328125 -5.640625 C 6.835938 -5.941406 6 -6.09375 4.8125 -6.09375 L 1.234375 -6.09375 L 1.953125 -13.953125 L 10.46875 -13.953125 L 10.46875 -11.359375 L 4.640625 -11.359375 L 4.421875 -8.71875 Z M 5.5625 -8.71875 "/></g></g></g><g fill="#000000" fill-opacity="1"><g transform="translate(237.413077, 44.291177)"><g><path d="M 4 -6.421875 C 2.976562 -6.421875 2.144531 -6.769531 1.5 -7.46875 C 0.851562 -8.164062 0.53125 -9.097656 0.53125 -10.265625 C 0.53125 -11.429688 0.851562 -12.363281 1.5 -13.0625 C 2.144531 -13.757812 2.976562 -14.109375 4 -14.109375 C 5.03125 -14.109375 5.863281 -13.757812 6.5 -13.0625 C 7.132812 -12.363281 7.453125 -11.429688 7.453125 -10.265625 C 7.453125 -9.097656 7.132812 -8.164062 6.5 -7.46875 C 5.863281 -6.769531 5.03125 -6.421875 4 -6.421875 Z M 12.328125 -13.953125 L 14.6875 -13.953125 L 5.15625 0 L 2.796875 0 Z M 4 -8.0625 C 4.457031 -8.0625 4.816406 -8.242188 5.078125 -8.609375 C 5.335938 -8.984375 5.46875 -9.535156 5.46875 -10.265625 C 5.46875 -10.992188 5.335938 -11.546875 5.078125 -11.921875 C 4.816406 -12.296875 4.457031 -12.484375 4 -12.484375 C 3.5625 -12.484375 3.207031 -12.289062 2.9375 -11.90625 C 2.675781 -11.53125 2.546875 -10.984375 2.546875 -10.265625 C 2.546875 -9.546875 2.675781 -9 2.9375 -8.625 C 3.207031 -8.25 3.5625 -8.0625 4 -8.0625 Z M 13.484375 0.15625 C 12.816406 0.15625 12.21875 0 11.6875 -0.3125 C 11.164062 -0.625 10.757812 -1.070312 10.46875 -1.65625 C 10.175781 -2.238281 10.03125 -2.914062 10.03125 -3.6875 C 10.03125 -4.457031 10.175781 -5.132812 10.46875 -5.71875 C 10.757812 -6.300781 11.164062 -6.75 11.6875 -7.0625 C 12.21875 -7.375 12.816406 -7.53125 13.484375 -7.53125 C 14.503906 -7.53125 15.335938 -7.179688 15.984375 -6.484375 C 16.628906 -5.785156 16.953125 -4.851562 16.953125 -3.6875 C 16.953125 -2.519531 16.628906 -1.585938 15.984375 -0.890625 C 15.335938 -0.191406 14.503906 0.15625 13.484375 0.15625 Z M 13.484375 -1.46875 C 13.929688 -1.46875 14.285156 -1.65625 14.546875 -2.03125 C 14.804688 -2.414062 14.9375 -2.96875 14.9375 -3.6875 C 14.9375 -4.40625 14.804688 -4.953125 14.546875 -5.328125 C 14.285156 -5.710938 13.929688 -5.90625 13.484375 -5.90625 C 13.035156 -5.90625 12.675781 -5.71875 12.40625 -5.34375 C 12.144531 -4.96875 12.015625 -4.414062 12.015625 -3.6875 C 12.015625 -2.957031 12.144531 -2.40625 12.40625 -2.03125 C 12.675781 -1.65625 13.035156 -1.46875 13.484375 -1.46875 Z M 13.484375 -1.46875 "/></g></g></g></svg>