<svg xmlns="http://www.w3.org/2000/svg" xmlns:xlink="http://www.w3.org/1999/xlink" width="983" zoomAndPan="magnify" viewBox="0 0 737.25 452.999989" height="604" preserveAspectRatio="xMidYMid meet" version="1.0"><defs><g/><clipPath id="dd0b20b1ba"><path d="M 0 0.230469 L 736.5 0.230469 L 736.5 452.769531 L 0 452.769531 Z M 0 0.230469 " clip-rule="nonzero"/></clipPath><clipPath id="6f05051a2d"><path d="M 124.625 160.878906 L 671.96875 160.878906 L 671.96875 181.03125 L 124.625 181.03125 Z M 124.625 160.878906 " clip-rule="nonzero"/></clipPath><clipPath id="1e613cf852"><path d="M 666.1875 131.773438 L 735.980469 131.773438 L 735.980469 201.570312 L 666.1875 201.570312 Z M 666.1875 131.773438 " clip-rule="nonzero"/></clipPath><clipPath id="966d6c78f3"><path d="M 701.082031 131.773438 C 681.808594 131.773438 666.1875 147.398438 666.1875 166.671875 C 666.1875 185.945312 681.808594 201.570312 701.082031 201.570312 C 720.355469 201.570312 735.980469 185.945312 735.980469 166.671875 C 735.980469 147.398438 720.355469 131.773438 701.082031 131.773438 Z M 701.082031 131.773438 " clip-rule="nonzero"/></clipPath><clipPath id="e76dfcfd8e"><path d="M 124.625 280.503906 L 405.855469 280.503906 L 405.855469 300.347656 L 124.625 300.347656 Z M 124.625 280.503906 " clip-rule="nonzero"/></clipPath><clipPath id="b87468fc2c"><path d="M 399.109375 251.527344 L 468.90625 251.527344 L 468.90625 321.320312 L 399.109375 321.320312 Z M 399.109375 251.527344 " clip-rule="nonzero"/></clipPath><clipPath id="5c4b3f6658"><path d="M 434.007812 251.527344 C 414.734375 251.527344 399.109375 267.148438 399.109375 286.421875 C 399.109375 305.695312 414.734375 321.320312 434.007812 321.320312 C 453.28125 321.320312 468.90625 305.695312 468.90625 286.421875 C 468.90625 267.148438 453.28125 251.527344 434.007812 251.527344 Z M 434.007812 251.527344 " clip-rule="nonzero"/></clipPath><clipPath id="3d7d99f4e9"><path d="M 124.625 409.019531 L 255.96875 409.019531 L 255.96875 429.167969 L 124.625 429.167969 Z M 124.625 409.019531 " clip-rule="nonzero"/></clipPath><clipPath id="d1fdff2cd5"><path d="M 248.179688 382.699219 L 317.972656 382.699219 L 317.972656 452.492188 L 248.179688 452.492188 Z M 248.179688 382.699219 " clip-rule="nonzero"/></clipPath><clipPath id="6c36285b85"><path d="M 283.074219 382.699219 C 263.804688 382.699219 248.179688 398.324219 248.179688 417.597656 C 248.179688 436.871094 263.804688 452.492188 283.074219 452.492188 C 302.347656 452.492188 317.972656 436.871094 317.972656 417.597656 C 317.972656 398.324219 302.347656 382.699219 283.074219 382.699219 Z M 283.074219 382.699219 " clip-rule="nonzero"/></clipPath><clipPath id="998cc5c1b3"><path d="M 368 63 L 557 63 L 557 93.558594 L 368 93.558594 Z M 368 63 " clip-rule="nonzero"/></clipPath></defs><g clip-path="url(#dd0b20b1ba)"><path fill="#ffffff" d="M 0 0.230469 L 736.5 0.230469 L 736.5 452.769531 L 0 452.769531 Z M 0 0.230469 " fill-opacity="1" fill-rule="nonzero"/></g><g clip-path="url(#6f05051a2d)"><path fill="#c3d8ef" d="M 124.625 160.878906 L 671.9375 160.878906 L 671.9375 181.03125 L 124.625 181.03125 Z M 124.625 160.878906 " fill-opacity="1" fill-rule="nonzero"/></g><g clip-path="url(#1e613cf852)"><g clip-path="url(#966d6c78f3)"><path fill="#fbdfc5" d="M 666.1875 131.773438 L 735.980469 131.773438 L 735.980469 201.570312 L 666.1875 201.570312 Z M 666.1875 131.773438 " fill-opacity="1" fill-rule="nonzero"/></g></g><g fill="#000000" fill-opacity="1"><g transform="translate(678.85285, 172.982662)"><g><path d="M 12.3125 -14.6875 L 12.3125 -12.484375 L 6.859375 0 L 3.171875 0 L 8.4375 -11.921875 L 3.5625 -11.921875 L 3.5625 -9.53125 L 0.546875 -9.53125 L 0.546875 -14.6875 Z M 12.3125 -14.6875 "/></g></g></g><g fill="#000000" fill-opacity="1"><g transform="translate(691.859676, 172.982662)"><g><path d="M 12.3125 -14.6875 L 12.3125 -12.484375 L 6.859375 0 L 3.171875 0 L 8.4375 -11.921875 L 3.5625 -11.921875 L 3.5625 -9.53125 L 0.546875 -9.53125 L 0.546875 -14.6875 Z M 12.3125 -14.6875 "/></g></g></g><g fill="#000000" fill-opacity="1"><g transform="translate(704.866501, 172.982662)"><g><path d="M 4.21875 -6.75 C 3.144531 -6.75 2.265625 -7.113281 1.578125 -7.84375 C 0.898438 -8.582031 0.5625 -9.570312 0.5625 -10.8125 C 0.5625 -12.039062 0.898438 -13.019531 1.578125 -13.75 C 2.265625 -14.488281 3.144531 -14.859375 4.21875 -14.859375 C 5.289062 -14.859375 6.160156 -14.488281 6.828125 -13.75 C 7.503906 -13.019531 7.84375 -12.039062 7.84375 -10.8125 C 7.84375 -9.570312 7.503906 -8.582031 6.828125 -7.84375 C 6.160156 -7.113281 5.289062 -6.75 4.21875 -6.75 Z M 12.96875 -14.6875 L 15.46875 -14.6875 L 5.4375 0 L 2.9375 0 Z M 4.21875 -8.484375 C 4.695312 -8.484375 5.070312 -8.675781 5.34375 -9.0625 C 5.613281 -9.457031 5.75 -10.039062 5.75 -10.8125 C 5.75 -11.582031 5.613281 -12.160156 5.34375 -12.546875 C 5.070312 -12.941406 4.695312 -13.140625 4.21875 -13.140625 C 3.757812 -13.140625 3.390625 -12.9375 3.109375 -12.53125 C 2.828125 -12.132812 2.6875 -11.5625 2.6875 -10.8125 C 2.6875 -10.050781 2.828125 -9.472656 3.109375 -9.078125 C 3.390625 -8.679688 3.757812 -8.484375 4.21875 -8.484375 Z M 14.1875 0.171875 C 13.488281 0.171875 12.863281 0.0078125 12.3125 -0.3125 C 11.757812 -0.644531 11.328125 -1.117188 11.015625 -1.734375 C 10.710938 -2.359375 10.5625 -3.070312 10.5625 -3.875 C 10.5625 -4.6875 10.710938 -5.398438 11.015625 -6.015625 C 11.328125 -6.640625 11.757812 -7.113281 12.3125 -7.4375 C 12.863281 -7.769531 13.488281 -7.9375 14.1875 -7.9375 C 15.257812 -7.9375 16.132812 -7.566406 16.8125 -6.828125 C 17.5 -6.097656 17.84375 -5.113281 17.84375 -3.875 C 17.84375 -2.644531 17.5 -1.660156 16.8125 -0.921875 C 16.132812 -0.191406 15.257812 0.171875 14.1875 0.171875 Z M 14.1875 -1.546875 C 14.664062 -1.546875 15.039062 -1.742188 15.3125 -2.140625 C 15.582031 -2.546875 15.71875 -3.125 15.71875 -3.875 C 15.71875 -4.632812 15.582031 -5.210938 15.3125 -5.609375 C 15.039062 -6.015625 14.664062 -6.21875 14.1875 -6.21875 C 13.726562 -6.21875 13.359375 -6.019531 13.078125 -5.625 C 12.796875 -5.226562 12.65625 -4.644531 12.65625 -3.875 C 12.65625 -3.113281 12.796875 -2.535156 13.078125 -2.140625 C 13.359375 -1.742188 13.726562 -1.546875 14.1875 -1.546875 Z M 14.1875 -1.546875 "/></g></g></g><g fill="#000000" fill-opacity="1"><g transform="translate(34.808632, 175.450508)"><g><path d="M 1.15625 -9.796875 L 5.609375 -9.796875 C 6.671875 -9.796875 7.609375 -9.59375 8.421875 -9.1875 C 9.242188 -8.78125 9.878906 -8.207031 10.328125 -7.46875 C 10.773438 -6.726562 11 -5.867188 11 -4.890625 C 11 -3.910156 10.773438 -3.050781 10.328125 -2.3125 C 9.878906 -1.582031 9.242188 -1.015625 8.421875 -0.609375 C 7.609375 -0.203125 6.671875 0 5.609375 0 L 1.15625 0 Z M 5.5 -1.859375 C 6.476562 -1.859375 7.257812 -2.128906 7.84375 -2.671875 C 8.425781 -3.222656 8.71875 -3.960938 8.71875 -4.890625 C 8.71875 -5.828125 8.425781 -6.566406 7.84375 -7.109375 C 7.257812 -7.648438 6.476562 -7.921875 5.5 -7.921875 L 3.421875 -7.921875 L 3.421875 -1.859375 Z M 5.5 -1.859375 "/></g></g></g><g fill="#000000" fill-opacity="1"><g transform="translate(46.354435, 175.450508)"><g><path d="M 1 -7.53125 L 3.1875 -7.53125 L 3.1875 0 L 1 0 Z M 2.09375 -8.578125 C 1.695312 -8.578125 1.375 -8.691406 1.125 -8.921875 C 0.875 -9.148438 0.75 -9.441406 0.75 -9.796875 C 0.75 -10.140625 0.875 -10.425781 1.125 -10.65625 C 1.375 -10.882812 1.695312 -11 2.09375 -11 C 2.5 -11 2.828125 -10.882812 3.078125 -10.65625 C 3.328125 -10.4375 3.453125 -10.160156 3.453125 -9.828125 C 3.453125 -9.460938 3.328125 -9.160156 3.078125 -8.921875 C 2.828125 -8.691406 2.5 -8.578125 2.09375 -8.578125 Z M 2.09375 -8.578125 "/></g></g></g><g fill="#000000" fill-opacity="1"><g transform="translate(50.561809, 175.450508)"><g><path d="M 8.46875 -7.53125 L 5.296875 0 L 3.046875 0 L -0.109375 -7.53125 L 2.140625 -7.53125 L 4.21875 -2.40625 L 6.375 -7.53125 Z M 8.46875 -7.53125 "/></g></g></g><g fill="#000000" fill-opacity="1"><g transform="translate(58.92063, 175.450508)"><g><path d="M 8.375 -3.734375 C 8.375 -3.703125 8.359375 -3.503906 8.328125 -3.140625 L 2.640625 -3.140625 C 2.742188 -2.679688 2.984375 -2.316406 3.359375 -2.046875 C 3.742188 -1.773438 4.222656 -1.640625 4.796875 -1.640625 C 5.191406 -1.640625 5.539062 -1.695312 5.84375 -1.8125 C 6.144531 -1.925781 6.425781 -2.109375 6.6875 -2.359375 L 7.84375 -1.109375 C 7.132812 -0.296875 6.097656 0.109375 4.734375 0.109375 C 3.890625 0.109375 3.140625 -0.0507812 2.484375 -0.375 C 1.835938 -0.707031 1.335938 -1.164062 0.984375 -1.75 C 0.628906 -2.34375 0.453125 -3.015625 0.453125 -3.765625 C 0.453125 -4.492188 0.625 -5.15625 0.96875 -5.75 C 1.320312 -6.34375 1.800781 -6.804688 2.40625 -7.140625 C 3.019531 -7.472656 3.707031 -7.640625 4.46875 -7.640625 C 5.195312 -7.640625 5.859375 -7.476562 6.453125 -7.15625 C 7.054688 -6.84375 7.523438 -6.390625 7.859375 -5.796875 C 8.203125 -5.203125 8.375 -4.515625 8.375 -3.734375 Z M 4.46875 -5.984375 C 3.976562 -5.984375 3.566406 -5.84375 3.234375 -5.5625 C 2.898438 -5.28125 2.691406 -4.898438 2.609375 -4.421875 L 6.328125 -4.421875 C 6.242188 -4.890625 6.035156 -5.265625 5.703125 -5.546875 C 5.367188 -5.835938 4.957031 -5.984375 4.46875 -5.984375 Z M 4.46875 -5.984375 "/></g></g></g><g fill="#000000" fill-opacity="1"><g transform="translate(67.740728, 175.450508)"><g><path d="M 3.09375 -6.53125 C 3.351562 -6.894531 3.703125 -7.171875 4.140625 -7.359375 C 4.585938 -7.546875 5.097656 -7.640625 5.671875 -7.640625 L 5.671875 -5.625 C 5.429688 -5.644531 5.269531 -5.65625 5.1875 -5.65625 C 4.5625 -5.65625 4.070312 -5.476562 3.71875 -5.125 C 3.363281 -4.769531 3.1875 -4.242188 3.1875 -3.546875 L 3.1875 0 L 1 0 L 1 -7.53125 L 3.09375 -7.53125 Z M 3.09375 -6.53125 "/></g></g></g><g fill="#000000" fill-opacity="1"><g transform="translate(73.765235, 175.450508)"><g><path d="M 3.53125 0.109375 C 2.90625 0.109375 2.296875 0.0351562 1.703125 -0.109375 C 1.109375 -0.265625 0.632812 -0.460938 0.28125 -0.703125 L 1 -2.265625 C 1.34375 -2.046875 1.75 -1.867188 2.21875 -1.734375 C 2.695312 -1.597656 3.164062 -1.53125 3.625 -1.53125 C 4.539062 -1.53125 5 -1.757812 5 -2.21875 C 5 -2.4375 4.875 -2.59375 4.625 -2.6875 C 4.375 -2.78125 3.988281 -2.859375 3.46875 -2.921875 C 2.851562 -3.015625 2.34375 -3.117188 1.9375 -3.234375 C 1.539062 -3.359375 1.195312 -3.570312 0.90625 -3.875 C 0.613281 -4.1875 0.46875 -4.628906 0.46875 -5.203125 C 0.46875 -5.679688 0.601562 -6.101562 0.875 -6.46875 C 1.144531 -6.832031 1.539062 -7.117188 2.0625 -7.328125 C 2.59375 -7.535156 3.21875 -7.640625 3.9375 -7.640625 C 4.46875 -7.640625 5 -7.578125 5.53125 -7.453125 C 6.0625 -7.335938 6.5 -7.179688 6.84375 -6.984375 L 6.109375 -5.421875 C 5.453125 -5.796875 4.726562 -5.984375 3.9375 -5.984375 C 3.476562 -5.984375 3.128906 -5.914062 2.890625 -5.78125 C 2.660156 -5.65625 2.546875 -5.488281 2.546875 -5.28125 C 2.546875 -5.050781 2.671875 -4.890625 2.921875 -4.796875 C 3.171875 -4.703125 3.570312 -4.613281 4.125 -4.53125 C 4.738281 -4.425781 5.238281 -4.316406 5.625 -4.203125 C 6.019531 -4.085938 6.363281 -3.875 6.65625 -3.5625 C 6.945312 -3.257812 7.09375 -2.832031 7.09375 -2.28125 C 7.09375 -1.8125 6.953125 -1.394531 6.671875 -1.03125 C 6.390625 -0.664062 5.976562 -0.382812 5.4375 -0.1875 C 4.90625 0.0078125 4.269531 0.109375 3.53125 0.109375 Z M 3.53125 0.109375 "/></g></g></g><g fill="#000000" fill-opacity="1"><g transform="translate(81.187532, 175.450508)"><g><path d="M 1 -7.53125 L 3.1875 -7.53125 L 3.1875 0 L 1 0 Z M 2.09375 -8.578125 C 1.695312 -8.578125 1.375 -8.691406 1.125 -8.921875 C 0.875 -9.148438 0.75 -9.441406 0.75 -9.796875 C 0.75 -10.140625 0.875 -10.425781 1.125 -10.65625 C 1.375 -10.882812 1.695312 -11 2.09375 -11 C 2.5 -11 2.828125 -10.882812 3.078125 -10.65625 C 3.328125 -10.4375 3.453125 -10.160156 3.453125 -9.828125 C 3.453125 -9.460938 3.328125 -9.160156 3.078125 -8.921875 C 2.828125 -8.691406 2.5 -8.578125 2.09375 -8.578125 Z M 2.09375 -8.578125 "/></g></g></g><g fill="#000000" fill-opacity="1"><g transform="translate(85.394906, 175.450508)"><g><path d="M 3.390625 -7.359375 L 5.328125 -7.359375 L 5.328125 -5.671875 L 3.453125 -5.671875 L 3.453125 0 L 1.265625 0 L 1.265625 -5.671875 L 0.109375 -5.671875 L 0.109375 -7.359375 L 1.265625 -7.359375 L 1.265625 -7.6875 C 1.265625 -8.550781 1.519531 -9.234375 2.03125 -9.734375 C 2.539062 -10.234375 3.257812 -10.484375 4.1875 -10.484375 C 4.507812 -10.484375 4.816406 -10.445312 5.109375 -10.375 C 5.398438 -10.3125 5.644531 -10.210938 5.84375 -10.078125 L 5.265625 -8.5 C 5.015625 -8.675781 4.722656 -8.765625 4.390625 -8.765625 C 3.722656 -8.765625 3.390625 -8.398438 3.390625 -7.671875 Z M 3.390625 -7.359375 "/></g></g></g><g fill="#000000" fill-opacity="1"><g transform="translate(90.804381, 175.450508)"><g><path d="M 1 -7.53125 L 3.1875 -7.53125 L 3.1875 0 L 1 0 Z M 2.09375 -8.578125 C 1.695312 -8.578125 1.375 -8.691406 1.125 -8.921875 C 0.875 -9.148438 0.75 -9.441406 0.75 -9.796875 C 0.75 -10.140625 0.875 -10.425781 1.125 -10.65625 C 1.375 -10.882812 1.695312 -11 2.09375 -11 C 2.5 -11 2.828125 -10.882812 3.078125 -10.65625 C 3.328125 -10.4375 3.453125 -10.160156 3.453125 -9.828125 C 3.453125 -9.460938 3.328125 -9.160156 3.078125 -8.921875 C 2.828125 -8.691406 2.5 -8.578125 2.09375 -8.578125 Z M 2.09375 -8.578125 "/></g></g></g><g fill="#000000" fill-opacity="1"><g transform="translate(95.011755, 175.450508)"><g><path d="M 8.375 -3.734375 C 8.375 -3.703125 8.359375 -3.503906 8.328125 -3.140625 L 2.640625 -3.140625 C 2.742188 -2.679688 2.984375 -2.316406 3.359375 -2.046875 C 3.742188 -1.773438 4.222656 -1.640625 4.796875 -1.640625 C 5.191406 -1.640625 5.539062 -1.695312 5.84375 -1.8125 C 6.144531 -1.925781 6.425781 -2.109375 6.6875 -2.359375 L 7.84375 -1.109375 C 7.132812 -0.296875 6.097656 0.109375 4.734375 0.109375 C 3.890625 0.109375 3.140625 -0.0507812 2.484375 -0.375 C 1.835938 -0.707031 1.335938 -1.164062 0.984375 -1.75 C 0.628906 -2.34375 0.453125 -3.015625 0.453125 -3.765625 C 0.453125 -4.492188 0.625 -5.15625 0.96875 -5.75 C 1.320312 -6.34375 1.800781 -6.804688 2.40625 -7.140625 C 3.019531 -7.472656 3.707031 -7.640625 4.46875 -7.640625 C 5.195312 -7.640625 5.859375 -7.476562 6.453125 -7.15625 C 7.054688 -6.84375 7.523438 -6.390625 7.859375 -5.796875 C 8.203125 -5.203125 8.375 -4.515625 8.375 -3.734375 Z M 4.46875 -5.984375 C 3.976562 -5.984375 3.566406 -5.84375 3.234375 -5.5625 C 2.898438 -5.28125 2.691406 -4.898438 2.609375 -4.421875 L 6.328125 -4.421875 C 6.242188 -4.890625 6.035156 -5.265625 5.703125 -5.546875 C 5.367188 -5.835938 4.957031 -5.984375 4.46875 -5.984375 Z M 5.03125 -10.5 L 7.375 -10.5 L 4.84375 -8.484375 L 3.140625 -8.484375 Z M 5.03125 -10.5 "/></g></g></g><g fill="#000000" fill-opacity="1"><g transform="translate(103.831853, 175.450508)"><g><path d="M 3.53125 0.109375 C 2.90625 0.109375 2.296875 0.0351562 1.703125 -0.109375 C 1.109375 -0.265625 0.632812 -0.460938 0.28125 -0.703125 L 1 -2.265625 C 1.34375 -2.046875 1.75 -1.867188 2.21875 -1.734375 C 2.695312 -1.597656 3.164062 -1.53125 3.625 -1.53125 C 4.539062 -1.53125 5 -1.757812 5 -2.21875 C 5 -2.4375 4.875 -2.59375 4.625 -2.6875 C 4.375 -2.78125 3.988281 -2.859375 3.46875 -2.921875 C 2.851562 -3.015625 2.34375 -3.117188 1.9375 -3.234375 C 1.539062 -3.359375 1.195312 -3.570312 0.90625 -3.875 C 0.613281 -4.1875 0.46875 -4.628906 0.46875 -5.203125 C 0.46875 -5.679688 0.601562 -6.101562 0.875 -6.46875 C 1.144531 -6.832031 1.539062 -7.117188 2.0625 -7.328125 C 2.59375 -7.535156 3.21875 -7.640625 3.9375 -7.640625 C 4.46875 -7.640625 5 -7.578125 5.53125 -7.453125 C 6.0625 -7.335938 6.5 -7.179688 6.84375 -6.984375 L 6.109375 -5.421875 C 5.453125 -5.796875 4.726562 -5.984375 3.9375 -5.984375 C 3.476562 -5.984375 3.128906 -5.914062 2.890625 -5.78125 C 2.660156 -5.65625 2.546875 -5.488281 2.546875 -5.28125 C 2.546875 -5.050781 2.671875 -4.890625 2.921875 -4.796875 C 3.171875 -4.703125 3.570312 -4.613281 4.125 -4.53125 C 4.738281 -4.425781 5.238281 -4.316406 5.625 -4.203125 C 6.019531 -4.085938 6.363281 -3.875 6.65625 -3.5625 C 6.945312 -3.257812 7.09375 -2.832031 7.09375 -2.28125 C 7.09375 -1.8125 6.953125 -1.394531 6.671875 -1.03125 C 6.390625 -0.664062 5.976562 -0.382812 5.4375 -0.1875 C 4.90625 0.0078125 4.269531 0.109375 3.53125 0.109375 Z M 3.53125 0.109375 "/></g></g></g><g fill="#000000" fill-opacity="1"><g transform="translate(4.072324, 285.333209)"><g><path d="M 10.0625 0 L 10.0625 -5.875 L 7.171875 -1.03125 L 6.15625 -1.03125 L 3.28125 -5.75 L 3.28125 0 L 1.15625 0 L 1.15625 -9.796875 L 3.03125 -9.796875 L 6.703125 -3.703125 L 10.3125 -9.796875 L 12.171875 -9.796875 L 12.1875 0 Z M 10.0625 0 "/></g></g></g><g fill="#000000" fill-opacity="1"><g transform="translate(17.421288, 285.333209)"><g><path d="M 4.59375 0.109375 C 3.789062 0.109375 3.078125 -0.0507812 2.453125 -0.375 C 1.828125 -0.707031 1.335938 -1.164062 0.984375 -1.75 C 0.628906 -2.34375 0.453125 -3.015625 0.453125 -3.765625 C 0.453125 -4.503906 0.628906 -5.164062 0.984375 -5.75 C 1.335938 -6.34375 1.828125 -6.804688 2.453125 -7.140625 C 3.078125 -7.472656 3.789062 -7.640625 4.59375 -7.640625 C 5.382812 -7.640625 6.09375 -7.472656 6.71875 -7.140625 C 7.34375 -6.804688 7.832031 -6.34375 8.1875 -5.75 C 8.539062 -5.164062 8.71875 -4.503906 8.71875 -3.765625 C 8.71875 -3.015625 8.539062 -2.34375 8.1875 -1.75 C 7.832031 -1.164062 7.34375 -0.707031 6.71875 -0.375 C 6.09375 -0.0507812 5.382812 0.109375 4.59375 0.109375 Z M 4.59375 -1.671875 C 5.144531 -1.671875 5.597656 -1.859375 5.953125 -2.234375 C 6.316406 -2.617188 6.5 -3.128906 6.5 -3.765625 C 6.5 -4.398438 6.316406 -4.90625 5.953125 -5.28125 C 5.597656 -5.65625 5.144531 -5.84375 4.59375 -5.84375 C 4.03125 -5.84375 3.566406 -5.65625 3.203125 -5.28125 C 2.835938 -4.90625 2.65625 -4.398438 2.65625 -3.765625 C 2.65625 -3.128906 2.835938 -2.617188 3.203125 -2.234375 C 3.566406 -1.859375 4.03125 -1.671875 4.59375 -1.671875 Z M 4.59375 -1.671875 "/></g></g></g><g fill="#000000" fill-opacity="1"><g transform="translate(26.576861, 285.333209)"><g><path d="M 8.46875 -7.53125 L 5.078125 0.46875 C 4.734375 1.332031 4.304688 1.941406 3.796875 2.296875 C 3.285156 2.648438 2.671875 2.828125 1.953125 2.828125 C 1.566406 2.828125 1.179688 2.765625 0.796875 2.640625 C 0.410156 2.523438 0.0976562 2.359375 -0.140625 2.140625 L 0.65625 0.59375 C 0.820312 0.738281 1.015625 0.851562 1.234375 0.9375 C 1.453125 1.019531 1.671875 1.0625 1.890625 1.0625 C 2.179688 1.0625 2.421875 0.988281 2.609375 0.84375 C 2.796875 0.695312 2.96875 0.457031 3.125 0.125 L 3.140625 0.0625 L -0.109375 -7.53125 L 2.140625 -7.53125 L 4.25 -2.421875 L 6.375 -7.53125 Z M 8.46875 -7.53125 "/></g></g></g><g fill="#000000" fill-opacity="1"><g transform="translate(34.935682, 285.333209)"><g><path d="M 8.375 -3.734375 C 8.375 -3.703125 8.359375 -3.503906 8.328125 -3.140625 L 2.640625 -3.140625 C 2.742188 -2.679688 2.984375 -2.316406 3.359375 -2.046875 C 3.742188 -1.773438 4.222656 -1.640625 4.796875 -1.640625 C 5.191406 -1.640625 5.539062 -1.695312 5.84375 -1.8125 C 6.144531 -1.925781 6.425781 -2.109375 6.6875 -2.359375 L 7.84375 -1.109375 C 7.132812 -0.296875 6.097656 0.109375 4.734375 0.109375 C 3.890625 0.109375 3.140625 -0.0507812 2.484375 -0.375 C 1.835938 -0.707031 1.335938 -1.164062 0.984375 -1.75 C 0.628906 -2.34375 0.453125 -3.015625 0.453125 -3.765625 C 0.453125 -4.492188 0.625 -5.15625 0.96875 -5.75 C 1.320312 -6.34375 1.800781 -6.804688 2.40625 -7.140625 C 3.019531 -7.472656 3.707031 -7.640625 4.46875 -7.640625 C 5.195312 -7.640625 5.859375 -7.476562 6.453125 -7.15625 C 7.054688 -6.84375 7.523438 -6.390625 7.859375 -5.796875 C 8.203125 -5.203125 8.375 -4.515625 8.375 -3.734375 Z M 4.46875 -5.984375 C 3.976562 -5.984375 3.566406 -5.84375 3.234375 -5.5625 C 2.898438 -5.28125 2.691406 -4.898438 2.609375 -4.421875 L 6.328125 -4.421875 C 6.242188 -4.890625 6.035156 -5.265625 5.703125 -5.546875 C 5.367188 -5.835938 4.957031 -5.984375 4.46875 -5.984375 Z M 4.46875 -5.984375 "/></g></g></g><g fill="#000000" fill-opacity="1"><g transform="translate(43.75578, 285.333209)"><g><path d="M 5.578125 -7.640625 C 6.515625 -7.640625 7.269531 -7.359375 7.84375 -6.796875 C 8.414062 -6.234375 8.703125 -5.40625 8.703125 -4.3125 L 8.703125 0 L 6.515625 0 L 6.515625 -3.96875 C 6.515625 -4.5625 6.382812 -5.003906 6.125 -5.296875 C 5.863281 -5.597656 5.488281 -5.75 5 -5.75 C 4.445312 -5.75 4.003906 -5.578125 3.671875 -5.234375 C 3.347656 -4.898438 3.1875 -4.394531 3.1875 -3.71875 L 3.1875 0 L 1 0 L 1 -7.53125 L 3.09375 -7.53125 L 3.09375 -6.640625 C 3.382812 -6.960938 3.742188 -7.207031 4.171875 -7.375 C 4.597656 -7.550781 5.066406 -7.640625 5.578125 -7.640625 Z M 5.578125 -7.640625 "/></g></g></g><g fill="#000000" fill-opacity="1"><g transform="translate(53.414552, 285.333209)"><g><path d="M 5.578125 -7.640625 C 6.515625 -7.640625 7.269531 -7.359375 7.84375 -6.796875 C 8.414062 -6.234375 8.703125 -5.40625 8.703125 -4.3125 L 8.703125 0 L 6.515625 0 L 6.515625 -3.96875 C 6.515625 -4.5625 6.382812 -5.003906 6.125 -5.296875 C 5.863281 -5.597656 5.488281 -5.75 5 -5.75 C 4.445312 -5.75 4.003906 -5.578125 3.671875 -5.234375 C 3.347656 -4.898438 3.1875 -4.394531 3.1875 -3.71875 L 3.1875 0 L 1 0 L 1 -7.53125 L 3.09375 -7.53125 L 3.09375 -6.640625 C 3.382812 -6.960938 3.742188 -7.207031 4.171875 -7.375 C 4.597656 -7.550781 5.066406 -7.640625 5.578125 -7.640625 Z M 5.578125 -7.640625 "/></g></g></g><g fill="#000000" fill-opacity="1"><g transform="translate(63.073324, 285.333209)"><g><path d="M 8.375 -3.734375 C 8.375 -3.703125 8.359375 -3.503906 8.328125 -3.140625 L 2.640625 -3.140625 C 2.742188 -2.679688 2.984375 -2.316406 3.359375 -2.046875 C 3.742188 -1.773438 4.222656 -1.640625 4.796875 -1.640625 C 5.191406 -1.640625 5.539062 -1.695312 5.84375 -1.8125 C 6.144531 -1.925781 6.425781 -2.109375 6.6875 -2.359375 L 7.84375 -1.109375 C 7.132812 -0.296875 6.097656 0.109375 4.734375 0.109375 C 3.890625 0.109375 3.140625 -0.0507812 2.484375 -0.375 C 1.835938 -0.707031 1.335938 -1.164062 0.984375 -1.75 C 0.628906 -2.34375 0.453125 -3.015625 0.453125 -3.765625 C 0.453125 -4.492188 0.625 -5.15625 0.96875 -5.75 C 1.320312 -6.34375 1.800781 -6.804688 2.40625 -7.140625 C 3.019531 -7.472656 3.707031 -7.640625 4.46875 -7.640625 C 5.195312 -7.640625 5.859375 -7.476562 6.453125 -7.15625 C 7.054688 -6.84375 7.523438 -6.390625 7.859375 -5.796875 C 8.203125 -5.203125 8.375 -4.515625 8.375 -3.734375 Z M 4.46875 -5.984375 C 3.976562 -5.984375 3.566406 -5.84375 3.234375 -5.5625 C 2.898438 -5.28125 2.691406 -4.898438 2.609375 -4.421875 L 6.328125 -4.421875 C 6.242188 -4.890625 6.035156 -5.265625 5.703125 -5.546875 C 5.367188 -5.835938 4.957031 -5.984375 4.46875 -5.984375 Z M 4.46875 -5.984375 "/></g></g></g><g fill="#000000" fill-opacity="1"><g transform="translate(71.893422, 285.333209)"><g><path d="M 10.640625 -7.640625 C 11.578125 -7.640625 12.320312 -7.359375 12.875 -6.796875 C 13.4375 -6.242188 13.71875 -5.414062 13.71875 -4.3125 L 13.71875 0 L 11.53125 0 L 11.53125 -3.96875 C 11.53125 -4.5625 11.40625 -5.003906 11.15625 -5.296875 C 10.914062 -5.597656 10.566406 -5.75 10.109375 -5.75 C 9.597656 -5.75 9.191406 -5.582031 8.890625 -5.25 C 8.597656 -4.914062 8.453125 -4.425781 8.453125 -3.78125 L 8.453125 0 L 6.265625 0 L 6.265625 -3.96875 C 6.265625 -5.15625 5.789062 -5.75 4.84375 -5.75 C 4.332031 -5.75 3.925781 -5.582031 3.625 -5.25 C 3.332031 -4.914062 3.1875 -4.425781 3.1875 -3.78125 L 3.1875 0 L 1 0 L 1 -7.53125 L 3.09375 -7.53125 L 3.09375 -6.65625 C 3.375 -6.96875 3.71875 -7.207031 4.125 -7.375 C 4.53125 -7.550781 4.972656 -7.640625 5.453125 -7.640625 C 5.984375 -7.640625 6.460938 -7.53125 6.890625 -7.3125 C 7.316406 -7.101562 7.660156 -6.800781 7.921875 -6.40625 C 8.234375 -6.800781 8.625 -7.101562 9.09375 -7.3125 C 9.5625 -7.53125 10.078125 -7.640625 10.640625 -7.640625 Z M 10.640625 -7.640625 "/></g></g></g><g fill="#000000" fill-opacity="1"><g transform="translate(86.556308, 285.333209)"><g><path d="M 8.375 -3.734375 C 8.375 -3.703125 8.359375 -3.503906 8.328125 -3.140625 L 2.640625 -3.140625 C 2.742188 -2.679688 2.984375 -2.316406 3.359375 -2.046875 C 3.742188 -1.773438 4.222656 -1.640625 4.796875 -1.640625 C 5.191406 -1.640625 5.539062 -1.695312 5.84375 -1.8125 C 6.144531 -1.925781 6.425781 -2.109375 6.6875 -2.359375 L 7.84375 -1.109375 C 7.132812 -0.296875 6.097656 0.109375 4.734375 0.109375 C 3.890625 0.109375 3.140625 -0.0507812 2.484375 -0.375 C 1.835938 -0.707031 1.335938 -1.164062 0.984375 -1.75 C 0.628906 -2.34375 0.453125 -3.015625 0.453125 -3.765625 C 0.453125 -4.492188 0.625 -5.15625 0.96875 -5.75 C 1.320312 -6.34375 1.800781 -6.804688 2.40625 -7.140625 C 3.019531 -7.472656 3.707031 -7.640625 4.46875 -7.640625 C 5.195312 -7.640625 5.859375 -7.476562 6.453125 -7.15625 C 7.054688 -6.84375 7.523438 -6.390625 7.859375 -5.796875 C 8.203125 -5.203125 8.375 -4.515625 8.375 -3.734375 Z M 4.46875 -5.984375 C 3.976562 -5.984375 3.566406 -5.84375 3.234375 -5.5625 C 2.898438 -5.28125 2.691406 -4.898438 2.609375 -4.421875 L 6.328125 -4.421875 C 6.242188 -4.890625 6.035156 -5.265625 5.703125 -5.546875 C 5.367188 -5.835938 4.957031 -5.984375 4.46875 -5.984375 Z M 4.46875 -5.984375 "/></g></g></g><g fill="#000000" fill-opacity="1"><g transform="translate(95.376406, 285.333209)"><g><path d="M 5.578125 -7.640625 C 6.515625 -7.640625 7.269531 -7.359375 7.84375 -6.796875 C 8.414062 -6.234375 8.703125 -5.40625 8.703125 -4.3125 L 8.703125 0 L 6.515625 0 L 6.515625 -3.96875 C 6.515625 -4.5625 6.382812 -5.003906 6.125 -5.296875 C 5.863281 -5.597656 5.488281 -5.75 5 -5.75 C 4.445312 -5.75 4.003906 -5.578125 3.671875 -5.234375 C 3.347656 -4.898438 3.1875 -4.394531 3.1875 -3.71875 L 3.1875 0 L 1 0 L 1 -7.53125 L 3.09375 -7.53125 L 3.09375 -6.640625 C 3.382812 -6.960938 3.742188 -7.207031 4.171875 -7.375 C 4.597656 -7.550781 5.066406 -7.640625 5.578125 -7.640625 Z M 5.578125 -7.640625 "/></g></g></g><g fill="#000000" fill-opacity="1"><g transform="translate(105.035178, 285.333209)"><g><path d="M 5.859375 -0.359375 C 5.640625 -0.203125 5.375 -0.0820312 5.0625 0 C 4.75 0.0703125 4.421875 0.109375 4.078125 0.109375 C 3.179688 0.109375 2.488281 -0.117188 2 -0.578125 C 1.507812 -1.035156 1.265625 -1.707031 1.265625 -2.59375 L 1.265625 -5.671875 L 0.109375 -5.671875 L 0.109375 -7.359375 L 1.265625 -7.359375 L 1.265625 -9.1875 L 3.453125 -9.1875 L 3.453125 -7.359375 L 5.328125 -7.359375 L 5.328125 -5.671875 L 3.453125 -5.671875 L 3.453125 -2.609375 C 3.453125 -2.296875 3.53125 -2.050781 3.6875 -1.875 C 3.851562 -1.707031 4.085938 -1.625 4.390625 -1.625 C 4.734375 -1.625 5.023438 -1.71875 5.265625 -1.90625 Z M 5.859375 -0.359375 "/></g></g></g><g fill="#000000" fill-opacity="1"><g transform="translate(20.309711, 304.813391)"><g><path d="M 8.671875 -10.375 L 8.671875 0 L 6.59375 0 L 6.59375 -0.859375 C 6.050781 -0.210938 5.265625 0.109375 4.234375 0.109375 C 3.523438 0.109375 2.882812 -0.046875 2.3125 -0.359375 C 1.738281 -0.679688 1.285156 -1.132812 0.953125 -1.71875 C 0.628906 -2.300781 0.46875 -2.984375 0.46875 -3.765625 C 0.46875 -4.535156 0.628906 -5.210938 0.953125 -5.796875 C 1.285156 -6.390625 1.738281 -6.84375 2.3125 -7.15625 C 2.882812 -7.476562 3.523438 -7.640625 4.234375 -7.640625 C 5.191406 -7.640625 5.941406 -7.332031 6.484375 -6.71875 L 6.484375 -10.375 Z M 4.609375 -1.671875 C 5.160156 -1.671875 5.617188 -1.859375 5.984375 -2.234375 C 6.347656 -2.617188 6.53125 -3.128906 6.53125 -3.765625 C 6.53125 -4.398438 6.347656 -4.90625 5.984375 -5.28125 C 5.617188 -5.65625 5.160156 -5.84375 4.609375 -5.84375 C 4.054688 -5.84375 3.597656 -5.65625 3.234375 -5.28125 C 2.867188 -4.90625 2.6875 -4.398438 2.6875 -3.765625 C 2.6875 -3.128906 2.867188 -2.617188 3.234375 -2.234375 C 3.597656 -1.859375 4.054688 -1.671875 4.609375 -1.671875 Z M 4.609375 -1.671875 "/></g></g></g><g fill="#000000" fill-opacity="1"><g transform="translate(29.982465, 304.813391)"><g><path d="M 1 -7.53125 L 3.1875 -7.53125 L 3.1875 0 L 1 0 Z M 2.09375 -8.578125 C 1.695312 -8.578125 1.375 -8.691406 1.125 -8.921875 C 0.875 -9.148438 0.75 -9.441406 0.75 -9.796875 C 0.75 -10.140625 0.875 -10.425781 1.125 -10.65625 C 1.375 -10.882812 1.695312 -11 2.09375 -11 C 2.5 -11 2.828125 -10.882812 3.078125 -10.65625 C 3.328125 -10.4375 3.453125 -10.160156 3.453125 -9.828125 C 3.453125 -9.460938 3.328125 -9.160156 3.078125 -8.921875 C 2.828125 -8.691406 2.5 -8.578125 2.09375 -8.578125 Z M 2.09375 -8.578125 "/></g></g></g><g fill="#000000" fill-opacity="1"><g transform="translate(34.189839, 304.813391)"><g><path d="M 8.46875 -7.53125 L 5.296875 0 L 3.046875 0 L -0.109375 -7.53125 L 2.140625 -7.53125 L 4.21875 -2.40625 L 6.375 -7.53125 Z M 8.46875 -7.53125 "/></g></g></g><g fill="#000000" fill-opacity="1"><g transform="translate(42.54866, 304.813391)"><g><path d="M 8.375 -3.734375 C 8.375 -3.703125 8.359375 -3.503906 8.328125 -3.140625 L 2.640625 -3.140625 C 2.742188 -2.679688 2.984375 -2.316406 3.359375 -2.046875 C 3.742188 -1.773438 4.222656 -1.640625 4.796875 -1.640625 C 5.191406 -1.640625 5.539062 -1.695312 5.84375 -1.8125 C 6.144531 -1.925781 6.425781 -2.109375 6.6875 -2.359375 L 7.84375 -1.109375 C 7.132812 -0.296875 6.097656 0.109375 4.734375 0.109375 C 3.890625 0.109375 3.140625 -0.0507812 2.484375 -0.375 C 1.835938 -0.707031 1.335938 -1.164062 0.984375 -1.75 C 0.628906 -2.34375 0.453125 -3.015625 0.453125 -3.765625 C 0.453125 -4.492188 0.625 -5.15625 0.96875 -5.75 C 1.320312 -6.34375 1.800781 -6.804688 2.40625 -7.140625 C 3.019531 -7.472656 3.707031 -7.640625 4.46875 -7.640625 C 5.195312 -7.640625 5.859375 -7.476562 6.453125 -7.15625 C 7.054688 -6.84375 7.523438 -6.390625 7.859375 -5.796875 C 8.203125 -5.203125 8.375 -4.515625 8.375 -3.734375 Z M 4.46875 -5.984375 C 3.976562 -5.984375 3.566406 -5.84375 3.234375 -5.5625 C 2.898438 -5.28125 2.691406 -4.898438 2.609375 -4.421875 L 6.328125 -4.421875 C 6.242188 -4.890625 6.035156 -5.265625 5.703125 -5.546875 C 5.367188 -5.835938 4.957031 -5.984375 4.46875 -5.984375 Z M 4.46875 -5.984375 "/></g></g></g><g fill="#000000" fill-opacity="1"><g transform="translate(51.368758, 304.813391)"><g><path d="M 3.09375 -6.53125 C 3.351562 -6.894531 3.703125 -7.171875 4.140625 -7.359375 C 4.585938 -7.546875 5.097656 -7.640625 5.671875 -7.640625 L 5.671875 -5.625 C 5.429688 -5.644531 5.269531 -5.65625 5.1875 -5.65625 C 4.5625 -5.65625 4.070312 -5.476562 3.71875 -5.125 C 3.363281 -4.769531 3.1875 -4.242188 3.1875 -3.546875 L 3.1875 0 L 1 0 L 1 -7.53125 L 3.09375 -7.53125 Z M 3.09375 -6.53125 "/></g></g></g><g fill="#000000" fill-opacity="1"><g transform="translate(57.393265, 304.813391)"><g><path d="M 3.53125 0.109375 C 2.90625 0.109375 2.296875 0.0351562 1.703125 -0.109375 C 1.109375 -0.265625 0.632812 -0.460938 0.28125 -0.703125 L 1 -2.265625 C 1.34375 -2.046875 1.75 -1.867188 2.21875 -1.734375 C 2.695312 -1.597656 3.164062 -1.53125 3.625 -1.53125 C 4.539062 -1.53125 5 -1.757812 5 -2.21875 C 5 -2.4375 4.875 -2.59375 4.625 -2.6875 C 4.375 -2.78125 3.988281 -2.859375 3.46875 -2.921875 C 2.851562 -3.015625 2.34375 -3.117188 1.9375 -3.234375 C 1.539062 -3.359375 1.195312 -3.570312 0.90625 -3.875 C 0.613281 -4.1875 0.46875 -4.628906 0.46875 -5.203125 C 0.46875 -5.679688 0.601562 -6.101562 0.875 -6.46875 C 1.144531 -6.832031 1.539062 -7.117188 2.0625 -7.328125 C 2.59375 -7.535156 3.21875 -7.640625 3.9375 -7.640625 C 4.46875 -7.640625 5 -7.578125 5.53125 -7.453125 C 6.0625 -7.335938 6.5 -7.179688 6.84375 -6.984375 L 6.109375 -5.421875 C 5.453125 -5.796875 4.726562 -5.984375 3.9375 -5.984375 C 3.476562 -5.984375 3.128906 -5.914062 2.890625 -5.78125 C 2.660156 -5.65625 2.546875 -5.488281 2.546875 -5.28125 C 2.546875 -5.050781 2.671875 -4.890625 2.921875 -4.796875 C 3.171875 -4.703125 3.570312 -4.613281 4.125 -4.53125 C 4.738281 -4.425781 5.238281 -4.316406 5.625 -4.203125 C 6.019531 -4.085938 6.363281 -3.875 6.65625 -3.5625 C 6.945312 -3.257812 7.09375 -2.832031 7.09375 -2.28125 C 7.09375 -1.8125 6.953125 -1.394531 6.671875 -1.03125 C 6.390625 -0.664062 5.976562 -0.382812 5.4375 -0.1875 C 4.90625 0.0078125 4.269531 0.109375 3.53125 0.109375 Z M 3.53125 0.109375 "/></g></g></g><g fill="#000000" fill-opacity="1"><g transform="translate(64.815562, 304.813391)"><g><path d="M 1 -7.53125 L 3.1875 -7.53125 L 3.1875 0 L 1 0 Z M 2.09375 -8.578125 C 1.695312 -8.578125 1.375 -8.691406 1.125 -8.921875 C 0.875 -9.148438 0.75 -9.441406 0.75 -9.796875 C 0.75 -10.140625 0.875 -10.425781 1.125 -10.65625 C 1.375 -10.882812 1.695312 -11 2.09375 -11 C 2.5 -11 2.828125 -10.882812 3.078125 -10.65625 C 3.328125 -10.4375 3.453125 -10.160156 3.453125 -9.828125 C 3.453125 -9.460938 3.328125 -9.160156 3.078125 -8.921875 C 2.828125 -8.691406 2.5 -8.578125 2.09375 -8.578125 Z M 2.09375 -8.578125 "/></g></g></g><g fill="#000000" fill-opacity="1"><g transform="translate(69.022936, 304.813391)"><g><path d="M 3.390625 -7.359375 L 5.328125 -7.359375 L 5.328125 -5.671875 L 3.453125 -5.671875 L 3.453125 0 L 1.265625 0 L 1.265625 -5.671875 L 0.109375 -5.671875 L 0.109375 -7.359375 L 1.265625 -7.359375 L 1.265625 -7.6875 C 1.265625 -8.550781 1.519531 -9.234375 2.03125 -9.734375 C 2.539062 -10.234375 3.257812 -10.484375 4.1875 -10.484375 C 4.507812 -10.484375 4.816406 -10.445312 5.109375 -10.375 C 5.398438 -10.3125 5.644531 -10.210938 5.84375 -10.078125 L 5.265625 -8.5 C 5.015625 -8.675781 4.722656 -8.765625 4.390625 -8.765625 C 3.722656 -8.765625 3.390625 -8.398438 3.390625 -7.671875 Z M 3.390625 -7.359375 "/></g></g></g><g fill="#000000" fill-opacity="1"><g transform="translate(74.432411, 304.813391)"><g><path d="M 1 -7.53125 L 3.1875 -7.53125 L 3.1875 0 L 1 0 Z M 2.09375 -8.578125 C 1.695312 -8.578125 1.375 -8.691406 1.125 -8.921875 C 0.875 -9.148438 0.75 -9.441406 0.75 -9.796875 C 0.75 -10.140625 0.875 -10.425781 1.125 -10.65625 C 1.375 -10.882812 1.695312 -11 2.09375 -11 C 2.5 -11 2.828125 -10.882812 3.078125 -10.65625 C 3.328125 -10.4375 3.453125 -10.160156 3.453125 -9.828125 C 3.453125 -9.460938 3.328125 -9.160156 3.078125 -8.921875 C 2.828125 -8.691406 2.5 -8.578125 2.09375 -8.578125 Z M 2.09375 -8.578125 "/></g></g></g><g fill="#000000" fill-opacity="1"><g transform="translate(78.639786, 304.813391)"><g><path d="M 8.375 -3.734375 C 8.375 -3.703125 8.359375 -3.503906 8.328125 -3.140625 L 2.640625 -3.140625 C 2.742188 -2.679688 2.984375 -2.316406 3.359375 -2.046875 C 3.742188 -1.773438 4.222656 -1.640625 4.796875 -1.640625 C 5.191406 -1.640625 5.539062 -1.695312 5.84375 -1.8125 C 6.144531 -1.925781 6.425781 -2.109375 6.6875 -2.359375 L 7.84375 -1.109375 C 7.132812 -0.296875 6.097656 0.109375 4.734375 0.109375 C 3.890625 0.109375 3.140625 -0.0507812 2.484375 -0.375 C 1.835938 -0.707031 1.335938 -1.164062 0.984375 -1.75 C 0.628906 -2.34375 0.453125 -3.015625 0.453125 -3.765625 C 0.453125 -4.492188 0.625 -5.15625 0.96875 -5.75 C 1.320312 -6.34375 1.800781 -6.804688 2.40625 -7.140625 C 3.019531 -7.472656 3.707031 -7.640625 4.46875 -7.640625 C 5.195312 -7.640625 5.859375 -7.476562 6.453125 -7.15625 C 7.054688 -6.84375 7.523438 -6.390625 7.859375 -5.796875 C 8.203125 -5.203125 8.375 -4.515625 8.375 -3.734375 Z M 4.46875 -5.984375 C 3.976562 -5.984375 3.566406 -5.84375 3.234375 -5.5625 C 2.898438 -5.28125 2.691406 -4.898438 2.609375 -4.421875 L 6.328125 -4.421875 C 6.242188 -4.890625 6.035156 -5.265625 5.703125 -5.546875 C 5.367188 -5.835938 4.957031 -5.984375 4.46875 -5.984375 Z M 5.03125 -10.5 L 7.375 -10.5 L 4.84375 -8.484375 L 3.140625 -8.484375 Z M 5.03125 -10.5 "/></g></g></g><g fill="#000000" fill-opacity="1"><g transform="translate(87.459884, 304.813391)"><g><path d="M 3.53125 0.109375 C 2.90625 0.109375 2.296875 0.0351562 1.703125 -0.109375 C 1.109375 -0.265625 0.632812 -0.460938 0.28125 -0.703125 L 1 -2.265625 C 1.34375 -2.046875 1.75 -1.867188 2.21875 -1.734375 C 2.695312 -1.597656 3.164062 -1.53125 3.625 -1.53125 C 4.539062 -1.53125 5 -1.757812 5 -2.21875 C 5 -2.4375 4.875 -2.59375 4.625 -2.6875 C 4.375 -2.78125 3.988281 -2.859375 3.46875 -2.921875 C 2.851562 -3.015625 2.34375 -3.117188 1.9375 -3.234375 C 1.539062 -3.359375 1.195312 -3.570312 0.90625 -3.875 C 0.613281 -4.1875 0.46875 -4.628906 0.46875 -5.203125 C 0.46875 -5.679688 0.601562 -6.101562 0.875 -6.46875 C 1.144531 -6.832031 1.539062 -7.117188 2.0625 -7.328125 C 2.59375 -7.535156 3.21875 -7.640625 3.9375 -7.640625 C 4.46875 -7.640625 5 -7.578125 5.53125 -7.453125 C 6.0625 -7.335938 6.5 -7.179688 6.84375 -6.984375 L 6.109375 -5.421875 C 5.453125 -5.796875 4.726562 -5.984375 3.9375 -5.984375 C 3.476562 -5.984375 3.128906 -5.914062 2.890625 -5.78125 C 2.660156 -5.65625 2.546875 -5.488281 2.546875 -5.28125 C 2.546875 -5.050781 2.671875 -4.890625 2.921875 -4.796875 C 3.171875 -4.703125 3.570312 -4.613281 4.125 -4.53125 C 4.738281 -4.425781 5.238281 -4.316406 5.625 -4.203125 C 6.019531 -4.085938 6.363281 -3.875 6.65625 -3.5625 C 6.945312 -3.257812 7.09375 -2.832031 7.09375 -2.28125 C 7.09375 -1.8125 6.953125 -1.394531 6.671875 -1.03125 C 6.390625 -0.664062 5.976562 -0.382812 5.4375 -0.1875 C 4.90625 0.0078125 4.269531 0.109375 3.53125 0.109375 Z M 3.53125 0.109375 "/></g></g></g><g fill="#000000" fill-opacity="1"><g transform="translate(4.072324, 425.323451)"><g><path d="M 5.390625 -9.796875 C 6.265625 -9.796875 7.019531 -9.648438 7.65625 -9.359375 C 8.289062 -9.066406 8.78125 -8.65625 9.125 -8.125 C 9.476562 -7.59375 9.65625 -6.960938 9.65625 -6.234375 C 9.65625 -5.515625 9.476562 -4.882812 9.125 -4.34375 C 8.78125 -3.8125 8.289062 -3.40625 7.65625 -3.125 C 7.019531 -2.84375 6.265625 -2.703125 5.390625 -2.703125 L 3.421875 -2.703125 L 3.421875 0 L 1.15625 0 L 1.15625 -9.796875 Z M 5.265625 -4.546875 C 5.953125 -4.546875 6.472656 -4.691406 6.828125 -4.984375 C 7.179688 -5.273438 7.359375 -5.691406 7.359375 -6.234375 C 7.359375 -6.785156 7.179688 -7.207031 6.828125 -7.5 C 6.472656 -7.789062 5.953125 -7.9375 5.265625 -7.9375 L 3.421875 -7.9375 L 3.421875 -4.546875 Z M 5.265625 -4.546875 "/></g></g></g><g fill="#000000" fill-opacity="1"><g transform="translate(14.304193, 425.323451)"><g><path d="M 8.375 -3.734375 C 8.375 -3.703125 8.359375 -3.503906 8.328125 -3.140625 L 2.640625 -3.140625 C 2.742188 -2.679688 2.984375 -2.316406 3.359375 -2.046875 C 3.742188 -1.773438 4.222656 -1.640625 4.796875 -1.640625 C 5.191406 -1.640625 5.539062 -1.695312 5.84375 -1.8125 C 6.144531 -1.925781 6.425781 -2.109375 6.6875 -2.359375 L 7.84375 -1.109375 C 7.132812 -0.296875 6.097656 0.109375 4.734375 0.109375 C 3.890625 0.109375 3.140625 -0.0507812 2.484375 -0.375 C 1.835938 -0.707031 1.335938 -1.164062 0.984375 -1.75 C 0.628906 -2.34375 0.453125 -3.015625 0.453125 -3.765625 C 0.453125 -4.492188 0.625 -5.15625 0.96875 -5.75 C 1.320312 -6.34375 1.800781 -6.804688 2.40625 -7.140625 C 3.019531 -7.472656 3.707031 -7.640625 4.46875 -7.640625 C 5.195312 -7.640625 5.859375 -7.476562 6.453125 -7.15625 C 7.054688 -6.84375 7.523438 -6.390625 7.859375 -5.796875 C 8.203125 -5.203125 8.375 -4.515625 8.375 -3.734375 Z M 4.46875 -5.984375 C 3.976562 -5.984375 3.566406 -5.84375 3.234375 -5.5625 C 2.898438 -5.28125 2.691406 -4.898438 2.609375 -4.421875 L 6.328125 -4.421875 C 6.242188 -4.890625 6.035156 -5.265625 5.703125 -5.546875 C 5.367188 -5.835938 4.957031 -5.984375 4.46875 -5.984375 Z M 4.46875 -5.984375 "/></g></g></g><g fill="#000000" fill-opacity="1"><g transform="translate(23.124291, 425.323451)"><g><path d="M 8.59375 -7.53125 L 8.59375 0 L 6.515625 0 L 6.515625 -0.890625 C 6.222656 -0.566406 5.875 -0.316406 5.46875 -0.140625 C 5.070312 0.0234375 4.644531 0.109375 4.1875 0.109375 C 3.195312 0.109375 2.410156 -0.171875 1.828125 -0.734375 C 1.253906 -1.304688 0.96875 -2.148438 0.96875 -3.265625 L 0.96875 -7.53125 L 3.140625 -7.53125 L 3.140625 -3.59375 C 3.140625 -2.382812 3.648438 -1.78125 4.671875 -1.78125 C 5.191406 -1.78125 5.609375 -1.945312 5.921875 -2.28125 C 6.242188 -2.625 6.40625 -3.128906 6.40625 -3.796875 L 6.40625 -7.53125 Z M 8.59375 -7.53125 "/></g></g></g><g fill="#000000" fill-opacity="1"><g transform="translate(32.727159, 425.323451)"><g/></g></g><g fill="#000000" fill-opacity="1"><g transform="translate(36.682927, 425.323451)"><g><path d="M 8.671875 -10.375 L 8.671875 0 L 6.59375 0 L 6.59375 -0.859375 C 6.050781 -0.210938 5.265625 0.109375 4.234375 0.109375 C 3.523438 0.109375 2.882812 -0.046875 2.3125 -0.359375 C 1.738281 -0.679688 1.285156 -1.132812 0.953125 -1.71875 C 0.628906 -2.300781 0.46875 -2.984375 0.46875 -3.765625 C 0.46875 -4.535156 0.628906 -5.210938 0.953125 -5.796875 C 1.285156 -6.390625 1.738281 -6.84375 2.3125 -7.15625 C 2.882812 -7.476562 3.523438 -7.640625 4.234375 -7.640625 C 5.191406 -7.640625 5.941406 -7.332031 6.484375 -6.71875 L 6.484375 -10.375 Z M 4.609375 -1.671875 C 5.160156 -1.671875 5.617188 -1.859375 5.984375 -2.234375 C 6.347656 -2.617188 6.53125 -3.128906 6.53125 -3.765625 C 6.53125 -4.398438 6.347656 -4.90625 5.984375 -5.28125 C 5.617188 -5.65625 5.160156 -5.84375 4.609375 -5.84375 C 4.054688 -5.84375 3.597656 -5.65625 3.234375 -5.28125 C 2.867188 -4.90625 2.6875 -4.398438 2.6875 -3.765625 C 2.6875 -3.128906 2.867188 -2.617188 3.234375 -2.234375 C 3.597656 -1.859375 4.054688 -1.671875 4.609375 -1.671875 Z M 4.609375 -1.671875 "/></g></g></g><g fill="#000000" fill-opacity="1"><g transform="translate(46.355681, 425.323451)"><g><path d="M 1 -7.53125 L 3.1875 -7.53125 L 3.1875 0 L 1 0 Z M 2.09375 -8.578125 C 1.695312 -8.578125 1.375 -8.691406 1.125 -8.921875 C 0.875 -9.148438 0.75 -9.441406 0.75 -9.796875 C 0.75 -10.140625 0.875 -10.425781 1.125 -10.65625 C 1.375 -10.882812 1.695312 -11 2.09375 -11 C 2.5 -11 2.828125 -10.882812 3.078125 -10.65625 C 3.328125 -10.4375 3.453125 -10.160156 3.453125 -9.828125 C 3.453125 -9.460938 3.328125 -9.160156 3.078125 -8.921875 C 2.828125 -8.691406 2.5 -8.578125 2.09375 -8.578125 Z M 2.09375 -8.578125 "/></g></g></g><g fill="#000000" fill-opacity="1"><g transform="translate(50.563056, 425.323451)"><g><path d="M 8.46875 -7.53125 L 5.296875 0 L 3.046875 0 L -0.109375 -7.53125 L 2.140625 -7.53125 L 4.21875 -2.40625 L 6.375 -7.53125 Z M 8.46875 -7.53125 "/></g></g></g><g fill="#000000" fill-opacity="1"><g transform="translate(58.921877, 425.323451)"><g><path d="M 8.375 -3.734375 C 8.375 -3.703125 8.359375 -3.503906 8.328125 -3.140625 L 2.640625 -3.140625 C 2.742188 -2.679688 2.984375 -2.316406 3.359375 -2.046875 C 3.742188 -1.773438 4.222656 -1.640625 4.796875 -1.640625 C 5.191406 -1.640625 5.539062 -1.695312 5.84375 -1.8125 C 6.144531 -1.925781 6.425781 -2.109375 6.6875 -2.359375 L 7.84375 -1.109375 C 7.132812 -0.296875 6.097656 0.109375 4.734375 0.109375 C 3.890625 0.109375 3.140625 -0.0507812 2.484375 -0.375 C 1.835938 -0.707031 1.335938 -1.164062 0.984375 -1.75 C 0.628906 -2.34375 0.453125 -3.015625 0.453125 -3.765625 C 0.453125 -4.492188 0.625 -5.15625 0.96875 -5.75 C 1.320312 -6.34375 1.800781 -6.804688 2.40625 -7.140625 C 3.019531 -7.472656 3.707031 -7.640625 4.46875 -7.640625 C 5.195312 -7.640625 5.859375 -7.476562 6.453125 -7.15625 C 7.054688 -6.84375 7.523438 -6.390625 7.859375 -5.796875 C 8.203125 -5.203125 8.375 -4.515625 8.375 -3.734375 Z M 4.46875 -5.984375 C 3.976562 -5.984375 3.566406 -5.84375 3.234375 -5.5625 C 2.898438 -5.28125 2.691406 -4.898438 2.609375 -4.421875 L 6.328125 -4.421875 C 6.242188 -4.890625 6.035156 -5.265625 5.703125 -5.546875 C 5.367188 -5.835938 4.957031 -5.984375 4.46875 -5.984375 Z M 4.46875 -5.984375 "/></g></g></g><g fill="#000000" fill-opacity="1"><g transform="translate(67.741975, 425.323451)"><g><path d="M 3.09375 -6.53125 C 3.351562 -6.894531 3.703125 -7.171875 4.140625 -7.359375 C 4.585938 -7.546875 5.097656 -7.640625 5.671875 -7.640625 L 5.671875 -5.625 C 5.429688 -5.644531 5.269531 -5.65625 5.1875 -5.65625 C 4.5625 -5.65625 4.070312 -5.476562 3.71875 -5.125 C 3.363281 -4.769531 3.1875 -4.242188 3.1875 -3.546875 L 3.1875 0 L 1 0 L 1 -7.53125 L 3.09375 -7.53125 Z M 3.09375 -6.53125 "/></g></g></g><g fill="#000000" fill-opacity="1"><g transform="translate(73.766482, 425.323451)"><g><path d="M 3.53125 0.109375 C 2.90625 0.109375 2.296875 0.0351562 1.703125 -0.109375 C 1.109375 -0.265625 0.632812 -0.460938 0.28125 -0.703125 L 1 -2.265625 C 1.34375 -2.046875 1.75 -1.867188 2.21875 -1.734375 C 2.695312 -1.597656 3.164062 -1.53125 3.625 -1.53125 C 4.539062 -1.53125 5 -1.757812 5 -2.21875 C 5 -2.4375 4.875 -2.59375 4.625 -2.6875 C 4.375 -2.78125 3.988281 -2.859375 3.46875 -2.921875 C 2.851562 -3.015625 2.34375 -3.117188 1.9375 -3.234375 C 1.539062 -3.359375 1.195312 -3.570312 0.90625 -3.875 C 0.613281 -4.1875 0.46875 -4.628906 0.46875 -5.203125 C 0.46875 -5.679688 0.601562 -6.101562 0.875 -6.46875 C 1.144531 -6.832031 1.539062 -7.117188 2.0625 -7.328125 C 2.59375 -7.535156 3.21875 -7.640625 3.9375 -7.640625 C 4.46875 -7.640625 5 -7.578125 5.53125 -7.453125 C 6.0625 -7.335938 6.5 -7.179688 6.84375 -6.984375 L 6.109375 -5.421875 C 5.453125 -5.796875 4.726562 -5.984375 3.9375 -5.984375 C 3.476562 -5.984375 3.128906 -5.914062 2.890625 -5.78125 C 2.660156 -5.65625 2.546875 -5.488281 2.546875 -5.28125 C 2.546875 -5.050781 2.671875 -4.890625 2.921875 -4.796875 C 3.171875 -4.703125 3.570312 -4.613281 4.125 -4.53125 C 4.738281 -4.425781 5.238281 -4.316406 5.625 -4.203125 C 6.019531 -4.085938 6.363281 -3.875 6.65625 -3.5625 C 6.945312 -3.257812 7.09375 -2.832031 7.09375 -2.28125 C 7.09375 -1.8125 6.953125 -1.394531 6.671875 -1.03125 C 6.390625 -0.664062 5.976562 -0.382812 5.4375 -0.1875 C 4.90625 0.0078125 4.269531 0.109375 3.53125 0.109375 Z M 3.53125 0.109375 "/></g></g></g><g fill="#000000" fill-opacity="1"><g transform="translate(81.188778, 425.323451)"><g><path d="M 1 -7.53125 L 3.1875 -7.53125 L 3.1875 0 L 1 0 Z M 2.09375 -8.578125 C 1.695312 -8.578125 1.375 -8.691406 1.125 -8.921875 C 0.875 -9.148438 0.75 -9.441406 0.75 -9.796875 C 0.75 -10.140625 0.875 -10.425781 1.125 -10.65625 C 1.375 -10.882812 1.695312 -11 2.09375 -11 C 2.5 -11 2.828125 -10.882812 3.078125 -10.65625 C 3.328125 -10.4375 3.453125 -10.160156 3.453125 -9.828125 C 3.453125 -9.460938 3.328125 -9.160156 3.078125 -8.921875 C 2.828125 -8.691406 2.5 -8.578125 2.09375 -8.578125 Z M 2.09375 -8.578125 "/></g></g></g><g fill="#000000" fill-opacity="1"><g transform="translate(85.396153, 425.323451)"><g><path d="M 3.390625 -7.359375 L 5.328125 -7.359375 L 5.328125 -5.671875 L 3.453125 -5.671875 L 3.453125 0 L 1.265625 0 L 1.265625 -5.671875 L 0.109375 -5.671875 L 0.109375 -7.359375 L 1.265625 -7.359375 L 1.265625 -7.6875 C 1.265625 -8.550781 1.519531 -9.234375 2.03125 -9.734375 C 2.539062 -10.234375 3.257812 -10.484375 4.1875 -10.484375 C 4.507812 -10.484375 4.816406 -10.445312 5.109375 -10.375 C 5.398438 -10.3125 5.644531 -10.210938 5.84375 -10.078125 L 5.265625 -8.5 C 5.015625 -8.675781 4.722656 -8.765625 4.390625 -8.765625 C 3.722656 -8.765625 3.390625 -8.398438 3.390625 -7.671875 Z M 3.390625 -7.359375 "/></g></g></g><g fill="#000000" fill-opacity="1"><g transform="translate(90.805628, 425.323451)"><g><path d="M 1 -7.53125 L 3.1875 -7.53125 L 3.1875 0 L 1 0 Z M 2.09375 -8.578125 C 1.695312 -8.578125 1.375 -8.691406 1.125 -8.921875 C 0.875 -9.148438 0.75 -9.441406 0.75 -9.796875 C 0.75 -10.140625 0.875 -10.425781 1.125 -10.65625 C 1.375 -10.882812 1.695312 -11 2.09375 -11 C 2.5 -11 2.828125 -10.882812 3.078125 -10.65625 C 3.328125 -10.4375 3.453125 -10.160156 3.453125 -9.828125 C 3.453125 -9.460938 3.328125 -9.160156 3.078125 -8.921875 C 2.828125 -8.691406 2.5 -8.578125 2.09375 -8.578125 Z M 2.09375 -8.578125 "/></g></g></g><g fill="#000000" fill-opacity="1"><g transform="translate(95.013002, 425.323451)"><g><path d="M 8.375 -3.734375 C 8.375 -3.703125 8.359375 -3.503906 8.328125 -3.140625 L 2.640625 -3.140625 C 2.742188 -2.679688 2.984375 -2.316406 3.359375 -2.046875 C 3.742188 -1.773438 4.222656 -1.640625 4.796875 -1.640625 C 5.191406 -1.640625 5.539062 -1.695312 5.84375 -1.8125 C 6.144531 -1.925781 6.425781 -2.109375 6.6875 -2.359375 L 7.84375 -1.109375 C 7.132812 -0.296875 6.097656 0.109375 4.734375 0.109375 C 3.890625 0.109375 3.140625 -0.0507812 2.484375 -0.375 C 1.835938 -0.707031 1.335938 -1.164062 0.984375 -1.75 C 0.628906 -2.34375 0.453125 -3.015625 0.453125 -3.765625 C 0.453125 -4.492188 0.625 -5.15625 0.96875 -5.75 C 1.320312 -6.34375 1.800781 -6.804688 2.40625 -7.140625 C 3.019531 -7.472656 3.707031 -7.640625 4.46875 -7.640625 C 5.195312 -7.640625 5.859375 -7.476562 6.453125 -7.15625 C 7.054688 -6.84375 7.523438 -6.390625 7.859375 -5.796875 C 8.203125 -5.203125 8.375 -4.515625 8.375 -3.734375 Z M 4.46875 -5.984375 C 3.976562 -5.984375 3.566406 -5.84375 3.234375 -5.5625 C 2.898438 -5.28125 2.691406 -4.898438 2.609375 -4.421875 L 6.328125 -4.421875 C 6.242188 -4.890625 6.035156 -5.265625 5.703125 -5.546875 C 5.367188 -5.835938 4.957031 -5.984375 4.46875 -5.984375 Z M 5.03125 -10.5 L 7.375 -10.5 L 4.84375 -8.484375 L 3.140625 -8.484375 Z M 5.03125 -10.5 "/></g></g></g><g fill="#000000" fill-opacity="1"><g transform="translate(103.8331, 425.323451)"><g><path d="M 3.53125 0.109375 C 2.90625 0.109375 2.296875 0.0351562 1.703125 -0.109375 C 1.109375 -0.265625 0.632812 -0.460938 0.28125 -0.703125 L 1 -2.265625 C 1.34375 -2.046875 1.75 -1.867188 2.21875 -1.734375 C 2.695312 -1.597656 3.164062 -1.53125 3.625 -1.53125 C 4.539062 -1.53125 5 -1.757812 5 -2.21875 C 5 -2.4375 4.875 -2.59375 4.625 -2.6875 C 4.375 -2.78125 3.988281 -2.859375 3.46875 -2.921875 C 2.851562 -3.015625 2.34375 -3.117188 1.9375 -3.234375 C 1.539062 -3.359375 1.195312 -3.570312 0.90625 -3.875 C 0.613281 -4.1875 0.46875 -4.628906 0.46875 -5.203125 C 0.46875 -5.679688 0.601562 -6.101562 0.875 -6.46875 C 1.144531 -6.832031 1.539062 -7.117188 2.0625 -7.328125 C 2.59375 -7.535156 3.21875 -7.640625 3.9375 -7.640625 C 4.46875 -7.640625 5 -7.578125 5.53125 -7.453125 C 6.0625 -7.335938 6.5 -7.179688 6.84375 -6.984375 L 6.109375 -5.421875 C 5.453125 -5.796875 4.726562 -5.984375 3.9375 -5.984375 C 3.476562 -5.984375 3.128906 -5.914062 2.890625 -5.78125 C 2.660156 -5.65625 2.546875 -5.488281 2.546875 -5.28125 C 2.546875 -5.050781 2.671875 -4.890625 2.921875 -4.796875 C 3.171875 -4.703125 3.570312 -4.613281 4.125 -4.53125 C 4.738281 -4.425781 5.238281 -4.316406 5.625 -4.203125 C 6.019531 -4.085938 6.363281 -3.875 6.65625 -3.5625 C 6.945312 -3.257812 7.09375 -2.832031 7.09375 -2.28125 C 7.09375 -1.8125 6.953125 -1.394531 6.671875 -1.03125 C 6.390625 -0.664062 5.976562 -0.382812 5.4375 -0.1875 C 4.90625 0.0078125 4.269531 0.109375 3.53125 0.109375 Z M 3.53125 0.109375 "/></g></g></g><g clip-path="url(#e76dfcfd8e)"><path fill="#c3d8ef" d="M 124.625 280.503906 L 405.851562 280.503906 L 405.851562 300.347656 L 124.625 300.347656 Z M 124.625 280.503906 " fill-opacity="1" fill-rule="nonzero"/></g><g clip-path="url(#b87468fc2c)"><g clip-path="url(#5c4b3f6658)"><path fill="#fbdfc5" d="M 399.109375 251.527344 L 468.90625 251.527344 L 468.90625 321.320312 L 399.109375 321.320312 Z M 399.109375 251.527344 " fill-opacity="1" fill-rule="nonzero"/></g></g><g fill="#000000" fill-opacity="1"><g transform="translate(411.473073, 292.734506)"><g><path d="M 11.796875 -2.765625 L 11.796875 0 L 0.6875 0 L 0.6875 -2.203125 L 6.359375 -7.546875 C 6.960938 -8.128906 7.367188 -8.625 7.578125 -9.03125 C 7.785156 -9.445312 7.890625 -9.859375 7.890625 -10.265625 C 7.890625 -10.847656 7.6875 -11.296875 7.28125 -11.609375 C 6.882812 -11.929688 6.304688 -12.09375 5.546875 -12.09375 C 4.898438 -12.09375 4.316406 -11.96875 3.796875 -11.71875 C 3.273438 -11.476562 2.84375 -11.113281 2.5 -10.625 L 0.015625 -12.21875 C 0.585938 -13.070312 1.378906 -13.738281 2.390625 -14.21875 C 3.398438 -14.695312 4.554688 -14.9375 5.859375 -14.9375 C 6.941406 -14.9375 7.894531 -14.757812 8.71875 -14.40625 C 9.539062 -14.050781 10.175781 -13.546875 10.625 -12.890625 C 11.082031 -12.242188 11.3125 -11.476562 11.3125 -10.59375 C 11.3125 -9.800781 11.140625 -9.050781 10.796875 -8.34375 C 10.460938 -7.644531 9.816406 -6.847656 8.859375 -5.953125 L 5.484375 -2.765625 Z M 11.796875 -2.765625 "/></g></g></g><g fill="#000000" fill-opacity="1"><g transform="translate(423.85053, 292.734506)"><g><path d="M 7.109375 0.25 C 5.890625 0.25 4.804688 -0.046875 3.859375 -0.640625 C 2.910156 -1.242188 2.164062 -2.113281 1.625 -3.25 C 1.082031 -4.394531 0.8125 -5.757812 0.8125 -7.34375 C 0.8125 -8.925781 1.082031 -10.285156 1.625 -11.421875 C 2.164062 -12.566406 2.910156 -13.4375 3.859375 -14.03125 C 4.804688 -14.632812 5.890625 -14.9375 7.109375 -14.9375 C 8.328125 -14.9375 9.410156 -14.632812 10.359375 -14.03125 C 11.316406 -13.4375 12.0625 -12.566406 12.59375 -11.421875 C 13.132812 -10.285156 13.40625 -8.925781 13.40625 -7.34375 C 13.40625 -5.757812 13.132812 -4.394531 12.59375 -3.25 C 12.0625 -2.113281 11.316406 -1.242188 10.359375 -0.640625 C 9.410156 -0.046875 8.328125 0.25 7.109375 0.25 Z M 7.109375 -2.625 C 8.003906 -2.625 8.707031 -3.007812 9.21875 -3.78125 C 9.726562 -4.550781 9.984375 -5.738281 9.984375 -7.34375 C 9.984375 -8.945312 9.726562 -10.132812 9.21875 -10.90625 C 8.707031 -11.675781 8.003906 -12.0625 7.109375 -12.0625 C 6.234375 -12.0625 5.539062 -11.675781 5.03125 -10.90625 C 4.519531 -10.132812 4.265625 -8.945312 4.265625 -7.34375 C 4.265625 -5.738281 4.519531 -4.550781 5.03125 -3.78125 C 5.539062 -3.007812 6.234375 -2.625 7.109375 -2.625 Z M 7.109375 -2.625 "/></g></g></g><g fill="#000000" fill-opacity="1"><g transform="translate(438.095102, 292.734506)"><g><path d="M 4.21875 -6.75 C 3.144531 -6.75 2.265625 -7.113281 1.578125 -7.84375 C 0.898438 -8.582031 0.5625 -9.570312 0.5625 -10.8125 C 0.5625 -12.039062 0.898438 -13.019531 1.578125 -13.75 C 2.265625 -14.488281 3.144531 -14.859375 4.21875 -14.859375 C 5.289062 -14.859375 6.160156 -14.488281 6.828125 -13.75 C 7.503906 -13.019531 7.84375 -12.039062 7.84375 -10.8125 C 7.84375 -9.570312 7.503906 -8.582031 6.828125 -7.84375 C 6.160156 -7.113281 5.289062 -6.75 4.21875 -6.75 Z M 12.96875 -14.6875 L 15.46875 -14.6875 L 5.4375 0 L 2.9375 0 Z M 4.21875 -8.484375 C 4.695312 -8.484375 5.070312 -8.675781 5.34375 -9.0625 C 5.613281 -9.457031 5.75 -10.039062 5.75 -10.8125 C 5.75 -11.582031 5.613281 -12.160156 5.34375 -12.546875 C 5.070312 -12.941406 4.695312 -13.140625 4.21875 -13.140625 C 3.757812 -13.140625 3.390625 -12.9375 3.109375 -12.53125 C 2.828125 -12.132812 2.6875 -11.5625 2.6875 -10.8125 C 2.6875 -10.050781 2.828125 -9.472656 3.109375 -9.078125 C 3.390625 -8.679688 3.757812 -8.484375 4.21875 -8.484375 Z M 14.1875 0.171875 C 13.488281 0.171875 12.863281 0.0078125 12.3125 -0.3125 C 11.757812 -0.644531 11.328125 -1.117188 11.015625 -1.734375 C 10.710938 -2.359375 10.5625 -3.070312 10.5625 -3.875 C 10.5625 -4.6875 10.710938 -5.398438 11.015625 -6.015625 C 11.328125 -6.640625 11.757812 -7.113281 12.3125 -7.4375 C 12.863281 -7.769531 13.488281 -7.9375 14.1875 -7.9375 C 15.257812 -7.9375 16.132812 -7.566406 16.8125 -6.828125 C 17.5 -6.097656 17.84375 -5.113281 17.84375 -3.875 C 17.84375 -2.644531 17.5 -1.660156 16.8125 -0.921875 C 16.132812 -0.191406 15.257812 0.171875 14.1875 0.171875 Z M 14.1875 -1.546875 C 14.664062 -1.546875 15.039062 -1.742188 15.3125 -2.140625 C 15.582031 -2.546875 15.71875 -3.125 15.71875 -3.875 C 15.71875 -4.632812 15.582031 -5.210938 15.3125 -5.609375 C 15.039062 -6.015625 14.664062 -6.21875 14.1875 -6.21875 C 13.726562 -6.21875 13.359375 -6.019531 13.078125 -5.625 C 12.796875 -5.226562 12.65625 -4.644531 12.65625 -3.875 C 12.65625 -3.113281 12.796875 -2.535156 13.078125 -2.140625 C 13.359375 -1.742188 13.726562 -1.546875 14.1875 -1.546875 Z M 14.1875 -1.546875 "/></g></g></g><g clip-path="url(#3d7d99f4e9)"><path fill="#c3d8ef" d="M 124.625 409.019531 L 255.984375 409.019531 L 255.984375 429.167969 L 124.625 429.167969 Z M 124.625 409.019531 " fill-opacity="1" fill-rule="nonzero"/></g><g clip-path="url(#d1fdff2cd5)"><g clip-path="url(#6c36285b85)"><path fill="#fbdfc5" d="M 248.179688 382.699219 L 317.972656 382.699219 L 317.972656 452.492188 L 248.179688 452.492188 Z M 248.179688 382.699219 " fill-opacity="1" fill-rule="nonzero"/></g></g><g fill="#000000" fill-opacity="1"><g transform="translate(267.6474, 423.907837)"><g><path d="M 7.6875 -8.703125 C 8.96875 -8.492188 9.953125 -8.015625 10.640625 -7.265625 C 11.328125 -6.515625 11.671875 -5.585938 11.671875 -4.484375 C 11.671875 -3.628906 11.445312 -2.84375 11 -2.125 C 10.550781 -1.40625 9.867188 -0.828125 8.953125 -0.390625 C 8.035156 0.0351562 6.910156 0.25 5.578125 0.25 C 4.546875 0.25 3.53125 0.113281 2.53125 -0.15625 C 1.53125 -0.425781 0.679688 -0.816406 -0.015625 -1.328125 L 1.296875 -3.921875 C 1.859375 -3.503906 2.503906 -3.179688 3.234375 -2.953125 C 3.972656 -2.722656 4.726562 -2.609375 5.5 -2.609375 C 6.351562 -2.609375 7.023438 -2.769531 7.515625 -3.09375 C 8.003906 -3.425781 8.25 -3.890625 8.25 -4.484375 C 8.25 -5.691406 7.332031 -6.296875 5.5 -6.296875 L 3.9375 -6.296875 L 3.9375 -8.546875 L 6.96875 -11.96875 L 0.71875 -11.96875 L 0.71875 -14.6875 L 11 -14.6875 L 11 -12.484375 Z M 7.6875 -8.703125 "/></g></g></g><g fill="#000000" fill-opacity="1"><g transform="translate(280.066815, 423.907837)"><g><path d="M 4.21875 -6.75 C 3.144531 -6.75 2.265625 -7.113281 1.578125 -7.84375 C 0.898438 -8.582031 0.5625 -9.570312 0.5625 -10.8125 C 0.5625 -12.039062 0.898438 -13.019531 1.578125 -13.75 C 2.265625 -14.488281 3.144531 -14.859375 4.21875 -14.859375 C 5.289062 -14.859375 6.160156 -14.488281 6.828125 -13.75 C 7.503906 -13.019531 7.84375 -12.039062 7.84375 -10.8125 C 7.84375 -9.570312 7.503906 -8.582031 6.828125 -7.84375 C 6.160156 -7.113281 5.289062 -6.75 4.21875 -6.75 Z M 12.96875 -14.6875 L 15.46875 -14.6875 L 5.4375 0 L 2.9375 0 Z M 4.21875 -8.484375 C 4.695312 -8.484375 5.070312 -8.675781 5.34375 -9.0625 C 5.613281 -9.457031 5.75 -10.039062 5.75 -10.8125 C 5.75 -11.582031 5.613281 -12.160156 5.34375 -12.546875 C 5.070312 -12.941406 4.695312 -13.140625 4.21875 -13.140625 C 3.757812 -13.140625 3.390625 -12.9375 3.109375 -12.53125 C 2.828125 -12.132812 2.6875 -11.5625 2.6875 -10.8125 C 2.6875 -10.050781 2.828125 -9.472656 3.109375 -9.078125 C 3.390625 -8.679688 3.757812 -8.484375 4.21875 -8.484375 Z M 14.1875 0.171875 C 13.488281 0.171875 12.863281 0.0078125 12.3125 -0.3125 C 11.757812 -0.644531 11.328125 -1.117188 11.015625 -1.734375 C 10.710938 -2.359375 10.5625 -3.070312 10.5625 -3.875 C 10.5625 -4.6875 10.710938 -5.398438 11.015625 -6.015625 C 11.328125 -6.640625 11.757812 -7.113281 12.3125 -7.4375 C 12.863281 -7.769531 13.488281 -7.9375 14.1875 -7.9375 C 15.257812 -7.9375 16.132812 -7.566406 16.8125 -6.828125 C 17.5 -6.097656 17.84375 -5.113281 17.84375 -3.875 C 17.84375 -2.644531 17.5 -1.660156 16.8125 -0.921875 C 16.132812 -0.191406 15.257812 0.171875 14.1875 0.171875 Z M 14.1875 -1.546875 C 14.664062 -1.546875 15.039062 -1.742188 15.3125 -2.140625 C 15.582031 -2.546875 15.71875 -3.125 15.71875 -3.875 C 15.71875 -4.632812 15.582031 -5.210938 15.3125 -5.609375 C 15.039062 -6.015625 14.664062 -6.21875 14.1875 -6.21875 C 13.726562 -6.21875 13.359375 -6.019531 13.078125 -5.625 C 12.796875 -5.226562 12.65625 -4.644531 12.65625 -3.875 C 12.65625 -3.113281 12.796875 -2.535156 13.078125 -2.140625 C 13.359375 -1.742188 13.726562 -1.546875 14.1875 -1.546875 Z M 14.1875 -1.546875 "/></g></g></g><g clip-path="url(#998cc5c1b3)"><path fill="#f7ec13" d="M 555.414062 93.433594 C 495.738281 88.046875 436.066406 88.046875 376.394531 93.433594 C 372.652344 93.433594 365.851562 70.042969 369.589844 70.042969 C 399.273438 65.742188 429.109375 63.59375 459.101562 63.59375 C 489.09375 63.59375 518.929688 65.742188 548.609375 70.042969 C 552.351562 70.042969 559.152344 93.433594 555.414062 93.433594 Z M 555.414062 93.433594 " fill-opacity="0.7" fill-rule="nonzero"/></g><g fill="#000000" fill-opacity="1"><g transform="translate(156.603258, 42.881578)"><g><path d="M 7.71875 -19.234375 L 0.140625 -19.234375 L 0.140625 -23.71875 L 20.796875 -23.71875 L 20.796875 -19.234375 L 13.21875 -19.234375 L 13.21875 0 L 7.71875 0 Z M 7.71875 -19.234375 "/></g></g></g><g fill="#000000" fill-opacity="1"><g transform="translate(177.533648, 42.881578)"><g><path d="M 7.484375 -15.8125 C 8.117188 -16.695312 8.972656 -17.363281 10.046875 -17.8125 C 11.117188 -18.269531 12.351562 -18.5 13.75 -18.5 L 13.75 -13.625 C 13.164062 -13.664062 12.769531 -13.6875 12.5625 -13.6875 C 11.050781 -13.6875 9.863281 -13.257812 9 -12.40625 C 8.144531 -11.5625 7.71875 -10.296875 7.71875 -8.609375 L 7.71875 0 L 2.4375 0 L 2.4375 -18.21875 L 7.484375 -18.21875 Z M 7.484375 -15.8125 "/></g></g></g><g fill="#000000" fill-opacity="1"><g transform="translate(192.13074, 42.881578)"><g><path d="M 11.109375 0.265625 C 9.191406 0.265625 7.46875 -0.132812 5.9375 -0.9375 C 4.414062 -1.738281 3.222656 -2.847656 2.359375 -4.265625 C 1.503906 -5.691406 1.078125 -7.304688 1.078125 -9.109375 C 1.078125 -10.921875 1.503906 -12.535156 2.359375 -13.953125 C 3.222656 -15.378906 4.414062 -16.492188 5.9375 -17.296875 C 7.46875 -18.097656 9.191406 -18.5 11.109375 -18.5 C 13.023438 -18.5 14.738281 -18.097656 16.25 -17.296875 C 17.769531 -16.492188 18.957031 -15.378906 19.8125 -13.953125 C 20.675781 -12.535156 21.109375 -10.921875 21.109375 -9.109375 C 21.109375 -7.304688 20.675781 -5.691406 19.8125 -4.265625 C 18.957031 -2.847656 17.769531 -1.738281 16.25 -0.9375 C 14.738281 -0.132812 13.023438 0.265625 11.109375 0.265625 Z M 11.109375 -4.0625 C 12.460938 -4.0625 13.570312 -4.519531 14.4375 -5.4375 C 15.3125 -6.351562 15.75 -7.578125 15.75 -9.109375 C 15.75 -10.648438 15.3125 -11.875 14.4375 -12.78125 C 13.570312 -13.695312 12.460938 -14.15625 11.109375 -14.15625 C 9.753906 -14.15625 8.632812 -13.695312 7.75 -12.78125 C 6.875 -11.875 6.4375 -10.648438 6.4375 -9.109375 C 6.4375 -7.578125 6.875 -6.351562 7.75 -5.4375 C 8.632812 -4.519531 9.753906 -4.0625 11.109375 -4.0625 Z M 11.109375 -4.0625 "/></g></g></g><g fill="#000000" fill-opacity="1"><g transform="translate(214.314254, 42.881578)"><g><path d="M 20.796875 -18.21875 L 20.796875 0 L 15.78125 0 L 15.78125 -2.171875 C 15.082031 -1.378906 14.25 -0.773438 13.28125 -0.359375 C 12.3125 0.0546875 11.257812 0.265625 10.125 0.265625 C 7.726562 0.265625 5.832031 -0.421875 4.4375 -1.796875 C 3.039062 -3.171875 2.34375 -5.210938 2.34375 -7.921875 L 2.34375 -18.21875 L 7.625 -18.21875 L 7.625 -8.703125 C 7.625 -5.765625 8.851562 -4.296875 11.3125 -4.296875 C 12.582031 -4.296875 13.597656 -4.707031 14.359375 -5.53125 C 15.128906 -6.363281 15.515625 -7.59375 15.515625 -9.21875 L 15.515625 -18.21875 Z M 20.796875 -18.21875 "/></g></g></g><g fill="#000000" fill-opacity="1"><g transform="translate(237.581542, 42.881578)"><g><path d="M 20.53125 -18.21875 L 12.84375 0 L 7.390625 0 L -0.265625 -18.21875 L 5.1875 -18.21875 L 10.234375 -5.828125 L 15.453125 -18.21875 Z M 20.53125 -18.21875 "/></g></g></g><g fill="#000000" fill-opacity="1"><g transform="translate(257.834581, 42.881578)"><g><path d="M 20.296875 -9.046875 C 20.296875 -8.972656 20.257812 -8.5 20.1875 -7.625 L 6.40625 -7.625 C 6.65625 -6.488281 7.238281 -5.59375 8.15625 -4.9375 C 9.082031 -4.289062 10.238281 -3.96875 11.625 -3.96875 C 12.570312 -3.96875 13.410156 -4.109375 14.140625 -4.390625 C 14.878906 -4.671875 15.5625 -5.113281 16.1875 -5.71875 L 19 -2.671875 C 17.28125 -0.710938 14.773438 0.265625 11.484375 0.265625 C 9.429688 0.265625 7.613281 -0.132812 6.03125 -0.9375 C 4.445312 -1.738281 3.222656 -2.847656 2.359375 -4.265625 C 1.503906 -5.691406 1.078125 -7.304688 1.078125 -9.109375 C 1.078125 -10.890625 1.5 -12.5 2.34375 -13.9375 C 3.195312 -15.375 4.363281 -16.492188 5.84375 -17.296875 C 7.320312 -18.097656 8.976562 -18.5 10.8125 -18.5 C 12.59375 -18.5 14.203125 -18.113281 15.640625 -17.34375 C 17.085938 -16.570312 18.222656 -15.46875 19.046875 -14.03125 C 19.878906 -12.601562 20.296875 -10.941406 20.296875 -9.046875 Z M 10.84375 -14.5 C 9.644531 -14.5 8.640625 -14.160156 7.828125 -13.484375 C 7.015625 -12.804688 6.515625 -11.878906 6.328125 -10.703125 L 15.3125 -10.703125 C 15.132812 -11.859375 14.632812 -12.78125 13.8125 -13.46875 C 13 -14.15625 12.007812 -14.5 10.84375 -14.5 Z M 10.84375 -14.5 "/></g></g></g><g fill="#000000" fill-opacity="1"><g transform="translate(279.205258, 42.881578)"><g><path d="M 17.453125 -4.0625 L 17.453125 0 L 1.1875 0 L 1.1875 -3.1875 L 10.46875 -14.15625 L 1.421875 -14.15625 L 1.421875 -18.21875 L 17.140625 -18.21875 L 17.140625 -15.046875 L 7.859375 -4.0625 Z M 17.453125 -4.0625 "/></g></g></g><g fill="#000000" fill-opacity="1"><g transform="translate(297.595561, 42.881578)"><g><path d="M 1.765625 -11.65625 L 11.34375 -11.65625 L 11.34375 -7.421875 L 1.765625 -7.421875 Z M 1.765625 -11.65625 "/></g></g></g><g fill="#000000" fill-opacity="1"><g transform="translate(310.668592, 42.881578)"><g><path d="M 20.53125 -18.21875 L 12.84375 0 L 7.390625 0 L -0.265625 -18.21875 L 5.1875 -18.21875 L 10.234375 -5.828125 L 15.453125 -18.21875 Z M 20.53125 -18.21875 "/></g></g></g><g fill="#000000" fill-opacity="1"><g transform="translate(330.921631, 42.881578)"><g><path d="M 11.109375 0.265625 C 9.191406 0.265625 7.46875 -0.132812 5.9375 -0.9375 C 4.414062 -1.738281 3.222656 -2.847656 2.359375 -4.265625 C 1.503906 -5.691406 1.078125 -7.304688 1.078125 -9.109375 C 1.078125 -10.921875 1.503906 -12.535156 2.359375 -13.953125 C 3.222656 -15.378906 4.414062 -16.492188 5.9375 -17.296875 C 7.46875 -18.097656 9.191406 -18.5 11.109375 -18.5 C 13.023438 -18.5 14.738281 -18.097656 16.25 -17.296875 C 17.769531 -16.492188 18.957031 -15.378906 19.8125 -13.953125 C 20.675781 -12.535156 21.109375 -10.921875 21.109375 -9.109375 C 21.109375 -7.304688 20.675781 -5.691406 19.8125 -4.265625 C 18.957031 -2.847656 17.769531 -1.738281 16.25 -0.9375 C 14.738281 -0.132812 13.023438 0.265625 11.109375 0.265625 Z M 11.109375 -4.0625 C 12.460938 -4.0625 13.570312 -4.519531 14.4375 -5.4375 C 15.3125 -6.351562 15.75 -7.578125 15.75 -9.109375 C 15.75 -10.648438 15.3125 -11.875 14.4375 -12.78125 C 13.570312 -13.695312 12.460938 -14.15625 11.109375 -14.15625 C 9.753906 -14.15625 8.632812 -13.695312 7.75 -12.78125 C 6.875 -11.875 6.4375 -10.648438 6.4375 -9.109375 C 6.4375 -7.578125 6.875 -6.351562 7.75 -5.4375 C 8.632812 -4.519531 9.753906 -4.0625 11.109375 -4.0625 Z M 11.109375 -4.0625 "/></g></g></g><g fill="#000000" fill-opacity="1"><g transform="translate(353.105133, 42.881578)"><g><path d="M 20.796875 -18.21875 L 20.796875 0 L 15.78125 0 L 15.78125 -2.171875 C 15.082031 -1.378906 14.25 -0.773438 13.28125 -0.359375 C 12.3125 0.0546875 11.257812 0.265625 10.125 0.265625 C 7.726562 0.265625 5.832031 -0.421875 4.4375 -1.796875 C 3.039062 -3.171875 2.34375 -5.210938 2.34375 -7.921875 L 2.34375 -18.21875 L 7.625 -18.21875 L 7.625 -8.703125 C 7.625 -5.765625 8.851562 -4.296875 11.3125 -4.296875 C 12.582031 -4.296875 13.597656 -4.707031 14.359375 -5.53125 C 15.128906 -6.363281 15.515625 -7.59375 15.515625 -9.21875 L 15.515625 -18.21875 Z M 20.796875 -18.21875 "/></g></g></g><g fill="#000000" fill-opacity="1"><g transform="translate(376.372432, 42.881578)"><g><path d="M 8.578125 0.265625 C 7.054688 0.265625 5.570312 0.0820312 4.125 -0.28125 C 2.6875 -0.65625 1.535156 -1.125 0.671875 -1.6875 L 2.4375 -5.484375 C 3.25 -4.960938 4.226562 -4.535156 5.375 -4.203125 C 6.53125 -3.878906 7.664062 -3.71875 8.78125 -3.71875 C 11.007812 -3.71875 12.125 -4.273438 12.125 -5.390625 C 12.125 -5.910156 11.816406 -6.28125 11.203125 -6.5 C 10.597656 -6.726562 9.664062 -6.921875 8.40625 -7.078125 C 6.914062 -7.304688 5.679688 -7.566406 4.703125 -7.859375 C 3.734375 -8.148438 2.894531 -8.664062 2.1875 -9.40625 C 1.476562 -10.15625 1.125 -11.21875 1.125 -12.59375 C 1.125 -13.75 1.453125 -14.769531 2.109375 -15.65625 C 2.773438 -16.550781 3.742188 -17.25 5.015625 -17.75 C 6.296875 -18.25 7.804688 -18.5 9.546875 -18.5 C 10.835938 -18.5 12.117188 -18.359375 13.390625 -18.078125 C 14.671875 -17.796875 15.726562 -17.40625 16.5625 -16.90625 L 14.796875 -13.140625 C 13.191406 -14.046875 11.441406 -14.5 9.546875 -14.5 C 8.421875 -14.5 7.578125 -14.335938 7.015625 -14.015625 C 6.453125 -13.703125 6.171875 -13.300781 6.171875 -12.8125 C 6.171875 -12.238281 6.472656 -11.835938 7.078125 -11.609375 C 7.691406 -11.390625 8.664062 -11.175781 10 -10.96875 C 11.488281 -10.726562 12.707031 -10.460938 13.65625 -10.171875 C 14.601562 -9.890625 15.425781 -9.375 16.125 -8.625 C 16.820312 -7.882812 17.171875 -6.847656 17.171875 -5.515625 C 17.171875 -4.390625 16.832031 -3.382812 16.15625 -2.5 C 15.476562 -1.625 14.488281 -0.941406 13.1875 -0.453125 C 11.894531 0.0234375 10.359375 0.265625 8.578125 0.265625 Z M 8.578125 0.265625 "/></g></g></g><g fill="#000000" fill-opacity="1"><g transform="translate(394.35631, 42.881578)"><g/></g></g><g fill="#000000" fill-opacity="1"><g transform="translate(403.940943, 42.881578)"><g><path d="M 2.4375 -25.140625 L 7.71875 -25.140625 L 7.71875 0 L 2.4375 0 Z M 2.4375 -25.140625 "/></g></g></g><g fill="#000000" fill-opacity="1"><g transform="translate(414.1352, 42.881578)"><g><path d="M 20.296875 -9.046875 C 20.296875 -8.972656 20.257812 -8.5 20.1875 -7.625 L 6.40625 -7.625 C 6.65625 -6.488281 7.238281 -5.59375 8.15625 -4.9375 C 9.082031 -4.289062 10.238281 -3.96875 11.625 -3.96875 C 12.570312 -3.96875 13.410156 -4.109375 14.140625 -4.390625 C 14.878906 -4.671875 15.5625 -5.113281 16.1875 -5.71875 L 19 -2.671875 C 17.28125 -0.710938 14.773438 0.265625 11.484375 0.265625 C 9.429688 0.265625 7.613281 -0.132812 6.03125 -0.9375 C 4.445312 -1.738281 3.222656 -2.847656 2.359375 -4.265625 C 1.503906 -5.691406 1.078125 -7.304688 1.078125 -9.109375 C 1.078125 -10.890625 1.5 -12.5 2.34375 -13.9375 C 3.195312 -15.375 4.363281 -16.492188 5.84375 -17.296875 C 7.320312 -18.097656 8.976562 -18.5 10.8125 -18.5 C 12.59375 -18.5 14.203125 -18.113281 15.640625 -17.34375 C 17.085938 -16.570312 18.222656 -15.46875 19.046875 -14.03125 C 19.878906 -12.601562 20.296875 -10.941406 20.296875 -9.046875 Z M 10.84375 -14.5 C 9.644531 -14.5 8.640625 -14.160156 7.828125 -13.484375 C 7.015625 -12.804688 6.515625 -11.878906 6.328125 -10.703125 L 15.3125 -10.703125 C 15.132812 -11.859375 14.632812 -12.78125 13.8125 -13.46875 C 13 -14.15625 12.007812 -14.5 10.84375 -14.5 Z M 10.84375 -14.5 "/></g></g></g><g fill="#000000" fill-opacity="1"><g transform="translate(435.505877, 42.881578)"><g><path d="M 8.578125 0.265625 C 7.054688 0.265625 5.570312 0.0820312 4.125 -0.28125 C 2.6875 -0.65625 1.535156 -1.125 0.671875 -1.6875 L 2.4375 -5.484375 C 3.25 -4.960938 4.226562 -4.535156 5.375 -4.203125 C 6.53125 -3.878906 7.664062 -3.71875 8.78125 -3.71875 C 11.007812 -3.71875 12.125 -4.273438 12.125 -5.390625 C 12.125 -5.910156 11.816406 -6.28125 11.203125 -6.5 C 10.597656 -6.726562 9.664062 -6.921875 8.40625 -7.078125 C 6.914062 -7.304688 5.679688 -7.566406 4.703125 -7.859375 C 3.734375 -8.148438 2.894531 -8.664062 2.1875 -9.40625 C 1.476562 -10.15625 1.125 -11.21875 1.125 -12.59375 C 1.125 -13.75 1.453125 -14.769531 2.109375 -15.65625 C 2.773438 -16.550781 3.742188 -17.25 5.015625 -17.75 C 6.296875 -18.25 7.804688 -18.5 9.546875 -18.5 C 10.835938 -18.5 12.117188 -18.359375 13.390625 -18.078125 C 14.671875 -17.796875 15.726562 -17.40625 16.5625 -16.90625 L 14.796875 -13.140625 C 13.191406 -14.046875 11.441406 -14.5 9.546875 -14.5 C 8.421875 -14.5 7.578125 -14.335938 7.015625 -14.015625 C 6.453125 -13.703125 6.171875 -13.300781 6.171875 -12.8125 C 6.171875 -12.238281 6.472656 -11.835938 7.078125 -11.609375 C 7.691406 -11.390625 8.664062 -11.175781 10 -10.96875 C 11.488281 -10.726562 12.707031 -10.460938 13.65625 -10.171875 C 14.601562 -9.890625 15.425781 -9.375 16.125 -8.625 C 16.820312 -7.882812 17.171875 -6.847656 17.171875 -5.515625 C 17.171875 -4.390625 16.832031 -3.382812 16.15625 -2.5 C 15.476562 -1.625 14.488281 -0.941406 13.1875 -0.453125 C 11.894531 0.0234375 10.359375 0.265625 8.578125 0.265625 Z M 8.578125 0.265625 "/></g></g></g><g fill="#000000" fill-opacity="1"><g transform="translate(453.489755, 42.881578)"><g/></g></g><g fill="#000000" fill-opacity="1"><g transform="translate(463.074388, 42.881578)"><g><path d="M 9.796875 -18.5 C 12.617188 -18.5 14.785156 -17.828125 16.296875 -16.484375 C 17.804688 -15.140625 18.5625 -13.113281 18.5625 -10.40625 L 18.5625 0 L 13.625 0 L 13.625 -2.265625 C 12.625 -0.578125 10.769531 0.265625 8.0625 0.265625 C 6.664062 0.265625 5.453125 0.03125 4.421875 -0.4375 C 3.390625 -0.914062 2.601562 -1.570312 2.0625 -2.40625 C 1.519531 -3.238281 1.25 -4.1875 1.25 -5.25 C 1.25 -6.945312 1.882812 -8.28125 3.15625 -9.25 C 4.4375 -10.21875 6.410156 -10.703125 9.078125 -10.703125 L 13.28125 -10.703125 C 13.28125 -11.859375 12.925781 -12.742188 12.21875 -13.359375 C 11.519531 -13.984375 10.472656 -14.296875 9.078125 -14.296875 C 8.109375 -14.296875 7.15625 -14.140625 6.21875 -13.828125 C 5.28125 -13.523438 4.484375 -13.113281 3.828125 -12.59375 L 1.9375 -16.296875 C 2.925781 -16.992188 4.113281 -17.535156 5.5 -17.921875 C 6.894531 -18.304688 8.328125 -18.5 9.796875 -18.5 Z M 9.390625 -3.28125 C 10.285156 -3.28125 11.082031 -3.488281 11.78125 -3.90625 C 12.488281 -4.332031 12.988281 -4.953125 13.28125 -5.765625 L 13.28125 -7.625 L 9.65625 -7.625 C 7.488281 -7.625 6.40625 -6.910156 6.40625 -5.484375 C 6.40625 -4.804688 6.671875 -4.269531 7.203125 -3.875 C 7.734375 -3.476562 8.460938 -3.28125 9.390625 -3.28125 Z M 9.390625 -3.28125 "/></g></g></g><g fill="#000000" fill-opacity="1"><g transform="translate(483.970915, 42.881578)"><g><path d="M 7.484375 -15.8125 C 8.117188 -16.695312 8.972656 -17.363281 10.046875 -17.8125 C 11.117188 -18.269531 12.351562 -18.5 13.75 -18.5 L 13.75 -13.625 C 13.164062 -13.664062 12.769531 -13.6875 12.5625 -13.6875 C 11.050781 -13.6875 9.863281 -13.257812 9 -12.40625 C 8.144531 -11.5625 7.71875 -10.296875 7.71875 -8.609375 L 7.71875 0 L 2.4375 0 L 2.4375 -18.21875 L 7.484375 -18.21875 Z M 7.484375 -15.8125 "/></g></g></g><g fill="#000000" fill-opacity="1"><g transform="translate(498.568018, 42.881578)"><g><path d="M 14.1875 -0.875 C 13.675781 -0.5 13.039062 -0.210938 12.28125 -0.015625 C 11.519531 0.171875 10.722656 0.265625 9.890625 0.265625 C 7.722656 0.265625 6.046875 -0.285156 4.859375 -1.390625 C 3.671875 -2.492188 3.078125 -4.117188 3.078125 -6.265625 L 3.078125 -13.75 L 0.265625 -13.75 L 0.265625 -17.8125 L 3.078125 -17.8125 L 3.078125 -22.25 L 8.359375 -22.25 L 8.359375 -17.8125 L 12.90625 -17.8125 L 12.90625 -13.75 L 8.359375 -13.75 L 8.359375 -6.328125 C 8.359375 -5.566406 8.554688 -4.972656 8.953125 -4.546875 C 9.347656 -4.128906 9.910156 -3.921875 10.640625 -3.921875 C 11.472656 -3.921875 12.179688 -4.148438 12.765625 -4.609375 Z M 14.1875 -0.875 "/></g></g></g><g fill="#000000" fill-opacity="1"><g transform="translate(513.300574, 42.881578)"><g><path d="M 2.4375 -18.21875 L 7.71875 -18.21875 L 7.71875 0 L 2.4375 0 Z M 5.09375 -20.765625 C 4.113281 -20.765625 3.316406 -21.046875 2.703125 -21.609375 C 2.097656 -22.171875 1.796875 -22.875 1.796875 -23.71875 C 1.796875 -24.550781 2.097656 -25.25 2.703125 -25.8125 C 3.316406 -26.375 4.113281 -26.65625 5.09375 -26.65625 C 6.0625 -26.65625 6.847656 -26.382812 7.453125 -25.84375 C 8.066406 -25.300781 8.375 -24.625 8.375 -23.8125 C 8.375 -22.9375 8.066406 -22.207031 7.453125 -21.625 C 6.847656 -21.050781 6.0625 -20.765625 5.09375 -20.765625 Z M 5.09375 -20.765625 "/></g></g></g><g fill="#000000" fill-opacity="1"><g transform="translate(523.494831, 42.881578)"><g><path d="M 11.25 0.265625 C 9.300781 0.265625 7.550781 -0.132812 6 -0.9375 C 4.457031 -1.738281 3.25 -2.847656 2.375 -4.265625 C 1.507812 -5.691406 1.078125 -7.304688 1.078125 -9.109375 C 1.078125 -10.921875 1.507812 -12.535156 2.375 -13.953125 C 3.25 -15.378906 4.457031 -16.492188 6 -17.296875 C 7.550781 -18.097656 9.300781 -18.5 11.25 -18.5 C 13.164062 -18.5 14.835938 -18.097656 16.265625 -17.296875 C 17.703125 -16.492188 18.75 -15.347656 19.40625 -13.859375 L 15.3125 -11.65625 C 14.363281 -13.320312 13 -14.15625 11.21875 -14.15625 C 9.832031 -14.15625 8.6875 -13.703125 7.78125 -12.796875 C 6.882812 -11.898438 6.4375 -10.671875 6.4375 -9.109375 C 6.4375 -7.554688 6.882812 -6.328125 7.78125 -5.421875 C 8.6875 -4.515625 9.832031 -4.0625 11.21875 -4.0625 C 13.019531 -4.0625 14.382812 -4.898438 15.3125 -6.578125 L 19.40625 -4.34375 C 18.75 -2.894531 17.703125 -1.765625 16.265625 -0.953125 C 14.835938 -0.140625 13.164062 0.265625 11.25 0.265625 Z M 11.25 0.265625 "/></g></g></g><g fill="#000000" fill-opacity="1"><g transform="translate(543.510806, 42.881578)"><g><path d="M 2.4375 -25.140625 L 7.71875 -25.140625 L 7.71875 0 L 2.4375 0 Z M 2.4375 -25.140625 "/></g></g></g><g fill="#000000" fill-opacity="1"><g transform="translate(553.70504, 42.881578)"><g><path d="M 20.296875 -9.046875 C 20.296875 -8.972656 20.257812 -8.5 20.1875 -7.625 L 6.40625 -7.625 C 6.65625 -6.488281 7.238281 -5.59375 8.15625 -4.9375 C 9.082031 -4.289062 10.238281 -3.96875 11.625 -3.96875 C 12.570312 -3.96875 13.410156 -4.109375 14.140625 -4.390625 C 14.878906 -4.671875 15.5625 -5.113281 16.1875 -5.71875 L 19 -2.671875 C 17.28125 -0.710938 14.773438 0.265625 11.484375 0.265625 C 9.429688 0.265625 7.613281 -0.132812 6.03125 -0.9375 C 4.445312 -1.738281 3.222656 -2.847656 2.359375 -4.265625 C 1.503906 -5.691406 1.078125 -7.304688 1.078125 -9.109375 C 1.078125 -10.890625 1.5 -12.5 2.34375 -13.9375 C 3.195312 -15.375 4.363281 -16.492188 5.84375 -17.296875 C 7.320312 -18.097656 8.976562 -18.5 10.8125 -18.5 C 12.59375 -18.5 14.203125 -18.113281 15.640625 -17.34375 C 17.085938 -16.570312 18.222656 -15.46875 19.046875 -14.03125 C 19.878906 -12.601562 20.296875 -10.941406 20.296875 -9.046875 Z M 10.84375 -14.5 C 9.644531 -14.5 8.640625 -14.160156 7.828125 -13.484375 C 7.015625 -12.804688 6.515625 -11.878906 6.328125 -10.703125 L 15.3125 -10.703125 C 15.132812 -11.859375 14.632812 -12.78125 13.8125 -13.46875 C 13 -14.15625 12.007812 -14.5 10.84375 -14.5 Z M 10.84375 -14.5 "/></g></g></g><g fill="#000000" fill-opacity="1"><g transform="translate(575.075694, 42.881578)"><g><path d="M 8.578125 0.265625 C 7.054688 0.265625 5.570312 0.0820312 4.125 -0.28125 C 2.6875 -0.65625 1.535156 -1.125 0.671875 -1.6875 L 2.4375 -5.484375 C 3.25 -4.960938 4.226562 -4.535156 5.375 -4.203125 C 6.53125 -3.878906 7.664062 -3.71875 8.78125 -3.71875 C 11.007812 -3.71875 12.125 -4.273438 12.125 -5.390625 C 12.125 -5.910156 11.816406 -6.28125 11.203125 -6.5 C 10.597656 -6.726562 9.664062 -6.921875 8.40625 -7.078125 C 6.914062 -7.304688 5.679688 -7.566406 4.703125 -7.859375 C 3.734375 -8.148438 2.894531 -8.664062 2.1875 -9.40625 C 1.476562 -10.15625 1.125 -11.21875 1.125 -12.59375 C 1.125 -13.75 1.453125 -14.769531 2.109375 -15.65625 C 2.773438 -16.550781 3.742188 -17.25 5.015625 -17.75 C 6.296875 -18.25 7.804688 -18.5 9.546875 -18.5 C 10.835938 -18.5 12.117188 -18.359375 13.390625 -18.078125 C 14.671875 -17.796875 15.726562 -17.40625 16.5625 -16.90625 L 14.796875 -13.140625 C 13.191406 -14.046875 11.441406 -14.5 9.546875 -14.5 C 8.421875 -14.5 7.578125 -14.335938 7.015625 -14.015625 C 6.453125 -13.703125 6.171875 -13.300781 6.171875 -12.8125 C 6.171875 -12.238281 6.472656 -11.835938 7.078125 -11.609375 C 7.691406 -11.390625 8.664062 -11.175781 10 -10.96875 C 11.488281 -10.726562 12.707031 -10.460938 13.65625 -10.171875 C 14.601562 -9.890625 15.425781 -9.375 16.125 -8.625 C 16.820312 -7.882812 17.171875 -6.847656 17.171875 -5.515625 C 17.171875 -4.390625 16.832031 -3.382812 16.15625 -2.5 C 15.476562 -1.625 14.488281 -0.941406 13.1875 -0.453125 C 11.894531 0.0234375 10.359375 0.265625 8.578125 0.265625 Z M 8.578125 0.265625 "/></g></g></g><g fill="#000000" fill-opacity="1"><g transform="translate(593.069382, 42.881578)"><g/></g></g><g fill="#000000" fill-opacity="1"><g transform="translate(175.381034, 90.083558)"><g><path d="M 21 -25.140625 L 21 0 L 15.953125 0 L 15.953125 -2.09375 C 14.640625 -0.519531 12.742188 0.265625 10.265625 0.265625 C 8.546875 0.265625 6.988281 -0.113281 5.59375 -0.875 C 4.207031 -1.644531 3.117188 -2.738281 2.328125 -4.15625 C 1.546875 -5.582031 1.15625 -7.234375 1.15625 -9.109375 C 1.15625 -10.984375 1.546875 -12.628906 2.328125 -14.046875 C 3.117188 -15.472656 4.207031 -16.570312 5.59375 -17.34375 C 6.988281 -18.113281 8.546875 -18.5 10.265625 -18.5 C 12.585938 -18.5 14.40625 -17.765625 15.71875 -16.296875 L 15.71875 -25.140625 Z M 11.171875 -4.0625 C 12.503906 -4.0625 13.609375 -4.519531 14.484375 -5.4375 C 15.367188 -6.351562 15.8125 -7.578125 15.8125 -9.109375 C 15.8125 -10.648438 15.367188 -11.875 14.484375 -12.78125 C 13.609375 -13.695312 12.503906 -14.15625 11.171875 -14.15625 C 9.816406 -14.15625 8.695312 -13.695312 7.8125 -12.78125 C 6.9375 -11.875 6.5 -10.648438 6.5 -9.109375 C 6.5 -7.578125 6.9375 -6.351562 7.8125 -5.4375 C 8.695312 -4.519531 9.816406 -4.0625 11.171875 -4.0625 Z M 11.171875 -4.0625 "/></g></g></g><g fill="#000000" fill-opacity="1"><g transform="translate(198.817659, 90.083558)"><g><path d="M 20.296875 -9.046875 C 20.296875 -8.972656 20.257812 -8.5 20.1875 -7.625 L 6.40625 -7.625 C 6.65625 -6.488281 7.238281 -5.59375 8.15625 -4.9375 C 9.082031 -4.289062 10.238281 -3.96875 11.625 -3.96875 C 12.570312 -3.96875 13.410156 -4.109375 14.140625 -4.390625 C 14.878906 -4.671875 15.5625 -5.113281 16.1875 -5.71875 L 19 -2.671875 C 17.28125 -0.710938 14.773438 0.265625 11.484375 0.265625 C 9.429688 0.265625 7.613281 -0.132812 6.03125 -0.9375 C 4.445312 -1.738281 3.222656 -2.847656 2.359375 -4.265625 C 1.503906 -5.691406 1.078125 -7.304688 1.078125 -9.109375 C 1.078125 -10.890625 1.5 -12.5 2.34375 -13.9375 C 3.195312 -15.375 4.363281 -16.492188 5.84375 -17.296875 C 7.320312 -18.097656 8.976562 -18.5 10.8125 -18.5 C 12.59375 -18.5 14.203125 -18.113281 15.640625 -17.34375 C 17.085938 -16.570312 18.222656 -15.46875 19.046875 -14.03125 C 19.878906 -12.601562 20.296875 -10.941406 20.296875 -9.046875 Z M 10.84375 -14.5 C 9.644531 -14.5 8.640625 -14.160156 7.828125 -13.484375 C 7.015625 -12.804688 6.515625 -11.878906 6.328125 -10.703125 L 15.3125 -10.703125 C 15.132812 -11.859375 14.632812 -12.78125 13.8125 -13.46875 C 13 -14.15625 12.007812 -14.5 10.84375 -14.5 Z M 10.84375 -14.5 "/></g></g></g><g fill="#000000" fill-opacity="1"><g transform="translate(220.188336, 90.083558)"><g/></g></g><g fill="#000000" fill-opacity="1"><g transform="translate(229.782717, 90.083558)"><g><path d="M 28.515625 -23.71875 L 13.515625 0 L 8.125 0 L 2.609375 -23.71875 L 8.265625 -23.71875 L 12.09375 -6.8125 L 22.828125 -23.71875 Z M 28.515625 -23.71875 "/></g></g></g><g fill="#000000" fill-opacity="1"><g transform="translate(255.048204, 90.083558)"><g><path d="M 4.265625 -18.21875 L 9.515625 -18.21875 L 5.890625 0 L 0.640625 0 Z M 7.796875 -20.765625 C 6.890625 -20.765625 6.148438 -21.03125 5.578125 -21.5625 C 5.003906 -22.09375 4.71875 -22.742188 4.71875 -23.515625 C 4.71875 -24.410156 5.035156 -25.15625 5.671875 -25.75 C 6.316406 -26.351562 7.160156 -26.65625 8.203125 -26.65625 C 9.128906 -26.65625 9.878906 -26.398438 10.453125 -25.890625 C 11.035156 -25.390625 11.328125 -24.765625 11.328125 -24.015625 C 11.328125 -23.046875 11 -22.257812 10.34375 -21.65625 C 9.6875 -21.0625 8.835938 -20.765625 7.796875 -20.765625 Z M 7.796875 -20.765625 "/></g></g></g><g fill="#000000" fill-opacity="1"><g transform="translate(265.208587, 90.083558)"><g><path d="M 14.234375 -10.296875 L 20.5 0 L 14.359375 0 L 10.03125 -7.078125 L 6.8125 -4.40625 L 5.921875 0 L 0.640625 0 L 5.65625 -25.140625 L 10.9375 -25.140625 L 8.125 -11.078125 L 16.875 -18.21875 L 23.75 -18.21875 Z M 14.234375 -10.296875 "/></g></g></g><g fill="#000000" fill-opacity="1"><g transform="translate(287.053413, 90.083558)"><g><path d="M 4.265625 -18.21875 L 9.515625 -18.21875 L 5.890625 0 L 0.640625 0 Z M 7.796875 -20.765625 C 6.890625 -20.765625 6.148438 -21.03125 5.578125 -21.5625 C 5.003906 -22.09375 4.71875 -22.742188 4.71875 -23.515625 C 4.71875 -24.410156 5.035156 -25.15625 5.671875 -25.75 C 6.316406 -26.351562 7.160156 -26.65625 8.203125 -26.65625 C 9.128906 -26.65625 9.878906 -26.398438 10.453125 -25.890625 C 11.035156 -25.390625 11.328125 -24.765625 11.328125 -24.015625 C 11.328125 -23.046875 11 -22.257812 10.34375 -21.65625 C 9.6875 -21.0625 8.835938 -20.765625 7.796875 -20.765625 Z M 7.796875 -20.765625 "/></g></g></g><g fill="#000000" fill-opacity="1"><g transform="translate(297.213796, 90.083558)"><g><path d="M 24.1875 -25.140625 L 19.171875 0 L 14.15625 0 L 14.53125 -1.828125 C 13 -0.429688 11.132812 0.265625 8.9375 0.265625 C 7.519531 0.265625 6.210938 -0.0546875 5.015625 -0.703125 C 3.816406 -1.359375 2.859375 -2.300781 2.140625 -3.53125 C 1.429688 -4.769531 1.078125 -6.222656 1.078125 -7.890625 C 1.078125 -9.898438 1.523438 -11.710938 2.421875 -13.328125 C 3.316406 -14.941406 4.53125 -16.207031 6.0625 -17.125 C 7.59375 -18.039062 9.285156 -18.5 11.140625 -18.5 C 12.472656 -18.5 13.640625 -18.269531 14.640625 -17.8125 C 15.648438 -17.363281 16.453125 -16.695312 17.046875 -15.8125 L 18.90625 -25.140625 Z M 10.5625 -4.09375 C 11.601562 -4.09375 12.53125 -4.347656 13.34375 -4.859375 C 14.15625 -5.367188 14.785156 -6.070312 15.234375 -6.96875 C 15.691406 -7.875 15.921875 -8.914062 15.921875 -10.09375 C 15.921875 -11.332031 15.550781 -12.3125 14.8125 -13.03125 C 14.082031 -13.757812 13.0625 -14.125 11.75 -14.125 C 10.71875 -14.125 9.789062 -13.867188 8.96875 -13.359375 C 8.15625 -12.847656 7.523438 -12.140625 7.078125 -11.234375 C 6.628906 -10.335938 6.40625 -9.300781 6.40625 -8.125 C 6.40625 -6.882812 6.769531 -5.898438 7.5 -5.171875 C 8.238281 -4.453125 9.257812 -4.09375 10.5625 -4.09375 Z M 10.5625 -4.09375 "/></g></g></g><g fill="#000000" fill-opacity="1"><g transform="translate(320.650421, 90.083558)"><g><path d="M 4.265625 -18.21875 L 9.515625 -18.21875 L 5.890625 0 L 0.640625 0 Z M 7.796875 -20.765625 C 6.890625 -20.765625 6.148438 -21.03125 5.578125 -21.5625 C 5.003906 -22.09375 4.71875 -22.742188 4.71875 -23.515625 C 4.71875 -24.410156 5.035156 -25.15625 5.671875 -25.75 C 6.316406 -26.351562 7.160156 -26.65625 8.203125 -26.65625 C 9.128906 -26.65625 9.878906 -26.398438 10.453125 -25.890625 C 11.035156 -25.390625 11.328125 -24.765625 11.328125 -24.015625 C 11.328125 -23.046875 11 -22.257812 10.34375 -21.65625 C 9.6875 -21.0625 8.835938 -20.765625 7.796875 -20.765625 Z M 7.796875 -20.765625 "/></g></g></g><g fill="#000000" fill-opacity="1"><g transform="translate(330.810804, 90.083558)"><g><path d="M 22.765625 -18.21875 L 19.140625 0 L 14.125 0 L 14.46875 -1.796875 C 12.945312 -0.421875 11.082031 0.265625 8.875 0.265625 C 7.445312 0.265625 6.132812 -0.0546875 4.9375 -0.703125 C 3.75 -1.359375 2.796875 -2.300781 2.078125 -3.53125 C 1.367188 -4.769531 1.015625 -6.222656 1.015625 -7.890625 C 1.015625 -9.898438 1.457031 -11.710938 2.34375 -13.328125 C 3.238281 -14.941406 4.453125 -16.207031 5.984375 -17.125 C 7.523438 -18.039062 9.222656 -18.5 11.078125 -18.5 C 13.878906 -18.5 15.851562 -17.582031 17 -15.75 L 17.484375 -18.21875 Z M 10.5 -4.09375 C 11.539062 -4.09375 12.46875 -4.347656 13.28125 -4.859375 C 14.09375 -5.367188 14.722656 -6.070312 15.171875 -6.96875 C 15.628906 -7.875 15.859375 -8.914062 15.859375 -10.09375 C 15.859375 -11.332031 15.488281 -12.3125 14.75 -13.03125 C 14.019531 -13.757812 13 -14.125 11.6875 -14.125 C 10.644531 -14.125 9.71875 -13.867188 8.90625 -13.359375 C 8.09375 -12.847656 7.457031 -12.140625 7 -11.234375 C 6.550781 -10.335938 6.328125 -9.300781 6.328125 -8.125 C 6.328125 -6.882812 6.691406 -5.898438 7.421875 -5.171875 C 8.160156 -4.453125 9.1875 -4.09375 10.5 -4.09375 Z M 10.5 -4.09375 "/></g></g></g><g fill="#000000" fill-opacity="1"><g transform="translate(354.191311, 90.083558)"><g/></g></g><g fill="#000000" fill-opacity="1"><g transform="translate(363.775944, 90.083558)"><g><path d="M 21 -25.140625 L 21 0 L 15.953125 0 L 15.953125 -2.09375 C 14.640625 -0.519531 12.742188 0.265625 10.265625 0.265625 C 8.546875 0.265625 6.988281 -0.113281 5.59375 -0.875 C 4.207031 -1.644531 3.117188 -2.738281 2.328125 -4.15625 C 1.546875 -5.582031 1.15625 -7.234375 1.15625 -9.109375 C 1.15625 -10.984375 1.546875 -12.628906 2.328125 -14.046875 C 3.117188 -15.472656 4.207031 -16.570312 5.59375 -17.34375 C 6.988281 -18.113281 8.546875 -18.5 10.265625 -18.5 C 12.585938 -18.5 14.40625 -17.765625 15.71875 -16.296875 L 15.71875 -25.140625 Z M 11.171875 -4.0625 C 12.503906 -4.0625 13.609375 -4.519531 14.484375 -5.4375 C 15.367188 -6.351562 15.8125 -7.578125 15.8125 -9.109375 C 15.8125 -10.648438 15.367188 -11.875 14.484375 -12.78125 C 13.609375 -13.695312 12.503906 -14.15625 11.171875 -14.15625 C 9.816406 -14.15625 8.695312 -13.695312 7.8125 -12.78125 C 6.9375 -11.875 6.5 -10.648438 6.5 -9.109375 C 6.5 -7.578125 6.9375 -6.351562 7.8125 -5.4375 C 8.695312 -4.519531 9.816406 -4.0625 11.171875 -4.0625 Z M 11.171875 -4.0625 "/></g></g></g><g fill="#000000" fill-opacity="1"><g transform="translate(387.212569, 90.083558)"><g><path d="M 2.4375 -18.21875 L 7.71875 -18.21875 L 7.71875 0 L 2.4375 0 Z M 5.09375 -20.765625 C 4.113281 -20.765625 3.316406 -21.046875 2.703125 -21.609375 C 2.097656 -22.171875 1.796875 -22.875 1.796875 -23.71875 C 1.796875 -24.550781 2.097656 -25.25 2.703125 -25.8125 C 3.316406 -26.375 4.113281 -26.65625 5.09375 -26.65625 C 6.0625 -26.65625 6.847656 -26.382812 7.453125 -25.84375 C 8.066406 -25.300781 8.375 -24.625 8.375 -23.8125 C 8.375 -22.9375 8.066406 -22.207031 7.453125 -21.625 C 6.847656 -21.050781 6.0625 -20.765625 5.09375 -20.765625 Z M 5.09375 -20.765625 "/></g></g></g><g fill="#000000" fill-opacity="1"><g transform="translate(397.406826, 90.083558)"><g><path d="M 20.53125 -18.21875 L 12.84375 0 L 7.390625 0 L -0.265625 -18.21875 L 5.1875 -18.21875 L 10.234375 -5.828125 L 15.453125 -18.21875 Z M 20.53125 -18.21875 "/></g></g></g><g fill="#000000" fill-opacity="1"><g transform="translate(417.659865, 90.083558)"><g><path d="M 20.296875 -9.046875 C 20.296875 -8.972656 20.257812 -8.5 20.1875 -7.625 L 6.40625 -7.625 C 6.65625 -6.488281 7.238281 -5.59375 8.15625 -4.9375 C 9.082031 -4.289062 10.238281 -3.96875 11.625 -3.96875 C 12.570312 -3.96875 13.410156 -4.109375 14.140625 -4.390625 C 14.878906 -4.671875 15.5625 -5.113281 16.1875 -5.71875 L 19 -2.671875 C 17.28125 -0.710938 14.773438 0.265625 11.484375 0.265625 C 9.429688 0.265625 7.613281 -0.132812 6.03125 -0.9375 C 4.445312 -1.738281 3.222656 -2.847656 2.359375 -4.265625 C 1.503906 -5.691406 1.078125 -7.304688 1.078125 -9.109375 C 1.078125 -10.890625 1.5 -12.5 2.34375 -13.9375 C 3.195312 -15.375 4.363281 -16.492188 5.84375 -17.296875 C 7.320312 -18.097656 8.976562 -18.5 10.8125 -18.5 C 12.59375 -18.5 14.203125 -18.113281 15.640625 -17.34375 C 17.085938 -16.570312 18.222656 -15.46875 19.046875 -14.03125 C 19.878906 -12.601562 20.296875 -10.941406 20.296875 -9.046875 Z M 10.84375 -14.5 C 9.644531 -14.5 8.640625 -14.160156 7.828125 -13.484375 C 7.015625 -12.804688 6.515625 -11.878906 6.328125 -10.703125 L 15.3125 -10.703125 C 15.132812 -11.859375 14.632812 -12.78125 13.8125 -13.46875 C 13 -14.15625 12.007812 -14.5 10.84375 -14.5 Z M 10.84375 -14.5 "/></g></g></g><g fill="#000000" fill-opacity="1"><g transform="translate(439.030542, 90.083558)"><g><path d="M 7.484375 -15.8125 C 8.117188 -16.695312 8.972656 -17.363281 10.046875 -17.8125 C 11.117188 -18.269531 12.351562 -18.5 13.75 -18.5 L 13.75 -13.625 C 13.164062 -13.664062 12.769531 -13.6875 12.5625 -13.6875 C 11.050781 -13.6875 9.863281 -13.257812 9 -12.40625 C 8.144531 -11.5625 7.71875 -10.296875 7.71875 -8.609375 L 7.71875 0 L 2.4375 0 L 2.4375 -18.21875 L 7.484375 -18.21875 Z M 7.484375 -15.8125 "/></g></g></g><g fill="#000000" fill-opacity="1"><g transform="translate(453.627635, 90.083558)"><g><path d="M 8.578125 0.265625 C 7.054688 0.265625 5.570312 0.0820312 4.125 -0.28125 C 2.6875 -0.65625 1.535156 -1.125 0.671875 -1.6875 L 2.4375 -5.484375 C 3.25 -4.960938 4.226562 -4.535156 5.375 -4.203125 C 6.53125 -3.878906 7.664062 -3.71875 8.78125 -3.71875 C 11.007812 -3.71875 12.125 -4.273438 12.125 -5.390625 C 12.125 -5.910156 11.816406 -6.28125 11.203125 -6.5 C 10.597656 -6.726562 9.664062 -6.921875 8.40625 -7.078125 C 6.914062 -7.304688 5.679688 -7.566406 4.703125 -7.859375 C 3.734375 -8.148438 2.894531 -8.664062 2.1875 -9.40625 C 1.476562 -10.15625 1.125 -11.21875 1.125 -12.59375 C 1.125 -13.75 1.453125 -14.769531 2.109375 -15.65625 C 2.773438 -16.550781 3.742188 -17.25 5.015625 -17.75 C 6.296875 -18.25 7.804688 -18.5 9.546875 -18.5 C 10.835938 -18.5 12.117188 -18.359375 13.390625 -18.078125 C 14.671875 -17.796875 15.726562 -17.40625 16.5625 -16.90625 L 14.796875 -13.140625 C 13.191406 -14.046875 11.441406 -14.5 9.546875 -14.5 C 8.421875 -14.5 7.578125 -14.335938 7.015625 -14.015625 C 6.453125 -13.703125 6.171875 -13.300781 6.171875 -12.8125 C 6.171875 -12.238281 6.472656 -11.835938 7.078125 -11.609375 C 7.691406 -11.390625 8.664062 -11.175781 10 -10.96875 C 11.488281 -10.726562 12.707031 -10.460938 13.65625 -10.171875 C 14.601562 -9.890625 15.425781 -9.375 16.125 -8.625 C 16.820312 -7.882812 17.171875 -6.847656 17.171875 -5.515625 C 17.171875 -4.390625 16.832031 -3.382812 16.15625 -2.5 C 15.476562 -1.625 14.488281 -0.941406 13.1875 -0.453125 C 11.894531 0.0234375 10.359375 0.265625 8.578125 0.265625 Z M 8.578125 0.265625 "/></g></g></g><g fill="#000000" fill-opacity="1"><g transform="translate(471.611513, 90.083558)"><g><path d="M 2.4375 -18.21875 L 7.71875 -18.21875 L 7.71875 0 L 2.4375 0 Z M 5.09375 -20.765625 C 4.113281 -20.765625 3.316406 -21.046875 2.703125 -21.609375 C 2.097656 -22.171875 1.796875 -22.875 1.796875 -23.71875 C 1.796875 -24.550781 2.097656 -25.25 2.703125 -25.8125 C 3.316406 -26.375 4.113281 -26.65625 5.09375 -26.65625 C 6.0625 -26.65625 6.847656 -26.382812 7.453125 -25.84375 C 8.066406 -25.300781 8.375 -24.625 8.375 -23.8125 C 8.375 -22.9375 8.066406 -22.207031 7.453125 -21.625 C 6.847656 -21.050781 6.0625 -20.765625 5.09375 -20.765625 Z M 5.09375 -20.765625 "/></g></g></g><g fill="#000000" fill-opacity="1"><g transform="translate(481.80577, 90.083558)"><g><path d="M 8.234375 -17.8125 L 12.90625 -17.8125 L 12.90625 -13.75 L 8.359375 -13.75 L 8.359375 0 L 3.078125 0 L 3.078125 -13.75 L 0.265625 -13.75 L 0.265625 -17.8125 L 3.078125 -17.8125 L 3.078125 -18.625 C 3.078125 -20.707031 3.691406 -22.359375 4.921875 -23.578125 C 6.160156 -24.796875 7.894531 -25.40625 10.125 -25.40625 C 10.914062 -25.40625 11.664062 -25.316406 12.375 -25.140625 C 13.09375 -24.972656 13.6875 -24.734375 14.15625 -24.421875 L 12.765625 -20.59375 C 12.160156 -21.019531 11.453125 -21.234375 10.640625 -21.234375 C 9.035156 -21.234375 8.234375 -20.351562 8.234375 -18.59375 Z M 8.234375 -17.8125 "/></g></g></g><g fill="#000000" fill-opacity="1"><g transform="translate(494.912664, 90.083558)"><g><path d="M 2.4375 -18.21875 L 7.71875 -18.21875 L 7.71875 0 L 2.4375 0 Z M 5.09375 -20.765625 C 4.113281 -20.765625 3.316406 -21.046875 2.703125 -21.609375 C 2.097656 -22.171875 1.796875 -22.875 1.796875 -23.71875 C 1.796875 -24.550781 2.097656 -25.25 2.703125 -25.8125 C 3.316406 -26.375 4.113281 -26.65625 5.09375 -26.65625 C 6.0625 -26.65625 6.847656 -26.382812 7.453125 -25.84375 C 8.066406 -25.300781 8.375 -24.625 8.375 -23.8125 C 8.375 -22.9375 8.066406 -22.207031 7.453125 -21.625 C 6.847656 -21.050781 6.0625 -20.765625 5.09375 -20.765625 Z M 5.09375 -20.765625 "/></g></g></g><g fill="#000000" fill-opacity="1"><g transform="translate(505.106921, 90.083558)"><g><path d="M 20.296875 -9.046875 C 20.296875 -8.972656 20.257812 -8.5 20.1875 -7.625 L 6.40625 -7.625 C 6.65625 -6.488281 7.238281 -5.59375 8.15625 -4.9375 C 9.082031 -4.289062 10.238281 -3.96875 11.625 -3.96875 C 12.570312 -3.96875 13.410156 -4.109375 14.140625 -4.390625 C 14.878906 -4.671875 15.5625 -5.113281 16.1875 -5.71875 L 19 -2.671875 C 17.28125 -0.710938 14.773438 0.265625 11.484375 0.265625 C 9.429688 0.265625 7.613281 -0.132812 6.03125 -0.9375 C 4.445312 -1.738281 3.222656 -2.847656 2.359375 -4.265625 C 1.503906 -5.691406 1.078125 -7.304688 1.078125 -9.109375 C 1.078125 -10.890625 1.5 -12.5 2.34375 -13.9375 C 3.195312 -15.375 4.363281 -16.492188 5.84375 -17.296875 C 7.320312 -18.097656 8.976562 -18.5 10.8125 -18.5 C 12.59375 -18.5 14.203125 -18.113281 15.640625 -17.34375 C 17.085938 -16.570312 18.222656 -15.46875 19.046875 -14.03125 C 19.878906 -12.601562 20.296875 -10.941406 20.296875 -9.046875 Z M 10.84375 -14.5 C 9.644531 -14.5 8.640625 -14.160156 7.828125 -13.484375 C 7.015625 -12.804688 6.515625 -11.878906 6.328125 -10.703125 L 15.3125 -10.703125 C 15.132812 -11.859375 14.632812 -12.78125 13.8125 -13.46875 C 13 -14.15625 12.007812 -14.5 10.84375 -14.5 Z M 12.1875 -25.4375 L 17.875 -25.4375 L 11.75 -20.5625 L 7.609375 -20.5625 Z M 12.1875 -25.4375 "/></g></g></g><g fill="#000000" fill-opacity="1"><g transform="translate(526.477598, 90.083558)"><g><path d="M 8.578125 0.265625 C 7.054688 0.265625 5.570312 0.0820312 4.125 -0.28125 C 2.6875 -0.65625 1.535156 -1.125 0.671875 -1.6875 L 2.4375 -5.484375 C 3.25 -4.960938 4.226562 -4.535156 5.375 -4.203125 C 6.53125 -3.878906 7.664062 -3.71875 8.78125 -3.71875 C 11.007812 -3.71875 12.125 -4.273438 12.125 -5.390625 C 12.125 -5.910156 11.816406 -6.28125 11.203125 -6.5 C 10.597656 -6.726562 9.664062 -6.921875 8.40625 -7.078125 C 6.914062 -7.304688 5.679688 -7.566406 4.703125 -7.859375 C 3.734375 -8.148438 2.894531 -8.664062 2.1875 -9.40625 C 1.476562 -10.15625 1.125 -11.21875 1.125 -12.59375 C 1.125 -13.75 1.453125 -14.769531 2.109375 -15.65625 C 2.773438 -16.550781 3.742188 -17.25 5.015625 -17.75 C 6.296875 -18.25 7.804688 -18.5 9.546875 -18.5 C 10.835938 -18.5 12.117188 -18.359375 13.390625 -18.078125 C 14.671875 -17.796875 15.726562 -17.40625 16.5625 -16.90625 L 14.796875 -13.140625 C 13.191406 -14.046875 11.441406 -14.5 9.546875 -14.5 C 8.421875 -14.5 7.578125 -14.335938 7.015625 -14.015625 C 6.453125 -13.703125 6.171875 -13.300781 6.171875 -12.8125 C 6.171875 -12.238281 6.472656 -11.835938 7.078125 -11.609375 C 7.691406 -11.390625 8.664062 -11.175781 10 -10.96875 C 11.488281 -10.726562 12.707031 -10.460938 13.65625 -10.171875 C 14.601562 -9.890625 15.425781 -9.375 16.125 -8.625 C 16.820312 -7.882812 17.171875 -6.847656 17.171875 -5.515625 C 17.171875 -4.390625 16.832031 -3.382812 16.15625 -2.5 C 15.476562 -1.625 14.488281 -0.941406 13.1875 -0.453125 C 11.894531 0.0234375 10.359375 0.265625 8.578125 0.265625 Z M 8.578125 0.265625 "/></g></g></g><g fill="#000000" fill-opacity="1"><g transform="translate(544.462581, 90.083558)"><g/></g></g><g fill="#000000" fill-opacity="1"><g transform="translate(554.050487, 90.083558)"><g><path d="M 7.1875 -8.640625 C 7.1875 -9.765625 7.429688 -10.691406 7.921875 -11.421875 C 8.421875 -12.160156 9.144531 -12.972656 10.09375 -13.859375 C 10.75 -14.460938 11.234375 -14.972656 11.546875 -15.390625 C 11.867188 -15.804688 12.03125 -16.253906 12.03125 -16.734375 C 12.03125 -17.390625 11.75 -17.914062 11.1875 -18.3125 C 10.632812 -18.707031 9.921875 -18.90625 9.046875 -18.90625 C 8.140625 -18.90625 7.316406 -18.6875 6.578125 -18.25 C 5.847656 -17.820312 5.257812 -17.226562 4.8125 -16.46875 L -0.234375 -19.171875 C 0.691406 -20.753906 2 -21.984375 3.6875 -22.859375 C 5.382812 -23.742188 7.429688 -24.1875 9.828125 -24.1875 C 12.515625 -24.1875 14.675781 -23.625 16.3125 -22.5 C 17.945312 -21.382812 18.765625 -19.820312 18.765625 -17.8125 C 18.765625 -16.882812 18.601562 -16.066406 18.28125 -15.359375 C 17.96875 -14.648438 17.59375 -14.050781 17.15625 -13.5625 C 16.71875 -13.082031 16.148438 -12.535156 15.453125 -11.921875 C 14.679688 -11.265625 14.113281 -10.703125 13.75 -10.234375 C 13.394531 -9.773438 13.21875 -9.242188 13.21875 -8.640625 Z M 10.203125 0.3125 C 9.085938 0.3125 8.171875 -0.03125 7.453125 -0.71875 C 6.734375 -1.414062 6.375 -2.257812 6.375 -3.25 C 6.375 -4.269531 6.726562 -5.101562 7.4375 -5.75 C 8.144531 -6.40625 9.066406 -6.734375 10.203125 -6.734375 C 11.328125 -6.734375 12.25 -6.40625 12.96875 -5.75 C 13.695312 -5.101562 14.0625 -4.269531 14.0625 -3.25 C 14.0625 -2.257812 13.695312 -1.414062 12.96875 -0.71875 C 12.25 -0.03125 11.328125 0.3125 10.203125 0.3125 Z M 10.203125 0.3125 "/></g></g></g></svg>