<?xml version="1.0" standalone="no"?>
<!DOCTYPE svg PUBLIC "-//W3C//DTD SVG 20010904//EN"
 "http://www.w3.org/TR/2001/REC-SVG-20010904/DTD/svg10.dtd">
<svg version="1.0" xmlns="http://www.w3.org/2000/svg"
 width="1076.000000pt" height="917.000000pt" viewBox="0 0 1076.000000 917.000000"
 preserveAspectRatio="xMidYMid meet">

<g transform="translate(0.000000,917.000000) scale(0.100000,-0.100000)"
fill="#000000" stroke="none">
<path d="M4702 780 c1 -63 2 -67 5 -22 2 28 7 52 11 52 5 0 25 -22 46 -50 21
-27 40 -50 42 -50 2 0 3 33 2 73 l-1 72 -6 -60 -6 -60 -39 50 c-22 28 -44 54
-48 60 -4 5 -7 -25 -6 -65z"/>
<path d="M4993 780 c0 -41 1 -66 4 -55 8 32 20 40 40 24 16 -13 17 -12 4 4
-12 15 -11 20 5 40 l19 22 -26 -22 c-14 -13 -28 -23 -32 -23 -3 0 -8 19 -10
43 -2 23 -4 8 -4 -33z"/>
<path d="M4862 775 c-2 -40 11 -65 33 -65 5 0 2 6 -7 13 -9 7 -18 31 -21 53
l-4 39 -1 -40z"/>
<path d="M4933 760 c0 -30 2 -43 4 -27 2 15 2 39 0 55 -2 15 -4 2 -4 -28z"/>
<path d="M5112 798 c-7 -7 -12 -23 -11 -37 0 -15 3 -20 6 -13 2 7 22 12 44 12
25 0 39 5 39 13 0 19 -21 37 -45 37 -12 0 -26 -5 -33 -12z m66 -15 c2 -9 -8
-13 -32 -13 -34 0 -44 8 -29 24 11 11 56 2 61 -11z"/>
<path d="M5233 760 c0 -30 2 -43 4 -27 2 15 2 39 0 55 -2 15 -4 2 -4 -28z"/>
<path d="M5128 718 c5 -5 16 -8 23 -6 8 3 3 7 -10 11 -17 4 -21 3 -13 -5z"/>
<path d="M4964 594 c-18 -15 -18 -15 3 -5 12 6 30 8 40 5 15 -5 15 -4 3 5 -20
14 -23 14 -46 -5z"/>
<path d="M4940 538 c0 -23 3 -29 9 -19 8 12 4 51 -5 51 -2 0 -4 -15 -4 -32z"/>
<path d="M4970 546 c0 -2 11 -6 25 -8 13 -3 22 -1 19 3 -5 9 -44 13 -44 5z"/>
<path d="M4965 483 c22 -15 32 -16 39 -4 3 5 -8 11 -26 13 -28 5 -29 4 -13 -9z"/>
</g>
</svg>
