<?xml version="1.0" standalone="no"?>
<!DOCTYPE svg PUBLIC "-//W3C//DTD SVG 20010904//EN"
 "http://www.w3.org/TR/2001/REC-SVG-20010904/DTD/svg10.dtd">
<svg version="1.0" xmlns="http://www.w3.org/2000/svg"
 width="1076.000000pt" height="917.000000pt" viewBox="0 0 1076.000000 917.000000"
 preserveAspectRatio="xMidYMid meet">

<g transform="translate(0.000000,917.000000) scale(0.100000,-0.100000)"
fill="#000000" stroke="none">
<path d="M495 9020 c-4 -6 -5 -20 -4 -33 1 -12 -2 -30 -6 -41 -11 -26 6 -50
39 -54 41 -5 56 13 54 67 -1 25 -6 52 -11 59 -11 14 -63 16 -72 2z m60 -30 c0
-22 -39 -19 -43 3 -3 15 1 18 20 15 12 -2 23 -10 23 -18z m3 -57 c-4 -20 -35
-30 -50 -15 -15 15 0 32 28 32 19 0 25 -5 22 -17z"/>
<path d="M620 9011 c-15 -29 -12 -87 6 -105 21 -21 57 -20 77 2 23 25 22 85
-1 105 -25 23 -69 22 -82 -2z m74 -17 c17 -43 -1 -84 -36 -84 -21 0 -33 38
-24 75 7 29 50 35 60 9z"/>
<path d="M760 9015 c-16 -20 -16 -90 0 -110 15 -19 64 -20 79 -2 21 26 24 75
7 102 -19 29 -66 34 -86 10z m70 -30 c14 -37 -4 -77 -33 -73 -17 2 -23 11 -25
36 -4 45 3 62 28 62 13 0 24 -10 30 -25z"/>
<path d="M510 8470 c0 -11 5 -20 10 -20 6 0 10 5 10 10 0 6 11 10 25 10 14 0
25 -2 25 -5 0 -3 -11 -28 -25 -55 -28 -55 -29 -60 -15 -60 10 0 70 111 70 130
0 5 -22 10 -50 10 -43 0 -50 -3 -50 -20z"/>
<path d="M632 8453 c3 -34 6 -37 33 -38 23 0 30 -5 30 -20 0 -16 -6 -20 -33
-18 -40 1 -39 -20 2 -25 33 -4 56 13 56 42 0 29 -18 46 -48 46 -32 0 -23 24
11 28 42 5 32 22 -14 22 l-40 0 3 -37z"/>
<path d="M760 8475 c-16 -20 -16 -90 0 -110 15 -19 64 -20 79 -2 21 26 24 75
7 102 -19 29 -66 34 -86 10z m70 -30 c14 -37 -4 -77 -33 -73 -17 2 -23 11 -25
36 -4 45 3 62 28 62 13 0 24 -10 30 -25z"/>
<path d="M490 7930 c0 -11 5 -20 10 -20 6 0 10 5 10 10 0 6 11 10 25 10 14 0
25 -2 25 -5 0 -3 -11 -28 -25 -55 -28 -55 -29 -60 -15 -60 10 0 70 111 70 130
0 5 -22 10 -50 10 -43 0 -50 -3 -50 -20z"/>
<path d="M620 7931 c-15 -29 -12 -87 6 -105 21 -21 57 -20 77 2 23 25 22 85
-1 105 -25 23 -69 22 -82 -2z m74 -17 c17 -43 -1 -84 -36 -84 -21 0 -33 38
-24 75 7 29 50 35 60 9z"/>
<path d="M760 7935 c-16 -20 -16 -90 0 -110 15 -19 64 -20 79 -2 21 26 24 75
7 102 -19 29 -66 34 -86 10z m70 -30 c14 -37 -4 -77 -33 -73 -17 2 -23 11 -25
36 -4 45 3 62 28 62 13 0 24 -10 30 -25z"/>
<path d="M520 7395 c-16 -20 -17 -90 0 -110 15 -18 51 -20 68 -3 30 30 2 85
-39 75 -15 -4 -19 -1 -17 11 2 11 13 17 33 17 40 1 39 19 -1 23 -19 2 -36 -3
-44 -13z m57 -66 c16 -16 5 -39 -17 -39 -23 0 -34 16 -26 35 6 18 28 19 43 4z"/>
<path d="M632 7373 c3 -34 6 -37 33 -38 23 0 30 -5 30 -20 0 -16 -6 -20 -33
-18 -40 1 -39 -20 2 -25 33 -4 56 13 56 42 0 29 -18 46 -48 46 -32 0 -23 24
11 28 42 5 32 22 -14 22 l-40 0 3 -37z"/>
<path d="M760 7395 c-16 -20 -16 -90 0 -110 15 -19 64 -20 79 -2 21 26 24 75
7 102 -19 29 -66 34 -86 10z m70 -30 c14 -37 -4 -77 -33 -73 -17 2 -23 11 -25
36 -4 45 3 62 28 62 13 0 24 -10 30 -25z"/>
<path d="M502 6857 c-22 -26 -26 -75 -8 -102 28 -42 86 -28 86 21 0 30 -24 48
-55 40 -24 -6 -25 -5 -15 14 8 14 19 20 35 18 13 -2 25 2 27 7 5 16 -57 18
-70 2z m56 -80 c4 -20 -25 -34 -40 -19 -15 15 -1 44 19 40 10 -2 19 -11 21
-21z"/>
<path d="M620 6851 c-15 -29 -12 -87 6 -105 21 -21 57 -20 77 2 23 25 22 85
-1 105 -25 23 -69 22 -82 -2z m74 -17 c17 -43 -1 -84 -36 -84 -21 0 -33 38
-24 75 7 29 50 35 60 9z"/>
<path d="M760 6855 c-16 -20 -16 -90 0 -110 15 -19 64 -20 79 -2 21 26 24 75
7 102 -19 29 -66 34 -86 10z m70 -30 c14 -37 -4 -77 -33 -73 -17 2 -23 11 -25
36 -4 45 3 62 28 62 13 0 24 -10 30 -25z"/>
<path d="M520 6286 c0 -30 3 -35 28 -38 37 -4 39 -42 2 -44 -41 -2 -46 -4 -30
-14 27 -17 59 -11 76 15 16 24 16 27 -1 45 -10 11 -26 20 -37 20 -10 0 -18 7
-18 15 0 10 10 15 30 15 17 0 30 5 30 10 0 6 -18 10 -40 10 -39 0 -40 -1 -40
-34z"/>
<path d="M632 6283 c3 -34 6 -37 33 -38 23 0 30 -5 30 -20 0 -16 -6 -20 -33
-18 -40 1 -39 -20 2 -25 33 -4 56 13 56 42 0 29 -18 46 -48 46 -32 0 -23 24
11 28 42 5 32 22 -14 22 l-40 0 3 -37z"/>
<path d="M760 6305 c-16 -20 -16 -90 0 -110 15 -19 64 -20 79 -2 21 26 24 75
7 102 -19 29 -66 34 -86 10z m70 -30 c14 -37 -4 -77 -33 -73 -17 2 -23 11 -25
36 -4 45 3 62 28 62 13 0 24 -10 30 -25z"/>
<path d="M132 5888 c-17 -17 -15 -43 3 -58 20 -17 32 -5 15 15 -21 25 4 44 28
22 18 -17 42 -23 42 -11 0 11 -45 43 -60 44 -9 0 -21 -5 -28 -12z"/>
<path d="M240 5860 c0 -5 5 -10 10 -10 6 0 10 5 10 10 0 6 -4 10 -10 10 -5 0
-10 -4 -10 -10z"/>
<path d="M500 5742 c0 -35 2 -38 28 -37 20 0 27 -5 27 -20 0 -16 -6 -20 -32
-17 -18 1 -33 -2 -33 -8 0 -15 51 -24 69 -13 35 22 20 83 -20 83 -11 0 -19 7
-19 15 0 9 9 15 25 15 14 0 25 5 25 10 0 6 -16 10 -35 10 -34 0 -35 -1 -35
-38z"/>
<path d="M620 5761 c-15 -29 -12 -87 6 -105 21 -21 57 -20 77 2 23 25 22 85
-1 105 -25 23 -69 22 -82 -2z m74 -17 c17 -43 -1 -84 -36 -84 -21 0 -33 38
-24 75 7 29 50 35 60 9z"/>
<path d="M760 5765 c-16 -20 -16 -90 0 -110 15 -19 64 -20 79 -2 21 26 24 75
7 102 -19 29 -66 34 -86 10z m70 -30 c14 -37 -4 -77 -33 -73 -17 2 -23 11 -25
36 -4 45 3 62 28 62 13 0 24 -10 30 -25z"/>
<path d="M163 5715 c0 -23 3 -25 48 -25 27 0 49 5 49 10 0 6 -16 10 -35 10
-22 0 -38 6 -41 15 -9 23 -21 18 -21 -10z"/>
<path d="M160 5640 c0 -5 15 -10 33 -10 37 0 58 -15 50 -36 -3 -9 -20 -14 -44
-14 -28 0 -39 -4 -39 -15 0 -17 36 -20 74 -5 22 8 26 15 24 50 l-1 40 -49 0
c-26 0 -48 -4 -48 -10z"/>
<path d="M182 5524 c-34 -23 -27 -75 11 -88 39 -14 61 2 65 48 2 21 -1 36 -8
36 -6 0 -8 -10 -5 -23 4 -15 1 -28 -9 -36 -14 -12 -16 -8 -16 33 0 50 -4 54
-38 30z m18 -46 c-1 -31 -2 -32 -15 -15 -7 11 -11 25 -8 33 10 25 23 15 23
-18z"/>
<path d="M244 5393 c2 -26 -54 -31 -71 -7 -11 16 -13 16 -13 2 0 -9 -10 -18
-22 -21 l-23 -4 23 -9 c13 -5 44 -7 70 -4 42 4 47 8 50 33 2 15 -1 27 -6 27
-5 0 -9 -8 -8 -17z"/>
<path d="M160 5310 c0 -5 15 -10 33 -10 37 0 58 -15 50 -36 -3 -9 -20 -14 -44
-14 -28 0 -39 -4 -39 -15 0 -17 36 -20 74 -5 22 8 26 15 24 50 l-1 40 -49 0
c-26 0 -48 -4 -48 -10z"/>
<path d="M535 5197 c-14 -24 -25 -47 -25 -50 0 -4 14 -7 30 -7 23 0 30 -4 30
-20 0 -11 5 -20 10 -20 6 0 10 9 10 19 0 11 4 21 9 23 5 2 3 12 -6 23 -11 14
-17 16 -20 8 -3 -7 -11 -13 -20 -13 -12 0 -11 6 6 34 23 37 25 46 11 46 -5 0
-21 -20 -35 -43z"/>
<path d="M632 5203 c3 -34 6 -37 33 -38 23 0 30 -5 30 -20 0 -16 -6 -20 -33
-18 -40 1 -39 -20 2 -25 33 -4 56 13 56 42 0 29 -18 46 -48 46 -32 0 -23 24
11 28 42 5 32 22 -14 22 l-40 0 3 -37z"/>
<path d="M760 5225 c-16 -20 -16 -90 0 -110 15 -19 64 -20 79 -2 21 26 24 75
7 102 -19 29 -66 34 -86 10z m70 -30 c14 -37 -4 -77 -33 -73 -17 2 -23 11 -25
36 -4 45 3 62 28 62 13 0 24 -10 30 -25z"/>
<path d="M170 5175 c-7 -8 -10 -26 -8 -40 4 -21 1 -25 -18 -25 -13 0 -24 -4
-24 -10 0 -6 29 -10 68 -10 l69 0 1 37 c1 20 -3 42 -9 50 -15 18 -64 17 -79
-2z m70 -20 c10 -12 10 -18 0 -30 -27 -32 -71 -8 -56 30 3 8 14 15 24 15 11 0
25 -7 32 -15z"/>
<path d="M112 5049 c2 -6 8 -10 13 -10 5 0 11 4 13 10 2 6 -4 11 -13 11 -9 0
-15 -5 -13 -11z"/>
<path d="M160 5050 c0 -5 23 -10 50 -10 28 0 50 5 50 10 0 6 -22 10 -50 10
-27 0 -50 -4 -50 -10z"/>
<path d="M163 4985 c0 -23 3 -25 48 -25 27 0 49 5 49 10 0 6 -16 10 -35 10
-22 0 -38 6 -41 15 -9 23 -21 18 -21 -10z"/>
<path d="M244 4913 c2 -26 -54 -31 -71 -7 -11 16 -13 16 -13 2 0 -9 -10 -18
-22 -21 l-23 -4 23 -9 c13 -5 44 -7 70 -4 42 4 47 8 50 33 2 15 -1 27 -6 27
-5 0 -9 -8 -8 -17z"/>
<path d="M166 4821 c-3 -4 -5 -25 -4 -45 l1 -36 49 0 c56 0 65 17 11 22 -31 2
-39 7 -41 26 -3 20 1 22 37 22 23 0 41 5 41 10 0 12 -87 13 -94 1z"/>
<path d="M178 4699 c-12 -6 -18 -22 -18 -45 0 -27 5 -37 25 -46 40 -18 75 3
75 45 0 52 -37 73 -82 46z m61 -26 c12 -23 -4 -53 -29 -53 -25 0 -41 29 -29
52 12 23 45 23 58 1z"/>
<path d="M515 4660 c-32 -51 -32 -60 5 -60 23 0 30 -4 30 -20 0 -11 5 -20 10
-20 6 0 10 9 10 19 0 11 4 21 9 23 5 2 3 12 -6 23 -11 14 -17 16 -20 8 -3 -7
-11 -13 -20 -13 -12 0 -11 6 6 36 24 40 25 44 11 44 -5 0 -21 -18 -35 -40z"/>
<path d="M620 4681 c-15 -29 -12 -87 6 -105 21 -21 57 -20 77 2 23 25 22 85
-1 105 -25 23 -69 22 -82 -2z m74 -17 c17 -43 -1 -84 -36 -84 -21 0 -33 38
-24 75 7 29 50 35 60 9z"/>
<path d="M760 4685 c-16 -20 -16 -90 0 -110 15 -19 64 -20 79 -2 21 26 24 75
7 102 -19 29 -66 34 -86 10z m70 -30 c14 -37 -4 -77 -33 -73 -17 2 -23 11 -25
36 -4 45 3 62 28 62 13 0 24 -10 30 -25z"/>
<path d="M131 4571 c-17 -32 -13 -60 14 -86 49 -50 119 -17 113 52 -2 20 -9
38 -15 41 -9 2 -11 -5 -7 -27 8 -39 -9 -61 -47 -61 -37 0 -57 36 -40 68 7 13
7 23 2 27 -6 3 -15 -3 -20 -14z"/>
<path d="M182 4374 c-34 -23 -27 -75 11 -88 39 -14 61 2 65 48 2 21 -1 36 -8
36 -6 0 -8 -10 -5 -23 4 -15 1 -28 -9 -36 -14 -12 -16 -8 -16 33 0 50 -4 54
-38 30z m18 -46 c-1 -31 -2 -32 -15 -15 -7 11 -11 25 -8 33 10 25 23 15 23
-18z"/>
<path d="M120 4240 c0 -5 10 -10 23 -10 19 0 22 -5 22 -37 0 -32 4 -39 28 -47
43 -15 62 2 63 58 l2 46 -69 0 c-39 0 -69 -4 -69 -10z m114 -26 c18 -18 6 -54
-19 -54 -12 0 -45 26 -45 35 0 7 32 35 40 35 5 0 16 -7 24 -16z"/>
<path d="M520 4140 c0 -5 10 -10 21 -10 20 0 20 -1 6 -24 -15 -23 -15 -24 9
-30 33 -9 29 -41 -6 -42 -14 0 -27 -4 -30 -10 -8 -14 49 -17 66 -3 19 16 18
56 -3 68 -17 9 -17 10 0 28 25 28 22 33 -23 33 -22 0 -40 -4 -40 -10z"/>
<path d="M632 4113 c3 -34 6 -37 33 -38 23 0 30 -5 30 -20 0 -16 -6 -20 -33
-18 -40 1 -39 -20 2 -25 33 -4 56 13 56 42 0 29 -18 46 -48 46 -32 0 -23 24
11 28 42 5 32 22 -14 22 l-40 0 3 -37z"/>
<path d="M760 4135 c-16 -20 -16 -90 0 -110 15 -19 64 -20 79 -2 21 26 24 75
7 102 -19 29 -66 34 -86 10z m70 -30 c14 -37 -4 -77 -33 -73 -17 2 -23 11 -25
36 -4 45 3 62 28 62 13 0 24 -10 30 -25z"/>
<path d="M120 4060 c0 -6 30 -10 70 -10 40 0 70 4 70 10 0 6 -30 10 -70 10
-40 0 -70 -4 -70 -10z"/>
<path d="M167 4003 c-11 -10 -8 -61 4 -68 6 -4 9 3 7 21 -2 15 2 29 9 31 7 3
13 -9 15 -29 2 -28 7 -33 28 -33 22 0 25 5 28 43 l3 42 -44 0 c-24 0 -47 -3
-50 -7z m77 -30 c9 -23 -12 -43 -24 -23 -5 8 -10 21 -10 28 0 18 27 15 34 -5z"/>
<path d="M244 3883 c2 -26 -54 -31 -71 -7 -11 16 -13 16 -13 2 0 -9 -10 -18
-22 -21 l-23 -4 23 -9 c13 -5 44 -7 70 -4 42 4 47 8 50 33 2 15 -1 27 -6 27
-5 0 -9 -8 -8 -17z"/>
<path d="M178 3799 c-12 -6 -18 -22 -18 -45 0 -27 5 -37 25 -46 40 -18 75 3
75 45 0 52 -37 73 -82 46z m61 -26 c12 -23 -4 -53 -29 -53 -25 0 -41 29 -29
52 12 23 45 23 58 1z"/>
<path d="M120 3630 c0 -50 13 -67 23 -30 4 17 14 20 61 20 31 0 56 5 56 10 0
6 -25 10 -56 10 -47 0 -57 3 -61 20 -10 37 -23 20 -23 -30z"/>
<path d="M500 3600 c0 -5 10 -10 21 -10 20 0 20 -1 6 -24 -15 -23 -15 -24 9
-30 33 -9 29 -41 -6 -42 -14 0 -27 -4 -30 -10 -8 -14 49 -17 66 -3 19 16 18
56 -3 68 -17 9 -17 10 0 28 25 28 22 33 -23 33 -22 0 -40 -4 -40 -10z"/>
<path d="M620 3591 c-15 -29 -12 -87 6 -105 21 -21 57 -20 77 2 23 25 22 85
-1 105 -25 23 -69 22 -82 -2z m74 -17 c17 -43 -1 -84 -36 -84 -21 0 -33 38
-24 75 7 29 50 35 60 9z"/>
<path d="M760 3595 c-16 -20 -16 -90 0 -110 15 -19 64 -20 79 -2 21 26 24 75
7 102 -19 29 -66 34 -86 10z m70 -30 c14 -37 -4 -77 -33 -73 -17 2 -23 11 -25
36 -4 45 3 62 28 62 13 0 24 -10 30 -25z"/>
<path d="M520 3055 c-11 -13 -8 -15 20 -13 45 4 46 -11 5 -59 -19 -23 -35 -44
-35 -47 0 -3 20 -6 45 -6 25 0 45 5 45 10 0 6 -11 10 -25 10 -14 0 -25 4 -25
8 0 5 11 19 25 32 27 26 32 49 13 68 -17 17 -53 15 -68 -3z"/>
<path d="M632 3033 c3 -34 6 -37 33 -38 23 0 30 -5 30 -20 0 -16 -6 -20 -33
-18 -40 1 -39 -20 2 -25 33 -4 56 13 56 42 0 29 -18 46 -48 46 -32 0 -23 24
11 28 42 5 32 22 -14 22 l-40 0 3 -37z"/>
<path d="M760 3055 c-16 -20 -16 -90 0 -110 15 -19 64 -20 79 -2 21 26 24 75
7 102 -19 29 -66 34 -86 10z m70 -30 c14 -37 -4 -77 -33 -73 -17 2 -23 11 -25
36 -4 45 3 62 28 62 13 0 24 -10 30 -25z"/>
<path d="M499 2514 c-12 -15 -10 -16 18 -10 47 11 51 -10 9 -53 -48 -49 -46
-61 9 -61 25 0 45 5 45 10 0 6 -14 10 -32 10 l-32 0 32 33 c18 18 32 40 32 48
0 37 -56 53 -81 23z"/>
<path d="M620 2511 c-15 -29 -12 -87 6 -105 21 -21 57 -20 77 2 23 25 22 85
-1 105 -25 23 -69 22 -82 -2z m74 -17 c17 -43 -1 -84 -36 -84 -21 0 -33 38
-24 75 7 29 50 35 60 9z"/>
<path d="M760 2515 c-16 -20 -16 -90 0 -110 15 -19 64 -20 79 -2 21 26 24 75
7 102 -19 29 -66 34 -86 10z m70 -30 c14 -37 -4 -77 -33 -73 -17 2 -23 11 -25
36 -4 45 3 62 28 62 13 0 24 -10 30 -25z"/>
<path d="M550 1980 c0 -5 7 -10 15 -10 12 0 15 -13 15 -60 0 -33 4 -60 10 -60
6 0 10 30 10 70 0 68 -1 70 -25 70 -14 0 -25 -4 -25 -10z"/>
<path d="M632 1953 c3 -34 6 -37 33 -38 23 0 30 -5 30 -20 0 -16 -6 -20 -33
-18 -40 1 -39 -20 2 -25 33 -4 56 13 56 42 0 29 -18 46 -48 46 -32 0 -23 24
11 28 42 5 32 22 -14 22 l-40 0 3 -37z"/>
<path d="M760 1975 c-16 -20 -16 -90 0 -110 15 -19 64 -20 79 -2 21 26 24 75
7 102 -19 29 -66 34 -86 10z m70 -30 c14 -37 -4 -77 -33 -73 -17 2 -23 11 -25
36 -4 45 3 62 28 62 13 0 24 -10 30 -25z"/>
<path d="M520 1430 c0 -5 7 -10 15 -10 12 0 15 -13 15 -60 0 -33 4 -60 10 -60
6 0 10 30 10 70 0 68 -1 70 -25 70 -14 0 -25 -4 -25 -10z"/>
<path d="M620 1421 c-15 -29 -12 -87 6 -105 21 -21 57 -20 77 2 23 25 22 85
-1 105 -25 23 -69 22 -82 -2z m74 -17 c17 -43 -1 -84 -36 -84 -21 0 -33 38
-24 75 7 29 50 35 60 9z"/>
<path d="M760 1425 c-16 -20 -16 -90 0 -110 15 -19 64 -20 79 -2 21 26 24 75
7 102 -19 29 -66 34 -86 10z m70 -30 c14 -37 -4 -77 -33 -73 -17 2 -23 11 -25
36 -4 45 3 62 28 62 13 0 24 -10 30 -25z"/>
<path d="M632 863 c3 -34 6 -37 33 -38 23 0 30 -5 30 -20 0 -16 -6 -20 -33
-18 -40 1 -39 -20 2 -25 33 -4 56 13 56 42 0 29 -18 46 -48 46 -32 0 -23 24
11 28 42 5 32 22 -14 22 l-40 0 3 -37z"/>
<path d="M760 885 c-16 -20 -16 -90 0 -110 15 -19 64 -20 79 -2 21 26 24 75 7
102 -19 29 -66 34 -86 10z m70 -30 c14 -37 -4 -77 -33 -73 -17 2 -23 11 -25
36 -4 45 3 62 28 62 13 0 24 -10 30 -25z"/>
<path d="M760 475 c-16 -20 -16 -90 0 -110 15 -19 64 -20 79 -2 21 26 24 75 7
102 -19 29 -66 34 -86 10z m70 -30 c14 -37 -4 -77 -33 -73 -17 2 -23 11 -25
36 -4 45 3 62 28 62 13 0 24 -10 30 -25z"/>
<path d="M8442 211 c2 -7 7 -12 11 -12 12 1 9 15 -3 20 -7 2 -11 -2 -8 -8z"/>
<path d="M3200 140 c0 -40 4 -70 10 -70 6 0 10 20 10 45 0 25 4 45 8 45 5 0
23 -20 42 -45 48 -65 60 -60 60 25 0 81 -18 95 -22 18 l-3 -53 -40 53 c-54 71
-65 68 -65 -18z"/>
<path d="M8160 190 c-63 -63 31 -158 101 -102 28 23 30 73 4 102 -24 26 -79
26 -105 0z m88 -12 c7 -7 12 -24 12 -38 0 -32 -17 -50 -46 -50 -23 0 -54 33
-54 57 0 34 62 57 88 31z"/>
<path d="M3382 164 c-41 -28 -19 -94 32 -94 28 0 56 29 56 58 0 20 -33 52 -55
52 -6 0 -21 -7 -33 -16z m59 -20 c17 -21 0 -49 -32 -49 -27 0 -37 28 -19 50
16 19 34 19 51 -1z"/>
<path d="M3500 123 c0 -63 18 -71 22 -10 2 34 7 42 23 42 16 0 21 -8 23 -42 4
-57 22 -55 22 1 0 50 -10 61 -57 61 l-33 0 0 -52z"/>
<path d="M8318 174 c-13 -12 -9 -81 5 -92 6 -6 29 -10 50 -9 l37 1 0 53 c0 63
-18 71 -22 11 -2 -36 -7 -44 -25 -46 -23 -3 -28 7 -35 66 -2 13 -6 20 -10 16z"/>
<path d="M8447 173 c-11 -10 -8 -103 3 -103 6 0 10 25 10 55 0 56 -1 60 -13
48z"/>
</g>
</svg>
