<?xml version="1.0" standalone="no"?>
<!DOCTYPE svg PUBLIC "-//W3C//DTD SVG 20010904//EN"
 "http://www.w3.org/TR/2001/REC-SVG-20010904/DTD/svg10.dtd">
<svg version="1.0" xmlns="http://www.w3.org/2000/svg"
 width="1076.000000pt" height="917.000000pt" viewBox="0 0 1076.000000 917.000000"
 preserveAspectRatio="xMidYMid meet">

<g transform="translate(0.000000,917.000000) scale(0.100000,-0.100000)"
fill="#000000" stroke="none">
<path d="M9781 3368 c1 -40 4 -61 6 -45 6 36 44 38 63 2 7 -14 15 -23 17 -21
3 2 -1 13 -9 25 -10 16 -10 23 0 33 21 21 14 58 -14 68 -58 23 -64 17 -63 -62z
m79 28 c0 -24 -16 -36 -51 -36 -14 0 -19 7 -19 30 0 28 3 30 35 30 30 0 35 -3
35 -24z"/>
<path d="M10380 3420 c-6 -72 7 -120 34 -120 6 0 3 5 -6 11 -12 6 -18 22 -18
44 0 24 5 35 18 38 15 4 15 5 0 6 -9 0 -19 11 -21 24 -4 21 -4 21 -7 -3z"/>
<path d="M9948 3393 c6 -2 18 -2 25 0 6 3 1 5 -13 5 -14 0 -19 -2 -12 -5z"/>
<path d="M10043 3393 c9 -2 23 -2 30 0 6 3 -1 5 -18 5 -16 0 -22 -2 -12 -5z"/>
<path d="M10223 3393 c9 -2 25 -2 35 0 9 3 1 5 -18 5 -19 0 -27 -2 -17 -5z"/>
<path d="M10323 3350 c0 -30 2 -43 4 -27 2 15 2 39 0 55 -2 15 -4 2 -4 -28z"/>
<path d="M10480 3396 c0 -2 13 -6 29 -8 17 -2 28 -1 25 4 -5 8 -54 12 -54 4z"/>
<path d="M10270 3370 c0 -5 -13 -10 -29 -10 -17 0 -32 -4 -35 -8 -2 -4 10 -6
29 -4 30 4 34 1 38 -24 3 -22 4 -18 6 14 0 23 -1 42 -4 42 -3 0 -5 -4 -5 -10z"/>
<path d="M9910 3355 c0 -6 18 -9 48 -6 51 4 48 7 -10 13 -23 2 -38 0 -38 -7z"/>
<path d="M10450 3352 c0 -4 17 -6 38 -4 58 5 62 10 10 11 -27 1 -48 -3 -48 -7z"/>
<path d="M10050 3321 c0 -5 7 -12 16 -15 14 -5 15 -4 4 9 -14 17 -20 19 -20 6z"/>
<path d="M10200 3321 c0 -9 30 -24 36 -18 2 1 -6 8 -16 15 -11 7 -20 8 -20 3z"/>
<path d="M10474 3316 c11 -9 24 -16 30 -16 12 0 7 5 -24 19 -24 11 -24 11 -6
-3z"/>
<path d="M9770 3190 c0 -5 11 -10 25 -10 14 0 28 0 32 -1 4 0 9 4 11 10 2 7
-11 11 -32 11 -20 0 -36 -4 -36 -10z"/>
<path d="M9912 3191 c-9 -5 -4 -8 16 -7 17 1 28 4 25 9 -6 9 -25 9 -41 -2z"/>
<path d="M9796 3141 c-3 -5 5 -11 19 -13 30 -6 32 -2 6 12 -11 6 -22 6 -25 1z"/>
<path d="M9919 3139 c-10 -6 -7 -9 13 -9 14 0 29 -6 31 -12 4 -10 6 -10 6 -1
1 18 -32 33 -50 22z"/>
<path d="M9881 3133 c0 -4 4 -17 9 -28 8 -19 9 -19 9 2 1 12 -3 25 -9 28 -5 3
-10 3 -9 -2z"/>
<path d="M9930 3081 c-28 -5 -31 -8 -17 -14 17 -6 57 7 57 18 0 3 -1 4 -2 4
-2 -1 -19 -4 -38 -8z"/>
<path d="M9788 3068 c17 -8 26 -8 34 0 9 9 4 12 -22 11 -33 0 -34 -1 -12 -11z"/>
<path d="M6270 900 l0 -70 40 0 c22 0 40 5 40 10 0 6 -16 10 -35 10 -28 0 -35
4 -35 20 0 16 7 20 30 20 17 0 30 5 30 10 0 6 -13 10 -30 10 -23 0 -30 4 -30
20 0 16 7 20 35 20 19 0 35 5 35 10 0 6 -18 10 -40 10 l-40 0 0 -70z"/>
<path d="M7343 900 c0 -41 2 -58 4 -37 2 20 2 54 0 75 -2 20 -4 3 -4 -38z"/>
<path d="M7729 943 c-2 -73 -1 -104 5 -110 3 -4 6 26 6 65 0 40 -2 72 -5 72
-3 0 -5 -12 -6 -27z"/>
<path d="M7782 945 c0 -16 2 -22 5 -12 2 9 2 23 0 30 -3 6 -5 -1 -5 -18z"/>
<path d="M8293 900 c0 -41 2 -58 4 -37 2 20 2 54 0 75 -2 20 -4 3 -4 -38z"/>
<path d="M6393 880 c0 -30 2 -43 4 -27 2 15 2 39 0 55 -2 15 -4 2 -4 -28z"/>
<path d="M6448 920 c18 -8 22 -18 23 -52 2 -32 3 -36 6 -14 7 47 -4 76 -30 75
l-22 0 23 -9z"/>
<path d="M6666 922 c-3 -5 8 -6 25 -4 16 2 29 6 29 8 0 8 -49 4 -54 -4z"/>
<path d="M6789 913 c-12 -16 -12 -17 1 -6 8 6 26 13 40 16 l25 4 -26 2 c-15 0
-33 -7 -40 -16z"/>
<path d="M6948 920 c18 -8 22 -18 23 -52 2 -32 3 -36 6 -14 7 47 -4 76 -30 75
l-22 0 23 -9z"/>
<path d="M7032 918 c-7 -7 -12 -23 -11 -37 0 -15 3 -20 6 -13 2 7 22 12 44 12
25 0 39 5 39 13 0 19 -21 37 -45 37 -12 0 -26 -5 -33 -12z m66 -15 c2 -9 -8
-13 -32 -13 -34 0 -44 8 -29 24 11 11 56 2 61 -11z"/>
<path d="M7153 880 c0 -30 2 -43 4 -27 2 15 2 39 0 55 -2 15 -4 2 -4 -28z"/>
<path d="M7263 923 c9 -2 23 -2 30 0 6 3 -1 5 -18 5 -16 0 -22 -2 -12 -5z"/>
<path d="M7398 920 c18 -8 22 -18 23 -52 2 -32 3 -36 6 -14 7 47 -4 76 -30 75
l-22 0 23 -9z"/>
<path d="M7490 926 c0 -2 13 -6 29 -8 17 -2 28 -1 25 4 -5 8 -54 12 -54 4z"/>
<path d="M7659 913 c-12 -16 -12 -17 1 -7 8 7 24 14 35 17 19 4 19 5 -1 6 -12
0 -28 -7 -35 -16z"/>
<path d="M7850 926 c0 -2 13 -6 29 -8 17 -2 28 -1 25 4 -5 8 -54 12 -54 4z"/>
<path d="M7953 880 c0 -30 2 -43 4 -27 2 15 2 39 0 55 -2 15 -4 2 -4 -28z"/>
<path d="M8000 923 c8 -3 22 -11 30 -17 13 -10 13 -9 1 7 -7 9 -21 17 -30 16
-13 0 -14 -1 -1 -6z"/>
<path d="M8077 924 c18 -4 23 -14 26 -52 l4 -47 -1 50 c-1 46 -3 50 -26 52
-21 1 -21 1 -3 -3z"/>
<path d="M8210 921 c35 -9 39 -53 8 -75 -12 -9 -18 -16 -12 -16 17 0 44 35 44
56 0 26 -19 44 -44 43 -18 -1 -17 -2 4 -8z"/>
<path d="M8356 922 c-3 -5 8 -6 25 -4 16 2 29 6 29 8 0 8 -49 4 -54 -4z"/>
<path d="M8161 904 c0 -11 3 -14 6 -6 3 7 2 16 -1 19 -3 4 -6 -2 -5 -13z"/>
<path d="M6730 899 c0 -7 -15 -10 -40 -7 -32 3 -40 0 -40 -13 0 -9 8 -23 18
-30 14 -11 15 -11 5 1 -21 23 -15 30 27 30 29 0 40 4 40 15 0 8 -2 15 -5 15
-3 0 -5 -5 -5 -11z"/>
<path d="M7221 884 c0 -11 3 -14 6 -6 3 7 2 16 -1 19 -3 4 -6 -2 -5 -13z"/>
<path d="M7510 890 l-45 -7 48 -1 c26 -1 47 3 47 8 0 6 -1 9 -2 8 -2 0 -23 -4
-48 -8z"/>
<path d="M7870 890 l-45 -7 48 -1 c26 -1 47 3 47 8 0 6 -1 9 -2 8 -2 0 -23 -4
-48 -8z"/>
<path d="M8341 883 c-2 -32 40 -58 68 -43 12 6 21 13 21 16 0 2 -9 0 -20 -6
-26 -14 -57 2 -63 32 l-4 23 -2 -22z"/>
<path d="M8431 884 c0 -11 3 -14 6 -6 3 7 2 16 -1 19 -3 4 -6 -2 -5 -13z"/>
<path d="M6794 846 c11 -9 24 -16 30 -16 12 0 7 5 -24 19 -24 11 -24 11 -6 -3z"/>
<path d="M7230 856 c0 -3 9 -10 20 -16 15 -8 25 -8 38 0 16 11 16 11 -1 6 -10
-3 -27 -1 -38 4 -10 6 -19 8 -19 6z"/>
<path d="M7484 846 c23 -18 42 -20 51 -6 3 5 0 7 -9 4 -8 -3 -25 0 -38 6 -22
11 -22 10 -4 -4z"/>
<path d="M7664 846 c11 -9 24 -16 30 -16 12 0 7 5 -24 19 -24 11 -24 11 -6 -3z"/>
<path d="M7844 846 c23 -18 42 -20 51 -6 3 5 0 7 -9 4 -8 -3 -25 0 -38 6 -22
11 -22 10 -4 -4z"/>
<path d="M7048 838 c5 -5 16 -8 23 -6 8 3 3 7 -10 11 -17 4 -21 3 -13 -5z"/>
<path d="M6260 720 c0 -5 11 -10 25 -10 14 0 28 0 32 -1 4 0 9 4 11 10 2 7
-11 11 -32 11 -20 0 -36 -4 -36 -10z"/>
<path d="M6402 721 c-9 -5 -4 -8 16 -7 17 1 28 4 25 9 -6 9 -25 9 -41 -2z"/>
<path d="M6286 671 c-3 -5 5 -11 19 -13 30 -6 32 -2 6 12 -11 6 -22 6 -25 1z"/>
<path d="M6409 669 c-10 -6 -7 -9 13 -9 14 0 29 -6 31 -12 4 -10 6 -10 6 -1 1
18 -32 33 -50 22z"/>
<path d="M6371 663 c0 -4 4 -17 9 -28 8 -19 9 -19 9 2 1 12 -3 25 -9 28 -5 3
-10 3 -9 -2z"/>
<path d="M6420 611 c-28 -5 -31 -8 -17 -14 17 -6 57 7 57 18 0 3 -1 4 -2 4 -2
-1 -19 -4 -38 -8z"/>
<path d="M6278 598 c17 -8 26 -8 34 0 9 9 4 12 -22 11 -33 0 -34 -1 -12 -11z"/>
</g>
</svg>
