<?xml version="1.0" encoding="UTF-8" standalone="no"?>
<svg width="257.175mm" height="131.762mm"
 xmlns="http://www.w3.org/2000/svg" xmlns:xlink="http://www.w3.org/1999/xlink"  version="1.2" baseProfile="tiny">
<title>VF_barplot_fiabilite_svg</title>
<desc>Rendered by Tableau</desc>
<defs>
</defs>
<g fill="none" stroke="black" stroke-width="1" fill-rule="evenodd" stroke-linecap="square" stroke-linejoin="bevel" >

<g >
<g fill="#f9f9f0" fill-opacity="1" stroke="none" transform="matrix(1,0,0,1,0,0)"
font-family="Benton Sans Book" font-size="13.3333" font-weight="400" font-style="normal" 
>
<rect x="0" y="0" width="972" height="498"/>
</g>
</g>

<g >
<g fill="#f9f9f0" fill-opacity="1" stroke="none" transform="matrix(1,0,0,1,0,0)"
font-family="Benton Sans Book" font-size="13.3333" font-weight="400" font-style="normal" 
>
<rect x="0" y="0" width="972" height="498"/>
</g>
</g>

<clipPath id ="clip1" >
<rect x="0" y="0" height="499" width="973" transform="matrix(1,0,0,1,0,0)" />
</clipPath>
<g  clip-path="url(#clip1)" 
>
<g fill="none" stroke="#000000" stroke-opacity="1" stroke-width="1" stroke-linecap="square" stroke-linejoin="bevel" transform="matrix(1,0,0,1,0,0)"
font-family="Benton Sans Book" font-size="13.3333" font-weight="400" font-style="normal" 
>
</g>
</g>

<clipPath id ="clip2" >
<rect x="0" y="0" height="499" width="973" transform="matrix(1,0,0,1,0,0)" />
</clipPath>
<g  clip-path="url(#clip2)" 
>
<g fill="none" stroke="#000000" stroke-opacity="1" stroke-width="1" stroke-linecap="square" stroke-linejoin="bevel" transform="matrix(1,0,0,1,0,0)"
font-family="Benton Sans Book" font-size="13.3333" font-weight="400" font-style="normal" 
>
</g>
</g>

<g  clip-path="url(#clip2)" 
>
<g fill="#f9f9f0" fill-opacity="1" stroke="none" transform="matrix(1,0,0,1,0,0)"
font-family="Benton Sans Book" font-size="13.3333" font-weight="400" font-style="normal" 
>
<rect x="0" y="0" width="973" height="499"/>
</g>
</g>

<g  clip-path="url(#clip2)" 
>
<g fill="#f9f9f0" fill-opacity="1" stroke="none" transform="matrix(1,0,0,1,0,0)"
font-family="Benton Sans Book" font-size="13.3333" font-weight="400" font-style="normal" 
>
<rect x="0" y="0" width="973" height="499"/>
</g>
</g>

<clipPath id ="clip3" >
<rect x="0" y="0" height="498" width="972" transform="matrix(1,0,0,1,0,0)" />
</clipPath>
<g  clip-path="url(#clip3)" 
>
<g fill="none" stroke="#000000" stroke-opacity="1" stroke-width="1" stroke-linecap="square" stroke-linejoin="bevel" transform="matrix(1,0,0,1,0,0)"
font-family="Benton Sans Book" font-size="13.3333" font-weight="400" font-style="normal" 
>
</g>
</g>

<g  clip-path="url(#clip3)" 
>
<g fill="#f9f9f0" fill-opacity="1" stroke="none" transform="matrix(1,0,0,1,0,0)"
font-family="Benton Sans Book" font-size="13.3333" font-weight="400" font-style="normal" 
>
<rect x="0" y="0" width="973" height="499"/>
</g>
</g>

<clipPath id ="clip4" >
<rect x="0" y="0" height="499" width="973" transform="matrix(1,0,0,1,0,0)" />
</clipPath>
<g  clip-path="url(#clip4)" 
>
<g fill="none" stroke="#000000" stroke-opacity="1" stroke-width="1" stroke-linecap="square" stroke-linejoin="bevel" transform="matrix(1,0,0,1,0,0)"
font-family="Benton Sans Book" font-size="13.3333" font-weight="400" font-style="normal" 
>
</g>
</g>

<clipPath id ="clip5" >
<rect x="0" y="0" height="499" width="973" transform="matrix(1,0,0,1,0,0)" />
</clipPath>
<g  clip-path="url(#clip5)" 
>
<g fill="none" stroke="#000000" stroke-opacity="1" stroke-width="1" stroke-linecap="square" stroke-linejoin="bevel" transform="matrix(1,0,0,1,0,0)"
font-family="Benton Sans Book" font-size="13.3333" font-weight="400" font-style="normal" 
>
</g>
</g>

<clipPath id ="clip6" >
<rect x="0" y="0" height="499" width="973" transform="matrix(1,0,0,1,0,0)" />
</clipPath>
<g  clip-path="url(#clip6)" 
>
<g fill="none" stroke="#000000" stroke-opacity="1" stroke-width="1" stroke-linecap="square" stroke-linejoin="bevel" transform="matrix(1,0,0,1,0,0)"
font-family="Benton Sans Book" font-size="13.3333" font-weight="400" font-style="normal" 
>
</g>
</g>

<clipPath id ="clip7" >
<rect x="0" y="0" height="499" width="973" transform="matrix(1,0,0,1,0,0)" />
</clipPath>
<g  clip-path="url(#clip7)" 
>
<g fill="none" stroke="#000000" stroke-opacity="1" stroke-width="1" stroke-linecap="square" stroke-linejoin="bevel" transform="matrix(1,0,0,1,0,0)"
font-family="Benton Sans Book" font-size="13.3333" font-weight="400" font-style="normal" 
>
</g>
</g>

<g  clip-path="url(#clip7)" 
>
<g fill="#f9f9f0" fill-opacity="1" stroke="none" transform="matrix(1,0,0,1,0,0)"
font-family="Benton Sans Book" font-size="13.3333" font-weight="400" font-style="normal" 
>
<rect x="0" y="0" width="973" height="499"/>
</g>
</g>

<clipPath id ="clip8" >
<rect x="0" y="0" height="499" width="973" transform="matrix(1,0,0,1,0,0)" />
</clipPath>
<g  clip-path="url(#clip8)" 
>
<g fill="none" stroke="#000000" stroke-opacity="1" stroke-width="1" stroke-linecap="square" stroke-linejoin="bevel" transform="matrix(1,0,0,1,0,0)"
font-family="Benton Sans Book" font-size="13.3333" font-weight="400" font-style="normal" 
>
</g>
</g>

<clipPath id ="clip9" >
<rect x="0" y="0" height="498" width="972" transform="matrix(1,0,0,1,0,0)" />
</clipPath>
<g  clip-path="url(#clip9)" 
>
<g fill="none" stroke="#000000" stroke-opacity="1" stroke-width="1" stroke-linecap="square" stroke-linejoin="bevel" transform="matrix(1,0,0,1,0,0)"
font-family="Benton Sans Book" font-size="13.3333" font-weight="400" font-style="normal" 
>
</g>
</g>

<clipPath id ="clip10" >
<rect x="0" y="0" height="499" width="973" transform="matrix(1,0,0,1,0,0)" />
</clipPath>
<g  clip-path="url(#clip10)" 
>
<g fill="none" stroke="#000000" stroke-opacity="1" stroke-width="1" stroke-linecap="square" stroke-linejoin="bevel" transform="matrix(1,0,0,1,0,0)"
font-family="Benton Sans Book" font-size="13.3333" font-weight="400" font-style="normal" 
>
</g>
</g>

<clipPath id ="clip11" >
<rect x="0" y="0" height="498" width="972" transform="matrix(1,0,0,1,0,0)" />
</clipPath>
<g  clip-path="url(#clip11)" 
>
<g fill="none" stroke="#000000" stroke-opacity="1" stroke-width="1" stroke-linecap="square" stroke-linejoin="bevel" transform="matrix(1,0,0,1,0,0)"
font-family="Benton Sans Book" font-size="13.3333" font-weight="400" font-style="normal" 
>
</g>
</g>

<clipPath id ="clip12" >
<rect x="0" y="0" height="499" width="973" transform="matrix(1,0,0,1,0,0)" />
</clipPath>
<g  clip-path="url(#clip12)" 
>
<g fill="none" stroke="#000000" stroke-opacity="1" stroke-width="1" stroke-linecap="square" stroke-linejoin="bevel" transform="matrix(1,0,0,1,0,0)"
font-family="Benton Sans Book" font-size="13.3333" font-weight="400" font-style="normal" 
>
</g>
</g>

<clipPath id ="clip13" >
<rect x="0" y="0" height="499" width="973" transform="matrix(1,0,0,1,0,0)" />
</clipPath>
<g  clip-path="url(#clip13)" 
>
<g fill="none" stroke="#000000" stroke-opacity="1" stroke-width="1" stroke-linecap="square" stroke-linejoin="bevel" transform="matrix(1,0,0,1,0,0)"
font-family="Benton Sans Book" font-size="13.3333" font-weight="400" font-style="normal" 
>
</g>
</g>

<clipPath id ="clip14" >
<rect x="0" y="0" height="498" width="972" transform="matrix(1,0,0,1,0,0)" />
</clipPath>
<g  clip-path="url(#clip14)" 
>
<g fill="none" stroke="#000000" stroke-opacity="1" stroke-width="1" stroke-linecap="square" stroke-linejoin="bevel" transform="matrix(1,0,0,1,0,0)"
font-family="Benton Sans Book" font-size="13.3333" font-weight="400" font-style="normal" 
>
</g>
</g>

<g  clip-path="url(#clip14)" 
>
<g fill="#d5d1ec" fill-opacity="1" stroke="none" transform="matrix(1,0,0,1,0,0)"
font-family="Benton Sans Book" font-size="13.3333" font-weight="400" font-style="normal" 
>
<rect x="0" y="424" width="79" height="48"/>
</g>
</g>

<g  clip-path="url(#clip14)" 
>
<g fill="none" stroke="#ffffff" stroke-opacity="1" stroke-width="1" stroke-linecap="butt" stroke-linejoin="miter" stroke-miterlimit="2" transform="matrix(1,0,0,1,0,0)"
font-family="Benton Sans Book" font-size="13.3333" font-weight="400" font-style="normal" 
>
<rect x="0" y="424" width="79" height="48"/>
</g>
</g>

<g  clip-path="url(#clip14)" 
>
<g fill="#c0e6ff" fill-opacity="1" stroke="none" transform="matrix(1,0,0,1,0,0)"
font-family="Benton Sans Book" font-size="13.3333" font-weight="400" font-style="normal" 
>
<rect x="0" y="325" width="91" height="48"/>
</g>
</g>

<g  clip-path="url(#clip14)" 
>
<g fill="none" stroke="#ffffff" stroke-opacity="1" stroke-width="1" stroke-linecap="butt" stroke-linejoin="miter" stroke-miterlimit="2" transform="matrix(1,0,0,1,0,0)"
font-family="Benton Sans Book" font-size="13.3333" font-weight="400" font-style="normal" 
>
<rect x="0" y="325" width="91" height="48"/>
</g>
</g>

<g  clip-path="url(#clip14)" 
>
<g fill="#fbdfc5" fill-opacity="1" stroke="none" transform="matrix(1,0,0,1,0,0)"
font-family="Benton Sans Book" font-size="13.3333" font-weight="400" font-style="normal" 
>
<rect x="0" y="225" width="120" height="48"/>
</g>
</g>

<g  clip-path="url(#clip14)" 
>
<g fill="none" stroke="#ffffff" stroke-opacity="1" stroke-width="1" stroke-linecap="butt" stroke-linejoin="miter" stroke-miterlimit="2" transform="matrix(1,0,0,1,0,0)"
font-family="Benton Sans Book" font-size="13.3333" font-weight="400" font-style="normal" 
>
<rect x="0" y="225" width="120" height="48"/>
</g>
</g>

<g  clip-path="url(#clip14)" 
>
<g fill="#f9dde9" fill-opacity="1" stroke="none" transform="matrix(1,0,0,1,0,0)"
font-family="Benton Sans Book" font-size="13.3333" font-weight="400" font-style="normal" 
>
<rect x="0" y="125" width="272" height="48"/>
</g>
</g>

<g  clip-path="url(#clip14)" 
>
<g fill="none" stroke="#ffffff" stroke-opacity="1" stroke-width="1" stroke-linecap="butt" stroke-linejoin="miter" stroke-miterlimit="2" transform="matrix(1,0,0,1,0,0)"
font-family="Benton Sans Book" font-size="13.3333" font-weight="400" font-style="normal" 
>
<rect x="0" y="125" width="272" height="48"/>
</g>
</g>

<g  clip-path="url(#clip14)" 
>
<g fill="#e5c0c0" fill-opacity="1" stroke="none" transform="matrix(1,0,0,1,0,0)"
font-family="Benton Sans Book" font-size="13.3333" font-weight="400" font-style="normal" 
>
<rect x="0" y="26" width="744" height="48"/>
</g>
</g>

<g  clip-path="url(#clip14)" 
>
<g fill="none" stroke="#ffffff" stroke-opacity="1" stroke-width="1" stroke-linecap="butt" stroke-linejoin="miter" stroke-miterlimit="2" transform="matrix(1,0,0,1,0,0)"
font-family="Benton Sans Book" font-size="13.3333" font-weight="400" font-style="normal" 
>
<rect x="0" y="26" width="744" height="48"/>
</g>
</g>

<clipPath id ="clip15" >
<rect x="0" y="0" height="499" width="973" transform="matrix(1,0,0,1,0,0)" />
</clipPath>
<g  clip-path="url(#clip15)" 
>
<g fill="none" stroke="#ffffff" stroke-opacity="1" stroke-width="1" stroke-linecap="butt" stroke-linejoin="miter" stroke-miterlimit="2" transform="matrix(1,0,0,1,0,0)"
font-family="Benton Sans Book" font-size="13.3333" font-weight="400" font-style="normal" 
>
</g>
</g>

<clipPath id ="clip16" >
<rect x="0" y="0" height="498" width="972" transform="matrix(1,0,0,1,0,0)" />
</clipPath>
<g  clip-path="url(#clip16)" 
>
<g fill="none" stroke="#ffffff" stroke-opacity="1" stroke-width="1" stroke-linecap="butt" stroke-linejoin="miter" stroke-miterlimit="2" transform="matrix(1,0,0,1,0,0)"
font-family="Benton Sans Book" font-size="13.3333" font-weight="400" font-style="normal" 
>
</g>
</g>

<g  clip-path="url(#clip16)" 
>
<g fill="none" stroke="#555555" stroke-opacity="1" stroke-width="1" stroke-linecap="square" stroke-linejoin="bevel" transform="matrix(1,0,0,1,0,0)"
font-family="Montserrat Black" font-size="12" font-weight="400" font-style="normal" 
>
<text fill="#555555" fill-opacity="1" stroke="none" xml:space="preserve" x="95" y="345" font-family="Montserrat Black" font-size="12" font-weight="400" font-style="normal" 
 >  A prendre avec précaution</text>
</g>
</g>

<g  clip-path="url(#clip16)" 
>
<g fill="none" stroke="#555555" stroke-opacity="1" stroke-width="1" stroke-linecap="square" stroke-linejoin="bevel" transform="matrix(1,0,0,1,0,0)"
font-family="Montserrat ExtraBold" font-size="12" font-weight="400" font-style="normal" 
>
<text fill="#555555" fill-opacity="1" stroke="none" xml:space="preserve" x="172" y="360" font-family="Montserrat ExtraBold" font-size="12" font-weight="400" font-style="normal" 
 >  7%</text>
</g>
</g>

<g  clip-path="url(#clip16)" 
>
<g fill="none" stroke="#555555" stroke-opacity="1" stroke-width="1" stroke-linecap="square" stroke-linejoin="bevel" transform="matrix(1,0,0,1,0,0)"
font-family="Montserrat Black" font-size="12" font-weight="400" font-style="normal" 
>
<text fill="#555555" fill-opacity="1" stroke="none" xml:space="preserve" x="83" y="444" font-family="Montserrat Black" font-size="12" font-weight="400" font-style="normal" 
 >  A prendre avec méfiance</text>
</g>
</g>

<g  clip-path="url(#clip16)" 
>
<g fill="none" stroke="#555555" stroke-opacity="1" stroke-width="1" stroke-linecap="square" stroke-linejoin="bevel" transform="matrix(1,0,0,1,0,0)"
font-family="Montserrat ExtraBold" font-size="12" font-weight="400" font-style="normal" 
>
<text fill="#555555" fill-opacity="1" stroke="none" xml:space="preserve" x="155" y="459" font-family="Montserrat ExtraBold" font-size="12" font-weight="400" font-style="normal" 
 >  6%</text>
</g>
</g>

<g  clip-path="url(#clip16)" 
>
<g fill="none" stroke="#555555" stroke-opacity="1" stroke-width="1" stroke-linecap="square" stroke-linejoin="bevel" transform="matrix(1,0,0,1,0,0)"
font-family="Montserrat Black" font-size="12" font-weight="400" font-style="normal" 
>
<text fill="#555555" fill-opacity="1" stroke="none" xml:space="preserve" x="124" y="245" font-family="Montserrat Black" font-size="12" font-weight="400" font-style="normal" 
 >  Pas toujours fiables</text>
</g>
</g>

<g  clip-path="url(#clip16)" 
>
<g fill="none" stroke="#555555" stroke-opacity="1" stroke-width="1" stroke-linecap="square" stroke-linejoin="bevel" transform="matrix(1,0,0,1,0,0)"
font-family="Montserrat ExtraBold" font-size="12" font-weight="400" font-style="normal" 
>
<text fill="#555555" fill-opacity="1" stroke="none" xml:space="preserve" x="179" y="260" font-family="Montserrat ExtraBold" font-size="12" font-weight="400" font-style="normal" 
 >  9%</text>
</g>
</g>

<g  clip-path="url(#clip16)" 
>
<g fill="none" stroke="#555555" stroke-opacity="1" stroke-width="1" stroke-linecap="square" stroke-linejoin="bevel" transform="matrix(1,0,0,1,0,0)"
font-family="Montserrat Black" font-size="12" font-weight="400" font-style="normal" 
>
<text fill="#555555" fill-opacity="1" stroke="none" xml:space="preserve" x="276" y="145" font-family="Montserrat Black" font-size="12" font-weight="400" font-style="normal" 
 >  Tout à fait fiables</text>
</g>
</g>

<g  clip-path="url(#clip16)" 
>
<g fill="none" stroke="#555555" stroke-opacity="1" stroke-width="1" stroke-linecap="square" stroke-linejoin="bevel" transform="matrix(1,0,0,1,0,0)"
font-family="Montserrat ExtraBold" font-size="12" font-weight="400" font-style="normal" 
>
<text fill="#555555" fill-opacity="1" stroke="none" xml:space="preserve" x="321" y="160" font-family="Montserrat ExtraBold" font-size="12" font-weight="400" font-style="normal" 
 >  21%</text>
</g>
</g>

<g  clip-path="url(#clip16)" 
>
<g fill="none" stroke="#555555" stroke-opacity="1" stroke-width="1" stroke-linecap="square" stroke-linejoin="bevel" transform="matrix(1,0,0,1,0,0)"
font-family="Montserrat Black" font-size="12" font-weight="400" font-style="normal" 
>
<text fill="#555555" fill-opacity="1" stroke="none" xml:space="preserve" x="748" y="46" font-family="Montserrat Black" font-size="12" font-weight="400" font-style="normal" 
 >  Plutôt fiables</text>
</g>
</g>

<g  clip-path="url(#clip16)" 
>
<g fill="none" stroke="#555555" stroke-opacity="1" stroke-width="1" stroke-linecap="square" stroke-linejoin="bevel" transform="matrix(1,0,0,1,0,0)"
font-family="Montserrat ExtraBold" font-size="12" font-weight="400" font-style="normal" 
>
<text fill="#555555" fill-opacity="1" stroke="none" xml:space="preserve" x="779" y="61" font-family="Montserrat ExtraBold" font-size="12" font-weight="400" font-style="normal" 
 >  57%</text>
</g>
</g>

<clipPath id ="clip17" >
<rect x="0" y="0" height="499" width="973" transform="matrix(1,0,0,1,0,0)" />
</clipPath>
<g  clip-path="url(#clip17)" 
>
<g fill="none" stroke="#555555" stroke-opacity="1" stroke-width="1" stroke-linecap="square" stroke-linejoin="bevel" transform="matrix(1,0,0,1,0,0)"
font-family="Montserrat ExtraBold" font-size="12" font-weight="400" font-style="normal" 
>
</g>
</g>

<clipPath id ="clip18" >
<rect x="0" y="0" height="499" width="973" transform="matrix(1,0,0,1,0,0)" />
</clipPath>
<g  clip-path="url(#clip18)" 
>
<g fill="none" stroke="#555555" stroke-opacity="1" stroke-width="1" stroke-linecap="square" stroke-linejoin="bevel" transform="matrix(1,0,0,1,0,0)"
font-family="Montserrat ExtraBold" font-size="12" font-weight="400" font-style="normal" 
>
</g>
</g>

<clipPath id ="clip19" >
<rect x="0" y="0" height="498" width="972" transform="matrix(1,0,0,1,0,0)" />
</clipPath>
<g  clip-path="url(#clip19)" 
>
<g fill="none" stroke="#555555" stroke-opacity="1" stroke-width="1" stroke-linecap="square" stroke-linejoin="bevel" transform="matrix(1,0,0,1,0,0)"
font-family="Montserrat ExtraBold" font-size="12" font-weight="400" font-style="normal" 
>
</g>
</g>

<clipPath id ="clip20" >
<rect x="0" y="0" height="499" width="973" transform="matrix(1,0,0,1,0,0)" />
</clipPath>
<g  clip-path="url(#clip20)" 
>
<g fill="none" stroke="#555555" stroke-opacity="1" stroke-width="1" stroke-linecap="square" stroke-linejoin="bevel" transform="matrix(1,0,0,1,0,0)"
font-family="Montserrat ExtraBold" font-size="12" font-weight="400" font-style="normal" 
>
</g>
</g>

<clipPath id ="clip21" >
<rect x="0" y="0" height="498" width="972" transform="matrix(1,0,0,1,0,0)" />
</clipPath>
<g  clip-path="url(#clip21)" 
>
<g fill="none" stroke="#555555" stroke-opacity="1" stroke-width="1" stroke-linecap="square" stroke-linejoin="bevel" transform="matrix(1,0,0,1,0,0)"
font-family="Montserrat ExtraBold" font-size="12" font-weight="400" font-style="normal" 
>
</g>
</g>

<clipPath id ="clip22" >
<rect x="0" y="0" height="499" width="973" transform="matrix(1,0,0,1,0,0)" />
</clipPath>
<g  clip-path="url(#clip22)" 
>
<g fill="none" stroke="#555555" stroke-opacity="1" stroke-width="1" stroke-linecap="square" stroke-linejoin="bevel" transform="matrix(1,0,0,1,0,0)"
font-family="Montserrat ExtraBold" font-size="12" font-weight="400" font-style="normal" 
>
</g>
</g>

<clipPath id ="clip23" >
<rect x="0" y="0" height="499" width="973" transform="matrix(1,0,0,1,0,0)" />
</clipPath>
<g  clip-path="url(#clip23)" 
>
<g fill="none" stroke="#555555" stroke-opacity="1" stroke-width="1" stroke-linecap="square" stroke-linejoin="bevel" transform="matrix(1,0,0,1,0,0)"
font-family="Montserrat ExtraBold" font-size="12" font-weight="400" font-style="normal" 
>
</g>
</g>

<clipPath id ="clip24" >
<rect x="0" y="0" height="498" width="972" transform="matrix(1,0,0,1,0,0)" />
</clipPath>
<g  clip-path="url(#clip24)" 
>
<g fill="none" stroke="#555555" stroke-opacity="1" stroke-width="1" stroke-linecap="square" stroke-linejoin="bevel" transform="matrix(1,0,0,1,0,0)"
font-family="Montserrat ExtraBold" font-size="12" font-weight="400" font-style="normal" 
>
</g>
</g>

<clipPath id ="clip25" >
<rect x="0" y="0" height="499" width="973" transform="matrix(1,0,0,1,0,0)" />
</clipPath>
<g  clip-path="url(#clip25)" 
>
<g fill="none" stroke="#555555" stroke-opacity="1" stroke-width="1" stroke-linecap="square" stroke-linejoin="bevel" transform="matrix(1,0,0,1,0,0)"
font-family="Montserrat ExtraBold" font-size="12" font-weight="400" font-style="normal" 
>
</g>
</g>

<clipPath id ="clip26" >
<rect x="0" y="0" height="498" width="972" transform="matrix(1,0,0,1,0,0)" />
</clipPath>
<g  clip-path="url(#clip26)" 
>
<g fill="none" stroke="#555555" stroke-opacity="1" stroke-width="1" stroke-linecap="square" stroke-linejoin="bevel" transform="matrix(1,0,0,1,0,0)"
font-family="Montserrat ExtraBold" font-size="12" font-weight="400" font-style="normal" 
>
</g>
</g>

<clipPath id ="clip27" >
<rect x="0" y="0" height="499" width="973" transform="matrix(1,0,0,1,0,0)" />
</clipPath>
<g  clip-path="url(#clip27)" 
>
<g fill="none" stroke="#555555" stroke-opacity="1" stroke-width="1" stroke-linecap="square" stroke-linejoin="bevel" transform="matrix(1,0,0,1,0,0)"
font-family="Montserrat ExtraBold" font-size="12" font-weight="400" font-style="normal" 
>
</g>
</g>

<clipPath id ="clip28" >
<rect x="0" y="0" height="499" width="973" transform="matrix(1,0,0,1,0,0)" />
</clipPath>
<g  clip-path="url(#clip28)" 
>
<g fill="none" stroke="#555555" stroke-opacity="1" stroke-width="1" stroke-linecap="square" stroke-linejoin="bevel" transform="matrix(1,0,0,1,0,0)"
font-family="Montserrat ExtraBold" font-size="12" font-weight="400" font-style="normal" 
>
</g>
</g>

<clipPath id ="clip29" >
<rect x="0" y="0" height="498" width="972" transform="matrix(1,0,0,1,0,0)" />
</clipPath>
<g  clip-path="url(#clip29)" 
>
<g fill="none" stroke="#555555" stroke-opacity="1" stroke-width="1" stroke-linecap="square" stroke-linejoin="bevel" transform="matrix(1,0,0,1,0,0)"
font-family="Montserrat ExtraBold" font-size="12" font-weight="400" font-style="normal" 
>
</g>
</g>

<clipPath id ="clip30" >
<rect x="0" y="0" height="499" width="973" transform="matrix(1,0,0,1,0,0)" />
</clipPath>
<g  clip-path="url(#clip30)" 
>
<g fill="none" stroke="#555555" stroke-opacity="1" stroke-width="1" stroke-linecap="square" stroke-linejoin="bevel" transform="matrix(1,0,0,1,0,0)"
font-family="Montserrat ExtraBold" font-size="12" font-weight="400" font-style="normal" 
>
</g>
</g>

<clipPath id ="clip31" >
<rect x="0" y="0" height="498" width="972" transform="matrix(1,0,0,1,0,0)" />
</clipPath>
<g  clip-path="url(#clip31)" 
>
<g fill="none" stroke="#555555" stroke-opacity="1" stroke-width="1" stroke-linecap="square" stroke-linejoin="bevel" transform="matrix(1,0,0,1,0,0)"
font-family="Montserrat ExtraBold" font-size="12" font-weight="400" font-style="normal" 
>
</g>
</g>

<clipPath id ="clip32" >
<rect x="0" y="0" height="499" width="973" transform="matrix(1,0,0,1,0,0)" />
</clipPath>
<g  clip-path="url(#clip32)" 
>
<g fill="none" stroke="#555555" stroke-opacity="1" stroke-width="1" stroke-linecap="square" stroke-linejoin="bevel" transform="matrix(1,0,0,1,0,0)"
font-family="Montserrat ExtraBold" font-size="12" font-weight="400" font-style="normal" 
>
</g>
</g>

<clipPath id ="clip33" >
<rect x="0" y="0" height="499" width="973" transform="matrix(1,0,0,1,0,0)" />
</clipPath>
<g  clip-path="url(#clip33)" 
>
<g fill="none" stroke="#555555" stroke-opacity="1" stroke-width="1" stroke-linecap="square" stroke-linejoin="bevel" transform="matrix(1,0,0,1,0,0)"
font-family="Montserrat ExtraBold" font-size="12" font-weight="400" font-style="normal" 
>
</g>
</g>

<clipPath id ="clip34" >
<rect x="0" y="0" height="498" width="972" transform="matrix(1,0,0,1,0,0)" />
</clipPath>
<g  clip-path="url(#clip34)" 
>
<g fill="none" stroke="#555555" stroke-opacity="1" stroke-width="1" stroke-linecap="square" stroke-linejoin="bevel" transform="matrix(1,0,0,1,0,0)"
font-family="Montserrat ExtraBold" font-size="12" font-weight="400" font-style="normal" 
>
</g>
</g>

<clipPath id ="clip35" >
<rect x="0" y="0" height="499" width="973" transform="matrix(1,0,0,1,0,0)" />
</clipPath>
<g  clip-path="url(#clip35)" 
>
<g fill="none" stroke="#555555" stroke-opacity="1" stroke-width="1" stroke-linecap="square" stroke-linejoin="bevel" transform="matrix(1,0,0,1,0,0)"
font-family="Montserrat ExtraBold" font-size="12" font-weight="400" font-style="normal" 
>
</g>
</g>

<clipPath id ="clip36" >
<rect x="0" y="0" height="498" width="972" transform="matrix(1,0,0,1,0,0)" />
</clipPath>
<g  clip-path="url(#clip36)" 
>
<g fill="none" stroke="#555555" stroke-opacity="1" stroke-width="1" stroke-linecap="square" stroke-linejoin="bevel" transform="matrix(1,0,0,1,0,0)"
font-family="Montserrat ExtraBold" font-size="12" font-weight="400" font-style="normal" 
>
</g>
</g>

<clipPath id ="clip37" >
<rect x="0" y="0" height="499" width="973" transform="matrix(1,0,0,1,0,0)" />
</clipPath>
<g  clip-path="url(#clip37)" 
>
<g fill="none" stroke="#555555" stroke-opacity="1" stroke-width="1" stroke-linecap="square" stroke-linejoin="bevel" transform="matrix(1,0,0,1,0,0)"
font-family="Montserrat ExtraBold" font-size="12" font-weight="400" font-style="normal" 
>
</g>
</g>

<g >
<g fill="none" stroke="#555555" stroke-opacity="1" stroke-width="1" stroke-linecap="square" stroke-linejoin="bevel" transform="matrix(1,0,0,1,0,0)"
font-family="Montserrat ExtraBold" font-size="12" font-weight="400" font-style="normal" 
>
</g>
</g>
</g>
</svg>
