<?xml version="1.0" encoding="UTF-8" standalone="no"?>
<svg width="211.931mm" height="211.931mm"
 xmlns="http://www.w3.org/2000/svg" xmlns:xlink="http://www.w3.org/1999/xlink"  version="1.2" baseProfile="tiny">
<title>VF_donutchart_fiabilite_jeunes_svg</title>
<desc>Rendered by Tableau</desc>
<defs>
</defs>
<g fill="none" stroke="black" stroke-width="1" fill-rule="evenodd" stroke-linecap="square" stroke-linejoin="bevel" >

<g >
<g fill="#f9f9f0" fill-opacity="1" stroke="none" transform="matrix(1,0,0,1,0,0)"
font-family="Benton Sans Book" font-size="13.3333" font-weight="400" font-style="normal" 
>
<rect x="0" y="0" width="801" height="801"/>
</g>
</g>

<g >
<g fill="#000000" fill-opacity="0" stroke="none" transform="matrix(1,0,0,1,12,12)"
font-family="Benton Sans Book" font-size="13.3333" font-weight="400" font-style="normal" 
>
<rect x="0" y="0" width="776" height="776"/>
</g>
</g>

<g >
<g fill="#f9f9f0" fill-opacity="1" stroke="none" transform="matrix(1,0,0,1,12,12)"
font-family="Benton Sans Book" font-size="13.3333" font-weight="400" font-style="normal" 
>
<rect x="0" y="0" width="775" height="775"/>
</g>
</g>

<clipPath id ="clip1" >
<rect x="0" y="0" height="776" width="776" transform="matrix(1,0,0,1,12,12)" />
</clipPath>
<g  clip-path="url(#clip1)" 
>
<g fill="none" stroke="#000000" stroke-opacity="1" stroke-width="1" stroke-linecap="square" stroke-linejoin="bevel" transform="matrix(1,0,0,1,12,12)"
font-family="Benton Sans Book" font-size="13.3333" font-weight="400" font-style="normal" 
>
</g>
</g>

<clipPath id ="clip2" >
<rect x="0" y="0" height="776" width="776" transform="matrix(1,0,0,1,12,12)" />
</clipPath>
<g  clip-path="url(#clip2)" 
>
<g fill="none" stroke="#000000" stroke-opacity="1" stroke-width="1" stroke-linecap="square" stroke-linejoin="bevel" transform="matrix(1,0,0,1,12,12)"
font-family="Benton Sans Book" font-size="13.3333" font-weight="400" font-style="normal" 
>
</g>
</g>

<g  clip-path="url(#clip2)" 
>
<g fill="#f9f9f0" fill-opacity="1" stroke="none" transform="matrix(1,0,0,1,12,12)"
font-family="Benton Sans Book" font-size="13.3333" font-weight="400" font-style="normal" 
>
<rect x="0" y="0" width="776" height="776"/>
</g>
</g>

<g  clip-path="url(#clip2)" 
>
<g fill="#f9f9f0" fill-opacity="1" stroke="none" transform="matrix(1,0,0,1,12,12)"
font-family="Benton Sans Book" font-size="13.3333" font-weight="400" font-style="normal" 
>
<rect x="0" y="0" width="776" height="776"/>
</g>
</g>

<clipPath id ="clip3" >
<rect x="0" y="0" height="775" width="775" transform="matrix(1,0,0,1,12,12)" />
</clipPath>
<g  clip-path="url(#clip3)" 
>
<g fill="none" stroke="#000000" stroke-opacity="1" stroke-width="1" stroke-linecap="square" stroke-linejoin="bevel" transform="matrix(1,0,0,1,12,12)"
font-family="Benton Sans Book" font-size="13.3333" font-weight="400" font-style="normal" 
>
</g>
</g>

<g  clip-path="url(#clip3)" 
>
<g fill="#f9f9f0" fill-opacity="1" stroke="none" transform="matrix(1,0,0,1,12,12)"
font-family="Benton Sans Book" font-size="13.3333" font-weight="400" font-style="normal" 
>
<rect x="0" y="0" width="776" height="776"/>
</g>
</g>

<clipPath id ="clip4" >
<rect x="0" y="0" height="776" width="776" transform="matrix(1,0,0,1,12,12)" />
</clipPath>
<g  clip-path="url(#clip4)" 
>
<g fill="none" stroke="#000000" stroke-opacity="1" stroke-width="1" stroke-linecap="square" stroke-linejoin="bevel" transform="matrix(1,0,0,1,12,12)"
font-family="Benton Sans Book" font-size="13.3333" font-weight="400" font-style="normal" 
>
</g>
</g>

<clipPath id ="clip5" >
<rect x="0" y="0" height="776" width="776" transform="matrix(1,0,0,1,12,12)" />
</clipPath>
<g  clip-path="url(#clip5)" 
>
<g fill="none" stroke="#000000" stroke-opacity="1" stroke-width="1" stroke-linecap="square" stroke-linejoin="bevel" transform="matrix(1,0,0,1,12,12)"
font-family="Benton Sans Book" font-size="13.3333" font-weight="400" font-style="normal" 
>
</g>
</g>

<clipPath id ="clip6" >
<rect x="0" y="0" height="776" width="776" transform="matrix(1,0,0,1,12,12)" />
</clipPath>
<g  clip-path="url(#clip6)" 
>
<g fill="none" stroke="#000000" stroke-opacity="1" stroke-width="1" stroke-linecap="square" stroke-linejoin="bevel" transform="matrix(1,0,0,1,12,12)"
font-family="Benton Sans Book" font-size="13.3333" font-weight="400" font-style="normal" 
>
</g>
</g>

<clipPath id ="clip7" >
<rect x="0" y="0" height="776" width="776" transform="matrix(1,0,0,1,12,12)" />
</clipPath>
<g  clip-path="url(#clip7)" 
>
<g fill="none" stroke="#000000" stroke-opacity="1" stroke-width="1" stroke-linecap="square" stroke-linejoin="bevel" transform="matrix(1,0,0,1,12,12)"
font-family="Benton Sans Book" font-size="13.3333" font-weight="400" font-style="normal" 
>
</g>
</g>

<g  clip-path="url(#clip7)" 
>
<g fill="#f9f9f0" fill-opacity="1" stroke="none" transform="matrix(1,0,0,1,12,12)"
font-family="Benton Sans Book" font-size="13.3333" font-weight="400" font-style="normal" 
>
<rect x="0" y="0" width="776" height="776"/>
</g>
</g>

<clipPath id ="clip8" >
<rect x="0" y="0" height="776" width="776" transform="matrix(1,0,0,1,12,12)" />
</clipPath>
<g  clip-path="url(#clip8)" 
>
<g fill="none" stroke="#000000" stroke-opacity="1" stroke-width="1" stroke-linecap="square" stroke-linejoin="bevel" transform="matrix(1,0,0,1,12,12)"
font-family="Benton Sans Book" font-size="13.3333" font-weight="400" font-style="normal" 
>
</g>
</g>

<clipPath id ="clip9" >
<rect x="0" y="0" height="775" width="775" transform="matrix(1,0,0,1,12,12)" />
</clipPath>
<g  clip-path="url(#clip9)" 
>
<g fill="none" stroke="#000000" stroke-opacity="1" stroke-width="1" stroke-linecap="square" stroke-linejoin="bevel" transform="matrix(1,0,0,1,12,12)"
font-family="Benton Sans Book" font-size="13.3333" font-weight="400" font-style="normal" 
>
</g>
</g>

<clipPath id ="clip10" >
<rect x="0" y="0" height="776" width="776" transform="matrix(1,0,0,1,12,12)" />
</clipPath>
<g  clip-path="url(#clip10)" 
>
<g fill="none" stroke="#000000" stroke-opacity="1" stroke-width="1" stroke-linecap="square" stroke-linejoin="bevel" transform="matrix(1,0,0,1,12,12)"
font-family="Benton Sans Book" font-size="13.3333" font-weight="400" font-style="normal" 
>
</g>
</g>

<clipPath id ="clip11" >
<rect x="0" y="0" height="775" width="775" transform="matrix(1,0,0,1,12,12)" />
</clipPath>
<g  clip-path="url(#clip11)" 
>
<g fill="none" stroke="#000000" stroke-opacity="1" stroke-width="1" stroke-linecap="square" stroke-linejoin="bevel" transform="matrix(1,0,0,1,12,12)"
font-family="Benton Sans Book" font-size="13.3333" font-weight="400" font-style="normal" 
>
</g>
</g>

<clipPath id ="clip12" >
<rect x="0" y="0" height="776" width="776" transform="matrix(1,0,0,1,12,12)" />
</clipPath>
<g  clip-path="url(#clip12)" 
>
<g fill="none" stroke="#000000" stroke-opacity="1" stroke-width="1" stroke-linecap="square" stroke-linejoin="bevel" transform="matrix(1,0,0,1,12,12)"
font-family="Benton Sans Book" font-size="13.3333" font-weight="400" font-style="normal" 
>
</g>
</g>

<clipPath id ="clip13" >
<rect x="0" y="0" height="775" width="775" transform="matrix(1,0,0,1,12,12)" />
</clipPath>
<g  clip-path="url(#clip13)" 
>
<g fill="none" stroke="#000000" stroke-opacity="1" stroke-width="1" stroke-linecap="square" stroke-linejoin="bevel" transform="matrix(1,0,0,1,12,12)"
font-family="Benton Sans Book" font-size="13.3333" font-weight="400" font-style="normal" 
>
</g>
</g>

<clipPath id ="clip14" >
<rect x="0" y="0" height="776" width="776" transform="matrix(1,0,0,1,12,12)" />
</clipPath>
<g  clip-path="url(#clip14)" 
>
<g fill="none" stroke="#000000" stroke-opacity="1" stroke-width="1" stroke-linecap="square" stroke-linejoin="bevel" transform="matrix(1,0,0,1,12,12)"
font-family="Benton Sans Book" font-size="13.3333" font-weight="400" font-style="normal" 
>
</g>
</g>

<clipPath id ="clip15" >
<rect x="0" y="0" height="775" width="775" transform="matrix(1,0,0,1,12,12)" />
</clipPath>
<g  clip-path="url(#clip15)" 
>
<g fill="none" stroke="#000000" stroke-opacity="1" stroke-width="1" stroke-linecap="square" stroke-linejoin="bevel" transform="matrix(1,0,0,1,12,12)"
font-family="Benton Sans Book" font-size="13.3333" font-weight="400" font-style="normal" 
>
</g>
</g>

<clipPath id ="clip16" >
<rect x="0" y="0" height="776" width="776" transform="matrix(1,0,0,1,12,12)" />
</clipPath>
<g  clip-path="url(#clip16)" 
>
<g fill="none" stroke="#000000" stroke-opacity="1" stroke-width="1" stroke-linecap="square" stroke-linejoin="bevel" transform="matrix(1,0,0,1,12,12)"
font-family="Benton Sans Book" font-size="13.3333" font-weight="400" font-style="normal" 
>
</g>
</g>

<clipPath id ="clip17" >
<rect x="0" y="0" height="776" width="776" transform="matrix(1,0,0,1,12,12)" />
</clipPath>
<g  clip-path="url(#clip17)" 
>
<g fill="none" stroke="#000000" stroke-opacity="1" stroke-width="1" stroke-linecap="square" stroke-linejoin="bevel" transform="matrix(1,0,0,1,12,12)"
font-family="Benton Sans Book" font-size="13.3333" font-weight="400" font-style="normal" 
>
</g>
</g>

<clipPath id ="clip18" >
<rect x="0" y="0" height="776" width="776" transform="matrix(1,0,0,1,12,12)" />
</clipPath>
<g  clip-path="url(#clip18)" 
>
<g fill="none" stroke="#000000" stroke-opacity="1" stroke-width="1" stroke-linecap="square" stroke-linejoin="bevel" transform="matrix(1,0,0,1,12,12)"
font-family="Benton Sans Book" font-size="13.3333" font-weight="400" font-style="normal" 
>
</g>
</g>

<clipPath id ="clip19" >
<rect x="0" y="0" height="775" width="775" transform="matrix(1,0,0,1,12,12)" />
</clipPath>
<g  clip-path="url(#clip19)" 
>
<g fill="none" stroke="#000000" stroke-opacity="1" stroke-width="1" stroke-linecap="square" stroke-linejoin="bevel" transform="matrix(1,0,0,1,12,12)"
font-family="Benton Sans Book" font-size="13.3333" font-weight="400" font-style="normal" 
>
</g>
</g>

<g  clip-path="url(#clip19)" 
>
<g fill="#c3d8ef" fill-opacity="1" stroke="none" transform="matrix(1,0,0,1,12,12)"
font-family="Benton Sans Book" font-size="13.3333" font-weight="400" font-style="normal" 
>
<path vector-effect="none" fill-rule="evenodd" d="M387.5,387.5 L387.5,200.44 C410.216,200.44 431.986,204.489 452.096,211.893 L387.5,387.5"/>
</g>
</g>

<g  clip-path="url(#clip19)" 
>
<g fill="none" stroke="#ffffff" stroke-opacity="1" stroke-width="1" stroke-linecap="butt" stroke-linejoin="round" transform="matrix(1,0,0,1,12,12)"
font-family="Benton Sans Book" font-size="13.3333" font-weight="400" font-style="normal" 
>
<path vector-effect="none" fill-rule="evenodd" d="M387.5,387.5 L387.5,200.44 C410.216,200.44 431.986,204.489 452.096,211.893 L387.5,387.5"/>
</g>
</g>

<g  clip-path="url(#clip19)" 
>
<g fill="#e5c0c0" fill-opacity="1" stroke="none" transform="matrix(1,0,0,1,12,12)"
font-family="Benton Sans Book" font-size="13.3333" font-weight="400" font-style="normal" 
>
<path vector-effect="none" fill-rule="evenodd" d="M387.5,387.5 L452.096,211.893 C523.591,238.216 574.56,306.906 574.56,387.5 C574.56,490.811 490.811,574.56 387.5,574.56 C337.9,574.56 292.808,555.255 259.329,523.75 L387.5,387.5"/>
</g>
</g>

<g  clip-path="url(#clip19)" 
>
<g fill="none" stroke="#ffffff" stroke-opacity="1" stroke-width="1" stroke-linecap="butt" stroke-linejoin="round" transform="matrix(1,0,0,1,12,12)"
font-family="Benton Sans Book" font-size="13.3333" font-weight="400" font-style="normal" 
>
<path vector-effect="none" fill-rule="evenodd" d="M387.5,387.5 L452.096,211.893 C523.591,238.216 574.56,306.906 574.56,387.5 C574.56,490.811 490.811,574.56 387.5,574.56 C337.9,574.56 292.808,555.255 259.329,523.75 L387.5,387.5"/>
</g>
</g>

<g  clip-path="url(#clip19)" 
>
<g fill="#fbdfc5" fill-opacity="1" stroke="none" transform="matrix(1,0,0,1,12,12)"
font-family="Benton Sans Book" font-size="13.3333" font-weight="400" font-style="normal" 
>
<path vector-effect="none" fill-rule="evenodd" d="M387.5,387.5 L259.329,523.75 C223.076,489.633 200.44,441.21 200.44,387.5 C200.44,350.278 211.311,315.596 230.048,286.461 L387.5,387.5"/>
</g>
</g>

<g  clip-path="url(#clip19)" 
>
<g fill="none" stroke="#ffffff" stroke-opacity="1" stroke-width="1" stroke-linecap="butt" stroke-linejoin="round" transform="matrix(1,0,0,1,12,12)"
font-family="Benton Sans Book" font-size="13.3333" font-weight="400" font-style="normal" 
>
<path vector-effect="none" fill-rule="evenodd" d="M387.5,387.5 L259.329,523.75 C223.076,489.633 200.44,441.21 200.44,387.5 C200.44,350.278 211.311,315.596 230.048,286.461 L387.5,387.5"/>
</g>
</g>

<g  clip-path="url(#clip19)" 
>
<g fill="#fbeebf" fill-opacity="1" stroke="none" transform="matrix(1,0,0,1,12,12)"
font-family="Benton Sans Book" font-size="13.3333" font-weight="400" font-style="normal" 
>
<path vector-effect="none" fill-rule="evenodd" d="M387.5,387.5 L230.048,286.461 C251.134,253.672 282.175,227.902 318.872,213.43 L387.5,387.5"/>
</g>
</g>

<g  clip-path="url(#clip19)" 
>
<g fill="none" stroke="#ffffff" stroke-opacity="1" stroke-width="1" stroke-linecap="butt" stroke-linejoin="round" transform="matrix(1,0,0,1,12,12)"
font-family="Benton Sans Book" font-size="13.3333" font-weight="400" font-style="normal" 
>
<path vector-effect="none" fill-rule="evenodd" d="M387.5,387.5 L230.048,286.461 C251.134,253.672 282.175,227.902 318.872,213.43 L387.5,387.5"/>
</g>
</g>

<g  clip-path="url(#clip19)" 
>
<g fill="#d5d1ec" fill-opacity="1" stroke="none" transform="matrix(1,0,0,1,12,12)"
font-family="Benton Sans Book" font-size="13.3333" font-weight="400" font-style="normal" 
>
<path vector-effect="none" fill-rule="evenodd" d="M387.5,387.5 L318.872,213.43 C340.141,205.042 363.283,200.44 387.5,200.44 L387.5,387.5"/>
</g>
</g>

<g  clip-path="url(#clip19)" 
>
<g fill="none" stroke="#ffffff" stroke-opacity="1" stroke-width="1" stroke-linecap="butt" stroke-linejoin="round" transform="matrix(1,0,0,1,12,12)"
font-family="Benton Sans Book" font-size="13.3333" font-weight="400" font-style="normal" 
>
<path vector-effect="none" fill-rule="evenodd" d="M387.5,387.5 L318.872,213.43 C340.141,205.042 363.283,200.44 387.5,200.44 L387.5,387.5"/>
</g>
</g>

<clipPath id ="clip20" >
<rect x="0" y="0" height="776" width="776" transform="matrix(1,0,0,1,12,12)" />
</clipPath>
<g  clip-path="url(#clip20)" 
>
<g fill="none" stroke="#ffffff" stroke-opacity="1" stroke-width="1" stroke-linecap="butt" stroke-linejoin="round" transform="matrix(1,0,0,1,12,12)"
font-family="Benton Sans Book" font-size="13.3333" font-weight="400" font-style="normal" 
>
</g>
</g>

<clipPath id ="clip21" >
<rect x="0" y="0" height="775" width="775" transform="matrix(1,0,0,1,12,12)" />
</clipPath>
<g  clip-path="url(#clip21)" 
>
<g fill="none" stroke="#ffffff" stroke-opacity="1" stroke-width="1" stroke-linecap="butt" stroke-linejoin="round" transform="matrix(1,0,0,1,12,12)"
font-family="Benton Sans Book" font-size="13.3333" font-weight="400" font-style="normal" 
>
</g>
</g>

<g  clip-path="url(#clip21)" 
>
<g fill="#f9f9f0" fill-opacity="1" stroke="#f9f9f0" stroke-opacity="1" stroke-width="1.5" stroke-linecap="butt" stroke-linejoin="round" transform="matrix(1,0,0,1,12,12)"
font-family="Benton Sans Book" font-size="13.3333" font-weight="400" font-style="normal" 
>
<polyline fill="none" vector-effect="none" points="387.5,387.5 387.5,272.419 " />
</g>
</g>

<g  clip-path="url(#clip21)" 
>
<g fill="#f9f9f0" fill-opacity="1" stroke="none" transform="matrix(1,0,0,1,12,12)"
font-family="Benton Sans Book" font-size="13.3333" font-weight="400" font-style="normal" 
>
<path vector-effect="none" fill-rule="evenodd" d="M387.5,387.5 L387.5,271.257 C451.699,271.257 503.743,323.301 503.743,387.5 C503.743,451.699 451.699,503.743 387.5,503.743 C323.301,503.743 271.257,451.699 271.257,387.5 C271.257,323.301 323.301,271.257 387.5,271.257 L387.5,387.5"/>
</g>
</g>

<clipPath id ="clip22" >
<rect x="0" y="0" height="776" width="776" transform="matrix(1,0,0,1,12,12)" />
</clipPath>
<g  clip-path="url(#clip22)" 
>
<g fill="#f9f9f0" fill-opacity="1" stroke="none" transform="matrix(1,0,0,1,12,12)"
font-family="Benton Sans Book" font-size="13.3333" font-weight="400" font-style="normal" 
>
</g>
</g>

<clipPath id ="clip23" >
<rect x="0" y="0" height="775" width="775" transform="matrix(1,0,0,1,12,12)" />
</clipPath>
<g  clip-path="url(#clip23)" 
>
<g fill="#f9f9f0" fill-opacity="1" stroke="none" transform="matrix(1,0,0,1,12,12)"
font-family="Benton Sans Book" font-size="13.3333" font-weight="400" font-style="normal" 
>
</g>
</g>

<g  clip-path="url(#clip23)" 
>
<g fill="none" stroke="#555555" stroke-opacity="1" stroke-width="1" stroke-linecap="square" stroke-linejoin="bevel" transform="matrix(1,0,0,1,12,12)"
font-family="Montserrat Black" font-size="12" font-weight="400" font-style="normal" 
>
<text fill="#555555" fill-opacity="1" stroke="none" xml:space="preserve" x="178" y="183" font-family="Montserrat Black" font-size="12" font-weight="400" font-style="normal" 
 >A prendre avec précaution</text>
</g>
</g>

<g  clip-path="url(#clip23)" 
>
<g fill="none" stroke="#555555" stroke-opacity="1" stroke-width="1" stroke-linecap="square" stroke-linejoin="bevel" transform="matrix(1,0,0,1,12,12)"
font-family="Montserrat ExtraBold" font-size="12" font-weight="400" font-style="normal" 
>
<text fill="#555555" fill-opacity="1" stroke="none" xml:space="preserve" x="255" y="198" font-family="Montserrat ExtraBold" font-size="12" font-weight="400" font-style="normal" 
 >6%</text>
</g>
</g>

<g  clip-path="url(#clip23)" 
>
<g fill="none" stroke="#555555" stroke-opacity="1" stroke-width="1" stroke-linecap="square" stroke-linejoin="bevel" transform="matrix(1,0,0,1,12,12)"
font-family="Montserrat Black" font-size="12" font-weight="400" font-style="normal" 
>
<text fill="#555555" fill-opacity="1" stroke="none" xml:space="preserve" x="421" y="182" font-family="Montserrat Black" font-size="12" font-weight="400" font-style="normal" 
 >A prendre avec méfiance</text>
</g>
</g>

<g  clip-path="url(#clip23)" 
>
<g fill="none" stroke="#555555" stroke-opacity="1" stroke-width="1" stroke-linecap="square" stroke-linejoin="bevel" transform="matrix(1,0,0,1,12,12)"
font-family="Montserrat ExtraBold" font-size="12" font-weight="400" font-style="normal" 
>
<text fill="#555555" fill-opacity="1" stroke="none" xml:space="preserve" x="493" y="197" font-family="Montserrat ExtraBold" font-size="12" font-weight="400" font-style="normal" 
 >6%</text>
</g>
</g>

<g  clip-path="url(#clip23)" 
>
<g fill="none" stroke="#555555" stroke-opacity="1" stroke-width="1" stroke-linecap="square" stroke-linejoin="bevel" transform="matrix(1,0,0,1,12,12)"
font-family="Montserrat Black" font-size="12" font-weight="400" font-style="normal" 
>
<text fill="#555555" fill-opacity="1" stroke="none" xml:space="preserve" x="138" y="222" font-family="Montserrat Black" font-size="12" font-weight="400" font-style="normal" 
 >Pas toujours fiables</text>
</g>
</g>

<g  clip-path="url(#clip23)" 
>
<g fill="none" stroke="#555555" stroke-opacity="1" stroke-width="1" stroke-linecap="square" stroke-linejoin="bevel" transform="matrix(1,0,0,1,12,12)"
font-family="Montserrat ExtraBold" font-size="12" font-weight="400" font-style="normal" 
>
<text fill="#555555" fill-opacity="1" stroke="none" xml:space="preserve" x="190" y="237" font-family="Montserrat ExtraBold" font-size="12" font-weight="400" font-style="normal" 
 >10%</text>
</g>
</g>

<g  clip-path="url(#clip23)" 
>
<g fill="none" stroke="#555555" stroke-opacity="1" stroke-width="1" stroke-linecap="square" stroke-linejoin="bevel" transform="matrix(1,0,0,1,12,12)"
font-family="Montserrat Black" font-size="12" font-weight="400" font-style="normal" 
>
<text fill="#555555" fill-opacity="1" stroke="none" xml:space="preserve" x="86" y="422" font-family="Montserrat Black" font-size="12" font-weight="400" font-style="normal" 
 >Tout à fait fiables</text>
</g>
</g>

<g  clip-path="url(#clip23)" 
>
<g fill="none" stroke="#555555" stroke-opacity="1" stroke-width="1" stroke-linecap="square" stroke-linejoin="bevel" transform="matrix(1,0,0,1,12,12)"
font-family="Montserrat ExtraBold" font-size="12" font-weight="400" font-style="normal" 
>
<text fill="#555555" fill-opacity="1" stroke="none" xml:space="preserve" x="130" y="437" font-family="Montserrat ExtraBold" font-size="12" font-weight="400" font-style="normal" 
 >22%</text>
</g>
</g>

<g  clip-path="url(#clip23)" 
>
<g fill="none" stroke="#555555" stroke-opacity="1" stroke-width="1" stroke-linecap="square" stroke-linejoin="bevel" transform="matrix(1,0,0,1,12,12)"
font-family="Montserrat Black" font-size="12" font-weight="400" font-style="normal" 
>
<text fill="#555555" fill-opacity="1" stroke="none" xml:space="preserve" x="548" y="498" font-family="Montserrat Black" font-size="12" font-weight="400" font-style="normal" 
 >Plutôt fiables</text>
</g>
</g>

<g  clip-path="url(#clip23)" 
>
<g fill="none" stroke="#555555" stroke-opacity="1" stroke-width="1" stroke-linecap="square" stroke-linejoin="bevel" transform="matrix(1,0,0,1,12,12)"
font-family="Montserrat ExtraBold" font-size="12" font-weight="400" font-style="normal" 
>
<text fill="#555555" fill-opacity="1" stroke="none" xml:space="preserve" x="578" y="513" font-family="Montserrat ExtraBold" font-size="12" font-weight="400" font-style="normal" 
 >56%</text>
</g>
</g>

<clipPath id ="clip24" >
<rect x="0" y="0" height="776" width="776" transform="matrix(1,0,0,1,12,12)" />
</clipPath>
<g  clip-path="url(#clip24)" 
>
<g fill="none" stroke="#555555" stroke-opacity="1" stroke-width="1" stroke-linecap="square" stroke-linejoin="bevel" transform="matrix(1,0,0,1,12,12)"
font-family="Montserrat ExtraBold" font-size="12" font-weight="400" font-style="normal" 
>
</g>
</g>

<clipPath id ="clip25" >
<rect x="0" y="0" height="775" width="775" transform="matrix(1,0,0,1,12,12)" />
</clipPath>
<g  clip-path="url(#clip25)" 
>
<g fill="none" stroke="#555555" stroke-opacity="1" stroke-width="1" stroke-linecap="square" stroke-linejoin="bevel" transform="matrix(1,0,0,1,12,12)"
font-family="Montserrat ExtraBold" font-size="12" font-weight="400" font-style="normal" 
>
</g>
</g>

<g  clip-path="url(#clip25)" 
>
<g fill="none" stroke="#555555" stroke-opacity="1" stroke-width="1" stroke-linecap="square" stroke-linejoin="bevel" transform="matrix(1,0,0,1,12,12)"
font-family="Montserrat Black" font-size="19" font-weight="400" font-style="normal" 
>
<text fill="#555555" fill-opacity="1" stroke="none" xml:space="preserve" x="370" y="382" font-family="Montserrat Black" font-size="19" font-weight="400" font-style="normal" 
 >553</text>
</g>
</g>

<g  clip-path="url(#clip25)" 
>
<g fill="none" stroke="#555555" stroke-opacity="1" stroke-width="1" stroke-linecap="square" stroke-linejoin="bevel" transform="matrix(1,0,0,1,12,12)"
font-family="Montserrat Black" font-size="19" font-weight="400" font-style="normal" 
>
<text fill="#555555" fill-opacity="1" stroke="none" xml:space="preserve" x="298" y="405" font-family="Montserrat Black" font-size="19" font-weight="400" font-style="normal" 
 >élèves interrogés</text>
</g>
</g>

<clipPath id ="clip26" >
<rect x="0" y="0" height="776" width="776" transform="matrix(1,0,0,1,12,12)" />
</clipPath>
<g  clip-path="url(#clip26)" 
>
<g fill="none" stroke="#555555" stroke-opacity="1" stroke-width="1" stroke-linecap="square" stroke-linejoin="bevel" transform="matrix(1,0,0,1,12,12)"
font-family="Montserrat Black" font-size="19" font-weight="400" font-style="normal" 
>
</g>
</g>

<clipPath id ="clip27" >
<rect x="0" y="0" height="776" width="776" transform="matrix(1,0,0,1,12,12)" />
</clipPath>
<g  clip-path="url(#clip27)" 
>
<g fill="none" stroke="#555555" stroke-opacity="1" stroke-width="1" stroke-linecap="square" stroke-linejoin="bevel" transform="matrix(1,0,0,1,12,12)"
font-family="Montserrat Black" font-size="19" font-weight="400" font-style="normal" 
>
</g>
</g>

<clipPath id ="clip28" >
<rect x="0" y="0" height="776" width="776" transform="matrix(1,0,0,1,12,12)" />
</clipPath>
<g  clip-path="url(#clip28)" 
>
<g fill="none" stroke="#555555" stroke-opacity="1" stroke-width="1" stroke-linecap="square" stroke-linejoin="bevel" transform="matrix(1,0,0,1,12,12)"
font-family="Montserrat Black" font-size="19" font-weight="400" font-style="normal" 
>
</g>
</g>

<clipPath id ="clip29" >
<rect x="0" y="0" height="775" width="775" transform="matrix(1,0,0,1,12,12)" />
</clipPath>
<g  clip-path="url(#clip29)" 
>
<g fill="none" stroke="#555555" stroke-opacity="1" stroke-width="1" stroke-linecap="square" stroke-linejoin="bevel" transform="matrix(1,0,0,1,12,12)"
font-family="Montserrat Black" font-size="19" font-weight="400" font-style="normal" 
>
</g>
</g>

<clipPath id ="clip30" >
<rect x="0" y="0" height="776" width="776" transform="matrix(1,0,0,1,12,12)" />
</clipPath>
<g  clip-path="url(#clip30)" 
>
<g fill="none" stroke="#555555" stroke-opacity="1" stroke-width="1" stroke-linecap="square" stroke-linejoin="bevel" transform="matrix(1,0,0,1,12,12)"
font-family="Montserrat Black" font-size="19" font-weight="400" font-style="normal" 
>
</g>
</g>

<clipPath id ="clip31" >
<rect x="0" y="0" height="775" width="775" transform="matrix(1,0,0,1,12,12)" />
</clipPath>
<g  clip-path="url(#clip31)" 
>
<g fill="none" stroke="#555555" stroke-opacity="1" stroke-width="1" stroke-linecap="square" stroke-linejoin="bevel" transform="matrix(1,0,0,1,12,12)"
font-family="Montserrat Black" font-size="19" font-weight="400" font-style="normal" 
>
</g>
</g>

<clipPath id ="clip32" >
<rect x="0" y="0" height="776" width="776" transform="matrix(1,0,0,1,12,12)" />
</clipPath>
<g  clip-path="url(#clip32)" 
>
<g fill="none" stroke="#555555" stroke-opacity="1" stroke-width="1" stroke-linecap="square" stroke-linejoin="bevel" transform="matrix(1,0,0,1,12,12)"
font-family="Montserrat Black" font-size="19" font-weight="400" font-style="normal" 
>
</g>
</g>

<clipPath id ="clip33" >
<rect x="0" y="0" height="775" width="775" transform="matrix(1,0,0,1,12,12)" />
</clipPath>
<g  clip-path="url(#clip33)" 
>
<g fill="none" stroke="#555555" stroke-opacity="1" stroke-width="1" stroke-linecap="square" stroke-linejoin="bevel" transform="matrix(1,0,0,1,12,12)"
font-family="Montserrat Black" font-size="19" font-weight="400" font-style="normal" 
>
</g>
</g>

<clipPath id ="clip34" >
<rect x="0" y="0" height="776" width="776" transform="matrix(1,0,0,1,12,12)" />
</clipPath>
<g  clip-path="url(#clip34)" 
>
<g fill="none" stroke="#555555" stroke-opacity="1" stroke-width="1" stroke-linecap="square" stroke-linejoin="bevel" transform="matrix(1,0,0,1,12,12)"
font-family="Montserrat Black" font-size="19" font-weight="400" font-style="normal" 
>
</g>
</g>

<clipPath id ="clip35" >
<rect x="0" y="0" height="775" width="775" transform="matrix(1,0,0,1,12,12)" />
</clipPath>
<g  clip-path="url(#clip35)" 
>
<g fill="none" stroke="#555555" stroke-opacity="1" stroke-width="1" stroke-linecap="square" stroke-linejoin="bevel" transform="matrix(1,0,0,1,12,12)"
font-family="Montserrat Black" font-size="19" font-weight="400" font-style="normal" 
>
</g>
</g>

<clipPath id ="clip36" >
<rect x="0" y="0" height="776" width="776" transform="matrix(1,0,0,1,12,12)" />
</clipPath>
<g  clip-path="url(#clip36)" 
>
<g fill="none" stroke="#555555" stroke-opacity="1" stroke-width="1" stroke-linecap="square" stroke-linejoin="bevel" transform="matrix(1,0,0,1,12,12)"
font-family="Montserrat Black" font-size="19" font-weight="400" font-style="normal" 
>
</g>
</g>

<clipPath id ="clip37" >
<rect x="0" y="0" height="776" width="776" transform="matrix(1,0,0,1,12,12)" />
</clipPath>
<g  clip-path="url(#clip37)" 
>
<g fill="none" stroke="#555555" stroke-opacity="1" stroke-width="1" stroke-linecap="square" stroke-linejoin="bevel" transform="matrix(1,0,0,1,12,12)"
font-family="Montserrat Black" font-size="19" font-weight="400" font-style="normal" 
>
</g>
</g>

<clipPath id ="clip38" >
<rect x="0" y="0" height="776" width="776" transform="matrix(1,0,0,1,12,12)" />
</clipPath>
<g  clip-path="url(#clip38)" 
>
<g fill="none" stroke="#555555" stroke-opacity="1" stroke-width="1" stroke-linecap="square" stroke-linejoin="bevel" transform="matrix(1,0,0,1,12,12)"
font-family="Montserrat Black" font-size="19" font-weight="400" font-style="normal" 
>
</g>
</g>

<clipPath id ="clip39" >
<rect x="0" y="0" height="775" width="775" transform="matrix(1,0,0,1,12,12)" />
</clipPath>
<g  clip-path="url(#clip39)" 
>
<g fill="none" stroke="#555555" stroke-opacity="1" stroke-width="1" stroke-linecap="square" stroke-linejoin="bevel" transform="matrix(1,0,0,1,12,12)"
font-family="Montserrat Black" font-size="19" font-weight="400" font-style="normal" 
>
</g>
</g>

<clipPath id ="clip40" >
<rect x="0" y="0" height="776" width="776" transform="matrix(1,0,0,1,12,12)" />
</clipPath>
<g  clip-path="url(#clip40)" 
>
<g fill="none" stroke="#555555" stroke-opacity="1" stroke-width="1" stroke-linecap="square" stroke-linejoin="bevel" transform="matrix(1,0,0,1,12,12)"
font-family="Montserrat Black" font-size="19" font-weight="400" font-style="normal" 
>
</g>
</g>

<clipPath id ="clip41" >
<rect x="0" y="0" height="775" width="775" transform="matrix(1,0,0,1,12,12)" />
</clipPath>
<g  clip-path="url(#clip41)" 
>
<g fill="none" stroke="#555555" stroke-opacity="1" stroke-width="1" stroke-linecap="square" stroke-linejoin="bevel" transform="matrix(1,0,0,1,12,12)"
font-family="Montserrat Black" font-size="19" font-weight="400" font-style="normal" 
>
</g>
</g>

<clipPath id ="clip42" >
<rect x="0" y="0" height="776" width="776" transform="matrix(1,0,0,1,12,12)" />
</clipPath>
<g  clip-path="url(#clip42)" 
>
<g fill="none" stroke="#555555" stroke-opacity="1" stroke-width="1" stroke-linecap="square" stroke-linejoin="bevel" transform="matrix(1,0,0,1,12,12)"
font-family="Montserrat Black" font-size="19" font-weight="400" font-style="normal" 
>
</g>
</g>

<clipPath id ="clip43" >
<rect x="0" y="0" height="775" width="775" transform="matrix(1,0,0,1,12,12)" />
</clipPath>
<g  clip-path="url(#clip43)" 
>
<g fill="none" stroke="#555555" stroke-opacity="1" stroke-width="1" stroke-linecap="square" stroke-linejoin="bevel" transform="matrix(1,0,0,1,12,12)"
font-family="Montserrat Black" font-size="19" font-weight="400" font-style="normal" 
>
</g>
</g>

<clipPath id ="clip44" >
<rect x="0" y="0" height="776" width="776" transform="matrix(1,0,0,1,12,12)" />
</clipPath>
<g  clip-path="url(#clip44)" 
>
<g fill="none" stroke="#555555" stroke-opacity="1" stroke-width="1" stroke-linecap="square" stroke-linejoin="bevel" transform="matrix(1,0,0,1,12,12)"
font-family="Montserrat Black" font-size="19" font-weight="400" font-style="normal" 
>
</g>
</g>

<clipPath id ="clip45" >
<rect x="0" y="0" height="775" width="775" transform="matrix(1,0,0,1,12,12)" />
</clipPath>
<g  clip-path="url(#clip45)" 
>
<g fill="none" stroke="#555555" stroke-opacity="1" stroke-width="1" stroke-linecap="square" stroke-linejoin="bevel" transform="matrix(1,0,0,1,12,12)"
font-family="Montserrat Black" font-size="19" font-weight="400" font-style="normal" 
>
</g>
</g>

<clipPath id ="clip46" >
<rect x="0" y="0" height="776" width="776" transform="matrix(1,0,0,1,12,12)" />
</clipPath>
<g  clip-path="url(#clip46)" 
>
<g fill="none" stroke="#555555" stroke-opacity="1" stroke-width="1" stroke-linecap="square" stroke-linejoin="bevel" transform="matrix(1,0,0,1,12,12)"
font-family="Montserrat Black" font-size="19" font-weight="400" font-style="normal" 
>
</g>
</g>

<clipPath id ="clip47" >
<rect x="0" y="0" height="776" width="776" transform="matrix(1,0,0,1,12,12)" />
</clipPath>
<g  clip-path="url(#clip47)" 
>
<g fill="none" stroke="#555555" stroke-opacity="1" stroke-width="1" stroke-linecap="square" stroke-linejoin="bevel" transform="matrix(1,0,0,1,12,12)"
font-family="Montserrat Black" font-size="19" font-weight="400" font-style="normal" 
>
</g>
</g>

<clipPath id ="clip48" >
<rect x="0" y="0" height="776" width="776" transform="matrix(1,0,0,1,12,12)" />
</clipPath>
<g  clip-path="url(#clip48)" 
>
<g fill="none" stroke="#555555" stroke-opacity="1" stroke-width="1" stroke-linecap="square" stroke-linejoin="bevel" transform="matrix(1,0,0,1,12,12)"
font-family="Montserrat Black" font-size="19" font-weight="400" font-style="normal" 
>
</g>
</g>

<clipPath id ="clip49" >
<rect x="0" y="0" height="775" width="775" transform="matrix(1,0,0,1,12,12)" />
</clipPath>
<g  clip-path="url(#clip49)" 
>
<g fill="none" stroke="#555555" stroke-opacity="1" stroke-width="1" stroke-linecap="square" stroke-linejoin="bevel" transform="matrix(1,0,0,1,12,12)"
font-family="Montserrat Black" font-size="19" font-weight="400" font-style="normal" 
>
</g>
</g>

<clipPath id ="clip50" >
<rect x="0" y="0" height="776" width="776" transform="matrix(1,0,0,1,12,12)" />
</clipPath>
<g  clip-path="url(#clip50)" 
>
<g fill="none" stroke="#555555" stroke-opacity="1" stroke-width="1" stroke-linecap="square" stroke-linejoin="bevel" transform="matrix(1,0,0,1,12,12)"
font-family="Montserrat Black" font-size="19" font-weight="400" font-style="normal" 
>
</g>
</g>

<clipPath id ="clip51" >
<rect x="0" y="0" height="775" width="775" transform="matrix(1,0,0,1,12,12)" />
</clipPath>
<g  clip-path="url(#clip51)" 
>
<g fill="none" stroke="#555555" stroke-opacity="1" stroke-width="1" stroke-linecap="square" stroke-linejoin="bevel" transform="matrix(1,0,0,1,12,12)"
font-family="Montserrat Black" font-size="19" font-weight="400" font-style="normal" 
>
</g>
</g>

<clipPath id ="clip52" >
<rect x="0" y="0" height="776" width="776" transform="matrix(1,0,0,1,12,12)" />
</clipPath>
<g  clip-path="url(#clip52)" 
>
<g fill="none" stroke="#555555" stroke-opacity="1" stroke-width="1" stroke-linecap="square" stroke-linejoin="bevel" transform="matrix(1,0,0,1,12,12)"
font-family="Montserrat Black" font-size="19" font-weight="400" font-style="normal" 
>
</g>
</g>

<clipPath id ="clip53" >
<rect x="0" y="0" height="775" width="775" transform="matrix(1,0,0,1,12,12)" />
</clipPath>
<g  clip-path="url(#clip53)" 
>
<g fill="none" stroke="#555555" stroke-opacity="1" stroke-width="1" stroke-linecap="square" stroke-linejoin="bevel" transform="matrix(1,0,0,1,12,12)"
font-family="Montserrat Black" font-size="19" font-weight="400" font-style="normal" 
>
</g>
</g>

<clipPath id ="clip54" >
<rect x="0" y="0" height="776" width="776" transform="matrix(1,0,0,1,12,12)" />
</clipPath>
<g  clip-path="url(#clip54)" 
>
<g fill="none" stroke="#555555" stroke-opacity="1" stroke-width="1" stroke-linecap="square" stroke-linejoin="bevel" transform="matrix(1,0,0,1,12,12)"
font-family="Montserrat Black" font-size="19" font-weight="400" font-style="normal" 
>
</g>
</g>

<clipPath id ="clip55" >
<rect x="0" y="0" height="775" width="775" transform="matrix(1,0,0,1,12,12)" />
</clipPath>
<g  clip-path="url(#clip55)" 
>
<g fill="none" stroke="#555555" stroke-opacity="1" stroke-width="1" stroke-linecap="square" stroke-linejoin="bevel" transform="matrix(1,0,0,1,12,12)"
font-family="Montserrat Black" font-size="19" font-weight="400" font-style="normal" 
>
</g>
</g>

<clipPath id ="clip56" >
<rect x="0" y="0" height="776" width="776" transform="matrix(1,0,0,1,12,12)" />
</clipPath>
<g  clip-path="url(#clip56)" 
>
<g fill="none" stroke="#555555" stroke-opacity="1" stroke-width="1" stroke-linecap="square" stroke-linejoin="bevel" transform="matrix(1,0,0,1,12,12)"
font-family="Montserrat Black" font-size="19" font-weight="400" font-style="normal" 
>
</g>
</g>

<clipPath id ="clip57" >
<rect x="0" y="0" height="776" width="776" transform="matrix(1,0,0,1,12,12)" />
</clipPath>
<g  clip-path="url(#clip57)" 
>
<g fill="none" stroke="#555555" stroke-opacity="1" stroke-width="1" stroke-linecap="square" stroke-linejoin="bevel" transform="matrix(1,0,0,1,12,12)"
font-family="Montserrat Black" font-size="19" font-weight="400" font-style="normal" 
>
</g>
</g>

<clipPath id ="clip58" >
<rect x="0" y="0" height="776" width="776" transform="matrix(1,0,0,1,12,12)" />
</clipPath>
<g  clip-path="url(#clip58)" 
>
<g fill="none" stroke="#555555" stroke-opacity="1" stroke-width="1" stroke-linecap="square" stroke-linejoin="bevel" transform="matrix(1,0,0,1,12,12)"
font-family="Montserrat Black" font-size="19" font-weight="400" font-style="normal" 
>
</g>
</g>

<clipPath id ="clip59" >
<rect x="0" y="0" height="775" width="775" transform="matrix(1,0,0,1,12,12)" />
</clipPath>
<g  clip-path="url(#clip59)" 
>
<g fill="none" stroke="#555555" stroke-opacity="1" stroke-width="1" stroke-linecap="square" stroke-linejoin="bevel" transform="matrix(1,0,0,1,12,12)"
font-family="Montserrat Black" font-size="19" font-weight="400" font-style="normal" 
>
</g>
</g>

<clipPath id ="clip60" >
<rect x="0" y="0" height="776" width="776" transform="matrix(1,0,0,1,12,12)" />
</clipPath>
<g  clip-path="url(#clip60)" 
>
<g fill="none" stroke="#555555" stroke-opacity="1" stroke-width="1" stroke-linecap="square" stroke-linejoin="bevel" transform="matrix(1,0,0,1,12,12)"
font-family="Montserrat Black" font-size="19" font-weight="400" font-style="normal" 
>
</g>
</g>

<clipPath id ="clip61" >
<rect x="0" y="0" height="775" width="775" transform="matrix(1,0,0,1,12,12)" />
</clipPath>
<g  clip-path="url(#clip61)" 
>
<g fill="none" stroke="#555555" stroke-opacity="1" stroke-width="1" stroke-linecap="square" stroke-linejoin="bevel" transform="matrix(1,0,0,1,12,12)"
font-family="Montserrat Black" font-size="19" font-weight="400" font-style="normal" 
>
</g>
</g>

<clipPath id ="clip62" >
<rect x="0" y="0" height="776" width="776" transform="matrix(1,0,0,1,12,12)" />
</clipPath>
<g  clip-path="url(#clip62)" 
>
<g fill="none" stroke="#555555" stroke-opacity="1" stroke-width="1" stroke-linecap="square" stroke-linejoin="bevel" transform="matrix(1,0,0,1,12,12)"
font-family="Montserrat Black" font-size="19" font-weight="400" font-style="normal" 
>
</g>
</g>

<clipPath id ="clip63" >
<rect x="0" y="0" height="775" width="775" transform="matrix(1,0,0,1,12,12)" />
</clipPath>
<g  clip-path="url(#clip63)" 
>
<g fill="none" stroke="#555555" stroke-opacity="1" stroke-width="1" stroke-linecap="square" stroke-linejoin="bevel" transform="matrix(1,0,0,1,12,12)"
font-family="Montserrat Black" font-size="19" font-weight="400" font-style="normal" 
>
</g>
</g>

<clipPath id ="clip64" >
<rect x="0" y="0" height="776" width="776" transform="matrix(1,0,0,1,12,12)" />
</clipPath>
<g  clip-path="url(#clip64)" 
>
<g fill="none" stroke="#555555" stroke-opacity="1" stroke-width="1" stroke-linecap="square" stroke-linejoin="bevel" transform="matrix(1,0,0,1,12,12)"
font-family="Montserrat Black" font-size="19" font-weight="400" font-style="normal" 
>
</g>
</g>

<clipPath id ="clip65" >
<rect x="0" y="0" height="775" width="775" transform="matrix(1,0,0,1,12,12)" />
</clipPath>
<g  clip-path="url(#clip65)" 
>
<g fill="none" stroke="#555555" stroke-opacity="1" stroke-width="1" stroke-linecap="square" stroke-linejoin="bevel" transform="matrix(1,0,0,1,12,12)"
font-family="Montserrat Black" font-size="19" font-weight="400" font-style="normal" 
>
</g>
</g>

<clipPath id ="clip66" >
<rect x="0" y="0" height="776" width="776" transform="matrix(1,0,0,1,12,12)" />
</clipPath>
<g  clip-path="url(#clip66)" 
>
<g fill="none" stroke="#555555" stroke-opacity="1" stroke-width="1" stroke-linecap="square" stroke-linejoin="bevel" transform="matrix(1,0,0,1,12,12)"
font-family="Montserrat Black" font-size="19" font-weight="400" font-style="normal" 
>
</g>
</g>

<clipPath id ="clip67" >
<rect x="0" y="0" height="776" width="776" transform="matrix(1,0,0,1,12,12)" />
</clipPath>
<g  clip-path="url(#clip67)" 
>
<g fill="none" stroke="#555555" stroke-opacity="1" stroke-width="1" stroke-linecap="square" stroke-linejoin="bevel" transform="matrix(1,0,0,1,12,12)"
font-family="Montserrat Black" font-size="19" font-weight="400" font-style="normal" 
>
</g>
</g>

<clipPath id ="clip68" >
<rect x="0" y="0" height="776" width="776" transform="matrix(1,0,0,1,12,12)" />
</clipPath>
<g  clip-path="url(#clip68)" 
>
<g fill="none" stroke="#555555" stroke-opacity="1" stroke-width="1" stroke-linecap="square" stroke-linejoin="bevel" transform="matrix(1,0,0,1,12,12)"
font-family="Montserrat Black" font-size="19" font-weight="400" font-style="normal" 
>
</g>
</g>

<clipPath id ="clip69" >
<rect x="0" y="0" height="776" width="776" transform="matrix(1,0,0,1,12,12)" />
</clipPath>
<g  clip-path="url(#clip69)" 
>
<g fill="none" stroke="#555555" stroke-opacity="1" stroke-width="1" stroke-linecap="square" stroke-linejoin="bevel" transform="matrix(1,0,0,1,12,12)"
font-family="Montserrat Black" font-size="19" font-weight="400" font-style="normal" 
>
</g>
</g>

<g  clip-path="url(#clip69)" 
>
<g fill="none" stroke="#cbcbcb" stroke-opacity="1" stroke-width="1" stroke-linecap="square" stroke-linejoin="bevel" transform="matrix(1,0,0,1,12,12)"
font-family="Montserrat Black" font-size="19" font-weight="400" font-style="normal" 
>
<polyline fill="none" vector-effect="none" points="0,0 0,775 " />
<polyline fill="none" vector-effect="none" points="775,0 775,775 " />
<polyline fill="none" vector-effect="none" points="0,0 775,0 " />
<polyline fill="none" vector-effect="none" points="0,775 775,775 " />
</g>
</g>

<clipPath id ="clip70" >
<rect x="0" y="0" height="776" width="776" transform="matrix(1,0,0,1,12,12)" />
</clipPath>
<g  clip-path="url(#clip70)" 
>
<g fill="none" stroke="#cbcbcb" stroke-opacity="1" stroke-width="1" stroke-linecap="square" stroke-linejoin="bevel" transform="matrix(1,0,0,1,12,12)"
font-family="Montserrat Black" font-size="19" font-weight="400" font-style="normal" 
>
</g>
</g>

<g >
<g fill="none" stroke="#cbcbcb" stroke-opacity="1" stroke-width="1" stroke-linecap="square" stroke-linejoin="bevel" transform="matrix(1,0,0,1,12,12)"
font-family="Montserrat Black" font-size="19" font-weight="400" font-style="normal" 
>
</g>
</g>
</g>
</svg>
