<svg xmlns="http://www.w3.org/2000/svg" xmlns:xlink="http://www.w3.org/1999/xlink" width="668" zoomAndPan="magnify" viewBox="0 0 501 587.999999" height="784" preserveAspectRatio="xMidYMid meet" version="1.0"><defs><g/></defs><rect x="-50.1" width="601.2" fill="#ffffff" y="-58.8" height="705.599999" fill-opacity="1"/><path fill="#fbdfc5" d="M 250.5 52 C 255.015625 52 259.527344 52.125 264.035156 52.367188 C 268.542969 52.609375 273.039062 52.976562 277.527344 53.464844 C 282.015625 53.949219 286.488281 54.558594 290.945312 55.289062 C 295.402344 56.015625 299.832031 56.867188 304.242188 57.835938 C 308.652344 58.804688 313.03125 59.890625 317.382812 61.097656 C 321.734375 62.300781 326.050781 63.625 330.328125 65.0625 C 334.609375 66.5 338.84375 68.054688 343.039062 69.722656 C 347.234375 71.390625 351.382812 73.171875 355.480469 75.0625 C 359.582031 76.957031 363.625 78.957031 367.617188 81.070312 C 371.605469 83.179688 375.539062 85.398438 379.410156 87.71875 C 383.28125 90.042969 387.085938 92.472656 390.824219 95 C 394.566406 97.53125 398.234375 100.15625 401.832031 102.886719 C 405.429688 105.613281 408.949219 108.4375 412.394531 111.355469 C 415.839844 114.273438 419.203125 117.28125 422.484375 120.382812 C 425.765625 123.480469 428.964844 126.667969 432.074219 129.941406 C 435.183594 133.214844 438.203125 136.566406 441.132812 140.003906 C 444.058594 143.441406 446.894531 146.953125 449.632812 150.542969 C 452.371094 154.132812 455.007812 157.792969 457.550781 161.523438 C 460.089844 165.257812 462.527344 169.054688 464.863281 172.917969 C 467.199219 176.78125 469.429688 180.707031 471.550781 184.691406 C 473.675781 188.675781 475.6875 192.714844 477.59375 196.808594 C 479.496094 200.902344 481.289062 205.042969 482.96875 209.234375 C 484.652344 213.421875 486.21875 217.65625 487.667969 221.929688 C 489.121094 226.207031 490.457031 230.515625 491.675781 234.863281 C 492.894531 239.210938 493.992188 243.589844 494.976562 247.996094 C 495.957031 252.402344 496.820312 256.832031 497.5625 261.285156 C 498.304688 265.738281 498.925781 270.207031 499.425781 274.695312 C 499.929688 279.183594 500.308594 283.679688 500.566406 288.1875 C 500.820312 292.695312 500.957031 297.203125 500.972656 301.71875 C 500.984375 306.234375 500.875 310.746094 500.644531 315.253906 C 500.414062 319.765625 500.0625 324.261719 499.589844 328.753906 C 499.117188 333.242188 498.523438 337.714844 497.804688 342.175781 C 497.089844 346.632812 496.253906 351.066406 495.300781 355.480469 C 494.34375 359.890625 493.269531 364.273438 492.078125 368.628906 C 490.886719 372.984375 489.574219 377.304688 488.148438 381.585938 C 486.722656 385.871094 485.183594 390.113281 483.527344 394.3125 C 481.871094 398.511719 480.105469 402.664062 478.226562 406.769531 C 476.34375 410.875 474.355469 414.925781 472.257812 418.921875 C 470.15625 422.921875 467.953125 426.859375 465.640625 430.734375 C 463.328125 434.613281 460.914062 438.425781 458.394531 442.171875 C 455.878906 445.921875 453.257812 449.597656 450.542969 453.203125 C 447.824219 456.808594 445.011719 460.339844 442.105469 463.792969 C 439.199219 467.246094 436.199219 470.617188 433.109375 473.910156 C 430.019531 477.203125 426.84375 480.40625 423.578125 483.527344 C 420.316406 486.644531 416.96875 489.675781 413.542969 492.613281 C 410.113281 495.554688 406.609375 498.398438 403.03125 501.148438 C 399.449219 503.894531 395.796875 506.546875 392.070312 509.097656 C 388.347656 511.648438 384.558594 514.101562 380.699219 516.445312 C 376.84375 518.792969 372.925781 521.035156 368.949219 523.167969 C 364.96875 525.304688 360.9375 527.332031 356.847656 529.246094 C 352.761719 531.164062 348.625 532.96875 344.441406 534.664062 C 340.253906 536.355469 336.027344 537.933594 331.757812 539.398438 C 327.484375 540.863281 323.179688 542.210938 318.835938 543.445312 C 314.492188 544.675781 310.117188 545.789062 305.714844 546.785156 C 301.3125 547.78125 296.882812 548.65625 292.433594 549.410156 C 287.980469 550.167969 283.511719 550.800781 279.027344 551.316406 C 274.542969 551.832031 270.046875 552.222656 265.539062 552.492188 C 261.035156 552.765625 256.523438 552.914062 252.007812 552.941406 C 247.492188 552.96875 242.980469 552.875 238.472656 552.65625 C 233.960938 552.441406 229.460938 552.101562 224.96875 551.640625 C 220.480469 551.179688 216.003906 550.601562 211.542969 549.898438 C 207.085938 549.195312 202.648438 548.375 198.230469 547.429688 C 193.816406 546.488281 189.429688 545.429688 185.070312 544.25 C 180.714844 543.070312 176.390625 541.773438 172.101562 540.359375 C 167.816406 538.949219 163.566406 537.417969 159.363281 535.777344 C 155.15625 534.132812 151 532.378906 146.890625 530.511719 C 142.777344 528.644531 138.722656 526.667969 134.71875 524.578125 C 130.714844 522.492188 126.769531 520.300781 122.886719 518 C 119 515.699219 115.183594 513.296875 111.425781 510.789062 C 107.671875 508.28125 103.988281 505.675781 100.375 502.96875 C 96.757812 500.261719 93.222656 497.460938 89.757812 494.5625 C 86.296875 491.667969 82.914062 488.679688 79.613281 485.597656 C 76.3125 482.519531 73.097656 479.351562 69.96875 476.097656 C 66.839844 472.84375 63.800781 469.507812 60.851562 466.085938 C 57.902344 462.667969 55.046875 459.171875 52.285156 455.601562 C 49.527344 452.027344 46.867188 448.382812 44.300781 444.667969 C 41.738281 440.949219 39.277344 437.167969 36.921875 433.316406 C 34.5625 429.46875 32.308594 425.554688 30.160156 421.585938 C 28.015625 417.613281 25.976562 413.585938 24.046875 409.503906 C 22.117188 405.421875 20.300781 401.292969 18.59375 397.113281 C 16.890625 392.933594 15.296875 388.710938 13.820312 384.441406 C 12.34375 380.175781 10.980469 375.875 9.738281 371.535156 C 8.492188 367.195312 7.363281 362.824219 6.355469 358.421875 C 5.347656 354.023438 4.460938 349.597656 3.691406 345.148438 C 2.921875 340.699219 2.273438 336.234375 1.746094 331.75 C 1.21875 327.265625 0.8125 322.773438 0.527344 318.265625 C 0.242188 313.761719 0.078125 309.25 0.0390625 304.734375 C -0.00390625 300.222656 0.078125 295.707031 0.28125 291.199219 C 0.484375 286.6875 0.808594 282.1875 1.257812 277.695312 C 1.703125 273.203125 2.269531 268.726562 2.960938 264.261719 C 3.648438 259.800781 4.457031 255.359375 5.386719 250.941406 C 6.316406 246.523438 7.363281 242.136719 8.527344 237.773438 C 9.695312 233.410156 10.976562 229.085938 12.378906 224.792969 C 13.777344 220.5 15.292969 216.25 16.921875 212.039062 C 18.554688 207.828125 20.296875 203.667969 22.152344 199.550781 C 24.007812 195.433594 25.972656 191.371094 28.046875 187.363281 L 139.273438 244.917969 C 138.234375 246.921875 137.253906 248.953125 136.324219 251.011719 C 135.398438 253.070312 134.527344 255.152344 133.710938 257.257812 C 132.898438 259.363281 132.140625 261.488281 131.4375 263.632812 C 130.738281 265.777344 130.097656 267.941406 129.515625 270.125 C 128.929688 272.304688 128.40625 274.5 127.941406 276.707031 C 127.476562 278.917969 127.074219 281.136719 126.730469 283.367188 C 126.386719 285.597656 126.101562 287.835938 125.878906 290.085938 C 125.65625 292.332031 125.492188 294.582031 125.390625 296.835938 C 125.289062 299.089844 125.25 301.347656 125.269531 303.605469 C 125.289062 305.863281 125.371094 308.117188 125.511719 310.371094 C 125.65625 312.621094 125.859375 314.871094 126.121094 317.113281 C 126.386719 319.355469 126.710938 321.585938 127.09375 323.8125 C 127.480469 326.035156 127.925781 328.25 128.429688 330.449219 C 128.933594 332.648438 129.496094 334.835938 130.117188 337.003906 C 130.742188 339.171875 131.421875 341.324219 132.160156 343.457031 C 132.898438 345.589844 133.695312 347.703125 134.546875 349.792969 C 135.402344 351.882812 136.308594 353.949219 137.273438 355.988281 C 138.238281 358.03125 139.257812 360.042969 140.332031 362.03125 C 141.40625 364.015625 142.53125 365.96875 143.710938 367.894531 C 144.890625 369.820312 146.121094 371.710938 147.402344 373.570312 C 148.683594 375.429688 150.011719 377.25 151.394531 379.039062 C 152.773438 380.824219 154.199219 382.570312 155.675781 384.28125 C 157.148438 385.988281 158.667969 387.65625 160.234375 389.285156 C 161.800781 390.910156 163.40625 392.496094 165.058594 394.035156 C 166.707031 395.574219 168.398438 397.070312 170.128906 398.519531 C 171.859375 399.96875 173.628906 401.367188 175.4375 402.722656 C 177.242188 404.074219 179.085938 405.378906 180.964844 406.632812 C 182.839844 407.882812 184.75 409.085938 186.691406 410.234375 C 188.636719 411.386719 190.609375 412.484375 192.609375 413.527344 C 194.609375 414.570312 196.640625 415.558594 198.695312 416.492188 C 200.75 417.425781 202.828125 418.304688 204.929688 419.125 C 207.035156 419.945312 209.15625 420.710938 211.300781 421.417969 C 213.445312 422.125 215.605469 422.773438 217.785156 423.363281 C 219.964844 423.949219 222.15625 424.480469 224.367188 424.953125 C 226.574219 425.421875 228.792969 425.835938 231.023438 426.1875 C 233.253906 426.535156 235.488281 426.828125 237.734375 427.058594 C 239.980469 427.289062 242.230469 427.457031 244.484375 427.566406 C 246.742188 427.671875 248.996094 427.722656 251.253906 427.707031 C 253.511719 427.695312 255.765625 427.621094 258.019531 427.484375 C 260.273438 427.347656 262.519531 427.152344 264.765625 426.894531 C 267.007812 426.636719 269.242188 426.320312 271.464844 425.941406 C 273.691406 425.5625 275.90625 425.125 278.105469 424.628906 C 280.308594 424.132812 282.496094 423.574219 284.667969 422.957031 C 286.839844 422.34375 288.992188 421.667969 291.128906 420.9375 C 293.261719 420.203125 295.378906 419.414062 297.46875 418.566406 C 299.5625 417.722656 301.628906 416.820312 303.675781 415.859375 C 305.71875 414.902344 307.734375 413.890625 309.722656 412.820312 C 311.710938 411.753906 313.671875 410.632812 315.601562 409.460938 C 317.527344 408.285156 319.421875 407.0625 321.285156 405.785156 C 323.148438 404.511719 324.972656 403.183594 326.765625 401.808594 C 328.554688 400.433594 330.308594 399.011719 332.019531 397.542969 C 333.734375 396.074219 335.40625 394.558594 337.039062 393 C 338.671875 391.441406 340.257812 389.835938 341.804688 388.191406 C 343.347656 386.546875 344.847656 384.859375 346.304688 383.132812 C 347.757812 381.40625 349.164062 379.640625 350.519531 377.839844 C 351.878906 376.035156 353.1875 374.195312 354.449219 372.324219 C 355.707031 370.449219 356.914062 368.542969 358.070312 366.605469 C 359.226562 364.664062 360.328125 362.695312 361.378906 360.699219 C 362.425781 358.699219 363.421875 356.675781 364.363281 354.621094 C 365.300781 352.570312 366.1875 350.492188 367.015625 348.394531 C 367.839844 346.292969 368.613281 344.171875 369.324219 342.03125 C 370.039062 339.886719 370.691406 337.730469 371.289062 335.550781 C 371.886719 333.375 372.421875 331.183594 372.898438 328.976562 C 373.378906 326.769531 373.796875 324.550781 374.152344 322.324219 C 374.511719 320.09375 374.808594 317.859375 375.046875 315.613281 C 375.28125 313.367188 375.457031 311.117188 375.574219 308.863281 C 375.6875 306.609375 375.742188 304.355469 375.734375 302.097656 C 375.730469 299.839844 375.660156 297.582031 375.53125 295.328125 C 375.402344 293.078125 375.214844 290.828125 374.964844 288.585938 C 374.714844 286.339844 374.402344 284.105469 374.03125 281.878906 C 373.660156 279.652344 373.230469 277.4375 372.738281 275.234375 C 372.246094 273.03125 371.695312 270.84375 371.085938 268.667969 C 370.476562 266.496094 369.808594 264.339844 369.085938 262.203125 C 368.359375 260.066406 367.574219 257.949219 366.734375 255.851562 C 365.894531 253.757812 365 251.6875 364.046875 249.640625 C 363.09375 247.59375 362.085938 245.574219 361.027344 243.582031 C 359.964844 241.589844 358.847656 239.628906 357.683594 237.695312 C 356.515625 235.765625 355.296875 233.863281 354.023438 232 C 352.753906 230.132812 351.433594 228.300781 350.066406 226.507812 C 348.695312 224.714844 347.28125 222.957031 345.816406 221.238281 C 344.351562 219.519531 342.839844 217.84375 341.285156 216.207031 C 339.730469 214.570312 338.132812 212.976562 336.492188 211.425781 C 334.851562 209.878906 333.167969 208.375 331.445312 206.914062 C 329.726562 205.453125 327.964844 204.042969 326.164062 202.679688 C 324.367188 201.316406 322.53125 200 320.664062 198.738281 C 318.792969 197.472656 316.890625 196.257812 314.953125 195.097656 C 313.019531 193.933594 311.054688 192.828125 309.058594 191.769531 C 307.0625 190.714844 305.039062 189.714844 302.992188 188.769531 C 300.941406 187.824219 298.867188 186.933594 296.769531 186.097656 C 294.671875 185.265625 292.554688 184.488281 290.414062 183.769531 C 288.273438 183.050781 286.117188 182.386719 283.941406 181.785156 C 281.765625 181.183594 279.574219 180.636719 277.371094 180.152344 C 275.167969 179.667969 272.949219 179.246094 270.722656 178.882812 C 268.496094 178.515625 266.257812 178.210938 264.015625 177.96875 C 261.769531 177.726562 259.519531 177.542969 257.265625 177.421875 C 255.011719 177.296875 252.757812 177.238281 250.5 177.238281 Z M 250.5 52 " fill-opacity="1" fill-rule="nonzero"/><path fill="#e5c0c0" d="M 28.046875 187.363281 C 30.398438 182.816406 32.886719 178.351562 35.511719 173.957031 C 38.136719 169.566406 40.894531 165.257812 43.78125 161.039062 C 46.671875 156.816406 49.6875 152.683594 52.828125 148.648438 C 55.972656 144.609375 59.234375 140.671875 62.617188 136.832031 C 66 132.996094 69.5 129.265625 73.113281 125.640625 C 76.722656 122.019531 80.441406 118.507812 84.269531 115.113281 C 88.097656 111.71875 92.023438 108.441406 96.054688 105.289062 C 100.082031 102.132812 104.203125 99.105469 108.414062 96.203125 C 112.628906 93.300781 116.925781 90.527344 121.308594 87.890625 C 125.691406 85.25 130.152344 82.75 134.691406 80.382812 C 139.226562 78.015625 143.832031 75.792969 148.503906 73.710938 C 153.175781 71.625 157.910156 69.6875 162.699219 67.894531 C 167.492188 66.101562 172.335938 64.457031 177.226562 62.957031 C 182.121094 61.460938 187.054688 60.117188 192.027344 58.921875 C 197.003906 57.726562 202.011719 56.6875 207.050781 55.800781 C 212.085938 54.910156 217.148438 54.179688 222.234375 53.601562 L 236.367188 178.039062 C 233.824219 178.328125 231.292969 178.691406 228.773438 179.136719 C 226.253906 179.578125 223.75 180.101562 221.265625 180.699219 C 218.777344 181.296875 216.308594 181.96875 213.863281 182.714844 C 211.417969 183.464844 208.996094 184.285156 206.601562 185.183594 C 204.203125 186.082031 201.839844 187.050781 199.503906 188.089844 C 197.164062 189.132812 194.863281 190.246094 192.59375 191.429688 C 190.328125 192.609375 188.097656 193.863281 185.90625 195.179688 C 183.714844 196.5 181.5625 197.886719 179.457031 199.335938 C 177.351562 200.789062 175.289062 202.304688 173.277344 203.878906 C 171.261719 205.457031 169.296875 207.09375 167.386719 208.792969 C 165.472656 210.492188 163.613281 212.246094 161.804688 214.058594 C 160 215.871094 158.25 217.734375 156.558594 219.652344 C 154.867188 221.574219 153.234375 223.542969 151.664062 225.558594 C 150.09375 227.578125 148.585938 229.644531 147.140625 231.753906 C 145.695312 233.867188 144.316406 236.019531 143.003906 238.214844 C 141.691406 240.410156 140.449219 242.644531 139.273438 244.917969 Z M 28.046875 187.363281 " fill-opacity="1" fill-rule="nonzero"/><path fill="#cbe0d5" d="M 222.234375 53.601562 C 231.617188 52.535156 241.03125 52.003906 250.476562 52 L 250.488281 177.238281 C 245.765625 177.238281 241.058594 177.503906 236.367188 178.039062 Z M 222.234375 53.601562 " fill-opacity="1" fill-rule="nonzero"/><g fill="#000000" fill-opacity="1"><g transform="translate(354.399621, 550.723372)"><g><path d="M 22.59375 -13.859375 L 18.0625 0 L 14.609375 0 L 11.5625 -9.390625 L 8.40625 0 L 4.984375 0 L 0.4375 -13.859375 L 3.765625 -13.859375 L 6.890625 -4.125 L 10.15625 -13.859375 L 13.125 -13.859375 L 16.296875 -4.03125 L 19.515625 -13.859375 Z M 22.59375 -13.859375 "/></g></g></g><g fill="#000000" fill-opacity="1"><g transform="translate(377.316959, 550.723372)"><g><path d="M 1.421875 -10.65625 L 4.515625 -10.65625 L 4.515625 0 L 1.421875 0 Z M 2.96875 -12.140625 C 2.394531 -12.140625 1.929688 -12.300781 1.578125 -12.625 C 1.222656 -12.957031 1.046875 -13.367188 1.046875 -13.859375 C 1.046875 -14.347656 1.222656 -14.753906 1.578125 -15.078125 C 1.929688 -15.410156 2.394531 -15.578125 2.96875 -15.578125 C 3.53125 -15.578125 3.988281 -15.414062 4.34375 -15.09375 C 4.707031 -14.78125 4.890625 -14.390625 4.890625 -13.921875 C 4.890625 -13.398438 4.707031 -12.972656 4.34375 -12.640625 C 3.988281 -12.304688 3.53125 -12.140625 2.96875 -12.140625 Z M 2.96875 -12.140625 "/></g></g></g><g fill="#000000" fill-opacity="1"><g transform="translate(383.273883, 550.723372)"><g><path d="M 6 -4.171875 L 4.515625 -2.71875 L 4.515625 0 L 1.421875 0 L 1.421875 -14.6875 L 4.515625 -14.6875 L 4.515625 -6.375 L 9.03125 -10.65625 L 12.703125 -10.65625 L 8.28125 -6.140625 L 13.109375 0 L 9.359375 0 Z M 6 -4.171875 "/></g></g></g><g fill="#000000" fill-opacity="1"><g transform="translate(396.256411, 550.723372)"><g><path d="M 1.421875 -10.65625 L 4.515625 -10.65625 L 4.515625 0 L 1.421875 0 Z M 2.96875 -12.140625 C 2.394531 -12.140625 1.929688 -12.300781 1.578125 -12.625 C 1.222656 -12.957031 1.046875 -13.367188 1.046875 -13.859375 C 1.046875 -14.347656 1.222656 -14.753906 1.578125 -15.078125 C 1.929688 -15.410156 2.394531 -15.578125 2.96875 -15.578125 C 3.53125 -15.578125 3.988281 -15.414062 4.34375 -15.09375 C 4.707031 -14.78125 4.890625 -14.390625 4.890625 -13.921875 C 4.890625 -13.398438 4.707031 -12.972656 4.34375 -12.640625 C 3.988281 -12.304688 3.53125 -12.140625 2.96875 -12.140625 Z M 2.96875 -12.140625 "/></g></g></g><g fill="#000000" fill-opacity="1"><g transform="translate(402.213335, 550.723372)"><g><path d="M 7.71875 -10.8125 C 8.707031 -10.8125 9.609375 -10.582031 10.421875 -10.125 C 11.234375 -9.664062 11.867188 -9.023438 12.328125 -8.203125 C 12.796875 -7.378906 13.03125 -6.421875 13.03125 -5.328125 C 13.03125 -4.234375 12.796875 -3.269531 12.328125 -2.4375 C 11.867188 -1.613281 11.234375 -0.972656 10.421875 -0.515625 C 9.609375 -0.0664062 8.707031 0.15625 7.71875 0.15625 C 6.363281 0.15625 5.296875 -0.269531 4.515625 -1.125 L 4.515625 3.84375 L 1.421875 3.84375 L 1.421875 -10.65625 L 4.375 -10.65625 L 4.375 -9.421875 C 5.132812 -10.347656 6.25 -10.8125 7.71875 -10.8125 Z M 7.1875 -2.375 C 7.976562 -2.375 8.625 -2.640625 9.125 -3.171875 C 9.632812 -3.710938 9.890625 -4.429688 9.890625 -5.328125 C 9.890625 -6.222656 9.632812 -6.9375 9.125 -7.46875 C 8.625 -8.007812 7.976562 -8.28125 7.1875 -8.28125 C 6.394531 -8.28125 5.742188 -8.007812 5.234375 -7.46875 C 4.722656 -6.9375 4.46875 -6.222656 4.46875 -5.328125 C 4.46875 -4.429688 4.722656 -3.710938 5.234375 -3.171875 C 5.742188 -2.640625 6.394531 -2.375 7.1875 -2.375 Z M 7.1875 -2.375 "/></g></g></g><g fill="#000000" fill-opacity="1"><g transform="translate(415.868744, 550.723372)"><g><path d="M 11.859375 -5.28125 C 11.859375 -5.238281 11.835938 -4.960938 11.796875 -4.453125 L 3.734375 -4.453125 C 3.878906 -3.796875 4.222656 -3.273438 4.765625 -2.890625 C 5.304688 -2.503906 5.984375 -2.3125 6.796875 -2.3125 C 7.347656 -2.3125 7.835938 -2.394531 8.265625 -2.5625 C 8.691406 -2.726562 9.09375 -2.988281 9.46875 -3.34375 L 11.109375 -1.5625 C 10.097656 -0.414062 8.632812 0.15625 6.71875 0.15625 C 5.507812 0.15625 4.441406 -0.078125 3.515625 -0.546875 C 2.597656 -1.015625 1.890625 -1.660156 1.390625 -2.484375 C 0.890625 -3.316406 0.640625 -4.265625 0.640625 -5.328125 C 0.640625 -6.367188 0.882812 -7.304688 1.375 -8.140625 C 1.875 -8.984375 2.554688 -9.640625 3.421875 -10.109375 C 4.285156 -10.578125 5.25 -10.8125 6.3125 -10.8125 C 7.351562 -10.8125 8.296875 -10.585938 9.140625 -10.140625 C 9.984375 -9.691406 10.644531 -9.046875 11.125 -8.203125 C 11.613281 -7.367188 11.859375 -6.394531 11.859375 -5.28125 Z M 6.328125 -8.46875 C 5.628906 -8.46875 5.039062 -8.269531 4.5625 -7.875 C 4.09375 -7.476562 3.804688 -6.9375 3.703125 -6.25 L 8.953125 -6.25 C 8.847656 -6.925781 8.554688 -7.460938 8.078125 -7.859375 C 7.597656 -8.265625 7.015625 -8.46875 6.328125 -8.46875 Z M 7.125 -14.875 L 10.453125 -14.875 L 6.859375 -12.015625 L 4.453125 -12.015625 Z M 7.125 -14.875 "/></g></g></g><g fill="#000000" fill-opacity="1"><g transform="translate(428.35652, 550.723372)"><g><path d="M 12.28125 -14.6875 L 12.28125 0 L 9.328125 0 L 9.328125 -1.234375 C 8.554688 -0.304688 7.445312 0.15625 6 0.15625 C 5 0.15625 4.09375 -0.0664062 3.28125 -0.515625 C 2.46875 -0.960938 1.828125 -1.601562 1.359375 -2.4375 C 0.898438 -3.269531 0.671875 -4.234375 0.671875 -5.328125 C 0.671875 -6.421875 0.898438 -7.382812 1.359375 -8.21875 C 1.828125 -9.050781 2.46875 -9.691406 3.28125 -10.140625 C 4.09375 -10.585938 5 -10.8125 6 -10.8125 C 7.351562 -10.8125 8.414062 -10.378906 9.1875 -9.515625 L 9.1875 -14.6875 Z M 6.53125 -2.375 C 7.3125 -2.375 7.957031 -2.640625 8.46875 -3.171875 C 8.988281 -3.710938 9.25 -4.429688 9.25 -5.328125 C 9.25 -6.222656 8.988281 -6.9375 8.46875 -7.46875 C 7.957031 -8.007812 7.3125 -8.28125 6.53125 -8.28125 C 5.738281 -8.28125 5.082031 -8.007812 4.5625 -7.46875 C 4.050781 -6.9375 3.796875 -6.222656 3.796875 -5.328125 C 3.796875 -4.429688 4.050781 -3.710938 4.5625 -3.171875 C 5.082031 -2.640625 5.738281 -2.375 6.53125 -2.375 Z M 6.53125 -2.375 "/></g></g></g><g fill="#000000" fill-opacity="1"><g transform="translate(442.051507, 550.723372)"><g><path d="M 1.421875 -10.65625 L 4.515625 -10.65625 L 4.515625 0 L 1.421875 0 Z M 2.96875 -12.140625 C 2.394531 -12.140625 1.929688 -12.300781 1.578125 -12.625 C 1.222656 -12.957031 1.046875 -13.367188 1.046875 -13.859375 C 1.046875 -14.347656 1.222656 -14.753906 1.578125 -15.078125 C 1.929688 -15.410156 2.394531 -15.578125 2.96875 -15.578125 C 3.53125 -15.578125 3.988281 -15.414062 4.34375 -15.09375 C 4.707031 -14.78125 4.890625 -14.390625 4.890625 -13.921875 C 4.890625 -13.398438 4.707031 -12.972656 4.34375 -12.640625 C 3.988281 -12.304688 3.53125 -12.140625 2.96875 -12.140625 Z M 2.96875 -12.140625 "/></g></g></g><g fill="#000000" fill-opacity="1"><g transform="translate(448.008431, 550.723372)"><g><path d="M 5.71875 -10.8125 C 7.375 -10.8125 8.640625 -10.414062 9.515625 -9.625 C 10.398438 -8.84375 10.84375 -7.660156 10.84375 -6.078125 L 10.84375 0 L 7.953125 0 L 7.953125 -1.328125 C 7.378906 -0.335938 6.300781 0.15625 4.71875 0.15625 C 3.894531 0.15625 3.179688 0.0195312 2.578125 -0.25 C 1.984375 -0.53125 1.523438 -0.914062 1.203125 -1.40625 C 0.890625 -1.894531 0.734375 -2.445312 0.734375 -3.0625 C 0.734375 -4.050781 1.101562 -4.828125 1.84375 -5.390625 C 2.59375 -5.960938 3.75 -6.25 5.3125 -6.25 L 7.765625 -6.25 C 7.765625 -6.925781 7.554688 -7.445312 7.140625 -7.8125 C 6.734375 -8.175781 6.125 -8.359375 5.3125 -8.359375 C 4.738281 -8.359375 4.175781 -8.265625 3.625 -8.078125 C 3.082031 -7.898438 2.617188 -7.660156 2.234375 -7.359375 L 1.125 -9.515625 C 1.707031 -9.929688 2.40625 -10.25 3.21875 -10.46875 C 4.03125 -10.695312 4.863281 -10.8125 5.71875 -10.8125 Z M 5.484375 -1.921875 C 6.015625 -1.921875 6.484375 -2.039062 6.890625 -2.28125 C 7.296875 -2.53125 7.585938 -2.890625 7.765625 -3.359375 L 7.765625 -4.453125 L 5.640625 -4.453125 C 4.367188 -4.453125 3.734375 -4.035156 3.734375 -3.203125 C 3.734375 -2.804688 3.890625 -2.492188 4.203125 -2.265625 C 4.515625 -2.035156 4.941406 -1.921875 5.484375 -1.921875 Z M 5.484375 -1.921875 "/></g></g></g><g fill="#000000" fill-opacity="1"><g transform="translate(377.591504, 577.509996)"><g><path d="M 10.25 -7.28125 C 10.9375 -6.9375 11.460938 -6.488281 11.828125 -5.9375 C 12.191406 -5.382812 12.375 -4.742188 12.375 -4.015625 C 12.375 -3.160156 12.128906 -2.410156 11.640625 -1.765625 C 11.148438 -1.128906 10.460938 -0.632812 9.578125 -0.28125 C 8.691406 0.0625 7.671875 0.234375 6.515625 0.234375 C 5.347656 0.234375 4.328125 0.0625 3.453125 -0.28125 C 2.578125 -0.632812 1.894531 -1.128906 1.40625 -1.765625 C 0.925781 -2.410156 0.6875 -3.160156 0.6875 -4.015625 C 0.6875 -4.742188 0.867188 -5.382812 1.234375 -5.9375 C 1.597656 -6.488281 2.117188 -6.9375 2.796875 -7.28125 C 2.273438 -7.601562 1.875 -8.003906 1.59375 -8.484375 C 1.320312 -8.960938 1.1875 -9.515625 1.1875 -10.140625 C 1.1875 -10.941406 1.410156 -11.640625 1.859375 -12.234375 C 2.304688 -12.828125 2.929688 -13.285156 3.734375 -13.609375 C 4.546875 -13.929688 5.472656 -14.09375 6.515625 -14.09375 C 7.566406 -14.09375 8.5 -13.929688 9.3125 -13.609375 C 10.125 -13.285156 10.753906 -12.828125 11.203125 -12.234375 C 11.648438 -11.640625 11.875 -10.941406 11.875 -10.140625 C 11.875 -9.515625 11.734375 -8.960938 11.453125 -8.484375 C 11.179688 -8.003906 10.78125 -7.601562 10.25 -7.28125 Z M 6.515625 -11.734375 C 5.867188 -11.734375 5.347656 -11.578125 4.953125 -11.265625 C 4.566406 -10.960938 4.375 -10.539062 4.375 -10 C 4.375 -9.46875 4.5625 -9.050781 4.9375 -8.75 C 5.320312 -8.445312 5.847656 -8.296875 6.515625 -8.296875 C 7.171875 -8.296875 7.695312 -8.445312 8.09375 -8.75 C 8.488281 -9.050781 8.6875 -9.46875 8.6875 -10 C 8.6875 -10.539062 8.488281 -10.960938 8.09375 -11.265625 C 7.695312 -11.578125 7.171875 -11.734375 6.515625 -11.734375 Z M 6.515625 -2.125 C 7.316406 -2.125 7.953125 -2.300781 8.421875 -2.65625 C 8.890625 -3.019531 9.125 -3.507812 9.125 -4.125 C 9.125 -4.726562 8.890625 -5.207031 8.421875 -5.5625 C 7.953125 -5.914062 7.316406 -6.09375 6.515625 -6.09375 C 5.722656 -6.09375 5.09375 -5.914062 4.625 -5.5625 C 4.164062 -5.207031 3.9375 -4.726562 3.9375 -4.125 C 3.9375 -3.5 4.164062 -3.007812 4.625 -2.65625 C 5.09375 -2.300781 5.722656 -2.125 6.515625 -2.125 Z M 6.515625 -2.125 "/></g></g></g><g fill="#000000" fill-opacity="1"><g transform="translate(390.653197, 577.509996)"><g><path d="M 11.125 -2.609375 L 11.125 0 L 0.65625 0 L 0.65625 -2.078125 L 6 -7.125 C 6.5625 -7.664062 6.941406 -8.128906 7.140625 -8.515625 C 7.335938 -8.910156 7.4375 -9.300781 7.4375 -9.6875 C 7.4375 -10.238281 7.25 -10.660156 6.875 -10.953125 C 6.5 -11.253906 5.945312 -11.40625 5.21875 -11.40625 C 4.613281 -11.40625 4.066406 -11.285156 3.578125 -11.046875 C 3.085938 -10.816406 2.679688 -10.472656 2.359375 -10.015625 L 0.015625 -11.515625 C 0.554688 -12.328125 1.300781 -12.957031 2.25 -13.40625 C 3.207031 -13.863281 4.296875 -14.09375 5.515625 -14.09375 C 6.546875 -14.09375 7.445312 -13.921875 8.21875 -13.578125 C 9 -13.242188 9.601562 -12.769531 10.03125 -12.15625 C 10.457031 -11.550781 10.671875 -10.832031 10.671875 -10 C 10.671875 -9.25 10.507812 -8.539062 10.1875 -7.875 C 9.875 -7.21875 9.265625 -6.46875 8.359375 -5.625 L 5.171875 -2.609375 Z M 11.125 -2.609375 "/></g></g></g><g fill="#000000" fill-opacity="1"><g transform="translate(402.527467, 577.509996)"><g><path d="M 2.59375 0.15625 C 2.050781 0.15625 1.59375 -0.0234375 1.21875 -0.390625 C 0.851562 -0.765625 0.671875 -1.226562 0.671875 -1.78125 C 0.671875 -2.351562 0.851562 -2.8125 1.21875 -3.15625 C 1.59375 -3.507812 2.050781 -3.6875 2.59375 -3.6875 C 3.132812 -3.6875 3.585938 -3.507812 3.953125 -3.15625 C 4.328125 -2.8125 4.515625 -2.351562 4.515625 -1.78125 C 4.515625 -1.226562 4.328125 -0.765625 3.953125 -0.390625 C 3.585938 -0.0234375 3.132812 0.15625 2.59375 0.15625 Z M 2.59375 0.15625 "/></g></g></g><g fill="#000000" fill-opacity="1"><g transform="translate(407.455289, 577.509996)"><g><path d="M 7.4375 -8.6875 C 8.320312 -8.6875 9.128906 -8.507812 9.859375 -8.15625 C 10.585938 -7.800781 11.160156 -7.296875 11.578125 -6.640625 C 12.003906 -5.984375 12.21875 -5.226562 12.21875 -4.375 C 12.21875 -3.445312 11.984375 -2.632812 11.515625 -1.9375 C 11.054688 -1.238281 10.425781 -0.703125 9.625 -0.328125 C 8.832031 0.046875 7.945312 0.234375 6.96875 0.234375 C 5.03125 0.234375 3.507812 -0.359375 2.40625 -1.546875 C 1.3125 -2.734375 0.765625 -4.425781 0.765625 -6.625 C 0.765625 -8.195312 1.0625 -9.546875 1.65625 -10.671875 C 2.25 -11.796875 3.078125 -12.644531 4.140625 -13.21875 C 5.203125 -13.800781 6.4375 -14.09375 7.84375 -14.09375 C 8.582031 -14.09375 9.289062 -14.007812 9.96875 -13.84375 C 10.644531 -13.675781 11.222656 -13.441406 11.703125 -13.140625 L 10.515625 -10.796875 C 9.828125 -11.253906 8.960938 -11.484375 7.921875 -11.484375 C 6.742188 -11.484375 5.8125 -11.140625 5.125 -10.453125 C 4.4375 -9.765625 4.066406 -8.769531 4.015625 -7.46875 C 4.835938 -8.28125 5.976562 -8.6875 7.4375 -8.6875 Z M 6.796875 -2.15625 C 7.472656 -2.15625 8.023438 -2.335938 8.453125 -2.703125 C 8.890625 -3.078125 9.109375 -3.582031 9.109375 -4.21875 C 9.109375 -4.851562 8.890625 -5.359375 8.453125 -5.734375 C 8.023438 -6.109375 7.457031 -6.296875 6.75 -6.296875 C 6.050781 -6.296875 5.476562 -6.097656 5.03125 -5.703125 C 4.582031 -5.316406 4.359375 -4.820312 4.359375 -4.21875 C 4.359375 -3.613281 4.570312 -3.117188 5 -2.734375 C 5.4375 -2.347656 6.035156 -2.15625 6.796875 -2.15625 Z M 6.796875 -2.15625 "/></g></g></g><g fill="#000000" fill-opacity="1"><g transform="translate(419.666, 577.509996)"><g><path d="M 3.984375 -6.375 C 2.960938 -6.375 2.128906 -6.71875 1.484375 -7.40625 C 0.847656 -8.101562 0.53125 -9.035156 0.53125 -10.203125 C 0.53125 -11.359375 0.847656 -12.28125 1.484375 -12.96875 C 2.128906 -13.664062 2.960938 -14.015625 3.984375 -14.015625 C 4.992188 -14.015625 5.816406 -13.664062 6.453125 -12.96875 C 7.085938 -12.28125 7.40625 -11.359375 7.40625 -10.203125 C 7.40625 -9.035156 7.085938 -8.101562 6.453125 -7.40625 C 5.816406 -6.71875 4.992188 -6.375 3.984375 -6.375 Z M 12.234375 -13.859375 L 14.59375 -13.859375 L 5.125 0 L 2.765625 0 Z M 3.984375 -8 C 4.429688 -8 4.78125 -8.179688 5.03125 -8.546875 C 5.289062 -8.921875 5.421875 -9.472656 5.421875 -10.203125 C 5.421875 -10.921875 5.289062 -11.460938 5.03125 -11.828125 C 4.78125 -12.203125 4.429688 -12.390625 3.984375 -12.390625 C 3.546875 -12.390625 3.191406 -12.203125 2.921875 -11.828125 C 2.660156 -11.453125 2.53125 -10.910156 2.53125 -10.203125 C 2.53125 -9.484375 2.660156 -8.9375 2.921875 -8.5625 C 3.191406 -8.1875 3.546875 -8 3.984375 -8 Z M 13.375 0.15625 C 12.71875 0.15625 12.128906 0.00390625 11.609375 -0.296875 C 11.085938 -0.609375 10.679688 -1.054688 10.390625 -1.640625 C 10.097656 -2.222656 9.953125 -2.894531 9.953125 -3.65625 C 9.953125 -4.425781 10.097656 -5.097656 10.390625 -5.671875 C 10.679688 -6.253906 11.085938 -6.703125 11.609375 -7.015625 C 12.128906 -7.328125 12.71875 -7.484375 13.375 -7.484375 C 14.394531 -7.484375 15.222656 -7.132812 15.859375 -6.4375 C 16.503906 -5.75 16.828125 -4.820312 16.828125 -3.65625 C 16.828125 -2.5 16.503906 -1.570312 15.859375 -0.875 C 15.222656 -0.1875 14.394531 0.15625 13.375 0.15625 Z M 13.375 -1.46875 C 13.832031 -1.46875 14.1875 -1.65625 14.4375 -2.03125 C 14.695312 -2.40625 14.828125 -2.945312 14.828125 -3.65625 C 14.828125 -4.375 14.695312 -4.921875 14.4375 -5.296875 C 14.1875 -5.671875 13.832031 -5.859375 13.375 -5.859375 C 12.945312 -5.859375 12.597656 -5.671875 12.328125 -5.296875 C 12.066406 -4.929688 11.9375 -4.382812 11.9375 -3.65625 C 11.9375 -2.9375 12.066406 -2.390625 12.328125 -2.015625 C 12.597656 -1.648438 12.945312 -1.46875 13.375 -1.46875 Z M 13.375 -1.46875 "/></g></g></g><g fill="#000000" fill-opacity="1"><g transform="translate(15.817469, 42.627888)"><g><path d="M 10.765625 -2.96875 L 4.328125 -2.96875 L 3.109375 0 L -0.171875 0 L 6 -13.859375 L 9.171875 -13.859375 L 15.359375 0 L 12 0 Z M 9.765625 -5.40625 L 7.5625 -10.703125 L 5.359375 -5.40625 Z M 9.765625 -5.40625 "/></g></g></g><g fill="#000000" fill-opacity="1"><g transform="translate(30.779045, 42.627888)"><g><path d="M 12.15625 -10.65625 L 12.15625 0 L 9.21875 0 L 9.21875 -1.265625 C 8.8125 -0.804688 8.320312 -0.453125 7.75 -0.203125 C 7.1875 0.0351562 6.578125 0.15625 5.921875 0.15625 C 4.523438 0.15625 3.414062 -0.242188 2.59375 -1.046875 C 1.769531 -1.847656 1.359375 -3.039062 1.359375 -4.625 L 1.359375 -10.65625 L 4.453125 -10.65625 L 4.453125 -5.09375 C 4.453125 -3.375 5.171875 -2.515625 6.609375 -2.515625 C 7.347656 -2.515625 7.941406 -2.753906 8.390625 -3.234375 C 8.835938 -3.710938 9.0625 -4.429688 9.0625 -5.390625 L 9.0625 -10.65625 Z M 12.15625 -10.65625 "/></g></g></g><g fill="#000000" fill-opacity="1"><g transform="translate(44.375078, 42.627888)"><g><path d="M 8.296875 -0.515625 C 7.992188 -0.285156 7.617188 -0.113281 7.171875 0 C 6.734375 0.101562 6.269531 0.15625 5.78125 0.15625 C 4.507812 0.15625 3.523438 -0.164062 2.828125 -0.8125 C 2.140625 -1.457031 1.796875 -2.40625 1.796875 -3.65625 L 1.796875 -8.03125 L 0.15625 -8.03125 L 0.15625 -10.40625 L 1.796875 -10.40625 L 1.796875 -13 L 4.890625 -13 L 4.890625 -10.40625 L 7.546875 -10.40625 L 7.546875 -8.03125 L 4.890625 -8.03125 L 4.890625 -3.703125 C 4.890625 -3.253906 5.003906 -2.90625 5.234375 -2.65625 C 5.460938 -2.414062 5.789062 -2.296875 6.21875 -2.296875 C 6.707031 -2.296875 7.125 -2.425781 7.46875 -2.6875 Z M 8.296875 -0.515625 "/></g></g></g><g fill="#000000" fill-opacity="1"><g transform="translate(52.983923, 42.627888)"><g><path d="M 4.375 -9.25 C 4.738281 -9.757812 5.234375 -10.144531 5.859375 -10.40625 C 6.492188 -10.675781 7.21875 -10.8125 8.03125 -10.8125 L 8.03125 -7.953125 C 7.6875 -7.984375 7.457031 -8 7.34375 -8 C 6.457031 -8 5.765625 -7.75 5.265625 -7.25 C 4.765625 -6.757812 4.515625 -6.019531 4.515625 -5.03125 L 4.515625 0 L 1.421875 0 L 1.421875 -10.65625 L 4.375 -10.65625 Z M 4.375 -9.25 "/></g></g></g><g fill="#000000" fill-opacity="1"><g transform="translate(61.335492, 42.627888)"><g><path d="M 11.859375 -5.28125 C 11.859375 -5.238281 11.835938 -4.960938 11.796875 -4.453125 L 3.734375 -4.453125 C 3.878906 -3.796875 4.222656 -3.273438 4.765625 -2.890625 C 5.304688 -2.503906 5.984375 -2.3125 6.796875 -2.3125 C 7.347656 -2.3125 7.835938 -2.394531 8.265625 -2.5625 C 8.691406 -2.726562 9.09375 -2.988281 9.46875 -3.34375 L 11.109375 -1.5625 C 10.097656 -0.414062 8.632812 0.15625 6.71875 0.15625 C 5.507812 0.15625 4.441406 -0.078125 3.515625 -0.546875 C 2.597656 -1.015625 1.890625 -1.660156 1.390625 -2.484375 C 0.890625 -3.316406 0.640625 -4.265625 0.640625 -5.328125 C 0.640625 -6.367188 0.882812 -7.304688 1.375 -8.140625 C 1.875 -8.984375 2.554688 -9.640625 3.421875 -10.109375 C 4.285156 -10.578125 5.25 -10.8125 6.3125 -10.8125 C 7.351562 -10.8125 8.296875 -10.585938 9.140625 -10.140625 C 9.984375 -9.691406 10.644531 -9.046875 11.125 -8.203125 C 11.613281 -7.367188 11.859375 -6.394531 11.859375 -5.28125 Z M 6.328125 -8.46875 C 5.628906 -8.46875 5.039062 -8.269531 4.5625 -7.875 C 4.09375 -7.476562 3.804688 -6.9375 3.703125 -6.25 L 8.953125 -6.25 C 8.847656 -6.925781 8.554688 -7.460938 8.078125 -7.859375 C 7.597656 -8.265625 7.015625 -8.46875 6.328125 -8.46875 Z M 6.328125 -8.46875 "/></g></g></g><g fill="#000000" fill-opacity="1"><g transform="translate(73.823267, 42.627888)"><g><path d="M 5.015625 0.15625 C 4.128906 0.15625 3.257812 0.046875 2.40625 -0.171875 C 1.5625 -0.390625 0.890625 -0.660156 0.390625 -0.984375 L 1.421875 -3.203125 C 1.898438 -2.898438 2.472656 -2.648438 3.140625 -2.453125 C 3.816406 -2.265625 4.476562 -2.171875 5.125 -2.171875 C 6.4375 -2.171875 7.09375 -2.492188 7.09375 -3.140625 C 7.09375 -3.453125 6.910156 -3.671875 6.546875 -3.796875 C 6.191406 -3.929688 5.644531 -4.046875 4.90625 -4.140625 C 4.039062 -4.265625 3.320312 -4.410156 2.75 -4.578125 C 2.1875 -4.753906 1.695312 -5.0625 1.28125 -5.5 C 0.863281 -5.9375 0.65625 -6.554688 0.65625 -7.359375 C 0.65625 -8.035156 0.847656 -8.632812 1.234375 -9.15625 C 1.628906 -9.675781 2.195312 -10.082031 2.9375 -10.375 C 3.6875 -10.664062 4.566406 -10.8125 5.578125 -10.8125 C 6.335938 -10.8125 7.085938 -10.726562 7.828125 -10.5625 C 8.578125 -10.394531 9.195312 -10.164062 9.6875 -9.875 L 8.65625 -7.6875 C 7.71875 -8.207031 6.691406 -8.46875 5.578125 -8.46875 C 4.921875 -8.46875 4.425781 -8.375 4.09375 -8.1875 C 3.769531 -8.007812 3.609375 -7.773438 3.609375 -7.484375 C 3.609375 -7.148438 3.785156 -6.914062 4.140625 -6.78125 C 4.492188 -6.65625 5.0625 -6.535156 5.84375 -6.421875 C 6.707031 -6.273438 7.414062 -6.117188 7.96875 -5.953125 C 8.53125 -5.785156 9.015625 -5.484375 9.421875 -5.046875 C 9.828125 -4.609375 10.03125 -4.003906 10.03125 -3.234375 C 10.03125 -2.566406 9.832031 -1.972656 9.4375 -1.453125 C 9.039062 -0.941406 8.460938 -0.546875 7.703125 -0.265625 C 6.953125 0.015625 6.054688 0.15625 5.015625 0.15625 Z M 5.015625 0.15625 "/></g></g></g><g fill="#000000" fill-opacity="1"><g transform="translate(84.331994, 42.627888)"><g/></g></g><g fill="#000000" fill-opacity="1"><g transform="translate(89.932688, 42.627888)"><g><path d="M 5.015625 0.15625 C 4.128906 0.15625 3.257812 0.046875 2.40625 -0.171875 C 1.5625 -0.390625 0.890625 -0.660156 0.390625 -0.984375 L 1.421875 -3.203125 C 1.898438 -2.898438 2.472656 -2.648438 3.140625 -2.453125 C 3.816406 -2.265625 4.476562 -2.171875 5.125 -2.171875 C 6.4375 -2.171875 7.09375 -2.492188 7.09375 -3.140625 C 7.09375 -3.453125 6.910156 -3.671875 6.546875 -3.796875 C 6.191406 -3.929688 5.644531 -4.046875 4.90625 -4.140625 C 4.039062 -4.265625 3.320312 -4.410156 2.75 -4.578125 C 2.1875 -4.753906 1.695312 -5.0625 1.28125 -5.5 C 0.863281 -5.9375 0.65625 -6.554688 0.65625 -7.359375 C 0.65625 -8.035156 0.847656 -8.632812 1.234375 -9.15625 C 1.628906 -9.675781 2.195312 -10.082031 2.9375 -10.375 C 3.6875 -10.664062 4.566406 -10.8125 5.578125 -10.8125 C 6.335938 -10.8125 7.085938 -10.726562 7.828125 -10.5625 C 8.578125 -10.394531 9.195312 -10.164062 9.6875 -9.875 L 8.65625 -7.6875 C 7.71875 -8.207031 6.691406 -8.46875 5.578125 -8.46875 C 4.921875 -8.46875 4.425781 -8.375 4.09375 -8.1875 C 3.769531 -8.007812 3.609375 -7.773438 3.609375 -7.484375 C 3.609375 -7.148438 3.785156 -6.914062 4.140625 -6.78125 C 4.492188 -6.65625 5.0625 -6.535156 5.84375 -6.421875 C 6.707031 -6.273438 7.414062 -6.117188 7.96875 -5.953125 C 8.53125 -5.785156 9.015625 -5.484375 9.421875 -5.046875 C 9.828125 -4.609375 10.03125 -4.003906 10.03125 -3.234375 C 10.03125 -2.566406 9.832031 -1.972656 9.4375 -1.453125 C 9.039062 -0.941406 8.460938 -0.546875 7.703125 -0.265625 C 6.953125 0.015625 6.054688 0.15625 5.015625 0.15625 Z M 5.015625 0.15625 "/></g></g></g><g fill="#000000" fill-opacity="1"><g transform="translate(100.441416, 42.627888)"><g><path d="M 1.421875 -10.65625 L 4.515625 -10.65625 L 4.515625 0 L 1.421875 0 Z M 2.96875 -12.140625 C 2.394531 -12.140625 1.929688 -12.300781 1.578125 -12.625 C 1.222656 -12.957031 1.046875 -13.367188 1.046875 -13.859375 C 1.046875 -14.347656 1.222656 -14.753906 1.578125 -15.078125 C 1.929688 -15.410156 2.394531 -15.578125 2.96875 -15.578125 C 3.53125 -15.578125 3.988281 -15.414062 4.34375 -15.09375 C 4.707031 -14.78125 4.890625 -14.390625 4.890625 -13.921875 C 4.890625 -13.398438 4.707031 -12.972656 4.34375 -12.640625 C 3.988281 -12.304688 3.53125 -12.140625 2.96875 -12.140625 Z M 2.96875 -12.140625 "/></g></g></g><g fill="#000000" fill-opacity="1"><g transform="translate(106.39834, 42.627888)"><g><path d="M 8.296875 -0.515625 C 7.992188 -0.285156 7.617188 -0.113281 7.171875 0 C 6.734375 0.101562 6.269531 0.15625 5.78125 0.15625 C 4.507812 0.15625 3.523438 -0.164062 2.828125 -0.8125 C 2.140625 -1.457031 1.796875 -2.40625 1.796875 -3.65625 L 1.796875 -8.03125 L 0.15625 -8.03125 L 0.15625 -10.40625 L 1.796875 -10.40625 L 1.796875 -13 L 4.890625 -13 L 4.890625 -10.40625 L 7.546875 -10.40625 L 7.546875 -8.03125 L 4.890625 -8.03125 L 4.890625 -3.703125 C 4.890625 -3.253906 5.003906 -2.90625 5.234375 -2.65625 C 5.460938 -2.414062 5.789062 -2.296875 6.21875 -2.296875 C 6.707031 -2.296875 7.125 -2.425781 7.46875 -2.6875 Z M 8.296875 -0.515625 "/></g></g></g><g fill="#000000" fill-opacity="1"><g transform="translate(114.670743, 42.627888)"><g><path d="M 11.859375 -5.28125 C 11.859375 -5.238281 11.835938 -4.960938 11.796875 -4.453125 L 3.734375 -4.453125 C 3.878906 -3.796875 4.222656 -3.273438 4.765625 -2.890625 C 5.304688 -2.503906 5.984375 -2.3125 6.796875 -2.3125 C 7.347656 -2.3125 7.835938 -2.394531 8.265625 -2.5625 C 8.691406 -2.726562 9.09375 -2.988281 9.46875 -3.34375 L 11.109375 -1.5625 C 10.097656 -0.414062 8.632812 0.15625 6.71875 0.15625 C 5.507812 0.15625 4.441406 -0.078125 3.515625 -0.546875 C 2.597656 -1.015625 1.890625 -1.660156 1.390625 -2.484375 C 0.890625 -3.316406 0.640625 -4.265625 0.640625 -5.328125 C 0.640625 -6.367188 0.882812 -7.304688 1.375 -8.140625 C 1.875 -8.984375 2.554688 -9.640625 3.421875 -10.109375 C 4.285156 -10.578125 5.25 -10.8125 6.3125 -10.8125 C 7.351562 -10.8125 8.296875 -10.585938 9.140625 -10.140625 C 9.984375 -9.691406 10.644531 -9.046875 11.125 -8.203125 C 11.613281 -7.367188 11.859375 -6.394531 11.859375 -5.28125 Z M 6.328125 -8.46875 C 5.628906 -8.46875 5.039062 -8.269531 4.5625 -7.875 C 4.09375 -7.476562 3.804688 -6.9375 3.703125 -6.25 L 8.953125 -6.25 C 8.847656 -6.925781 8.554688 -7.460938 8.078125 -7.859375 C 7.597656 -8.265625 7.015625 -8.46875 6.328125 -8.46875 Z M 6.328125 -8.46875 "/></g></g></g><g fill="#000000" fill-opacity="1"><g transform="translate(127.158518, 42.627888)"><g><path d="M 5.015625 0.15625 C 4.128906 0.15625 3.257812 0.046875 2.40625 -0.171875 C 1.5625 -0.390625 0.890625 -0.660156 0.390625 -0.984375 L 1.421875 -3.203125 C 1.898438 -2.898438 2.472656 -2.648438 3.140625 -2.453125 C 3.816406 -2.265625 4.476562 -2.171875 5.125 -2.171875 C 6.4375 -2.171875 7.09375 -2.492188 7.09375 -3.140625 C 7.09375 -3.453125 6.910156 -3.671875 6.546875 -3.796875 C 6.191406 -3.929688 5.644531 -4.046875 4.90625 -4.140625 C 4.039062 -4.265625 3.320312 -4.410156 2.75 -4.578125 C 2.1875 -4.753906 1.695312 -5.0625 1.28125 -5.5 C 0.863281 -5.9375 0.65625 -6.554688 0.65625 -7.359375 C 0.65625 -8.035156 0.847656 -8.632812 1.234375 -9.15625 C 1.628906 -9.675781 2.195312 -10.082031 2.9375 -10.375 C 3.6875 -10.664062 4.566406 -10.8125 5.578125 -10.8125 C 6.335938 -10.8125 7.085938 -10.726562 7.828125 -10.5625 C 8.578125 -10.394531 9.195312 -10.164062 9.6875 -9.875 L 8.65625 -7.6875 C 7.71875 -8.207031 6.691406 -8.46875 5.578125 -8.46875 C 4.921875 -8.46875 4.425781 -8.375 4.09375 -8.1875 C 3.769531 -8.007812 3.609375 -7.773438 3.609375 -7.484375 C 3.609375 -7.148438 3.785156 -6.914062 4.140625 -6.78125 C 4.492188 -6.65625 5.0625 -6.535156 5.84375 -6.421875 C 6.707031 -6.273438 7.414062 -6.117188 7.96875 -5.953125 C 8.53125 -5.785156 9.015625 -5.484375 9.421875 -5.046875 C 9.828125 -4.609375 10.03125 -4.003906 10.03125 -3.234375 C 10.03125 -2.566406 9.832031 -1.972656 9.4375 -1.453125 C 9.039062 -0.941406 8.460938 -0.546875 7.703125 -0.265625 C 6.953125 0.015625 6.054688 0.15625 5.015625 0.15625 Z M 5.015625 0.15625 "/></g></g></g><g fill="#000000" fill-opacity="1"><g transform="translate(49.72593, 67.549495)"><g><path d="M 6.125 -13.859375 L 6.125 0 L 2.90625 0 L 2.90625 -11.28125 L 0.140625 -11.28125 L 0.140625 -13.859375 Z M 6.125 -13.859375 "/></g></g></g><g fill="#000000" fill-opacity="1"><g transform="translate(57.483783, 67.549495)"><g><path d="M 5.515625 -8.65625 C 7.472656 -8.65625 8.914062 -8.265625 9.84375 -7.484375 C 10.78125 -6.703125 11.25 -5.660156 11.25 -4.359375 C 11.25 -3.515625 11.035156 -2.742188 10.609375 -2.046875 C 10.191406 -1.359375 9.550781 -0.804688 8.6875 -0.390625 C 7.820312 0.0234375 6.753906 0.234375 5.484375 0.234375 C 4.503906 0.234375 3.539062 0.109375 2.59375 -0.140625 C 1.65625 -0.398438 0.859375 -0.769531 0.203125 -1.25 L 1.46875 -3.703125 C 1.988281 -3.304688 2.59375 -3 3.28125 -2.78125 C 3.96875 -2.5625 4.675781 -2.453125 5.40625 -2.453125 C 6.207031 -2.453125 6.835938 -2.609375 7.296875 -2.921875 C 7.765625 -3.242188 8 -3.6875 8 -4.25 C 8 -4.84375 7.753906 -5.289062 7.265625 -5.59375 C 6.785156 -5.90625 5.953125 -6.0625 4.765625 -6.0625 L 1.234375 -6.0625 L 1.9375 -13.859375 L 10.390625 -13.859375 L 10.390625 -11.28125 L 4.609375 -11.28125 L 4.390625 -8.65625 Z M 5.515625 -8.65625 "/></g></g></g><g fill="#000000" fill-opacity="1"><g transform="translate(69.259099, 67.549495)"><g><path d="M 2.59375 0.15625 C 2.050781 0.15625 1.59375 -0.0234375 1.21875 -0.390625 C 0.851562 -0.765625 0.671875 -1.226562 0.671875 -1.78125 C 0.671875 -2.351562 0.851562 -2.8125 1.21875 -3.15625 C 1.59375 -3.507812 2.050781 -3.6875 2.59375 -3.6875 C 3.132812 -3.6875 3.585938 -3.507812 3.953125 -3.15625 C 4.328125 -2.8125 4.515625 -2.351562 4.515625 -1.78125 C 4.515625 -1.226562 4.328125 -0.765625 3.953125 -0.390625 C 3.585938 -0.0234375 3.132812 0.15625 2.59375 0.15625 Z M 2.59375 0.15625 "/></g></g></g><g fill="#000000" fill-opacity="1"><g transform="translate(74.186921, 67.549495)"><g><path d="M 7.4375 -8.6875 C 8.320312 -8.6875 9.128906 -8.507812 9.859375 -8.15625 C 10.585938 -7.800781 11.160156 -7.296875 11.578125 -6.640625 C 12.003906 -5.984375 12.21875 -5.226562 12.21875 -4.375 C 12.21875 -3.445312 11.984375 -2.632812 11.515625 -1.9375 C 11.054688 -1.238281 10.425781 -0.703125 9.625 -0.328125 C 8.832031 0.046875 7.945312 0.234375 6.96875 0.234375 C 5.03125 0.234375 3.507812 -0.359375 2.40625 -1.546875 C 1.3125 -2.734375 0.765625 -4.425781 0.765625 -6.625 C 0.765625 -8.195312 1.0625 -9.546875 1.65625 -10.671875 C 2.25 -11.796875 3.078125 -12.644531 4.140625 -13.21875 C 5.203125 -13.800781 6.4375 -14.09375 7.84375 -14.09375 C 8.582031 -14.09375 9.289062 -14.007812 9.96875 -13.84375 C 10.644531 -13.675781 11.222656 -13.441406 11.703125 -13.140625 L 10.515625 -10.796875 C 9.828125 -11.253906 8.960938 -11.484375 7.921875 -11.484375 C 6.742188 -11.484375 5.8125 -11.140625 5.125 -10.453125 C 4.4375 -9.765625 4.066406 -8.769531 4.015625 -7.46875 C 4.835938 -8.28125 5.976562 -8.6875 7.4375 -8.6875 Z M 6.796875 -2.15625 C 7.472656 -2.15625 8.023438 -2.335938 8.453125 -2.703125 C 8.890625 -3.078125 9.109375 -3.582031 9.109375 -4.21875 C 9.109375 -4.851562 8.890625 -5.359375 8.453125 -5.734375 C 8.023438 -6.109375 7.457031 -6.296875 6.75 -6.296875 C 6.050781 -6.296875 5.476562 -6.097656 5.03125 -5.703125 C 4.582031 -5.316406 4.359375 -4.820312 4.359375 -4.21875 C 4.359375 -3.613281 4.570312 -3.117188 5 -2.734375 C 5.4375 -2.347656 6.035156 -2.15625 6.796875 -2.15625 Z M 6.796875 -2.15625 "/></g></g></g><g fill="#000000" fill-opacity="1"><g transform="translate(86.397631, 67.549495)"><g><path d="M 3.984375 -6.375 C 2.960938 -6.375 2.128906 -6.71875 1.484375 -7.40625 C 0.847656 -8.101562 0.53125 -9.035156 0.53125 -10.203125 C 0.53125 -11.359375 0.847656 -12.28125 1.484375 -12.96875 C 2.128906 -13.664062 2.960938 -14.015625 3.984375 -14.015625 C 4.992188 -14.015625 5.816406 -13.664062 6.453125 -12.96875 C 7.085938 -12.28125 7.40625 -11.359375 7.40625 -10.203125 C 7.40625 -9.035156 7.085938 -8.101562 6.453125 -7.40625 C 5.816406 -6.71875 4.992188 -6.375 3.984375 -6.375 Z M 12.234375 -13.859375 L 14.59375 -13.859375 L 5.125 0 L 2.765625 0 Z M 3.984375 -8 C 4.429688 -8 4.78125 -8.179688 5.03125 -8.546875 C 5.289062 -8.921875 5.421875 -9.472656 5.421875 -10.203125 C 5.421875 -10.921875 5.289062 -11.460938 5.03125 -11.828125 C 4.78125 -12.203125 4.429688 -12.390625 3.984375 -12.390625 C 3.546875 -12.390625 3.191406 -12.203125 2.921875 -11.828125 C 2.660156 -11.453125 2.53125 -10.910156 2.53125 -10.203125 C 2.53125 -9.484375 2.660156 -8.9375 2.921875 -8.5625 C 3.191406 -8.1875 3.546875 -8 3.984375 -8 Z M 13.375 0.15625 C 12.71875 0.15625 12.128906 0.00390625 11.609375 -0.296875 C 11.085938 -0.609375 10.679688 -1.054688 10.390625 -1.640625 C 10.097656 -2.222656 9.953125 -2.894531 9.953125 -3.65625 C 9.953125 -4.425781 10.097656 -5.097656 10.390625 -5.671875 C 10.679688 -6.253906 11.085938 -6.703125 11.609375 -7.015625 C 12.128906 -7.328125 12.71875 -7.484375 13.375 -7.484375 C 14.394531 -7.484375 15.222656 -7.132812 15.859375 -6.4375 C 16.503906 -5.75 16.828125 -4.820312 16.828125 -3.65625 C 16.828125 -2.5 16.503906 -1.570312 15.859375 -0.875 C 15.222656 -0.1875 14.394531 0.15625 13.375 0.15625 Z M 13.375 -1.46875 C 13.832031 -1.46875 14.1875 -1.65625 14.4375 -2.03125 C 14.695312 -2.40625 14.828125 -2.945312 14.828125 -3.65625 C 14.828125 -4.375 14.695312 -4.921875 14.4375 -5.296875 C 14.1875 -5.671875 13.832031 -5.859375 13.375 -5.859375 C 12.945312 -5.859375 12.597656 -5.671875 12.328125 -5.296875 C 12.066406 -4.929688 11.9375 -4.382812 11.9375 -3.65625 C 11.9375 -2.9375 12.066406 -2.390625 12.328125 -2.015625 C 12.597656 -1.648438 12.945312 -1.46875 13.375 -1.46875 Z M 13.375 -1.46875 "/></g></g></g><g fill="#000000" fill-opacity="1"><g transform="translate(204.309491, 18.489004)"><g><path d="M 1.640625 -13.859375 L 4.84375 -13.859375 L 4.84375 -2.609375 L 11.796875 -2.609375 L 11.796875 0 L 1.640625 0 Z M 1.640625 -13.859375 "/></g></g></g><g fill="#000000" fill-opacity="1"><g transform="translate(216.262917, 18.489004)"><g><path d="M 1.421875 -10.65625 L 4.515625 -10.65625 L 4.515625 0 L 1.421875 0 Z M 2.96875 -12.140625 C 2.394531 -12.140625 1.929688 -12.300781 1.578125 -12.625 C 1.222656 -12.957031 1.046875 -13.367188 1.046875 -13.859375 C 1.046875 -14.347656 1.222656 -14.753906 1.578125 -15.078125 C 1.929688 -15.410156 2.394531 -15.578125 2.96875 -15.578125 C 3.53125 -15.578125 3.988281 -15.414062 4.34375 -15.09375 C 4.707031 -14.78125 4.890625 -14.390625 4.890625 -13.921875 C 4.890625 -13.398438 4.707031 -12.972656 4.34375 -12.640625 C 3.988281 -12.304688 3.53125 -12.140625 2.96875 -12.140625 Z M 2.96875 -12.140625 "/></g></g></g><g fill="#000000" fill-opacity="1"><g transform="translate(222.219841, 18.489004)"><g><path d="M 12 -10.65625 L 7.5 0 L 4.3125 0 L -0.15625 -10.65625 L 3.03125 -10.65625 L 5.984375 -3.40625 L 9.03125 -10.65625 Z M 12 -10.65625 "/></g></g></g><g fill="#000000" fill-opacity="1"><g transform="translate(234.054523, 18.489004)"><g><path d="M 4.375 -9.25 C 4.738281 -9.757812 5.234375 -10.144531 5.859375 -10.40625 C 6.492188 -10.675781 7.21875 -10.8125 8.03125 -10.8125 L 8.03125 -7.953125 C 7.6875 -7.984375 7.457031 -8 7.34375 -8 C 6.457031 -8 5.765625 -7.75 5.265625 -7.25 C 4.765625 -6.757812 4.515625 -6.019531 4.515625 -5.03125 L 4.515625 0 L 1.421875 0 L 1.421875 -10.65625 L 4.375 -10.65625 Z M 4.375 -9.25 "/></g></g></g><g fill="#000000" fill-opacity="1"><g transform="translate(242.406092, 18.489004)"><g><path d="M 11.859375 -5.28125 C 11.859375 -5.238281 11.835938 -4.960938 11.796875 -4.453125 L 3.734375 -4.453125 C 3.878906 -3.796875 4.222656 -3.273438 4.765625 -2.890625 C 5.304688 -2.503906 5.984375 -2.3125 6.796875 -2.3125 C 7.347656 -2.3125 7.835938 -2.394531 8.265625 -2.5625 C 8.691406 -2.726562 9.09375 -2.988281 9.46875 -3.34375 L 11.109375 -1.5625 C 10.097656 -0.414062 8.632812 0.15625 6.71875 0.15625 C 5.507812 0.15625 4.441406 -0.078125 3.515625 -0.546875 C 2.597656 -1.015625 1.890625 -1.660156 1.390625 -2.484375 C 0.890625 -3.316406 0.640625 -4.265625 0.640625 -5.328125 C 0.640625 -6.367188 0.882812 -7.304688 1.375 -8.140625 C 1.875 -8.984375 2.554688 -9.640625 3.421875 -10.109375 C 4.285156 -10.578125 5.25 -10.8125 6.3125 -10.8125 C 7.351562 -10.8125 8.296875 -10.585938 9.140625 -10.140625 C 9.984375 -9.691406 10.644531 -9.046875 11.125 -8.203125 C 11.613281 -7.367188 11.859375 -6.394531 11.859375 -5.28125 Z M 6.328125 -8.46875 C 5.628906 -8.46875 5.039062 -8.269531 4.5625 -7.875 C 4.09375 -7.476562 3.804688 -6.9375 3.703125 -6.25 L 8.953125 -6.25 C 8.847656 -6.925781 8.554688 -7.460938 8.078125 -7.859375 C 7.597656 -8.265625 7.015625 -8.46875 6.328125 -8.46875 Z M 6.328125 -8.46875 "/></g></g></g><g fill="#000000" fill-opacity="1"><g transform="translate(254.893867, 18.489004)"><g><path d="M 5.015625 0.15625 C 4.128906 0.15625 3.257812 0.046875 2.40625 -0.171875 C 1.5625 -0.390625 0.890625 -0.660156 0.390625 -0.984375 L 1.421875 -3.203125 C 1.898438 -2.898438 2.472656 -2.648438 3.140625 -2.453125 C 3.816406 -2.265625 4.476562 -2.171875 5.125 -2.171875 C 6.4375 -2.171875 7.09375 -2.492188 7.09375 -3.140625 C 7.09375 -3.453125 6.910156 -3.671875 6.546875 -3.796875 C 6.191406 -3.929688 5.644531 -4.046875 4.90625 -4.140625 C 4.039062 -4.265625 3.320312 -4.410156 2.75 -4.578125 C 2.1875 -4.753906 1.695312 -5.0625 1.28125 -5.5 C 0.863281 -5.9375 0.65625 -6.554688 0.65625 -7.359375 C 0.65625 -8.035156 0.847656 -8.632812 1.234375 -9.15625 C 1.628906 -9.675781 2.195312 -10.082031 2.9375 -10.375 C 3.6875 -10.664062 4.566406 -10.8125 5.578125 -10.8125 C 6.335938 -10.8125 7.085938 -10.726562 7.828125 -10.5625 C 8.578125 -10.394531 9.195312 -10.164062 9.6875 -9.875 L 8.65625 -7.6875 C 7.71875 -8.207031 6.691406 -8.46875 5.578125 -8.46875 C 4.921875 -8.46875 4.425781 -8.375 4.09375 -8.1875 C 3.769531 -8.007812 3.609375 -7.773438 3.609375 -7.484375 C 3.609375 -7.148438 3.785156 -6.914062 4.140625 -6.78125 C 4.492188 -6.65625 5.0625 -6.535156 5.84375 -6.421875 C 6.707031 -6.273438 7.414062 -6.117188 7.96875 -5.953125 C 8.53125 -5.785156 9.015625 -5.484375 9.421875 -5.046875 C 9.828125 -4.609375 10.03125 -4.003906 10.03125 -3.234375 C 10.03125 -2.566406 9.832031 -1.972656 9.4375 -1.453125 C 9.039062 -0.941406 8.460938 -0.546875 7.703125 -0.265625 C 6.953125 0.015625 6.054688 0.15625 5.015625 0.15625 Z M 5.015625 0.15625 "/></g></g></g><g fill="#000000" fill-opacity="1"><g transform="translate(213.170723, 43.410611)"><g><path d="M 6.125 -13.859375 L 6.125 0 L 2.90625 0 L 2.90625 -11.28125 L 0.140625 -11.28125 L 0.140625 -13.859375 Z M 6.125 -13.859375 "/></g></g></g><g fill="#000000" fill-opacity="1"><g transform="translate(220.928575, 43.410611)"><g><path d="M 2.59375 0.15625 C 2.050781 0.15625 1.59375 -0.0234375 1.21875 -0.390625 C 0.851562 -0.765625 0.671875 -1.226562 0.671875 -1.78125 C 0.671875 -2.351562 0.851562 -2.8125 1.21875 -3.15625 C 1.59375 -3.507812 2.050781 -3.6875 2.59375 -3.6875 C 3.132812 -3.6875 3.585938 -3.507812 3.953125 -3.15625 C 4.328125 -2.8125 4.515625 -2.351562 4.515625 -1.78125 C 4.515625 -1.226562 4.328125 -0.765625 3.953125 -0.390625 C 3.585938 -0.0234375 3.132812 0.15625 2.59375 0.15625 Z M 2.59375 0.15625 "/></g></g></g><g fill="#000000" fill-opacity="1"><g transform="translate(226.311581, 43.410611)"><g><path d="M 10.25 -7.28125 C 10.9375 -6.9375 11.460938 -6.488281 11.828125 -5.9375 C 12.191406 -5.382812 12.375 -4.742188 12.375 -4.015625 C 12.375 -3.160156 12.128906 -2.410156 11.640625 -1.765625 C 11.148438 -1.128906 10.460938 -0.632812 9.578125 -0.28125 C 8.691406 0.0625 7.671875 0.234375 6.515625 0.234375 C 5.347656 0.234375 4.328125 0.0625 3.453125 -0.28125 C 2.578125 -0.632812 1.894531 -1.128906 1.40625 -1.765625 C 0.925781 -2.410156 0.6875 -3.160156 0.6875 -4.015625 C 0.6875 -4.742188 0.867188 -5.382812 1.234375 -5.9375 C 1.597656 -6.488281 2.117188 -6.9375 2.796875 -7.28125 C 2.273438 -7.601562 1.875 -8.003906 1.59375 -8.484375 C 1.320312 -8.960938 1.1875 -9.515625 1.1875 -10.140625 C 1.1875 -10.941406 1.410156 -11.640625 1.859375 -12.234375 C 2.304688 -12.828125 2.929688 -13.285156 3.734375 -13.609375 C 4.546875 -13.929688 5.472656 -14.09375 6.515625 -14.09375 C 7.566406 -14.09375 8.5 -13.929688 9.3125 -13.609375 C 10.125 -13.285156 10.753906 -12.828125 11.203125 -12.234375 C 11.648438 -11.640625 11.875 -10.941406 11.875 -10.140625 C 11.875 -9.515625 11.734375 -8.960938 11.453125 -8.484375 C 11.179688 -8.003906 10.78125 -7.601562 10.25 -7.28125 Z M 6.515625 -11.734375 C 5.867188 -11.734375 5.347656 -11.578125 4.953125 -11.265625 C 4.566406 -10.960938 4.375 -10.539062 4.375 -10 C 4.375 -9.46875 4.5625 -9.050781 4.9375 -8.75 C 5.320312 -8.445312 5.847656 -8.296875 6.515625 -8.296875 C 7.171875 -8.296875 7.695312 -8.445312 8.09375 -8.75 C 8.488281 -9.050781 8.6875 -9.46875 8.6875 -10 C 8.6875 -10.539062 8.488281 -10.960938 8.09375 -11.265625 C 7.695312 -11.578125 7.171875 -11.734375 6.515625 -11.734375 Z M 6.515625 -2.125 C 7.316406 -2.125 7.953125 -2.300781 8.421875 -2.65625 C 8.890625 -3.019531 9.125 -3.507812 9.125 -4.125 C 9.125 -4.726562 8.890625 -5.207031 8.421875 -5.5625 C 7.953125 -5.914062 7.316406 -6.09375 6.515625 -6.09375 C 5.722656 -6.09375 5.09375 -5.914062 4.625 -5.5625 C 4.164062 -5.207031 3.9375 -4.726562 3.9375 -4.125 C 3.9375 -3.5 4.164062 -3.007812 4.625 -2.65625 C 5.09375 -2.300781 5.722656 -2.125 6.515625 -2.125 Z M 6.515625 -2.125 "/></g></g></g><g fill="#000000" fill-opacity="1"><g transform="translate(239.175366, 43.410611)"><g><path d="M 3.984375 -6.375 C 2.960938 -6.375 2.128906 -6.71875 1.484375 -7.40625 C 0.847656 -8.101562 0.53125 -9.035156 0.53125 -10.203125 C 0.53125 -11.359375 0.847656 -12.28125 1.484375 -12.96875 C 2.128906 -13.664062 2.960938 -14.015625 3.984375 -14.015625 C 4.992188 -14.015625 5.816406 -13.664062 6.453125 -12.96875 C 7.085938 -12.28125 7.40625 -11.359375 7.40625 -10.203125 C 7.40625 -9.035156 7.085938 -8.101562 6.453125 -7.40625 C 5.816406 -6.71875 4.992188 -6.375 3.984375 -6.375 Z M 12.234375 -13.859375 L 14.59375 -13.859375 L 5.125 0 L 2.765625 0 Z M 3.984375 -8 C 4.429688 -8 4.78125 -8.179688 5.03125 -8.546875 C 5.289062 -8.921875 5.421875 -9.472656 5.421875 -10.203125 C 5.421875 -10.921875 5.289062 -11.460938 5.03125 -11.828125 C 4.78125 -12.203125 4.429688 -12.390625 3.984375 -12.390625 C 3.546875 -12.390625 3.191406 -12.203125 2.921875 -11.828125 C 2.660156 -11.453125 2.53125 -10.910156 2.53125 -10.203125 C 2.53125 -9.484375 2.660156 -8.9375 2.921875 -8.5625 C 3.191406 -8.1875 3.546875 -8 3.984375 -8 Z M 13.375 0.15625 C 12.71875 0.15625 12.128906 0.00390625 11.609375 -0.296875 C 11.085938 -0.609375 10.679688 -1.054688 10.390625 -1.640625 C 10.097656 -2.222656 9.953125 -2.894531 9.953125 -3.65625 C 9.953125 -4.425781 10.097656 -5.097656 10.390625 -5.671875 C 10.679688 -6.253906 11.085938 -6.703125 11.609375 -7.015625 C 12.128906 -7.328125 12.71875 -7.484375 13.375 -7.484375 C 14.394531 -7.484375 15.222656 -7.132812 15.859375 -6.4375 C 16.503906 -5.75 16.828125 -4.820312 16.828125 -3.65625 C 16.828125 -2.5 16.503906 -1.570312 15.859375 -0.875 C 15.222656 -0.1875 14.394531 0.15625 13.375 0.15625 Z M 13.375 -1.46875 C 13.832031 -1.46875 14.1875 -1.65625 14.4375 -2.03125 C 14.695312 -2.40625 14.828125 -2.945312 14.828125 -3.65625 C 14.828125 -4.375 14.695312 -4.921875 14.4375 -5.296875 C 14.1875 -5.671875 13.832031 -5.859375 13.375 -5.859375 C 12.945312 -5.859375 12.597656 -5.671875 12.328125 -5.296875 C 12.066406 -4.929688 11.9375 -4.382812 11.9375 -3.65625 C 11.9375 -2.9375 12.066406 -2.390625 12.328125 -2.015625 C 12.597656 -1.648438 12.945312 -1.46875 13.375 -1.46875 Z M 13.375 -1.46875 "/></g></g></g></svg>